<?xml version="1.0" standalone="no"?>
<!DOCTYPE svg PUBLIC "-//W3C//DTD SVG 20010904//EN"
 "http://www.w3.org/TR/2001/REC-SVG-20010904/DTD/svg10.dtd">
<svg version="1.0" xmlns="http://www.w3.org/2000/svg"
 width="41.000000pt" height="96.000000pt" viewBox="0 0 41.000000 96.000000"
 preserveAspectRatio="xMidYMid meet">
<metadata>
Created by potrace 1.16, written by Peter Selinger 2001-2019
</metadata>
<g transform="translate(0.000000,96.000000) scale(0.100000,-0.100000)"
fill="#000000" stroke="none">
<path d="M165 878 c-4 -13 -25 -49 -46 -80 -48 -69 -58 -109 -35 -143 9 -13
16 -33 16 -43 0 -11 11 -27 25 -36 27 -18 105 -22 105 -5 0 6 16 29 35 52 25
29 35 50 35 74 0 18 -3 33 -7 33 -5 0 -8 16 -8 37 0 23 -5 38 -15 41 -12 4
-13 2 -2 -9 23 -25 12 -54 -43 -111 -43 -45 -55 -65 -55 -89 0 -17 -5 -29 -11
-27 -6 2 -10 7 -10 11 1 4 1 16 1 27 0 11 25 47 55 80 30 33 55 68 55 77 -1
16 -2 16 -12 -2 -6 -11 -33 -43 -59 -72 -33 -35 -49 -60 -49 -78 0 -54 -28
-15 -57 78 -4 12 11 42 41 86 25 37 46 75 46 84 0 19 20 33 21 15 3 -28 -4
-45 -36 -88 -32 -45 -59 -90 -52 -90 9 0 97 130 97 144 0 9 5 16 11 16 18 0
-2 -42 -53 -113 -28 -37 -49 -70 -46 -72 7 -7 108 131 108 148 0 9 5 19 10 22
16 10 11 -39 -7 -65 -9 -14 -34 -44 -55 -67 -21 -24 -38 -47 -38 -53 0 -16
100 98 110 126 18 45 12 71 -15 78 -14 4 -25 13 -25 21 0 24 -28 17 -35 -7z
m125 -181 c0 -12 -16 -42 -35 -66 -19 -24 -35 -47 -35 -50 0 -4 -9 -7 -20 -8
-36 -3 -24 42 28 100 49 56 62 61 62 24z M231 655 c-22 -24 -41 -49 -41 -55 0
-6 20 12 45 40 42 47 51 60 41 60 -2 0 -22 -20 -45 -45z M24 526 c4 -26 31
-49 84 -72 l52 -24 0 -156 0 -155 28 3 27 3 3 153 3 152 -31 0 c-16 0 -30 4
-30 8 0 4 -15 14 -34 20 -38 14 -86 49 -86 63 0 5 65 9 152 9 l151 0 -19 -21
c-32 -35 -92 -61 -127 -55 -30 6 -30 5 -7 -5 33 -14 85 2 132 39 59 46 44 52
-137 52 -134 0 -163 -2 -161 -14z m184 -248 c-3 -127 -5 -143 -20 -146 -17 -3
-18 9 -18 142 0 140 1 146 20 146 20 0 20 -5 18 -142z"/>
</g>
</svg>
