<?xml version="1.0" encoding="UTF-8"?>
<!-- Generator: visioncortex VTracer 0.6.4 -->
<svg version="1.1" xmlns="http://www.w3.org/2000/svg" width="164" height="384">
<path d="M0 0 C54.1 0 108.2 0 164 0 C164 126.7 164 253.4 164 384 C109.9 384 55.8 384 0 384 C0 257.3 0 130.6 0 0 Z " fill="#FEFEFD" transform="translate(0,0)"/>
<path d="M0 0 C45.2 0 90.4 0 137 0 C110.3 35.6 71.1 46.8 29.8 28.9 C21.4 24.1 0 11.1 0 0 Z " fill="#022C5E" transform="translate(6,169)"/>
<path d="M0 0 C7.3 0.3 14.5 0.7 22 1 C22 41.6 22 82.2 22 124 C1 124 1 124 0 123 C0 82.4 0 41.8 0 0 Z " fill="#063160" transform="translate(64,210)"/>
<path d="M0 0 C9.6 17 8.6 29.6 -7 43 C-9.3 45.7 -11.7 48.3 -14 51 C-18 55 -22.1 59 -26.2 62.9 C-34.9 72.3 -37.6 77.4 -33.9 90.2 C-32 97 -32 97 -33 101 C-47.8 101 -47.8 101 -52 88 C-54.4 71.4 -51.5 62.8 -39.3 51 C-37.7 49.3 -36 47.7 -34.2 46 C-32.5 44.3 -30.7 42.6 -28.9 40.9 C-25.5 37.5 -22 34.1 -18.5 30.7 C-17 29.3 -15.4 27.8 -13.9 26.2 C-6.6 18.3 -5.8 12.3 -6 2 C-4 -1 -4 -1 0 0 Z " fill="#FE543E" transform="translate(108,62)"/>
<path d="M0 0 C12.5 20.8 -5.1 41.1 -19 56 C-31.6 70 -41.7 81.7 -42.6 100.8 C-42.6 102.7 -42.7 104.6 -42.8 106.5 C-42.9 108 -42.9 109.5 -43 111 C-47 112 -47 112 -50 109 C-57.3 83.8 -51.6 66.8 -34 48 C-32.5 46.2 -31.1 44.4 -29.6 42.6 C-26.4 38.7 -23.1 35 -19.8 31.4 C-11.1 21.5 -9.4 15.2 -9 2 C-6 -1 -6 -1 0 0 Z " fill="#FD543C" transform="translate(95,40)"/>
<path d="M0 0 C11.5 11.5 2.8 27.6 -5 39 C-8.5 43.8 -12 48.5 -15.5 53.2 C-25.2 66.5 -34.5 79.4 -37 96 C-40 96 -40 96 -43 87 C-44.7 60.8 -28 43.2 -12.9 23.3 C-7.8 16.6 -7.8 16.6 -7.1 8.5 C-6.9 -1.7 -6.9 -1.7 0 0 Z " fill="#FE563C" transform="translate(75,26)"/>
<path d="M0 0 C7.1 1.4 5.9 3.3 6.4 10.1 C5.2 26.5 -10.7 39.6 -23 49 C-22.7 51.3 -22.3 53.6 -22 56 C-21 66 -21 66 -23 67 C-32.5 67 -33.1 62.3 -36 54 C-38.2 37.5 -23.3 29.2 -11.4 19.1 C-6 14.2 -4 11.3 -4 4 C-3 3.7 -2 3.3 -1 3 C-0.7 2 -0.3 1 0 0 Z " fill="#FE5840" transform="translate(113,96)"/>
</svg>
