<?xml version="1.0" standalone="no"?>
<!DOCTYPE svg PUBLIC "-//W3C//DTD SVG 20010904//EN"
 "http://www.w3.org/TR/2001/REC-SVG-20010904/DTD/svg10.dtd">
<svg version="1.0" xmlns="http://www.w3.org/2000/svg"
 width="566.000000pt" height="280.000000pt" viewBox="0 0 566.000000 280.000000"
 preserveAspectRatio="xMidYMid meet">
<metadata>
Created by potrace 1.16, written by Peter Selinger 2001-2019
</metadata>
<g transform="translate(0.000000,280.000000) scale(0.100000,-0.100000)"
fill="#000000" stroke="none">
<path d="M4069 2685 c-4 -46 -6 -50 -30 -51 -15 -1 -34 -4 -43 -7 -19 -8 -23
27 -4 39 8 5 9 2 5 -9 -5 -14 -3 -15 13 -4 18 11 19 12 2 18 -28 10 -43 -1
-40 -30 2 -17 -4 -32 -19 -44 -15 -12 -22 -28 -22 -45 2 -24 2 -25 6 -4 3 13
22 36 43 51 35 25 44 28 82 20 24 -4 58 -5 76 -2 25 4 41 0 62 -16 16 -11 33
-21 38 -21 17 0 31 -25 23 -39 -9 -14 -35 -4 -76 31 -25 21 -193 20 -219 -1
-26 -22 -18 -34 8 -14 19 16 40 19 103 18 67 -1 84 -5 120 -28 52 -33 69 -34
76 -5 6 22 -7 48 -25 48 -5 0 -22 9 -36 21 -18 14 -39 20 -67 18 -70 -3 -71
-2 -67 35 2 18 2 42 -1 52 -2 11 -6 -3 -8 -31z M4094 2700 c1 -22 5 -25 36
-23 l35 2 -32 -14 c-43 -20 -42 -26 2 -12 47 14 48 41 0 35 -28 -3 -35 0 -38
17 -3 14 -4 12 -3 -5z M4207 2653 c-15 -14 -6 -25 10 -12 15 12 16 12 10 -3
-3 -10 -2 -18 2 -18 11 0 22 26 14 34 -8 8 -28 8 -36 -1z M1821 2642 c0 -7 -5
-10 -11 -7 -6 4 -10 -6 -10 -23 0 -16 -7 -35 -15 -42 -22 -18 0 -43 25 -30 29
16 65 12 93 -10 14 -11 32 -20 40 -20 22 0 46 -33 62 -87 10 -33 20 -50 31
-50 13 0 15 8 9 46 -10 69 -30 98 -86 127 -64 32 -74 27 -12 -7 50 -26 77 -62
88 -119 10 -50 -12 -26 -28 31 -9 32 -21 48 -42 59 -17 8 -41 23 -55 33 -27
19 -72 22 -101 7 -22 -13 -26 2 -6 22 8 7 12 22 10 33 -3 18 -2 18 8 -2 7 -13
21 -23 33 -22 21 0 21 1 1 8 -11 4 -23 21 -26 37 -4 16 -7 23 -8 16z M5215
2613 c-27 -19 -62 -47 -77 -60 -15 -14 -32 -22 -38 -18 -13 8 -115 -98 -197
-208 -38 -49 -53 -63 -53 -48 0 32 -31 26 -70 -14 -19 -19 -41 -35 -50 -35
-20 0 -50 -31 -50 -50 0 -11 27 -12 137 -7 75 4 156 7 179 7 57 0 50 25 -8 33
-22 3 -48 12 -56 21 -14 14 -12 21 24 73 55 81 153 177 262 258 50 37 92 72
92 77 0 19 -49 5 -95 -29z m72 14 c-10 -7 -67 -48 -125 -92 -108 -82 -236
-221 -249 -273 -9 -38 16 -56 87 -63 33 -3 -145 -16 -239 -18 -73 -1 -74 -1
-56 19 10 11 26 20 35 20 9 0 31 16 50 35 39 40 46 42 53 15 8 -30 18 -24 62
37 61 85 183 217 203 218 9 1 51 27 92 58 41 31 82 57 90 56 12 0 11 -3 -3
-12z M505 2629 c-81 -12 -190 -45 -231 -72 -27 -18 -34 -29 -34 -55 0 -29 5
-35 37 -49 23 -9 77 -16 138 -18 l100 -4 -102 9 c-164 14 -209 56 -119 113 67
42 306 94 306 66 0 -5 4 -8 8 -5 5 3 25 6 45 8 21 1 37 5 37 8 0 8 -120 8
-185 -1z M1880 2621 c-9 -19 -7 -22 16 -31 15 -6 35 -8 45 -5 11 4 19 2 19 -5
0 -7 7 -9 15 -6 10 4 19 -2 25 -17 l9 -22 0 22 c1 12 6 25 13 29 8 5 9 2 5 -9
-3 -10 -2 -17 3 -17 14 0 19 15 10 30 -7 11 -12 12 -21 3 -6 -6 -19 -9 -28 -6
-30 9 -66 28 -73 38 -5 6 -8 2 -8 -7 0 -10 -7 -18 -16 -18 -14 0 -14 3 -4 15
7 9 10 18 7 21 -3 3 -10 -4 -17 -15z m57 -27 c-3 -3 -12 -4 -19 -1 -8 3 -5 6
6 6 11 1 17 -2 13 -5z M2456 2590 c-12 -75 -37 -88 -84 -45 -15 14 -31 25 -37
25 -17 -1 59 -59 77 -60 9 0 23 7 32 15 16 17 31 76 24 97 -3 7 -8 -7 -12 -32z
M2482 2595 c-2 -56 7 -82 29 -88 10 -3 19 -2 19 2 0 4 17 17 38 28 20 12 48
33 61 47 14 14 29 26 34 26 6 0 -13 -24 -42 -54 -52 -56 -66 -97 -33 -95 10 0
12 3 5 6 -22 8 -15 22 38 78 44 47 50 57 39 70 -12 14 -18 12 -54 -22 -47 -44
-104 -78 -114 -68 -4 3 -9 30 -13 58 -6 48 -6 49 -7 12z M5276 2577 c-50 -28
-117 -78 -150 -111 -34 -32 -43 -43 -20 -24 50 43 139 103 217 147 54 31 67
41 50 41 -5 0 -48 -24 -97 -53z M575 2594 c-102 -15 -217 -46 -222 -60 -1 -5
2 -16 7 -24 14 -23 359 -26 555 -5 144 15 421 62 380 64 -11 0 -69 -8 -130
-20 -181 -33 -368 -49 -576 -49 -148 0 -200 3 -214 13 -10 8 -14 16 -9 19 28
16 161 48 238 57 49 6 91 13 94 16 7 7 -20 5 -123 -11z M2887 2597 c-26 -18
-32 -80 -13 -130 23 -60 118 -191 142 -195 17 -2 17 -2 2 8 -20 12 -100 125
-128 180 -26 50 -25 95 0 120 45 45 102 14 195 -108 21 -29 43 -52 48 -52 12
0 -89 128 -127 162 -34 30 -90 37 -119 15z M1690 2575 c-16 -20 3 -45 34 -44
l21 0 -21 9 c-23 9 -41 30 -27 30 5 0 14 -5 21 -12 6 -6 14 -9 17 -6 3 2 -3
12 -14 22 -16 15 -19 15 -31 1z M3870 2563 c0 -5 13 -17 28 -27 l27 -19 -24
26 c-26 28 -31 32 -31 20z M2310 2555 c0 -5 19 -29 42 -52 48 -49 45 -58 -27
-71 l-50 -10 45 -2 45 -3 -45 -7 -45 -7 45 -2 45 -1 -42 -28 c-36 -24 -40 -29
-26 -38 12 -8 27 -5 55 10 54 29 63 11 31 -62 -22 -51 -25 -82 -6 -82 5 0 23
25 42 56 24 41 36 53 42 43 5 -8 9 -21 9 -30 0 -9 7 -16 15 -16 10 0 15 10 15
28 0 37 14 44 30 14 7 -14 19 -25 25 -25 6 0 18 -11 25 -25 7 -14 17 -25 22
-25 10 0 -8 36 -22 45 -6 3 -10 12 -10 18 0 7 12 -1 25 -16 14 -16 25 -22 25
-14 0 7 -13 26 -30 42 -32 31 -39 51 -16 42 10 -4 13 -1 10 8 -6 15 -34 9 -34
-7 0 -5 5 -18 10 -28 6 -10 6 -21 2 -24 -5 -3 -15 6 -22 20 -18 32 -43 27 -50
-11 l-6 -30 -7 28 c-11 39 -32 33 -63 -18 -14 -25 -31 -45 -37 -45 -8 0 -8 3
-2 8 6 4 12 16 13 27 2 11 9 31 16 45 16 31 10 60 -12 60 -9 0 -32 -9 -49 -20
-18 -11 -33 -16 -33 -10 0 5 14 17 30 27 19 11 30 25 30 39 0 12 7 24 15 28
27 10 16 41 -30 86 -25 24 -45 40 -45 35z M3763 2525 l-33 -35 -41 20 c-22 12
-43 19 -46 16 -3 -3 12 -13 33 -23 22 -9 47 -24 57 -32 9 -8 17 -11 17 -8 0 3
27 -7 59 -24 33 -16 65 -29 70 -29 6 0 11 -9 11 -19 0 -18 -3 -19 -62 -5 -35
8 -71 17 -82 20 -11 4 -16 2 -12 -4 3 -5 24 -12 46 -16 22 -3 40 -10 40 -15 0
-5 14 -7 31 -4 29 4 30 3 19 -18 -7 -12 -10 -37 -7 -56 6 -32 4 -33 -21 -31
-25 3 -27 0 -24 -27 l3 -30 -21 21 c-17 17 -20 26 -12 40 6 11 12 34 14 53 4
42 -17 53 -33 17 -7 -14 -20 -28 -31 -31 -22 -8 -23 -31 -3 -78 16 -38 57 -60
97 -50 16 4 0 -15 -49 -61 -40 -37 -73 -72 -73 -78 0 -11 139 115 153 139 5 8
1 20 -9 31 -16 15 -17 15 -12 0 9 -23 -28 -31 -63 -13 -31 17 -61 86 -40 93
13 4 23 15 46 47 13 18 13 17 6 -15 -4 -19 -11 -44 -15 -56 -4 -14 0 -29 12
-44 22 -27 44 -19 40 13 -2 17 2 21 22 22 22 0 25 4 22 32 -2 17 4 45 12 62
18 33 21 71 7 71 -5 0 -42 15 -81 33 -68 32 -70 34 -52 50 10 9 25 17 33 17 9
0 5 -8 -11 -21 -24 -20 -24 -20 -2 -14 12 4 22 2 22 -3 0 -6 6 -12 13 -15 6
-3 29 -12 50 -21 l38 -17 10 30 c14 41 81 74 116 58 l24 -11 -28 -21 c-32 -27
-38 -89 -10 -110 9 -7 17 -23 17 -36 0 -18 10 -28 39 -41 66 -31 94 -17 90 44
-5 65 1 94 26 120 16 17 31 25 44 21 20 -5 65 -51 67 -68 6 -55 37 -70 70 -34
16 17 16 22 4 29 -19 12 -13 12 26 1 l32 -9 -10 37 c-5 20 -21 46 -35 57 -37
31 -12 40 41 15 38 -17 45 -25 50 -58 3 -21 8 -54 12 -74 3 -23 2 -39 -5 -43
-6 -4 -11 0 -11 11 0 49 -62 60 -78 14 -7 -18 -24 -36 -46 -46 -20 -10 -36
-24 -36 -32 0 -15 65 -47 83 -40 7 2 -7 10 -30 17 -24 7 -43 16 -43 20 0 3 18
16 40 29 25 14 40 29 40 42 0 11 7 22 15 25 19 8 45 -13 45 -36 0 -10 7 -20
15 -24 19 -7 30 32 21 77 -4 17 -10 49 -13 69 -4 32 -11 40 -49 58 -69 34
-111 9 -60 -35 13 -11 27 -30 31 -42 5 -19 2 -22 -22 -20 -19 1 -27 -2 -25
-12 3 -14 -15 -41 -28 -41 -4 0 -12 11 -18 25 -10 21 -9 25 4 25 9 0 18 9 21
20 3 11 9 17 14 14 5 -3 9 0 9 5 0 14 -31 14 -50 0 -13 -9 -12 -10 3 -5 19 6
24 -9 6 -20 -6 -3 -23 8 -37 26 -34 40 -82 44 -111 9 -20 -26 -34 -97 -25
-133 3 -14 -1 -27 -10 -35 -24 -20 -96 15 -96 46 0 13 -9 32 -20 43 -28 28
-25 47 10 80 37 35 38 45 3 58 -40 13 -94 -8 -118 -46 -24 -37 -33 -39 -80
-11 -33 20 -35 23 -22 43 15 23 12 46 -6 46 -7 0 -27 -16 -44 -35z m47 9 c0
-8 -5 -12 -10 -9 -6 4 -8 11 -5 16 9 14 15 11 15 -7z M1193 2525 c-215 -50
-302 -59 -558 -57 -132 1 -258 4 -280 7 -29 3 -33 2 -15 -4 54 -17 431 -22
563 -6 152 18 472 82 412 83 -11 0 -66 -10 -122 -23z M3670 2546 c0 -3 14 -12
30 -21 17 -9 30 -13 30 -11 0 3 -13 12 -30 21 -16 9 -30 13 -30 11z M3850
2543 c1 -11 50 -46 56 -40 3 3 -9 15 -25 27 -17 12 -31 18 -31 13z M4070 2543
c0 -17 24 -33 48 -33 38 0 24 34 -16 38 -17 2 -32 -1 -32 -5z m55 -13 c8 -13
-15 -13 -35 0 -12 8 -11 10 7 10 12 0 25 -4 28 -10z M280 2495 c7 -8 17 -15
22 -15 6 0 5 7 -2 15 -7 8 -17 15 -22 15 -6 0 -5 -7 2 -15z M1641 2469 c-6
-18 -10 -48 -10 -68 1 -29 3 -31 7 -11 l5 25 8 -25 c6 -21 7 -19 8 16 1 22 6
45 12 51 13 13 5 43 -10 43 -5 0 -14 -14 -20 -31z m25 -5 c-4 -9 -9 -15 -11
-12 -3 3 -3 13 1 22 4 9 9 15 11 12 3 -3 3 -13 -1 -22z M3027 2486 c-9 -24
122 -226 213 -328 64 -71 93 -84 160 -68 56 13 61 19 70 70 l7 35 8 -28 c6
-22 3 -35 -13 -55 -11 -15 -25 -26 -32 -24 -6 1 -9 -2 -6 -7 12 -19 -26 -34
-80 -33 -43 1 -64 8 -98 31 -50 35 -176 168 -212 223 -27 42 -40 52 -49 38 -3
-5 -1 -10 4 -10 6 0 22 -17 35 -37 39 -61 175 -201 221 -229 33 -19 58 -25
105 -26 56 -1 64 2 95 32 36 35 51 76 40 110 -11 34 -35 24 -35 -15 0 -41 -24
-61 -87 -71 -42 -6 -44 -6 -105 58 -63 65 -98 110 -188 248 -35 55 -46 78 -38
87 7 9 7 13 0 13 -5 0 -12 -6 -15 -14z M2062 2441 c-1 -18 3 -31 13 -35 20 -7
32 21 18 42 -16 26 -29 24 -31 -7z m28 -12 c0 -5 -4 -9 -10 -9 -5 0 -10 7 -10
16 0 8 5 12 10 9 6 -3 10 -10 10 -16z M1702 2402 l-2 -64 66 -64 c36 -35 62
-64 59 -64 -15 0 -51 25 -68 47 -19 24 -39 31 -34 12 1 -6 -4 -14 -11 -16 -9
-4 -11 2 -7 19 3 13 -1 41 -10 62 -10 25 -14 53 -11 80 l5 41 -11 -38 c-8 -30
-7 -47 5 -80 9 -23 13 -54 10 -69 -5 -29 12 -39 33 -19 12 12 74 -42 75 -66 0
-16 2 -15 9 2 l9 20 1 -20 c1 -16 3 -15 12 7 9 26 5 32 -54 88 -62 59 -63 62
-69 123 l-6 62 -1 -63z M2464 2445 c-11 -28 1 -50 29 -53 49 -6 46 48 -4 61
-12 3 -22 0 -25 -8z m45 -19 c9 -10 9 -16 1 -21 -16 -10 -40 2 -40 20 0 19 24
20 39 1z M4052 2429 c-1 -16 -1 -29 2 -29 7 0 13 50 7 55 -4 2 -8 -10 -9 -26z
M2591 2440 c-1 -18 18 -40 34 -40 5 0 3 6 -6 13 -9 7 -18 19 -22 27 -5 13 -6
13 -6 0z M4032 2430 c0 -14 2 -19 5 -12 2 6 2 18 0 25 -3 6 -5 1 -5 -13z
M3760 2420 c8 -5 24 -10 36 -10 11 0 24 -3 27 -7 8 -7 57 -14 57 -8 0 4 -46
17 -105 29 -22 5 -26 4 -15 -4z M2590 2380 c0 -10 7 -23 15 -30 8 -7 12 -16 9
-21 -3 -5 3 -6 12 -2 15 6 15 8 -4 24 -27 21 -27 26 -4 31 14 3 13 5 -5 10
-18 5 -23 2 -23 -12z M1958 2373 c12 -2 20 -8 17 -13 -3 -5 -13 -7 -23 -4 -14
5 -14 4 -3 -4 18 -13 41 -5 41 14 0 9 -10 14 -27 13 -24 -2 -25 -2 -5 -6z
M1766 2352 c-8 -13 10 -35 24 -30 21 7 21 38 0 38 -10 0 -21 -4 -24 -8z M2067
2343 c-4 -10 -13 -36 -21 -58 l-15 -40 19 25 c10 13 18 27 17 30 0 3 3 15 7
28 4 13 6 26 3 28 -2 3 -7 -3 -10 -13z M2064 2273 c-12 -24 -17 -43 -13 -43
12 0 41 59 37 74 -2 6 -12 -7 -24 -31z M1984 2289 c-10 -12 -35 -29 -54 -40
-19 -10 -28 -18 -20 -19 22 0 77 36 90 59 14 27 8 27 -16 0z M4423 2298 c-9
-16 -10 -45 -1 -80 4 -19 1 -31 -15 -47 -47 -45 -58 -61 -43 -61 8 0 17 9 21
19 3 11 17 26 30 35 21 14 24 22 19 59 -3 23 -7 47 -9 54 -2 7 0 15 5 18 5 3
12 -5 15 -17 4 -13 14 -31 22 -40 25 -28 7 -75 -40 -106 -23 -15 -51 -30 -62
-34 -17 -5 -16 -6 6 -7 14 -1 34 8 44 19 10 11 24 20 31 20 17 0 44 51 44 83
0 14 -6 30 -14 36 -8 7 -17 23 -20 36 -7 27 -20 32 -33 13z M925 2279 c-49
-10 -207 -38 -350 -63 -315 -55 -365 -69 -365 -98 0 -21 2 -21 162 -15 263 11
689 37 748 46 63 10 79 11 -335 -14 -575 -35 -649 -32 -492 19 11 3 112 22
225 41 114 19 277 48 362 65 85 16 166 31 180 33 17 3 14 4 -10 5 -19 0 -75
-9 -125 -19z M1629 2298 c-9 -30 -5 -39 14 -36 29 4 36 38 8 38 -12 0 -21 -1
-22 -2z m31 -12 c0 -3 -4 -8 -10 -11 -5 -3 -10 -1 -10 4 0 6 5 11 10 11 6 0
10 -2 10 -4z M1880 2280 c0 -15 5 -20 18 -18 9 2 17 10 17 18 0 8 -8 16 -17
18 -13 2 -18 -3 -18 -18z M2006 2271 c-12 -14 -16 -27 -11 -43 7 -22 7 -23
-13 -5 -13 12 -22 15 -27 8 -3 -6 -18 -12 -33 -12 -24 -2 -25 -2 -4 -6 13 -3
29 0 36 6 10 9 15 8 20 -4 9 -24 38 -19 35 8 -2 12 3 32 9 45 15 27 11 28 -12
3z M4990 2271 c0 -20 18 -31 50 -31 18 0 21 15 7 38 -13 20 -57 15 -57 -7z
m45 -2 c4 -6 5 -12 2 -15 -7 -7 -37 7 -37 17 0 13 27 11 35 -2z M950 2255
c-58 -13 -125 -29 -150 -34 -25 -6 -67 -15 -95 -20 l-50 -10 60 6 c33 3 78 9
100 15 22 5 89 20 148 33 60 12 111 26 114 29 10 9 -14 6 -127 -19z M1091
2254 c-46 -8 -91 -19 -100 -25 -13 -8 -11 -9 9 -4 113 27 303 46 255 25 -11
-5 -35 -9 -54 -9 -19 -1 -32 -4 -28 -7 3 -4 31 -3 61 0 42 6 54 11 49 22 -7
18 -76 17 -192 -2z M4276 2241 c-14 -8 -26 -23 -26 -31 0 -9 -6 -22 -12 -28
-10 -10 -10 -17 0 -32 7 -12 8 -21 2 -25 -6 -4 -13 1 -16 9 -10 26 -37 18 -68
-20 -35 -45 -38 -64 -8 -79 27 -14 17 -25 -39 -45 -33 -12 -39 -11 -81 14 -45
26 -118 89 -118 101 0 12 60 -26 70 -45 6 -11 19 -20 29 -20 10 0 24 -7 31
-15 16 -20 52 -16 55 6 2 10 -10 20 -32 28 -37 14 -37 25 0 26 36 0 35 39 -2
54 -16 7 -32 19 -35 27 -10 27 -46 16 -63 -21 -9 -19 -23 -35 -30 -35 -9 0 -6
12 11 39 26 40 20 65 -13 53 -22 -8 -201 -173 -201 -185 0 -5 41 28 91 74 50
46 97 88 104 94 27 18 28 -5 1 -39 -14 -19 -26 -40 -26 -46 0 -13 79 -90 93
-90 5 0 20 -9 34 -20 31 -24 66 -25 113 -2 35 17 54 52 27 52 -35 0 -35 25 -2
63 l33 38 42 -45 c24 -25 48 -46 56 -46 30 0 24 24 -15 64 -29 30 -40 48 -35
60 6 16 8 16 28 -1 40 -35 56 -45 56 -36 0 6 -16 21 -35 34 -40 28 -43 39 -15
57 17 10 30 10 71 -2 27 -8 47 -11 44 -6 -4 6 -14 10 -23 10 -9 0 -29 6 -43
14 -23 12 -30 11 -53 -3z m-260 -85 c3 -8 19 -19 36 -25 32 -11 34 -37 2 -34
-10 1 -22 -4 -26 -10 -8 -14 9 -37 28 -37 13 0 29 -18 22 -26 -7 -7 -79 34
-102 58 -21 23 -21 23 -3 56 20 35 34 40 43 18z m269 -66 c16 -16 24 -30 19
-30 -6 0 -23 14 -39 30 -16 17 -24 30 -19 30 6 0 23 -13 39 -30z M880 2199
c-145 -13 -158 -18 -30 -12 63 3 124 9 135 14 23 9 21 9 -105 -2z M810 2170
c-36 -4 -112 -9 -170 -10 -58 -1 -114 -5 -125 -10 -15 -7 -9 -8 20 -5 22 2
105 7 185 11 80 3 170 10 200 14 l55 7 -50 0 c-27 0 -79 -3 -115 -7z M4264
2151 c7 -11 46 -35 46 -28 0 3 -12 12 -26 22 -15 9 -23 12 -20 6z M3875 2069
c-4 -6 -5 -12 -2 -15 2 -3 7 2 10 11 7 17 1 20 -8 4z M2560 2044 c1 -5 7 -36
15 -69 8 -33 15 -69 15 -79 0 -37 -14 -5 -31 72 -9 42 -18 69 -18 59 -2 -41
31 -157 45 -157 17 0 17 26 0 108 -12 55 -27 93 -26 66z M5191 1994 c-76 -20
-212 -97 -277 -156 -30 -28 -52 -53 -50 -56 3 -2 30 18 61 46 67 62 222 147
294 163 46 10 55 9 72 -7 31 -28 25 -99 -14 -156 -37 -54 -121 -131 -131 -120
-4 4 -6 0 -4 -8 2 -8 -10 -21 -27 -30 -16 -9 -62 -35 -102 -58 -39 -23 -82
-42 -95 -42 -13 0 -33 -7 -46 -15 -12 -9 -39 -22 -59 -30 l-38 -15 35 6 c19 4
47 15 62 25 14 11 39 19 56 19 16 0 40 8 53 18 13 10 40 27 59 37 19 9 49 25
67 34 48 24 169 144 192 190 29 57 29 134 -1 155 -27 19 -37 19 -107 0z M2687
1963 c-7 -12 -20 -79 -14 -73 6 6 27 80 22 80 -2 0 -6 -3 -8 -7z M2707 1943
c-3 -16 -9 -37 -13 -48 -5 -14 -4 -17 4 -10 11 10 28 85 19 85 -2 0 -7 -12
-10 -27z M5153 1931 c-34 -17 -87 -48 -117 -70 -64 -47 -96 -54 -48 -11 18 17
29 30 24 30 -12 0 -138 -119 -126 -120 5 0 23 13 39 30 19 20 33 27 43 21 10
-6 33 6 76 38 74 55 178 106 200 98 15 -6 15 -9 0 -39 -9 -18 -37 -57 -61 -86
-25 -29 -43 -55 -40 -58 8 -8 96 100 112 140 27 65 -4 73 -102 27z M785 1934
c-103 -18 -306 -84 -312 -101 -11 -27 9 -26 125 10 64 21 142 42 172 48 57 11
278 14 314 4 18 -5 18 -4 4 4 -23 15 -240 16 -318 1 -36 -6 -114 -27 -173 -47
-109 -35 -153 -39 -81 -7 75 32 189 64 291 81 94 15 112 15 203 1 55 -8 100
-12 100 -8 0 7 -172 31 -215 29 -16 0 -66 -7 -110 -15z M1846 1934 c-3 -9 -6
-36 -6 -60 0 -31 -4 -44 -14 -44 -8 0 -17 8 -19 18 -3 12 -5 10 -6 -7 -1 -20
-8 -13 -41 38 -33 51 -43 61 -55 51 -12 -10 -10 -19 13 -60 15 -27 24 -52 20
-55 -4 -4 -24 6 -45 22 -46 36 -64 43 -79 29 -8 -7 3 -24 39 -59 39 -38 47
-51 36 -58 -12 -7 -12 -9 1 -10 10 0 8 -3 -5 -9 -14 -6 -15 -9 -5 -10 28 -3
-23 -19 -65 -20 -22 -1 -34 -4 -27 -7 7 -3 37 -2 65 1 51 7 52 8 55 42 2 29
-5 41 -43 79 -51 51 -42 60 15 15 65 -51 92 -31 50 38 -11 17 -16 32 -12 32 4
0 0 5 -8 10 -8 5 -10 10 -4 10 9 0 67 -80 78 -106 1 -1 19 1 41 5 28 5 47 3
62 -7 21 -13 24 -12 44 22 11 20 26 36 32 36 8 0 7 -3 -1 -9 -8 -4 -14 -12
-14 -17 0 -5 -5 -19 -11 -31 -8 -18 -5 -26 18 -47 20 -19 31 -23 40 -16 7 6
44 21 81 35 38 13 64 24 57 24 -6 1 -43 -10 -81 -24 -38 -14 -73 -25 -78 -25
-5 0 11 18 36 39 25 21 43 41 40 44 -3 3 -24 -12 -47 -33 -22 -22 -43 -36 -47
-33 -3 3 15 24 40 46 25 22 42 42 39 45 -3 3 -26 -14 -50 -38 -49 -48 -57 -46
-25 6 13 21 17 35 10 39 -6 3 -8 11 -5 16 4 5 2 9 -3 9 -5 0 -20 -20 -33 -45
-22 -41 -25 -43 -41 -28 -14 13 -17 27 -13 72 l4 56 -9 -55 c-15 -80 -20 -84
-17 -12 2 34 2 62 1 62 -1 0 -5 -7 -8 -16z M2434 1870 c21 -23 34 -46 30 -52
-5 -8 -11 -6 -18 6 -22 37 -48 66 -59 66 -6 0 2 -13 17 -29 15 -16 23 -31 18
-35 -20 -12 -72 -100 -71 -120 1 -17 2 -15 9 6 9 30 69 112 77 104 2 -2 -12
-26 -31 -54 -20 -27 -36 -56 -36 -63 0 -8 16 10 36 40 21 31 56 65 85 84 53
33 60 48 10 22 -17 -8 -31 -11 -31 -6 0 5 17 16 38 24 20 9 30 16 22 16 -8 1
-26 -5 -40 -12 -23 -11 -27 -10 -48 15 -13 15 -28 28 -34 28 -6 0 6 -18 26
-40z M2888 1874 l-36 -37 -37 23 c-20 12 -39 19 -43 16 -3 -4 4 -9 16 -13 12
-3 19 -9 17 -14 -3 -4 -12 -6 -20 -2 -8 3 -15 0 -15 -7 0 -6 4 -9 8 -6 11 7
73 -58 101 -104 12 -19 21 -29 21 -22 0 17 -42 82 -69 106 -23 21 -30 46 -6
26 8 -6 22 -9 33 -6 21 7 91 76 76 76 -5 0 -26 -16 -46 -36z M2742 1865 c-6
-14 -7 -25 -2 -25 9 0 25 39 18 46 -3 2 -10 -7 -16 -21z M2904 1850 c-23 -21
-45 -36 -49 -32 -5 4 4 -10 19 -30 15 -20 31 -49 36 -65 7 -22 8 -24 9 -7 1
12 -9 36 -22 55 l-23 34 45 42 c26 23 42 42 36 42 -5 1 -29 -17 -51 -39z
M3340 1852 c0 -7 -4 -10 -10 -7 -6 4 -7 -2 -1 -17 6 -17 4 -26 -8 -35 -13 -10
-14 -15 -3 -32 7 -13 8 -21 2 -21 -5 0 -10 -7 -10 -15 0 -8 -13 -24 -29 -36
-43 -32 -57 -70 -38 -106 9 -15 22 -43 31 -60 8 -18 22 -33 32 -33 13 0 15 7
10 43 -6 45 11 124 32 150 7 8 27 21 45 28 72 29 54 73 -21 48 -28 -9 -36 -9
-43 2 -12 19 -11 32 1 24 10 -6 13 5 11 40 -1 17 1 17 13 -5 11 -18 11 -27 3
-32 -7 -4 -2 -6 10 -5 20 1 20 3 8 27 -25 44 -35 56 -35 42z m80 -102 c11 -7
4 -13 -32 -29 -25 -10 -49 -24 -52 -30 -18 -28 -36 -127 -30 -160 7 -33 6 -35
-9 -22 -10 7 -17 20 -17 28 0 8 -9 26 -20 40 -28 35 -26 45 20 92 22 22 40 45
40 50 0 4 17 15 38 24 46 19 44 19 62 7z M2576 1835 c-21 -7 -54 -28 -72 -46
-36 -35 -84 -121 -84 -151 0 -16 -9 -18 -67 -18 -38 0 -73 -4 -80 -8 -6 -4 26
-5 70 -3 102 4 95 -9 -10 -19 -66 -6 -70 -7 -27 -9 48 -1 52 -3 57 -30 4 -20
13 -30 31 -33 33 -7 33 0 0 12 -32 12 -31 53 2 58 17 2 23 -5 34 -41 14 -51
61 -102 130 -140 44 -25 45 -26 43 -74 l-2 -48 8 42 c11 61 25 67 17 8 -4 -34
-3 -43 3 -30 5 11 10 32 10 48 1 15 7 27 14 27 6 0 22 3 34 6 19 5 24 -2 44
-55 12 -34 24 -59 27 -57 4 4 -12 58 -33 109 -4 10 -3 17 4 17 5 0 19 -28 30
-62 11 -35 20 -56 20 -47 1 8 -6 37 -16 64 -14 41 -14 50 -2 53 8 3 32 24 55
47 43 44 75 52 49 11 -14 -21 -14 -25 0 -36 12 -10 18 -6 37 26 33 55 30 66
-17 71 -22 2 -56 8 -75 13 -49 14 -70 12 -70 -4 0 -16 21 -26 53 -26 19 0 18
-3 -13 -35 -19 -19 -37 -32 -42 -27 -4 4 -14 25 -23 47 -15 38 -14 15 0 -32 5
-14 3 -23 -3 -23 -6 0 -14 17 -17 38 -4 20 -9 42 -11 47 -5 11 2 -61 7 -85 3
-11 -6 -16 -33 -18 -30 -3 -36 0 -34 15 2 10 1 12 -1 6 -7 -21 -33 -15 -44 11
-7 15 -23 27 -43 30 -31 7 -58 35 -75 79 -9 24 -8 25 48 31 41 5 58 11 58 21
0 11 -13 15 -54 15 -64 0 -70 16 -22 61 17 16 32 35 33 43 9 61 127 98 187 58
38 -24 90 -77 103 -103 6 -12 17 -24 25 -27 8 -3 11 0 7 6 -3 6 -1 12 5 14 20
7 -20 75 -63 110 -71 55 -138 69 -212 43z m122 -4 c61 -18 170 -129 143 -146
-6 -3 -17 7 -25 22 -19 36 -63 77 -101 97 -70 37 -190 2 -199 -58 -1 -8 -16
-28 -34 -44 -20 -19 -32 -40 -32 -56 0 -25 3 -26 53 -27 63 -1 37 -17 -30 -18
-39 -1 -43 1 -43 24 0 14 7 41 15 61 18 44 114 141 146 147 43 8 73 7 107 -2z
m-243 -280 c7 -35 40 -67 78 -77 16 -3 32 -16 37 -29 13 -35 98 -48 135 -21
11 8 24 12 30 10 15 -6 79 47 83 69 2 12 -4 17 -20 17 -13 0 -30 5 -38 11 -11
8 -6 9 20 4 19 -4 52 -9 73 -12 20 -3 37 -10 37 -15 0 -5 5 -6 10 -3 14 9 13
1 -7 -39 -9 -19 -20 -33 -25 -30 -4 3 -1 15 7 27 20 28 19 34 -7 40 -17 5 -29
-2 -51 -29 -56 -68 -166 -100 -233 -68 -73 35 -154 127 -154 174 0 21 19 -1
25 -29z M3615 1813 c-8 -24 -6 -26 12 -12 15 12 16 12 10 -3 -3 -10 -2 -18 3
-18 6 0 10 11 10 23 0 26 -26 33 -35 10z M4380 1813 c-8 -3 -22 -11 -30 -18
-18 -15 -71 -16 -123 -3 -56 13 -102 -4 -117 -45 -6 -18 -16 -40 -21 -49 -14
-28 -11 -53 10 -72 11 -10 22 -29 25 -42 4 -14 18 -29 33 -35 23 -9 24 -11 10
-27 -17 -18 -87 -187 -86 -206 0 -6 13 22 29 62 16 40 40 92 53 115 27 45 25
55 -8 73 -11 6 -22 20 -23 30 -2 10 -14 29 -25 42 -18 19 -19 26 -9 42 7 11
12 28 12 38 0 22 32 58 60 67 11 4 35 2 53 -4 51 -15 119 -11 146 10 33 26 58
24 92 -10 32 -32 35 -48 17 -98 -11 -29 -10 -35 10 -56 63 -67 -22 -142 -133
-117 -25 6 -51 7 -57 4 -14 -9 -131 -255 -124 -261 3 -3 31 51 64 119 33 69
63 128 69 131 5 3 28 1 51 -5 52 -13 126 5 147 36 21 29 18 76 -5 101 -18 19
-19 26 -10 51 14 36 5 86 -18 108 -20 18 -69 28 -92 19z M341 1788 c-10 -26
-1 -33 34 -24 17 4 22 11 18 26 -7 27 -42 26 -52 -2z m39 3 c0 -12 -20 -25
-27 -18 -7 7 6 27 18 27 5 0 9 -4 9 -9z M3501 1801 c-19 -12 -4 -31 25 -31 26
0 64 -23 127 -77 39 -35 87 -44 87 -18 0 8 -6 15 -13 15 -8 0 -23 10 -35 23
l-22 23 31 23 c28 21 30 25 15 39 -14 15 -18 14 -44 -11 -15 -15 -31 -27 -35
-27 -3 0 -18 11 -33 25 -27 26 -76 33 -103 16z m93 -26 c34 -31 47 -31 85 1
17 14 31 22 31 17 0 -5 -12 -19 -26 -32 -31 -27 -28 -39 16 -68 26 -18 29 -23
13 -23 -10 0 -34 16 -53 35 -19 19 -39 35 -45 35 -7 0 -20 9 -30 20 -12 13
-31 20 -54 20 -27 0 -32 3 -21 10 26 17 56 11 84 -15z M1800 1779 c-46 -18
-60 -39 -60 -88 0 -53 16 -81 64 -110 40 -25 72 -26 114 -6 39 20 45 40 32 99
-14 62 -35 93 -68 101 -15 3 -34 8 -42 10 -8 2 -26 -1 -40 -6z m77 -14 c31 -8
61 -62 65 -114 3 -40 0 -46 -27 -62 -48 -28 -77 -23 -124 20 -39 36 -42 43
-39 82 3 37 8 47 37 66 19 13 41 21 50 19 9 -2 26 -7 38 -11z M2075 1767
c-107 -39 -115 -58 -22 -55 l62 1 -60 6 -60 6 83 28 c77 27 99 38 70 36 -7 0
-40 -10 -73 -22z M2696 1758 c-3 -13 -5 -32 -5 -43 1 -11 5 -2 10 19 10 42 6
62 -5 24z M2721 1742 c-6 -12 -11 -29 -11 -39 1 -11 7 -4 16 16 16 37 12 55
-5 23z M5120 1725 c-28 -30 -184 -125 -205 -125 -18 0 -137 -61 -131 -68 3 -2
31 10 63 26 32 17 69 33 83 36 58 13 263 156 224 156 -6 0 -21 -11 -34 -25z
M3532 1695 c-7 -15 -11 -30 -8 -32 7 -7 28 36 24 49 -2 6 -9 -2 -16 -17z
M2000 1685 c0 -18 5 -20 38 -16 36 5 36 6 7 9 -16 2 -33 9 -37 15 -5 8 -8 4
-8 -8z M3556 1685 c-3 -9 -6 -22 -5 -28 0 -7 5 -1 10 12 5 13 8 26 5 28 -2 2
-6 -3 -10 -12z M1685 1680 c-4 -7 -26 -8 -57 -4 -37 5 -49 4 -44 -5 4 -6 31
-11 60 -11 40 0 53 4 53 15 0 18 -3 19 -12 5z M1033 1673 c-7 -3 -13 -10 -13
-16 0 -8 3 -8 11 0 6 6 18 9 25 6 8 -3 14 -3 14 0 0 8 -24 14 -37 10z M854
1644 c-49 -12 -116 -32 -148 -43 -66 -23 -101 -26 -112 -10 -4 7 -21 9 -48 5
-22 -4 -57 -7 -77 -6 -20 0 -71 -11 -114 -25 -43 -14 -89 -25 -104 -25 -14 0
-30 -4 -36 -8 -17 -12 -16 -32 2 -32 93 2 1035 43 1088 48 42 4 71 12 72 19 3
13 -58 28 -79 20 -7 -3 1 -6 19 -6 17 -1 34 -5 37 -9 8 -13 -255 -31 -599 -42
-170 -5 -361 -13 -424 -16 -82 -4 -112 -3 -107 5 4 6 18 11 30 11 13 0 59 12
102 26 43 14 92 24 109 23 16 -1 47 1 68 6 25 5 42 3 52 -5 20 -16 58 -10 199
34 142 44 179 47 208 19 l20 -21 59 24 c32 13 63 24 69 24 18 0 10 -16 -15
-30 -29 -16 -33 -40 -6 -40 10 0 35 7 56 16 45 18 81 12 90 -17 9 -27 16 -20
9 8 -8 30 -53 38 -99 19 -51 -22 -78 -20 -42 2 29 18 37 52 12 52 -9 0 -42
-11 -75 -24 -44 -18 -60 -21 -64 -11 -11 30 -60 33 -152 9z M3445 1661 c-28
-12 -42 -31 -50 -66 l-6 -30 15 32 c21 45 60 69 89 55 12 -7 34 -16 50 -22 17
-6 27 -17 27 -30 0 -23 -15 -27 -23 -6 -14 36 -123 25 -135 -13 -3 -10 5 -7
23 7 35 28 69 28 97 0 35 -35 50 -32 46 9 -3 31 -8 37 -43 50 -60 22 -68 23
-90 14z M1998 1649 c-11 -6 -18 -22 -18 -38 0 -15 -8 -35 -17 -44 -16 -14 -23
-17 -37 -17 -3 0 -1 -15 4 -32 9 -30 8 -31 -5 -14 -8 11 -15 23 -15 28 0 4 -7
8 -15 8 -11 0 -15 -12 -15 -47 0 -27 -3 -58 -6 -70 -4 -14 -2 -23 5 -23 7 0
11 25 11 68 l1 67 27 -47 c25 -45 55 -70 32 -29 -15 29 -12 39 5 17 8 -11 15
-15 15 -9 0 6 -7 16 -15 23 -22 18 -18 46 9 63 22 15 25 14 43 -2 20 -19 63
-45 63 -38 0 2 -18 17 -40 32 -22 15 -40 32 -40 38 0 5 15 -2 33 -15 44 -34
57 -41 57 -31 0 4 -20 22 -45 38 -61 41 -59 62 7 70 17 3 33 7 36 10 10 9 -63
5 -80 -6z M1615 1615 c-33 -19 -52 -35 -42 -35 10 0 16 -4 12 -9 -6 -10 26 -3
76 17 33 13 42 6 26 -19 -8 -14 -9 -21 0 -30 8 -8 13 -7 18 2 5 8 4 10 -3 5
-16 -10 -15 6 1 28 11 15 15 15 24 4 9 -10 3 -27 -28 -72 -21 -32 -39 -63 -39
-69 0 -10 89 123 90 134 0 4 -14 13 -32 22 -28 14 -36 14 -66 1 -64 -26 -68
-14 -7 21 33 19 53 35 45 35 -8 -1 -42 -16 -75 -35z M642 1629 c-25 -10 -21
-29 6 -29 13 0 14 2 4 9 -11 7 -11 9 2 14 8 3 17 1 20 -6 2 -7 5 -4 5 6 1 19
-4 20 -37 6z M3352 1623 c2 -9 10 -19 18 -21 13 -5 13 -3 0 13 -14 17 -13 18
3 12 9 -3 17 -2 17 3 0 6 -9 10 -21 10 -14 0 -19 -5 -17 -17z M3713 1623 c9
-2 25 -2 35 0 9 3 1 5 -18 5 -19 0 -27 -2 -17 -5z M3664 1582 c8 -54 -10 -107
-50 -147 -18 -19 -34 -39 -34 -45 0 -19 49 -10 87 16 31 21 40 34 50 77 11 47
10 56 -9 94 -28 56 -53 58 -44 5z m43 -98 c-8 -34 -19 -52 -35 -60 -13 -6 -29
-17 -35 -23 -6 -6 -19 -11 -29 -11 -15 0 -12 7 15 34 38 38 60 106 51 158 l-6
33 26 -41 c24 -38 24 -44 13 -90z M3716 1599 c4 -7 44 0 44 7 0 2 -11 3 -24 2
-14 -1 -23 -5 -20 -9z M2828 1573 c23 -2 59 -2 80 0 20 2 1 4 -43 4 -44 0 -61
-2 -37 -4z M2340 1546 c0 -27 -9 -33 -84 -60 -10 -3 -17 -9 -14 -12 3 -2 31 5
62 16 52 20 56 23 50 48 -9 37 -14 40 -14 8z M2838 1553 c23 -2 59 -2 80 0 20
2 1 4 -43 4 -44 0 -61 -2 -37 -4z M1754 1535 c-55 -76 -75 -107 -71 -112 3 -3
23 21 44 53 l38 58 3 -32 c4 -36 27 -43 37 -11 12 37 39 18 46 -31 6 -44 13
-28 9 20 -4 52 -41 62 -67 19 l-14 -24 4 26 c4 30 -15 53 -29 34z M3577 1533
c-15 -15 -7 -43 13 -43 15 0 20 6 19 28 -2 23 -2 24 -6 5 -2 -13 -9 -23 -14
-23 -6 0 -7 9 -4 20 6 20 4 25 -8 13z M2380 1502 c-1 -39 80 -142 113 -142 6
0 -8 16 -30 35 -22 19 -50 54 -61 77 -12 24 -21 37 -22 30z M3403 1499 c-18
-18 -4 -38 43 -59 51 -24 64 -25 89 -6 16 12 17 16 6 30 -7 9 -16 14 -20 11
-8 -4 -77 17 -87 28 -10 10 -18 9 -31 -4z m72 -25 c17 -5 35 -8 42 -9 24 -1
25 -15 1 -26 -20 -9 -32 -8 -59 6 -19 10 -40 22 -46 27 -18 15 -5 29 15 18 9
-5 31 -12 47 -16z M2300 1473 c-25 -13 -34 -21 -20 -17 14 3 35 12 47 20 21
13 23 12 37 -20 18 -42 90 -116 114 -116 11 0 6 7 -15 20 -33 20 -88 87 -98
121 -8 23 -8 23 -65 -8z M2410 1480 c0 -5 7 -7 15 -4 8 4 15 8 15 10 0 2 -7 4
-15 4 -8 0 -15 -4 -15 -10z M1820 1440 c0 -22 3 -40 8 -40 4 0 6 18 4 40 -2
22 -6 40 -8 40 -2 0 -4 -18 -4 -40z M3223 1463 c-19 -7 -15 -33 5 -33 33 0 62
12 62 26 0 14 -41 18 -67 7z m47 -13 c-8 -5 -24 -10 -35 -10 -17 0 -17 2 -5
10 8 5 24 10 35 10 17 0 17 -2 5 -10z M2641 1444 c0 -11 3 -14 6 -6 3 7 2 16
-1 19 -3 4 -6 -2 -5 -13z M3320 1427 c0 -33 24 -67 47 -67 6 0 24 -7 39 -15
33 -17 90 -20 99 -5 4 6 -6 7 -25 4 -54 -11 -150 40 -150 80 0 20 0 20 15 -1
21 -30 102 -65 140 -60 29 4 29 4 -5 6 -43 3 -111 39 -125 66 -17 33 -35 29
-35 -8z M3740 1450 c0 -5 3 -9 8 -9 22 4 24 -3 4 -17 -12 -8 -27 -12 -32 -9
-6 3 -10 1 -10 -4 0 -15 32 -13 54 4 11 8 16 21 13 30 -7 17 -37 21 -37 5z
M4151 1332 c-64 -127 -85 -176 -74 -169 4 3 37 64 73 136 35 72 67 126 71 120
4 -7 8 -6 12 3 3 8 -2 14 -12 15 -12 1 -33 -29 -70 -105z M4152 1426 c3 -4
-10 -42 -29 -84 -56 -123 -75 -168 -65 -157 5 6 32 61 60 122 36 79 47 115 39
119 -7 4 -9 4 -5 0z M4186 1345 c-9 -26 -7 -32 5 -12 6 10 9 21 6 23 -2 3 -7
-2 -11 -11z M5277 1340 c57 -5 78 -11 98 -30 l25 -24 -32 -33 c-23 -24 -56
-41 -113 -60 -171 -56 -495 -36 -495 31 0 18 60 56 88 56 11 0 24 5 27 10 9
14 -40 3 -85 -19 -37 -19 -50 -52 -30 -76 23 -28 152 -47 288 -43 160 6 278
39 330 94 28 29 31 37 21 55 -16 30 -70 49 -136 48 l-58 -2 72 -7z M3532 1323
c2 -10 11 -17 21 -17 9 1 17 -2 17 -7 0 -5 7 -9 15 -9 9 0 15 9 15 25 0 22 -4
25 -36 25 -28 0 -35 -3 -32 -17z m38 3 c0 -11 -19 -15 -25 -6 -3 5 1 10 9 10
9 0 16 -2 16 -4z m17 -18 c-3 -8 -6 -5 -6 6 -1 11 2 17 5 13 3 -3 4 -12 1 -19z
M5120 1320 c-20 -8 -17 -8 15 -5 26 3 49 -1 65 -11 24 -14 22 -15 -35 -10 -39
3 -51 1 -35 -4 14 -4 54 -9 90 -10 101 -2 113 -12 51 -39 -137 -59 -377 -67
-447 -16 -17 12 -16 14 16 29 34 16 34 16 5 10 -57 -11 -57 -41 1 -62 99 -35
291 -23 427 28 72 27 75 47 7 56 -57 7 -58 14 -3 25 34 6 31 7 -22 7 -33 0
-71 2 -85 5 -14 3 -36 2 -50 -3z M540 1228 c-25 -6 -40 -13 -33 -15 6 -2 29 0
50 6 47 13 168 14 138 1 -11 -5 -40 -9 -65 -10 -25 -1 -63 -5 -85 -10 -33 -7
-29 -8 25 -4 128 9 157 15 157 30 0 17 -115 18 -187 2z M823 1210 c-3 -13 -14
-20 -29 -20 -12 0 -29 -8 -36 -18 -25 -34 -83 -69 -143 -85 -33 -9 -85 -23
-115 -31 -61 -17 -204 -16 -221 1 -17 17 -5 29 65 68 78 44 90 70 38 85 -21 5
-41 10 -46 10 -14 0 3 -14 20 -16 29 -4 46 -14 42 -24 -2 -5 -32 -27 -68 -48
-68 -39 -88 -72 -53 -87 48 -20 169 -13 283 16 63 16 127 36 142 44 15 8 29
11 32 6 8 -12 -17 -32 -46 -37 -13 -2 -70 -15 -128 -29 -137 -33 -306 -39
-343 -11 -28 22 -10 45 77 96 76 45 108 77 39 39 -133 -73 -163 -108 -122
-141 21 -18 86 -25 174 -20 32 2 37 0 27 -10 -6 -6 -12 -18 -12 -25 0 -22 23
-15 46 14 17 21 40 31 120 50 54 13 109 25 120 27 30 5 64 25 64 37 0 6 8 6
23 -1 20 -10 21 -10 4 3 -17 14 -17 16 7 35 14 10 44 22 67 26 23 4 39 9 37
12 -3 2 -24 1 -47 -5 -24 -5 -41 -5 -41 0 0 5 7 9 15 9 8 0 15 7 15 15 0 9 10
20 23 25 l22 9 -23 0 c-16 1 -26 -6 -29 -19z m-33 -37 c0 -14 -47 -63 -53 -57
-4 4 6 20 21 35 29 31 32 33 32 22z m-360 -188 c-7 -9 -15 -13 -18 -10 -3 2 1
11 8 20 7 9 15 13 18 10 3 -2 -1 -11 -8 -20z M2225 1093 c-22 -2 -148 -20
-280 -39 -284 -41 -345 -49 -345 -41 0 3 4 17 9 30 8 20 6 27 -5 31 -35 13
-194 -7 -313 -40 -144 -40 -175 -53 -179 -76 -5 -26 36 -32 104 -15 32 8 80
18 107 22 26 3 47 11 47 17 0 6 -7 7 -17 3 -10 -4 -25 -9 -33 -10 -8 -2 -52
-11 -98 -21 -59 -12 -86 -14 -93 -7 -18 18 25 39 156 76 88 25 146 35 215 38
l95 4 -3 -34 -4 -34 59 6 c32 3 166 21 298 41 132 19 267 36 300 38 56 3 60 1
60 -19 0 -11 2 -24 5 -27 3 -3 35 -1 70 5 36 5 85 12 110 15 l45 5 -31 -14
c-17 -8 -70 -20 -118 -26 -85 -12 -88 -11 -116 12 -32 27 -29 27 -345 -27
-179 -31 -341 -46 -373 -34 -18 6 -22 13 -17 31 6 17 4 19 -5 11 -18 -18 -8
-47 20 -54 37 -10 205 6 375 36 284 49 314 52 327 37 25 -30 47 -34 131 -23
105 14 157 30 157 47 0 15 -36 17 -95 4 -22 -5 -60 -11 -85 -13 -40 -3 -45 -1
-42 16 4 21 -14 37 -38 34 -8 -1 -33 -3 -55 -5z M3578 1052 c-7 -10 -26 -23
-43 -28 -44 -14 -75 -81 -75 -161 0 -91 39 -205 84 -248 20 -18 36 -42 36 -53
0 -11 20 -41 44 -67 42 -44 47 -47 80 -41 33 6 52 -7 24 -16 -19 -7 -1 -38 22
-38 25 0 25 3 -1 58 -18 37 -26 43 -45 39 -26 -5 -60 34 -51 57 3 8 -19 37
-49 67 -61 60 -94 138 -94 221 0 55 29 121 60 138 50 27 113 -53 147 -186 15
-56 22 -69 38 -69 18 0 20 7 20 65 0 87 -32 163 -93 222 -57 56 -85 66 -104
40z m83 -39 c62 -57 99 -127 106 -199 11 -104 -16 -110 -42 -8 -25 97 -63 164
-101 180 -45 19 -78 5 -104 -45 -45 -89 -12 -238 72 -327 26 -28 48 -59 48
-68 0 -32 31 -66 56 -62 34 6 40 -12 7 -20 -24 -6 -32 -1 -70 42 -24 27 -41
54 -38 61 2 7 -14 31 -36 53 -78 77 -115 256 -71 340 20 36 77 73 101 64 11
-3 11 -1 2 10 -11 13 -7 19 17 25 2 1 26 -20 53 -46z m94 -593 c3 -5 2 -10 -4
-10 -5 0 -13 5 -16 10 -3 6 -2 10 4 10 5 0 13 -4 16 -10z M1495 1034 c-6 -2
-51 -11 -100 -19 -79 -13 -82 -14 -25 -10 65 6 193 33 155 33 -11 0 -25 -2
-30 -4z M135 1015 c-16 -7 -23 -14 -15 -14 8 0 29 6 45 14 17 7 23 14 15 14
-8 0 -28 -6 -45 -14z M155 995 c-16 -8 -23 -14 -15 -14 8 0 26 6 40 14 32 18
15 18 -25 0z M4276 850 c2 -69 8 -156 13 -195 6 -38 11 -73 11 -77 0 -5 11 -8
25 -8 14 0 25 -5 25 -12 0 -8 4 -8 14 2 17 18 107 300 96 300 -4 0 -15 -26
-24 -57 -39 -140 -64 -208 -68 -188 -3 11 -4 6 -1 -11 3 -29 2 -30 -27 -26
-16 2 -30 7 -30 11 0 3 -7 49 -14 101 -7 52 -11 120 -9 150 2 30 0 73 -4 95
-7 29 -9 6 -7 -85z M5100 880 c-7 -74 -31 -80 -62 -16 -35 73 -65 56 -34 -19
9 -21 11 -37 5 -40 -5 -4 -9 -15 -9 -26 0 -20 19 -25 36 -10 5 5 35 11 66 14
47 5 59 2 74 -14 9 -10 25 -19 34 -19 10 0 20 -7 24 -15 3 -8 11 -15 17 -15 8
0 9 4 0 13 -13 16 -5 28 14 21 13 -6 99 45 91 53 -2 3 -21 -6 -41 -20 -35 -24
-37 -24 -69 -7 -18 9 -46 26 -61 38 -15 12 -38 22 -51 22 -20 0 -23 6 -26 48
l-4 47 -4 -55z m-25 -72 c11 2 24 8 30 13 16 15 42 10 72 -15 15 -13 38 -26
51 -30 12 -4 20 -11 17 -16 -7 -11 -32 -3 -63 21 -18 14 -35 16 -85 12 -34 -3
-68 -10 -74 -16 -15 -11 -17 1 -4 22 5 8 3 27 -5 47 -24 56 -15 62 14 9 21
-40 32 -50 47 -47z M5123 895 c0 -22 2 -30 4 -17 2 12 2 30 0 40 -3 9 -5 -1
-4 -23z M4231 894 c0 -11 8 -85 19 -164 23 -165 24 -178 5 -130 -30 80 -36 93
-41 88 -7 -8 34 -110 52 -128 12 -12 14 -11 13 15 -1 43 -46 344 -48 319z
M2950 789 c-34 -102 -34 -99 -12 -99 15 0 24 15 42 70 13 39 20 73 17 76 -3 4
-9 -7 -12 -22 -11 -51 -36 -114 -46 -114 -12 0 -13 -2 17 69 14 35 24 70 22
79 -2 8 -14 -18 -28 -59z M4432 695 c-23 -73 -42 -141 -42 -149 0 -26 28 -18
39 12 9 26 10 25 9 -13 -1 -23 2 -46 6 -53 4 -6 2 -21 -4 -32 -12 -23 -45 -28
-37 -6 4 11 1 13 -11 9 -15 -6 -16 -5 -2 13 14 18 14 18 -2 5 -11 -8 -25 -10
-35 -6 -25 11 -45 6 -70 -17 l-22 -21 -35 27 c-19 14 -41 26 -48 26 -7 0 -30
14 -51 31 -20 17 -37 26 -37 20 0 -13 63 -61 79 -61 7 0 27 -11 45 -25 40 -30
53 -31 82 -4 17 16 29 19 54 14 17 -4 34 -13 37 -21 8 -21 51 -17 63 6 6 12 8
31 4 43 -5 12 -8 24 -7 27 10 72 11 92 3 75 -6 -14 -9 -15 -10 -5 0 8 -9 -1
-20 -20 -30 -54 -24 -20 21 122 22 71 39 131 37 133 -2 3 -23 -56 -46 -130z
M4830 826 c0 -2 27 -21 60 -42 33 -22 60 -43 60 -47 0 -9 -7 -5 -65 33 -58 38
-65 42 -65 33 0 -4 21 -21 48 -38 41 -26 44 -30 25 -33 -29 -4 -30 -28 -2 -37
28 -9 50 12 29 26 -11 8 -8 9 13 5 49 -11 32 25 -31 67 -55 35 -72 43 -72 33z
m85 -116 c8 -13 -5 -13 -25 0 -13 8 -13 10 2 10 9 0 20 -4 23 -10z M637 741
c-10 -40 -17 -82 -17 -92 0 -13 -10 -20 -37 -25 -21 -3 -53 -15 -71 -25 l-32
-18 6 24 c5 18 -2 35 -26 65 -18 23 -35 39 -37 36 -3 -3 9 -23 26 -44 17 -22
31 -46 31 -52 0 -7 -16 8 -36 34 -20 26 -39 45 -42 42 -3 -4 4 -17 16 -29 12
-13 19 -27 15 -32 -5 -4 -3 -5 3 -2 6 4 16 -5 23 -19 10 -22 8 -34 -14 -79
-28 -61 -33 -102 -10 -102 8 0 15 5 15 11 0 7 8 23 17 36 10 14 19 34 20 45 4
27 50 63 90 71 56 11 83 -2 156 -72 20 -21 22 -44 3 -44 -8 0 -16 -7 -20 -15
-4 -11 1 -15 17 -15 16 0 18 3 9 9 -11 7 -11 9 2 14 12 5 16 0 16 -17 0 -14 6
-23 16 -23 13 0 15 9 12 49 -4 39 -13 57 -39 85 -19 19 -49 42 -66 49 -34 15
-44 34 -19 34 8 0 17 7 20 16 8 22 8 39 -1 30 -5 -4 -8 -12 -8 -18 0 -6 -10
-14 -22 -19 -28 -10 -29 0 -7 83 8 33 13 65 11 71 -2 7 -11 -21 -20 -62z m-5
-120 c-10 -6 -4 -10 18 -14 17 -4 51 -26 76 -49 35 -34 46 -52 49 -83 l5 -40
-13 39 c-7 21 -29 51 -48 67 -18 16 -29 29 -24 29 19 2 -60 28 -87 29 -15 1
-46 -6 -68 -15 -34 -14 -45 -26 -72 -82 -20 -40 -34 -59 -36 -49 -5 23 47 116
74 134 12 8 44 20 71 27 59 17 72 18 55 7z M555 792 c-7 -5 -8 -29 -2 -69 7
-52 12 -63 28 -63 22 0 22 2 8 72 -12 59 -19 71 -34 60z m30 -120 c-10 -11
-16 8 -21 64 l-4 59 15 -59 c8 -33 13 -61 10 -64z M661 734 c-6 -37 -10 -68
-8 -71 3 -2 10 26 17 62 7 36 10 68 8 70 -3 3 -10 -25 -17 -61z M782 768 c-26
-42 -29 -71 -6 -66 26 5 49 53 38 79 -10 22 -11 22 -32 -13z m12 -33 c-23 -36
-30 -23 -8 15 10 17 20 26 22 21 2 -5 -4 -21 -14 -36z M1917 755 c4 -37 -8
-51 -35 -40 -16 6 -15 8 2 21 17 12 18 14 3 14 -9 0 -17 -5 -17 -11 0 -5 -4
-8 -9 -5 -5 3 -14 -1 -21 -9 -9 -11 -7 -17 9 -31 11 -10 18 -21 15 -26 -9 -15
53 -8 66 7 34 41 117 -11 130 -81 l8 -39 1 37 c2 75 -99 138 -149 93 -12 -11
-26 -15 -37 -10 -31 13 54 46 102 40 22 -3 47 -1 54 4 9 6 22 6 32 1 12 -7 23
-2 44 20 16 17 24 30 18 30 -7 0 -20 -11 -31 -24 -14 -18 -22 -22 -30 -14 -8
8 -19 8 -40 -1 -37 -16 -79 0 -85 31 -3 16 -4 14 -2 -5 1 -15 -2 -30 -7 -33
-8 -5 -12 17 -9 43 1 6 -2 14 -7 17 -5 3 -7 -10 -5 -29z m-44 -58 c-3 -4 -11
-3 -19 4 -7 6 -11 15 -8 20 3 5 11 3 18 -4 8 -6 12 -16 9 -20z M4357 748 c-17
-125 -19 -143 -14 -138 7 7 29 171 24 177 -3 2 -7 -15 -10 -39z M5317 756
c-29 -20 -43 -36 -35 -39 7 -2 -3 -9 -22 -14 -31 -9 -37 -8 -54 14 -17 22 -24
23 -107 21 -63 -2 -89 -6 -89 -15 0 -18 33 -33 59 -26 14 3 26 0 34 -11 7 -8
27 -19 46 -22 31 -7 33 -6 22 14 -6 11 -16 23 -23 25 -8 4 -7 6 4 6 9 1 19 -3
23 -9 3 -5 12 -7 21 -3 12 4 14 0 8 -22 -7 -26 -5 -28 21 -21 32 8 55 -8 55
-39 0 -38 -29 -109 -53 -127 -12 -10 -17 -18 -11 -18 35 -1 81 106 70 161 -4
21 -2 29 8 29 24 0 37 -72 16 -85 -5 -3 -10 -14 -10 -23 0 -32 -48 -90 -77
-95 l-28 -4 26 -2 c15 0 32 -8 39 -16 18 -21 40 -19 40 5 0 11 -4 20 -10 20
-5 0 -7 -7 -3 -16 5 -14 3 -14 -14 -4 -19 12 -19 13 4 39 14 14 27 38 30 53 3
16 10 31 14 34 16 9 10 82 -8 99 -14 14 -14 18 -2 26 8 5 17 9 22 9 4 0 7 7 7
15 0 12 -7 14 -27 9 -25 -5 -24 -3 12 21 51 35 49 34 44 40 -3 2 -26 -11 -52
-29z m-129 -46 c4 -12 2 -13 -9 -2 -16 15 -49 16 -49 2 0 -6 7 -13 15 -16 17
-7 21 -24 6 -24 -6 0 -22 11 -37 25 -21 20 -30 22 -46 14 -15 -8 -24 -8 -34 3
-11 11 0 13 68 13 63 0 82 -3 86 -15z m128 -5 c-11 -8 -23 -15 -28 -15 -4 0
-8 -6 -8 -12 0 -8 -14 -13 -35 -14 -51 -1 -43 11 23 34 70 25 72 25 48 7z
M2630 765 c0 -8 13 -41 29 -72 25 -47 28 -60 17 -73 -7 -8 -17 -27 -24 -42 -6
-16 -18 -28 -25 -28 -34 0 -65 -75 -41 -98 11 -10 13 -5 11 25 -2 32 2 40 30
57 18 12 32 27 33 34 0 8 14 27 30 44 30 29 32 30 101 23 47 -5 79 -3 99 5 25
10 34 10 53 -3 16 -10 38 -13 68 -10 41 5 48 2 67 -22 12 -15 22 -33 22 -40 0
-6 11 -17 25 -23 28 -13 30 -23 14 -54 -13 -24 -10 -27 27 -34 21 -3 25 -2 14
5 -8 5 -17 8 -21 5 -4 -2 -10 0 -13 5 -4 5 -2 12 4 16 20 12 11 55 -15 67 -13
6 -27 20 -31 32 -13 42 -36 57 -84 55 -25 -1 -58 4 -74 10 -20 8 -38 9 -60 2
-35 -11 -196 -10 -196 2 0 4 5 7 10 7 17 0 11 28 -17 75 -27 44 -53 59 -53 30z
m70 -90 c0 -17 -19 1 -38 34 -33 58 -26 73 8 19 17 -27 30 -50 30 -53z M4381
730 c-6 -28 -11 -59 -10 -68 1 -9 7 12 15 47 8 35 12 66 10 68 -2 3 -9 -19
-15 -47z M2120 723 c-23 -29 -23 -54 0 -61 13 -5 13 -3 1 12 -12 15 -11 20 14
46 16 17 24 30 18 30 -7 0 -21 -12 -33 -27z M2554 729 c-8 -14 65 -89 88 -89
28 0 21 23 -20 63 -39 38 -56 45 -68 26z m61 -39 c21 -22 35 -40 29 -40 -5 0
-28 18 -49 40 -21 22 -35 40 -29 40 5 0 28 -18 49 -40z M3001 724 c0 -12 -11
-29 -23 -37 -19 -13 -20 -16 -6 -16 21 -1 41 33 35 57 -4 13 -5 12 -6 -4z
M1384 690 c-4 -24 -18 -54 -34 -72 -24 -26 -32 -29 -66 -24 -35 6 -37 5 -14
-5 l25 -12 -25 -7 c-23 -7 -23 -8 8 -9 20 -1 31 3 27 9 -3 6 0 10 8 10 23 0
12 -49 -19 -81 -15 -16 -23 -29 -17 -29 6 0 20 12 31 27 27 37 36 25 24 -32
-12 -56 -1 -50 13 8 8 32 8 47 -2 63 -15 24 -3 71 21 80 15 6 43 101 32 111
-3 3 -8 -13 -12 -37z M1408 690 c-4 -25 -10 -53 -13 -62 -4 -10 0 -17 12 -20
31 -8 22 -64 -15 -96 -18 -15 -35 -44 -41 -66 -13 -49 2 -35 20 19 8 26 14 34
17 23 2 -10 10 -18 18 -18 13 0 13 3 -1 17 -16 16 -16 17 4 25 21 7 25 16 22
53 -1 14 8 24 29 32 22 8 28 16 24 28 -4 10 -12 14 -23 9 -9 -3 -26 -9 -38
-11 -21 -5 -21 -3 -12 31 6 21 9 47 7 59 -2 13 -6 3 -10 -23z m52 -80 c-24
-15 -37 -11 -16 5 11 8 22 12 25 9 3 -3 -1 -9 -9 -14z M2056 689 c36 -41 42
-59 32 -96 -5 -19 -7 -37 -4 -40 3 -3 8 8 12 23 8 36 22 54 49 64 l20 9 -20 0
c-12 1 -26 -4 -32 -10 -7 -7 -14 -1 -23 21 -7 17 -22 36 -34 42 l-21 11 21
-24z M2742 697 c-13 -15 -3 -32 19 -33 11 -1 14 5 11 22 -5 27 -14 30 -30 11z
m18 -7 c0 -5 -5 -10 -11 -10 -5 0 -7 5 -4 10 3 6 8 10 11 10 2 0 4 -4 4 -10z
M4934 679 c-14 -16 -18 -33 -16 -77 1 -31 7 -61 12 -66 6 -6 10 -20 10 -31 0
-26 36 -60 71 -69 22 -5 26 -11 23 -33 -2 -17 -1 -20 2 -8 11 37 25 41 19 5
l-5 -35 14 35 c8 19 15 37 15 40 1 3 -17 5 -39 5 -46 1 -90 35 -90 71 0 13 -4
25 -9 28 -19 12 -19 90 1 124 22 37 19 41 -8 11z M4127 677 c29 -47 97 -126
104 -121 5 3 9 1 9 -5 0 -30 -25 -14 -74 50 -31 39 -56 67 -56 61 0 -11 62
-95 103 -139 17 -18 28 -33 25 -33 -10 0 -98 51 -103 61 -4 5 -11 9 -17 9 -6
0 -3 -9 7 -20 10 -11 24 -20 30 -20 7 0 28 -11 48 -24 30 -21 36 -22 41 -9 4
9 2 21 -4 28 -8 9 -7 14 2 17 10 4 7 18 -10 59 -13 30 -25 62 -27 73 -6 25
-15 33 -15 12 0 -9 9 -34 20 -56 34 -67 22 -66 -27 3 -27 37 -52 67 -56 67 -4
0 -4 -6 0 -13z M4960 660 c-21 -40 17 -150 53 -150 7 0 0 11 -14 24 -30 28
-45 96 -29 126 6 11 8 20 6 20 -3 0 -10 -9 -16 -20z M3117 663 c-4 -3 -7 -15
-7 -25 0 -28 34 -19 38 10 3 21 -16 31 -31 15z m15 -25 c-7 -7 -12 -8 -12 -2
0 14 12 26 19 19 2 -3 -1 -11 -7 -17z M802 627 c-18 -18 -32 -38 -32 -45 0
-22 36 -12 65 18 26 27 27 32 14 45 -13 14 -19 11 -47 -18z m23 -17 c-16 -16
-33 -30 -39 -30 -5 0 3 14 19 30 16 17 33 30 39 30 5 0 -3 -13 -19 -30z M916
642 c-9 -14 12 -35 28 -29 23 9 20 37 -3 37 -11 0 -22 -4 -25 -8z m34 -6 c0
-3 -4 -8 -10 -11 -5 -3 -10 -1 -10 4 0 6 5 11 10 11 6 0 10 -2 10 -4z M395
630 c3 -5 1 -10 -6 -10 -8 0 -6 -8 4 -24 14 -21 14 -27 -8 -72 -14 -27 -25
-58 -25 -69 l-1 -20 -8 20 c-6 14 -1 35 16 68 13 27 22 51 19 54 -2 3 -14 -13
-26 -36 -11 -23 -25 -41 -30 -41 -5 0 -6 -7 -3 -17 5 -12 3 -14 -8 -9 -8 4 -6
1 4 -7 9 -8 17 -21 17 -29 0 -8 7 -15 15 -15 9 0 15 10 15 26 0 26 50 124 69
135 5 4 -1 18 -13 31 -23 25 -43 34 -31 15z m29 -41 c-8 -13 -24 -1 -24 18 0
13 3 13 15 3 8 -7 12 -16 9 -21z M1997 633 c-12 -11 -7 -43 6 -43 23 0 38 22
26 37 -13 14 -22 16 -32 6z m15 -25 c-7 -7 -12 -8 -12 -2 0 14 12 26 19 19 2
-3 -1 -11 -7 -17z M5000 626 c0 -20 23 -26 43 -11 20 15 12 25 -20 25 -13 0
-23 -6 -23 -14z m40 0 c0 -11 -19 -15 -25 -6 -3 5 1 10 9 10 9 0 16 -2 16 -4z
M1310 620 c0 -5 5 -10 11 -10 5 0 7 5 4 10 -3 6 -8 10 -11 10 -2 0 -4 -4 -4
-10z M5364 623 c15 -4 16 -7 5 -14 -11 -7 -11 -9 4 -9 9 0 17 7 17 15 0 9 -9
15 -22 14 -20 -1 -20 -2 -4 -6z M274 606 c-9 -10 -7 -15 7 -24 10 -7 26 -12
34 -12 21 0 19 27 -4 40 -24 12 -23 12 -37 -4z m43 -23 c-8 -7 -37 9 -31 19 3
5 12 4 20 -3 8 -6 13 -14 11 -16z M2701 594 c-12 -15 -21 -33 -21 -40 0 -7
-13 -20 -29 -28 -31 -16 -42 -35 -40 -69 1 -16 3 -13 10 10 6 21 21 38 39 48
17 9 30 24 30 34 0 24 41 61 68 61 19 0 21 -4 16 -24 -6 -26 11 -31 37 -9 8 6
25 13 39 16 14 2 8 3 -13 2 -26 -2 -40 1 -44 11 -9 25 -69 17 -92 -12z M2903
613 c-7 -2 -13 -9 -13 -15 0 -6 6 -5 15 2 13 10 19 10 33 -4 10 -9 34 -16 54
-16 29 0 40 -7 76 -51 23 -29 42 -62 42 -75 0 -13 4 -24 9 -24 19 0 -11 74
-47 117 -30 36 -42 43 -72 43 -19 0 -44 7 -54 15 -21 16 -24 16 -43 8z M1783
603 c-18 -6 -16 -33 2 -33 8 0 21 -15 29 -34 8 -18 18 -36 24 -40 5 -3 0 13
-11 35 -11 22 -26 43 -33 46 -8 3 -11 9 -8 14 9 16 41 -9 49 -38 9 -40 53 -82
93 -89 37 -7 142 14 142 28 0 4 5 8 10 8 19 0 10 -21 -12 -30 -23 -10 -23 -10
2 -7 33 3 43 47 11 47 -12 0 -21 -4 -21 -8 0 -12 -70 -32 -108 -32 -39 0 -96
47 -108 91 -9 31 -37 50 -61 42z M5162 590 c-16 -25 -67 -27 -81 -3 -5 10 -12
15 -15 13 -11 -12 13 -32 48 -40 32 -7 38 -5 56 17 13 17 20 20 20 11 0 -25
-35 -48 -72 -48 -34 0 -59 17 -71 50 -5 13 -6 13 -6 0 -1 -9 6 -26 15 -38 12
-18 25 -22 63 -22 31 0 53 5 61 15 8 9 21 13 36 9 20 -5 24 -2 24 15 0 12 -4
21 -10 21 -5 0 -7 -7 -4 -15 5 -11 2 -13 -10 -9 -9 3 -16 15 -16 25 0 25 -22
24 -38 -1z M2550 590 c0 -6 -4 -8 -10 -5 -17 11 -11 -7 8 -21 27 -21 44 -17
40 8 -3 23 -38 39 -38 18z m30 -20 c0 -5 -7 -7 -15 -4 -8 4 -12 10 -9 15 6 11
24 2 24 -11z M1360 565 c0 -8 9 -15 20 -15 11 0 20 7 20 15 0 8 -9 15 -20 15
-11 0 -20 -7 -20 -15z M1877 573 c-14 -13 -6 -33 13 -33 13 0 20 7 20 20 0 19
-20 27 -33 13z m23 -13 c0 -5 -5 -10 -11 -10 -5 0 -7 5 -4 10 3 6 8 10 11 10
2 0 4 -4 4 -10z M863 548 c-30 -14 -33 -27 -19 -79 11 -42 36 -66 36 -34 0 9
12 18 28 21 46 9 36 34 -12 33 l-41 -2 35 -6 35 -7 -28 -7 c-34 -9 -43 -4 -49
28 -6 27 21 55 52 55 9 0 4 -7 -12 -18 -38 -23 -36 -38 2 -15 52 31 29 58 -27
31z M2815 551 c-3 -6 -21 -11 -39 -11 -18 0 -39 -6 -48 -12 -20 -16 -33 -58
-18 -58 6 0 9 4 6 8 -3 5 2 19 10 31 12 17 24 22 49 20 18 -2 39 2 47 9 23 19
155 -8 142 -29 -3 -5 -11 -6 -17 -2 -6 4 -33 8 -59 10 -36 2 -48 -1 -48 -12 0
-23 -20 -28 -40 -10 -27 24 -64 16 -67 -15 -3 -25 -3 -25 7 -2 5 12 15 22 22
22 22 -1 45 -24 40 -40 -3 -8 9 -1 25 16 36 37 86 42 120 11 14 -12 29 -17 39
-13 10 4 21 1 25 -5 13 -22 39 -19 39 5 0 28 -18 46 -45 46 -12 0 -35 6 -51
14 -40 20 -130 30 -139 17z m215 -56 c7 -9 10 -19 6 -22 -4 -4 -11 -2 -15 6
-5 7 -17 12 -27 11 -29 -3 -36 -1 -29 10 9 15 51 12 65 -5z M588 530 c-27 -25
-22 -40 12 -40 26 0 30 4 30 28 0 32 -16 37 -42 12z m32 -15 c0 -9 -9 -15 -22
-15 -22 1 -23 1 -4 15 25 19 26 19 26 0z M5360 536 c19 -8 42 -15 50 -15 26
-1 -10 16 -50 23 l-35 6 35 -14z M1273 515 c-15 -13 -23 -25 -17 -25 6 0 21
11 34 25 30 32 19 32 -17 0z M1464 525 c11 -8 27 -15 35 -15 10 1 7 6 -9 15
-33 19 -50 18 -26 0z M5326 521 c10 -10 80 -24 72 -15 -4 3 -23 10 -43 14 -21
5 -34 5 -29 1z M1454 506 c11 -9 24 -16 30 -16 12 0 7 5 -24 19 -24 11 -24 11
-6 -3z M1793 508 c-4 -7 -8 -20 -10 -28 -1 -10 3 -9 13 4 14 19 18 36 10 36
-3 0 -8 -6 -13 -12z M4970 513 c0 -30 76 -64 112 -50 7 3 0 6 -15 6 -33 1 -67
17 -84 40 -7 9 -12 11 -13 4z M5150 508 c0 -9 -5 -18 -12 -20 -9 -3 -8 -13 4
-39 8 -19 18 -41 21 -49 4 -11 6 -9 6 5 1 11 -6 33 -14 48 -14 26 -13 28 11
37 14 6 30 8 35 4 5 -3 9 -1 9 4 0 17 -13 22 -27 10 -11 -9 -17 -9 -24 3 -7
12 -9 11 -9 -3z M4878 496 c-10 -7 -18 -18 -18 -25 0 -16 45 -14 60 4 8 9 9
15 2 15 -6 0 -14 -4 -17 -10 -3 -5 -14 -10 -23 -10 -12 0 -7 6 13 20 17 11 23
20 15 20 -8 -1 -23 -7 -32 -14z M3180 491 c0 -20 27 -28 75 -21 l50 7 -60 3
-60 3 65 7 65 7 -67 1 c-38 1 -68 -2 -68 -7z M2440 480 c-15 -5 3 -6 43 -2 45
3 67 1 67 -6 0 -7 -27 -12 -67 -15 l-68 -3 73 -2 c66 -2 72 0 72 18 0 17 -6
20 -47 19 -27 -1 -59 -5 -73 -9z M657 473 c-4 -3 -7 -12 -7 -20 0 -16 36 -18
46 -2 4 8 0 9 -15 4 -28 -9 -27 3 2 15 21 8 21 9 1 9 -11 1 -24 -2 -27 -6z
M1794 458 c-15 -18 -15 -20 -1 -9 16 12 21 9 18 -12 -1 -4 8 -3 19 3 12 6 19
17 17 23 -7 21 -33 18 -53 -5z m46 8 c0 -11 -19 -15 -25 -6 -3 5 1 10 9 10 9
0 16 -2 16 -4z M1860 470 c0 -6 6 -13 14 -16 8 -3 12 -13 9 -25 -4 -14 0 -19
13 -19 16 0 16 2 4 10 -18 11 -7 25 14 17 9 -4 14 -12 11 -19 -2 -7 0 -29 5
-48 8 -33 9 -32 6 14 -2 45 -6 52 -39 73 -20 13 -37 19 -37 13z M5182 472 c-9
-7 -10 -18 -2 -48 l10 -39 -4 36 c-3 20 1 42 7 48 13 13 8 14 -11 3z M230 452
l35 -5 -35 -7 -35 -7 38 -2 c27 -1 37 3 37 14 0 11 -10 15 -37 13 l-38 -1 35
-5z M1983 445 c-31 -13 -33 -17 -31 -62 l2 -48 3 48 c3 27 9 47 16 47 7 1 26
7 42 15 40 18 9 18 -32 0z M3170 440 l-35 -7 38 -2 c20 0 37 4 37 9 0 6 -1 9
-2 9 -2 -1 -19 -5 -38 -9z M5122 423 c-5 -11 -5 -37 1 -63 5 -25 12 -40 14
-33 2 6 0 27 -5 46 -6 21 -6 40 0 50 5 10 7 17 4 17 -3 0 -9 -8 -14 -17z
M1412 203 c780 -2 2056 -2 2835 0 780 1 142 2 -1417 2 -1559 0 -2197 -1 -1418
-2z M2120 130 c0 -5 -9 -10 -20 -10 -24 0 -34 -21 -26 -53 l5 -22 278 0 c153
0 283 3 290 8 6 4 14 3 18 -3 3 -5 14 -10 23 -9 14 0 15 2 2 7 -8 4 -15 12
-16 17 -1 18 -28 75 -35 75 -4 0 -19 -7 -35 -15 -16 -8 -37 -12 -49 -10 -11 2
-35 6 -52 9 -31 4 -33 3 -32 -27 1 -24 3 -26 6 -9 2 12 8 22 13 22 4 0 6 -10
4 -22 l-5 -23 10 22 c8 19 17 22 61 21 28 -1 56 4 62 10 8 8 15 5 25 -15 21
-41 4 -48 -108 -48 -84 0 -100 3 -104 17 -9 26 -35 31 -35 7 0 -18 -2 -19 -15
-5 -16 15 -49 11 -40 -5 3 -4 12 -6 20 -2 8 3 15 1 15 -4 0 -6 -19 -9 -42 -8
-34 1 -44 6 -46 21 -3 16 -1 17 7 4 9 -13 11 -13 11 3 0 9 -4 17 -10 17 -5 0
-10 5 -10 11 0 8 4 9 13 0 8 -6 17 -7 22 -3 4 4 4 -4 0 -18 -6 -22 -6 -23 6
-8 8 10 39 21 74 26 l60 10 -70 0 c-38 0 -88 2 -110 4 -43 5 -65 -5 -65 -31 0
-13 2 -13 9 -2 5 7 11 9 13 5 3 -5 3 -4 2 3 -2 7 1 15 6 18 6 4 10 -9 11 -27
0 -26 2 -29 8 -14 7 19 8 19 13 -1 5 -20 2 -22 -36 -21 -55 1 -76 7 -76 23 0
7 -7 15 -15 19 -10 3 -15 -1 -15 -13 0 -20 -39 -36 -53 -22 -14 14 -4 45 15
49 9 2 18 -5 21 -15 3 -11 5 -7 7 12 1 17 4 24 7 18 2 -7 11 -13 18 -13 8 0
23 -10 35 -22 11 -12 20 -18 20 -12 0 16 -15 31 -37 38 -13 4 -23 12 -23 17 0
5 -7 9 -15 9 -8 0 -15 -4 -15 -10z m305 -59 c3 -5 1 -12 -5 -16 -5 -3 -10 1
-10 9 0 18 6 21 15 7z M3065 132 c-3 -3 2 -16 10 -29 14 -21 14 -23 -5 -23
-15 0 -20 7 -20 25 0 18 -5 25 -20 25 -18 0 -20 -5 -16 -37 3 -21 5 -42 5 -46
1 -4 22 -7 48 -5 39 2 48 7 51 23 4 20 4 20 -11 0 -9 -11 -19 -17 -23 -13 -4
4 -2 13 4 21 7 8 7 18 2 27 -16 25 -12 27 60 26 56 -1 70 -4 70 -16 0 -22 20
-40 43 -40 13 0 17 5 13 15 -3 8 -9 22 -12 30 -9 21 13 19 26 -2 10 -16 10
-16 8 2 -3 19 -11 20 -116 21 -61 0 -114 -1 -117 -4z m192 -27 c6 -14 8 -25 4
-25 -12 0 -31 23 -31 37 0 21 14 15 27 -12z m-217 -7 c0 -19 -2 -20 -10 -8
-13 19 -13 30 0 30 6 0 10 -10 10 -22z m30 -39 c0 -5 -9 -9 -19 -9 -11 0 -22
4 -25 9 -3 5 6 9 19 9 14 0 25 -4 25 -9z M3485 130 c-3 -5 18 -7 46 -6 45 3
52 0 61 -20 17 -37 -3 -51 -77 -53 -39 -1 -65 2 -65 9 0 5 6 10 13 10 9 0 12
10 9 30 -3 22 -10 30 -24 30 -17 0 -20 -5 -14 -30 4 -22 2 -30 -9 -30 -10 0
-15 10 -15 30 0 29 -2 30 -44 30 -25 0 -48 -5 -52 -11 -4 -8 0 -9 15 -4 18 5
21 2 21 -22 0 -23 -4 -28 -27 -30 -16 -1 -49 -3 -75 -6 -39 -3 -46 -1 -37 10
9 10 6 15 -12 22 -19 7 -26 4 -36 -13 -7 -11 -12 -15 -13 -8 0 6 -5 12 -10 12
-6 0 -6 -7 1 -18 10 -15 25 -19 78 -19 36 -1 74 3 83 8 10 5 26 5 40 0 22 -8
23 -7 20 33 -2 31 -1 37 7 26 6 -8 11 -27 11 -42 0 -18 5 -28 15 -28 8 0 15 5
15 10 0 6 7 10 15 10 8 0 15 -4 15 -10 0 -6 32 -10 75 -10 69 0 76 2 86 23 7
15 7 31 0 49 -9 23 -15 26 -60 26 -28 0 -53 -4 -56 -8z m-85 -30 c0 -11 -2
-20 -4 -20 -2 0 -6 9 -9 20 -3 11 -1 20 4 20 5 0 9 -9 9 -20z m60 -2 c0 -19
-2 -20 -10 -8 -13 19 -13 30 0 30 6 0 10 -10 10 -22z m-265 -34 c-9 -9 -18
-14 -21 -11 -9 9 6 27 22 27 13 0 13 -2 -1 -16z m215 2 c0 -3 -4 -8 -10 -11
-5 -3 -10 -1 -10 4 0 6 5 11 10 11 6 0 10 -2 10 -4z M2709 99 c-6 -13 -6 -25
1 -38 9 -18 19 -19 107 -16 89 3 98 5 101 23 6 38 -21 50 -113 50 -73 -1 -87
-3 -96 -19z m51 1 c0 -5 -5 -9 -11 -7 -6 1 -14 -5 -16 -13 -4 -13 -3 -13 6 0
9 13 11 13 11 0 0 -10 4 -8 14 6 12 16 26 21 67 22 53 1 79 -10 79 -33 0 -16
-44 -25 -62 -13 -10 6 -10 10 2 18 9 6 10 10 3 10 -7 0 -16 -8 -21 -17 -13
-22 -96 -28 -112 -7 -10 11 -10 17 0 29 14 17 40 20 40 5z M3542 102 c-12 -12
-27 -21 -33 -19 -6 1 -14 -4 -17 -12 -3 -9 0 -11 8 -6 7 4 26 8 41 7 33 -1 39
6 30 32 -7 19 -8 19 -29 -2z m23 -12 c3 -5 -1 -10 -10 -10 -9 0 -13 5 -10 10
3 6 8 10 10 10 2 0 7 -4 10 -10z M2940 90 c0 -11 7 -20 15 -20 8 0 15 9 15 20
0 11 -7 20 -15 20 -8 0 -15 -9 -15 -20z M3490 106 c0 -2 7 -6 15 -10 8 -3 15
-1 15 4 0 6 -7 10 -15 10 -8 0 -15 -2 -15 -4z M2613 85 c0 -8 6 -15 13 -15 8
0 11 6 8 15 -4 8 -9 15 -13 15 -4 0 -8 -7 -8 -15z"/>
</g>
</svg>
