<?xml version="1.0" encoding="UTF-8"?>
<!-- Generator: visioncortex VTracer 0.6.4 -->
<svg version="1.1" xmlns="http://www.w3.org/2000/svg" width="2264" height="1120">
<path d="M0 0 C747.1 0 1494.2 0 2264 0 C2264 369.6 2264 739.2 2264 1120 C1516.9 1120 769.8 1120 0 1120 C0 750.4 0 380.8 0 0 Z " fill="#1F1E1F" transform="translate(0,0)"/>
<path d="M0 0 C747.1 0 1494.2 0 2264 0 C2264 26.7 2264 53.5 2264 81 C1516.9 81 769.8 81 0 81 C0 54.3 0 27.5 0 0 Z " fill="#FAFAF9" transform="translate(0,1039)"/>
<path d="M0 0 C8 6 8 6 11.7 9.2 C24.9 22.9 24.9 22.9 40.4 22.2 C57.7 12.7 70.7 11.7 85 27 C85 29 85 29 78.5 31.9 C63.5 40.1 60 48.3 61 65 C66.8 74.3 68.9 76.2 79 80 C78 85 78 85 75.9 90 C73.1 97.4 73.8 99 80 104 C85.8 104.6 85.8 104.6 89 102 C92 102 92 102 97 110 C104.7 116.1 109.2 113.3 118 110 C125.9 100.1 122.3 92.1 115 83 C116 79 116 79 121 76 C123.7 70.6 123 66.7 122.6 60.8 C122.5 58.7 122.4 56.7 122.3 54.7 C122.1 52.4 122.1 52.4 122 50 C124 48 124 48 131 47 C131.3 44.7 131.7 42.4 132 40 C138.4 29.3 147.1 29.6 158.3 32.8 C168.7 36.8 172.8 43.2 175 54 C178.9 52.2 182.9 50.4 186.8 48.6 C190.1 47.1 190.1 47.1 193.5 45.6 C198.7 43.3 198.7 43.3 202 41 C203 41.3 204 41.7 205 42 C203.3 43.1 201.6 44.3 199.8 45.4 C195.1 48.6 190.5 51.8 185.9 55 C180 59 180 59 178 59 C179 62.9 179 62.9 185 67 C187.1 71.2 185.9 75.6 185 80 C189.1 82.1 194.6 80.4 199 80 C199.7 78 200.3 76 201 74 C203.6 73.7 206.3 73.3 209 73 C209 65.9 207 63 202 58 C202 57.3 202 56.7 202 56 C210.1 56 212.9 58.1 217 65 C217 65.7 217 66.3 217 67 C226.3 62.4 226.3 62.4 227 53 C225.3 52.3 223.7 51.7 222 51 C222 47.7 222 44.4 222 41 C215.1 29.9 209.4 28.5 197 27 C199.5 16.9 211.9 14 221 14 C226 17 226 17 229 23 C231.8 23.1 231.8 23.1 234.6 23.2 C243.7 24.3 250.7 28.6 253 38 C253 46 253 46 249 54 C250.1 58.1 250.1 58.1 257 63 C263 77 260.7 88.3 251 100 C247 101 247 101 246 100 C246.3 96.7 246.3 96.7 246.7 93.3 C247.1 82.6 243.7 80.2 235 75 C234 74 233 73 232 72 C223.4 73.4 221.1 74.7 220.8 83.6 C219.5 96 215 99.5 203 101 C201.5 104 201.5 104 200 107 C193 110 193 110 186 110 C183 122.9 183 122.9 194 125 C196.3 125.8 198.7 126.6 201 127.5 C203.6 128.4 206.1 129.3 208.8 130.2 C211.3 131.1 213.9 132 216.5 132.9 C222.7 135.3 222.7 135.3 228 135 C231 125.9 232 116.4 227 108 C227 107.3 227 106.7 227 106 C237 106 239.1 108.4 244 117 C244.8 122.9 244.8 122.9 245 128 C247 129 249 130 251 131 C256.9 140.4 259 145 254 155 C252.7 156 251.4 157 250 158 C250 160.3 250 162.6 250 165 C243.6 174.6 239.1 175.5 228 175 C226.7 178 225.4 180.9 224 184 C216.2 190.2 209.7 191.2 200 188 C200 186 200 186 209 184 C214.8 176.7 214.4 171.3 215 162 C217.4 159.6 221.6 160.4 225 160 C234 154 233 153.3 233 142 C224 138.2 214.8 135.9 205.4 133.4 C203.5 132.9 201.6 132.4 199.7 131.9 C187.1 126.6 187.1 126.6 178 131 C171.9 135.9 169.8 136.9 162 138 C162 141 162 143.9 162 147 C161.7 148.3 161.3 149.6 161 151 C165.9 156.9 171 161.2 177 166 C181.8 170.2 186.5 174.5 191 179 C184.4 176.4 179.1 172.2 173.3 168.1 C165.3 161.4 165.3 161.4 156 158 C153.9 172.7 173.9 190.6 183 202 C186 206 186 206 186 208 C182 206 182 206 175 199 C173 197.3 173 197.3 171 195.5 C167.2 192.2 163.6 188.6 160 185 C158.1 183.3 158.1 183.3 156.1 181.6 C151.9 177.9 147.9 174 144 170 C133.6 168.4 133.6 168.4 132.9 174.5 C129.5 184.3 121.5 196 110 196 C113.5 208.1 113.5 208.1 124 213 C126.6 211.4 129.3 209.7 132 208 C132.7 208 133.3 208 134 208 C129.1 230 129.1 230 116 230 C114.7 229.7 113.4 229.3 112 229 C110.5 230.9 110.5 230.9 108.9 232.9 C100.1 242.1 87.6 240.4 77 235 C73 230 73 230 70 222 C69 222.3 68 222.7 67 223 C51.2 223 46.7 214.4 41 201 C39.4 200.6 37.8 200.1 36.2 199.7 C31 198 31 198 28 195 C21.8 198.1 19 203.5 15 209 C13 211.6 11 214.3 9 217 C9 211.8 12.6 208.2 15.4 204.1 C21.6 196.2 21.6 196.2 22 187 C22 183.7 22 180.4 22 177 C25 180 25 180 27 186 C29.8 186.3 29.8 186.3 30 181 C31.9 177.8 33.8 174.7 35.8 171.6 C37.4 169.1 37.4 169.1 39 166.6 C41.3 163 43.7 159.5 46 156 C44.2 150.5 39.4 147.8 34 146 C29.5 149.8 25.3 153.7 21.2 157.9 C16 163 10.6 167.4 5 172 C2.9 174 0.7 176 -1.5 178 C-7.2 183.2 -13 188.1 -19 193 C-21.1 195 -23.3 197 -25.5 199 C-34.6 207.4 -44 214.8 -54 222 C-54 214.1 -43.4 206.2 -38 201 C-34 197 -30.1 192.8 -26.2 188.7 C-17 178.9 -7.5 169.5 2.1 160.1 C7.2 155.4 7.2 155.4 9 150 C6 151 3.1 152 0 153 C-17 158.7 -29.4 156 -42 143 C-44 139 -44 139 -44 132 C-45.2 130 -46.4 128 -47.6 125.9 C-52.3 117.8 -51.1 115.7 -46 108 C-40 105 -40 105 -32 105 C-31 102 -30 99.1 -29 96 C-20 84 -20 84 -15 84 C-16.7 87.3 -18.3 90.7 -20 94 C-20.2 102.7 -20.2 102.7 -19 110 C-20.7 111.7 -22.3 113.3 -24 115 C-28.8 126.2 -28.7 134.2 -19 142 C-11.2 145.5 -11.2 145.5 -3 145 C-4.3 143.6 -5.6 142.2 -6.9 140.8 C-14 132.5 -14.1 128.2 -8 119 C-7 118.7 -6 118.3 -5 118 C-4 123.4 -4 123.4 -3 129 C0.1 129.3 0.1 129.3 1 122 C5 124 5 124 12 130 C13 130.3 14 130.7 15 131 C13.7 128.9 12.5 126.8 11.2 124.6 C0.9 105.9 4.9 95.2 17 79 C17.5 77.5 17.5 77.5 18 76 C16.3 75.9 14.6 75.7 12.9 75.6 C8.9 75.2 4.9 74.7 1 74 C-1.1 78.9 -3.1 84 -5 89 C-5.3 89 -5.7 89 -6 89 C-6.2 82.6 -6 78.1 -4 72 C-5.5 71.7 -7 71.5 -8.5 71.2 C-15.8 69.9 -23.1 68.4 -30.3 67 C-34.2 66.2 -34.2 66.2 -38.2 65.4 C-51 62.7 -51 62.7 -51 61 C-27.6 63.6 -27.6 63.6 -18 66 C-14.5 66.3 -11 66.6 -7.6 66.9 C2.3 67.7 11.4 69.5 21 72 C21 61.3 -3.7 53.4 -13.1 48.6 C-14.9 47.7 -16.7 46.8 -18.5 45.9 C-27.2 41.4 -27.2 41.4 -36 37 C-36 39.3 -36 41.6 -36 44 C-36.7 46.3 -37.3 48.6 -38 51 C-43.2 48.4 -41.3 39.8 -42 34 C-50.4 28.7 -59.1 24.4 -68 20 C-71.3 18.3 -74.7 16.7 -78 15 C-80.6 13.7 -83.3 12.4 -86 11 C-76.8 7.9 -56.1 21.9 -48 26 C-40.6 29.2 -40.6 29.2 -36 22 C-32 19 -32 19 -25 18 C-24.1 16.6 -23.2 15.2 -22.2 13.7 C-16.9 6 -16.9 6 -11 6 C-12 10 -12 10 -16 15 C-17.5 19.1 -17.5 19.1 -17 28 C-18.8 28.1 -20.5 28.2 -22.3 28.4 C-27.8 28.5 -27.8 28.5 -31 31 C-31 37.7 13 54 21 56 C21.3 53 21.7 50.1 22 47 C23.8 41.3 25.4 36.8 29 32 C29.6 27.6 29.6 27.6 25 26 C22.3 23.4 19.6 20.7 17 18 C15.7 16.9 14.4 15.7 13.1 14.6 C0 3.1 0 3.1 0 0 Z " fill="#FBFBFA" transform="translate(1539,92)"/>
<path d="M0 0 C5.4 16.1 2.9 27.7 -6 42 C-6.4 45.9 -6.4 45.9 0 49 C13.1 59.9 14.3 69 9 85 C1.9 97.4 -5.8 102 -20 102 C-25 105.3 -25 105.3 -29 109 C-36.3 112.6 -41.5 107.9 -47 104 C-52 103.3 -57 102.6 -62 102 C-65 100.7 -67.9 99.4 -71 98 C-75.4 97.6 -75.4 97.6 -78.4 106.8 C-88.6 127.3 -99.2 147.7 -110.8 167.5 C-113.3 171.9 -115.7 176.4 -117.9 180.9 C-128 201 -128 201 -134 207 C-131.7 200 -129.1 193.6 -126.1 186.9 C-117.7 168 -109.9 148.8 -104 129 C-108.3 133.3 -110.7 137.3 -113.8 142.5 C-114.9 144.5 -116 146.4 -117.2 148.5 C-123.9 160 -130.4 171.5 -137 183 C-139 186.6 -141.1 190.1 -143.1 193.7 C-153.2 211.4 -163.1 229.2 -173 247 C-175 243 -170.5 236.7 -169 233 C-168.1 230.8 -167.1 228.5 -166.2 226.2 C-164 221.3 -161.7 216.4 -159.2 211.5 C-154.2 201.5 -149.9 191.3 -145.5 181 C-144.7 179.1 -143.9 177.1 -143 175.1 C-141 170.4 -139 165.7 -137 161 C-138.2 163.3 -139.5 165.6 -140.7 168 C-143.6 173.5 -146.6 178.9 -149.5 184.4 C-153.8 192.6 -157.9 200.8 -162 209 C-164 213 -166 217 -168 221 C-171.5 210.6 -154.8 186 -150.4 176.4 C-139.4 152.5 -139.4 152.5 -130 128 C-143.6 151.7 -155.7 176.1 -167 201 C-173.9 187.1 -143.2 137.7 -137 124 C-138.6 126.6 -138.6 126.6 -140.3 129.2 C-142.6 132.7 -144.8 136.2 -147.2 139.7 C-150.4 144.5 -150.4 144.5 -154 152 C-155 153.6 -156 155.3 -157 157 C-159.8 148.7 -145.8 130.7 -141.6 123.2 C-136.2 113.6 -131.2 103.8 -126.1 94 C-123.9 89.6 -121.5 85.3 -119 81 C-122 82 -124.9 83 -128 84 C-138.8 84 -143.8 81.1 -146 70 C-146 63 -146 63 -144 56 C-146.3 56 -148.6 56 -151 56 C-161.7 50.6 -162.6 45.2 -162 34 C-158 28 -158 28 -154 25 C-153.8 22.6 -153.5 20.1 -153.3 17.6 C-150.3 -1.9 -139.5 -12 -119.6 -13.4 C-108.4 -12.7 -100 -9.4 -91 -3 C-86.6 -1.2 -86.6 -1.2 -85 -6 C-76.2 -11.3 -71.5 -8.2 -63 -4 C-61.7 -5.4 -60.4 -6.7 -59.1 -8.1 C-37.8 -28.4 -15.4 -23.8 0 0 Z " fill="#FCFCFB" transform="translate(1795,415)"/>
<path d="M0 0 C0.3 0 0.7 0 1 0 C0.9 2.4 0.9 4.8 0.8 7.2 C0.3 25.2 -0.1 43.1 0 61 C1.3 60 2.6 59 4 58 C4.7 58 5.3 58 6 58 C6.7 56.4 7.3 54.7 8 53 C9 52 10 51 11 50 C10.8 52.8 10.7 55.5 10.5 58.4 C10.1 63.7 10.1 63.7 10 69 C18.8 64.6 23.9 58 29.5 50.1 C33.9 44 38.3 37.9 43 32 C43 38.3 38.5 43.5 35.6 49 C30.7 58.4 26.6 67.4 25 78 C41.5 70.9 54.4 58.9 67.8 47.2 C74 42 74 42 78 40 C61.7 59 61.7 59 58 59 C57.3 60.3 56.7 61.6 56 63 C52 67 52 67 50 67 C49 69 49 69 48 71 C46.5 72.6 45 74.2 43.4 75.9 C38.5 80.7 38.5 80.7 38 87 C65.2 87 92.3 74.3 117.5 65.4 C125 63 125 63 132 62 C125.2 67.1 116.9 69.4 109 72.3 C105.2 73.7 101.4 75.2 97.6 76.6 C95.7 77.3 93.7 78.1 91.7 78.8 C80.1 83.3 68.4 87.8 56.8 92.4 C50 95 50 95 46 96 C46.8 99.6 46.8 99.6 51.9 101.4 C57 104 57 104 59 106 C64.7 107.4 70.4 107.4 76.2 107.6 C79.8 107.7 79.8 107.7 83.5 107.8 C85.3 107.9 87.1 107.9 89 108 C89 108.3 89 108.7 89 109 C76.1 111 63.3 113 50 115 C51.2 118 51.2 118 57.9 118.2 C60.9 118.8 63.9 119.3 67 119.9 C70 120.4 72.9 120.9 76 121.5 C92 124.5 92 124.5 92 126 C79.8 126.3 67.6 126.7 55 127 C56.3 128.3 57.6 129.6 59 131 C59 131.3 59 131.7 59 132 C55 132 51.1 132 47 132 C49.3 138.9 62.6 142.3 69 145 C63.4 146.4 59.3 144.9 53.8 143.6 C51.7 143.1 49.7 142.6 47.7 142.1 C46.1 141.8 44.6 141.4 43 141 C48.7 150.6 57.4 157.1 66 164 C70.7 168 75.3 172 80 176 C82 177.6 84 179.3 86 181 C80.2 181 75.1 176 70.4 172.9 C57.7 162.9 57.7 162.9 43 158 C41.7 157.7 40.4 157.3 39 157 C42.8 164.5 47.8 170.4 53 177 C63 189.6 63 189.6 63 193 C59.5 189.2 56 185.4 52.5 181.7 C50 179.1 47.5 176.5 45 174 C45 173.3 45 172.7 45 172 C44.3 172 43.7 172 43 172 C41.4 170 39.7 168 38 166 C39.1 171.5 41.2 175.2 44 180 C43.7 181 43.3 182 43 183 C37.6 176 32.3 169 27 162 C28.1 168.4 30 171.6 33.4 177.1 C36.4 181.7 38.9 185.9 41 191 C25 175 25 175 25 168 C24.3 168 23.7 168 23 168 C25 175.3 27.6 181.8 30.9 188.5 C40.5 208 40.5 208 39 211 C38.2 209.6 37.3 208.3 36.4 206.9 C35.3 205.1 34.2 203.3 33 201.4 C31.9 199.7 30.8 197.9 29.6 196.1 C26.1 191.2 22.6 187.8 18 184 C15.3 180.7 12.7 177.3 10 174 C9 173.7 8 173.3 7 173 C5.4 186.6 4.6 200 4.4 213.7 C4.3 215.6 4.3 217.4 4.3 219.4 C4.2 223.9 4.1 228.5 4 233 C3.3 233.3 2.7 233.7 2 234 C0.2 226.1 -0.9 218.5 -1.9 210.5 C-3.4 199.6 -5 188.8 -7 178 C-7.7 178 -8.3 178 -9 178 C-8.9 181.7 -8.9 181.7 -8.8 185.5 C-8.7 188.8 -8.6 192.1 -8.5 195.5 C-8.4 198.7 -8.3 202 -8.2 205.3 C-8 213.9 -8 222.4 -8 231 C-8.7 231 -9.3 231 -10 231 C-13.3 212.2 -14.2 193.1 -15 174 C-17.3 185.6 -18.1 196.9 -18.6 208.7 C-18.7 211.9 -18.7 211.9 -18.8 215.1 C-18.9 216.7 -18.9 218.3 -19 220 C-20 220 -20 220 -21 215 C-21.1 210.6 -21.2 206.1 -21.2 201.7 C-21.2 199.3 -21.2 197 -21.2 194.5 C-21 188 -21 188 -19 180 C-25.2 186.2 -27.5 193.9 -31 202 C-32 202.3 -33 202.7 -34 203 C-34 196 -34 196 -33 187 C-34.3 190.3 -35.6 193.6 -37 197 C-37.7 197 -38.3 197 -39 197 C-37.9 187.4 -36.4 176.8 -32 168 C-36.3 168 -38.5 177.8 -39.9 181.3 C-46.9 198 -46.9 198 -48 198 C-47.1 191.1 -45.8 184.7 -44 178 C-51.1 185.7 -57.6 193.7 -64 202 C-78.9 221 -78.9 221 -81 220 C-79.7 217.6 -78.3 215.3 -76.9 212.8 C-70.9 202 -65.3 191.1 -59.7 180.1 C-55.2 171.4 -50.6 162.7 -46 154 C-54.4 159.2 -61.6 165.6 -69 172 C-76 177 -76 177 -78 176 C-76.5 174.3 -75.1 172.6 -73.6 170.9 C-64.4 159.8 -64.4 159.8 -58 147 C-59.7 147.7 -61.3 148.4 -63 149.2 C-65.2 150.1 -67.3 151 -69.6 151.9 C-71.7 152.9 -73.9 153.8 -76.1 154.7 C-82 157 -82 157 -89 158 C-87 156 -87 156 -78.8 152.2 C-70 148.3 -70 148.3 -63 143 C-64.5 143.5 -66 144.1 -67.5 144.7 C-79.3 148.9 -91 153.1 -102.9 157.1 C-105.1 157.9 -107.4 158.7 -109.7 159.4 C-115 161 -115 161 -118 160 C-113.9 157.5 -109.8 155.1 -105.8 152.6 C-102.3 150.6 -102.3 150.6 -98.9 148.5 C-95.6 146.6 -92.4 144.7 -89 143 C-94.9 144 -94.9 144 -101 145 C-95.4 139.4 -87.3 137.1 -80.1 134 C-74.3 131.1 -69.2 127.9 -64 124 C-70 121 -76.1 121.1 -82.8 120.4 C-85.5 120.2 -88.3 119.9 -91.2 119.7 C-99.1 119 -107.1 118.5 -115 118 C-120 117 -120 117 -120 116 C-112.5 115 -105.1 114 -97.6 113 C-95.5 112.7 -93.4 112.4 -91.2 112.1 C-88.1 111.7 -88.1 111.7 -85 111.3 C-83.2 111.1 -81.3 110.8 -79.4 110.6 C-75 110 -75 110 -73 110 C-72.5 108.5 -72.5 108.5 -72 107 C-66.1 106 -66.1 106 -60 105 C-67.3 97.7 -77.5 94.7 -87 91 C-87 90.7 -87 90.3 -87 90 C-74.1 90.5 -74.1 90.5 -61 91 C-65.5 81 -65.5 81 -72 74 C-73.3 72.2 -74.6 70.4 -75.9 68.5 C-84.8 57.5 -94.9 47.9 -105 38 C-103 37 -103 37 -98.3 40 C-73.5 58.2 -73.5 58.2 -46 68 C-47.2 66.3 -48.3 64.6 -49.5 62.8 C-62.2 43.6 -62.2 43.6 -66 33 C-64 33 -64 33 -59.1 41.1 C-54.2 49.2 -49.1 57.1 -44 65 C-50 47.1 -59.1 30.6 -68 14 C-67.7 13.3 -67.3 12.7 -67 12 C-59.2 21.9 -51.6 31.9 -44 42 C-41.6 45.2 -39.2 48.3 -36.8 51.4 C-35.6 52.9 -34.4 54.4 -33.2 56 C-29.9 60.3 -29.9 60.3 -25 65 C-24 57.1 -23 49.2 -22 41 C-20 41 -20 41 -18.1 50.3 C-16.8 56.7 -16.8 56.7 -15 63 C-14.3 58.7 -13.7 54.4 -13 50 C-12.7 50 -12.3 50 -12 50 C-11.5 56.4 -11.5 56.4 -11 63 C-7.9 52.9 -6.4 42.5 -4.9 32.1 C-1.8 10.2 -1.8 10.2 0 0 Z " fill="#F3F3F2" transform="translate(746,331)"/>
<path d="M0 0 C2.4 11.8 -13.6 21.5 -22 28 C-22.3 28.3 -22.7 28.7 -23 29 C-14.7 27.2 -6.7 24.9 1.5 22.5 C23.5 16 23.5 16 33 16 C33.3 17.6 33.7 19.3 34 21 C38.3 20.4 42.7 19.7 47 19 C48 22 48 22 43 29 C42.7 31.3 42.3 33.6 42 36 C44.7 36 47.5 36.1 50.3 36.1 C53.9 36.2 57.5 36.3 61.1 36.4 C63.8 36.4 63.8 36.4 66.6 36.5 C80.3 36.8 80.3 36.8 87 39 C84.9 45.3 64.2 44.3 57.4 44.9 C49.5 45.6 41.8 46.6 34 48 C19.7 50.4 5.4 51.2 -9 52 C-11.7 52.2 -14.4 52.3 -17.2 52.5 C-26.6 53 -36.1 53.2 -45.6 53.4 C-68.8 53.8 -92.1 54.8 -115.4 55.8 C-136.9 56.8 -158.5 57.5 -180 58.2 C-200.5 58.8 -220.9 59.6 -241.3 60.3 C-247.6 60.5 -253.8 60.7 -260 61 C-269.5 61.3 -278.9 61.6 -288.4 62 C-297.8 62.3 -307.2 62.6 -316.5 63 C-319.3 63.1 -322.1 63.2 -325 63.3 C-377.6 65.1 -377.6 65.1 -384 63 C-384 57.8 -373.2 57.3 -369.2 56.4 C-356.9 53.2 -345 49.1 -333 45 C-290.7 31 -290.7 31 -273 29 C-276 36 -276 36 -278 39 C-276 38.1 -274 37.3 -271.9 36.4 C-258 31.1 -243.9 26.4 -229 26 C-228 29 -228 29 -230 37 C-210 37.8 -192.4 31.7 -173.7 25.4 C-153 18.5 -132.2 12.4 -111 7 C-108.8 6.4 -106.7 5.9 -104.4 5.3 C-81.5 -0.5 -81.5 -0.5 -75 6 C-70.7 6.3 -66.4 6.7 -62 7 C-61 13 -61 13 -69 23 C-65.9 21.4 -65.9 21.4 -62.8 19.7 C-43.7 10.2 -21.5 0 0 0 Z " fill="#FCFCFC" transform="translate(464,453)"/>
<path d="M0 0 C3 0.3 5.9 0.7 9 1 C13.8 4.6 17.2 8.3 21 13 C23.6 14 26.3 15 29 16 C42.9 31 53.8 49 65 66 C66.8 68.7 68.5 71.4 70.4 74.1 C74 80 74 80 74 83 C61.7 70.7 49.8 58.6 39 45 C38.3 44.7 37.7 44.3 37 44 C39.7 47.6 39.7 47.6 42.5 51.3 C68.5 86 68.5 86 67 89 C60.6 85.8 57.9 79.9 54 74.2 C50.9 69.9 47.5 66 44 62 C40.1 56.8 36.4 51.6 33 46 C35.3 51.9 38.4 56.9 41.7 62.2 C43 64.5 44.4 66.7 45.8 69 C48.5 73.6 51.3 78.1 54 82.6 C60.9 93.9 67.2 105.2 73 117 C78.1 125.8 84.3 133.3 91 141 C93.4 144 95.7 147 98 150 C105 159.1 112.2 167.6 120 176 C121.1 177.3 122.2 178.6 123.3 179.9 C146 205.3 165.2 217.4 197 199 C198 199 199 199 200 199 C195.6 207.9 184.3 212.1 175 214 C198.5 211.4 210.7 193.6 219 173 C219.3 173 219.7 173 220 173 C219.2 196.2 203.4 224.1 179 228 C129.3 229.7 98.8 198.8 68 163 C66 160.9 64 158.7 62 156.5 C57.6 151.7 53.3 146.9 49 142 C46.9 139.6 44.8 137.3 42.7 134.8 C34.5 125.3 26.8 115.6 20 105 C23 117 32.4 127.5 40 137 C43 141 43 141 43 144 C39.2 140.8 35.5 137.5 32 134 C29.7 133.7 27.4 133.3 25 133 C23.3 130.8 21.7 128.6 20 126.3 C15 119.7 10 113.1 5 106.6 C-33.7 55.7 -33.7 55.7 -33 27 C-32 26 -31 25 -30 24 C-29.4 21.5 -28.7 19 -28.1 16.5 C-25.5 7.3 -24.3 7.1 -16 3 C-14.3 1.7 -12.7 0.4 -11 -1 C-7.3 -2.8 -3.6 -1.8 0 0 Z " fill="#FBFAFA" transform="translate(1177,76)"/>
<path d="M0 0 C0 7 -1.9 10.9 -7 16 C-7.3 17.6 -7.7 19.3 -8 21 C3.3 21.2 14 20.6 25.1 18.9 C28.1 18.4 31.1 18 34.2 17.5 C41.1 16.5 47.9 15.4 54.7 14.3 C56.4 14.1 58.2 13.8 60 13.5 C65 12.7 69.9 11.9 74.9 11.1 C83 10 83 10 91 10 C71.9 29.1 30.8 28.4 6 31 C2.8 31.4 -0.4 31.7 -3.7 32.1 C-18.1 33.7 -18.3 33 -24 20 C-24 18 -24 16 -24 14 C-27.3 14.6 -27.3 14.6 -30.6 15.2 C-44.1 17.6 -57.7 19.8 -71.2 22 C-73.9 22.4 -76.6 22.9 -79.3 23.3 C-93.8 25.7 -108.4 28 -123 30 C-128.7 31 -134.3 32 -140 33 C-152.6 35.1 -165.1 37.2 -177.7 39.2 C-181.7 39.8 -185.6 40.4 -189.6 41.1 C-211.7 44.8 -233.8 47.5 -256 50 C-259.3 50.4 -259.3 50.4 -262.6 50.8 C-307.5 55.5 -307.5 55.5 -319 44 C-319 34.9 -317.4 32.9 -312 26 C-311 24.7 -310 23.4 -309 22 C-318.1 23.2 -318.1 23.2 -327 25 C-331.7 25.4 -336.4 25.9 -341.1 26.3 C-355.2 28 -369 31 -382.8 34 C-386 34.7 -389.1 35.4 -392.3 36.1 C-399.3 37.6 -406.1 39.2 -413 41 C-411.2 40.9 -409.4 40.7 -407.5 40.6 C-405.2 40.4 -402.8 40.2 -400.4 40 C-398 39.8 -395.7 39.6 -393.3 39.4 C-389.2 39.2 -385.1 39 -381 39 C-381 48.4 -423 53.2 -430.9 54.6 C-437.8 56 -444.3 57.9 -451 60 C-456.8 61 -462 61.1 -467.9 61.1 C-469.8 61.1 -471.7 61 -473.6 61 C-478 61 -478 61 -483 56 C-483 35 -422.4 26.2 -406.7 21.8 C-404 21 -401.2 20.3 -398.4 19.5 C-384.6 15.6 -370.9 11.9 -357 8.3 C-351.6 6.9 -346.2 5.3 -340.8 3.7 C-333.8 1.7 -327.3 0.2 -320 0 C-325 5 -335 6 -341.8 8 C-354.9 11.9 -354.9 11.9 -368 16 C-366.6 15.8 -365.2 15.5 -363.8 15.3 C-357.5 14.2 -351.1 13.2 -344.8 12.1 C-341.5 11.6 -341.5 11.6 -338.2 11 C-334 10.3 -329.8 9.6 -325.5 8.9 C-321.2 8.2 -316.9 7.5 -312.6 6.8 C-300.6 5.1 -290.5 3.9 -281 12 C-282.3 19.7 -286 23.2 -291 29 C-289.2 36.4 -285.2 35 -278 35 C-272.6 34.3 -267.3 33.6 -262 32.8 C-260.4 32.5 -258.8 32.3 -257.1 32 C-253.6 31.5 -250.2 31 -246.7 30.5 C-241.2 29.7 -235.6 28.9 -230.1 28 C-222.5 26.9 -214.8 25.8 -207.2 24.7 C-164.8 18.4 -122.4 12.3 -79.9 6.5 C-75.4 5.9 -75.4 5.9 -70.8 5.3 C-6.7 -3.4 -6.7 -3.4 0 0 Z " fill="#F8F8F8" transform="translate(927,684)"/>
<path d="M0 0 C-10.6 5.3 -24.6 5.9 -36.2 7.9 C-52.9 10.8 -69.5 14.2 -86 18 C-92.2 19.4 -98.5 20.7 -104.8 22.1 C-113.8 24 -122.9 26 -132 28 C-117 28 -102.1 27.9 -87.1 27.7 C-85.1 27.7 -83.1 27.6 -81.1 27.6 C-61.6 27.3 -42.9 24.6 -23.8 21.1 C4.5 16.2 33.2 12.6 62 12 C49.2 20.5 26.8 20.1 12 21.9 C7.9 22.5 7.9 22.5 3.8 23 C-1.6 23.7 -7 24.4 -12.5 25 C-19 25.9 -25.6 26.7 -32.1 27.6 C-50.9 30 -69.5 31.4 -88.5 31.7 C-101.7 32.2 -114.6 33.7 -127.7 35.4 C-133.7 36.1 -139.8 36.8 -145.8 37.5 C-168.6 40 -191.3 42.7 -214 46 C-204.5 46.1 -195.2 45.8 -185.8 45 C-183.2 44.8 -180.5 44.5 -177.8 44.3 C-173.6 44 -173.6 44 -169.4 43.6 C-165.4 43.3 -165.4 43.3 -161.2 43 C-149.8 42 -138.5 41.1 -127.1 39.9 C-115.4 38.7 -103.7 38.6 -92 38.4 C-73.5 38.2 -73.5 38.2 -55 37 C-44.5 36.7 -44.5 36.7 -41 39 C-59.5 42.5 -77.2 44.3 -96 44 C-87.7 45.2 -79.4 45.6 -71 46 C-72 48 -72 48 -76.9 48.1 C-79 48.2 -81.1 48.3 -83.3 48.4 C-86.5 48.5 -86.5 48.5 -89.7 48.6 C-95.8 48.9 -95.8 48.9 -101.2 50 C-106.7 50.9 -112 51.5 -117.6 51.9 C-120.6 52.2 -120.6 52.2 -123.8 52.4 C-125.9 52.6 -128.1 52.7 -130.4 52.9 C-132.7 53 -134.9 53.2 -137.3 53.4 C-142.1 53.8 -146.9 54.1 -151.8 54.5 C-158.7 55 -165.7 55.5 -172.7 56 C-195.4 57.8 -218.2 59.5 -240.9 61 C-251.3 61.7 -261.6 62.7 -272 64 C-241.3 63.2 -210.7 61.8 -180.1 59.5 C-167.2 58.6 -154.4 58 -141.5 57.3 C-135.6 57 -129.7 56.6 -123.8 56.3 C-95 54.7 -66.3 53.3 -37.5 52.1 C-22.4 51.4 -7.4 50.6 7.7 49.4 C16.1 48.9 24.4 48.6 32.8 48.4 C35.7 48.3 38.6 48.2 41.5 48.1 C43.7 48.1 45.8 48.1 48 48 C43.5 51 39.1 50.6 33.8 51 C31.5 51.2 29.2 51.4 26.9 51.5 C23.5 51.8 23.5 51.8 20 52 C17.2 52.2 17.2 52.2 14.4 52.4 C8.6 52.8 2.8 53.2 -3.1 53.6 C-111.5 61.1 -111.5 61.1 -219.9 69.5 C-238.8 71 -257.8 72.3 -276.8 73.6 C-280 73.8 -283.3 74 -286.7 74.2 C-330.3 77.1 -330.3 77.1 -350.7 77.2 C-353.2 77.2 -355.6 77.2 -358.2 77.2 C-372.7 76.7 -372.7 76.7 -379 72 C-375 52.1 -246.1 35.3 -224.4 31.6 C-220.1 30.9 -220.1 30.9 -215.8 30.2 C-198 27.2 -180.2 24.2 -162.4 21.4 C-151.8 19.6 -141.2 17.8 -130.7 15.9 C-95.2 9.6 -60.1 4.7 -24.1 2.5 C-16 1.8 -8.2 0 0 0 Z " fill="#F9F9F9" transform="translate(461,202)"/>
<path d="M0 0 C2.8 5.7 3.6 11.5 4.8 17.8 C7 28.4 9.5 38.7 13 49 C20.6 47.5 24.4 42.3 30 37 C40.6 28 40.6 28 43 28 C42.3 29.7 41.7 31.3 41 33 C40.7 34.3 40.3 35.6 40 37 C46.9 31.6 53.5 25.9 60 20 C63.7 17 67.3 14 71 11 C73.5 8.8 73.5 8.8 76 6.5 C80 3 80 3 83 2 C81 6 81 6 76 11.4 C70.2 17.7 65.1 24.2 60 31 C58.1 33.5 56.3 36 54.4 38.5 C45.3 50.4 45.3 50.4 40 64 C46.7 67.3 56 64.4 63 63 C58.3 67.7 53.5 71.3 48 75 C49 79.5 49 79.5 59 81 C58 83 58 83 53.1 84.3 C47.9 85.4 47.9 85.4 46 89 C52.9 89.7 59.9 90.3 67 91 C65 97 51 100 45 100 C49.4 110.3 55.9 116.5 65 123 C63 124 63 124 54.2 119.7 C46.9 116.2 40 113.6 32 112 C39.2 130.2 50.1 145.9 61 162 C60.7 162.7 60.3 163.3 60 164 C48.7 151.8 48.7 151.8 44.1 146.4 C40.9 142.7 40.9 142.7 36 139 C36 142.3 36 145.6 36 149 C31.5 144.5 29.3 138.9 26.4 133.3 C21.9 124.1 21.9 124.1 14 120 C10.4 130.9 8.7 140.6 8 152 C-1 147.5 0.2 133.5 -3 124 C-14.3 129.7 -22.5 144.9 -30 155 C-38.6 166.6 -38.6 166.6 -43 171 C-40.8 164.5 -37.9 159.6 -34.2 153.8 C-29.6 146.3 -25.2 138.8 -21 131 C-24.7 134.7 -27.9 139.8 -31 144 C-33 146.6 -35 149.3 -37 152 C-38 150 -38 150 -36.2 146.1 C-27.8 129 -27.8 129 -22 111 C-23.6 112 -25.3 113 -27 114 C-28 113.5 -28 113.5 -29 113 C-27.8 110.9 -27.8 110.9 -26.6 108.7 C-24 104.4 -24 104.4 -23 101 C-48.6 110.7 -48.6 110.7 -73 123 C-73.7 122.7 -74.3 122.3 -75 122 C-67.5 116 -60.1 110.1 -52.6 104.2 C-43 98 -43 98 -38 89 C-46.9 88 -55.6 87.7 -64.6 87.4 C-69.2 87.3 -69.2 87.3 -73.9 87.2 C-76.2 87.1 -78.6 87.1 -81 87 C-81 86.7 -81 86.3 -81 86 C-79 85.7 -76.9 85.5 -74.9 85.2 C-72.2 84.9 -69.5 84.5 -66.8 84.2 C-64.1 83.9 -61.5 83.5 -58.7 83.2 C-42.5 81.3 -42.5 81.3 -30 72 C-32.8 55 -50.5 31.8 -66 24 C-65.7 23.3 -65.3 22.7 -65 22 C-62.6 23.6 -60.3 25.3 -57.9 26.9 C-40.4 41.1 -40.4 41.1 -21 49 C-21 44.7 -21 40.4 -21 36 C-18 39 -18 39 -14 46 C-9.1 46 -7.6 28.5 -6.8 24.1 C-6.4 21.6 -6.4 21.6 -6 19 C-3 21 -3 21 -3 24 C4.2 20.4 -0.4 8.1 0 0 Z " fill="#FAFAFA" transform="translate(988,68)"/>
<path d="M0 0 C-3 2 -3 2 -9 3 C-9 4 -9 5 -9 6 C-1.4 6 6.2 6 14 6 C11.3 11.5 -6.3 11.4 -12 12 C-12.3 12.3 -12.7 12.7 -13 13 C-5.2 13.1 2.3 12.7 10 12 C13 12 15.9 12 19 12 C12.6 18.4 -5.1 17.4 -13.7 17.9 C-38.9 19.7 -61.5 25.3 -84.9 35 C-90 37 -90 37 -92 37 C-92 35 -92 35 -87 32 C-95.9 35 -102.4 37.5 -108 45 C-103.9 53.2 -94.7 53.6 -86.5 54.7 C-83.9 55 -83.9 55 -81.2 55.4 C-55.1 58.5 -28.8 58.1 -2.6 58.2 C1 58.2 1 58.2 4.7 58.2 C18.6 58.2 32.1 57.5 46 56 C51.6 55.6 57.2 55.2 62.9 54.8 C135.3 49.3 207.7 41 279.4 28.8 C285 28 285 28 291 28 C274.2 36.4 252 37.9 233.6 41.5 C215 45.2 196.5 48.9 178 53 C180.5 52.7 183 52.3 185.6 52 C199.9 50.3 199.9 50.3 204 53 C151.1 62.7 98.1 68.8 44.5 72.5 C35.9 73.2 27.2 73.9 18.6 74.6 C10.7 75.2 2.9 75.1 -5 75 C3.2 70.9 11.9 70.6 20.9 70.1 C31.8 69.3 42.3 67.9 53 66 C60.3 65.2 67.7 64.6 75 64 C64.3 63.8 53.6 64.6 42.9 65.4 C39.1 65.7 35.4 66 31.7 66.2 C30 66.4 28.4 66.5 26.7 66.6 C23.9 66.8 23.9 66.8 21 67 C18.5 67.2 16 67.4 13.5 67.5 C1.6 68.1 -10.3 68.2 -22.2 68.2 C-24.6 68.2 -27.1 68.3 -29.7 68.3 C-35 68.3 -40.2 68.3 -45.5 68.3 C-50.8 68.3 -56.1 68.3 -61.5 68.4 C-69.3 68.4 -77 68.4 -84.8 68.4 C-88.3 68.5 -88.3 68.5 -91.9 68.5 C-137.2 68.4 -137.2 68.4 -154 54 C-154 22.5 -87.5 10.9 -64.5 6.5 C-43.1 2.7 -21.8 -0.4 0 0 Z " fill="#F6F6F5" transform="translate(249,66)"/>
<path d="M0 0 C0.3 0 0.7 0 1 0 C1.3 1.7 1.6 3.5 1.9 5.2 C4.3 18.9 6.9 32.5 9.6 46 C13.6 66.1 17.3 86.2 21 106.4 C22.8 116.4 24.8 126.4 26.7 136.4 C27.5 140.6 28.3 144.8 29 149 C29.7 149 30.3 149 31 149 C31 146.9 30.9 144.8 30.9 142.6 C31 131 32 119.5 33 108 C36.3 113 36 118.7 36.6 124.6 C36.8 127 37.1 129.5 37.3 132 C37.5 134.3 37.8 136.6 38 139 C38.3 142.3 38.7 145.7 39 149 C39.7 149 40.3 149 41 149 C41.3 146 41.7 143.1 42 140 C42.9 135.5 43.8 131 44.8 126.4 C46.9 115.2 48.7 104 50.6 92.7 C52.3 82.4 54.1 72.2 56 62 C57 56.3 58 50.7 59 45 C59.3 45 59.7 45 60 45 C59.4 57.7 57.9 70.2 56.2 82.9 C54.1 99.1 52.2 115.3 50.6 131.6 C50.5 133.3 50.3 135.1 50.1 136.9 C49.5 143.3 49 149.6 49 156 C67.4 128.4 75 86.1 85.7 54.5 C89.6 42.9 93.6 31.4 98 20 C99.7 25.1 97.1 29.6 95.6 34.6 C75.4 97.6 75.4 97.6 61 162 C64.8 162.5 64.8 162.5 65 157 C66 156 67 155 68 154 C67 162 67 162 66 164 C71.4 158.6 74.1 153.6 77.7 146.9 C78.8 144.8 80 142.7 81.1 140.5 C82.8 137.3 84.4 134.2 86 131 C88.4 135.8 84.5 142.1 83.2 147.2 C81.8 152.3 81.8 152.3 81 159 C84.5 158 84.5 158 88 157 C86 163 86 163 82.9 169.6 C80 175.5 80 175.5 79 180 C87.1 175.1 87.1 175.1 93 168 C93.7 168 94.3 168 95 168 C92.4 175.8 88.7 182.7 85 190 C83 194 83 194 81 198 C78 204 78 204 60 204 C61.6 196.1 65.5 189.2 69 182 C64.3 184 64.3 184 60 190 C55 194 55 194 53 194 C52.7 192 52.3 190 52 188 C51 189.3 50 190.6 49 192 C47.7 192 46.4 192 45 192 C45.5 188 45.5 188 46 184 C46 183.3 46 182.7 46 182 C44 184.6 42 187.3 40 190 C34 190 34.9 179.8 34 175 C34 173 34 171 34 169 C33.3 169 32.7 169 32 169 C32 175.6 32 182.2 32 189 C27 188 27 188 22 181 C22.7 183.6 23.3 186.3 24 189 C24 196 24 196 19 197 C17.7 196.7 16.4 196.3 15 196 C16 198 17 200 18 202 C18 203 18 204 18 205 C-1.5 203.7 -6.2 194.5 -18 180 C-21.3 176.3 -24.6 172.6 -28 169 C-21.1 169 -14.2 175.8 -8.8 179.8 C-3.7 183.5 -3.7 183.5 4 186 C-8.5 167.2 -21.1 148.6 -33.9 130 C-51.3 104.6 -51.3 104.6 -50 102 C-44.5 108.4 -38.9 114.9 -33.6 121.4 C-28.9 127.1 -24.2 132.6 -19.4 138.1 C-17.1 140.7 -14.8 143.4 -12.5 146.1 C-7.5 151.9 -2.4 157.6 3 163 C1 153.9 -1.8 145.4 -4.8 136.6 C-5.8 133.5 -6.8 130.5 -7.9 127.3 C-8.9 124.2 -9.9 121.2 -11 118 C-17 100 -17 100 -16 98 C-15 100 -14 102 -12.9 104.1 C-11.9 106.3 -11.9 106.3 -10.8 108.5 C-8.6 112.8 -6.5 117.1 -4.3 121.4 C-3 124 -1.7 126.7 -0.4 129.4 C0.9 131.9 2.1 134.4 3.4 137 C6.4 142.8 9.6 148.4 13 154 C13 154.7 13 155.3 13 156 C14 156 15 156 16 156 C14.2 137.6 12.2 119.2 10.2 100.9 C9.9 97.6 9.5 94.3 9.2 91 C6.9 69.7 4.4 48.4 1.7 27.1 C0.6 18 -0.3 9.2 0 0 Z " fill="#F7F7F6" transform="translate(1695,743)"/>
<path d="M0 0 C17.3 27 32.7 64.8 22 97 C16 101 16 101 11 100 C7.2 92.4 5.5 86.3 3.8 78 C-8.3 23 -8.3 23 -49.1 -7.6 C-64.2 -6 -75.6 8.6 -78 23 C-80 23.5 -80 23.5 -82 24 C-88.6 50.4 -81.9 76.7 -74 102 C-73.4 103.8 -72.9 105.6 -72.3 107.5 C-66.9 124 -57.9 136.5 -47 150 C-44.5 153.2 -44.5 153.2 -42 156.6 C-36.8 163.2 -31.5 169.6 -26 176 C-18 186 -18 186 -19 188 C-24.5 183.3 -29.3 178.5 -34 173 C-48.2 156.2 -48.2 156.2 -64 141 C-70.9 130 -76.6 118.8 -82 107 C-82.5 106 -82.5 106 -83 105 C-76.9 119.7 -76.9 119.7 -70 134 C-70.3 135 -70.7 136 -71 137 C-106.9 101.1 -110.3 30.8 -86 -11 C-79.3 -20 -79.3 -20 -76 -20 C-76.7 -17.7 -77.3 -15.4 -78 -13 C-76.2 -14.3 -74.4 -15.5 -72.6 -16.8 C-60.8 -24.3 -52 -25.3 -39 -21 C-44.3 -26.3 -49.2 -28.8 -56 -32 C-56 -51 -3.7 -4.8 0 0 Z " fill="#F9F9F8" transform="translate(1486,731)"/>
<path d="M0 0 C9.4 42.1 -18.3 71.8 -47 98 C-49.2 100.1 -51.3 102.2 -53.6 104.3 C-63.2 112.8 -73.9 118.9 -85.1 125.2 C-94.9 130.7 -104.3 136.7 -113.6 143.1 C-123.2 149.4 -123.2 149.4 -126 148 C-124.5 147 -123 145.9 -121.5 144.9 C-116.9 141.7 -112.5 138.3 -108 135 C-104.4 132.6 -100.7 130.2 -96.9 127.9 C-80.8 117.9 -80.8 117.9 -71 104 C-73.9 106.7 -73.9 106.7 -76.9 109.5 C-86.6 118.4 -96.3 125.6 -107.6 132.3 C-111.2 134.5 -114.8 136.8 -118.4 139.1 C-132.4 147.4 -146.6 152.9 -162 158 C-169.9 161.5 -177.4 165 -184.8 169.7 C-193 174.9 -205.2 181.5 -215 179 C-213.2 178.3 -211.3 177.6 -209.4 176.9 C-207 175.9 -204.5 175 -202 174 C-199.5 173.1 -196.9 172.1 -194.3 171.1 C-187.7 168.3 -182.8 165.2 -177 161 C-169.3 156.7 -161.9 153.6 -153.4 151.2 C-136.8 146.5 -123.1 137.4 -109.4 127.2 C-105 124 -100.6 121.4 -95.9 118.7 C-83.9 111.5 -74.9 101.6 -66 91 C-62.4 87.4 -58.7 83.8 -54.9 80.2 C-47.8 72.8 -42 65.3 -36 57 C-43.3 64.3 -50.3 71.9 -57.1 79.8 C-63 86.2 -69.5 91.5 -77 96 C-74 88.5 -68.5 83.8 -63 78 C-60 74.4 -57 70.7 -54 67 C-53 65.8 -52 64.5 -50.9 63.3 C-30.2 39.3 -30.2 39.3 -22 10 C-37.3 -5.3 -85.5 31.9 -98.4 40.6 C-105 45 -105 45 -107 45 C-103 36.9 -93.2 32.2 -86 27 C-102.3 36.2 -117.1 46.8 -130.9 59.4 C-136 64 -136 64 -140 66 C-134.9 53.3 -120.5 43.3 -110 35 C-109 33.4 -108 31.7 -107 30 C-123.5 37.9 -137 47.4 -151 59 C-152.9 60.5 -154.7 61.9 -156.6 63.4 C-163.5 69.3 -169.7 75.6 -176 82 C-176.7 82 -177.3 82 -178 82 C-178 82.7 -178 83.3 -178 84 C-179 83.5 -179 83.5 -180 83 C-173.8 75.2 -167.2 67.9 -160.1 60.9 C-158.3 59 -156.5 57.2 -154.6 55.3 C-149.2 50.2 -143.8 45.6 -138 41 C-136 39.4 -134 37.8 -131.9 36.1 C-106.6 17.3 -24.4 -39 0 0 Z " fill="#F6F6F6" transform="translate(2126,331)"/>
<path d="M0 0 C-7.5 7.3 -15.7 13 -24.4 18.9 C-30.1 22.7 -35.6 26.8 -41 31 C-42.4 32.1 -43.9 33.2 -45.4 34.3 C-53.5 40.6 -61.4 47 -69 54 C-70.7 55.4 -72.4 56.8 -74.2 58.2 C-92.9 73.7 -110.8 91.1 -126 110 C-127.6 111.7 -129.2 113.4 -130.8 115.2 C-142.6 128.4 -152.3 143.2 -162 158 C-163.3 160 -164.6 162 -166 164 C-166.3 165 -166.7 166 -167 167 C-165.3 166.7 -163.7 166.3 -162 166 C-159.7 166 -157.4 166 -155 166 C-156 169 -156 169 -160.4 171.4 C-164.9 173.4 -164.9 173.4 -166 176 C-164.1 175.5 -162.2 175.1 -160.2 174.6 C-156.8 173.7 -153.4 172.9 -150 172 C-149.5 175.5 -149.5 175.5 -149 179 C-135.8 179.3 -122.6 179.7 -109 180 C-122.1 189.8 -142.4 188.6 -158.1 189.4 C-160.5 189.6 -162.9 189.7 -165.4 189.8 C-196.6 191.4 -227.8 192.2 -259 193 C-255 185.1 -242.3 168 -233 168 C-234 173 -234 173 -236 178 C-230 172.9 -225.9 168.1 -221 162 C-201.3 141 -201.3 141 -190 141 C-185.7 145.3 -192 153.5 -194 157 C-194.7 158.3 -195.3 159.6 -196 161 C-183.4 154.3 -176.4 144.2 -168 133 C-164 128 -160 123 -156 118 C-154.7 116.3 -153.4 114.7 -152 112.9 C-143.4 102.3 -134.3 92.1 -125 82 C-123.6 80.4 -122.2 78.9 -120.8 77.3 C-82.9 35.5 -82.9 35.5 -76 39 C-77.5 40.5 -79 42 -80.6 43.5 C-86.4 49.4 -91.8 55.5 -97 62 C-91.1 57.3 -85.3 52.6 -79.4 47.8 C-71.2 41.1 -62.7 35 -54 29 C-51.1 27 -51.1 27 -48.2 25 C-34.5 16.2 -20.7 8.1 -6 1 C-2 -1 -2 -1 0 0 Z " fill="#FAF9F9" transform="translate(2129,58)"/>
<path d="M0 0 C1 2.3 2 4.6 3 7 C6.5 7.4 6.5 7.4 9 3 C11 3 11 3 12 8 C16.9 8.2 16.9 8.2 21 7 C22 8.6 23 10.3 24 12 C25.3 11.7 26.6 11.3 28 11 C29.3 11 30.6 11 32 11 C32 13.6 32 16.3 32 19 C35 20 37.9 21 41 22 C40.7 24.3 40.3 26.6 40 29 C41.6 30 43.3 31 45 32 C44.7 34.6 44.3 37.3 44 40 C45.5 41 45.5 41 47 42 C46 47 46 47 44 51 C43.4 55.8 43.4 55.8 50 59 C52.5 64 49.6 73.6 49 79 C47 80 45 81 43 82 C42.3 83.6 41.7 85.3 41 87 C39.7 85.7 38.4 84.4 37 83 C30.9 83.6 30.9 83.6 26 87 C26 90 26 92.9 26 96 C20 93 20 93 18 91 C13.8 90.4 13.8 90.4 12 94 C8 93 8 93 4 89 C-3.2 89.6 -3.2 89.6 -7 91 C-7.3 88 -7.7 85.1 -8 82 C-10.5 79.1 -10.5 79.1 -18 80 C-18.7 77.7 -19.3 75.4 -20 73 C-23.3 72.3 -26.6 71.7 -30 71 C-29.7 67.7 -29.3 64.4 -29 61 C-32 60.3 -34.9 59.7 -38 59 C-37 55 -37 55 -34 49 C-33.3 41.8 -33.3 41.8 -38 37 C-37 32 -37 32 -32 24 C-32 21.4 -32 18.7 -32 16 C-30 15 -30 15 -24 15 C-16.4 11.6 -16.4 11.6 -14 4 C-10.7 5 -7.4 6 -4 7 C-3.7 5 -3.3 3 -3 1 C-2 0 -2 0 0 0 Z " fill="#1D1D1D" transform="translate(732,403)"/>
<path d="M0 0 C0 12 0 12 -8 16 C-11 19.3 -14 22.7 -17 26 C-42.7 49.3 -85.1 53.7 -118 59 C-120.3 59.4 -122.5 59.8 -124.9 60.2 C-135.6 61.4 -146.3 61.2 -157 61 C-157 60.3 -157 59.7 -157 59 C-153.7 58.8 -150.5 58.6 -147.1 58.4 C-109.6 55.2 -60.9 49.7 -28 30 C-34.9 31.7 -41.3 33.8 -48 36.1 C-94.1 51.5 -228.8 84.7 -261 31 C-261 15.3 -236 7.4 -223 4 C-216.3 3.4 -209.7 3.2 -203 3 C-206.2 6.2 -210.5 6.8 -214.8 8.2 C-229.6 13 -229.6 13 -242 22 C-231 44 -183.6 43.2 -162.4 43.2 C-160.4 43.2 -158.4 43.2 -156.3 43.2 C-119.5 43.3 -54.9 40.1 -30 9 C-38.9 6.8 -47.4 6.1 -56.5 5.4 C-59.8 5.1 -63 4.9 -66.4 4.6 C-68.9 4.4 -71.4 4.2 -74 4 C-77 1 -77 1 -77 -1 C-71 -2.7 -65.1 -3.9 -59 -5 C-64.4 -5.5 -64.4 -5.5 -70 -6 C-67.2 -11.6 -56.3 -9.2 -51.3 -9.2 C-47.3 -9.2 -47.3 -9.2 -43.2 -9.2 C-36 -9 -36 -9 -28 -7 C-38.8 -13.8 -49.6 -14.3 -62.2 -15.1 C-64.6 -15.3 -67 -15.5 -69.5 -15.6 C-71.3 -15.8 -73.1 -15.9 -75 -16 C-59.1 -31.9 -10.5 -14 0 0 Z " fill="#F8F8F7" transform="translate(2161,602)"/>
<path d="M0 0 C1.5 5.9 -1 9.2 -3.4 14.6 C-6.6 20.6 -6.6 20.6 -8 27 C-7 27.3 -6 27.7 -5 28 C-4.7 26.4 -4.3 24.7 -4 23 C0.4 12.6 0.4 12.6 4 9 C2.2 16.6 -0.3 23.1 -4 30 C-2.3 30.7 -0.7 31.3 1 32 C21.3 48.2 35.7 67.5 39 94 C37 92 37 92 34 86 C30.1 80 30.1 80 21 79 C20 77 20 77 20 70 C15.9 59.1 11.2 55.6 0 54 C-0.8 51.7 -0.8 51.7 -1.6 49.3 C-3.8 43.4 -3.8 43.4 -10 39 C-10.3 41 -10.7 43 -11 45 C-12.8 49 -14.8 53 -16.8 56.9 C-17.8 59 -18.8 61.1 -19.9 63.3 C-23 69 -23 69 -28 76 C-29 72 -29 72 -26 66.1 C-24.8 63.6 -23.5 61 -22.2 58.4 C-20.9 55.9 -19.7 53.4 -18.4 50.8 C-13 42.8 -13 42.8 -14 35 C-14.7 37 -14.7 37 -15.5 39.1 C-23.1 57.1 -23.1 57.1 -29 63 C-27.9 57.4 -25.9 52.8 -23.6 47.5 C-22.8 45.7 -22 43.8 -21.2 41.9 C-19 37 -19 37 -16 32 C-17.7 31.3 -19.3 30.7 -21 30 C-23 29.2 -25 28.3 -27.1 27.4 C-49 18.4 -74.9 24.5 -93 39 C-98.7 49 -97.6 57.8 -96 69 C-97.6 69.1 -99.2 69.1 -100.9 69.2 C-121.4 71.9 -125.9 87.5 -128 106 C-125.5 105.8 -125.5 105.8 -123 105.6 C-83.7 102.3 -83.7 102.3 -80 106 C-85.4 108.2 -89.8 108.6 -95.6 109.1 C-97.5 109.2 -99.4 109.4 -101.3 109.5 C-103.2 109.7 -105.1 109.8 -107 110 C-108.8 110.2 -110.7 110.4 -112.6 110.6 C-117.7 111 -122.9 111 -128 111 C-125.3 138.6 -118.7 155 -90 160 C-86.3 160.1 -82.7 160.1 -79 160 C-78.6 163 -78.6 163 -78.2 166.1 C-75.9 179.3 -68.7 185.8 -56 190 C-56 187.7 -56 185.4 -56 183 C-53.2 169 -53.2 169 -51 169 C-51 176.4 -51.7 182.8 -53 190 C-41.7 189.8 -33.8 188.8 -24 183 C-24.5 173.3 -27.4 164.3 -30 155 C-31.2 149.4 -32 144.7 -32 139 C-27.3 143.7 -26.2 147.3 -24 153.5 C-23.3 155.5 -22.6 157.4 -21.9 159.5 C-21.3 161.3 -20.6 163.1 -20 165 C-19.2 167.4 -18.3 169.8 -17.5 172.2 C-16 177 -16 177 -16 179 C-2.2 177.4 5.9 175.3 10 161 C11.7 160 13.3 158.9 15.1 157.9 C21.4 153.9 21.4 153.9 28 148 C31.6 158.9 6 176.9 -2 182 C-5.3 183.7 -8.6 185.4 -12 187 C-10 198.7 -6.3 209.9 -2.9 221.3 C-0.8 228.6 1.1 235.4 2 243 C-8.6 228.8 -13.2 207.8 -19 191 C-23.6 191.6 -28.1 192.2 -32.6 193 C-39.4 194.1 -46.1 194.5 -53 195 C-53.3 196.9 -53.5 198.8 -53.8 200.8 C-55.5 213.6 -57.2 226.4 -60 239 C-60.3 239 -60.7 239 -61 239 C-61.2 229.9 -60.5 221.1 -59.6 212.1 C-59.3 209.5 -59 207 -58.8 204.4 C-58 198 -58 198 -57 193 C-58.4 193 -59.9 193 -61.4 192.9 C-100 187.5 -125.7 155.6 -133 119 C-133 116.7 -133 114.4 -133 112 C-135.3 112.1 -137.7 112.3 -140.1 112.4 C-191.2 115.3 -191.2 115.3 -214 115 C-214 114.7 -214 114.3 -214 114 C-160.5 107 -160.5 107 -134 107 C-134 104.4 -134 101.7 -134 99 C-127.2 54.7 -94.3 18.2 -47.8 16.8 C-35.1 17.2 -22.5 19.2 -11 25 C-10.7 23 -10.3 21 -10 19 C-3.1 4.6 -3.1 4.6 0 0 Z " fill="#F2F2F1" transform="translate(1106,368)"/>
<path d="M0 0 C4 5 4 5 6 9 C11.3 7.7 15.3 4.8 20 2 C35.6 -3.2 51.1 6.3 59 19 C59.8 26.5 59.8 26.5 60 33 C64.5 35 64.5 35 69 37 C77.5 43.5 84.5 51 79 62 C78.3 62 77.7 62 77 62 C76.7 59 76.3 56.1 76 53 C72.5 46.8 69.5 43.6 64 39 C65.8 42.7 67.7 46.3 69.6 50 C75.4 62 75.9 71.3 69 83 C67.7 83.3 66.4 83.7 65 84 C65.3 80.1 65.3 80.1 65.7 76.1 C66.1 64.3 64.5 53 51.6 49.6 C49.3 49.3 49.3 49.3 47 49 C46.3 46.9 45.6 44.7 44.9 42.5 C39.4 28.3 31.6 22.6 16 24 C10 26.3 10 26.3 5 29 C4 28.7 3 28.3 2 28 C3 26.5 3 26.5 4 25 C2.2 16.1 -6.1 14.1 -14.4 13.6 C-19.8 13.8 -19.8 13.8 -24 15 C-22.2 19.1 -22.2 19.1 -19 22 C-19 23 -19 24 -19 25 C-23 24 -23 24 -28 21 C-43 17.2 -58.3 21.9 -69 33 C-69.7 33 -70.3 33 -71 33 C-69.8 24.8 -66.6 20.8 -62 14 C-81 8.8 -94.9 11.8 -104 30 C-105.8 36.2 -106.5 41.6 -107 48 C-110.3 48 -113.6 48 -117 48 C-132.4 56.7 -134.2 68.5 -135 85 C-138 83 -138 83 -142 67 C-143 70 -144 72.9 -145 76 C-145.7 76 -146.3 76 -147 76 C-147.4 58.3 -145.9 48.1 -130 39 C-124.1 38.2 -124.1 38.2 -119 38 C-119 36.4 -118.9 34.9 -118.9 33.2 C-115.9 12.1 -99.8 -0.3 -79.1 -1.4 C-69.5 -0.9 -63.2 1.1 -55 6 C-49.2 6.6 -49.2 6.6 -46 4 C-38 4 -38 4 -37 5 C-31.5 5.7 -31.5 5.7 -28 0 C-17.4 -6 -10.8 -5.4 0 0 Z " fill="#FAFAF9" transform="translate(1180,862)"/>
<path d="M0 0 C-6 13.5 -14.8 23.4 -26 33 C-26.3 33.7 -26.7 34.3 -27 35 C-24.6 35.3 -22.2 35.5 -19.7 35.8 C-12.8 36.8 -6.6 38 0 40 C0 40.3 0 40.7 0 41 C-1.8 40.9 -3.6 40.7 -5.4 40.6 C-17.3 39.7 -29.1 38.8 -41 38 C-39.2 43 -39.2 43 -31.4 43.3 C-23 45 -23 45 -16 48 C-22.7 49.7 -29.4 47.7 -36.2 46.6 C-46.6 45.5 -55.8 47.2 -65.9 49.8 C-75.5 52.2 -85 54.2 -94.7 56 C-102.5 57.5 -110.2 59.1 -117.9 60.9 C-121.8 61.7 -125.8 62.4 -129.8 63.1 C-137.3 65.9 -140.9 70.8 -146 77 C-149.9 81.5 -153.8 85.8 -158 90 C-155.3 83.3 -151.2 77.9 -147 72 C-145.7 70 -144.4 68 -143 66 C-144.4 66.2 -145.8 66.4 -147.3 66.6 C-149.1 66.9 -151 67.2 -152.9 67.4 C-154.8 67.7 -156.6 68 -158.5 68.2 C-224.6 77.3 -224.6 77.3 -242 57 C-237.6 30.7 -194 14.2 -172 6 C-171.3 5.3 -170.7 4.7 -170 4 C-167.7 4 -165.4 4 -163 4 C-163.3 5 -163.7 6 -164 7 C-161 6.3 -158.1 5.7 -155 5 C-153.7 5.3 -152.4 5.7 -151 6 C-166.9 13.6 -166.9 13.6 -173 15.9 C-186.7 21.6 -213.2 33.6 -217 49 C-174.9 80.6 -95.9 55.4 -53.4 36.4 C-48.5 34.2 -43.5 32.1 -38.5 30.1 C-24.1 24.1 -15.6 16.1 -6 4 C-2 -1 -2 -1 0 0 Z " fill="#F0F0EF" transform="translate(319,645)"/>
<path d="M0 0 C6.2 8.3 6.2 8.3 5 13 C2.5 13.4 0 13.7 -2.5 14.1 C-20.7 17.8 -35.1 23.5 -40 43 C-39.9 44.9 -39.8 46.9 -39.6 48.9 C-40 56 -40 56 -43.5 62.9 C-50.3 76.7 -46.6 87.9 -42 102 C-41.7 103.6 -41.3 105.3 -41 107 C-54.3 105.5 -54.3 105.5 -60 97 C-60.2 90.1 -60.2 90.1 -60 84 C-61.7 82.5 -63.5 81 -65.2 79.5 C-77.7 67.6 -78.5 56.5 -70 42 C-63.4 34.4 -57.6 29 -47 29 C-47.3 27.5 -47.5 26 -47.8 24.5 C-48.1 14.8 -42.5 10 -35 5 C-32 5.3 -29.1 5.7 -26 6 C-22.5 4 -22.5 4 -20 -1 C-13.2 -5.5 -7 -2.6 0 0 Z " fill="#FBFBFB" transform="translate(1370,416)"/>
<path d="M0 0 C0.3 0 0.7 0 1 0 C2.3 15.1 3.3 30.2 3.8 45.4 C4.1 52.4 4.6 52.6 10 58 C15.6 57.3 15.6 57.3 21 52 C31.5 46.7 42.9 50.1 51.1 57.9 C54 62 54 62 55 68 C57 67.9 59 67.8 61.1 67.8 C69.6 68.1 72.6 69.7 77 77 C78.3 88.7 78.3 88.7 76 91 C71 85 71 85 71 83 C70 83 69 83 68 83 C68.7 84.7 69.3 86.3 70 88 C70 91 70 93.9 70 97 C66 96 66 96 62 89 C53.9 82.3 50.4 82.9 40 83 C39.8 81.5 39.5 79.9 39.3 78.3 C37.4 70.5 35.2 68 27 68 C25.3 69.3 23.7 70.6 22 72 C21.3 72 20.7 72 20 72 C20 70.3 20 68.7 20 67 C16 70.8 16 70.8 13 75 C9 74 9 74 6 69 C-4.3 64.6 -7 66 -13 75 C-17 73 -17 73 -23 69 C-39.4 67.5 -49 76.9 -54 92 C-56 92 -56 92 -58 87 C-58.9 72.2 -55 66.3 -41 61 C-40.3 59.3 -39.7 57.7 -39 56 C-30.2 47.6 -24.9 45.9 -13 51 C-12.3 51.7 -11.7 52.3 -11 53 C0.3 50.2 -0.9 45.3 -0.7 34.7 C-0.6 31.6 -0.6 31.6 -0.6 28.6 C-0.5 26.5 -0.5 24.4 -0.4 22.2 C-0.4 19 -0.4 19 -0.3 15.8 C-0.2 10.5 -0.1 5.3 0 0 Z " fill="#F9F9F8" transform="translate(1632,18)"/>
<path d="M0 0 C1 4 1 4 -1 13 C-3.3 27.1 -4.5 40.8 -5 55 C0.8 51.7 5.8 48.2 11 44 C11.7 44.3 12.3 44.7 13 45 C10.7 47.3 8.4 49.6 6 52 C5.5 53 5.5 53 5 54 C12.2 52.6 17.7 48.7 24 45 C31 41 31 41 33 42 C9.5 60.2 9.5 60.2 4 62 C4.7 69.3 4.7 69.3 20 71 C20 71.3 20 71.7 20 72 C15.4 72.3 10.8 72.7 6 73 C5.4 77.5 5.4 77.5 10.3 79.7 C12.2 80.8 14.1 82 16 83.2 C17.9 84.3 19.7 85.5 21.6 86.7 C26.1 89.4 30.5 92.2 35 95 C32 96 32 96 27.5 93.7 C25.5 92.7 23.5 91.7 21.5 90.7 C18.6 89.2 18.6 89.2 15.6 87.7 C9.7 84.7 9.7 84.7 2 82 C6.6 90.8 6.6 90.8 12 99 C11.7 99.7 11.3 100.3 11 101 C1.1 90.2 1.1 90.2 0 88 C-0.7 88 -1.3 88 -2 88 C-0.9 97 0.9 105.8 5 114 C4.5 115.5 4.5 115.5 4 117 C-0.6 108.4 -5.2 99.8 -10 91 C-21.2 94.7 -26.7 124 -30 134 C-30.3 134 -30.7 134 -31 134 C-30.3 126.1 -29 118.4 -27.5 110.6 C-26.8 107.1 -26.8 107.1 -26.2 103.6 C-25 98 -25 98 -24 95 C-24 91.3 -24 87.7 -24 84 C-36.4 85.8 -45.1 90.3 -53 100 C-61 106 -61 106 -63 105 C-61.5 103.7 -60 102.4 -58.4 101 C-53.2 96.4 -53.2 96.4 -49.7 92.1 C-44.7 86.6 -38.9 82.4 -33 78 C-33 77.3 -33 76.7 -33 76 C-37.6 76 -42.2 76 -47 76 C-44.4 70.7 -35.8 72.1 -30 71 C-29.5 69.5 -29.5 69.5 -29 68 C-43.5 66.7 -58 65.4 -73 64 C-73 63.7 -73 63.3 -73 63 C-69.3 62.9 -69.3 62.9 -65.4 62.8 C-60.6 62.7 -60.6 62.7 -55.6 62.6 C-52.3 62.5 -49.1 62.4 -45.8 62.3 C-36.9 62.1 -36.9 62.1 -28 61 C-30 55 -32.1 51.8 -35.9 46.9 C-39 42.9 -42 39 -45 35 C-41 37 -41 37 -34.2 41.9 C-27.2 47.1 -27.2 47.1 -20 51 C-20.5 47.5 -20.5 47.5 -21 44 C-21.7 39.3 -22.3 34.7 -23 30 C-18.7 32.1 -16 44.4 -16 49 C-12.1 46.9 -12.1 46.9 -11.2 39.8 C-10.4 36.6 -9.6 33.5 -8.8 30.2 C-8 27.1 -7.2 24 -6.4 20.8 C-4.5 13.8 -2.4 6.9 0 0 Z " fill="#EAEAE9" transform="translate(564,824)"/>
<path d="M0 0 C3.2 0 6.5 0 9.8 0 C13.5 0 13.5 0 17.3 0.1 C17.3 0.4 17.3 0.7 17.3 1.1 C14.1 1.4 14.1 1.4 10.9 1.7 C8.1 2 5.3 2.2 2.5 2.5 C-1.6 2.9 -1.6 2.9 -5.8 3.3 C-12.1 3.8 -12.1 3.8 -15.7 5.1 C-12.8 5.3 -9.9 5.5 -6.9 5.7 C57.9 10.8 57.9 10.8 70.3 17.1 C56.7 16.1 56.7 16.1 51.2 15.6 C35.1 14.1 19.2 13.9 3.1 13.9 C0.9 13.9 -1.3 13.9 -3.5 13.9 C-70.1 14.1 -136 30.2 -197.7 55.1 C-198.3 54.7 -199 54.4 -199.7 54.1 C-160.4 15.5 -81.7 6.9 -29.7 1.1 C-27.2 0.8 -27.2 0.8 -24.7 0.5 C-16.5 -0.1 -8.3 -0 0 0 Z " fill="#F3F3F3" transform="translate(383.6875,341.9375)"/>
<path d="M0 0 C4.2 9.4 11.2 14.4 21.4 14.4 C22.4 13.7 23.4 13.1 24.4 12.4 C25.4 12.4 26.4 12.4 27.4 12.4 C27.9 30.9 27.9 30.9 23.4 35.4 C16.4 34.4 16.4 34.4 9.4 28.4 C8.4 28 7.5 27.7 6.4 27.4 C4.9 40.1 6.6 44.1 19.4 48.4 C23.1 48.5 26.8 48.5 30.4 48.4 C29.4 55.4 29.4 55.4 25.4 61.4 C17.7 60.3 14 58.6 10.4 51.4 C7.2 51.5 7.2 51.5 3.8 51.6 C-6.5 51.3 -14.9 47 -17.6 36.4 C-17.6 34.1 -17.6 31.8 -17.6 29.4 C-18.6 29.9 -18.6 29.9 -19.6 30.4 C-35.9 30.4 -35.9 30.4 -37.6 25.4 C-36.2 24.1 -34.9 22.7 -33.6 21.4 C-31.6 18.7 -29.6 15.9 -27.7 13.1 C-23.1 6.6 -5.7 -16.7 0 0 Z " fill="#202020" transform="translate(1606.5625,252.625)"/>
<path d="M0 0 C-0.9 1.9 -1.9 3.9 -2.8 5.9 C-9.9 20.8 -9.9 20.8 -7 36 C-6.9 37.8 -6.8 39.5 -6.7 41.3 C-4.9 59.1 3.7 72.5 18 83 C19 84 20 85 21 86 C10.1 82.9 3.1 76.6 -4 68 C-4.7 67.7 -5.3 67.3 -6 67 C4.2 89.9 18.9 93.8 42 95 C38.6 115.2 38.6 115.2 35 117 C36 108 36 108 38 100 C32.8 102 32.8 102 31.3 111.1 C23.9 136 23.9 136 22 136 C22.6 125.2 24.9 114.6 27 104 C26 104.3 25 104.7 24 105 C6.2 105.9 -8 100 -14 82 C-14.1 78.3 -14.1 74.7 -14 71 C-15.3 69.7 -16.6 68.4 -17.9 67 C-23.4 60.3 -23.7 56.2 -21 48 C-20.4 41.6 -20.4 41.6 -25 36 C-25.7 27.3 -13.7 -6.9 0 0 Z " fill="#F7F7F6" transform="translate(1992,839)"/>
<path d="M0 0 C1.7 -0.7 3.3 -1.3 5 -2 C16.9 -2.6 26 -3 32 9 C34 8.3 36 7.7 38 7 C52.1 6.1 58.4 10.8 64 24 C63.7 29.4 63.7 29.4 63 34 C60 34 60 34 56 25 C52.3 18.9 52.3 18.9 47 15 C44.3 16 44.3 16 45 21 C37 26 37 26 33 25 C28 15.2 28 15.2 28 13 C26.7 12.3 25.4 11.7 24 11 C22 10 20 9 18 8 C9.6 7.3 9.6 7.3 2 13 C-2 12 -2 12 -6 7 C-13.8 6.1 -13.8 6.1 -17 10 C-16.3 16.7 -16.3 16.7 -11 24 C-11 25 -11 26 -11 27 C-15 26 -15 26 -21 23 C-28.3 23.3 -28.3 23.3 -33 29 C-35 31 -35 31 -39 31 C-38 25 -38 25 -34 17 C-34 12.9 -39.8 11.6 -43 10 C-54 10 -57.1 12.2 -62 22 C-62.4 26 -62.8 30 -63 34 C-69.5 29.7 -68 23.2 -68 16 C-61.3 2.6 -52.6 -1.2 -38 2.5 C-36.3 3 -34.7 3.5 -33 4 C-32.1 2.4 -31.3 0.8 -30.4 -0.8 C-22.3 -13.2 -8.2 -11 0 0 Z " fill="#F8F8F7" transform="translate(1153,906)"/>
<path d="M0 0 C11.3 2.3 14.7 10 19 20 C20.7 21 22.3 22 24 23 C31.4 32.9 29.5 39.2 23 49 C23.5 53.5 23.5 53.5 24 58 C21.6 64.1 21.6 64.1 19 69 C22.2 66.1 22.2 66.1 24 62 C24.7 62 25.3 62 26 62 C24.3 74 17.7 78.2 7 83 C4.7 83 2.4 83 0 83 C-1.3 86 -2.6 88.9 -4 92 C-15.4 97.1 -20.4 97.3 -32 93 C-27 88 -27 88 -21.8 84.2 C1.4 67.1 16 34 4 6 C2.7 4 1.4 2 0 0 Z " fill="#FAFAF9" transform="translate(1461,471)"/>
<path d="M0 0 C1 0 1 0 2 5 C2.3 9.7 2.7 14.3 3 19 C3.5 21.5 3.5 21.5 4 24 C4.4 29.3 4.7 34.7 5 40 C12 39.4 12 39.4 13 26 C13.3 26 13.7 26 14 26 C14.5 32.9 14.5 32.9 15 40 C17.3 41 19.6 42 22 43 C27.4 48 32.2 53.4 37 59 C39.3 61.3 45.9 60.7 49 61 C50.5 61.5 50.5 61.5 52 62 C53.7 62 55.3 62 57 62 C57.3 63 57.7 64 58 65 C56 65 54 65 52 65 C51.7 67.6 51.7 67.6 56 69 C56 71 56 73 56 75 C51 73 51 73 48 70 C43.7 69.7 39.4 69.3 35 69 C33 66.4 31 63.7 29 61 C20.1 54.5 11.8 54.1 2 59 C1.3 59.7 0.7 60.3 0 61 C-5 61 -5 61 -10 58 C-24.2 54.5 -33.4 59.7 -43 70 C-44.9 62.3 -39.2 56.2 -34 51 C-34.9 43.3 -36.2 37.7 -38.8 30.5 C-39.5 28.6 -40.2 26.6 -40.9 24.6 C-42.8 19.7 -44.9 14.8 -47 10 C-46.7 9.3 -46.3 8.7 -46 8 C-42 13.1 -39.5 17.8 -36.7 23.6 C-26.6 45.4 -26.6 45.4 -4 46 C-0.8 36.4 -0.4 27.9 -0.3 17.9 C-0.3 16.2 -0.2 14.5 -0.2 12.7 C-0.1 8.5 -0.1 4.2 0 0 Z " fill="#F6F6F5" transform="translate(2044,747)"/>
<path d="M0 0 C14.4 0 21.2 5.5 27 19 C27.8 32 26.4 38.6 17 48 C16.7 49.3 16.3 50.6 16 52 C17.7 52.4 19.5 52.8 21.3 53.3 C27.5 54.9 33.6 56.6 39.8 58.4 C49.1 61.2 58.5 63.7 68 66 C68 66.3 68 66.7 68 67 C58 66.3 48.3 64.1 38.6 61.9 C24.3 56.8 24.3 56.8 14.1 63.3 C2.4 82.6 -5.9 88.2 -28 88 C-28 85 -28 85 -22.6 83.4 C-7.4 77.9 -0.8 70.9 1.9 54.7 C3 49 3 49 7 40 C11.1 25.6 8.7 14.2 0 2 C0 1.3 0 0.7 0 0 Z " fill="#F8F8F7" transform="translate(2105,849)"/>
<path d="M0 0 C4.6 0 9.2 0 14 0 C23.8 9.8 23.1 19.2 16 31 C13 30 13 30 10.8 25.3 C2.9 10.4 -10.7 6.7 -26.5 10.6 C-36.9 14.4 -43.4 20 -51 28 C-51.3 28 -51.7 28 -52 28 C-52 -0.2 -22.8 -24.8 0 0 Z " fill="#FAFAFA" transform="translate(1410,465)"/>
<path d="M0 0 C4.5 11.1 6 21.2 7 33 C3 32 3 32 2.3 27.1 C1.9 25 1.6 22.8 1.2 20.6 C0.9 18.5 0.6 16.4 0.3 14.2 C-3 -2 -9.2 -9.6 -26 -12 C-28.5 -14.5 -28.2 -18.6 -29 -22 C-50.6 -40.5 -81.7 -38.8 -104 -22 C-111.7 -14.3 -114 -10.7 -114 0 C-113 1.3 -112 2.6 -111 4 C-111 7 -111 7 -120 11 C-126.1 18.3 -128.7 24.8 -131 34 C-137.5 32.4 -135.2 28.2 -135 22 C-123.4 -49.9 -34.6 -59.6 0 0 Z " fill="#F5F5F4" transform="translate(306,915)"/>
<path d="M0 0 C3.8 11.2 10.1 30.4 3 41 C2.4 39.1 1.8 37.3 1.2 35.4 C-1.4 28 -3.8 23.9 -10 19 C-9.7 17.3 -9.3 15.7 -9 14 C-9 -1.3 -15 -16 -29 -23 C-36.8 -23.4 -36.8 -23.4 -43 -21 C-44 -24 -45 -26.9 -46 -30 C-60.5 -48.1 -84.8 -41 -103 -33 C-103.7 -33.3 -104.3 -33.7 -105 -34 C-66.9 -60.4 -18 -40.2 0 0 Z " fill="#F6F5F4" transform="translate(813,137)"/>
<path d="M0 0 C2.3 11.1 1.7 21 -1.8 31.8 C-2.8 27.8 -2.8 27.8 -2.6 22.5 C-3.3 -2.2 -17 -21.4 -40.8 -28.2 C-55.5 -28.9 -64.7 -26.5 -69.8 -11.2 C-71.5 -12.2 -73.1 -13.2 -74.8 -14.2 C-85 -19.3 -90.8 -13.2 -97.8 -6.2 C-81.3 -55.7 -15 -42.8 0 0 Z " fill="#F5F5F4" transform="translate(832.8125,869.1875)"/>
<path d="M0 0 C0.4 1.9 0.7 3.9 1.1 5.9 C4.3 17.8 8.9 24.3 21.2 27.2 C27.6 29.2 31.6 32.2 37 36 C44.1 37.8 49.3 38.2 56.5 38.1 C58.5 38.1 60.4 38.1 62.5 38.1 C64 38 65.5 38 67 38 C64.7 49.5 61.8 50.1 51.1 50.3 C49.1 50.4 47.1 50.4 45 50.5 C35.7 49.7 30.6 46.6 24 40 C21.4 40 18.7 40 16 40 C2.4 34 -8 26.8 -8 11 C-4 0 -4 0 0 0 Z " fill="#F9F9F8" transform="translate(1336,536)"/>
<path d="M0 0 C3.7 3.7 3.8 9.3 4.8 14.2 C6.8 23.3 8.8 32.3 10.9 41.3 C13 51 13 51 13 57 C10.1 57.4 7.1 57.8 4.1 58.2 C-3.1 59.4 -9.3 60.8 -16 64 C-28.9 70 -28.9 70 -31 70 C-30 72.3 -30 72.3 -29 74.7 C-27 80 -27 80 -27 85 C-36 77.8 -36 77.8 -36 73 C-36.7 73 -37.3 73 -38 73 C-38 73.7 -38 74.3 -38 75 C-39.5 76.1 -40.9 77.3 -42.4 78.4 C-65.9 97.7 -75.2 120.6 -79 150 C-80.3 150 -81.6 150 -83 150 C-83 141 -83 141 -82 134 C-83.7 133.7 -85.3 133.3 -87 133 C-98.8 127.5 -98.8 127.5 -100 125 C-98.6 125.3 -97.1 125.6 -95.6 125.9 C-92.8 126.4 -92.8 126.4 -90 127 C-85 128 -85 128 -80 129 C-79.7 126.7 -79.3 124.4 -79 122 C-74.1 109.1 -67.2 99 -59 88 C-61.9 80.9 -66.5 75.2 -71 69 C-68 69 -68 69 -62.3 74.4 C-56.7 80.3 -56.7 80.3 -51 81 C-48.3 78.8 -48.3 78.8 -45.6 76.5 C-40 72 -40 72 -38 72 C-40.8 67.8 -43.7 63.6 -46.7 59.4 C-61.1 39.2 -61.1 39.2 -60 37 C-51 46.8 -43 57.4 -35 68 C-29.5 67.1 -29.5 67.1 -23.1 63.7 C-13.2 59.2 -3.7 56.5 7 55 C6.5 52 6.5 52 6 49 C4.9 41.7 3.9 34.3 2.9 26.9 C2.5 23.9 2.5 23.9 2.1 20.8 C0 5.6 0 5.6 0 0 Z " fill="#E9E9E6" transform="translate(222,798)"/>
<path d="M0 0 C3 3 3 3 7 9 C15.1 15.7 20.2 15.3 30 12 C32 15 32 15 34 18 C42.3 21.3 48 20.4 56 17 C57.3 17.3 58.6 17.7 60 18 C53.2 32.7 48.3 38.8 32 38 C21 32.5 21 32.5 21 27 C19.3 27.1 17.7 27.2 15.9 27.2 C4.2 26.8 2.5 22.3 0 12 C-0.1 8 -0.1 4 0 0 Z " fill="#F9F9F8" transform="translate(1360,512)"/>
<path d="M0 0 C-6 13.5 -14.8 23.4 -26 33 C-26.5 34 -26.5 34 -27 35 C-24.6 35.3 -22.2 35.5 -19.7 35.8 C-12.8 36.8 -6.6 38 0 40 C0 40.3 0 40.7 0 41 C-1.8 40.9 -3.6 40.7 -5.4 40.6 C-17.3 39.7 -29.1 38.8 -41 38 C-39.2 43 -39.2 43 -31.4 43.3 C-23 45 -23 45 -16 48 C-22.7 49.7 -29.4 47.7 -36.2 46.6 C-46.6 45.5 -55.8 47.2 -65.9 49.8 C-77.2 52.6 -88.5 54.9 -100 57 C-102.2 57.4 -104.5 57.8 -106.8 58.2 C-108.2 58.5 -109.6 58.7 -111 59 C-111.5 57.5 -111.5 57.5 -112 56 C-109.1 55.3 -106.3 54.6 -103.3 53.9 C-86 49.6 -69.8 43.7 -53.5 36.4 C-48.5 34.2 -43.5 32.2 -38.5 30.1 C-24.1 24.1 -15.6 16.1 -6 4 C-2 -1 -2 -1 0 0 Z " fill="#808284" transform="translate(319,645)"/>
<path d="M0 0 C-1.8 1.9 -3.7 3.9 -5.6 5.9 C-14 15.2 -21.9 24.3 -24 37 C-15.2 44 -8.1 42.2 3 41 C1 43 1 43 -6.6 46.6 C-13.6 50.3 -18.5 53.5 -24 59 C-25 59 -25 59 -26.6 53.1 C-32 37.1 -42 25.4 -58 19 C-57 17 -57 17 -52 16.2 C-45.3 14.9 -39.9 12.9 -35 8 C-34.3 8.3 -33.7 8.7 -33 9 C-34.3 11.3 -35.6 13.6 -37 16 C-37.3 18.3 -37.7 20.6 -38 23 C-31.8 20.3 -4.7 -2.3 0 0 Z " fill="#F7F7F5" transform="translate(864,813)"/>
<path d="M0 0 C3.3 3.3 3.3 7.8 4.1 12.3 C4.5 14.2 4.8 16.1 5.2 18 C6 23 6 23 6 28 C7.9 27.2 9.8 26.4 11.7 25.5 C18 23 18 23 23 23 C15 31 15 31 9 31 C10.3 34.6 11.6 38.3 13 42 C22.2 36.9 22.2 36.9 31 31 C31.7 31.3 32.3 31.7 33 32 C27.9 37.1 22.5 41.8 16 45 C20.1 65.4 42 82.6 58 94 C47.7 99.2 26.3 75 20.5 67.4 C16.4 61.1 12.7 54.6 9 48 C2.7 51 -3.5 53.9 -10 57 C-11 56.5 -11 56.5 -12 56 C2.4 47.1 2.4 47.1 8 46 C7.3 44.4 6.7 42.8 6 41.1 C4 36 4 36 4 34 C-2.6 36.6 -9.2 39.1 -15.8 41.7 C-17.6 42.4 -19.5 43.1 -21.4 43.9 C-30.6 47.5 -39.9 51.1 -49 55 C-50 54.7 -51 54.3 -52 54 C-40.5 48 -28.7 42.9 -16.7 37.9 C-3.5 34 -3.5 34 0.6 23.9 C-1.1 1.1 -1.1 1.1 0 0 Z " fill="#EBEBEA" transform="translate(940,486)"/>
<path d="M0 0 C1 3 1 3 0.1 7.7 C-3.3 30.8 -2.4 51.4 18 66 C24.8 67.4 24.8 67.4 31 68 C30.9 70.5 30.9 70.5 30.8 73.1 C31.2 84 34.9 87.1 44 92 C47.5 93.9 47.5 93.9 51.1 95.9 C54 97.4 54 97.4 57 99 C57 99.3 57 99.7 57 100 C23.4 95.8 -1.2 70.3 -6 37 C-6.4 23.4 -5.4 12.5 0 0 Z " fill="#F3F3F1" transform="translate(680,135)"/>
<path d="M0 0 C-11.8 7.2 -23.6 14.4 -35.5 21.3 C-37.5 22.5 -39.5 23.6 -41.5 24.8 C-43.3 25.9 -45.1 26.9 -47 28 C-78 46.1 -105.9 68.7 -131.2 94.1 C-132.9 95.7 -134.6 97.4 -136.3 99.2 C-142.9 105.9 -148.9 113.1 -154.9 120.4 C-156.2 121.9 -157.4 123.3 -158.6 124.9 C-161.3 128.1 -163.9 131.4 -166.6 134.8 C-170 139 -170 139 -175 144 C-168.4 127.5 -153.9 112.9 -142 100 C-140.9 98.8 -139.9 97.6 -138.8 96.3 C-128.2 84.3 -116.7 72.8 -104 63 C-101.7 61 -99.4 59 -97 57 C-14.4 -7.2 -14.4 -7.2 0 0 Z " fill="#E5E5E4" transform="translate(2156,61)"/>
<path d="M0 0 C3.3 1.4 6.6 2.7 10 4 C15 9 15 9 17.4 13.4 C20.1 18.8 20.1 18.8 27 24 C31 32 31 32 31 36 C29 36 29 36 24 28 C20.7 25 17.4 22 14 19 C12.7 17 11.4 15 10 13 C2.2 8.3 -4 8.9 -13 9 C-13.5 7.5 -14 6 -14.5 4.4 C-19.4 -6.2 -24.8 -8.7 -36 -8 C-41.4 -5.3 -41.4 -5.3 -46 -2 C-48 -1 -48 -1 -50 0 C-39.6 -26.1 -13.5 -20.2 0 0 Z " fill="#F6F5F4" transform="translate(1446,415)"/>
<path d="M0 0 C0.5 4 0.5 4 1 8 C-4.1 5.1 -9.1 2.1 -14 -1 C-21.1 -2 -23 -2 -28 3 C-28 4 -28 5 -28 6 C-26.5 6.2 -24.9 6.5 -23.3 6.7 C-14.3 8.9 -13.1 11.9 -12 21 C-16 20 -16 20 -20 16 C-26.5 13.8 -32.8 14.5 -39 17 C-40 17 -41 17 -42 17 C-40 13 -40 13 -36 9 C-39.1 1.3 -41.8 1 -50 1 C-56.7 4.4 -56.7 4.4 -60 8 C-60.7 8 -61.3 8 -62 8 C-51.4 -18.5 -18.7 -14.1 0 0 Z " fill="#F6F6F5" transform="translate(2080,835)"/>
<path d="M0 0 C0.1 1.5 0.2 3.1 0.2 4.6 C1.2 11.3 2.8 14.9 9 18 C12.3 17.8 15.7 17.4 19 17 C20 18 21 19 22 20 C36.1 24 43.2 10.9 50 0 C50.7 0 51.3 0 52 0 C52 14.6 47.2 24.1 34 30 C27.9 30.5 27.9 30.5 21.3 30.4 C19.1 30.4 17 30.4 14.7 30.4 C3.4 29.6 -2.1 24.4 -6 14 C-6 0 -6 0 0 0 Z " fill="#F6F6F4" transform="translate(2026,876)"/>
<path d="M0 0 C0.1 1.8 0.2 3.7 0.2 5.6 C1.7 20.4 5.3 33.3 16 44 C16 44.7 16 45.3 16 46 C17.3 46.7 18.6 47.3 20 48 C21.7 49.1 23.4 50.2 25.1 51.4 C43.2 62.5 61.5 63.7 81 55 C82.6 54.3 84.3 53.7 86 53 C68.1 70.9 40.6 71.5 20 58 C14.4 53.4 -18.1 0 0 0 Z " fill="#F6F6F5" transform="translate(730,876)"/>
<path d="M0 0 C-12.8 8.5 -35.2 8.1 -50 9.9 C-52.7 10.3 -55.4 10.6 -58.2 11 C-63.6 11.7 -69 12.4 -74.4 13 C-81.1 13.9 -87.7 14.8 -94.3 15.6 C-113.6 18.1 -132.5 19.7 -152 19 C-152 18.7 -152 18.3 -152 18 C-158.9 17.7 -165.9 17.3 -173 17 C-173 16.7 -173 16.3 -173 16 C-168.2 15.9 -168.2 15.9 -163.3 15.9 C-159 15.8 -154.7 15.8 -150.4 15.7 C-148.3 15.7 -146.2 15.6 -144.1 15.6 C-124.3 15.3 -105.3 12.7 -85.8 9.1 C-57.7 4.2 -28.6 0 0 0 Z " fill="#DCDCDA" transform="translate(523,214)"/>
<path d="M0 0 C0 2.4 -17.7 4.2 -20.1 4.6 C-29.2 6.2 -38.4 7.6 -47.5 8.9 C-69.2 12.1 -90.8 15.4 -112.3 19.1 C-219.1 37 -219.1 37 -248 37 C-242.4 33.3 -235.2 33.5 -228.7 32.6 C-225.4 32.2 -222.1 31.7 -218.8 31.3 C-212.9 30.5 -206.9 29.7 -201 29 C-185.8 27 -170.6 24.7 -155.5 22.2 C-148.7 21.1 -142 20.1 -135.2 19.1 C-123.5 17.4 -111.8 15.5 -100.1 13.6 C-83.6 10.9 -67.2 8.4 -50.7 6.2 C-38.8 4.6 -26.9 2.7 -15 0.9 C-8 0 -8 0 0 0 Z " fill="#2F2D2E" transform="translate(894,694)"/>
<path d="M0 0 C6.7 1.3 13.3 1.1 20.1 1 C20.1 1.3 20.1 1.7 20.1 2 C27.1 2.5 27.1 2.5 34.1 3 C27.3 6.4 19.6 6.8 12.1 8 C12.8 13.6 12.8 13.6 23.1 13 C23.1 13.3 23.1 13.7 23.1 14 C10 14.1 -3 13.9 -15.9 11 C-21.2 10 -26.5 9 -31.9 8 C-28.9 -3.7 -9.3 -1.9 0 0 Z " fill="#5E5F63" transform="translate(2071.875,593)"/>
<path d="M0 0 C2.5 1 2.5 1 5 2 C21.9 8.7 39.1 10.3 57.1 11.6 C58.8 11.8 60.5 11.9 62.3 12 C73.7 12.8 85.2 13.4 96.7 13.8 C104.2 14.1 111.6 15 119 16 C102 33 26.1 16.2 6 7 C0 2 0 2 0 0 Z " fill="#EAEBE9" transform="translate(95,126)"/>
<path d="M0 0 C9 9 9 9 9 15 C19.3 12.7 24.3 10.1 31 2 C33.7 10 25.5 15.7 20 20 C19 20.3 18 20.7 17 21 C17.4 22.6 17.9 24.1 18.3 25.8 C18.9 27.8 19.4 29.9 20 32 C20.6 33.9 21.1 35.8 21.7 37.8 C25.4 55.4 25.4 55.4 21 62 C20.1 59.7 19.3 57.3 18.4 54.9 C16.2 49.3 14 43.6 11.7 38.1 C9 31 9 31 8 22 C3.5 21 3.5 21 -1 20 C-3 19 -3 19 -3 17 C-0 16.7 2.9 16.3 6 16 C5 14.1 4 12.2 3 10.2 C0 4 0 4 0 0 Z " fill="#C0C1C0" transform="translate(2052,912)"/>
<path d="M0 0 C3 -0 6 -0 9.1 -0 C25.5 0.4 25.5 0.4 27.1 5.2 C19.2 7.2 12.7 7.5 4.6 7.6 C-17.1 8.2 -38.4 10.5 -59.9 13.2 C-61.5 13.2 -63.2 13.2 -64.9 13.2 C-58.3 0.1 -12.7 0 0 0 Z " fill="#D8D7D7" transform="translate(263.875,626.8125)"/>
<path d="M0 0 C0.5 9.4 0.5 9.4 1 19 C2.3 19.7 3.6 20.3 5 21 C4 24 4 24 1 24 C1 26 1 28 1 30 C-0.3 30.3 -1.6 30.7 -3 31 C-2.7 28.4 -2.3 25.7 -2 23 C-4.2 23 -6.5 23.1 -8.8 23.1 C-16 23 -16 23 -20 21 C-20.7 23.3 -21.3 25.6 -22 28 C-26 31 -26 31 -35 31 C-40 26 -40 26 -39 22 C-37.3 23.7 -35.7 25.3 -34 27 C-26.6 28 -26.6 28 -24 22 C-24.7 17 -24.7 17 -32 15 C-32 14 -32 13 -32 12 C-30 11.7 -28 11.3 -26 11 C-25 4.3 -25 4.3 -31 4 C-35.9 6.7 -35.9 6.7 -39 10 C-38 4 -38 4 -34 1 C-24 1 -24 1 -22 4 C-21.9 8.3 -21.9 12.7 -22 17 C-15.9 19 -15.9 19 -11.1 10.1 C-3.6 0 -3.6 0 0 0 Z " fill="#3F3F3F" transform="translate(1339,1068)"/>
<path d="M0 0 C3 1 3 1 4 8 C8 8.3 11.9 8.7 16 9 C16 6 16 3.1 16 0 C19 1 19 1 20 8 C22 8.3 24 8.7 26 9 C26 10 26 11 26 12 C23.7 12 21.4 12 19 12 C17.6 27.4 17.6 27.4 25 28 C25 29 25 30 25 31 C17 31 17 31 15 27 C14.9 21.7 14.9 16.3 15 11 C9.1 11.5 9.1 11.5 3 12 C3.5 19.9 3.5 19.9 4 28 C6 28 8 28 10 28 C10 29 10 30 10 31 C3 32 3 32 0 29 C-0.9 22.8 -1.1 17.2 -1 11 C-3.3 11 -5.6 11 -8 11 C-8 17.6 -8 24.2 -8 31 C-23 31 -23 31 -26 25 C-26.1 19.3 -26.1 13.7 -26 8 C-22 9 -22 9 -22.1 15.2 C-22.4 21.8 -22.4 21.8 -20 27 C-17.7 27 -15.4 27 -13 27 C-12.5 18.1 -12.5 18.1 -12 9 C-8 9 -4.1 9 0 9 C0 6 0 3.1 0 0 Z " fill="#181918" transform="translate(901,1068)"/>
<path d="M0 0 C7.7 4.6 27 19.4 27 29 C32.2 27.1 32.2 27.1 37.5 23.7 C54.4 14.1 54.4 14.1 60 16 C58.7 16.7 57.5 17.3 56.2 18 C40.1 24.5 40.1 24.5 33 36 C33.7 37.3 34.3 38.6 35 40 C34.7 41 34.3 42 34 43 C32 40.7 30 38.4 28 36 C8.3 45.8 -3.9 70 -13 89 C-21 73.1 12 41.4 23 33 C21.8 26.8 19.3 24.7 15 20 C12.3 16.7 9.7 13.3 7 10 C4.7 7.3 2.4 4.6 0 2 C0 1.3 0 0.7 0 0 Z " fill="#E7E7E2" transform="translate(956,357)"/>
<path d="M0 0 C0.3 7.9 0.7 15.8 1 24 C6.2 21.4 7.4 18.1 10 13 C10.3 13 10.7 13 11 13 C11.3 17.3 11.7 21.6 12 26 C19.3 28.9 24.2 29.1 31 25 C32.3 25 33.6 25 35 25 C35.2 26.8 35.4 28.5 35.6 30.3 C37 37.2 39.4 42 43 48 C42.5 49 42.5 49 42 50 C40.7 48.8 39.5 47.6 38.2 46.4 C22.5 33.1 4.7 25.3 -16 24 C-14 20 -14 20 -8 13 C-0.7 0 -0.7 0 0 0 Z " fill="#F2F2F1" transform="translate(764,60)"/>
<path d="M0 0 C1 2.6 2 5.3 3 8 C5.6 10 8.3 12 11 14 C11.3 15.3 11.7 16.6 12 18 C10 18.3 8 18.7 6 19 C5.7 21.3 5.3 23.6 5 26 C3 27 3 27 -4 25 C-6.3 25.3 -8.6 25.7 -11 26 C-17.4 17.5 -19.3 12.5 -13 3 C-9.7 -0.3 -4.4 0 0 0 Z " fill="#19191A" transform="translate(1001,138)"/>
<path d="M0 0 C-7.2 7.2 -14.3 14.3 -22 21 C-23.3 22.3 -24.7 23.7 -26.1 25.1 C-29.5 28.5 -33.3 31.8 -37 35 C-36.2 39.3 -36.2 39.3 -32.6 43.1 C-26.1 51.4 -14.2 67 -17 78 C-18.3 75.5 -19.6 72.9 -20.9 70.3 C-26.8 59.3 -33.5 49.2 -42 40 C-44.3 41.6 -46.6 43.3 -49 45 C-50.5 44.5 -50.5 44.5 -52 44 C-50 42 -48 40 -46 38 C-48.6 27.7 -61.7 21.5 -70 16 C-70.3 15 -70.7 14 -71 13 C-65.2 14.4 -61 17.8 -56 21 C-54.3 22 -52.7 23 -51 24 C-50.7 22.4 -50.3 20.7 -50 19 C-48.7 17 -47.4 15 -46 13 C-45 16 -45 16 -49 26 C-46.7 28.3 -44.4 30.6 -42 33 C-34.5 27.4 -27.8 21.4 -21 15 C-2.7 -1.4 -2.7 -1.4 0 0 Z " fill="#E7E7E3" transform="translate(1180,360)"/>
<path d="M0 0 C-1 0.3 -2 0.7 -3 1 C-3.3 2.6 -3.7 4.3 -4 6 C-6.6 6.7 -6.6 6.7 -9.2 7.4 C-14.8 8.8 -14.8 8.8 -19 11 C-24.3 12 -29.7 13 -35 14 C-38.6 14.9 -38.6 14.9 -42.3 15.8 C-48 17 -48 17 -51 16 C-50.3 16 -49.7 16 -49 16 C-49 15.3 -49 14.7 -49 14 C-51 14.3 -53 14.7 -55 15 C-60.3 15.3 -65.7 15.7 -71 16 C-74.7 16.3 -78.3 16.6 -82 17 C-75.9 4.9 -14.2 0 0 0 Z " fill="#5F5E5F" transform="translate(595,709)"/>
<path d="M0 0 C4.9 19.7 -7.6 44.5 -14 63 C-14.7 65 -15.3 67 -16 69 C-18.6 68.3 -21.3 67.7 -24 67 C-22.9 58.2 -20.3 51.5 -16.9 43.3 C-15.2 38.9 -15.2 38.9 -13.4 34.4 C-11.7 30.3 -11.7 30.3 -10 26 C-7.3 19 -4.7 12 -2 5 C-1.3 3.4 -0.7 1.7 0 0 Z " fill="#F5F5F3" transform="translate(1195,777)"/>
<path d="M0 0 C-6 13.5 -14.8 23.4 -26 33 C-26.3 33.7 -26.7 34.3 -27 35 C-24.6 35.3 -22.2 35.5 -19.7 35.8 C-12.8 36.8 -6.6 38 0 40 C0 40.3 0 40.7 0 41 C-1.8 40.9 -3.6 40.7 -5.4 40.6 C-17.3 39.7 -29.1 38.8 -41 38 C-39.2 43 -39.2 43 -31.4 43.3 C-23 45 -23 45 -16 48 C-22.4 49.6 -28.3 48 -34.8 47.1 C-37.4 46.7 -40.1 46.3 -42.8 45.9 C-44.8 45.6 -46.9 45.3 -49 45 C-46.1 37.8 -41 35.8 -34 33 C-33 31.8 -32 30.7 -30.9 29.5 C-27 25 -27 25 -21.1 20.2 C-15.2 15.2 -10.7 10.1 -6 4 C-2 -1 -2 -1 0 0 Z " fill="#DAD9D5" transform="translate(319,645)"/>
<path d="M0 0 C-4.5 3 -8.7 2.6 -14 3 C-16.3 3.2 -18.6 3.3 -20.9 3.5 C-23.2 3.7 -25.6 3.8 -28 4 C-30.1 4.2 -32.3 4.3 -34.5 4.5 C-41.2 4.9 -47.9 5.4 -54.6 5.9 C-70 7 -85.5 8 -101 9.1 C-104.8 9.4 -104.8 9.4 -108.7 9.7 C-113.7 10.1 -118.6 10.4 -123.5 10.8 C-125.8 10.9 -128 11.1 -130.3 11.3 C-132.2 11.4 -134.2 11.5 -136.2 11.7 C-139.5 11.9 -142.7 12 -146 12 C-145.7 10.7 -145.3 9.4 -145 8 C-146.3 7.7 -147.6 7.3 -149 7 C-146.5 6.9 -144 6.8 -141.5 6.7 C-132.1 6.2 -122.7 5.8 -113.4 5.4 C-109.3 5.2 -105.3 5 -101.3 4.9 C-80.7 3.9 -60.1 3 -39.5 1.4 C-32.9 0.9 -26.4 0.6 -19.8 0.4 C-17.7 0.3 -15.6 0.2 -13.5 0.1 C-9 0 -4.5 0 0 0 Z " fill="#CACCCC" transform="translate(509,250)"/>
<path d="M0 0 C0 9.2 0 18.5 0 28 C10.6 29.4 10.6 29.4 14.1 24.5 C16.6 21.6 19.2 18.7 21.9 15.9 C25.6 11.9 25.6 11.9 26 5 C24.4 3.2 24.4 3.2 18 4 C16.3 5.7 14.7 7.3 13 9 C12.3 9 11.7 9 11 9 C12.6 -0.7 15.3 0.1 25 -1 C32.1 7.5 30.9 11.7 24 20 C22 21.3 20 22.6 18 24 C17.7 25 17.3 26 17 27 C21.6 27 26.2 27 31 27 C31 28 31 29 31 30 C-10.8 31.7 -10.8 31.7 -12 28 C-10 27 -10 27 -4 27 C-4 22.7 -4 22.7 -4.1 18.3 C-4 9 -4 9 -3 4 C-7.9 6.7 -7.9 6.7 -11 10 C-11 3.5 -7.4 -2.5 0 0 Z " fill="#181818" transform="translate(1384,1069)"/>
<path d="M0 0 C0 9.4 -56 18.2 -66.3 20.2 C-71.9 21.2 -77.4 22.1 -83 23 C-85.3 23.4 -87.5 23.8 -89.9 24.2 C-100.6 25.4 -111.3 25.2 -122 25 C-122 24.3 -122 23.7 -122 23 C-118.7 22.8 -115.5 22.6 -112.1 22.4 C-84.4 20 -23.6 -7.9 0 0 Z " fill="#CACECC" transform="translate(2126,638)"/>
<path d="M0 0 C3.7 7.4 3.3 12.7 -3 19 C-15.5 19 -15.5 19 -19 12 C-19 -0.7 -11.3 -9.1 0 0 Z " fill="#828282" transform="translate(1025,1080)"/>
<path d="M0 0 C-1 2 -1 2 -5 2 C-5 2.7 -5 3.3 -5 4 C-2 4 0.9 4 4 4 C4 6.8 -1.3 5.9 -4.1 6.4 C-7.7 7.1 -11.2 7.7 -14.8 8.3 C-17.4 8.8 -17.4 8.8 -20.1 9.2 C-25.4 10.2 -30.7 11.1 -36 12 C-38.6 12.4 -38.6 12.4 -41.2 12.9 C-70.8 17.8 -70.8 17.8 -78 13 C-69 10.8 -59.9 9.1 -50.8 7.5 C-48.1 7.1 -45.5 6.6 -42.8 6.2 C-40 5.7 -37.3 5.3 -34.5 4.8 C-31.7 4.3 -29 3.9 -26.1 3.4 C-22.2 2.8 -22.2 2.8 -18.2 2.1 C-15.8 1.7 -13.3 1.3 -10.9 0.9 C-5 0 -5 0 0 0 Z " fill="#D2D2D2" transform="translate(275,228)"/>
<path d="M0 0 C6.3 6.3 10.4 13.4 15 21 C20.4 19.9 24.5 18 29.5 15.6 C43.4 8.8 43.4 8.8 47 10 C45.5 10.8 44.1 11.5 42.6 12.3 C24.6 20.4 24.6 20.4 21 36 C21.3 38.3 21.7 40.6 22 43 C23.8 42.7 25.5 42.4 27.3 42.1 C29.6 41.7 31.9 41.3 34.2 40.9 C36.5 40.6 38.8 40.2 41.1 39.8 C47 39 47 39 51 40 C47.6 41.2 44.3 42.3 40.9 43.5 C38.1 44.5 38.1 44.5 35.2 45.5 C30 47 30 47 24 47 C24 51.6 24 56.2 24 61 C20 60 20 60 19.3 51.5 C17.3 33 10.5 17.3 0 2 C0 1.3 0 0.7 0 0 Z " fill="#E9E8E4" transform="translate(323,888)"/>
<path d="M0 0 C8.2 8.2 7.4 11.7 1 22 C-10 22 -10 22 -14 16 C-15.6 2 -13 0 0 0 Z " fill="#858484" transform="translate(1121,1077)"/>
<path d="M0 0 C7.8 1.3 15.4 3.1 23.1 4.8 C48.8 13.4 48.8 13.4 69 7 C70 11 70 11 69 15 C70.9 15.3 72.8 15.6 74.8 15.9 C81 17 81 17 85 19 C78.9 18.6 73.9 18 68 16 C67 19 66 21.9 65 25 C60 35 54.6 42.8 46 50 C48 45 48 45 51.6 39.1 C56.1 31.9 60.1 24.5 64 17 C61.4 16.5 61.4 16.5 58.7 16.1 C46.7 14 34.8 11.8 22.9 9.4 C20.1 8.9 20.1 8.9 17.2 8.3 C3.2 4.8 3.2 4.8 0 0 Z " fill="#E6E5E0" transform="translate(1096,502)"/>
<path d="M0 0 C7 7 5.4 12.1 1 21 C-5 29 -5 29 -10 30 C-9 26 -9 26 -4 22 C-3.7 20.7 -3.3 19.4 -3 18 C-5.6 18 -8.3 18 -11 18 C-14 14 -14 14 -14 5 C-9 0 -9 0 0 0 Z " fill="#727272" transform="translate(1265,1069)"/>
<path d="M0 0 C-4 6 -4 6 -7 9 C-7 12 -7 14.9 -7 18 C-10.6 27 -19.3 25.5 -28 26 C-27.1 17.9 -25.5 13.2 -22 6 C-20 6.7 -18 7.3 -16 8 C-12.2 6.2 -2.7 -1.3 0 0 Z " fill="#F6F6F4" transform="translate(162,390)"/>
<path d="M0 0 C-10.6 5.3 -24.6 5.9 -36.2 7.9 C-52.9 10.8 -69.5 14.1 -86 18 C-92.3 19.4 -98.7 20.7 -105 22 C-103 18 -103 18 -101 18 C-92.4 16.3 -92.4 16.3 -86 14 C-80.7 13.3 -75.3 12.6 -70 12 C-70.5 10.5 -70.5 10.5 -71 9 C-67.9 2.8 -49.6 4.4 -43.6 4.1 C-29.1 3.2 -14.4 0 0 0 Z " fill="#B3B4B3" transform="translate(461,202)"/>
<path d="M0 0 C5.9 4.7 8.7 9.5 12.7 15.9 C17.3 23.2 21.9 30.4 27 37.4 C31 43 31 43 31 46 C23 50 23 50 20 49 C19.2 46.8 18.4 44.5 17.6 42.2 C12.9 30 7.4 18.2 1.9 6.4 C0 2 0 2 0 0 Z " fill="#F4F4F2" transform="translate(1053,808)"/>
<path d="M0 0 C0.5 4.5 0.5 4.5 1 9 C-56.3 9.4 -56.3 9.4 -58 6 C-47.8 4.5 -37.6 3.1 -27.3 1.9 C-24.5 1.5 -21.7 1.2 -18.8 0.8 C-12.4 0.1 -6.4 -0.2 0 0 Z " fill="#EDEDEC" transform="translate(1025,927)"/>
<path d="M0 0 C0 3 -27.8 6.4 -31 7 C-38.6 8.2 -46.3 9.3 -53.9 10.4 C-55.8 10.7 -57.7 11 -59.6 11.3 C-69.3 12.6 -77.4 12.9 -87 11 C-87 10.7 -87 10.3 -87 10 C-85.3 9.8 -83.7 9.5 -82 9.3 C-67.2 7.1 -52.5 4.6 -38 1 C-25.3 0.2 -12.7 -0.1 0 0 Z " fill="#828484" transform="translate(499,228)"/>
<path d="M0 0 C-18.5 3.5 -36.2 5.3 -55 5 C-52.7 5.3 -50.4 5.7 -48 6 C-48 6.3 -48 6.7 -48 7 C-50.4 7.2 -50.4 7.2 -52.9 7.4 C-57.6 7.4 -57.6 7.4 -59 9 C-62.3 8.7 -65.6 8.3 -69 8 C-68 6 -67 4 -66 2 C-69.3 1.7 -72.6 1.3 -76 1 C-76 0.7 -76 0.3 -76 0 C-74.6 -0 -73.2 -0.1 -71.7 -0.1 C-65.2 -0.2 -58.8 -0.3 -52.3 -0.4 C-50.1 -0.5 -47.9 -0.5 -45.6 -0.6 C-2.1 -1.4 -2.1 -1.4 0 0 Z " fill="#BEBFBE" transform="translate(420,241)"/>
<path d="M0 0 C7.2 6.1 13.2 12.7 19.3 19.8 C23 24 26.9 28.1 30.9 32.1 C32.3 33.4 33.6 34.7 35 36.1 C38.9 39.9 42.9 43.4 47 47 C50 50 53 53 56 56 C45.1 61.4 22 31.9 16 24 C12.6 19.3 9.2 14.6 5.8 9.9 C3.9 7.3 2 4.6 0 2 C0 1.3 0 0.7 0 0 Z " fill="#E6E5E3" transform="translate(1427,883)"/>
<path d="M0 0 C-0.6 7.8 -1.7 15.2 -3.2 22.8 C-5.7 35.4 -7.8 48.1 -9.8 60.8 C-12 72.3 -12 72.3 -20 75 C-18.9 66.4 -16.9 58.4 -14.7 49.9 C-13.9 46.9 -13.1 43.9 -12.3 40.8 C-1.6 0 -1.6 0 0 0 Z " fill="#E9E9E6" transform="translate(269,792)"/>
<path d="M0 0 C11.3 4.5 21.5 11.7 31.9 17.9 C44.7 25.8 44.7 25.8 58 33 C58 35 58 35 54 37 C40.1 34.7 27.1 21.4 16 13 C13 10.7 10 8.5 7 6.2 C0 1 0 1 0 0 Z " fill="#F1F0EB" transform="translate(1927,791)"/>
<path d="M0 0 C12 0 12 0 15 3 C16 2 17 1 18 0 C27.6 0 27.6 0 29 7 C29 12.3 29 17.7 29 23 C28 23 27 23 26 23 C25.9 20.2 25.7 17.5 25.6 14.6 C25.6 6.9 25.6 6.9 24 4 C18.5 3.3 18.5 3.3 17 5 C16.7 10.9 16.3 16.9 16 23 C14.7 23 13.4 23 12 23 C11.7 16.1 11.3 9.1 11 2 C0.9 2.3 0.9 2.3 3 22 C1.7 22 0.4 22 -1 22 C-1.1 14.6 -0.8 7.4 0 0 Z " fill="#171717" transform="translate(1132,1077)"/>
<path d="M0 0 C-0.3 0.3 -0.7 0.7 -1 1 C0.3 1.7 1.6 2.3 3 3 C-1.5 7.5 -11 7.7 -17 9 C-18.7 9.4 -20.5 9.9 -22.2 10.3 C-27 11 -27 11 -33.8 10.5 C-41.2 10 -47.6 10.8 -55 12 C-57 12 -59 12 -61 12 C-54.1 8.5 -46.2 7.6 -38.7 6.1 C-37 5.7 -35.4 5.4 -33.6 5 C-28.8 4 -23.9 3 -19 2 C-16.2 1.4 -13.4 0.8 -10.5 0.2 C-4 -1 -4 -1 0 0 Z " fill="#46474A" transform="translate(484,108)"/>
<path d="M0 0 C4 4 8 8 12 12 C17.9 14.7 23.8 16.9 30 19 C29 21 29 21 23.3 22.7 C13.5 26.3 12.3 28.7 10 39 C9.7 39 9.3 39 9 39 C8.9 36 8.9 36 8.8 32.9 C7.7 21.6 5.1 12.2 0 2 C0 1.3 0 0.7 0 0 Z " fill="#F1F0EC" transform="translate(817,128)"/>
</svg>
