<?xml version="1.0" standalone="no"?>
<!DOCTYPE svg PUBLIC "-//W3C//DTD SVG 20010904//EN"
 "http://www.w3.org/TR/2001/REC-SVG-20010904/DTD/svg10.dtd">
<svg version="1.0" xmlns="http://www.w3.org/2000/svg"
 width="350.000000pt" height="250.000000pt" viewBox="0 0 350.000000 250.000000"
 preserveAspectRatio="xMidYMid meet">
<metadata>
Created by potrace 1.16, written by Peter Selinger 2001-2019
</metadata>
<g transform="translate(0.000000,250.000000) scale(0.100000,-0.100000)"
fill="#000000" stroke="none">
<path d="M1535 2375 c-171 -15 -275 -36 -408 -82 -135 -46 -189 -76 -263 -148
-52 -50 -65 -70 -79 -119 -21 -72 -16 -134 19 -214 13 -31 30 -90 37 -131 21
-124 112 -307 146 -294 14 6 14 7 -4 14 -32 12 -117 191 -132 279 -7 41 -20
93 -28 115 -42 111 -45 122 -40 171 13 130 130 240 335 314 130 47 237 68 437
86 99 8 181 17 184 20 6 6 -43 3 -204 -11z M1700 2355 c-14 -8 -35 -14 -47
-15 -32 0 -53 -10 -53 -26 0 -11 17 -14 68 -14 116 0 472 -47 602 -79 19 -5
48 -12 65 -16 l30 -7 -25 -13 c-15 -9 -19 -14 -10 -15 11 0 12 -2 3 -8 -7 -5
51 -39 150 -90 153 -78 341 -191 332 -200 -2 -3 -26 -6 -54 -7 -66 -4 -72 -9
-59 -46 17 -50 4 -133 -31 -184 -17 -25 -40 -68 -52 -95 -15 -34 -27 -50 -40
-50 -10 0 -21 -5 -25 -11 -4 -8 0 -9 15 -4 15 4 21 2 21 -8 0 -8 19 -23 42
-33 109 -49 245 -154 309 -239 61 -82 89 -162 90 -264 0 -47 -4 -109 -10 -138
-14 -71 -103 -245 -164 -321 -106 -131 -312 -256 -472 -288 -119 -23 -343 -20
-456 7 -83 19 -93 20 -156 6 -48 -11 -85 -13 -125 -7 -67 10 -191 71 -263 131
-131 109 -458 198 -651 177 -176 -19 -354 -92 -354 -146 0 -7 11 -1 24 15 33
39 142 88 240 108 154 31 308 18 485 -42 129 -44 185 -72 247 -124 66 -55 201
-119 272 -129 40 -6 76 -4 125 7 63 14 73 13 156 -6 111 -26 338 -30 451 -8
185 37 373 149 488 291 61 74 147 248 162 327 41 204 -20 383 -172 511 -68 57
-129 98 -198 133 -30 15 -56 28 -58 30 -6 5 44 113 66 142 46 63 65 157 43
216 -9 23 -7 26 23 31 18 4 40 4 47 1 8 -3 23 1 34 9 20 15 20 15 0 30 -45 35
-257 158 -357 207 -60 29 -108 58 -108 66 0 7 5 13 10 13 6 0 10 6 10 14 0 13
-84 36 -240 65 -92 18 -391 51 -460 51 -50 1 -61 3 -47 11 10 6 23 8 30 6 12
-4 87 29 87 38 0 8 -14 5 -40 -10z M1370 2295 c-459 -100 -614 -321 -379 -539
77 -71 263 -173 284 -156 7 5 15 7 18 3 4 -3 7 -2 7 3 0 5 -45 38 -100 74
-104 68 -118 90 -28 44 56 -28 134 -61 283 -120 50 -20 146 -60 215 -89 69
-29 139 -57 155 -63 67 -23 -47 -8 -385 52 -88 16 -237 56 -303 81 -90 35 -90
6 1 -61 37 -28 78 -57 92 -66 34 -21 166 -68 191 -68 10 0 19 -4 19 -9 0 -13
-54 -30 -117 -37 -29 -4 -50 -11 -47 -15 3 -5 0 -9 -7 -9 -8 0 -6 -6 4 -18 11
-12 17 -36 17 -68 0 -32 7 -59 20 -79 11 -16 20 -41 20 -55 0 -44 -11 -36 248
-170 70 -36 120 -56 130 -52 9 3 37 18 61 33 52 34 130 53 193 48 25 -2 44 -1
41 4 -8 14 -111 7 -170 -11 -33 -10 -77 -30 -98 -45 l-38 -26 -87 47 c-54 29
-86 52 -83 59 3 7 35 22 71 33 64 20 115 29 281 50 46 5 86 11 88 13 1 2 5 17
9 33 l6 30 -97 22 c-159 37 -328 63 -363 57 -39 -7 -52 -33 -52 -103 0 -61 15
-111 37 -128 15 -11 15 -13 2 -14 -8 0 -20 5 -25 10 -6 6 -39 25 -75 44 -60
31 -64 36 -70 74 -3 23 -13 50 -22 60 -12 13 -17 36 -17 75 0 31 -5 59 -10 62
-18 11 -2 22 42 29 88 14 118 26 118 46 0 14 -7 20 -23 20 -32 0 -112 28 -167
58 -52 28 -182 124 -176 130 2 2 44 -10 94 -26 128 -43 336 -86 590 -123 69
-11 85 -10 92 1 6 10 -11 20 -68 40 -110 40 -558 223 -618 254 -29 14 -59 26
-68 26 -36 0 -11 -28 74 -84 50 -32 90 -63 90 -68 0 -21 -204 98 -266 155 -91
83 -123 153 -108 234 5 28 22 53 68 98 98 97 226 154 439 196 61 12 114 23
116 25 10 9 -51 0 -149 -21z m413 -1116 c169 -33 187 -40 180 -68 -6 -23 -23
-27 -157 -41 -98 -10 -175 -26 -254 -54 -54 -19 -64 -8 -70 88 -4 66 -2 76 17
95 27 27 59 25 284 -20z M1512 1173 c-18 -32 0 -44 61 -42 31 1 62 6 69 11 7
4 -12 5 -44 2 -69 -8 -96 -1 -78 21 19 23 98 18 259 -15 79 -16 145 -31 148
-33 2 -2 -38 -7 -89 -11 -51 -3 -142 -17 -203 -31 -60 -14 -110 -25 -111 -25
-1 0 -4 9 -7 21 -6 23 2 28 76 40 51 8 51 8 -12 4 -36 -3 -68 -10 -71 -16 -8
-12 -1 -59 9 -59 3 0 56 11 116 25 61 14 154 28 208 31 65 5 97 11 97 19 0 15
-240 67 -341 73 -68 4 -78 2 -87 -15z M1453 2282 c-24 -9 -43 -22 -43 -29 0
-10 32 -13 138 -13 75 0 223 -9 327 -21 105 -11 222 -22 260 -24 l70 -4 -65 9
c-230 29 -478 50 -592 50 l-133 1 49 19 c26 10 51 21 54 24 10 10 -22 4 -65
-12z M2285 2182 c-18 -13 -15 -30 5 -35 11 -3 20 -1 20 4 0 5 -5 9 -11 9 -8 0
-8 5 1 15 13 15 3 20 -15 7z M1303 2170 c-93 -14 -191 -49 -229 -82 -33 -29
-36 -36 -31 -71 7 -51 50 -96 136 -140 248 -129 682 -184 936 -118 86 23 123
44 142 82 19 37 -5 41 -47 8 -61 -50 -116 -61 -315 -66 -206 -6 -302 6 -456
58 -158 52 -279 134 -279 188 0 50 71 94 172 107 29 4 60 11 68 16 12 7 10 8
-5 4 -11 -2 -45 -8 -75 -11 -199 -25 -228 -147 -57 -243 72 -41 250 -99 360
-118 70 -12 134 -15 272 -11 193 5 252 16 319 62 40 27 48 20 13 -13 -113
-106 -570 -107 -888 -2 -155 52 -289 145 -289 202 0 63 114 118 300 146 36 5
52 9 35 9 -16 0 -53 -3 -82 -7z M2138 2163 c12 -2 32 -2 45 0 12 2 2 4 -23 4
-25 0 -35 -2 -22 -4z M2160 2136 c62 -16 236 -90 380 -161 91 -45 92 -51 3
-31 -31 7 -37 -20 -8 -42 33 -27 73 -88 85 -133 25 -93 -77 -199 -216 -225
l-35 -6 27 -14 c34 -18 77 -15 106 8 22 18 22 18 -16 2 -21 -8 -48 -13 -60
-11 -20 3 -21 4 -1 12 141 57 174 82 200 154 14 40 14 50 0 96 -15 52 -44 99
-77 123 -17 12 -16 38 1 28 16 -10 91 -24 86 -16 -3 5 0 10 7 12 31 11 -417
203 -493 213 -41 5 -40 4 11 -9z M1366 2118 c-43 -5 -86 -13 -95 -19 -13 -9
-13 -10 3 -4 11 3 77 11 147 17 108 10 150 9 281 -5 84 -9 187 -26 228 -38 41
-11 107 -28 145 -38 138 -34 235 -102 235 -165 0 -85 -120 -139 -348 -156
-269 -20 -628 45 -798 146 -33 19 -78 54 -101 79 -26 29 -39 38 -36 25 7 -25
67 -80 126 -114 62 -37 232 -92 353 -116 230 -44 494 -44 654 0 121 34 159 67
160 137 0 35 -6 48 -35 76 -45 44 -123 81 -210 100 -38 9 -104 25 -146 36
-158 43 -391 59 -563 39z M1383 2076 c-101 -17 -193 -49 -193 -67 0 -5 22 3
49 17 72 36 229 57 366 50 316 -17 529 -90 575 -196 10 -24 10 -24 4 5 -11 56
-52 87 -173 132 -153 56 -467 85 -628 59z M2080 2076 c0 -2 30 -16 68 -31 89
-36 203 -107 246 -156 84 -92 14 -174 -184 -216 -118 -24 -412 -24 -565 0
-133 22 -276 57 -367 90 -130 47 -247 134 -268 199 l-10 33 5 -32 c7 -50 31
-79 111 -133 106 -70 282 -126 529 -166 154 -25 447 -26 565 0 109 23 174 51
206 89 37 44 30 105 -17 154 -42 43 -141 103 -238 143 -77 31 -81 33 -81 26z
M1500 2044 c-105 -20 -260 -76 -260 -93 0 -3 24 -7 53 -9 41 -2 57 -9 76 -29
58 -62 207 -103 396 -110 123 -5 151 -3 219 16 74 20 185 70 158 71 -7 0 -34
-11 -61 -24 -91 -47 -162 -59 -316 -53 -192 7 -313 42 -388 111 -20 19 -39 26
-70 27 l-42 1 61 29 c129 62 304 73 492 29 89 -21 143 -45 190 -85 36 -30 76
-39 117 -26 26 9 24 10 -15 5 -40 -5 -50 -2 -85 26 -58 46 -87 59 -190 85 -90
23 -280 39 -335 29z M1525 1993 c-64 -17 -61 -57 8 -88 127 -58 377 -55 377 4
0 25 -17 37 -86 62 -59 21 -253 35 -299 22z m297 -32 c70 -27 90 -47 64 -67
-50 -36 -261 -24 -346 20 -51 27 -56 44 -20 64 39 21 230 10 302 -17z M2168
1957 c18 -19 37 -47 42 -63 10 -28 10 -28 5 6 -5 33 -48 90 -69 90 -5 0 5 -15
22 -33z M2668 1868 c5 -18 7 -19 10 -6 2 9 13 19 25 21 16 3 13 5 -10 6 -28 1
-30 -1 -25 -21z M2460 1857 c20 -56 13 -88 -29 -128 -52 -48 -161 -84 -316
-102 -26 -4 -25 -4 7 -6 86 -3 263 49 313 93 32 27 38 39 42 81 3 36 0 56 -11
70 -15 19 -16 19 -6 -8z M2572 1754 c-3 -68 -54 -122 -164 -175 -72 -34 -39
-29 37 6 55 25 123 87 131 121 3 11 4 36 1 55 -4 33 -4 32 -5 -7z M2530 1549
c0 -22 -97 -112 -151 -139 -24 -13 -64 -29 -89 -37 l-45 -13 40 5 c61 7 155
59 212 117 40 40 50 57 43 68 -8 13 -10 13 -10 -1z M1492 1457 c-18 -21 4 -82
42 -121 19 -19 53 -38 80 -46 51 -14 51 -19 3 -37 -20 -7 -25 -12 -14 -12 11
-1 31 6 45 15 15 8 56 25 92 38 48 16 66 27 68 42 3 22 0 23 -168 84 -58 21
-112 41 -121 45 -9 3 -21 0 -27 -8z m256 -87 c28 -12 52 -26 52 -31 0 -11 -45
-34 -94 -47 -31 -9 -47 -8 -90 9 -29 10 -62 29 -74 42 -25 26 -55 94 -47 107
5 9 159 -40 253 -80z M1530 1401 c0 -27 61 -77 105 -85 52 -10 117 2 113 20
-2 12 -183 84 -210 84 -5 0 -8 -9 -8 -19z m115 -26 c97 -34 106 -41 65 -50
-48 -11 -97 3 -135 37 -35 30 -47 54 -22 46 6 -3 48 -17 92 -33z M2055 1420
c-134 -54 -145 -61 -145 -81 0 -27 78 -53 141 -47 77 8 139 64 142 129 3 47
-17 47 -138 -1z m131 15 c8 -19 -31 -85 -63 -109 -37 -28 -120 -33 -167 -11
-20 10 -36 20 -36 24 0 10 36 30 118 62 129 52 140 55 148 34z M2053 1386
c-60 -22 -83 -36 -83 -48 0 -15 9 -18 51 -18 70 0 139 40 139 82 0 23 -8 22
-107 -16z m97 15 c0 -5 -17 -23 -37 -40 -30 -25 -47 -31 -85 -31 -27 0 -48 4
-48 9 0 4 35 22 78 39 88 34 92 35 92 23z M2558 1453 c7 -3 16 -2 19 1 4 3 -2
6 -13 5 -11 0 -14 -3 -6 -6z M2389 1370 c-9 -5 -45 -13 -80 -18 -42 -6 -52
-10 -29 -11 32 0 66 6 129 25 17 5 7 -8 -35 -47 -71 -66 -118 -95 -198 -126
-45 -18 -52 -22 -26 -18 58 9 155 62 223 123 36 31 64 62 63 67 -4 14 -28 17
-47 5z M895 1361 c-11 -5 -32 -22 -46 -37 -14 -16 -40 -37 -58 -46 -17 -9 -36
-30 -42 -45 -14 -36 1 -114 37 -194 15 -33 25 -61 23 -62 -100 -68 -280 -247
-338 -337 -65 -102 -112 -216 -110 -270 1 -15 4 -9 10 18 11 57 54 153 105
233 51 80 199 237 283 299 33 25 60 53 61 63 0 9 -11 39 -25 65 -14 26 -30 74
-36 105 -11 53 -10 61 8 85 11 15 32 33 47 41 16 7 41 27 56 44 22 25 38 33
81 38 l54 6 -45 1 c-25 0 -54 -3 -65 -7z M1033 1353 c-15 -9 -39 -22 -53 -29
-14 -8 -33 -14 -42 -14 -9 0 -29 -16 -44 -35 -15 -19 -38 -38 -53 -42 -39 -9
-51 -22 -51 -57 1 -48 53 -170 99 -231 75 -99 156 -144 326 -181 33 -7 45 -12
27 -10 -23 2 -36 -2 -42 -14 -7 -14 4 -28 53 -73 155 -136 280 -211 406 -243
63 -16 135 -13 172 7 27 14 31 -3 7 -28 -35 -37 -86 -46 -164 -28 -134 31
-283 128 -461 297 -56 54 -105 98 -110 98 -4 0 39 -47 97 -103 178 -173 310
-260 457 -298 94 -24 160 -14 193 28 23 30 11 59 -19 44 -91 -49 -272 6 -440
132 -82 62 -181 149 -181 159 0 5 16 8 35 8 58 0 44 26 -17 34 -183 23 -317
121 -393 288 -48 106 -44 150 15 163 16 3 40 21 54 40 16 20 39 36 58 41 18 3
48 17 67 30 28 19 42 22 90 17 51 -4 60 -9 99 -51 34 -37 42 -53 39 -74 -2
-16 0 -28 5 -28 19 0 6 60 -20 96 -41 56 -50 61 -119 67 -44 3 -69 1 -90 -10z
M2480 1342 c0 -14 15 -23 58 -36 144 -45 265 -133 321 -233 17 -32 29 -47 25
-33 -9 35 -57 110 -91 142 -48 45 -122 86 -215 119 -91 33 -118 56 -50 45 76
-13 203 -86 273 -155 90 -90 109 -134 109 -245 0 -106 -19 -186 -67 -283 -70
-140 -144 -214 -293 -292 -121 -63 -234 -90 -440 -104 -38 -3 -35 -4 15 -5
148 -4 361 51 491 129 181 107 292 304 302 532 4 105 3 110 -27 171 -52 106
-159 192 -299 242 -82 29 -112 31 -112 6z M2435 1301 c-31 -26 -28 -38 13 -46
77 -14 160 -49 292 -122 42 -23 43 -23 20 -3 -43 38 -192 106 -288 130 -43 11
-43 12 -26 31 22 25 15 32 -11 10z M1174 1235 c-9 -63 2 -109 35 -144 51 -55
82 -36 56 34 -12 33 -14 36 -15 15 0 -15 5 -31 11 -37 18 -18 1 -35 -22 -22
-46 24 -70 101 -53 167 9 30 19 28 38 -10 12 -26 16 -29 16 -12 0 22 -28 54
-48 54 -6 0 -14 -20 -18 -45z M1216 1180 c3 -30 10 -59 16 -65 10 -10 9 -6
-12 80 -8 37 -9 35 -4 -15z M2477 1191 c4 -4 37 -13 73 -20 36 -7 98 -28 139
-47 40 -18 68 -27 61 -19 -10 12 -106 53 -165 69 -43 12 -116 23 -108 17z
M2248 1185 c-3 -3 -34 -12 -69 -20 -35 -7 -52 -14 -38 -14 14 -1 48 6 75 14
76 23 82 19 35 -29 -50 -51 -119 -91 -173 -101 -22 -4 -38 -13 -38 -21 0 -39
179 17 284 88 38 26 39 26 90 11 69 -20 154 -79 191 -131 27 -40 30 -51 30
-126 0 -74 -3 -87 -30 -132 -33 -53 -103 -106 -163 -125 -65 -19 -197 -23
-239 -7 -21 9 -65 18 -98 21 l-60 5 55 -10 c30 -5 73 -16 95 -24 90 -31 258
-7 343 50 26 17 60 53 77 80 28 46 30 57 30 141 0 83 -3 95 -28 133 -34 52
-92 95 -165 122 -79 30 -98 28 -172 -17 -87 -53 -162 -83 -202 -82 -30 0 -27
2 22 18 30 9 66 23 79 31 37 19 121 101 121 116 0 13 -41 20 -52 9z M2466
1171 c5 -5 26 -14 46 -20 49 -16 148 -113 177 -174 19 -39 24 -66 24 -130 0
-122 -30 -212 -106 -310 -16 -21 -27 -40 -24 -43 2 -3 18 12 34 33 105 132
138 339 77 470 -21 45 -115 140 -153 155 -46 18 -85 28 -75 19z M1283 1138 c9
-15 17 -47 17 -71 0 -25 6 -49 13 -54 6 -6 90 -50 185 -99 148 -76 176 -94
192 -124 11 -19 19 -28 19 -20 0 41 -32 66 -210 159 l-184 96 -5 52 c-4 34
-12 59 -25 70 -18 18 -18 17 -2 -9z M1678 1012 c-54 -20 -98 -39 -98 -43 0 -7
185 63 197 75 9 9 7 8 -99 -32z M2257 995 c39 -7 82 -19 95 -25 34 -18 79 -62
89 -87 11 -29 33 -29 53 -1 25 36 18 46 -8 13 l-24 -30 -10 25 c-24 62 -101
104 -208 114 -59 5 -59 5 13 -9z M1915 943 c-118 -26 -217 -118 -185 -171 8
-13 9 -11 4 11 -5 24 0 34 35 67 58 56 115 82 177 84 29 0 47 4 40 8 -12 8
-38 8 -71 1z M844 904 c-80 -42 -201 -157 -285 -271 -57 -77 -47 -85 73 -62
149 30 366 25 488 -11 44 -13 60 -13 60 0 0 5 -32 57 -70 114 -54 79 -87 117
-138 156 -57 44 -61 46 -27 13 22 -22 48 -44 57 -49 18 -11 172 -234 160 -234
-4 0 -23 5 -42 10 -116 34 -332 41 -465 15 -43 -8 -81 -12 -86 -10 -4 3 -10 1
-14 -5 -4 -6 -10 -8 -15 -5 -25 16 180 242 279 308 80 53 83 33 4 -22 -70 -49
-221 -199 -244 -242 -7 -13 35 26 93 86 59 61 134 128 167 150 33 22 61 45 61
51 0 20 -26 23 -56 8z M2527 868 c7 -75 0 -101 -44 -149 -44 -48 -106 -82
-186 -99 -31 -7 -55 -15 -53 -18 8 -7 108 19 161 43 55 25 108 75 124 118 13
33 13 113 1 142 -5 12 -6 -2 -3 -37z M1282 883 c3 -15 400 -262 423 -263 12 0
-49 42 -122 84 -250 146 -325 195 -281 184 7 -1 105 -59 216 -127 112 -68 205
-121 208 -118 8 7 -407 257 -428 257 -13 0 -18 -6 -16 -17z M1833 871 c-43
-31 -86 -81 -78 -89 3 -3 12 4 21 17 22 30 54 60 89 82 17 10 25 19 19 19 -6
0 -29 -13 -51 -29z M1069 763 c42 -80 377 -369 496 -428 98 -49 147 -54 221
-22 33 14 90 29 127 32 86 8 193 38 258 70 59 30 116 79 116 99 0 16 -65 47
-95 45 -9 0 1 -7 23 -15 55 -20 62 -30 39 -55 -57 -63 -209 -122 -347 -135
-42 -3 -96 -17 -129 -31 -69 -31 -111 -27 -197 16 -89 46 -274 194 -405 326
-66 66 -114 110 -107 98z M2050 596 c0 -2 29 -23 65 -46 36 -23 65 -44 65 -45
0 -8 -99 -63 -140 -78 -64 -23 -167 -46 -176 -38 -4 3 -4 1 -1 -6 20 -33 327
81 327 121 0 8 -28 32 -63 55 -59 38 -77 47 -77 37z M2563 585 c-16 -27 -165
-143 -246 -191 -94 -56 -121 -69 -197 -95 -50 -17 -51 -18 -15 -13 78 11 259
110 373 205 69 57 98 68 85 31 -5 -15 -4 -15 10 -2 24 23 32 66 13 73 -9 3
-19 0 -23 -8z m23 -21 c-3 -9 -6 -18 -6 -20 0 -3 -4 -3 -10 1 -11 7 -2 35 12
35 6 0 7 -7 4 -16z"/>
</g>
</svg>
