<?xml version="1.0" encoding="UTF-8"?>
<!-- Generator: visioncortex VTracer 0.6.4 -->
<svg version="1.1" xmlns="http://www.w3.org/2000/svg" width="1400" height="1000">
<path d="M0 0 C462 0 924 0 1400 0 C1400 330 1400 660 1400 1000 C938 1000 476 1000 0 1000 C0 670 0 340 0 0 Z " fill="#FEFEFD" transform="translate(0,0)"/>
<path d="M0 0 C-6.7 5.6 -13.6 10.4 -21 15 C-24.3 17.3 -27.7 19.7 -31 22 C-34 24 -34 24 -37 26 C-37.3 26.7 -37.7 27.3 -38 28 C-34.9 27.9 -31.8 27.9 -28.6 27.8 C-18 27.8 -7.6 28.8 2.9 30.1 C8.8 30.9 14.6 31.4 20.4 31.9 C31.6 32.9 42.7 34.3 53.9 35.8 C66.3 37.4 78.7 39 91.1 40.4 C118.3 43.7 145.1 47.9 172 53 C174.4 53.4 176.8 53.9 179.3 54.3 C195.7 57.5 211.8 61.7 228 66 C235.7 68 243.1 69.9 251 71 C251 74 251 74 244.8 78.7 C238.1 83.7 238.1 83.7 233 89 C235 89.7 237 90.3 239 91 C244.3 93.6 249.7 96.3 255 99 C260.8 101.7 266.5 104.4 272.3 107.1 C287.7 114.4 302.9 122 318 130 C319.7 130.9 321.3 131.7 323 132.6 C327.7 135.1 332.4 137.5 337 140 C339.8 141.5 339.8 141.5 342.7 143 C362.5 153.5 381.4 165.4 400 178 C404 180.7 404 180.7 408.1 183.4 C434 201.8 434 201.8 434 209 C417.2 209 400.3 209 383 209 C385.5 216.4 385.5 216.4 388 224 C389.4 232.2 389.3 240.3 389.3 248.5 C389.3 250.2 389.4 251.8 389.4 253.6 C389.5 273.7 383.3 290.1 370.9 306.1 C364.2 315 360.1 324 355.8 334.2 C346.2 356.7 346.2 356.7 340 365 C339.5 368.9 339.5 368.9 346 370.5 C354.2 374.1 362.1 377.9 370 382 C371.8 382.9 373.6 383.8 375.4 384.8 C457 427.6 457 427.6 457 445 C458.3 445.7 459.6 446.3 461 447 C463.4 449.6 465.7 452.3 468 455 C469.7 456.7 471.3 458.5 473.1 460.2 C527 521.6 533.4 604.7 501 678 C499.7 680.9 499.7 680.9 498.4 683.9 C477.2 731.3 449.3 775.3 408 808 C405.4 810.1 402.8 812.3 400.2 814.4 C366.9 841.4 328.9 861.3 288 874 C286.3 874.5 284.5 875.1 282.7 875.6 C247.8 886 212.5 890.4 176.2 890.3 C174 890.3 171.7 890.3 169.5 890.3 C129.8 890 91.8 884.3 53.4 874.6 C42.3 871.8 35.4 870.5 24.5 874.2 C-38.5 894.6 -99.8 867.2 -147.7 825.1 C-160.1 814.7 -173 807.1 -187.8 800.6 C-189.5 799.9 -191.1 799.2 -192.8 798.4 C-208.9 791.4 -225.3 785.5 -242 780 C-244.5 779.2 -247 778.3 -249.5 777.5 C-273.8 769.5 -297.7 763.8 -323 760 C-325 759.7 -327.1 759.4 -329.2 759.1 C-377.5 751.9 -426.3 755.7 -473 770 C-476.1 770.9 -479.1 771.9 -482.2 772.8 C-508 782.2 -530.6 795.6 -550 815 C-550.7 815 -551.3 815 -552 815 C-550.6 756.8 -513 700.5 -476.1 658 C-471.8 653.2 -471.8 653.2 -468 648 C-467.3 648 -466.7 648 -466 648 C-465.3 646.7 -464.7 645.4 -464 644 C-461.5 641.3 -459 638.8 -456.4 636.2 C-454.9 634.7 -453.4 633.1 -451.8 631.5 C-449.3 629.1 -449.3 629.1 -446.9 626.7 C-445.3 625.1 -443.7 623.5 -442 621.9 C-435.2 615 -428.3 608.3 -421 602 C-419.5 600.6 -417.9 599.2 -416.4 597.8 C-410.1 592.2 -403.6 587.1 -397 582 C-395.6 580.9 -394.1 579.8 -392.7 578.6 C-385.3 572.9 -378.1 567.5 -370 563 C-371.3 557.7 -373.9 553.4 -376.5 548.5 C-413.2 478.6 -413.2 478.6 -391 449 C-382.6 442.7 -374.8 439.7 -365 436 C-359.9 432.4 -359.9 432.4 -357.2 427.9 C-345.3 410 -333.9 405.8 -313 406 C-310.7 405.7 -308.4 405.3 -306 405 C-308.5 400.6 -311.1 396.3 -313.9 392.1 C-336.2 356.8 -353.6 319.2 -362.1 278.2 C-362.8 275 -363.5 271.9 -364.1 268.6 C-365.4 262 -366.5 255.5 -367.5 248.8 C-369.1 239.1 -372.4 232.6 -377 224 C-395.7 179.4 -391.4 135.2 -357 99 C-355.3 97.2 -353.7 95.5 -351.9 93.6 C-276.2 21.9 -150.7 5 -50.9 1.4 C-44.6 1.1 -38.2 0.9 -31.9 0.6 C-29.1 0.5 -26.4 0.4 -23.5 0.3 C-18.8 0.1 -14 -0.2 -9.3 -0.6 C-4 -1 -4 -1 0 0 Z " fill="#FDB71D" transform="translate(697,47)"/>
<path d="M0 0 C-6.7 5.6 -13.6 10.4 -21 15 C-24.3 17.3 -27.7 19.7 -31 22 C-34 24 -34 24 -37 26 C-37.3 26.7 -37.7 27.3 -38 28 C-34.9 27.9 -31.8 27.9 -28.6 27.8 C-18 27.8 -7.6 28.8 2.9 30.1 C8.8 30.9 14.6 31.4 20.4 31.9 C31.6 32.9 42.7 34.3 53.9 35.8 C66.3 37.4 78.7 39 91.1 40.4 C118.3 43.7 145.1 47.9 172 53 C174.4 53.4 176.8 53.9 179.3 54.3 C195.7 57.5 211.8 61.7 228 66 C235.7 68 243.1 69.9 251 71 C251 74 251 74 244.8 78.7 C238.1 83.7 238.1 83.7 233 89 C235 89.7 237 90.3 239 91 C244.3 93.6 249.7 96.3 255 99 C260.8 101.7 266.5 104.4 272.3 107.1 C287.7 114.4 302.9 122 318 130 C319.7 130.9 321.3 131.7 323 132.6 C327.7 135.1 332.4 137.5 337 140 C339.8 141.5 339.8 141.5 342.7 143 C362.5 153.5 381.4 165.4 400 178 C404 180.7 404 180.7 408.1 183.4 C434 201.8 434 201.8 434 209 C417.2 209 400.3 209 383 209 C385.5 216.4 385.5 216.4 388 224 C389.4 232.2 389.3 240.3 389.3 248.5 C389.3 250.2 389.4 251.8 389.4 253.6 C389.5 273.7 383.3 290.1 370.9 306.1 C364.2 315 360.1 324 355.8 334.2 C346.2 356.7 346.2 356.7 340 365 C339.5 368.9 339.5 368.9 346 370.5 C354.2 374.1 362.1 377.9 370 382 C371.8 382.9 373.6 383.8 375.4 384.8 C457 427.6 457 427.6 457 445 C458.3 445.7 459.6 446.3 461 447 C463.4 449.6 465.7 452.3 468 455 C469.7 456.7 471.3 458.5 473.1 460.2 C527 521.6 533.4 604.7 501 678 C499.7 680.9 499.7 680.9 498.4 683.9 C477.2 731.3 449.3 775.3 408 808 C405.4 810.1 402.8 812.3 400.2 814.4 C366.9 841.4 328.9 861.3 288 874 C286.3 874.5 284.5 875.1 282.7 875.6 C247.8 886 212.5 890.4 176.2 890.3 C174 890.3 171.7 890.3 169.5 890.3 C129.8 890 91.8 884.3 53.4 874.6 C42.3 871.8 35.4 870.5 24.5 874.2 C-38.5 894.6 -99.8 867.2 -147.7 825.1 C-160.1 814.7 -173 807.1 -187.8 800.6 C-189.5 799.9 -191.1 799.2 -192.8 798.4 C-208.9 791.4 -225.3 785.5 -242 780 C-244.5 779.2 -247 778.3 -249.5 777.5 C-273.8 769.5 -297.7 763.8 -323 760 C-325 759.7 -327.1 759.4 -329.2 759.1 C-377.5 751.9 -426.3 755.7 -473 770 C-476.1 770.9 -479.1 771.9 -482.2 772.8 C-508 782.2 -530.6 795.6 -550 815 C-550.7 815 -551.3 815 -552 815 C-550.6 756.8 -513 700.5 -476.1 658 C-471.8 653.2 -471.8 653.2 -468 648 C-467.3 648 -466.7 648 -466 648 C-465.3 646.7 -464.7 645.4 -464 644 C-461.5 641.3 -459 638.8 -456.4 636.2 C-454.9 634.7 -453.4 633.1 -451.8 631.5 C-449.3 629.1 -449.3 629.1 -446.9 626.7 C-445.3 625.1 -443.7 623.5 -442 621.9 C-435.2 615 -428.3 608.3 -421 602 C-419.5 600.6 -417.9 599.2 -416.4 597.8 C-410.1 592.2 -403.6 587.1 -397 582 C-395.6 580.9 -394.1 579.8 -392.7 578.6 C-385.3 572.9 -378.1 567.5 -370 563 C-371.3 557.7 -373.9 553.4 -376.5 548.5 C-413.2 478.6 -413.2 478.6 -391 449 C-382.6 442.7 -374.8 439.7 -365 436 C-359.9 432.4 -359.9 432.4 -357.2 427.9 C-345.3 410 -333.9 405.8 -313 406 C-310.7 405.7 -308.4 405.3 -306 405 C-308.5 400.6 -311.1 396.3 -313.9 392.1 C-336.2 356.8 -353.6 319.2 -362.1 278.2 C-362.8 275 -363.5 271.9 -364.1 268.6 C-365.4 262 -366.5 255.5 -367.5 248.8 C-369.1 239.1 -372.4 232.6 -377 224 C-395.7 179.4 -391.4 135.2 -357 99 C-355.3 97.2 -353.7 95.5 -351.9 93.6 C-276.2 21.9 -150.7 5 -50.9 1.4 C-44.6 1.1 -38.2 0.9 -31.9 0.6 C-29.1 0.5 -26.4 0.4 -23.5 0.3 C-18.8 0.1 -14 -0.2 -9.3 -0.6 C-4 -1 -4 -1 0 0 Z M-93 28 C-99.6 29 -106.3 29.9 -112.9 30.8 C-135.6 33.8 -157.8 37.6 -179.8 43.6 C-184.1 44.7 -188.3 45.8 -192.6 46.8 C-256.3 63.7 -347.6 103.6 -342 182 C-338.2 203.2 -327.9 219.9 -314 236 C-312.5 237.8 -311 239.5 -309.4 241.3 C-277.5 275 -233.5 296.6 -190.4 312 C-185 314 -185 314 -181 316 C-180 316 -179 316 -178 316 C-180.7 310.6 -184.4 308.4 -189.3 304.9 C-191.1 303.5 -192.9 302.2 -194.8 300.8 C-196.5 299.6 -198.2 298.3 -200 297 C-208.5 290.6 -216.8 283.9 -225.1 277.2 C-233.8 270.1 -242.8 263.4 -252 257 C-260 251 -260 251 -261 249 C-258.2 250.4 -255.4 251.8 -252.6 253.2 C-240.5 259 -228 263.8 -215.6 268.6 C-204.8 272.9 -194.2 277.3 -183.5 281.8 C-163.5 290.3 -143.5 298.4 -123.4 306.6 C-112.9 310.8 -102.4 315.1 -92 319.5 C-77.3 325.6 -62.5 331.6 -47.7 337.5 C2.6 358 2.6 358 22.5 366.7 C28.6 369.3 34.8 371.6 41 374 C44.5 375.5 44.5 375.5 48 377 C49 377 50 377 51 377 C51 377.7 51 378.3 51 379 C49.7 378.7 48.4 378.3 47 378 C44.7 377.9 42.5 377.8 40.1 377.6 C31.9 377.1 23.8 376.1 15.7 374.9 C7.9 373.8 0 372.9 -7.8 371.9 C-54.3 366 -100.4 358.7 -146 348 C-150.6 347 -150.6 347 -155.3 345.9 C-181.4 339.7 -207.1 332 -232.6 323.7 C-237.3 322.2 -242 320.8 -246.8 319.3 C-253.6 317.1 -260.3 314.6 -267 312 C-268 312 -269 312 -270 312 C-268.6 317.6 -265.4 319.3 -261 323 C-258.2 325.9 -255.4 328.7 -252.6 331.6 C-244.3 340 -235.6 347.2 -226 354 C-223.7 355.6 -221.5 357.3 -219.1 358.9 C-190.3 376.9 -156.9 392.5 -123.1 397.6 C-114 399 -114 399 -113 401 C-114.6 401.7 -116.3 402.3 -118 403 C-119.6 403.8 -121.3 404.5 -123 405.3 C-145 415.2 -166 417.6 -190 418 C-188.2 422.5 -186.1 426.9 -184 431.2 C-176.1 448.5 -177.3 464.6 -180 483 C-178.3 484.4 -176.6 485.8 -174.8 487.2 C-163.1 498.9 -163.3 510.2 -163 526 C-151.8 534.3 -139.5 540.4 -126.9 546.2 C-117.4 550.7 -108.5 555.7 -99.5 560.9 C-90 566.3 -80.3 570.9 -70.5 575.6 C-61.4 580.3 -52.6 585.4 -43.8 590.6 C-38.8 593.5 -33.7 596.5 -28.6 599.3 C-22 603 -22 603 -21 604 C-15.6 604.6 -15.6 604.6 -11.8 600 C15.8 576.2 73.2 555.1 108 576 C105 575.3 102.1 574.7 99 574 C56.8 572.1 17.9 593.8 -7 627 C-7.8 636.5 -6.4 645.6 -5 655 C-10.2 649.8 -12.7 642.6 -16 636 C-22.1 624.9 -29.4 619.5 -40.6 613.9 C-48.8 609.7 -57 605.4 -65.1 600.9 C-74.5 595.8 -84 590.8 -93.5 585.9 C-98.6 583.2 -103.6 580.6 -108.7 577.9 C-115.1 574.5 -121.5 571.2 -128 568 C-175 544.6 -175 544.6 -175 537.6 C-175 535.2 -174.9 532.8 -174.9 530.3 C-174.9 526.8 -174.9 526.8 -174.9 523.2 C-175.2 503.8 -177.8 497.9 -194 487 C-194.7 487 -195.3 487 -196 487 C-195.7 494.3 -195.3 501.5 -195 509 C-210.1 496.4 -209.5 476.4 -209 458 C-208 457.7 -207 457.3 -206 457 C-203.1 463.5 -200.9 469.3 -199 476 C-197.7 476.3 -196.4 476.7 -195 477 C-187 448.9 -202.5 428.9 -224 411 C-230.1 409 -237.1 409.7 -243.5 409.5 C-259.7 409.1 -259.7 409.1 -263 408 C-276.5 408 -282.5 410.9 -292 420 C-299.5 426 -306.3 426.9 -315.8 428.4 C-327.3 430.6 -330.7 434.6 -337 444 C-345.9 456.4 -353.3 460.2 -368 464 C-383.2 471.9 -381.7 481.4 -377.6 497.3 C-361.6 547 -334.3 590.9 -289.4 619.1 C-283.3 623.5 -280.2 627.8 -276 634 C-269.2 642.1 -262.1 650.1 -255 658 C-253.9 659.3 -252.8 660.5 -251.7 661.8 C-246.6 667.6 -241.3 673.3 -236 679 C-234.8 680.3 -233.6 681.6 -232.4 682.9 C-226 689.7 -219.5 696.5 -212.9 703.1 C-206 710 -206 710 -201 716 C-198.3 718.4 -195.7 720.7 -193 723 C-190.7 725.3 -188.4 727.6 -186 730 C-181.2 734.3 -176.4 738.4 -171.5 742.5 C-166.6 746.6 -161.8 750.8 -157 755 C-149.8 761.2 -142.6 767.3 -135 773 C-133.4 774.3 -131.8 775.6 -130.1 777 C-90 809.8 -24.2 862 26 819 C30.3 816.9 36.2 817.5 40.9 817.2 C55.7 816.2 70.3 814.3 85 812 C87.8 811.6 90.7 811.1 93.6 810.7 C137.3 801.9 192 786.1 218 747 C217.5 740.7 217.5 740.7 208 739 C199.7 735.4 191.5 731.7 183.3 728.1 C176.4 724.8 176.4 724.8 170 724 C170 723 170 722 170 721 C172.6 721.7 175.3 722.3 178 723 C188.6 724.2 199.3 724.2 210 724.2 C211.7 724.2 213.5 724.2 215.3 724.2 C255.3 724.3 300.7 716.3 330 687 C331.7 685.4 333.3 683.7 335 682 C369.2 646.3 370.6 592.4 344 552 C336.5 543 328.4 536 319 529 C317.4 527.8 315.8 526.6 314.1 525.3 C296 513.6 275.7 506.4 255 501 C252.7 500.3 250.4 499.7 248 499 C241.3 500.3 238.3 503.7 233 508 C220.8 516.4 208.5 522.9 195 529 C192.7 530.1 190.4 531.1 188 532.2 C180.4 535.2 172.8 537.5 165 539.6 C155.3 541.6 155.3 541.6 147 546 C120.6 552.1 120.6 552.1 118 547 C120.6 546.7 123.3 546.3 126 546 C161.7 536.7 207.6 512.1 222 476 C213 477.7 204.1 479.8 195.1 481.9 C159.6 490 159.6 490 148 490 C149.7 489.4 151.5 488.8 153.2 488.2 C167.5 483 180.9 477.6 194 470 C196.2 468.8 198.3 467.5 200.6 466.2 C248.5 439.9 248.5 439.9 278 399 C272 400.9 272 400.9 266.6 403.3 C245.7 410.7 223.1 414 201 414 C200.7 413.3 200.3 412.7 200 412 C201.5 411.7 202.9 411.5 204.4 411.2 C233 405.1 321 367.7 321 330 C315.8 330.9 315.8 330.9 310.4 333.3 C301.8 336.5 293.1 338.6 284.2 340.8 C282.5 341.2 280.9 341.6 279.2 342 C275.1 343 271.1 344 267 345 C267 343 267 343 271.4 342 C312.2 329.7 358.9 297.5 356 250 C350 220.6 330.2 194.3 306 177 C306 176.3 306 175.7 306 175 C308.1 175.4 310.2 175.9 312.3 176.3 C321.4 178.1 330.4 179.6 339.5 181.1 C342.6 181.6 345.7 182.2 349 182.7 C354 183.5 359 184.3 364 185 C357.7 178.7 351.1 175.9 343 172 C340 170.4 336.9 168.8 333.9 167.2 C323.3 161.6 312.7 156.3 302 151 C299.5 149.7 297 148.5 294.5 147.2 C285.6 142.8 276.7 138.6 267.8 134.5 C266.1 133.8 264.5 133 262.8 132.2 C251.6 127.1 240.4 122.4 229 118 C227.2 117.3 225.4 116.5 223.5 115.7 C182.5 98.2 182.5 98.2 139 90 C139 89 139 88 139 87 C141.8 86.9 144.6 86.8 147.5 86.7 C156.5 86.2 165.1 84.7 174 83 C179 82.6 184 82.2 189 82 C189.3 78.5 189.3 78.5 180 78 C176 77.5 176 77.5 172 77 C164 76 164 76 155 74 C148.8 73.2 142.6 72.4 136.4 71.7 C132.7 71.2 129 70.8 125.3 70.4 C123.5 70.1 121.6 69.9 119.6 69.7 C114.3 69 108.9 68.4 103.6 67.7 C85.1 65.3 66.6 63.2 48.1 61.7 C40.5 61 32.9 60.3 25.4 59.6 C19.6 59 13.8 58.5 8 58 C5.3 57.7 5.3 57.7 2.5 57.5 C-43.3 53.2 -89 53.6 -135 54 C-129.1 50.4 -123.3 47.2 -117 44.2 C-100.8 37.8 -100.8 37.8 -89 27 C-91.9 26.6 -91.9 26.6 -93 28 Z " fill="#031C56" transform="translate(697,47)"/>
<path d="M0 0 C2.6 1.1 2.6 1.1 5.2 2.3 C7 3.1 8.8 3.9 10.6 4.7 C97.4 44.5 130.2 122.9 108 214.1 C102.6 233.6 95.1 251.6 85.2 269.3 C84 271.6 82.7 273.8 81.5 276.1 C72.5 291.1 62.8 305.3 51.2 318.3 C50.1 319.6 49 320.8 47.9 322.1 C37 334.4 25.4 345.6 12.2 355.3 C10.9 356.3 9.6 357.2 8.3 358.2 C-39.5 393 -96.5 412 -154.8 418.3 C-157.2 418.6 -157.2 418.6 -159.6 418.9 C-172.9 420.3 -186.1 420.6 -199.5 420.5 C-201.6 420.5 -203.6 420.5 -205.7 420.5 C-220.5 420.4 -220.5 420.4 -222.8 419.3 C-221.8 416.3 -221.8 416.3 -215.6 414.5 C-196.7 408.6 -176.1 401.7 -159.1 391.5 C-153.9 388.3 -148.5 385.7 -143 383.2 C-131.8 377.9 -121.3 371.9 -110.8 365.3 C-108.9 364.1 -107 362.9 -105.1 361.7 C-91.7 353.3 -79 344.4 -66.8 334.3 C-65.5 333.2 -64.2 332.1 -62.8 331 C-50.5 321 -38.9 310.6 -27.8 299.3 C-19.8 291.3 -19.8 291.3 -14.8 288.3 C-16 299.2 -18.3 308.9 -21.8 319.3 C-23 322.8 -23 322.8 -24.1 326.3 C-24.7 328 -25.3 329.6 -25.8 331.3 C33.7 291.6 53.4 194.8 26.2 131.3 C8.1 97.1 -25.6 71.7 -60.8 57.3 C-67.8 54.3 -67.8 54.3 -67.8 52.3 C-23.3 49.9 24.3 72.5 63.2 92.3 C64.8 93 66.5 93.6 68.2 94.3 C60.8 82.1 45.6 73.7 33.5 66.6 C28.2 63.3 28.2 63.3 23.8 60.1 C17 55.6 10.1 52.4 2.6 49.1 C-0.1 47.9 -2.8 46.7 -5.5 45.5 C-7.9 44.5 -10.3 43.4 -12.8 42.3 C-17.3 40.3 -17.3 40.3 -21.8 38.3 C-30 35.1 -38.4 32.7 -46.8 30.3 C-49.8 29.3 -52.8 28.3 -55.8 27.3 C-65.8 24.7 -75.8 22.4 -85.8 20.3 C-83.8 16.3 -83.8 16.3 -79.3 12.7 C-41.7 -17.9 -41.7 -17.9 0 0 Z " fill="#E11622" transform="translate(1050.828125,472.69140625)"/>
<path d="M0 0 C2.5 2.1 2.5 2.1 5 4.3 C6.4 5.4 7.7 6.5 9.1 7.7 C44.3 40.6 46.1 92.8 24 133.3 C-1.9 170.1 -39.4 185 -83 190.3 C-84.4 190.5 -85.9 190.7 -87.4 190.9 C-95.9 191.5 -104.5 191.5 -113.1 191.5 C-115.7 191.5 -115.7 191.5 -118.4 191.5 C-144.2 191.6 -144.2 191.6 -154 188.3 C-154.5 192.6 -154.5 192.6 -146 193.3 C-141.8 195 -137.7 196.8 -133.6 198.7 C-131.4 199.6 -129.3 200.6 -127.1 201.6 C-125.1 202.5 -123.1 203.4 -121 204.3 C-112.6 208.2 -112.6 208.2 -106 210.3 C-113 245.6 -176.3 263.9 -206 272.3 C-209 273.2 -212 274 -215.1 274.9 C-230.1 278.6 -245.6 280.2 -261 282.3 C-263 282.6 -265 283 -267 283.3 C-274.4 283.7 -281.7 284 -289.1 284.3 C-296.7 284.8 -296.7 284.8 -304 291.3 C-331.3 308.4 -360.6 303.2 -388 289.3 C-389.8 288.4 -391.5 287.5 -393.3 286.6 C-416.7 274.3 -436.9 258.2 -457.2 241.5 C-461.4 238 -465.7 234.7 -470 231.3 C-477.6 225.2 -484.8 218.9 -492 212.3 C-493.7 210.9 -495.4 209.5 -497.2 208.1 C-503.5 202.9 -509.4 197.4 -515.3 191.8 C-518.4 188.8 -521.7 186.1 -525 183.3 C-527.3 180.7 -529.7 178 -532 175.3 C-535.6 171.6 -539.3 168 -543 164.3 C-549.2 158.1 -555.3 151.9 -561 145.3 C-563.3 143 -565.6 140.7 -568 138.3 C-570.3 135.7 -572.7 133 -575 130.3 C-576.6 128.6 -578.2 126.8 -579.9 125 C-584.8 119.6 -589.4 114 -594 108.3 C-595.4 106.7 -596.9 105.1 -598.4 103.4 C-605 95.9 -605 95.9 -605 92.3 C-598.6 93.2 -594.2 94.7 -588.4 97.1 C-580.7 100.3 -573 103 -565 105.3 C-563.1 105.9 -561.2 106.4 -559.3 107 C-543.3 111.6 -527.7 115.1 -511 116.3 C-512.8 121.6 -519.5 120.5 -524.6 121.3 C-526.9 121.7 -529.2 122.1 -531.6 122.4 C-538 123.3 -538 123.3 -545 123.3 C-542.7 126 -540.3 128.7 -538 131.3 C-536.4 133.1 -534.9 134.9 -533.2 136.8 C-528.1 142.2 -522.8 146.7 -517 151.3 C-514 154.3 -511 157.3 -508 160.3 C-504.4 163.4 -500.7 166.4 -497 169.3 C-493.2 172.4 -493.2 172.4 -489.3 175.6 C-481.4 182.1 -473.2 188.2 -465 194.3 C-463.6 195.4 -462.2 196.4 -460.7 197.5 C-449.9 205.5 -438.6 212.5 -427 219.3 C-424.5 220.9 -422 222.4 -419.4 224 C-391.3 240.3 -360.7 251.4 -327.9 251.6 C-325.3 251.6 -322.7 251.6 -320 251.6 C-302.1 250.9 -286.7 245.5 -271 237.3 C-272.1 242.7 -273.9 246.8 -276.2 251.7 C-277 253.3 -277.8 255 -278.6 256.6 C-281 261.3 -281 261.3 -286 268.3 C-256.5 268.3 -225.4 259.1 -198 248.3 C-196.2 247.6 -194.4 246.9 -192.6 246.2 C-164.9 235 -164.9 235 -146 217.3 C-148.3 216 -150.6 214.7 -153 213.3 C-162.7 206.8 -172 199.8 -181 192.3 C-182.6 191 -184.3 189.8 -186 188.4 C-190 185.3 -190 185.3 -193 182.3 C-194.6 181.3 -196.3 180.3 -198 179.3 C-198 178.3 -198 177.3 -198 176.3 C-193.1 176.6 -193.1 176.6 -188.2 176.8 C-173.9 177.4 -159.7 177.4 -145.4 177.4 C-143.2 177.4 -140.9 177.4 -138.6 177.5 C-136.5 177.4 -134.3 177.4 -132.1 177.4 C-130.2 177.4 -128.3 177.4 -126.3 177.4 C-84.9 176.4 -22.8 153.8 -9.2 110.6 C-6.5 92.2 -5.6 72.2 -14 55.3 C-14.7 52.7 -15.3 50 -16 47.3 C-19.5 47 -19.5 47 -20 56.3 C-23.5 64.1 -26.5 69.8 -34 74.3 C-34.7 75.3 -35.3 76.3 -36 77.3 C-41 77.3 -41 77.3 -42.6 68.9 C-51.7 32.2 -95.2 23.3 -128 20.3 C-129.3 20 -130.6 19.7 -132 19.3 C-135.7 19 -139.4 18.7 -143.1 18.4 C-145.3 18.2 -147.5 18 -149.8 17.9 C-161.2 17 -172.6 16.1 -184 15.3 C-184 15 -184 14.7 -184 14.3 C-180.5 13.8 -180.5 13.8 -177 13.3 C-173.7 12 -170.3 10.7 -167 9.3 C-160.7 7.2 -154.3 5.3 -148 3.3 C-41.3 -32.3 -41.3 -32.3 0 0 Z " fill="#A1791C" transform="translate(1021,579.6875)"/>
<path d="M0 0 C6 1 10.4 2.8 16 5 C21.3 6.7 26.7 8.4 32 10 C36 11.3 40 12.6 44 13.9 C56.3 17.8 68.6 21.5 81 25 C82.9 25.6 84.9 26.1 86.9 26.7 C114.3 34.3 142.2 40 170 46 C168.7 46.3 167.4 46.7 166 47 C174.1 60.5 200.6 65.1 215 70 C226.6 74.1 238 78.4 249.4 83 C261.2 87.7 273 91.9 285 96 C299 101 299 101 300 105 C291.9 111 284.3 116 275 120 C273 121 273 121 271 122 C268.2 122.5 268.2 122.5 265.4 123 C257.7 125.1 251.3 128.3 244.3 132.2 C210.8 150 210.8 150 203 150 C202.7 151 202.3 152 202 153 C203.5 153.2 205.1 153.5 206.7 153.7 C208.8 154.1 210.9 154.4 213.1 154.8 C215.2 155.1 217.3 155.4 219.4 155.7 C259.4 162.4 299.3 170.5 338.6 180.4 C348.7 183 358.7 185.2 369 187 C369 190 369 190 364 192 C361 192.3 358.1 192.7 355 193 C354.2 199.1 354.2 199.1 363 201 C363 202.3 363 203.6 363 205 C360.6 205.1 358.3 205.2 355.8 205.4 C348.3 205.6 348.3 205.6 343 208 C340 208.3 337.1 208.7 334 209 C331 210.3 328.1 211.6 325 213 C321.1 214.2 317.3 215.3 313.4 216.5 C284.8 224.7 256.4 233.3 229 245 C226.4 245.9 223.8 246.9 221.1 247.9 C212.8 250.8 212.8 250.8 205 256 C203 256.7 201 257.3 199 258 C198.7 259.3 198.3 260.6 198 262 C186.4 258.1 175.6 251.5 165 245.4 C157.7 241.4 150.4 237.8 142.9 234.3 C107.1 217.3 107.1 217.3 106.8 204.2 C106 188.7 102.2 181 90 171 C90.3 168.7 90.7 166.5 91 164.1 C93.5 141.5 90.7 127.5 80 108 C80 107.3 80 106.7 80 106 C81.5 106 83.1 105.9 84.7 105.9 C110.2 105.2 132.5 101.8 155 89 C155.7 89 156.3 89 157 89 C155.7 85.8 155.7 85.8 147.8 85.9 C91.2 76.9 42.2 45.2 3 5 C2 4 1 3 0 2 C0 1.3 0 0.7 0 0 Z " fill="#9D781B" transform="translate(427,359)"/>
<path d="M0 0 C-6.7 5.6 -13.6 10.4 -21 15 C-24.3 17.3 -27.7 19.7 -31 22 C-34 24 -34 24 -37 26 C-37.3 26.7 -37.7 27.3 -38 28 C-34.9 27.9 -31.8 27.9 -28.6 27.8 C-18 27.8 -7.6 28.8 2.9 30.1 C8.8 30.9 14.6 31.4 20.4 31.9 C31.6 32.9 42.7 34.3 53.9 35.8 C66.3 37.4 78.7 39 91.1 40.4 C118.3 43.7 145.1 47.9 172 53 C174.4 53.4 176.8 53.9 179.3 54.3 C195.7 57.5 211.8 61.7 228 66 C235.7 68 243.1 69.9 251 71 C251 74 251 74 244.8 78.7 C238.1 83.7 238.1 83.7 233 89 C235 89.7 237 90.3 239 91 C244.3 93.6 249.7 96.3 255 99 C260.8 101.7 266.5 104.4 272.3 107.1 C287.7 114.4 302.9 122 318 130 C319.7 130.9 321.3 131.7 323 132.6 C327.7 135.1 332.4 137.5 337 140 C339.8 141.5 339.8 141.5 342.7 143 C362.5 153.5 381.4 165.4 400 178 C404 180.7 404 180.7 408.1 183.4 C434 201.8 434 201.8 434 209 C417.2 209 400.3 209 383 209 C385.5 216.4 385.5 216.4 388 224 C389.4 232.2 389.3 240.3 389.3 248.5 C389.3 250.2 389.4 251.8 389.4 253.6 C389.5 273.7 383.3 290.1 370.9 306.1 C364.2 315 360.1 324 355.8 334.2 C346.2 356.7 346.2 356.7 340 365 C339.5 368.9 339.5 368.9 346 370.5 C354.2 374.1 362.1 377.9 370 382 C371.8 382.9 373.6 383.8 375.4 384.8 C457 427.6 457 427.6 457 445 C458.3 445.7 459.6 446.3 461 447 C463.4 449.6 465.7 452.3 468 455 C469.7 456.7 471.3 458.5 473.1 460.2 C527 521.6 533.4 604.7 501 678 C499.7 680.9 499.7 680.9 498.4 683.9 C477.2 731.3 449.3 775.3 408 808 C405.4 810.1 402.8 812.3 400.2 814.4 C366.9 841.4 328.9 861.3 288 874 C286.3 874.5 284.5 875.1 282.7 875.6 C247.8 886 212.5 890.4 176.2 890.3 C174 890.3 171.7 890.3 169.5 890.3 C129.8 890 91.8 884.3 53.4 874.6 C42.3 871.8 35.4 870.5 24.5 874.2 C-38.5 894.6 -99.8 867.2 -147.7 825.1 C-160.1 814.7 -173 807.1 -187.8 800.6 C-189.5 799.9 -191.1 799.2 -192.8 798.4 C-208.9 791.4 -225.3 785.5 -242 780 C-244.5 779.2 -247 778.3 -249.5 777.5 C-273.8 769.5 -297.7 763.8 -323 760 C-325 759.7 -327.1 759.4 -329.2 759.1 C-377.5 751.9 -426.3 755.7 -473 770 C-476.1 770.9 -479.1 771.9 -482.2 772.8 C-508 782.2 -530.6 795.6 -550 815 C-550.7 815 -551.3 815 -552 815 C-550.6 756.8 -513 700.5 -476.1 658 C-471.8 653.2 -471.8 653.2 -468 648 C-467.3 648 -466.7 648 -466 648 C-465.3 646.7 -464.7 645.4 -464 644 C-461.5 641.3 -459 638.8 -456.4 636.2 C-454.9 634.7 -453.4 633.1 -451.8 631.5 C-449.3 629.1 -449.3 629.1 -446.9 626.7 C-445.3 625.1 -443.7 623.5 -442 621.9 C-435.2 615 -428.3 608.3 -421 602 C-419.5 600.6 -417.9 599.2 -416.4 597.8 C-410.1 592.2 -403.6 587.1 -397 582 C-395.6 580.9 -394.1 579.8 -392.7 578.6 C-385.3 572.9 -378.1 567.5 -370 563 C-371.3 557.7 -373.9 553.4 -376.5 548.5 C-413.2 478.6 -413.2 478.6 -391 449 C-382.6 442.7 -374.8 439.7 -365 436 C-359.9 432.4 -359.9 432.4 -357.2 427.9 C-345.3 410 -333.9 405.8 -313 406 C-310.7 405.7 -308.4 405.3 -306 405 C-308.5 400.6 -311.1 396.3 -313.9 392.1 C-336.2 356.8 -353.6 319.2 -362.1 278.2 C-362.8 275 -363.5 271.9 -364.1 268.6 C-365.4 262 -366.5 255.5 -367.5 248.8 C-369.1 239.1 -372.4 232.6 -377 224 C-395.7 179.4 -391.4 135.2 -357 99 C-355.3 97.2 -353.7 95.5 -351.9 93.6 C-276.2 21.9 -150.7 5 -50.9 1.4 C-44.6 1.1 -38.2 0.9 -31.9 0.6 C-29.1 0.5 -26.4 0.4 -23.5 0.3 C-18.8 0.1 -14 -0.2 -9.3 -0.6 C-4 -1 -4 -1 0 0 Z M-48.2 8.9 C-61.3 9.9 -74.4 10.7 -87.5 11.4 C-94.8 12 -101.8 12.9 -109 14 C-113 14.3 -116.9 14.7 -120.9 14.9 C-130.4 15.7 -139.6 17.1 -149 19 C-151 19.3 -152.9 19.6 -154.9 19.9 C-165.7 21.6 -176.3 23.8 -187 26 C-189 26.4 -191 26.8 -193.1 27.3 C-274.2 45 -380.5 83.7 -380.4 181.6 C-379.8 192.3 -377.1 201.4 -373.1 211.2 C-372.5 212.8 -371.8 214.5 -371.1 216.2 C-369.1 221.1 -369.1 221.1 -366.4 225.7 C-360.4 236.5 -359.1 249 -357 261 C-346.8 311.5 -330.2 358.8 -297 399 C-300.5 416.3 -315.9 415.2 -329.7 415.4 C-340.5 416.6 -346.5 425.2 -352.1 433.8 C-358.6 443.3 -367.3 445.8 -377.8 449.2 C-395.9 457.2 -393.7 476.4 -390 493 C-384.6 512.2 -377.5 529.4 -368 547 C-361 560.4 -361 560.4 -361 566 C-363.3 567.3 -365.6 568.6 -368 570 C-376.9 576 -385.4 582.5 -394 589 C-397.3 591.5 -397.3 591.5 -400.8 594.1 C-407.1 599.1 -413.1 604.5 -419 610 C-420.3 611.1 -421.5 612.2 -422.8 613.3 C-430.4 620 -437.3 627.2 -444.4 634.2 C-446 635.8 -447.6 637.3 -449.2 638.9 C-456.9 646.7 -464.3 654.4 -471 663 C-473 665.4 -475.1 667.9 -477.2 670.4 C-484.8 679.8 -491.4 689.8 -498 700 C-499.2 701.9 -500.5 703.8 -501.8 705.8 C-518.9 733.4 -530.6 761.3 -541 792 C-534.8 790.3 -534.8 790.3 -530 786 C-482.4 759.6 -434.4 746.9 -380.1 746.7 C-375.8 746.6 -375.8 746.6 -371.4 746.6 C-333.9 746.5 -297.7 753.5 -262 765 C-259.3 765.8 -256.6 766.5 -253.9 767.3 C-175.2 791.1 -175.2 791.1 -149 814 C-135.6 824.9 -122 835.3 -107 844 C-103.6 846.1 -103.6 846.1 -100.2 848.3 C-62 870.2 -12.4 883.1 28.9 861.4 C36.9 859.2 43 861.8 51 864 C74.7 870.2 98.6 875.2 123 878 C124.8 878.2 126.6 878.4 128.4 878.6 C195 885.1 265.5 878.7 327 851 C329.4 849.9 331.7 848.9 334.1 847.8 C379.7 826.4 379.7 826.4 410 795 C411.3 794.3 412.6 793.7 414 793 C416.3 790.3 418.7 787.7 421 785 C423.4 782.6 425.9 780.1 428.4 777.7 C434.4 771.7 439.8 765.7 445 759 C446.6 757 448.2 755 449.8 753 C456 744.6 461.5 735.9 467 727 C468.4 724.7 469.9 722.4 471.4 720.1 C474.9 714.2 478 708.2 481 702 C482.9 698.1 482.9 698.1 484.9 694.2 C486.9 690.1 486.9 690.1 489 686 C490.1 683.8 491.3 681.5 492.4 679.2 C527.2 599.3 517.6 513.6 455 451 C453 448.7 451 446.4 449 444 C445.4 441 441.7 438 438 435 C434.8 432.2 434.8 432.2 431.4 429.4 C426.1 424.9 420.8 420.9 415 417 C412.8 415.5 410.5 413.9 408.2 412.3 C400.3 407.2 392.2 402.4 384 397.8 C379.9 395.5 375.9 393.1 371.8 390.8 C360 384.2 347.5 379.1 335 374 C333.1 373.2 331.3 372.5 329.4 371.7 C325.5 369.9 325.5 369.9 323 370 C326 365 326 365 329.6 360.6 C340.6 346.6 348.6 331.4 355 315 C358.4 307.4 360.9 304.1 367 298 C385.7 269.3 388.3 226.4 367 198 C382.5 198 398 198 414 198 C414.3 197.3 414.7 196.7 415 196 C413.3 195 411.7 194 410 193 C402.3 188.1 394.6 183.1 387 178 C361.6 161.3 335.4 145.4 308 132 C304.9 130.4 301.9 128.8 298.8 127.1 C289.3 122.1 279.7 117.5 270 113 C267.7 111.9 265.4 110.8 263 109.7 C238.8 96.2 238.8 96.2 213 89 C213 86 213 86 218 84 C226.1 80.2 226.1 80.2 231 74 C217.7 70.2 204.5 67 191 64 C188.9 63.5 186.9 63.1 184.8 62.6 C167.8 58.9 150.9 55.9 133.7 53.4 C129.8 52.8 129.8 52.8 125.9 52.2 C96.4 47.7 96.4 47.7 66.8 44.5 C62 44 62 44 60 43 C56.3 42.6 52.7 42.2 49 41.8 C46.8 41.6 44.5 41.4 42.2 41.2 C39.9 41 37.5 40.7 35.1 40.5 C30.5 40.1 25.9 39.6 21.3 39.2 C19.2 39 17.1 38.8 15 38.6 C10 38 10 38 6 37 C0.8 36.5 -4.4 36 -9.6 35.6 C-18.9 34.7 -28.2 33.9 -37.6 32.8 C-45.8 32 -53.8 31.8 -62 32 C-62 29 -62 29 -57 28 C-52.6 24.4 -48.3 20.7 -44 17 C-42.3 15.7 -40.5 14.3 -38.8 12.9 C-35.1 10.5 -35.1 10.5 -34 8 C-38.7 8 -43.5 8.5 -48.2 8.9 Z " fill="#C28503" transform="translate(697,47)"/>
<path d="M0 0 C2.5 0.7 5.1 1.5 7.7 2.2 C32.6 10.5 58.7 20.3 75 42 C82.5 43.7 89.3 44.2 97 44.2 C99 44.2 101 44.2 103.1 44.2 C108.5 44 113.7 43.6 119 43 C110.1 78.8 -27 86.4 -56.7 84.5 C-103.7 79.7 -162.5 69.3 -195 32 C-204.5 22.5 -226 27.3 -239 28 C-232 7 -176.3 -4.3 -157.6 -8.1 C-154.1 -8.9 -154.1 -8.9 -150.4 -9.6 C-102.3 -18.5 -46.8 -13.9 0 0 Z " fill="#041851" transform="translate(739,196)"/>
<path d="M0 0 C1.3 1.8 2.6 3.5 3.9 5.4 C15.9 21 31.1 33 48 43 C55.2 48.2 57.5 51.5 62 59 C64.3 62.5 64.3 62.5 66.7 66 C74 77.1 81.1 88.3 88.1 99.6 C91.2 104.8 94.5 109.9 97.8 114.9 C103 123 103 123 106 129 C108.3 132 110.6 135 113 138 C118 145 118 145 118 148 C113.9 147 110 145.7 106 144.4 C52.9 127.5 -4.6 120.7 -60 128.2 C-66.4 129.1 -72.8 129.5 -79.2 129.9 C-98.8 131.3 -117.3 136.4 -136 142 C-137.8 142.6 -139.7 143.1 -141.6 143.7 C-143.1 144.1 -144.5 144.6 -146 145 C-141.1 125.4 -120 103.4 -107 88 C-105.2 85.9 -103.5 83.8 -101.6 81.6 C-85.6 62.9 -68.7 44.8 -49 30 C-46.9 28.2 -44.8 26.4 -42.6 24.5 C-10.6 -2.1 -10.6 -2.1 0 0 Z " fill="#E31322" transform="translate(355,634)"/>
<path d="M0 0 C21.6 3.6 42.6 13.1 63 21 C67 22.5 67 22.5 71 24 C167 70.8 167 70.8 155.2 112.2 C132.6 170.7 21.2 170.7 -31 171 C-34.1 171 -37.3 171.1 -40.5 171.1 C-60.4 171.3 -80.1 170.6 -100 169 C-102.7 168.8 -105.4 168.6 -108.1 168.3 C-143.2 165.3 -178.2 161 -212.5 153.2 C-216.2 152.4 -219.8 151.6 -223.5 150.9 C-266.8 141.9 -309.8 128.6 -349 108 C-350.4 107.2 -351.9 106.5 -353.4 105.7 C-380.7 91 -419.9 66.7 -414 31 C-412 31 -412 31 -410.9 35.3 C-383.8 117.4 -227.6 136.3 -155 144 C-152.3 144.3 -149.5 144.6 -146.7 144.9 C-78.5 152.3 62.8 164.1 106 97 C116.2 56 71.8 32.9 40.5 18.4 C30.9 14.2 21.2 10.4 11.4 6.6 C0 2 0 2 0 0 Z " fill="#051651" transform="translate(819,171)"/>
<path d="M0 0 C0 3 0 3 -7.7 4.4 C-11.1 5 -14.5 5.6 -17.9 6.2 C-19.6 6.6 -21.3 6.9 -23 7.2 C-75.2 15.5 -75.2 15.5 -102.3 53.9 C-100.3 94.2 -38.5 115.6 -7 127 C-5.2 127.7 -3.4 128.3 -1.6 129 C33.1 141.1 69.3 148 105.6 153.3 C107.3 153.6 108.9 153.8 110.6 154 C136.3 157.7 161.9 158.3 187.9 158.3 C191 158.3 194 158.3 197.2 158.4 C243 158.4 312.7 157.3 340 114 C340.3 114 340.7 114 341 114 C341 153.9 283.3 163.6 253 169 C245 170.2 237 171.1 229 172 C227.6 172.2 226.3 172.3 224.8 172.5 C216.6 173.2 208.3 173.2 200 173.2 C198.2 173.2 196.4 173.2 194.5 173.2 C190.5 173.2 186.6 173.2 182.7 173.2 C176.8 173.2 171 173.3 165.1 173.3 C143.8 173.4 123.1 172.6 102 170 C98 169.6 94.1 169.2 90.1 168.8 C35.5 162 -135.9 128.6 -147 62 C-147 25 -99.5 13.7 -70.5 8 C-61.4 6.4 -52.3 5.4 -43.1 4.4 C-41.2 4.2 -39.4 4 -37.5 3.8 C-25 2.4 -12.5 1.2 0 0 Z " fill="#06154C" transform="translate(564,132)"/>
<path d="M0 0 C-6.7 5.6 -13.6 10.4 -21 15 C-24.3 17.3 -27.7 19.7 -31 22 C-33 23.3 -35 24.6 -37 26 C-37.3 26.7 -37.7 27.3 -38 28 C-34.9 27.9 -31.8 27.9 -28.6 27.8 C-18 27.8 -7.6 28.8 2.9 30.1 C8.8 30.9 14.6 31.4 20.4 31.9 C31.6 32.9 42.7 34.3 53.9 35.8 C66.3 37.4 78.7 39 91.1 40.4 C118.3 43.7 145.1 47.9 172 53 C174.4 53.4 176.8 53.9 179.3 54.3 C195.7 57.5 211.8 61.7 228 66 C235.7 68 243.1 69.9 251 71 C251 74 251 74 244.8 78.7 C238.1 83.7 238.1 83.7 233 89 C235 89.7 237 90.3 239 91 C244.3 93.6 249.7 96.3 255 99 C260.8 101.7 266.5 104.4 272.3 107.1 C287.7 114.4 302.9 122 318 130 C319.7 130.9 321.3 131.7 323 132.6 C327.7 135.1 332.4 137.5 337 140 C339.8 141.5 339.8 141.5 342.7 143 C362.5 153.5 381.4 165.4 400 178 C404 180.7 404 180.7 408.1 183.4 C434 201.8 434 201.8 434 209 C417.2 209 400.3 209 383 209 C385.5 216.4 385.5 216.4 388 224 C389.4 232.2 389.3 240.3 389.3 248.5 C389.3 250.2 389.4 251.8 389.4 253.6 C389.5 273.7 383.3 290.1 370.9 306.1 C364.2 315 360.1 324 355.8 334.2 C346.2 356.7 346.2 356.7 340 365 C339.5 368.9 339.5 368.9 346 370.5 C354.2 374.1 362.1 377.9 370 382 C371.8 382.9 373.6 383.8 375.4 384.8 C457 427.6 457 427.6 457 445 C458.3 445.7 459.6 446.3 461 447 C463.4 449.6 465.7 452.3 468 455 C469.7 456.7 471.3 458.5 473.1 460.2 C527 521.6 533.4 604.7 501 678 C499.7 680.9 499.7 680.9 498.4 683.9 C477.2 731.3 449.3 775.3 408 808 C405.4 810.1 402.8 812.3 400.2 814.4 C366.9 841.4 328.9 861.3 288 874 C286.3 874.5 284.5 875.1 282.7 875.6 C255.8 883.6 228.2 889.3 200 889 C200 888.7 200 888.3 200 888 C201.5 887.9 203 887.8 204.6 887.6 C207.6 887.4 207.6 887.4 210.6 887.1 C212.6 887 214.6 886.8 216.6 886.6 C222.2 886.2 222.2 886.2 228 884 C233 883.3 238 882.7 243 882 C245 881.3 247 880.7 249 880 C253.6 879.1 253.6 879.1 258.2 878.2 C268.2 876.3 277.5 873.4 287 870 C290.6 868.8 294.2 867.6 297.9 866.4 C305.4 863.9 312.7 861.2 320 858 C321.6 857.3 323.2 856.6 324.9 855.9 C341.4 848.5 357.4 840.7 372 830 C373.8 828.8 375.7 827.7 377.6 826.5 C382.6 823.2 387.3 819.7 392 816 C399 812 399 812 401 812 C401 811 401 810 401 809 C412.3 799 412.3 799 415 799 C415 798.3 415 797.7 415 797 C416.3 796 417.7 795 419.1 793.9 C431.2 783.8 441.5 772.7 451 760 C452 758.7 453 757.3 454.1 756 C466 740.3 476.2 723.6 485 706 C486.3 703.4 487.6 700.7 489 698 C490.1 695.6 491.3 693.1 492.4 690.6 C494.4 686.3 496.5 682 498.7 677.8 C501.3 672.3 503.1 666.8 505 661 C506 658.7 507 656.4 508 654 C509.3 649.3 510.4 644.6 511.6 639.8 C512.2 637.3 512.8 634.8 513.4 632.3 C520.8 598.9 522.1 561.9 509 530 C508 527 507 524.1 506 521 C503.4 515.6 500.7 510.3 498 505 C495.7 500.4 493.4 495.8 491.2 491.2 C486.3 481.8 482.3 475.3 473 470 C472 468.7 471 467.4 470 466 C468.7 465.3 467.4 464.7 466 464 C463.6 461.4 461.3 458.7 459 456 C452.5 448.5 445.8 442.2 438 436 C434.8 433.2 434.8 433.2 431.4 430.4 C426.1 425.9 420.8 421.9 415 418 C412.8 416.5 410.5 414.9 408.2 413.3 C400.3 408.2 392.2 403.4 384 398.8 C379.9 396.5 375.9 394.1 371.8 391.8 C360 385.2 347.5 380.1 335 375 C331 373.3 327 371.7 323 370 C324 366 324 366 328 361.1 C339.4 347.2 347.5 331.7 354 315 C357.4 307.4 359.9 304.1 366 298 C385.2 268.5 384.6 232.9 369 202 C368.3 200.7 367.7 199.4 367 198 C382.5 197.7 398 197.3 414 197 C380.1 173.5 345 151.2 308 133 C304.9 131.4 301.9 129.8 298.8 128.1 C289.3 123.1 279.7 118.5 270 114 C267.7 112.9 265.4 111.8 263 110.7 C246.5 103.1 230 95.6 213 89 C213 82.7 224.2 79 229 76 C229.7 76 230.3 76 231 76 C231.3 72.8 231.3 72.8 223.4 72.3 C216.5 70.8 209.5 69.2 202.6 67.6 C198.8 66.7 194.9 65.9 191 65 C188.9 64.5 186.9 64.1 184.8 63.6 C167.8 59.9 150.9 56.9 133.7 54.4 C131.1 54 128.5 53.6 125.9 53.2 C96.4 48.7 96.4 48.7 66.8 45.5 C62 45 62 45 60 44 C56.3 43.6 52.7 43.2 49 42.8 C46.8 42.6 44.5 42.4 42.2 42.2 C39.9 42 37.5 41.7 35.1 41.5 C30.5 41.1 25.9 40.6 21.3 40.2 C19.2 40 17.1 39.8 15 39.6 C10 39 10 39 6 38 C0.8 37.5 -4.4 37 -9.6 36.6 C-18.9 35.7 -28.2 34.9 -37.6 33.9 C-45.7 33 -53.8 32.4 -62 32 C-62 29 -62 29 -57 27 C-52.6 23.4 -48.3 19.7 -44 16 C-39 11.9 -34.8 8.9 -29 6 C-28.7 5.3 -28.3 4.7 -28 4 C-79.8 4.9 -79.8 4.9 -131 12 C-133.6 12.3 -136.1 12.6 -138.8 12.9 C-146.3 13.9 -153.6 15.4 -161 17 C-163 17.3 -165 17.6 -167.1 17.9 C-179.2 19.8 -191.1 23 -203 26 C-205.5 26.6 -207.9 27.2 -210.4 27.9 C-236.7 34.6 -262.8 42.7 -287 55 C-289.3 56 -291.6 57 -294 58 C-304.9 63.4 -304.9 63.4 -315 70 C-317.5 71 -317.5 71 -320 72 C-326.8 76.7 -333.1 81.1 -339 87 C-340.3 86.7 -341.6 86.3 -343 86 C-262.7 22.6 -150.5 5 -50.9 1.4 C-44.6 1.1 -38.2 0.9 -31.9 0.6 C-29.1 0.5 -26.4 0.4 -23.5 0.3 C-18.8 0.1 -14 -0.2 -9.3 -0.6 C-4 -1 -4 -1 0 0 Z " fill="#9D6307" transform="translate(697,47)"/>
<path d="M0 0 C2.9 -0 5.9 -0 8.9 -0.1 C28.6 -0.1 47.9 1.1 67.5 3.2 C71.2 3.6 75 4 78.7 4.4 C86.5 5.2 86.5 5.2 91.5 6.2 C94 6.4 96.4 6.5 98.9 6.6 C106.8 7.2 113.8 8.5 121.5 10.2 C125.6 10.7 125.6 10.7 129.8 11.2 C136.2 12.1 141.3 13.4 147.5 15.2 C153 16.7 158.4 18.1 163.9 19.5 C276.8 49.3 276.8 49.3 273.5 99.2 C270.8 108 266.9 117.2 256.5 117.2 C258.5 110.2 258.5 110.2 262.5 105.2 C269.7 83.7 245.2 69 229.5 60.2 C220.6 55.8 211.8 51.7 202.5 48.2 C202.5 47.6 202.5 46.9 202.5 46.2 C201.2 46 199.9 45.8 198.6 45.6 C192.2 44.2 186 42.1 179.8 40 C161.3 34 142.5 29.8 123.5 26.2 C121.8 25.9 120.1 25.5 118.3 25.2 C112.1 24 105.8 23.5 99.5 22.9 C92.5 22.1 85.6 21.2 78.6 20.2 C66.2 18.5 54 17.7 41.5 17.2 C38.9 16.9 36.2 16.6 33.5 16.2 C-21.7 15 -92.9 15 -138.5 51.2 C-142.5 53.2 -142.5 53.2 -147.5 48.2 C-151.7 33.7 -150.5 28.1 -137.5 21.2 C-107.9 6.9 -73.2 1.9 -40.5 1.2 C-27.1 -0.4 -13.5 0 0 0 Z " fill="#FDFCF6" transform="translate(610.5,150.75)"/>
<path d="M0 0 C5.9 1 10.3 2.7 15.8 5 C39.8 14.5 65.2 21.2 91 23 C89.2 28.3 82.5 27.2 77.4 28 C75.1 28.4 72.8 28.7 70.4 29.1 C64 30 64 30 57 30 C59.3 32.7 61.7 35.3 64 38 C65.6 39.8 67.1 41.6 68.8 43.4 C73.9 48.9 79.2 53.3 85 58 C88 61 91 64 94 67 C97.6 70 101.3 73 105 76 C107.5 78.1 110.1 80.2 112.7 82.3 C120.6 88.8 128.8 94.9 137 101 C138.4 102.1 139.8 103.1 141.3 104.2 C152.1 112.2 163.4 119.2 175 126 C177.5 127.5 180 129.1 182.6 130.7 C210.7 147 241.3 158.1 274.1 158.2 C276.7 158.3 279.3 158.3 282 158.3 C299.9 157.6 315.3 152.2 331 144 C329.9 149.4 328.1 153.5 325.8 158.4 C325 160.1 324.2 161.7 323.4 163.4 C307.2 194.1 257.8 183.3 231.4 174.8 C183.6 158.3 142.6 129.8 103.8 98.1 C100.7 95.5 97.5 93 94.4 90.5 C87.7 84.9 81.4 78.9 75 73 C71.3 70 67.7 67 64 64 C53.4 54.3 43.2 44.3 33.1 34.1 C30.8 31.8 28.5 29.5 26.2 27.1 C23.9 24.8 21.6 22.6 19.3 20.2 C14.6 15.6 10 11.3 5 7 C0 2 0 2 0 0 Z " fill="#041D4F" transform="translate(419,673)"/>
<path d="M0 0 C-2.6 17.9 -26.3 17.9 -41 19 C-147.7 21.5 -147.7 21.5 -170 -12 C-163.9 -54.8 -22.2 -26.6 0 0 Z " fill="#FEBA19" transform="translate(763,234)"/>
<path d="M0 0 C2.5 0.6 5.1 1.2 7.7 1.9 C25 6.1 25 6.1 25 14 C19.8 15.7 14.2 15.3 8.8 15.4 C-14.6 16.1 -37.9 18.5 -61 22 C-62.8 22.3 -64.6 22.5 -66.5 22.8 C-88.1 26.3 -109.7 30.6 -130.8 36.4 C-140 39 -140 39 -145 39 C-147.1 30.4 -149 22.9 -149 14 C-137.3 10.7 -125.4 9.1 -113.4 7.3 C-110.3 6.8 -110.3 6.8 -107 6.3 C-91.4 4 -91.4 4 -88 4 C-88 3.3 -88 2.7 -88 2 C-108.5 2 -128.9 2 -150 2 C-150 -45 -29.5 -7.2 0 0 Z " fill="#FCFCFB" transform="translate(751,544)"/>
<path d="M0 0 C3.4 0.7 3.4 0.7 6.9 1.3 C9.2 1.8 11.6 2.3 14 2.7 C17.4 3.4 17.4 3.4 20.9 4.1 C48.6 9.6 76.2 15.2 103.6 22.2 C113.7 24.7 123.7 26.9 134 28.7 C134 31.7 134 31.7 129 33.7 C124.5 34.2 124.5 34.2 120 34.7 C119.2 40.9 119.2 40.9 128 42.7 C128 44.1 128 45.4 128 46.7 C125.6 46.9 123.2 47 120.7 47.2 C113.7 47.4 113.7 47.4 110 48.7 C107.3 48.7 104.7 48.7 101.9 48.7 C77.5 48.6 53.5 51.8 29.6 56.9 C25 57.7 25 57.7 17 57.7 C17 58.4 17 59.1 17 59.7 C1.7 62.6 1.7 62.6 -5 63.7 C-5 64.4 -5 65.1 -5 65.7 C-7.2 66.3 -9.3 66.9 -11.5 67.6 C-19.2 69.7 -19.2 69.7 -27 72.7 C-29.7 73.5 -32.5 74.3 -35.3 75.1 C-43.9 77.7 -51.5 80.7 -59 85.7 C-73 82.2 -70.6 30.8 -70.7 19.1 C-67.5 -17.7 -25.8 -5 0 0 Z M-61 21.7 C-61 24 -61 26.4 -61 28.7 C-40.6 28.7 -20.1 28.7 1 28.7 C1 29.4 1 30.1 1 30.7 C-1.4 31 -3.8 31.3 -6.3 31.6 C-16.1 32.8 -25.9 34.2 -35.7 35.7 C-37.4 36 -39.1 36.3 -40.8 36.5 C-47.4 37.6 -53.7 38.6 -60 40.7 C-60 49.6 -58.2 57.1 -56 65.7 C-48.2 64.8 -41 63 -33.4 61.1 C1.1 52.3 35.6 47.2 71 43.7 C72.6 43.6 74.2 43.4 75.8 43.2 C85.4 42.4 94.9 42.3 104.5 42 C110.5 42.1 110.5 42.1 114 40.7 C114 25.5 53.4 18.5 39 15.7 C34.9 15 34.9 15 30.7 14.1 C-22 0.8 -22 0.8 -61 21.7 Z " fill="#081E70" transform="translate(662.0234375,517.26171875)"/>
<path d="M0 0 C6 2 6 2 12.8 5.1 C22.1 9.2 31.7 12.5 41.4 15.8 C55.2 20.5 68.9 25.5 82.4 31 C94.2 35.7 106 39.9 118 44 C132 49 132 49 133 53 C101.6 76.2 56 80.3 25.3 52.6 C9.5 37.4 0.8 22.4 0 0 Z " fill="#06196A" transform="translate(594,411)"/>
<path d="M0 0 C0 0.7 0 1.3 0 2 C-1.9 2.2 -3.8 2.5 -5.8 2.7 C-20.9 5.4 -27.6 11.9 -36.8 23.9 C-42.8 31.5 -49.9 35 -59.1 37.9 C-78.4 44.7 -78.3 63.5 -77 81 C-72.1 104.8 -62.5 137.5 -45 155 C-55.4 163.8 -55.4 163.8 -61 166 C-63 167.6 -65 169.3 -67 171 C-71.5 174.6 -75.8 177.4 -81 180 C-81 180.7 -81 181.3 -81 182 C-95 196 -95 196 -103 200 C-105 202.3 -107 204.6 -109 207 C-110.1 208 -111.3 209 -112.4 210 C-121.2 217.7 -129.5 226 -137 235 C-140 237.5 -140 237.5 -143 240 C-144.3 242.3 -145.6 244.6 -147 247 C-148 247 -149 247 -150 247 C-150.7 248.3 -151.3 249.6 -152 251 C-152.7 251 -153.3 251 -154 251 C-154.7 252.3 -155.3 253.6 -156 255 C-159 259 -159 259 -161 259 C-161.7 260.3 -162.3 261.6 -163 263 C-164.4 264.7 -165.8 266.5 -167.3 268.2 C-172.3 274.2 -172.3 274.2 -177 282 C-178.2 283.5 -179.4 285 -180.6 286.6 C-184.4 291.2 -184.4 291.2 -187 298 C-188.5 299.5 -188.5 299.5 -190 301 C-192 304.5 -193.8 308.1 -195.7 311.7 C-196.8 313.8 -197.8 315.8 -198.9 318 C-199.9 320 -201 321.9 -202 324 C-204.2 328.3 -204.2 328.3 -206.4 332.7 C-209.5 339.1 -212.4 345.4 -215 352 C-215.7 353.8 -216.4 355.6 -217.2 357.4 C-217.8 358.9 -218.4 360.4 -219 362 C-219.7 363.6 -220.3 365.3 -221 367 C-221.5 371 -221.5 371 -222 375 C-222.7 378.3 -223.3 381.7 -224 385 C-218.6 385 -214.1 381.1 -209.8 378.2 C-165.8 349.2 -111.9 338.9 -60.1 338.7 C-57.3 338.7 -54.4 338.6 -51.4 338.6 C-29.8 338.5 -9.2 340.6 12 345 C12 345.3 12 345.7 12 346 C10.4 346 8.7 346 7 346 C7.6 351 7.6 351 15 352 C15 352.7 15 353.3 15 354 C18.3 354 21.6 354 25 354 C40.6 357.3 55.9 362 71 367 C72.9 367.6 74.9 368.3 76.9 368.9 C113 380.8 113 380.8 113 384 C115.3 384.3 117.6 384.7 120 385 C126.8 387.7 133.4 390.9 140 394 C142.8 395.3 145.5 396.6 148.4 397.9 C158.3 403.2 167 409.2 175.2 416.8 C190.1 430.2 207.2 441.1 225 450 C225 450.7 225 451.3 225 452 C226.6 452.3 228.3 452.7 230 453 C233.3 454.7 236.7 456.3 240 458 C243.9 459.6 247.8 461.2 251.8 462.8 C253.7 463.5 255.7 464.3 257.7 465.1 C263 467.2 263 467.2 269 468 C269 468.7 269 469.3 269 470 C270.3 470.1 271.5 470.2 272.8 470.4 C278 470.9 283.2 471.5 288.3 472.1 C299.1 473.1 307.7 473 318 470 C322.7 469.9 327.3 469.9 332 470 C281.3 495.4 209.2 450.5 172.3 418.1 C159.9 407.7 147 400.1 132.2 393.6 C130.5 392.9 128.9 392.2 127.2 391.4 C111.1 384.4 94.7 378.5 78 373 C75.5 372.2 73 371.3 70.5 370.5 C46.2 362.5 22.3 356.8 -3 353 C-5 352.7 -7.1 352.4 -9.2 352.1 C-57.5 344.9 -106.3 348.7 -153 363 C-156.1 363.9 -159.1 364.9 -162.2 365.8 C-188 375.2 -210.6 388.6 -230 408 C-230.7 408 -231.3 408 -232 408 C-230.6 349.8 -193 293.5 -156.1 251 C-151.8 246.2 -151.8 246.2 -148 241 C-147.3 241 -146.7 241 -146 241 C-145.3 239.7 -144.7 238.4 -144 237 C-141.5 234.3 -139 231.8 -136.4 229.2 C-134.9 227.7 -133.4 226.1 -131.8 224.5 C-130.2 222.9 -128.5 221.3 -126.9 219.7 C-125.3 218.1 -123.7 216.5 -122 214.9 C-115.2 208 -108.3 201.3 -101 195 C-99.5 193.6 -97.9 192.2 -96.4 190.8 C-90.1 185.2 -83.6 180.1 -77 175 C-75.6 173.9 -74.1 172.8 -72.7 171.6 C-65.3 165.9 -58.1 160.5 -50 156 C-51.3 150.7 -53.9 146.4 -56.5 141.5 C-93.2 71.6 -93.2 71.6 -71 42 C-62.6 35.7 -54.8 32.7 -45 29 C-39.9 25.4 -39.9 25.4 -37.2 20.9 C-28.1 7.2 -17.3 -2.9 0 0 Z " fill="#B87C03" transform="translate(377,454)"/>
<path d="M0 0 C33.4 8.4 70.9 41.2 69 77 C50.5 141.2 -68.5 138.7 -121.2 138.4 C-127.4 138.4 -133.7 138.4 -140 138.4 C-144 138.4 -148 138.3 -152.1 138.3 C-154.8 138.3 -154.8 138.3 -157.7 138.3 C-168.9 138.2 -179.8 137.4 -191 136 C-194.9 135.8 -198.7 135.6 -202.6 135.5 C-215.9 135 -228.9 133.2 -242 131 C-244.7 130.7 -247.5 130.3 -250.3 130 C-258 129 -258 129 -265 127 C-269.7 126.3 -274.3 125.6 -279 125 C-279 124.3 -279 123.7 -279 123 C-280.8 122.9 -282.7 122.8 -284.6 122.8 C-292.4 122 -299.4 120.1 -307 118 C-309.9 117.5 -309.9 117.5 -312.9 117.1 C-320.6 115.7 -327.6 113.3 -335 111 C-339.1 110 -343.2 108.9 -347.2 107.9 C-370.4 102.3 -370.4 102.3 -372 99 C-359.6 101.3 -347.5 104.6 -335.3 107.7 C-316.3 112.4 -297.3 115.9 -278 119 C-275.9 119.4 -273.8 119.7 -271.6 120.1 C-225.6 127.5 -179.5 130.4 -133 130 C-130.1 130 -127.3 130 -124.3 129.9 C-73.7 129.1 38.7 127.1 54 66 C54 34.6 29.2 18.9 5 4 C3.4 2.7 1.7 1.4 0 0 Z " fill="#F9FBF6" transform="translate(921,211)"/>
<path d="M0 0 C2.2 34.7 -22 58.1 -54 66 C-77.6 67.8 -96.9 63.3 -116 49 C-115 46 -115 46 -109.4 43.9 C-101.9 41 -94.4 37.9 -86.9 34.9 C-84.1 33.7 -81.3 32.6 -78.4 31.4 C-74.2 29.7 -74.2 29.7 -70 28 C-67.6 27 -65.3 26.1 -62.9 25.1 C-53.8 21.4 -44.8 17.7 -35.8 14 C-33.4 13.1 -31.1 12.1 -28.6 11.1 C-25.5 9.8 -25.5 9.8 -22.2 8.5 C-17.8 6.7 -13.3 5 -8.8 3.2 C-0.4 0 -0.4 0 0 0 Z " fill="#09176F" transform="translate(877,414)"/>
<path d="M0 0 C0 15.8 -38.4 44.4 -50 53 C-51.3 54 -52.6 54.9 -53.9 55.9 C-101.7 90.7 -158.7 109.7 -217 116 C-218.6 116.2 -220.2 116.4 -221.8 116.5 C-235.1 118 -248.3 118.3 -261.7 118.2 C-264.7 118.2 -264.7 118.2 -267.9 118.2 C-282.7 118.1 -282.7 118.1 -285 117 C-284 114 -284 114 -277.8 112.2 C-260.1 106.7 -243 99.4 -226 92 C-223 91 -223 91 -220 90 C-220 91.3 -220 92.6 -220 94 C-199.8 93.5 -180.4 91.8 -160.6 88.1 C-158.7 87.8 -156.9 87.4 -155 87.1 C-145.4 85.3 -136.2 83.1 -127 80 C-125.3 79.5 -123.7 79 -121.9 78.4 C-113.8 75.9 -105.8 73.3 -98 70 C-94.9 68.7 -94.9 68.7 -91.8 67.4 C-87.8 65.8 -83.9 63.9 -80 62 C-79.3 62 -78.7 62 -78 62 C-78 61.3 -78 60.7 -78 60 C-76.3 59.1 -74.7 58.2 -73 57.3 C-68.2 54.7 -63.6 51.9 -59 49 C-57 48.3 -55 47.7 -53 47 C-40.3 39.4 -40.3 39.4 -30 29 C-28.3 28 -26.7 27 -25 26 C-22 23.2 -19 20.3 -16.1 17.3 C-14.6 15.8 -13 14.2 -11.4 12.6 C-7.5 8.5 -3.7 4.3 0 0 Z " fill="#967412" transform="translate(1113,775)"/>
<path d="M0 0 C8.6 0.3 17.1 0.5 25.7 0.7 C33 1 33 1 35 2 C35 2.7 35 3.3 35 4 C32.9 4.3 32.9 4.3 30.8 4.6 C24.6 5.8 24.6 5.8 18.3 9.6 C9.2 14.5 5.8 13.3 -4 10 C-15.5 10 -16.8 11.6 -25 19 C-35.6 27.9 -45.5 29.4 -59 31 C-64.3 32.5 -64.3 32.5 -66 37 C-75.6 54.3 -86.6 62.2 -106 66 C-116 71 -107.2 94.1 -105 103 C-92.7 139.6 -66.9 173.2 -36 196 C-32.4 198.7 -32.4 198.7 -28.8 201.4 C-19.1 208.4 -9.2 214.9 1 221 C1 221.7 1 222.3 1 223 C2.3 223.3 3.6 223.7 5 224 C0.1 226.5 -6.3 221 -11.2 218.9 C-16.3 216.8 -16.3 216.8 -23 215 C-26.7 212.4 -30.4 209.7 -34 207 C-36.3 205.4 -38.5 203.9 -40.9 202.2 C-81 172.7 -121.4 117.1 -120 65 C-116.1 57.1 -108.6 55.1 -100.4 53.1 C-87 49.3 -80.2 40.6 -72.9 29.1 C-67.5 21.5 -61.8 20.3 -53 18.9 C-41 17.1 -35 13.2 -26 5 C-17.9 -0.4 -9.8 -3.3 0 0 Z " fill="#FAFAF1" transform="translate(437,456)"/>
<path d="M0 0 C1.8 0.8 3.6 1.6 5.4 2.4 C49.8 22.8 107 68.6 107 123 C105 120 105 120 102.2 112 C93.1 86.7 75.8 66.6 55 50 C53.3 48.5 51.6 47.1 49.8 45.6 C17 19.8 -24.9 3.3 -65 -7 C-71 -31.1 -10.2 -4.6 0 0 Z " fill="#FBF6F5" transform="translate(1056,475)"/>
<path d="M0 0 C3 0.3 5.9 0.7 9 1 C9.3 1.3 9.7 1.7 10 2 C15.1 2.7 20.3 3.5 25.4 4.2 C32 5.2 38.5 6.5 45 8 C45 8.7 45 9.3 45 10 C46.6 10 48.3 10 50 10 C62 25.3 62 25.3 62 29 C57.9 28 54 26.7 50 25.4 C-3.1 8.5 -60.6 1.7 -116 9.2 C-122.4 10.1 -128.8 10.5 -135.2 10.9 C-150.3 12 -164.4 15.4 -179 19 C-180 18.7 -181 18.3 -182 18 C-173 15 -173 15 -171 15 C-171 14.3 -171 13.7 -171 13 C-168.2 12.6 -168.2 12.6 -165.4 12.2 C-158.8 11.2 -158.8 11.2 -152 8 C-151 8 -150 8 -149 8 C-149 7.3 -149 6.7 -149 6 C-142.9 5 -136.8 4.1 -130.7 3.1 C-125.2 2.2 -119.7 1.3 -114.2 0.4 C-76.7 -5.2 -37.7 -4.4 0 0 Z " fill="#9E6A14" transform="translate(411,753)"/>
<path d="M0 0 C6.9 0.9 12.3 2.2 18.9 4.4 C22.1 5.4 22.1 5.4 25.3 6.5 C27.6 7.2 29.9 8 32.2 8.8 C34.5 9.5 36.8 10.3 39.2 11.1 C97 30.2 97 30.2 97 33 C61.5 49.4 28 44.7 5 12 C0 3.7 0 3.7 0 0 Z " fill="#FCFBFA" transform="translate(609,432)"/>
<path d="M0 0 C5 7 5 7 5 10 C2.4 11 -0.3 12 -3 13 C-6.7 15.3 -10.4 17.6 -14 20 C-15.8 21.2 -17.6 22.4 -19.5 23.6 C-34.8 34 -49.9 44.9 -63 58 C-64.3 59.1 -65.6 60.3 -66.9 61.4 C-69.7 63.9 -72.4 66.4 -75 69 C-79 73 -79 73 -82.6 76.1 C-91.7 84.2 -100.1 92.8 -108 102 C-109.2 103.2 -110.5 104.4 -111.8 105.6 C-117.3 111.4 -122.1 117.7 -127 124 C-130.7 128.3 -134.3 132.7 -138 137 C-140 139.6 -142 142.3 -144 145 C-144.7 145 -145.3 145 -146 145 C-141.1 125.4 -120 103.4 -107 88 C-105.2 85.9 -103.5 83.8 -101.6 81.6 C-85.6 62.9 -68.7 44.8 -49 30 C-46.9 28.2 -44.8 26.4 -42.6 24.5 C-10.6 -2.1 -10.6 -2.1 0 0 Z " fill="#F7F3F4" transform="translate(355,634)"/>
<path d="M0 0 C19.5 6.5 37.1 20.5 54 32 C56.1 33.4 58.2 34.8 60.4 36.2 C85.9 53.3 85.9 53.3 89 61 C83.7 62.1 79.1 62.1 73.7 62.1 C71.7 62.1 69.6 62.1 67.6 62.1 C65.5 62.1 63.4 62.1 61.2 62.1 C58 62.1 58 62.1 54.8 62 C49.5 62 44.3 62 39 62 C40 64.9 40.9 67.7 41.9 70.7 C45.6 81.9 46.4 91.1 46.8 102.9 C46.9 106.2 47.1 109.4 47.2 112.7 C47 122.7 44.4 147.2 33 151 C31.3 153.6 29.7 156.3 28 159 C25.7 159 23.4 159 21 159 C24.1 152.8 27.2 146.6 30.5 140.5 C43.3 113.1 40.5 82.6 27 56 C26.3 54.7 25.7 53.4 25 52 C48.3 51.5 48.3 51.5 72 51 C49.5 35.4 26.5 21 3 7 C-2 4 -2 4 -2 2 C-1.3 2 -0.7 2 0 2 C0 1.3 0 0.7 0 0 Z " fill="#AD7704" transform="translate(1039,193)"/>
<path d="M0 0 C3.8 3 12.7 10.5 10 16 C9 16.3 8 16.7 7 17 C6.2 45.4 6.2 45.4 21 68 C20.7 60.7 20.3 53.5 20 46 C21.6 46.7 23.3 47.3 25 48 C24 50 24 50 22 50 C23.9 57.7 23.9 57.7 27 59 C27.5 64 27.5 64 28 69 C28.7 69 29.3 69 30 69 C30 77.1 29.5 81.6 27 89 C-0.1 83.6 -11.3 55.9 -12.3 31.2 C-11 -2.8 -11 -2.8 0 0 Z " fill="#A8791B" transform="translate(481,488)"/>
<path d="M0 0 C14.9 7.4 15 35.6 14 50 C-0.3 97.4 -52.9 116.2 -97 126 C-102.3 127.3 -107.7 128.6 -113 129.9 C-118 131 -118 131 -125 132 C-125 124.4 -111.4 123.6 -105.8 122.2 C-61.3 110.5 4.2 85.8 4.3 30.8 C4.3 27.6 4.3 27.6 4.4 24.4 C4 17.9 2.7 12.3 1 6 C0.5 3 0.5 3 0 0 Z " fill="#FAFAEA" transform="translate(1028,264)"/>
<path d="M0 0 C5.2 10.4 -13.6 27.6 -20 34 C-40.1 47.1 -65 46.8 -86 36 C-85 33 -85 33 -76.9 29.9 C-64.7 25.3 -52.5 20.5 -40.4 15.7 C-26.9 10.4 -13.5 5.1 0 0 Z " fill="#FBFBF9" transform="translate(866,429)"/>
<path d="M0 0 C1 2 1 2 -2.5 5 C-9.6 11.4 -14.9 16.8 -20 25 C-21.6 27.3 -23.3 29.6 -25 32 C-33.2 47.8 -37.3 60.9 -37.7 78.8 C-37.8 81.4 -37.8 84.1 -37.9 86.9 C-37.9 88.9 -38 90.9 -38 93 C-37.7 88.7 -37.3 84.4 -37 80 C-36.7 80 -36.3 80 -36 80 C-36 81.4 -35.9 82.9 -35.9 84.4 C-35.2 104.1 -31.1 121.4 -21.4 138.7 C-15.4 149.5 -14 162 -12 174 C-11.4 176.6 -10.8 179.2 -10.2 181.8 C-9 188 -9 188 -10 192 C-11.3 190.7 -12.6 189.4 -14 188 C-13.5 196.7 -13.5 196.7 -11 205 C-10.7 206.4 -10.5 207.8 -10.2 209.2 C-7.7 222.7 -7.7 222.7 -2 235 C-1.3 237.3 -0.7 239.6 0 242 C2.3 246.7 4.6 251.4 7 256 C8.2 258.5 9.5 261 10.8 263.6 C22.1 289.3 22.1 289.3 38 312 C38.3 313.3 38.7 314.6 39 316 C8.8 285.8 -9.7 232 -18.1 191.2 C-18.8 188 -19.5 184.9 -20.1 181.6 C-21.4 175 -22.5 168.5 -23.5 161.8 C-25.1 152.1 -28.4 145.6 -33 137 C-54.9 84.7 -42.1 40.1 -2 1 C-1.3 0.7 -0.7 0.3 0 0 Z " fill="#A97306" transform="translate(353,134)"/>
<path d="M0 0 C-1 2 -1 2 -10.5 2 C-54.7 4 -86.1 34.7 -107 70.9 C-110 76 -110 76 -113 78 C-117.1 50.5 -117.1 50.5 -106 39 C-103.9 36.8 -101.8 34.6 -99.6 32.3 C-75.2 9.1 -34 -11.3 0 0 Z " fill="#F8F7F3" transform="translate(805,624)"/>
<path d="M0 0 C66.8 57.3 75.1 153 41 230 C40.1 231.9 39.3 233.9 38.4 235.9 C17.2 283.3 -10.7 327.3 -52 360 C-54.6 362.1 -57.2 364.3 -59.8 366.4 C-93.1 393.4 -131.1 413.3 -172 426 C-173.7 426.5 -175.5 427.1 -177.3 427.6 C-204.2 435.6 -231.8 441.3 -260 441 C-260 440.7 -260 440.3 -260 440 C-258.5 439.9 -257 439.8 -255.4 439.6 C-253.4 439.5 -251.4 439.3 -249.4 439.1 C-247.4 439 -245.4 438.8 -243.4 438.6 C-237.8 438.2 -237.8 438.2 -232 436 C-227 435.3 -222 434.7 -217 434 C-215 433.3 -213 432.7 -211 432 C-206.4 431.1 -206.4 431.1 -201.8 430.2 C-191.8 428.3 -182.5 425.4 -173 422 C-169.4 420.8 -165.8 419.6 -162.1 418.4 C-154.6 415.9 -147.3 413.2 -140 410 C-138.4 409.3 -136.8 408.6 -135.1 407.9 C-118.6 400.5 -102.6 392.7 -88 382 C-86.2 380.8 -84.3 379.7 -82.4 378.5 C-77.4 375.2 -72.7 371.7 -68 368 C-61 364 -61 364 -59 364 C-59 363 -59 362 -59 361 C-47.7 351 -47.7 351 -45 351 C-45 350.3 -45 349.7 -45 349 C-43.7 348 -42.3 347 -40.9 345.9 C-28.8 335.8 -18.5 324.7 -9 312 C-8 310.7 -7 309.3 -5.9 308 C6 292.3 16.2 275.6 25 258 C27 254 27 254 29 250 C30.1 247.6 31.3 245.1 32.4 242.6 C34.4 238.3 36.5 234 38.7 229.8 C41.3 224.3 43.1 218.8 45 213 C46.5 209.5 46.5 209.5 48 206 C49.3 201.3 50.4 196.6 51.6 191.8 C52.2 189.3 52.8 186.8 53.4 184.3 C60.8 150.9 62.1 113.9 49 82 C48 79 47 76.1 46 73 C43.4 67.6 40.7 62.3 38 57 C35.7 52.4 33.4 47.8 31.2 43.2 C27.3 35.8 23 29 17 23 C17 21.7 17 20.4 17 19 C15 18 15 18 13 17 C13 16 13 15 13 14 C11 13 11 13 9 12 C5 8 5 8 5 6 C4.3 6 3.7 6 3 6 C0 2 0 2 0 0 Z " fill="#5F491B" transform="translate(1157,495)"/>
<path d="M0 0 C48.8 0 127.1 27.7 164 60 C177.4 70.9 191 81.4 206 90 C216 96 216 96 216 98 C200.2 102.5 178.2 80.6 166.8 70.3 C153.2 58.2 137.7 51.1 121.2 43.8 C119.2 42.9 117.2 42.1 115.1 41.1 C110.3 39 110.3 39 106 38 C106 37.3 106 36.7 106 36 C104.5 35.6 103 35.3 101.4 34.9 C95 33 95 33 88.4 30.3 C77.1 25.9 65.6 22.5 54 19 C52.2 18.4 50.3 17.9 48.4 17.3 C28.5 11.1 28.5 11.1 8 8 C8 7.3 8 6.7 8 6 C5.7 5.7 3.4 5.3 1 5 C0.7 3.4 0.3 1.7 0 0 Z " fill="#D08600" transform="translate(384,800)"/>
<path d="M0 0 C2.4 -0 4.9 -0 7.4 -0 C25.5 -0.1 43 1 60.9 3.8 C67.1 4.7 73.4 5.5 79.6 6.2 C79.6 6.8 79.6 7.5 79.6 8.2 C82.9 8.2 86.2 8.2 89.6 8.2 C105.2 11.5 120.5 16.2 135.6 21.2 C137.6 21.8 139.5 22.4 141.5 23.1 C177.6 34.9 177.6 34.9 177.6 38.2 C179.9 38.5 182.2 38.8 184.6 39.2 C191.4 41.9 198 45.1 204.6 48.2 C207.4 49.5 210.2 50.8 213 52.1 C222.9 57.4 231.6 63.4 239.9 71 C254.7 84.4 271.8 95.3 289.6 104.2 C289.6 104.8 289.6 105.5 289.6 106.2 C291.3 106.5 292.9 106.8 294.6 107.2 C298 108.8 301.3 110.5 304.6 112.2 C308.5 113.8 312.4 115.4 316.4 116.9 C319.3 118.1 319.3 118.1 322.4 119.3 C327.7 121.4 327.7 121.4 333.6 122.2 C333.6 122.8 333.6 123.5 333.6 124.2 C334.9 124.3 336.1 124.4 337.4 124.6 C342.6 125.1 347.8 125.7 352.9 126.3 C363.7 127.3 372.3 127.1 382.6 124.2 C387.3 124.1 392 124.1 396.6 124.2 C345.9 149.6 273.8 104.7 236.9 72.3 C224.5 61.9 211.6 54.3 196.8 47.8 C195.2 47.1 193.5 46.4 191.8 45.6 C175.7 38.6 159.3 32.7 142.6 27.2 C140.1 26.4 137.7 25.5 135.1 24.7 C110.8 16.7 86.9 11 61.6 7.2 C59.6 6.9 57.6 6.6 55.5 6.2 C7.1 -0.9 -41.7 2.9 -88.4 17.2 C-91.4 18.1 -94.5 19 -97.6 20 C-112.8 25.5 -126.7 32.5 -140.4 41.2 C-141 41.2 -141.7 41.2 -142.4 41.2 C-142.4 34.3 -119.1 25.9 -113.4 23.2 C-111.3 22.2 -109.2 21.1 -107 20.1 C-93.7 14.3 -80.6 10.8 -66.4 8.2 C-64.6 7.5 -62.8 6.9 -60.9 6.2 C-41.4 -0.8 -20.4 0 0 0 Z " fill="#613B19" transform="translate(312.375,799.8125)"/>
<path d="M0 0 C11.7 3 22.7 5.1 34.7 6.1 C38 6.8 41.4 7.4 44.7 8.1 C48.6 8.7 52.6 9.3 56.5 9.8 C59.5 10.2 59.5 10.2 62.5 10.6 C67.7 11.4 67.7 11.4 72.7 10.1 C76.2 9.6 76.2 9.6 79.7 9.1 C80.3 8.5 81 7.8 81.7 7.1 C107.8 7.1 133.8 7.1 160.7 7.1 C160.4 8.1 160 9.1 159.7 10.1 C161.5 10.1 163.3 10.1 165.2 10.1 C171.7 10.1 171.7 10.1 179.7 11.1 C179.7 12.1 179.7 12.1 174.9 13.1 C170 14 170 14 166.7 15.1 C163.1 15.5 159.6 15.9 156 16.2 C154.1 16.4 152.2 16.5 150.2 16.7 C148.7 16.9 147.2 17 145.7 17.1 C145.7 17.5 145.7 17.8 145.7 18.1 C95 18.7 47.4 15.2 -1.9 2.7 C-13.7 -0.3 -20.4 -1.2 -32 2.8 C-39.3 5.1 -39.3 5.1 -43.3 4.1 C-40.7 3.1 -38 2.1 -35.3 1.1 C-34 0.5 -32.7 -0.2 -31.3 -0.9 C-28.7 -1.5 -26 -2.2 -23.3 -2.9 C-18.9 -7.3 -4.8 -1.3 0 0 Z " fill="#9C610D" transform="translate(752.3125,918.875)"/>
<path d="M0 0 C6.5 1.3 10.8 4.9 16.1 8.6 C27.9 16.8 39.9 24.4 52 32 C58.6 36.1 65.2 40.4 71.7 44.6 C79.7 49.9 87.8 55 96 60 C99.4 62.2 102.9 64.4 106.3 66.6 C124.8 78.3 143.4 89.9 162.1 101.3 C179 111.8 179 111.8 179 114 C171.8 111.6 166.5 108 160 104 C146.8 96.2 133.4 88.5 120 81 C97.2 68.2 74.5 55.2 51.9 41.9 C41.6 35.9 31.2 30 20.7 24.2 C0 12.5 0 12.5 0 0 Z " fill="#0E224C" transform="translate(515,638)"/>
<path d="M0 0 C0 0.7 0 1.3 0 2 C-1.9 2.2 -3.8 2.5 -5.8 2.7 C-20.9 5.4 -27.6 11.9 -36.8 23.9 C-42.8 31.5 -49.9 35 -59.1 37.9 C-78.4 44.7 -78.3 63.5 -77 81 C-72.1 104.8 -62.5 137.5 -45 155 C-55.4 163.8 -55.4 163.8 -61 166 C-63 167.6 -65 169.3 -67 171 C-71.5 174.6 -75.8 177.4 -81 180 C-81 180.7 -81 181.3 -81 182 C-95 196 -95 196 -103 200 C-105 202.3 -107 204.6 -109 207 C-110.1 208 -111.3 209 -112.4 210 C-121.2 217.7 -129.5 226 -137 235 C-140 237.5 -140 237.5 -143 240 C-144.3 242.3 -145.6 244.6 -147 247 C-148 247 -149 247 -150 247 C-150.7 248.3 -151.3 249.6 -152 251 C-152.7 251 -153.3 251 -154 251 C-154.7 252.3 -155.3 253.6 -156 255 C-159 259 -159 259 -161 259 C-161.7 260.3 -162.3 261.6 -163 263 C-164.4 264.7 -165.8 266.5 -167.3 268.2 C-172.3 274.2 -172.3 274.2 -177 282 C-178.2 283.5 -179.4 285 -180.6 286.6 C-184.4 291.2 -184.4 291.2 -187 298 C-188.5 299.5 -188.5 299.5 -190 301 C-192 304.5 -193.8 308.1 -195.7 311.7 C-196.8 313.8 -197.8 315.8 -198.9 318 C-199.9 320 -201 321.9 -202 324 C-204.2 328.3 -204.2 328.3 -206.4 332.7 C-209.5 339.1 -212.4 345.4 -215 352 C-215.7 353.6 -216.4 355.3 -217.1 357 C-219.2 362.6 -221.1 368.3 -223 374 C-223.7 374 -224.3 374 -225 374 C-225.1 375.7 -225.2 377.5 -225.4 379.2 C-226 385 -226 385 -228 389 C-228.4 393.7 -228.7 398.3 -229 403 C-224.2 399.7 -224.2 399.7 -223 397 C-222 397 -221 397 -220 397 C-220 396.3 -220 395.7 -220 395 C-209 387 -209 387 -207 388 C-208.2 388.9 -209.3 389.9 -210.5 390.9 C-212 392.1 -213.6 393.3 -215.1 394.6 C-216.6 395.9 -218.1 397.1 -219.7 398.4 C-224.4 402.2 -224.4 402.2 -230 408 C-230.7 408 -231.3 408 -232 408 C-230.6 349.8 -193 293.5 -156.1 251 C-151.8 246.2 -151.8 246.2 -148 241 C-147.3 241 -146.7 241 -146 241 C-145.3 239.7 -144.7 238.4 -144 237 C-141.5 234.3 -139 231.8 -136.4 229.2 C-134.9 227.7 -133.4 226.1 -131.8 224.5 C-130.2 222.9 -128.5 221.3 -126.9 219.7 C-125.3 218.1 -123.7 216.5 -122 214.9 C-115.2 208 -108.3 201.3 -101 195 C-99.5 193.6 -97.9 192.2 -96.4 190.8 C-90.1 185.2 -83.6 180.1 -77 175 C-75.6 173.9 -74.1 172.8 -72.7 171.6 C-65.3 165.9 -58.1 160.5 -50 156 C-51.3 150.7 -53.9 146.4 -56.5 141.5 C-93.2 71.6 -93.2 71.6 -71 42 C-62.6 35.7 -54.8 32.7 -45 29 C-39.9 25.4 -39.9 25.4 -37.2 20.9 C-28.1 7.2 -17.3 -2.9 0 0 Z " fill="#5B3D14" transform="translate(377,454)"/>
<path d="M0 0 C-14.9 37.2 -72.1 68.6 -108 83 C-109 82.7 -110 82.3 -111 82 C-108 80 -108 80 -104 80 C-104 79.3 -104 78.7 -104 78 C-101 76.7 -98.1 75.4 -95 74 C-91.6 71.7 -88.3 69.4 -85 67 C-81.9 64.9 -78.8 62.9 -75.8 60.8 C-55.7 47 -37.6 29.7 -22 11 C-21.3 11 -20.7 11 -20 11 C-19.7 9.7 -19.3 8.4 -19 7 C-16.4 6 -13.8 5.1 -11.1 4.1 C-0.4 0 -0.4 0 0 0 Z " fill="#F5F6ED" transform="translate(975,446)"/>
<path d="M0 0 C35 -1.9 71.6 13 103 27 C103 27.3 103 27.7 103 28 C95 28 95 28 89.3 26.2 C77.1 22.5 64.5 21.4 51.8 19.9 C45 19 45 19 43 18 C41 18 39 18 37 18 C30.5 18 23.6 12.9 18 10 C12 7.2 6 4.6 0 2 C0 1.3 0 0.7 0 0 Z " fill="#B16B15" transform="translate(983,525)"/>
<path d="M0 0 C-16 40 -69 66.9 -108 79 C-109 78.7 -110 78.3 -111 78 C-102 74 -102 74 -96 72 C-79 63 -63.2 52.9 -48 41 C-46.2 39.6 -44.5 38.3 -42.6 36.9 C-38.2 33.2 -34.7 29.4 -31 25 C-27.5 21.2 -23.9 17.4 -20.3 13.6 C-17.4 10.5 -14.7 7.2 -12 4 C-3 0 -3 0 0 0 Z " fill="#F4F5EA" transform="translate(1018,377)"/>
<path d="M0 0 C0 0.7 0 1.3 0 2 C-5.3 -0.1 -9.3 -2.9 -14 -6 C-28.1 -13.1 -42.6 -16.8 -58 -20 C-61.8 -20.8 -61.8 -20.8 -65.8 -21.6 C-82.8 -24.5 -99.6 -25.2 -116.9 -25.2 C-118.6 -25.3 -120.4 -25.3 -122.2 -25.3 C-129.9 -25.3 -136.5 -24.9 -144 -23 C-147.2 -22.4 -147.2 -22.4 -150.4 -21.7 C-156.5 -20.1 -161.5 -18.1 -167 -15 C-167 -25.3 -151.1 -27.2 -143.6 -28.6 C-101.4 -35.4 -32.2 -32.2 0 0 Z " fill="#F1F4D4" transform="translate(762,232)"/>
<path d="M0 0 C0 0.3 0 0.7 0 1 C-9 2 -9 2 -18.6 2.3 C-29.9 2.8 -41.1 3.8 -52.3 4.9 C-54 5.1 -55.7 5.3 -57.4 5.5 C-65.4 6.3 -73.2 7.3 -81 9 C-83.6 9.3 -86.1 9.6 -88.8 9.9 C-96.3 10.9 -103.6 12.4 -111 14 C-113 14.3 -115 14.6 -117.1 14.9 C-129.2 16.8 -141.1 20 -153 23 C-155.5 23.6 -157.9 24.2 -160.4 24.9 C-186.7 31.6 -212.8 39.7 -237 52 C-239.3 53 -241.6 54 -244 55 C-254.9 60.4 -254.9 60.4 -265 67 C-267.5 68 -267.5 68 -270 69 C-276.8 73.7 -283.1 78.1 -289 84 C-290.3 83.7 -291.6 83.3 -293 83 C-213.9 20.6 -98.8 -1.4 0 0 Z " fill="#533913" transform="translate(647,50)"/>
<path d="M0 0 C-11.2 28.1 -51.4 59.9 -82 65 C-81 63 -81 63 -73.8 59.5 C-59.6 52.2 -48.2 42.2 -37 31 C-36.3 31 -35.7 31 -35 31 C-34.3 29.7 -33.7 28.4 -33 27 C-30.7 24.7 -28.4 22.4 -26 20 C-25.7 19.3 -25.3 18.7 -25 18 C-24.3 18 -23.7 18 -23 18 C-22.3 16.7 -21.7 15.4 -21 14 C-19 11.7 -17 9.4 -15 7 C-14.3 5.7 -13.7 4.4 -13 3 C-3.4 0 -3.4 0 0 0 Z " fill="#F7F6E8" transform="translate(919,523)"/>
<path d="M0 0 C-2 4 -2 4 -7.1 11.1 C-13 19.6 -17 28.5 -21 38 C-25.4 48.4 -30.2 58.3 -36 68 C-36.3 69.3 -36.7 70.6 -37 72 C-34 73.2 -34 73.2 -31 74.5 C-22.8 78.1 -14.9 81.9 -7 86 C-5.2 86.9 -3.4 87.8 -1.6 88.8 C24.4 102.4 57 120 75 144 C74 144 73 144 72 144 C72 143.3 72 142.7 72 142 C70 141 70 141 68 140 C65.3 137.7 62.7 135.4 60 133 C56.3 130 52.7 127 49 124 C46.7 122 44.4 120 42 118 C39 116.3 36 114.6 33 113 C31.5 111.9 29.9 110.8 28.4 109.7 C9.3 96.5 -16.3 79.7 -39 74 C-39 64 -39 64 -35 62 C-34.3 60 -33.7 58 -33 56 C-32 54 -32 54 -30 54 C-30 52.4 -30 50.7 -30 49 C-29 49 -28 49 -27 49 C-26.3 42 -26.3 42 -26 35 C-24.7 34 -23.4 33 -22 32 C-22.3 29.7 -22.7 27.4 -23 25 C-24 27.6 -25 30.3 -26 33 C-26.7 33 -27.3 33 -28 33 C-24.9 20.8 -20.6 11.3 -11 3 C-12 5 -13 7 -14 9 C-6.3 8.8 -6.3 8.8 -3 1 C-2 0 -2 0 0 0 Z " fill="#7F611A" transform="translate(1074,343)"/>
<path d="M0 0 C2.4 -0 4.9 -0 7.4 -0 C25.5 -0.1 43 1 60.9 3.8 C67.1 4.7 73.4 5.5 79.6 6.2 C79.6 6.8 79.6 7.5 79.6 8.2 C82.9 8.2 86.2 8.2 89.6 8.2 C90.6 8.8 91.6 9.5 92.6 10.2 C84.5 11.4 78.1 10.2 70 8.9 C67.2 8.4 64.5 8 61.6 7.5 C57.7 6.9 57.7 6.9 53.6 6.2 C6.3 -1.5 -42.7 3.2 -88.4 17.2 C-91.4 18.1 -94.5 19 -97.6 20 C-112.8 25.5 -126.7 32.5 -140.4 41.2 C-141 41.2 -141.7 41.2 -142.4 41.2 C-142.4 34.3 -119.1 25.9 -113.4 23.2 C-111.3 22.2 -109.2 21.1 -107 20.1 C-93.7 14.3 -80.6 10.8 -66.4 8.2 C-64.6 7.5 -62.8 6.9 -60.9 6.2 C-41.4 -0.8 -20.4 0 0 0 Z " fill="#976022" transform="translate(312.375,799.8125)"/>
<path d="M0 0 C0 0.7 0 1.3 0 2 C1.9 1.8 3.8 1.7 5.8 1.5 C20.8 0.7 36 0.1 51 2 C51 2.7 51 3.3 51 4 C53 4.5 53 4.5 55 5 C53.5 5 52 5 50.4 5 C43.3 4.9 36.3 4.9 29.2 4.8 C26.8 4.8 24.4 4.8 21.9 4.7 C7.5 4.7 -6.5 5.4 -20.8 7.3 C-27.3 8 -33.7 8.5 -40.2 8.9 C-55.3 10 -69.4 13.4 -84 17 C-85 16.7 -86 16.3 -87 16 C-78 13 -78 13 -76 13 C-76 12.3 -76 11.7 -76 11 C-73.2 10.6 -73.2 10.6 -70.4 10.2 C-63.8 9.2 -63.8 9.2 -57 6 C-56 6 -55 6 -54 6 C-54 5.3 -54 4.7 -54 4 C-35.8 0.4 -18.5 -0.5 0 0 Z " fill="#897C2B" transform="translate(316,755)"/>
<path d="M0 0 C22.3 4.5 46.1 20.5 66 31 C67.7 31.9 69.3 32.7 71 33.6 C75.7 36.1 80.4 38.5 85 41 C86.9 42 88.7 43 90.7 44 C110.5 54.5 129.4 66.4 148 79 C152 81.7 152 81.7 156.1 84.4 C182 102.8 182 102.8 182 110 C165.2 110 148.3 110 131 110 C132.7 114.9 134.3 119.9 136 125 C137.4 133.3 137.1 141.5 137.1 149.9 C137.1 151.6 137.1 153.4 137 155.1 C137 159.4 137 163.7 137 168 C136.7 168 136.3 168 136 168 C136 164.4 136 164.4 135.9 160.7 C135.9 157.4 135.8 154.2 135.8 150.9 C135.7 147.8 135.7 144.6 135.6 141.3 C135 131.3 133.5 122.1 129 113 C129 111.7 129 110.4 129 109 C145.5 108.7 162 108.3 179 108 C177.5 102.7 177.5 102.7 173 101 C171.8 99.9 170.6 98.9 169.3 97.8 C165.1 94 160.7 91.1 156 88 C149.6 83.8 143.3 79.5 136.9 75.2 C116.3 61.5 116.3 61.5 94.8 49.4 C88.9 46.5 83.3 43.4 77.6 40.3 C69.9 36.1 62.1 31.9 54.4 27.8 C52.7 26.9 51 26 49.2 25.1 C45.1 22.9 45.1 22.9 41 22 C40.5 21 40.5 21 40 20 C36.3 18.2 32.6 16.5 28.9 14.9 C0 1.8 0 1.8 0 0 Z " fill="#5E431E" transform="translate(949,146)"/>
<path d="M0 0 C8.1 1.3 15.9 1.3 24.1 1.2 C25.7 1.2 27.4 1.2 29.1 1.2 C34.5 1.2 39.8 1.2 45.1 1.1 C50.4 1.1 55.8 1.1 61.1 1.1 C65.9 1 70.7 1 75.6 1 C90.6 1.1 90.6 1.1 94.5 3.1 C98.6 3.4 102.8 3.8 107 4.1 C119.3 5 119.3 5 121.5 6.1 C130.2 6.8 138.7 7.1 147.5 7.1 C163.5 7.1 163.5 7.1 165.5 9.1 C174 9.8 182.6 10.5 191.2 11.2 C199.5 12.1 199.5 12.1 208.5 15.1 C199.2 17.4 187.9 14.5 178.4 13.4 C160 11.3 141.6 9.8 123.2 8.4 C120.3 8.2 117.5 8 114.5 7.8 C106.8 7.2 99.2 6.6 91.5 6.1 C89.1 5.9 86.8 5.7 84.4 5.5 C74.8 5 65.3 4.9 55.8 5 C52.9 5 52.9 5 49.9 5 C43.8 5 37.7 5 31.5 5 C27.4 5 23.2 5 19 5 C8.8 5 -1.3 5.1 -11.5 5.1 C-5.4 -1.1 -5.4 -1.1 0 0 Z " fill="#201F2E" transform="translate(572.52490234375,96.927490234375)"/>
<path d="M0 0 C1.6 0 3.3 0 5 0 C4 0.5 4 0.5 3 1 C8.4 7.6 14.4 13.2 20.7 18.9 C28.6 26.4 36.3 34.2 44 42 C45.6 43.6 47.3 45.3 49 47 C53.3 51.3 56.9 55.2 53 61 C44.7 53.9 37.2 46.3 30 38 C28.4 36.2 26.8 34.5 25.1 32.7 C20.2 27.3 15.6 21.7 11 16 C9.6 14.4 8.1 12.8 6.6 11.1 C0 3.6 0 3.6 0 0 Z " fill="#CF9510" transform="translate(416,672)"/>
<path d="M0 0 C13.9 -0.3 27.2 0.4 40.9 2.1 C46.8 2.8 52.5 3.4 58.4 3.9 C69.9 4.9 81.4 6.4 92.9 7.9 C97 8.4 101.1 8.9 105.2 9.5 C107.2 9.7 109.2 10 111.2 10.3 C121.9 11.6 132.5 12.9 143.2 14.2 C146.8 14.7 150.4 15.3 154 16 C154 16.7 154 17.3 154 18 C150.5 17.7 147 17.4 143.6 17.1 C140.7 16.8 140.7 16.8 137.7 16.5 C133 16 133 16 132 15 C128.8 14.8 125.7 14.5 122.4 14.2 C113.1 13.4 103.8 12.4 94.6 11.1 C80.1 9.2 65.7 7.7 51.2 6.3 C44.7 5.7 38.4 5.1 32 4 C28 3.8 24.1 3.6 20.1 3.4 C18 3.4 16 3.3 13.8 3.2 C11.4 3.1 11.4 3.1 9 3 C9 2.7 9 2.3 9 2 C6 1.7 3.1 1.3 0 1 C0 0.7 0 0.3 0 0 Z " fill="#6E4014" transform="translate(659,75)"/>
<path d="M0 0 C4.8 7.1 6 16.8 8 25.1 C10.7 37.6 10.7 37.6 16 49 C16.7 51.3 17.3 53.6 18 56 C20.3 60.7 22.6 65.4 25 70 C26.2 72.5 27.5 75 28.8 77.6 C40.1 103.3 40.1 103.3 56 126 C56.3 127.3 56.7 128.6 57 130 C29.3 102.3 0 39.6 0 0 Z " fill="#624612" transform="translate(335,320)"/>
<path d="M0 0 C0 18.9 -46.2 50.9 -60 60 C-60.7 60 -61.3 60 -62 60 C-62 58 -62 58 -60 56 C-59.7 54.4 -59.3 52.7 -59 51 C-54.5 48 -50 45 -45.4 42 C-36.9 36.4 -36.9 36.4 -30 29 C-27.5 27.5 -27.5 27.5 -25 26 C-22 23.2 -19 20.3 -16.1 17.3 C-14.6 15.8 -13 14.2 -11.4 12.6 C-7.5 8.5 -3.7 4.3 0 0 Z " fill="#C2A214" transform="translate(1113,775)"/>
<path d="M0 0 C20.1 0 40.3 0 61 0 C61 2 61 2 54.1 3.2 C46.3 4.6 38.5 6 30.8 7.2 C28.6 7.6 26.5 8 24.4 8.3 C14.6 9.5 14.6 9.5 12 3 C10.4 2.9 8.8 2.8 7.1 2.6 C2 2 2 2 0 0 Z " fill="#243696" transform="translate(602,546)"/>
<path d="M0 0 C12.4 2.3 24.5 5.6 36.7 8.7 C51.1 12.3 65.5 15.4 80.1 17.8 C84.1 18.4 84.1 18.4 88.1 19 C90 19.4 92 19.7 94 20 C93.3 20.7 92.7 21.3 92 22 C95.6 23.3 99.3 24.6 103 26 C99 27 99 27 93 26 C93 25.3 93 24.7 93 24 C91.2 23.9 89.3 23.8 87.4 23.8 C79.6 23 72.6 21.1 65 19 C63 18.7 61.1 18.4 59.1 18.1 C51.4 16.7 44.4 14.3 37 12 C32.9 11 28.8 9.9 24.8 8.9 C1.6 3.3 1.6 3.3 0 0 Z " fill="#F1F2B5" transform="translate(549,310)"/>
<path d="M0 0 C1.3 5.1 0.8 9.5 0.6 14.8 C-0.8 32.1 -0.8 32.1 2 49 C2.3 50.9 2.5 52.8 2.8 54.7 C4.1 61.3 6 66 9 72 C10.4 74.8 11.8 77.6 13.2 80.4 C14.4 82.9 15.7 85.4 17 88 C20.3 94.6 20.8 101.8 22 109 C22.3 110.3 22.7 111.6 23 113 C23 117 23 121 23 125 C19 117.1 18.3 107.7 17.3 99 C15.5 90.9 11.8 84.4 8 77 C-2 53.1 -10.1 25.4 0 0 Z " fill="#7C5618" transform="translate(312,194)"/>
<path d="M0 0 C9.1 1.5 17.5 4.4 26.1 7.4 C28.9 8.4 31.7 9.4 34.6 10.4 C49.9 15.8 49.9 15.8 51 18 C52 18.3 53 18.7 54 19 C54.5 20 54.5 20 55 21 C59.3 23.5 63.6 25.8 68 28 C68 30 68 30 65 31 C62.2 29.5 59.5 27.9 56.6 26.4 C44 19.7 30.9 14.5 17.7 9.2 C0 1.9 0 1.9 0 0 Z " fill="#121F3B" transform="translate(819,171)"/>
<path d="M0 0 C0 0.3 0 0.7 0 1 C-2.7 1.4 -2.7 1.4 -5.4 1.7 C-44.5 7.1 -88.6 14.7 -121 39 C-121.7 39 -122.3 39 -123 39 C-123 32.1 -99.7 23.8 -94 21 C-91.9 20 -89.8 18.9 -87.6 17.9 C-74.4 12.1 -61.2 8.4 -47 6 C-44.7 5.3 -42.4 4.7 -40 4 C-26.8 1.5 -13.5 0 0 0 Z " fill="#634323" transform="translate(293,802)"/>
</svg>
