<?xml version="1.0" standalone="no"?>
<!DOCTYPE svg PUBLIC "-//W3C//DTD SVG 20010904//EN"
 "http://www.w3.org/TR/2001/REC-SVG-20010904/DTD/svg10.dtd">
<svg version="1.0" xmlns="http://www.w3.org/2000/svg"
 width="290.000000pt" height="200.000000pt" viewBox="0 0 290.000000 200.000000"
 preserveAspectRatio="xMidYMid meet">
<metadata>
Created by potrace 1.16, written by Peter Selinger 2001-2019
</metadata>
<g transform="translate(0.000000,200.000000) scale(0.100000,-0.100000)"
fill="#000000" stroke="none">
<path d="M808 1946 c-42 -58 -70 -117 -107 -225 -29 -82 -32 -106 -33 -201 0
-95 -2 -111 -19 -126 -25 -22 -63 -83 -56 -90 2 -3 14 10 26 29 11 18 29 41
40 51 17 16 20 31 19 119 0 112 9 177 24 177 6 0 8 -10 5 -22 -13 -53 -19
-176 -9 -209 8 -32 7 -40 -16 -70 l-25 -34 31 30 c30 29 30 31 20 77 -8 34 -8
72 -1 133 12 97 33 133 111 190 74 54 76 52 69 -77 -4 -62 -9 -126 -12 -143
l-5 -30 11 30 c16 41 16 306 1 376 -15 68 -33 72 -74 15z m63 -12 c4 -16 7
-47 8 -69 1 -36 -2 -42 -31 -54 -18 -8 -57 -39 -87 -68 -29 -30 -55 -52 -57
-50 -11 10 61 166 108 235 33 48 50 50 59 6z M2265 1708 c-202 -167 -505 -488
-505 -535 0 -14 25 -72 55 -129 30 -58 55 -111 55 -119 0 -7 -34 -39 -75 -70
-51 -39 -75 -64 -75 -79 0 -12 26 -47 63 -84 59 -60 61 -64 43 -78 -11 -8 -23
-14 -28 -14 -4 0 -38 48 -75 106 -38 58 -82 123 -99 144 -44 54 -105 175 -163
324 -28 71 -56 135 -62 143 -7 7 -10 15 -8 17 2 2 42 16 89 31 99 32 279 120
364 178 78 53 146 121 146 147 0 28 -32 33 -145 20 -138 -15 -142 -16 -149
-54 -8 -40 -78 -187 -97 -203 -8 -6 -56 -26 -107 -43 -51 -18 -91 -34 -89 -36
4 -5 166 49 196 65 24 13 82 123 101 193 7 26 18 49 26 52 35 13 236 28 246
18 44 -44 -279 -258 -493 -327 -81 -27 -88 -27 -104 -12 -9 9 -21 17 -26 17
-18 0 -8 -35 39 -139 27 -58 57 -127 67 -154 10 -26 20 -45 23 -43 2 3 -26 74
-62 159 -36 85 -66 157 -66 162 0 4 7 2 15 -5 8 -7 15 -18 15 -26 0 -7 9 -28
19 -46 11 -18 41 -87 66 -153 47 -119 114 -255 142 -287 9 -10 10 -18 4 -22
-12 -8 -49 39 -58 72 -6 24 -73 142 -73 129 0 -10 41 -91 49 -97 4 -3 13 -24
19 -48 7 -23 22 -48 33 -55 23 -13 108 -137 124 -179 5 -14 25 -42 43 -62 40
-44 65 -131 58 -201 -5 -45 -4 -47 4 -15 11 40 4 119 -16 165 -7 18 -10 36 -6
40 4 3 2 5 -4 3 -12 -3 -74 67 -74 84 0 5 -22 42 -50 83 -27 41 -46 76 -41 79
4 3 36 -38 70 -92 94 -148 94 -148 128 -137 47 17 40 44 -27 110 -33 33 -60
65 -60 71 0 6 34 37 76 69 71 54 76 61 71 89 -3 17 -28 73 -56 125 -28 52 -51
102 -51 111 0 60 561 610 623 610 32 0 73 -132 104 -339 l17 -114 -29 -24
c-17 -13 -100 -69 -185 -125 -333 -215 -319 -201 -280 -278 l21 -42 -21 -23
c-12 -13 -44 -38 -71 -56 -27 -19 -51 -40 -54 -48 -3 -7 19 -41 50 -76 30 -35
55 -66 55 -69 0 -7 -89 -49 -127 -61 -30 -8 -29 -18 7 -58 33 -38 28 -52 -20
-59 -23 -3 -26 -9 -36 -73 -6 -38 -18 -85 -28 -104 -16 -30 -16 -40 -5 -96 11
-57 10 -66 -5 -90 -9 -14 -16 -31 -14 -37 2 -6 12 6 22 27 17 35 18 46 7 101
-11 54 -11 65 3 87 9 13 22 57 29 98 11 70 13 73 43 81 46 12 50 35 14 73
l-31 32 73 30 c42 18 74 38 76 47 2 9 -22 45 -52 80 l-56 63 60 42 c34 24 68
53 76 66 14 21 13 28 -7 74 -26 62 -27 61 84 132 45 29 143 93 217 141 207
134 193 119 186 199 -9 86 -49 278 -74 349 -16 48 -22 55 -48 58 -24 2 -47
-12 -129 -80z M866 1723 c-16 -154 -28 -204 -53 -220 -13 -9 -21 -18 -19 -21
3 -2 18 4 33 14 42 28 265 26 343 -4 l54 -20 36 28 c52 41 275 146 361 169 40
11 65 20 55 20 -59 2 -288 -91 -401 -164 l-59 -37 -60 18 c-46 14 -91 19 -185
18 l-123 0 6 35 c11 62 26 214 22 218 -2 3 -7 -22 -10 -54z M2305 1704 c-44
-37 -113 -99 -154 -138 -121 -118 -361 -378 -361 -392 0 -8 23 -57 51 -111 29
-53 55 -108 59 -122 6 -19 9 -21 9 -7 1 10 -24 66 -55 124 -39 75 -53 111 -47
123 27 59 341 376 508 514 33 27 63 54 66 58 9 13 16 -2 38 -75 27 -90 54
-234 55 -298 1 -54 1 -54 -46 -85 -242 -156 -400 -260 -404 -266 -2 -5 43 22
100 59 58 37 165 105 237 151 l132 84 -6 61 c-13 129 -72 376 -92 383 -6 2
-46 -27 -90 -63z M1590 1641 c-94 -31 -252 -107 -317 -154 -29 -20 -49 -28
-65 -24 -13 3 -52 13 -88 22 -78 20 -233 16 -295 -8 -52 -20 -40 -21 32 -2 74
19 192 19 268 -1 109 -28 107 -28 165 11 82 55 216 120 301 145 40 13 78 27
84 31 12 12 14 12 -85 -20z M990 1405 c-6 -8 -14 -32 -17 -55 -8 -57 17 -84
71 -77 21 3 46 12 54 21 21 21 20 82 -1 103 -15 15 -21 16 -54 4 -21 -8 -41
-19 -45 -25 -6 -8 -8 -8 -8 1 0 6 10 19 22 27 17 12 18 16 6 16 -8 0 -21 -7
-28 -15z m104 -27 c9 -12 16 -28 16 -36 0 -21 -47 -62 -71 -62 -30 0 -59 28
-59 56 0 21 4 23 37 21 30 -2 38 2 41 18 4 20 3 20 -11 1 -9 -12 -19 -16 -27
-11 -9 6 -6 11 11 21 34 19 46 17 63 -8z M673 1329 c9 -5 17 -17 17 -26 0 -14
-2 -14 -14 3 -8 10 -18 16 -22 11 -4 -4 -2 -7 5 -7 7 0 9 -4 6 -10 -11 -18
-25 -11 -26 13 0 15 -2 17 -6 7 -4 -8 -13 -20 -21 -26 -8 -6 -15 -28 -16 -50
-1 -35 2 -39 26 -42 26 -3 55 25 62 60 2 7 6 21 11 31 10 24 -1 47 -22 47 -17
-1 -17 -1 0 -11z m-38 -49 c4 -7 12 -7 25 0 23 12 22 -6 -3 -43 -30 -46 -64
-31 -52 23 7 30 19 38 30 20z M1140 1273 c-52 -19 -79 -90 -60 -159 16 -56 42
-79 91 -79 29 0 46 7 66 28 25 25 28 34 28 98 0 65 -2 73 -28 95 -27 23 -63
29 -97 17z m95 -35 c24 -28 27 -38 23 -87 -4 -45 -10 -59 -37 -83 -37 -33 -59
-35 -94 -7 -57 44 -57 144 0 189 38 30 76 26 108 -12z M550 1236 c-18 -48 -12
-147 11 -191 27 -50 64 -95 96 -116 24 -16 23 -16 -69 -48 -51 -18 -106 -35
-123 -38 -16 -3 -37 -15 -45 -27 -23 -33 -30 -97 -13 -126 13 -23 26 -27 131
-44 64 -9 148 -20 185 -23 51 -5 70 -10 77 -24 14 -25 36 -140 44 -224 10 -96
34 -146 92 -188 27 -20 61 -38 77 -41 20 -4 32 -16 43 -43 22 -53 53 -83 85
-83 32 0 39 14 39 81 0 46 2 50 40 75 62 41 117 42 233 5 54 -17 107 -31 120
-31 49 0 69 -13 87 -55 17 -39 84 -104 96 -93 2 3 -12 18 -32 33 -20 15 -45
47 -55 71 -18 40 -23 43 -67 49 -26 3 -90 19 -143 36 -132 40 -190 37 -261
-13 -24 -17 -28 -26 -28 -68 0 -60 -7 -80 -29 -80 -23 0 -66 47 -78 84 -7 21
-19 33 -48 43 -50 17 -119 74 -138 115 -8 18 -20 76 -26 128 -6 52 -17 121
-26 153 -18 68 -18 67 -6 67 11 0 36 -111 51 -228 6 -46 15 -94 20 -107 12
-33 91 -95 145 -116 51 -19 100 -12 143 22 13 10 39 23 58 29 20 7 33 14 31
17 -6 6 -77 -24 -97 -41 -31 -28 -87 -36 -133 -18 -23 8 -50 23 -61 31 -17 15
-17 16 10 23 28 7 28 7 -4 4 -48 -4 -88 44 -97 116 -15 127 -36 229 -57 283
-12 32 -24 53 -26 47 -2 -6 1 -20 7 -30 6 -11 8 -21 6 -24 -6 -6 -143 8 -273
28 -94 15 -115 21 -124 38 -25 45 3 136 41 136 10 0 44 11 77 24 32 13 75 27
94 31 62 13 64 23 16 71 -70 70 -96 122 -96 194 0 34 5 70 11 82 6 11 8 22 5
25 -3 3 -10 -6 -16 -21z M903 1229 c-17 -18 -42 -24 -125 -33 -81 -8 -96 -12
-68 -17 l35 -6 -35 -3 -35 -3 34 -6 c31 -5 39 -14 70 -74 52 -99 72 -119 118
-115 35 3 39 6 47 41 7 25 6 65 -1 115 -9 58 -8 79 0 84 9 5 8 11 -3 23 -14
13 -18 13 -37 -6z m24 -13 c-10 -8 -12 -17 -6 -28 16 -28 23 -162 10 -186 -16
-30 -56 -28 -86 4 -29 31 -97 162 -90 173 2 5 35 11 72 14 52 4 71 10 83 25 8
11 19 17 24 14 5 -3 2 -10 -7 -16z M868 1056 c-15 -18 -24 -36 -21 -40 3 -3
13 3 21 15 9 13 21 19 33 16 11 -3 19 -1 19 4 0 5 -7 9 -15 9 -9 0 -12 6 -9
15 9 23 1 18 -28 -19z M870 1012 c0 -7 3 -12 8 -13 4 0 14 -2 23 -4 9 -1 16 3
16 11 0 9 -4 11 -12 4 -7 -6 -16 -5 -23 2 -9 9 -12 9 -12 0z M570 1187 c0 -5
11 -23 24 -40 34 -46 59 -121 52 -154 -5 -26 -5 -27 6 -5 15 30 -15 130 -53
174 -16 18 -28 29 -29 25z M1330 981 c-8 -5 -31 -16 -52 -24 -27 -12 -38 -24
-43 -46 -4 -17 -10 -31 -15 -31 -29 0 -2 -119 37 -162 35 -39 63 -14 31 27
-37 48 -47 91 -29 129 19 39 75 72 91 53 5 -7 19 -23 31 -37 l21 -25 -17 28
c-19 33 -12 50 10 21 8 -10 15 -37 16 -59 l2 -40 4 39 c6 55 -13 86 -51 86
-28 0 -29 1 -10 15 18 13 18 14 -6 9 -24 -5 -24 -5 -6 10 21 17 12 21 -14 7z
m-19 -41 c-13 -11 -29 -20 -37 -20 -8 0 -15 -4 -15 -10 -1 -5 -3 -14 -4 -20
-1 -5 -3 -15 -4 -21 0 -5 -5 -7 -11 -4 -27 17 9 -97 42 -132 12 -13 17 -23 11
-23 -18 0 -44 36 -62 86 -17 49 -17 49 7 97 22 45 47 65 82 66 10 0 8 -6 -9
-19z M683 949 c15 -11 24 -26 21 -31 -4 -6 -2 -8 4 -4 6 3 13 2 17 -4 3 -5 12
-10 18 -10 7 1 -6 16 -28 35 -22 19 -44 35 -50 35 -5 -1 2 -10 18 -21z M690
889 c-8 -5 -64 -24 -123 -43 -59 -20 -115 -42 -123 -51 -9 -8 -11 -15 -6 -15
5 0 15 6 21 14 6 8 24 16 39 19 38 8 190 61 198 70 4 4 16 0 26 -10 10 -9 18
-11 18 -5 0 17 -33 31 -50 21z M1310 810 c0 -33 10 -43 30 -29 13 7 12 9 -2 9
-10 0 -18 7 -18 16 0 14 3 14 15 4 13 -11 14 -10 9 3 -3 8 -12 18 -20 21 -10
4 -14 -3 -14 -24z M471 781 c-10 -7 -11 -12 -1 -27 10 -17 11 -17 6 -1 -4 12
1 21 17 27 12 5 15 9 7 9 -8 0 -21 -3 -29 -8z M780 680 c0 -17 -7 -20 -42 -20
-24 0 -88 7 -142 15 -55 8 -104 14 -110 14 -27 -3 128 -29 212 -35 l92 -7 0
27 c0 14 -2 26 -5 26 -3 0 -5 -9 -5 -20z M1731 199 c-13 -11 -21 -22 -19 -25
3 -3 19 6 34 20 34 30 20 35 -15 5z M1741 100 c0 -8 6 -26 15 -40 15 -25 15
-25 8 -1 -4 15 -1 27 7 33 11 8 10 9 -3 5 -9 -3 -19 -1 -22 6 -3 7 -5 6 -5 -3z
M1100 86 c0 -7 8 -20 18 -27 15 -13 16 -12 4 3 -8 9 -11 22 -7 28 3 5 1 10 -4
10 -6 0 -11 -6 -11 -14z M1721 84 c0 -12 7 -28 17 -35 15 -12 16 -12 6 1 -7 8
-14 24 -17 35 -4 19 -5 19 -6 -1z"/>
</g>
</svg>
