<?xml version="1.0" encoding="UTF-8"?>
<!-- Generator: visioncortex VTracer 0.6.4 -->
<svg version="1.1" xmlns="http://www.w3.org/2000/svg" width="1160" height="800">
<path d="M0 0 C382.8 0 765.6 0 1160 0 C1160 264 1160 528 1160 800 C777.2 800 394.4 800 0 800 C0 536 0 272 0 0 Z " fill="#FEFEFD" transform="translate(0,0)"/>
<path d="M0 0 C17.9 17.9 13.2 65.8 13.2 89.1 C13.2 92 13.2 94.9 13.2 97.9 C13.2 112.1 13 125.9 11 140 C10.7 142.3 10.4 144.6 10.1 146.9 C7.9 163.2 4.8 179.1 1 195 C3.2 194.4 5.4 193.8 7.7 193.1 C50.5 183.4 96.4 189.4 137.2 204.4 C147.3 207.8 147.3 207.8 155.2 201.1 C179.1 179.6 212.1 166.5 241 153 C243.3 151.9 245.6 150.8 248 149.7 C262.1 143.2 276.1 138.2 291 134 C293 133.4 295.1 132.8 297.1 132.1 C325.6 123.5 355.4 116.8 385 114 C387.6 113.7 390.1 113.5 392.8 113.2 C445.8 107.9 445.8 107.9 454 112 C452.5 124.2 447.3 130.2 439 139 C437.9 140.3 436.8 141.6 435.7 142.9 C411.3 169.8 377.2 189.9 345 206 C342.5 207.3 340 208.5 337.5 209.9 C309.3 224.2 281 235.3 251 245 C246.7 246.5 242.5 247.9 238.2 249.4 C227.6 252.9 216.9 255.6 206 258 C208 263.3 208 263.3 211.6 269.1 C221.2 286.3 228.5 304.3 235.8 322.6 C236.7 325.1 237.7 327.5 238.7 330 C242.8 340.3 246.9 350.7 250.9 361.1 C261 387.3 273.4 411 288 435 C288.9 436.5 289.8 438.1 290.8 439.6 C295 446.5 299.5 453.2 304.3 459.7 C309 466.1 313.4 472.7 317.5 479.5 C325.2 492.2 333.9 504 343 515.8 C353.7 530 362.4 545.5 371 561 C382.6 559.3 392.1 553.2 402 547 C399.8 542.1 399.8 542.1 393 536 C390.7 533.3 388.3 530.7 386 528 C379.4 520.5 372.5 513.5 365.5 506.5 C361.8 502.8 358.4 498.9 355 495 C352 492 349 489 346 486 C351.1 475.8 363 469.5 372 463 C384.2 453.9 396.1 444.5 408 435 C409.6 433.7 411.3 432.4 413 431 C409.8 411.9 397.1 392.9 388.4 375.8 C385.7 370.5 383.1 365.2 380.5 359.8 C377.3 353.6 373.8 347.9 370 342 C359.7 318.9 378.2 305.3 393 289 C394.1 287.7 395.2 286.4 396.4 285.1 C401.2 279.7 406.1 274.4 411 269 C412.1 267.7 413.2 266.4 414.3 265.1 C419.9 258.8 426 253 432 247 C434.4 244.4 436.7 241.7 439 239 C442.7 235 446.3 231 450 227 C453 223.7 453 223.7 456 220.3 C461 215 461 215 464 214 C464.7 212.7 465.3 211.4 466 210 C468.6 207.6 471.3 205.3 474 203 C476.7 200.4 479.4 197.7 482 195 C487.2 189.8 492.5 184.8 498 180 C500.3 177.7 502.6 175.4 505 173 C509.9 168.1 514.7 163.5 520 159 C521.6 157.3 523.3 155.7 525 154 C525.7 154 526.3 154 527 154 C527.3 153 527.7 152 528 151 C530.6 148.6 533.3 146.3 536 144 C537.9 142.2 539.8 140.5 541.8 138.6 C547.4 133.5 553.1 128.7 559 124 C560.3 123 561.5 122 562.8 120.9 C571.1 114.1 579.5 107.5 588 101 C589.8 99.5 591.5 98 593.4 96.5 C600 91.2 606.9 86.6 614 82 C615.5 81 615.5 81 617 80 C638.4 85.3 648.5 173.8 652 195 C652.3 196.9 652.6 198.8 653 200.8 C654.8 211.6 656.6 222.5 658.3 233.4 C658.6 235.2 658.9 237 659.2 238.9 C662.7 261.8 663 270.7 643.1 282.4 C613.9 299.7 585.5 318 557.9 337.6 C545.2 346.6 532.2 354.9 518.8 362.9 C499 374.9 478.8 387.1 461 402 C459 403.6 457 405.3 455 407 C457.6 422.4 467.1 438.1 474 452 C474 469.6 429.7 490.9 416 500 C412 501.9 412 501.9 415 507 C418.2 510.7 421.4 514.5 424.6 518.1 C427.4 521.3 430.1 524.6 432.8 527.9 C436.8 533 436.8 533 441 537 C445.7 541.7 449.8 546.8 454 552 C456.3 554.7 458.6 557.3 461 560 C457.6 573.7 419 583.1 406.5 588.1 C401.5 590.1 401.5 590.1 395 594 C396.6 595.6 398.2 597.2 399.8 598.8 C402.9 601.9 402.9 601.9 406.1 605.1 C408.2 607.1 410.3 609.2 412.4 611.3 C424.2 623.3 424.2 623.3 423 628 C398.6 636 398.6 636 389 636 C389.1 638.4 389.2 640.7 389.2 643.2 C389.3 667.6 386.3 694 370 713 C370.6 721.8 372.2 730.1 374 738.8 C380.8 770.5 380.8 770.5 377 778 C374.7 778 372.4 778 370 778 C370 780.6 370 783.3 370 786 C369 790 369 790 364 791 C339.3 780 319 763.9 319 734 C314.6 734.2 314.6 734.2 310.2 734.3 C285.4 734.3 262.1 726.9 238.8 718.9 C195 703.8 167.5 706.9 127 730 C127 735 127 740 127.5 745 C129.8 772.1 129.8 772.1 121 783 C120.3 784.3 119.7 785.6 119 787 C96.2 787 85.7 763.8 81 745 C80.7 742.7 80.3 740.4 80 738 C77.6 737.5 75.3 736.9 72.9 736.4 C31.6 725.3 6.1 696.1 1.4 654 C1.1 651.6 0.8 649.1 0.5 646.6 C-0.1 641.6 -0.6 636.5 -1.2 631.4 C-4.6 602.1 -10.1 574.2 -19 546 C-19 545.3 -19 544.7 -19 544 C-21.1 544 -23.3 544 -25.4 544.1 C-60.7 543.8 -96 538.3 -130.5 531.8 C-144.3 529.1 -158 527.7 -172 527 C-174.4 524.6 -173.7 518.2 -174 515 C-176.6 513.4 -179.3 511.7 -182 510 C-180.9 503.3 -178.8 499.8 -174 495 C-175 490.9 -175 490.9 -182 487 C-180.3 478.4 -173.7 477.2 -166 475 C-167 472.4 -168 469.7 -169 467 C-169 465.4 -169 463.7 -169 462 C-159 463 -159 463 -154.4 464 C-146.2 464 -140.4 460.4 -133 457 C-108.3 447.6 -83.2 439.4 -57 435 C-61.1 431.7 -65.3 428.7 -69.6 425.8 C-115.4 394.4 -136.5 345.3 -113.5 293.4 C-102.6 270 -89.2 250.3 -68 235 C-68.1 233.6 -68.3 232.1 -68.4 230.6 C-68.8 226.7 -69.1 222.7 -69.5 218.7 C-69.9 214.7 -70.2 210.6 -70.6 206.6 C-74.8 133.4 -52.8 52.8 0 0 Z " fill="#EBCC7C" transform="translate(342,4)"/>
<path d="M0 0 C16.2 35.4 24.6 75.7 31 114 C31.3 115.9 31.6 117.8 32 119.8 C33.8 130.6 35.6 141.5 37.3 152.4 C37.6 154.2 37.9 156 38.2 157.9 C41.7 180.8 42 189.7 22.1 201.4 C-7.1 218.7 -35.5 237 -63.1 256.6 C-75.8 265.6 -88.8 273.9 -102.2 281.9 C-122 293.9 -142.2 306.1 -160 321 C-162 322.6 -164 324.3 -166 326 C-163.4 341.4 -153.9 357.1 -147 371 C-147 388.6 -191.3 409.9 -205 419 C-209 420.9 -209 420.9 -206 426 C-202.8 429.7 -199.6 433.5 -196.4 437.1 C-193.6 440.3 -190.9 443.6 -188.2 446.9 C-184.2 452 -184.2 452 -180 456 C-175.3 460.7 -171.2 465.8 -167 471 C-164.7 473.7 -162.4 476.3 -160 479 C-163.4 492.7 -202 502.1 -214.5 507.1 C-219.5 509.1 -219.5 509.1 -226 513 C-224.4 514.6 -222.8 516.2 -221.2 517.8 C-219.1 519.9 -217 521.9 -214.9 524.1 C-212.8 526.1 -210.7 528.2 -208.6 530.3 C-196.8 542.3 -196.8 542.3 -198 547 C-222.4 555 -222.4 555 -232 555 C-231.9 557.4 -231.8 559.7 -231.8 562.2 C-231.7 586.6 -234.7 613 -251 632 C-250.4 640.8 -248.8 649.1 -247 657.8 C-239.4 693.2 -239.4 693.2 -245 696 C-245.1 694.5 -245.3 693 -245.4 691.4 C-247 662.5 -247 662.5 -256 636 C-258 637.3 -260.1 638.6 -262.2 639.9 C-272.8 646.3 -272.8 646.3 -278 645 C-274.4 643.4 -274.4 643.4 -270.8 641.7 C-223.3 616.3 -231.8 541.7 -246 498 C-248.4 491.5 -248.4 491.5 -251 486 C-251.9 484 -252.8 482 -253.7 480 C-257.7 474 -260.3 473.2 -267 471 C-277.1 463.4 -279.8 458.4 -280.2 445.7 C-281.4 435.9 -286.2 430.4 -292.1 422.7 C-297.7 415.1 -302.7 407.2 -307.7 399.2 C-313.5 388.9 -313.5 388.9 -324 385 C-335.9 377.1 -343.3 365.8 -342.8 351.1 C-344.5 339.5 -350.2 331 -356 321 C-365.6 302.8 -372.8 283.7 -380.2 264.6 C-398.8 216.8 -398.8 216.8 -423.5 172.1 C-426 168 -426 168 -427 164 C-422 169 -422 169 -420 174 C-399.7 170.2 -380.5 163.8 -361 157 C-358.7 156.2 -356.3 155.4 -353.9 154.6 C-322.1 143.8 -314 127 -300.3 97.2 C-298.2 92.7 -296.1 88.2 -293.8 83.7 C-288 71.9 -283.8 59.1 -282 46 C-322.9 50.5 -362.6 67.6 -399 86 C-402.7 87.7 -406.3 89.4 -410 91.1 C-432.2 101.7 -453.2 113.9 -471 131 C-476 130 -476 130 -483.9 126.8 C-507 117.8 -530.5 114.9 -555 112 C-555.3 111.3 -555.7 110.7 -556 110 C-530.9 109.3 -508.2 113.9 -484.7 122.9 C-474 126.9 -474 126.9 -465.8 120.1 C-441.9 98.6 -408.9 85.5 -380 72 C-376.5 70.4 -376.5 70.4 -373 68.7 C-358.9 62.2 -344.9 57.2 -330 53 C-328 52.4 -325.9 51.8 -323.9 51.1 C-295.4 42.5 -265.6 35.8 -236 33 C-233.4 32.7 -230.9 32.5 -228.2 32.2 C-175.2 26.9 -175.2 26.9 -167 31 C-168.5 43.2 -173.7 49.2 -182 58 C-183.6 59.9 -183.6 59.9 -185.3 61.9 C-209.7 88.8 -243.8 108.9 -276 125 C-278.5 126.3 -281 127.5 -283.5 128.9 C-311.7 143.2 -340 154.3 -370 164 C-374.3 165.5 -378.5 166.9 -382.8 168.4 C-393.4 171.9 -404.1 174.6 -415 177 C-413 182.3 -413 182.3 -409.4 188.1 C-399.8 205.3 -392.5 223.3 -385.2 241.6 C-383.8 245.3 -383.8 245.3 -382.3 249 C-378.2 259.3 -374.1 269.7 -370.1 280.1 C-360 306.3 -347.6 330 -333 354 C-331.6 356.3 -331.6 356.3 -330.2 358.6 C-326 365.5 -321.5 372.2 -316.7 378.7 C-312 385.1 -307.6 391.7 -303.5 398.5 C-295.8 411.2 -287.1 423 -278 434.8 C-267.3 449 -258.6 464.5 -250 480 C-238.4 478.3 -228.9 472.2 -219 466 C-221.2 461.1 -221.2 461.1 -228 455 C-230.3 452.3 -232.7 449.7 -235 447 C-241.6 439.5 -248.5 432.5 -255.5 425.5 C-259.2 421.8 -262.6 417.9 -266 414 C-269 411 -272 408 -275 405 C-269.9 394.8 -258 388.5 -249 382 C-236.8 372.9 -224.9 363.5 -213 354 C-211.4 352.7 -209.7 351.4 -208 350 C-211.2 330.9 -223.9 311.9 -232.6 294.8 C-235.3 289.5 -237.9 284.2 -240.5 278.8 C-243.7 272.6 -247.2 266.9 -251 261 C-261.3 237.9 -242.8 224.3 -228 208 C-226.9 206.7 -225.8 205.4 -224.6 204.1 C-219.8 198.7 -214.9 193.4 -210 188 C-208.9 186.7 -207.8 185.4 -206.7 184.1 C-201.1 177.8 -195 172 -189 166 C-186.6 163.4 -184.3 160.7 -182 158 C-178.3 154 -174.7 150 -171 146 C-169 143.8 -167 141.6 -165 139.3 C-160 134 -160 134 -157 133 C-156.3 131.7 -155.7 130.4 -155 129 C-152.4 126.6 -149.7 124.3 -147 122 C-144.3 119.4 -141.6 116.7 -139 114 C-133.8 108.8 -128.5 103.8 -123 99 C-120.7 96.7 -118.4 94.4 -116 92 C-111.1 87.1 -106.3 82.5 -101 78 C-99.4 76.3 -97.7 74.7 -96 73 C-95.3 73 -94.7 73 -94 73 C-93.7 72 -93.3 71 -93 70 C-90.4 67.6 -87.7 65.3 -85 63 C-83.1 61.2 -81.2 59.5 -79.2 57.6 C-73.6 52.5 -67.9 47.7 -62 43 C-60.7 42 -59.5 41 -58.2 39.9 C-49.9 33.1 -41.5 26.5 -33 20 C-31.2 18.5 -29.5 17 -27.6 15.5 C-21 10.2 -14.1 5.6 -7 1 C-4 -1 -4 -1 0 0 Z M-44 33 C-48.7 36.7 -53.3 40.3 -58 44 C-62.3 47.7 -66.7 51.3 -71 55 C-72.9 56.5 -74.7 58 -76.6 59.5 C-82.4 64.4 -87.7 69.6 -93 75 C-95.6 77.4 -98.3 79.7 -101 82 C-107.8 88.1 -114 94.2 -120 101 C-123.3 104 -126.6 107 -130 110 C-132.7 112.5 -135.5 115.1 -138.2 117.6 C-139.5 118.9 -140.8 120.1 -142.2 121.4 C-145.8 124.8 -149.4 128.4 -153 132 C-155.8 134.8 -158.7 137.7 -161.5 140.5 C-167.9 146.8 -174.1 153.2 -180 160 C-182.7 162.7 -185.3 165.3 -188 168 C-189.1 169.3 -190.2 170.5 -191.3 171.8 C-196 177.1 -201 182 -206 187 C-208.4 189.7 -210.7 192.3 -213 195 C-214.9 197 -216.8 199 -218.7 201.1 C-249 230.8 -249 230.8 -243 268 C-241.2 271.6 -239.3 275.3 -237.5 278.9 C-234.4 285.2 -231.3 291.4 -228.2 297.6 C-225.7 302.6 -223.2 307.6 -220.7 312.6 C-219.4 315.1 -218.1 317.6 -216.8 320.3 C-215 323.9 -215 323.9 -213.1 327.6 C-212 329.8 -210.9 332 -209.8 334.3 C-202.2 349.9 -202.2 349.9 -212.1 357.2 C-220.2 363.3 -228.1 369.6 -236 376 C-243.5 381.9 -251.2 387.5 -259 393 C-269 398.5 -269 398.5 -270 407 C-267.6 409.6 -265.1 412.1 -262.6 414.5 C-260.4 416.8 -260.4 416.8 -258.1 419 C-256.5 420.6 -254.9 422.2 -253.3 423.8 C-250.2 426.8 -247.1 429.9 -244.1 432.9 C-242 435 -242 435 -239.9 437 C-236.1 440.9 -232.6 444.9 -229 449 C-226.7 451.3 -224.4 453.6 -222 456 C-221.3 457 -220.7 458 -220 459 C-215.6 460.8 -215.6 460.8 -214 456 C-214 467 -214 467 -224 472 C-226.5 474 -226.5 474 -229 476 C-232.7 478 -236.3 480 -240 482 C-249.5 489.6 -241 503.1 -237 513 C-233.5 513.3 -233.5 513.3 -229 510 C-221.4 506.2 -213.9 503.1 -206 500 C-197.2 496.5 -188.6 493 -180 489 C-175.5 487 -175.5 487 -171 485 C-165.1 481.5 -165.1 481.5 -167 476 C-167.7 476 -168.3 476 -169 476 C-169.7 474.4 -170.3 472.7 -171 471 C-172.3 470 -173.6 469 -175 468 C-175.5 466.5 -175.5 466.5 -176 465 C-180.1 459.8 -180.1 459.8 -183 460 C-183.7 458.7 -184.3 457.4 -185 456 C-190.7 449.2 -190.7 449.2 -196 444 C-200 439 -200 439 -201 436 C-202.6 434.7 -204.3 433.4 -206 432 C-206.3 430.7 -206.7 429.4 -207 428 C-208.6 426 -210.3 424 -212 422 C-211 419 -211 419 -204.4 415.2 C-196.3 410.2 -188.7 404.7 -181 399 C-176.1 395.7 -171.2 392.3 -166.3 389 C-158.7 384.8 -158.7 384.8 -155 378 C-153.7 377.3 -152.4 376.7 -151 376 C-152.9 362.7 -159.8 351.8 -166 340 C-174.6 316.9 -142.1 303.4 -124.3 292.3 C-116.1 287.2 -108 281.9 -99.8 276.7 C-95.2 273.8 -90.6 270.9 -86.1 267.9 C-80.6 264.4 -75.3 260.7 -70 257 C-65 253.7 -60 250.3 -55 247 C-51.5 244.6 -51.5 244.6 -47.9 242.2 C-39.8 236.9 -31.6 231.7 -23.4 226.5 C-18.7 223.4 -13.9 220.3 -9.2 217.2 C-2.4 212.9 4.5 208.8 11.5 204.7 C62.4 174.2 18.5 59.5 1 11 C-8 -6.9 -33.3 23.8 -44 33 Z " fill="#161512" transform="translate(963,85)"/>
<path d="M0 0 C17.9 17.9 13.2 65.8 13.2 89.1 C13.2 92 13.2 94.9 13.2 97.9 C13.2 112.1 13 125.9 11 140 C10.7 142.3 10.4 144.6 10.1 146.9 C7.9 163.2 4.8 179.1 1 195 C3.5 194.4 5.9 193.7 8.4 193.1 C20.7 190.1 32.5 189.9 45.1 189.9 C46.8 189.9 48.5 189.9 50.3 190 C54.5 190 58.8 190 63 190 C62 192 62 192 57.3 192.1 C27.7 193.2 -0.3 197.6 -27 211 C-28 210.7 -29 210.3 -30 210 C-21.4 205.4 -12.9 201 -4 197 C2.5 173.5 5.6 149.2 8 125 C8.2 123.1 8.4 121.1 8.6 119.1 C9.2 109.3 9.1 99.5 9.1 89.7 C9.1 86.7 9.1 86.7 9 83.7 C9 78.8 9 73.9 9 69 C6 70.5 3 72.1 0 73.6 C-2.5 74.9 -2.5 74.9 -5 76.3 C-18.7 83.8 -29.9 94.3 -41 105 C-42.4 106.4 -43.9 107.8 -45.4 109.2 C-59.4 123.9 -62.9 136.3 -65 156 C-65.2 158 -65.4 159.9 -65.6 161.9 C-67.4 180.3 -67.2 198.2 -65.4 216.5 C-65.1 221.3 -65 226.2 -65 231 C-63.6 230 -62.2 229.1 -60.8 228.1 C-56 225 -56 225 -52 224 C-58.8 230.8 -65.8 237.2 -73.1 243.5 C-98.7 266.3 -112.4 294.3 -121 327 C-120 327 -119 327 -118 327 C-118 326.3 -118 325.7 -118 325 C-94.4 329.7 -83.7 373.6 -82.5 394.6 C-83 401 -83 401 -85 406 C-82.6 417.8 -64.1 425.6 -54.4 431.2 C-47.4 435.7 -44.7 440.6 -41 448 C-41.3 448.7 -41.7 449.3 -42 450 C-50 439.3 -50 439.3 -50 437 C-81.6 443.5 -112.9 452.3 -142.3 465.9 C-150.8 469 -158.4 466.8 -167 465 C-164.7 469.6 -162.4 474.2 -160 479 C-161.7 479.1 -163.3 479.2 -165.1 479.2 C-171.5 479.7 -171.5 479.7 -178 484 C-178.4 488.4 -178.4 488.4 -170 493 C-173 497 -176 501 -179 505 C-179.6 510.2 -179.6 510.2 -171 514 C-171.3 517.3 -171.7 520.6 -172 524 C-169.1 523.9 -169.1 523.9 -166.1 523.9 C-151.9 524.1 -138.2 526.4 -124.3 528.9 C-108.2 531.7 -92.2 534 -76 536 C-73.6 536.3 -71.3 536.6 -68.8 536.9 C-53.2 538.7 -37.7 539.6 -22 540 C-22.7 537.6 -23.3 535.3 -24 532.9 C-26 525 -26 525 -26 519 C-14.6 524.7 -9 563.5 -6 576 C-5.6 577.8 -5.1 579.5 -4.6 581.4 C-1 596.9 0.5 612.6 2.2 628.4 C7.8 680.5 22.5 725.5 82 734 C102.7 734.6 122 728.6 139.6 717.9 C146.8 713.7 153.2 710.7 161 708 C162.5 707.5 163.9 707 165.4 706.4 C197.1 698.4 228.6 711.3 258.2 721.2 C282.2 728.8 307.1 733.3 332 728 C333.6 728 335.3 728 337 728 C333.3 731.7 327.9 732.4 323 734 C325 752.4 332.5 771.1 349 781 C347.4 778 347.4 778 345.7 774.9 C341.7 766.4 339 758.4 339 749 C341 749 341 749 342.5 757.1 C346.1 773.4 351.9 781.3 367 788 C366.8 777.4 364.1 769.7 360 760 C358.9 756 357.9 752 357 748 C359 748 359 748 360.8 752.9 C362.7 758.3 364.8 763.7 367 769 C367.7 770.6 368.3 772.3 369 774 C371 774.7 373 775.3 375 776 C375 776.3 375 776.7 375 777 C373 777 371 777 369 777 C369 781.3 369 785.6 369 790 C347.9 794.2 329.8 770.2 323.2 753.3 C320.9 746.7 319 741 319 734 C314.6 734.2 314.6 734.2 310.2 734.3 C285.4 734.3 262.1 726.9 238.8 718.9 C195 703.8 167.5 706.9 127 730 C127 735 127 740 127.5 745 C129.8 772.1 129.8 772.1 121 783 C120.3 784.3 119.7 785.6 119 787 C96.2 787 85.7 763.8 81 745 C80.7 742.7 80.3 740.4 80 738 C77.6 737.5 75.3 736.9 72.9 736.4 C31.6 725.3 6.1 696.1 1.4 654 C1.1 651.6 0.8 649.1 0.5 646.6 C-0.1 641.6 -0.6 636.5 -1.2 631.4 C-4.6 602.1 -10.1 574.2 -19 546 C-19 545.3 -19 544.7 -19 544 C-21.1 544 -23.3 544 -25.4 544.1 C-60.7 543.8 -96 538.3 -130.5 531.8 C-144.3 529.1 -158 527.7 -172 527 C-174.4 524.6 -173.7 518.2 -174 515 C-176.6 513.4 -179.3 511.7 -182 510 C-180.9 503.3 -178.8 499.8 -174 495 C-175 490.9 -175 490.9 -182 487 C-180.3 478.4 -173.7 477.2 -166 475 C-167 472.4 -168 469.7 -169 467 C-169 465.4 -169 463.7 -169 462 C-159 463 -159 463 -154.4 464 C-146.2 464 -140.4 460.4 -133 457 C-108.3 447.6 -83.2 439.4 -57 435 C-61.1 431.7 -65.3 428.7 -69.6 425.8 C-115.4 394.4 -136.5 345.3 -113.5 293.4 C-102.6 270 -89.2 250.3 -68 235 C-68.1 233.6 -68.3 232.1 -68.4 230.6 C-68.8 226.7 -69.1 222.7 -69.5 218.7 C-69.9 214.7 -70.2 210.6 -70.6 206.6 C-74.8 133.4 -52.8 52.8 0 0 Z " fill="#1E1A11" transform="translate(342,4)"/>
<path d="M0 0 C7.5 22.5 5.1 53.4 -16.1 67.4 C-30.5 75.1 -44.9 73.2 -56.6 61.4 C-72.6 40.9 -72.2 13.7 -57 -7 C-38.1 -26.1 -12.5 -23.9 0 0 Z " fill="#D76F5F" transform="translate(501,311)"/>
<path d="M0 0 C-3.5 8.8 -3.5 8.8 -8 11 C-7.4 19.6 -6.2 27.8 -4.5 36.3 C-2.7 45.9 -1.3 55.2 -1 65 C-0.9 66.8 -0.9 68.5 -0.8 70.4 C-0.5 85.4 -1.8 94.7 -11 107 C-49.7 109.1 -65.8 58 -78 29 C-79.5 29 -81 29.1 -82.6 29.1 C-85.5 29.2 -85.5 29.2 -88.6 29.2 C-90.5 29.3 -92.5 29.3 -94.5 29.4 C-100 29 -100 29 -107 25 C-104 24 -104 24 -99 25 C-88.3 25.4 -81.9 25.4 -72 21 C-65.4 20.7 -65.4 20.7 -58.2 20.9 C-35.7 21.4 -14.8 0 0 0 Z " fill="#79595E" transform="translate(377,302)"/>
<path d="M0 0 C17.9 17.9 13.2 65.8 13.2 89.1 C13.2 92 13.2 94.9 13.2 97.9 C13.2 112.1 13 125.9 11 140 C10.7 142.3 10.4 144.6 10.1 146.9 C7.9 163.2 4.8 179.1 1 195 C3.5 194.4 5.9 193.7 8.4 193.1 C20.7 190.1 32.5 189.9 45.1 189.9 C46.8 189.9 48.5 189.9 50.3 190 C54.5 190 58.8 190 63 190 C62 192 62 192 57.3 192.1 C27.7 193.2 -0.3 197.6 -27 211 C-28 210.7 -29 210.3 -30 210 C-21.4 205.4 -12.9 201 -4 197 C2.5 173.5 5.6 149.2 8 125 C8.2 123.1 8.4 121.1 8.6 119.1 C9.2 109.3 9.1 99.5 9.1 89.7 C9.1 87.7 9.1 85.7 9 83.7 C9 78.8 9 73.9 9 69 C6 70.5 3 72.1 0 73.6 C-2.5 74.9 -2.5 74.9 -5 76.3 C-18.7 83.8 -29.9 94.3 -41 105 C-42.4 106.4 -43.9 107.8 -45.4 109.2 C-52.6 116.8 -57.7 123.3 -62 133 C-63 134 -64 135 -65 136 C-65 116 -56.7 95.3 -49 77 C-47.7 73.9 -47.7 73.9 -46.4 70.7 C-34.9 44 -20.6 20.6 0 0 Z " fill="#12110F" transform="translate(342,4)"/>
<path d="M0 0 C4 4 4 4 6.1 7.8 C8.7 12.5 11.6 16.9 14.8 21.4 C20 29 20 29 21 32 C22.6 31.7 24.3 31.3 26 31 C26.8 32.2 27.5 33.4 28.3 34.6 C39.9 53.1 51.9 71.4 65.4 88.6 C74.6 101.4 82.4 115.2 90 129 C100.1 127.6 119 121 124 111 C123 110 122 109 121 108 C122 108 123 108 124 108 C124.3 106 124.7 104 125 102 C127 103 127 103 127 114 C122 119 122 119 116 122 C114.4 123.3 112.7 124.6 111 126 C107.3 128 103.7 130 100 132 C91.5 138.4 100.6 153.5 104 162 C107.5 160 107.5 160 111 158 C111 159.3 111 160.6 111 162 C112.5 163.5 114 165 115.6 166.5 C119.9 170.9 124 175.3 128 180 C129.3 181.3 130.6 182.6 132 184 C132 184.7 132 185.3 132 186 C133.3 186.7 134.6 187.3 136 188 C139 192 139 192 138 195 C135.4 196 132.7 197 130 198 C125.3 199.2 125.3 199.2 123 202 C115.6 203 115.6 203 108 204 C108.1 206.4 108.2 208.7 108.2 211.2 C108.3 235.6 105.3 262 89 281 C89.6 289.8 91.2 298.1 93 306.8 C100.6 342.2 100.6 342.2 95 345 C94.9 343.5 94.7 342 94.6 340.4 C93 311.5 93 311.5 84 285 C80.9 286.9 80.9 286.9 77.8 288.9 C67.2 295.3 67.2 295.3 62 294 C65.6 292.4 65.6 292.4 69.2 290.7 C116.7 265.3 108.2 190.7 94 147 C91.6 140.5 91.6 140.5 89 135 C88.1 133 87.2 131 86.3 129 C82.3 123 79.7 122.2 73 120 C62.9 112.4 60.2 107.4 59.8 94.7 C58.6 84.9 53.8 79.4 47.9 71.7 C42.3 64.1 37.3 56.2 32.3 48.2 C26.5 37.9 26.5 37.9 16 34 C3.9 25.9 -4.6 15 0 0 Z " fill="#463B2A" transform="translate(623,436)"/>
<path d="M0 0 C7.7 15.5 6.5 25.6 -5 39 C-18.9 47.4 -32.7 50.3 -45.4 37.6 C-56.5 23.4 -49.6 8.9 -39 -3 C-27 -12.6 -11.2 -9.4 0 0 Z " fill="#120F0C" transform="translate(440,244)"/>
<path d="M0 0 C4.8 20.3 8.2 40.3 10 61 C7.7 61 5.4 61 3 61 C3 63.6 3 66.3 3 69 C2.7 69 2.3 69 2 69 C2 60 2 60 6 59 C4.4 58.3 2.7 57.7 1 57 C-2.8 49.2 -5.6 41.4 -8 33 C-8 41.4 -3.3 50.4 0 58 C0.1 62.3 0.1 66.7 0 71 C-17.6 65.1 -26 50.5 -26 32 C-26.7 32 -27.3 32 -28 32 C-27.3 35.3 -26.6 38.6 -25.8 41.9 C-25.4 43.8 -25 45.6 -24.6 47.5 C-23 52.9 -20.9 57.2 -18 62 C-18 62.7 -18 63.3 -18 64 C-34.4 57.4 -45 34 -45 17 C-36 13 -36 13 -32 12 C-36.5 12.5 -36.5 12.5 -41 13 C-41.3 12.3 -41.7 11.7 -42 11 C-38 10 -38 10 -29.6 9.9 C-23.5 9.3 -3.2 -1.6 0 0 Z " fill="#AC9561" transform="translate(709,721)"/>
<path d="M0 0 C4.1 14.3 7.8 32.8 -1 46 C-6.7 46 -9.8 23.4 -11 18 C-10.1 25.2 -8.8 31.4 -6.4 38.3 C-4 45 -4 45 -4 53 C-20.4 49.7 -23.8 32.2 -26 18 C-26.7 18 -27.3 18 -28 18 C-27.2 21 -26.5 24.1 -25.7 27.2 C-25.3 28.9 -24.8 30.6 -24.4 32.4 C-23.1 37.2 -23.1 37.2 -20 42 C-20 43 -20 44 -20 45 C-23 44 -23 44 -23 42 C-24.3 41.3 -25.6 40.7 -27 40 C-34.3 29.8 -37.5 18.3 -39 6 C-34.3 5.6 -34.3 5.6 -29.4 5.2 C-19.6 4.3 -9.6 0 0 0 Z " fill="#AE9960" transform="translate(464,736)"/>
<path d="M0 0 C1.1 16.6 -6.4 40.2 -22 48 C-32.9 48 -32.9 48 -38 39 C-38 22.1 -22.8 -18.3 0 0 Z " fill="#1A160B" transform="translate(275,272)"/>
<path d="M0 0 C10.3 15 26 48 17 66 C-8.3 59.7 -17.3 13.8 -17 -8 C-8.4 -12.3 -5.1 -6.4 0 0 Z " fill="#CE7761" transform="translate(238,343)"/>
<path d="M0 0 C4 -0.3 8 -0.6 12 -1 C12 1 12 1 7.2 2.9 C2.2 4.7 2.2 4.7 -1 7 C0.2 11.9 0.2 11.9 12 15 C8 25 -1.1 31.4 -10 37 C-11 38 -12 39 -13 40 C-17 40 -20.9 40 -25 40 C-25 36.7 -25 33.4 -25 30 C-27.6 28.4 -30.3 26.7 -33 25 C-31.7 18.4 -28.3 15.1 -24 10 C-28.4 5.2 -28.4 5.2 -32 3 C-28.3 -12 -8.9 -4.4 0 0 Z " fill="#D1B46E" transform="translate(195,488)"/>
<path d="M0 0 C3 15.1 2.9 32.6 -7 45 C-18.1 48.7 -26.4 43.4 -35 37 C-38.5 23 -23.8 9.1 -12.9 3.1 C-6 0 -6 0 0 0 Z " fill="#BA869D" transform="translate(373,359)"/>
<path d="M0 0 C-3.5 8.8 -3.5 8.8 -8 11 C-7.4 19.6 -6.2 27.8 -4.5 36.3 C-2.7 45.9 -1.3 55.2 -1 65 C-0.9 66.8 -0.9 68.5 -0.8 70.4 C-0.5 85.4 -1.8 94.7 -11 107 C-49.7 109.1 -65.8 58 -78 29 C-79.5 29 -81 29.1 -82.6 29.1 C-85.5 29.2 -85.5 29.2 -88.6 29.2 C-90.5 29.3 -92.5 29.3 -94.5 29.4 C-100 29 -100 29 -107 25 C-104 24 -104 24 -99 25 C-88.3 25.4 -81.9 25.4 -72 21 C-65.4 20.7 -65.4 20.7 -58.2 20.9 C-35.7 21.4 -14.8 0 0 0 Z M-19.8 17.3 C-26.5 19.8 -33 21.5 -40 23 C-41.3 23.3 -42.6 23.7 -44 24 C-48.9 24.2 -53.8 24.4 -58.8 24.6 C-61.4 24.6 -64.1 24.7 -66.8 24.8 C-69.9 24.9 -69.9 24.9 -73 25 C-81.8 33.8 -54.2 73.2 -49.3 80.6 C-46.4 85.2 -46.4 85.2 -42 87 C-41 84.8 -39.9 82.7 -38.9 80.4 C-31.1 65.6 -20.5 59.2 -5 54 C-5 46.5 -6.1 41.2 -8 34 C-8.7 29.7 -9.3 25.3 -10 21 C-12.4 13.6 -12.4 13.6 -19.8 17.3 Z M-40 93 C-30.6 101 -20.9 107.1 -9 100 C-4.3 90.5 -2.7 83.3 -2.8 72.8 C-2.8 69.9 -2.8 69.9 -2.8 67 C-2.9 62 -2.9 62 -4 57 C-25.2 57 -35.9 74.6 -40 93 Z " fill="#251817" transform="translate(377,302)"/>
<path d="M0 0 C0.3 1.3 0.7 2.6 1 4 C4.3 7.4 7.6 10.7 11 14 C13.3 16.7 15.7 19.3 18 22 C19.3 23.3 20.6 24.6 22 26 C22 26.7 22 27.3 22 28 C23.3 28.7 24.6 29.3 26 30 C29 34 29 34 28 37 C25.4 38 22.7 39 20 40 C15.3 41.2 15.3 41.2 13 44 C-1 46 -1 46 -3 40 C-3.7 34 -4.4 28 -5 22 C-5.7 18.3 -6.3 14.7 -7 11 C-7 6 -7 6 0 0 Z " fill="#785F3F" transform="translate(733,594)"/>
<path d="M0 0 C-0.3 1.3 -0.7 2.6 -1 4 C0.5 7 0.5 7 2 10 C5 16.8 7.1 22.8 9 30 C9.5 31 9.5 31 10 32 C10.1 33.8 10.3 35.5 10.4 37.4 C10.9 43.9 10.9 43.9 12 49.8 C13.1 56.9 13.6 63.9 14 71 C15 71.5 15 71.5 16 72 C15.7 72.3 15.3 72.7 15 73 C14.9 74.7 14.8 76.3 14.7 78 C11.3 130.5 11.3 130.5 -5 150 C-4.4 158.8 -2.8 167.1 -1 175.8 C6.6 211.2 6.6 211.2 1 214 C0.9 212.5 0.7 211 0.6 209.4 C-1 180.5 -1 180.5 -10 154 C-12 155.3 -14.1 156.6 -16.2 157.9 C-26.8 164.3 -26.8 164.3 -32 163 C-29.6 161.9 -27.2 160.8 -24.8 159.7 C21.3 135 14.4 63.8 1.6 20.8 C-0.3 15 -2.7 9.6 -5 4 C-4 0 -4 0 0 0 Z " fill="#201C11" transform="translate(717,567)"/>
<path d="M0 0 C7.5 22.5 5.1 53.4 -16.1 67.4 C-30.5 75.1 -44.9 73.2 -56.6 61.4 C-72.6 40.9 -72.2 13.7 -57 -7 C-38.1 -26.1 -12.5 -23.9 0 0 Z M-65 14 C-66.6 37.3 -62.4 61.5 -37 69 C-15.9 70.8 -5.4 58.7 -0.2 39.2 C3.3 17.8 1.2 -5.4 -20 -16 C-43.5 -20.7 -58.5 -8.6 -65 14 Z " fill="#2E1C19" transform="translate(501,311)"/>
<path d="M0 0 C1.1 5.6 1.1 10.6 1.1 16.3 C1.1 18.3 1 20.3 1 22.4 C1 23.9 1 25.4 1 27 C0.7 27 0.3 27 0 27 C0 23.7 0 20.4 0 17 C-14.9 20.4 -26.2 23.7 -36 36 C-31.9 17.7 -21 0 0 0 Z " fill="#926473" transform="translate(373,359)"/>
<path d="M0 0 C0 1 0 2 0 3 C0.7 3 1.3 3 2 3 C6.8 13.5 9.9 21.4 9 33 C-1.9 29.4 -13 23.1 -13 10 C-11.4 8.4 -9.7 6.7 -8 5 C-4 -1 -4 -1 0 0 Z " fill="#D7B877" transform="translate(700,759)"/>
<path d="M0 0 C-2 5 -2 5 -3 7 C-3.4 12.5 -3.4 12.5 -2 15 C-1.9 28.5 -3.3 28.9 -17 32 C-17.7 37.4 -17.7 37.4 -13 39 C-10.4 40.6 -7.7 42.3 -5 44 C-7 44.5 -7 44.5 -9 45 C-6.4 65.2 3.3 80.2 18 94 C17.7 94.7 17.3 95.3 17 96 C-0.1 83.5 -13 64.9 -13 43 C-14.3 42.3 -15.6 41.7 -17 41 C-21 37 -21 37 -21 32 C-19 30.7 -17 29.4 -15 28 C-12.9 23.7 -10.9 19.4 -9 15 C-8 14 -7 13 -6 12 C-5.7 9 -5.3 6.1 -5 3 C-3 0 -3 0 0 0 Z " fill="#2D2816" transform="translate(505,426)"/>
<path d="M0 0 C-3.3 -0 -3.3 -0 -6.7 -0.1 C-9.6 -0.1 -12.5 -0.1 -15.4 -0.1 C-18.3 -0.1 -21.2 -0.2 -24.1 -0.2 C-32.3 -0.2 -32.3 -0.2 -41 2 C-39 5 -39 5 -37 8 C-35.7 11 -34.4 13.9 -33 17 C-28.7 15.1 -28.7 15.1 -25 11 C-24.3 11.3 -23.7 11.7 -23 12 C-31 21 -31 21 -34 20 C-37 15.7 -40 11.3 -43 7 C-44 6.7 -45 6.3 -46 6 C-46.7 8.6 -47.3 11.3 -48 14 C-51 20 -51 20 -58 19 C-62 15 -62 15 -61 10 C-52.1 2.5 -8.3 -16.5 0 0 Z " fill="#46402C" transform="translate(569,415)"/>
<path d="M0 0 C4.8 7.1 0.5 12.1 -4 18 C-10.6 21.3 -13.4 19.4 -19 15 C-20.9 2 -12.2 -7.3 0 0 Z " fill="#F7F7F6" transform="translate(421,241)"/>
<path d="M0 0 C-0.3 2 -0.7 4 -1 6 C-1.2 7.6 -1.2 7.6 3 8 C-8.1 17.5 -19.7 22.7 -34 17 C-33.3 15.4 -32.7 13.7 -32 12 C-29.7 12.7 -27.4 13.3 -25 14 C-22 13.3 -19.1 12.7 -16 12 C-16.3 10 -16.7 8 -17 6 C-14 5 -11.1 4 -8 3 C-3 0 -3 0 0 0 Z " fill="#31291D" transform="translate(436,271)"/>
<path d="M0 0 C7.2 7.2 4.9 8.4 0 17 C-5 20.3 -8.8 20.2 -13 16 C-13 4.6 -12.1 0 0 0 Z " fill="#F6F7F4" transform="translate(268,270)"/>
</svg>
