<?xml version="1.0" standalone="no"?>
<!DOCTYPE svg PUBLIC "-//W3C//DTD SVG 20010904//EN"
 "http://www.w3.org/TR/2001/REC-SVG-20010904/DTD/svg10.dtd">
<svg version="1.0" xmlns="http://www.w3.org/2000/svg"
 width="740.000000pt" height="740.000000pt" viewBox="0 0 740.000000 740.000000"
 preserveAspectRatio="xMidYMid meet">
<metadata>
Created by potrace 1.16, written by Peter Selinger 2001-2019
</metadata>
<g transform="translate(0.000000,740.000000) scale(0.100000,-0.100000)"
fill="#000000" stroke="none">
<path d="M340 7389 c0 -8 88 -113 197 -234 108 -121 444 -499 748 -840 762
-857 845 -949 859 -954 13 -5 22 -14 -240 279 -115 129 -372 417 -569 640
-198 223 -492 554 -655 735 -162 182 -305 343 -318 359 -12 16 -22 22 -22 15z
M370 7394 c0 -6 149 -177 332 -380 331 -369 862 -965 1248 -1402 112 -127 206
-229 209 -227 2 3 -5 15 -16 28 -11 12 -157 177 -324 367 -358 408 -679 767
-1104 1240 -170 189 -318 354 -327 365 -10 11 -17 15 -18 9z M696 7385 c5 -11
103 -139 219 -285 116 -146 334 -422 485 -615 244 -311 402 -495 425 -495 4 0
-26 35 -66 78 -41 42 -198 235 -349 427 -297 379 -697 884 -712 900 -6 6 -6 3
-2 -10z M730 7390 c0 -6 58 -82 128 -168 147 -179 432 -537 706 -887 190 -242
262 -325 280 -325 6 0 -10 21 -35 48 -25 26 -104 121 -176 212 -532 677 -903
1138 -903 1120z M1510 7391 c0 -11 94 -170 648 -1094 180 -300 235 -377 267
-376 17 0 17 2 4 7 -45 19 -51 28 -670 1062 -268 449 -249 418 -249 401z
M1630 7391 c0 -8 74 -145 164 -305 221 -393 391 -700 522 -944 60 -111 110
-198 112 -193 3 10 -182 354 -433 806 -286 513 -365 650 -365 636z M2056 7380
c4 -14 30 -77 59 -140 80 -174 224 -495 350 -780 62 -140 144 -320 183 -400
38 -80 80 -171 93 -203 13 -32 25 -54 27 -48 3 10 -68 172 -189 431 -35 75
-73 156 -83 180 -11 25 -31 72 -46 105 -15 33 -42 94 -60 135 -18 41 -48 108
-66 148 -19 41 -34 75 -34 77 0 2 -15 36 -34 77 -19 40 -61 132 -93 203 -88
192 -113 243 -107 215z M2080 7395 c0 -3 25 -61 56 -128 136 -296 382 -841
469 -1042 45 -101 76 -159 60 -110 -6 18 -5 18 12 -2 21 -26 47 -17 41 13 -3
14 -11 18 -31 17 -32 -2 -34 1 -197 372 -51 116 -105 237 -120 270 -16 33 -71
155 -123 270 -138 305 -167 365 -167 340z m625 -1285 c-6 -9 -9 -9 -16 1 -10
17 0 34 13 21 6 -6 7 -16 3 -22z M2451 7390 c-1 -9 19 -72 43 -140 24 -69 101
-292 170 -497 106 -311 125 -375 115 -391 -15 -25 -3 -92 16 -92 9 0 15 9 14
23 0 20 -1 21 -8 2 -7 -17 -9 -16 -15 9 -4 16 -5 31 -1 34 3 3 5 -1 5 -8 0 -7
3 -10 6 -7 4 4 1 13 -5 21 -7 9 -8 17 -2 20 5 3 26 -44 46 -106 36 -108 95
-230 117 -244 6 -4 -3 18 -19 49 -17 32 -29 65 -27 75 3 9 -29 116 -72 237
-42 121 -109 317 -149 435 -146 429 -205 595 -205 580 0 -8 38 -125 85 -260
247 -715 335 -974 335 -989 -1 -14 -2 -14 -9 -1 -15 26 -276 775 -421 1210
-11 30 -19 48 -19 40z M2655 7353 c7 -26 52 -180 100 -342 61 -207 83 -297 76
-304 -16 -16 -14 -24 10 -46 19 -18 124 -345 180 -566 23 -91 35 -110 45 -71
7 30 -9 99 -71 306 -24 80 -100 339 -170 575 -145 496 -146 498 -151 493 -2
-2 67 -240 152 -528 85 -289 170 -579 190 -645 19 -66 37 -140 40 -165 l4 -45
-14 40 c-8 22 -51 166 -96 320 -57 198 -87 284 -100 293 -15 11 -17 18 -9 30
8 13 -12 96 -85 343 -53 179 -96 331 -96 337 0 6 -4 13 -10 17 -5 3 -3 -16 5
-42z M3484 7355 c3 -27 13 -153 22 -280 8 -126 19 -241 24 -255 6 -18 7 -13 4
20 -3 25 -13 159 -24 298 -10 140 -22 257 -25 260 -4 4 -5 -15 -1 -43z M3515
7320 c30 -374 43 -520 44 -488 2 53 -39 561 -45 567 -3 3 -2 -32 1 -79z M3856
7023 c-12 -735 -12 -807 -6 -743 8 71 23 1120 16 1120 -2 0 -6 -170 -10 -377z
M3886 7148 c-9 -394 -14 -929 -8 -924 5 6 23 1168 18 1174 -2 2 -6 -111 -10
-250z M3950 7389 c0 -8 -7 -122 -15 -254 -8 -132 -19 -388 -25 -570 -5 -181
-12 -397 -16 -480 -3 -82 -3 -147 1 -144 3 4 12 215 20 470 8 255 21 580 30
723 9 142 13 261 10 264 -3 3 -5 -1 -5 -9z M3976 7328 c-14 -174 -43 -819 -52
-1158 -3 -113 -9 -222 -14 -242 -4 -21 -4 -36 1 -33 13 8 18 76 23 280 6 245
23 643 41 965 8 140 12 256 10 258 -2 2 -6 -29 -9 -70z M4851 7087 c-52 -172
-128 -418 -168 -547 -156 -497 -173 -554 -172 -569 0 -9 7 7 15 34 8 28 60
192 114 365 162 518 311 1011 308 1020 -2 4 -45 -132 -97 -303z M4947 7307
c-142 -471 -310 -1015 -359 -1165 -33 -101 -58 -186 -55 -188 5 -5 83 234 206
636 173 566 243 801 239 805 -2 2 -16 -37 -31 -88z M5063 7275 c-91 -263 -387
-1099 -438 -1239 -30 -82 -53 -151 -51 -153 5 -5 89 227 245 672 71 204 166
471 211 595 44 123 79 229 78 235 -2 6 -22 -44 -45 -110z M5155 7252 c-31 -81
-68 -172 -81 -202 -13 -30 -91 -228 -174 -440 -83 -212 -174 -432 -202 -490
-27 -58 -59 -126 -69 -153 -10 -26 -30 -71 -44 -100 -21 -41 -22 -47 -6 -27
11 14 32 54 47 90 15 36 45 101 66 145 21 44 79 184 129 310 50 127 161 405
245 619 85 214 153 390 151 392 -2 2 -30 -63 -62 -144z M5492 7018 c-202 -405
-273 -564 -271 -607 1 -22 2 -21 9 9 13 63 48 139 257 558 113 227 203 415
200 418 -2 2 -90 -168 -195 -378z M5488 6938 c-125 -255 -230 -476 -233 -493
-4 -16 27 40 68 125 41 85 147 303 236 484 89 181 160 333 159 338 -2 5 -105
-200 -230 -454z M5620 6764 c-201 -350 -377 -658 -391 -683 -42 -76 -53 -91
-67 -91 -10 0 -12 -10 -7 -37 3 -20 8 -39 11 -42 4 -3 4 3 2 14 -2 12 15 52
41 95 153 260 781 1366 778 1373 -1 5 -167 -278 -367 -629z M5930 7246 c-106
-190 -642 -1126 -700 -1224 -23 -40 -41 -75 -38 -77 7 -7 152 240 495 845 355
625 335 589 331 599 -2 5 -41 -60 -88 -143z M6190 7063 c-483 -693 -685 -980
-729 -1038 -25 -33 -46 -69 -46 -81 -1 -11 -20 -38 -44 -59 -23 -21 -47 -48
-52 -59 -6 -12 11 3 39 32 27 28 54 52 60 52 22 0 157 188 740 1031 166 240
302 442 302 449 0 6 -113 -152 -251 -352 -627 -906 -780 -1120 -787 -1100 -2
6 19 39 46 74 46 59 152 209 726 1031 205 294 246 357 234 357 -2 0 -109 -152
-238 -337z M6545 7283 c-79 -107 -940 -1261 -998 -1336 -67 -87 -98 -146 -95
-177 4 -33 43 -41 51 -11 3 12 1 23 -4 27 -12 7 0 25 207 299 99 132 343 459
541 726 329 443 415 564 370 519 -8 -8 -158 -208 -333 -445 -174 -236 -418
-563 -540 -725 -122 -163 -232 -313 -245 -334 -13 -22 -25 -34 -27 -28 -5 16
-1 22 507 702 572 765 634 850 623 850 -4 0 -30 -30 -57 -67z m-1055 -1520 c0
-20 -24 -11 -28 10 -2 12 1 15 12 11 9 -3 16 -13 16 -21z M3358 7193 c-23 -6
-31 -34 -14 -51 20 -20 46 -8 46 22 0 28 -7 34 -32 29z m22 -26 c0 -8 -3 -17
-7 -20 -9 -9 -34 13 -27 24 8 14 34 11 34 -4z M4487 7093 c-12 -11 -8 -68 5
-81 7 -7 24 -12 38 -12 14 0 31 5 38 12 7 7 12 24 12 38 0 14 -5 31 -12 38
-13 13 -70 17 -81 5z m73 -18 c15 -18 10 -45 -12 -59 -33 -20 -69 20 -54 60 7
18 50 18 66 -1z M4213 6926 c-18 -88 -38 -179 -44 -201 -10 -34 -13 -37 -20
-20 -6 16 -8 17 -8 3 -1 -18 16 -34 26 -24 10 9 83 359 81 382 -2 12 -18 -51
-35 -140z M4271 7085 c-7 -26 2 -102 15 -116 8 -8 14 -31 14 -50 0 -29 -22
-237 -44 -419 l-6 -45 10 39 c12 47 50 374 50 432 0 24 -6 47 -15 54 -8 6 -16
34 -18 63 -2 29 -5 48 -6 42z M2942 7013 c-6 -11 -6 -27 -1 -41 7 -19 15 -23
41 -20 30 3 33 6 33 38 0 32 -3 35 -32 38 -23 2 -34 -2 -41 -15z m63 -23 c0
-31 -33 -40 -52 -14 -16 22 1 46 31 42 15 -2 21 -10 21 -28z M3137 6883 c-4
-3 -7 -17 -7 -30 0 -18 6 -23 24 -23 31 0 40 14 26 40 -11 20 -31 26 -43 13z
m37 -34 c-8 -14 -34 -11 -34 4 0 8 3 17 7 20 9 9 34 -13 27 -24z M500 6844 c0
-6 7 -17 15 -24 8 -7 12 -17 8 -23 -3 -5 -2 -7 4 -4 15 9 1367 -1356 1355
-1368 -12 -12 -239 204 -768 728 -499 495 -594 593 -608 632 -24 61 -30 53 -8
-9 15 -43 83 -114 607 -634 602 -597 754 -738 782 -728 8 3 13 10 11 15 -13
36 -1398 1437 -1398 1415z M6580 6633 c-96 -108 -244 -276 -329 -372 -84 -97
-171 -194 -191 -216 -38 -40 -108 -121 -353 -410 -191 -225 -240 -280 -354
-398 -58 -60 -103 -110 -100 -113 2 -2 26 18 54 46 28 27 56 50 64 50 7 0 -11
-25 -41 -55 -29 -30 -51 -57 -48 -60 6 -7 306 299 478 489 326 359 329 363
300 381 -17 11 16 35 48 35 27 0 63 36 323 323 161 177 302 333 314 347 23 25
46 148 26 136 -5 -4 -11 -2 -13 3 -1 6 -82 -78 -178 -186z m181 119 c-5 -39
-33 -72 -319 -387 -259 -286 -318 -345 -339 -345 -38 0 -65 -27 -52 -52 11
-21 19 -11 -296 -358 -218 -239 -366 -391 -376 -384 -5 3 39 59 98 124 60 65
147 164 194 221 132 159 355 419 403 469 23 25 71 79 107 120 36 41 173 196
305 344 131 147 245 277 253 288 20 27 30 10 22 -40z M4121 6708 c-4 -80 -79
-499 -91 -512 -6 -6 -13 0 -19 15 -9 23 -10 23 -10 3 -1 -22 27 -41 40 -27 6
8 39 183 74 400 9 56 15 112 12 125 -4 21 -4 20 -6 -4z M2983 6684 c-9 -24 10
-49 38 -49 20 0 24 5 24 30 0 25 -4 30 -28 33 -18 2 -29 -2 -34 -14z m54 -10
c3 -8 1 -20 -6 -27 -14 -14 -47 15 -37 32 10 16 36 13 43 -5z M3336 6524 c-8
-21 1 -34 25 -34 14 0 19 7 19 25 0 29 -34 36 -44 9z m34 -9 c0 -8 -4 -15 -9
-15 -13 0 -22 16 -14 24 11 11 23 6 23 -9z M4921 6526 c-18 -22 -9 -76 15 -93
20 -13 23 -11 44 21 30 49 24 80 -16 84 -18 2 -36 -3 -43 -12z m65 -10 c5 -13
-1 -30 -25 -65 -13 -20 -41 3 -41 33 0 40 53 65 66 32z M4306 6506 c3 -8 -2
-76 -10 -153 -9 -76 -18 -158 -21 -182 -3 -25 -2 -42 1 -38 3 3 12 63 20 134
7 70 16 156 20 191 5 43 3 62 -4 62 -6 0 -9 -6 -6 -14z M86 6491 c19 -17 630
-515 1024 -835 223 -181 417 -340 432 -354 26 -24 29 -42 7 -42 -6 0 -8 4 -5
9 3 4 -92 86 -212 182 -344 276 -665 537 -971 793 -156 130 -287 234 -289 231
-3 -3 -3 -7 -1 -9 83 -74 777 -643 1164 -954 219 -176 292 -240 299 -263 5
-18 16 -29 26 -29 25 0 32 27 15 59 -8 16 -189 170 -402 343 -213 173 -543
442 -732 597 -189 154 -349 281 -355 281 -6 0 -6 -3 0 -9z m1485 -1254 c-13
-13 -26 -3 -16 12 3 6 11 8 17 5 6 -4 6 -10 -1 -17z M6770 6298 c-263 -247
-724 -677 -920 -859 -116 -108 -380 -343 -399 -356 -2 -2 -2 -5 0 -8 10 -9
301 251 689 615 85 80 314 293 508 474 193 180 352 329 352 332 0 14 -37 -18
-230 -198z M6920 6397 c-79 -76 -484 -455 -845 -792 -82 -77 -173 -161 -201
-185 -28 -25 -132 -117 -231 -205 -99 -88 -205 -178 -236 -200 -31 -22 -54
-41 -52 -43 7 -7 138 90 225 167 233 204 437 391 965 885 386 362 482 455 470
455 -5 0 -48 -37 -95 -82z M1647 6444 c-9 -9 -9 -47 -1 -68 8 -20 57 -21 73
-2 7 8 11 27 9 43 -3 24 -8 28 -38 31 -20 2 -39 0 -43 -4z m70 -20 c8 -22 -9
-48 -35 -52 -16 -2 -23 3 -28 22 -3 14 -3 30 1 35 10 17 55 13 62 -5z M4976
6385 c-15 -30 -48 -84 -73 -121 -55 -83 -200 -388 -242 -510 -17 -50 -31 -109
-31 -131 0 -22 -11 -91 -25 -153 -14 -62 -23 -115 -20 -118 3 -3 5 -2 5 2 0 4
11 57 25 118 14 61 25 128 25 150 0 22 11 74 25 115 31 91 197 445 230 488 12
17 46 71 75 120 32 56 50 78 46 60 -4 -16 -10 -54 -13 -82 l-5 -53 29 0 c20 0
39 10 60 33 36 38 87 117 79 124 -2 3 -17 -15 -31 -39 -38 -60 -85 -108 -108
-108 -17 0 -19 5 -13 48 3 26 8 62 12 80 10 52 -17 40 -50 -23z M5172 6391
c-16 -51 -15 -77 3 -115 18 -37 34 1 -236 -556 -128 -265 -133 -277 -134 -340
0 -53 -5 -74 -28 -112 -16 -27 -30 -48 -30 -48 -1 0 -1 42 0 92 2 95 2 98 69
246 13 29 24 56 24 60 -1 13 -22 -30 -62 -123 -36 -82 -40 -99 -42 -187 -1
-62 2 -98 9 -98 5 0 25 23 43 51 30 46 33 55 27 102 -6 52 -5 55 184 449 105
219 193 409 197 422 4 16 0 34 -10 48 -19 26 -20 62 -5 107 6 18 9 34 7 37 -3
2 -10 -13 -16 -35z M3546 6288 c-9 -154 -21 -182 -46 -100 l-8 27 -1 -27 c-1
-41 40 -76 52 -44 8 20 21 266 15 266 -3 0 -8 -55 -12 -122z M3581 6364 c0
-28 6 -73 14 -100 19 -64 54 -477 70 -834 7 -157 13 -242 13 -190 3 220 -47
952 -69 1008 -6 15 -14 59 -19 97 -7 66 -7 67 -9 19z M3390 6326 c0 -14 5 -28
10 -31 7 -4 9 2 4 19 -4 16 -2 26 4 26 6 0 13 -12 15 -27 4 -26 4 -26 6 5 1
26 -3 32 -19 32 -15 0 -20 -7 -20 -24z M4355 6245 c-10 -32 -27 -66 -41 -78
-13 -11 -24 -28 -23 -36 0 -11 4 -9 11 7 6 12 17 22 24 22 13 0 60 127 51 137
-3 3 -13 -20 -22 -52z M4366 6153 c-14 -76 -42 -235 -61 -353 -30 -178 -59
-348 -110 -647 -5 -28 -3 -33 14 -33 15 0 24 14 40 58 l21 57 -4 -43 c-4 -39
-2 -43 17 -40 17 2 31 30 78 157 34 90 78 188 109 238 28 46 50 87 47 89 -13
13 -103 -158 -152 -291 -31 -82 -61 -157 -66 -167 -16 -30 -25 -20 -21 22 6
62 -21 52 -42 -15 -18 -57 -39 -76 -31 -27 15 79 79 457 115 672 22 135 50
292 61 348 11 57 19 106 16 108 -3 3 -16 -57 -31 -133z M2037 6192 c10 -19 42
-60 71 -93 55 -61 90 -75 99 -40 4 15 20 -3 70 -77 108 -160 236 -332 246
-332 5 0 -3 17 -19 38 -54 70 -179 247 -229 324 -46 71 -80 96 -80 59 0 -41
-41 -8 -143 114 -32 39 -32 39 -15 7z M3465 6160 c3 -78 -13 -389 -21 -410
-14 -36 -44 63 -85 279 -13 67 -25 118 -27 112 -6 -18 45 -269 75 -364 11 -35
19 -47 31 -45 14 3 18 20 23 83 12 143 16 339 8 375 -5 25 -6 17 -4 -30z
M3972 6137 c-3 -122 -21 -304 -41 -428 -10 -60 -15 -109 -11 -109 9 0 49 303
60 465 12 168 12 155 3 155 -5 0 -9 -37 -11 -83z M3702 5865 c-2 -434 7 -712
23 -712 19 0 23 131 20 605 -2 323 -5 426 -15 435 -10 10 -11 7 -5 -12 10 -32
14 -877 5 -956 l-7 -60 -3 65 c-2 36 -6 270 -9 520 l-7 455 -2 -340z M2010
6184 c0 -4 15 -30 34 -58 56 -85 256 -439 256 -453 0 -24 -29 -13 -85 33 -67
54 -86 53 -23 -1 44 -38 77 -55 105 -55 29 0 5 60 -89 225 -94 164 -187 315
-194 315 -2 0 -4 -3 -4 -6z M3304 6115 c12 -49 49 -312 71 -507 8 -71 -3 -96
-21 -47 -9 23 -13 28 -13 13 -1 -28 23 -59 39 -49 13 8 11 44 -16 254 -24 190
-46 325 -56 341 -7 12 -8 10 -4 -5z M3167 6094 c-3 -4 -2 -16 4 -26 13 -24 35
-9 26 16 -7 17 -19 21 -30 10z m20 -26 c-3 -8 -6 -5 -6 6 -1 11 2 17 5 13 3
-3 4 -12 1 -19z M2677 6073 c4 -9 18 -39 31 -67 14 -28 38 -87 53 -131 33 -94
39 -84 8 13 -21 65 -85 202 -94 202 -2 0 -1 -8 2 -17z M2900 6033 c0 -16 270
-548 280 -551 8 -3 -262 543 -275 556 -3 3 -5 1 -5 -5z M4414 6004 c-4 -16
-15 -48 -25 -70 -10 -23 -36 -132 -59 -243 -51 -257 -59 -310 -49 -317 5 -3 9
10 9 29 0 52 89 489 105 513 16 25 38 104 31 111 -3 3 -8 -8 -12 -23z M2886
6005 c3 -11 20 -70 39 -130 42 -138 50 -181 36 -189 -5 -4 -18 5 -27 19 -22
33 -40 32 -47 -5 -7 -33 -22 -38 -46 -16 -9 9 -22 12 -29 7 -10 -6 -6 -28 17
-98 40 -122 47 -163 31 -173 -11 -7 -10 -23 5 -89 10 -45 16 -83 13 -86 -3 -3
-31 15 -62 40 -30 25 -53 39 -50 31 7 -19 93 -86 111 -86 17 0 16 27 -3 106
-14 53 -14 68 -4 74 17 10 9 62 -29 176 -29 89 -31 108 -9 86 7 -7 22 -12 34
-12 17 0 24 8 29 31 l7 32 22 -28 c25 -32 56 -29 56 4 0 26 -64 249 -84 292
-9 19 -14 25 -10 14z M4441 5998 c-1 -10 -8 -37 -16 -62 -9 -25 -38 -150 -66
-278 -56 -256 -64 -295 -56 -288 3 3 28 113 57 245 28 132 60 270 71 308 11
37 18 73 16 80 -3 7 -6 5 -6 -5z M90 5977 c16 -15 163 -119 388 -272 122 -84
147 -105 122 -105 -5 0 -127 84 -271 186 -144 102 -263 183 -266 181 -8 -9
516 -377 537 -377 57 0 10 41 -242 215 -255 175 -299 203 -268 172z M5314
5758 c-61 -73 -141 -173 -179 -223 -38 -49 -73 -94 -77 -100 -14 -16 8 38 31
76 24 39 27 59 7 59 -15 0 -194 -223 -241 -300 -16 -28 -56 -94 -88 -148 -32
-53 -74 -122 -94 -152 l-34 -55 7 39 c5 30 4 38 -7 34 -7 -2 -14 -11 -17 -19
-3 -11 -1 -11 8 1 10 12 11 10 6 -10 -3 -14 -6 -29 -7 -35 0 -5 -3 -3 -7 6 -5
11 -18 -6 -43 -58 -20 -40 -31 -69 -25 -64 7 6 23 32 35 59 13 27 29 49 37 49
8 0 14 -1 14 -3 0 -12 -49 -112 -82 -167 -32 -54 -39 -72 -31 -89 8 -19 16
-11 79 78 39 55 146 204 238 332 92 128 166 236 163 238 -4 5 -188 -246 -406
-554 -36 -51 -67 -88 -69 -84 -1 5 17 42 41 83 24 41 57 103 73 139 17 36 54
99 82 141 28 41 72 116 99 165 27 49 76 123 109 164 33 41 82 103 109 138 26
34 50 62 51 62 10 0 2 -21 -21 -54 -14 -20 -28 -48 -31 -62 -12 -49 22 -22 97
76 102 135 291 360 301 360 5 0 -4 -19 -20 -42 -28 -42 -78 -127 -197 -332
-65 -114 -97 -189 -89 -210 15 -39 40 -25 213 122 28 24 51 40 51 34 0 -5 -66
-80 -147 -167 -259 -276 -257 -274 -228 -271 17 2 54 30 103 79 43 43 83 77
90 77 7 0 -98 -111 -232 -247 -134 -137 -274 -283 -311 -325 -37 -43 -72 -78
-79 -78 -6 0 3 13 19 29 17 15 35 35 40 43 6 9 71 96 146 194 146 193 159 211
140 200 -6 -4 -60 -71 -118 -149 -59 -78 -134 -176 -168 -217 -77 -95 -78 -95
-61 -109 11 -9 28 5 86 71 40 46 183 195 317 331 134 136 241 252 238 257 -15
25 -49 4 -119 -72 -42 -46 -76 -78 -76 -71 0 6 46 60 103 120 209 220 267 286
267 304 0 28 -20 23 -65 -17 -143 -126 -183 -154 -195 -139 -10 13 -6 29 27
93 46 90 213 378 255 440 28 41 30 62 4 62 -7 0 -62 -60 -122 -132z M4776
5707 c-27 -73 -74 -193 -103 -267 -65 -162 -69 -172 -49 -139 27 46 208 517
204 530 -2 4 -25 -52 -52 -124z M4760 5743 c-18 -49 -57 -146 -85 -218 -29
-71 -55 -141 -59 -155 -7 -28 39 66 58 120 7 19 38 102 70 184 31 82 55 151
53 153 -2 2 -19 -36 -37 -84z M2001 5794 c36 -38 114 -94 133 -94 9 0 16 8 16
18 0 14 -2 14 -9 3 -7 -11 -19 -7 -58 22 -26 19 -57 45 -67 56 -11 12 -24 21
-29 21 -6 0 0 -12 14 -26z M1960 5794 c0 -6 16 -26 36 -45 41 -38 420 -487
460 -543 7 -11 16 -17 19 -14 6 6 -61 90 -286 359 -148 175 -229 262 -229 243z
M2480 5783 c0 -18 56 -123 65 -123 3 0 -8 24 -25 53 -57 101 -30 80 56 -44 47
-68 97 -135 110 -150 23 -24 33 -69 16 -69 -4 0 -25 21 -46 46 -34 40 -39 43
-50 28 -10 -13 -8 -29 11 -83 14 -36 28 -70 33 -75 5 -5 -4 25 -19 67 -16 43
-25 79 -21 82 5 3 24 -13 43 -35 73 -86 96 -21 25 71 -24 31 -72 99 -108 152
-62 92 -90 117 -90 80z M3575 5739 c3 -24 12 -125 20 -224 22 -259 36 -379 48
-390 6 -7 7 -3 4 10 -10 37 -19 119 -42 378 -12 142 -25 261 -29 264 -3 4 -4
-13 -1 -38z M3551 5730 c0 -19 3 -93 8 -165 6 -71 13 -192 17 -268 3 -76 9
-136 11 -133 3 3 0 103 -7 223 -13 237 -26 398 -29 343z M6755 5539 c-484
-353 -664 -481 -692 -488 -14 -4 -29 -14 -31 -22 -4 -11 -2 -12 9 -1 7 6 21
12 30 12 18 0 145 90 649 455 284 206 321 235 305 234 -5 0 -127 -86 -270
-190z M3859 5552 c1 -87 7 -164 13 -172 8 -13 9 -12 4 2 -2 9 -6 85 -7 168 -1
83 -5 152 -8 154 -3 2 -4 -66 -2 -152z M3882 5695 c-1 -11 3 -38 7 -60 7 -34
9 -35 9 -10 0 35 -15 101 -16 70z M4027 5660 c-4 -30 -16 -131 -27 -225 -28
-244 -24 -229 -69 -251 -22 -10 -37 -22 -35 -26 8 -12 75 34 83 56 5 12 11 50
15 86 4 36 16 138 27 228 11 90 18 169 16 175 -2 7 -7 -13 -10 -43z M6830
5559 c-429 -314 -706 -514 -745 -536 -50 -28 -38 -30 16 -2 41 21 182 120 664
472 265 193 297 218 280 216 -6 0 -102 -68 -215 -150z M4056 5688 c-5 -19 -46
-438 -46 -471 0 -23 -7 -31 -37 -44 -21 -8 -46 -22 -57 -31 -24 -22 -50 -72
-36 -72 5 0 10 6 10 14 0 19 64 74 95 82 31 8 29 -2 55 269 11 121 22 230 24
243 3 23 -2 30 -8 10z M3154 5640 c4 -14 15 -47 25 -75 48 -133 111 -332 111
-350 0 -24 52 -187 58 -181 2 3 -8 39 -22 81 -14 43 -26 88 -26 101 0 13 -16
67 -35 121 -20 54 -40 118 -46 143 -10 44 -56 170 -66 180 -3 3 -2 -6 1 -20z
M3800 5400 l0 -258 31 -12 c42 -18 49 -4 47 85 l-1 70 -6 -72 c-3 -39 -9 -74
-13 -78 -3 -3 -15 0 -27 7 -20 12 -21 20 -21 258 0 162 4 240 10 230 5 -8 10
-44 11 -80 1 -36 5 -92 9 -125 6 -44 7 -29 4 55 -6 148 -11 177 -29 177 -13 0
-15 -37 -15 -257z M4530 5621 c0 -5 7 -11 15 -15 19 -7 21 4 -61 -282 -58
-202 -102 -334 -103 -309 -1 6 10 49 23 95 52 180 94 350 85 345 -5 -4 -9 -12
-9 -19 0 -7 -25 -104 -55 -215 -38 -137 -53 -207 -47 -218 13 -22 38 47 117
322 82 286 80 277 55 293 -11 7 -20 8 -20 3z M4791 5599 c-22 -55 -101 -218
-130 -267 -33 -56 -37 -67 -22 -58 24 15 178 332 167 344 -3 2 -10 -6 -15 -19z
M2430 5605 c0 -3 44 -61 97 -128 53 -67 98 -124 100 -126 2 -2 5 -2 9 1 5 6
-191 258 -201 258 -3 0 -5 -2 -5 -5z M2415 5579 c5 -8 49 -68 98 -133 50 -66
119 -160 153 -209 66 -92 86 -140 37 -88 -59 63 -162 148 -223 184 -68 40 -80
44 -80 24 0 -13 87 -147 95 -147 9 0 -22 53 -54 94 -17 21 -31 43 -31 47 0 14
16 10 31 -7 7 -8 29 -24 49 -34 20 -10 82 -59 138 -109 55 -50 104 -91 108
-91 18 0 -11 69 -53 129 -86 121 -252 339 -264 347 -8 5 -9 3 -4 -7z M3411
5559 c-1 -15 8 -96 19 -180 12 -84 20 -167 18 -184 l-3 -30 -23 44 c-13 23
-36 102 -52 175 -16 72 -33 142 -39 156 l-12 25 6 -25 c3 -14 19 -85 35 -157
32 -148 61 -223 84 -223 12 0 16 10 15 43 0 52 -46 392 -48 356z M3491 5565
c-1 -11 8 -90 19 -175 19 -151 34 -215 51 -234 13 -14 11 0 -6 40 -8 20 -24
111 -36 203 -20 166 -27 204 -28 166z M4403 5238 c-40 -144 -77 -293 -84 -330
-7 -46 -16 -68 -25 -68 -18 0 -18 14 2 79 8 29 14 60 12 69 -2 9 -12 -18 -22
-62 -10 -45 -22 -74 -27 -69 -5 5 4 54 22 116 31 108 33 137 13 144 -6 2 -23
-41 -40 -103 -16 -58 -32 -111 -35 -116 -4 -6 -18 -8 -34 -4 -23 6 -26 11 -20
29 15 45 17 111 4 149 -10 33 -10 53 4 131 26 143 30 172 24 167 -3 -3 -13
-50 -22 -105 -9 -55 -19 -102 -21 -104 -13 -14 -11 19 7 118 11 62 18 115 16
117 -3 3 -12 -39 -21 -93 -21 -122 -32 -152 -54 -148 -65 13 -86 14 -72 5 8
-5 26 -10 41 -10 35 0 49 -18 49 -61 0 -21 7 -42 16 -50 20 -17 12 -65 -18
-96 -12 -13 -39 -28 -61 -34 -49 -13 -44 -21 7 -9 51 11 83 44 91 92 5 30 3
44 -10 58 -11 13 -16 30 -13 50 3 17 1 33 -4 36 -5 3 -6 10 -2 15 11 19 24 -3
24 -41 0 -21 5 -42 10 -45 14 -9 13 -91 -2 -132 -14 -38 -11 -42 33 -49 l34
-6 35 119 c19 65 36 110 38 101 2 -10 -11 -67 -28 -129 -17 -61 -30 -112 -28
-114 2 -1 17 -10 35 -19 l32 -16 10 37 c5 21 12 56 15 78 7 41 50 203 112 423
20 68 34 128 32 133 -2 6 -36 -108 -75 -253z M7250 5487 c-14 -7 -101 -61
-195 -119 -93 -58 -309 -190 -480 -293 -185 -112 -326 -204 -351 -229 -22 -22
-73 -59 -112 -80 -68 -37 -87 -59 -59 -69 6 -2 29 4 49 14 89 45 598 341 1014
590 160 96 182 112 186 138 2 15 1 37 -4 47 -7 18 -8 18 -7 -1 3 -59 0 -62
-98 -123 -144 -87 -628 -372 -858 -504 -110 -63 -216 -125 -237 -137 -20 -12
-39 -18 -42 -13 -3 5 27 27 66 48 40 21 90 58 112 80 25 26 193 134 436 281
217 132 422 257 455 278 134 85 155 99 155 102 0 5 -3 4 -30 -10z M3767 5473
c-4 -3 -7 -78 -7 -165 0 -144 2 -158 18 -158 13 0 14 2 4 9 -11 6 -13 43 -10
165 2 86 3 156 2 156 0 0 -4 -3 -7 -7z M204 5425 c32 -19 60 -35 61 -35 1 0
53 -29 114 -65 62 -36 114 -65 117 -65 2 0 21 -11 42 -23 65 -42 569 -325 622
-351 27 -13 95 -56 149 -95 111 -80 146 -95 55 -25 -82 65 -165 120 -190 128
-12 4 -243 133 -514 286 -270 154 -497 280 -503 280 -6 0 15 -16 47 -35z
M3784 5310 c0 -80 2 -112 3 -72 2 39 2 105 0 145 -1 39 -3 7 -3 -73z M154
5425 c11 -8 164 -96 340 -196 177 -100 426 -242 555 -316 128 -74 235 -132
238 -129 6 5 -27 24 -567 331 -239 136 -466 265 -503 286 -70 40 -98 50 -63
24z M1777 5332 c-14 -3 -17 -11 -15 -35 3 -28 7 -32 33 -32 26 0 30 4 33 31 3
33 -13 44 -51 36z m41 -36 c-2 -13 -10 -21 -23 -21 -23 0 -33 34 -14 45 20 13
40 -1 37 -24z M2740 5323 c0 -7 21 -61 48 -120 37 -83 58 -117 95 -153 26 -25
64 -68 84 -97 19 -28 43 -55 51 -58 9 -3 13 -3 10 1 -17 16 33 84 82 111 27
15 50 35 50 44 0 21 -109 243 -116 236 -3 -3 20 -54 50 -113 31 -59 56 -113
56 -119 0 -6 -23 -24 -51 -40 -36 -22 -56 -41 -68 -69 l-17 -38 -28 43 c-16
24 -54 69 -84 99 -42 43 -66 81 -108 170 -30 63 -54 110 -54 103z M2320 5307
c0 -4 19 -28 41 -52 23 -25 39 -48 36 -51 -3 -3 -22 13 -43 35 -20 23 -39 39
-42 36 -8 -8 69 -85 85 -85 25 0 12 32 -32 78 -24 26 -45 44 -45 39z M942
5283 c-44 -18 -31 -83 16 -83 33 0 52 16 52 45 0 36 -30 53 -68 38z m51 -25
c23 -35 -36 -66 -63 -33 -10 13 -9 19 6 36 20 23 42 22 57 -3z M3081 5263 c20
-59 86 -168 103 -171 22 -5 46 16 46 39 0 35 25 18 50 -34 14 -28 32 -53 40
-56 12 -3 12 0 -2 15 -23 27 -57 104 -59 134 -1 23 -2 23 -9 -5 l-8 -30 -2 30
c-2 26 -3 24 -11 -14 -5 -25 -16 -52 -24 -60 -15 -15 -18 -14 -31 4 -9 11 -33
55 -55 98 -40 78 -56 99 -38 50z M4899 5118 c-68 -95 -160 -226 -206 -290
-113 -160 -145 -218 -132 -241 14 -24 25 -15 55 45 34 67 25 72 -11 6 -16 -29
-30 -47 -33 -40 -6 19 37 86 255 395 113 159 202 291 200 294 -3 2 -61 -73
-128 -169z M3903 5230 c0 -30 2 -43 4 -27 2 15 2 39 0 55 -2 15 -4 2 -4 -28z
M4638 5227 c-21 -29 -49 -65 -62 -82 -13 -16 -67 -114 -120 -217 -81 -156 -95
-190 -87 -207 7 -13 8 -22 1 -26 -5 -3 -10 -2 -10 4 0 5 -12 24 -26 41 -15 17
-23 34 -19 38 3 4 12 -1 19 -10 12 -16 17 -10 44 50 38 82 72 178 72 204 0 35
-27 18 -45 -29 -10 -26 -36 -85 -57 -130 l-38 -83 -50 38 c-74 56 -172 84
-223 63 -11 -4 6 -7 40 -7 145 1 287 -140 324 -322 7 -34 17 -62 21 -62 5 0
25 -7 46 -17 20 -9 41 -15 46 -14 4 1 15 -4 24 -11 13 -11 14 -11 11 1 -3 8
-33 23 -67 33 -34 11 -62 26 -62 33 0 7 -11 49 -24 94 -21 76 -22 82 -6 91 9
5 50 63 90 130 40 66 86 133 102 149 28 27 118 243 118 284 0 31 -24 17 -62
-36z m12 -89 c-30 -81 -51 -122 -74 -145 -18 -18 -66 -86 -106 -153 -40 -66
-77 -123 -81 -125 -50 -31 148 362 239 474 28 36 52 70 53 75 0 6 3 6 5 -1 3
-7 -13 -63 -36 -125z m-225 -180 c-22 -69 -75 -178 -86 -178 -15 0 -10 18 25
88 18 37 41 89 51 116 24 64 32 42 10 -26z M2525 5230 c-4 -6 14 -34 38 -63
25 -28 70 -92 102 -140 31 -49 59 -87 61 -84 8 7 -101 173 -153 235 -24 28
-41 52 -36 52 4 -1 84 -75 178 -165 93 -90 172 -161 175 -158 7 6 -332 332
-347 333 -6 0 -15 -5 -18 -10z M1620 5217 c0 -18 216 -197 238 -197 5 0 12 6
15 14 4 9 -13 29 -46 54 -29 21 -79 62 -112 90 -58 50 -95 65 -95 39z m81 -45
c31 -27 79 -65 108 -86 28 -21 51 -42 51 -47 0 -6 -35 17 -77 50 -102 78 -160
130 -148 131 6 0 35 -22 66 -48z M255 5124 c138 -69 154 -74 196 -69 38 4 48
2 66 -17 11 -13 22 -30 25 -38 6 -15 486 -246 494 -237 2 2 -104 55 -237 118
-164 78 -243 120 -249 134 -16 40 -43 54 -100 53 -49 -1 -71 6 -192 65 -75 37
-141 67 -145 66 -4 0 60 -34 142 -75z M2080 5165 c0 -29 34 -36 44 -9 8 21 -1
34 -25 34 -14 0 -19 -7 -19 -25z m32 0 c0 -5 -5 -11 -11 -13 -6 -2 -11 4 -11
13 0 9 5 15 11 13 6 -2 11 -8 11 -13z M245 5097 c100 -51 164 -90 170 -103 24
-49 37 -57 88 -50 46 5 61 0 206 -68 241 -112 361 -160 347 -137 -4 6 -15 11
-25 11 -21 0 -157 59 -344 149 -113 55 -133 61 -179 59 -51 -3 -53 -2 -78 36
-21 32 -49 50 -172 112 -81 41 -153 74 -160 74 -7 -1 59 -38 147 -83z M1450
5176 c0 -6 180 -127 253 -170 58 -33 56 -46 -2 -16 -23 11 -41 18 -41 15 0
-10 65 -45 83 -45 41 0 9 31 -105 103 -68 42 -138 86 -155 98 -18 11 -33 18
-33 15z M5635 5150 c-3 -5 -97 -83 -207 -172 -111 -90 -241 -198 -289 -240
-48 -42 -90 -75 -93 -72 -3 2 -2 -1 3 -7 6 -8 37 14 98 67 108 95 486 404 517
421 l21 13 -22 0 c-12 0 -25 -4 -28 -10z M5659 5127 c-9 -6 -46 -48 -84 -92
-111 -129 -103 -114 -77 -134 l23 -17 -91 -96 c-86 -92 -102 -122 -79 -145 7
-7 -19 -33 -88 -88 -54 -42 -106 -83 -117 -91 -14 -9 -17 -20 -13 -41 5 -25
-2 -38 -49 -91 -52 -58 -54 -62 -32 -67 16 -4 60 14 153 63 72 38 134 67 139
64 5 -3 -12 -16 -37 -29 -26 -13 -47 -25 -47 -28 0 -6 40 10 81 31 29 14 30
16 13 29 -17 12 -35 5 -155 -56 -75 -38 -139 -69 -143 -69 -4 0 16 27 44 59
43 50 51 64 46 88 -5 26 3 34 105 113 61 46 113 88 115 92 2 3 -1 18 -7 32
-11 23 -6 31 80 122 50 54 91 104 91 111 0 8 -9 17 -20 21 -18 7 -11 18 66
107 48 55 91 103 97 107 6 4 9 9 6 12 -3 3 -12 0 -20 -7z M6365 5124 c-11 -9
-131 -71 -267 -139 -135 -69 -249 -129 -253 -135 -9 -14 503 244 535 269 14
12 21 21 15 20 -5 0 -19 -7 -30 -15z M1870 5105 c0 -20 5 -25 24 -25 14 0 27
4 30 9 11 18 -6 41 -30 41 -19 0 -24 -5 -24 -25z m43 0 c1 -5 -6 -11 -15 -13
-11 -2 -18 3 -18 13 0 17 30 18 33 0z M3685 5118 c-34 -19 -73 -59 -86 -90
-12 -29 -12 -29 -31 -9 -36 40 -113 40 -168 1 -28 -20 -31 -20 -86 -4 -72 21
-118 14 -190 -26 -41 -24 -60 -42 -71 -68 -34 -81 -29 -152 14 -203 20 -23 27
-43 28 -76 0 -38 6 -50 33 -74 20 -18 43 -29 60 -28 27 1 27 1 -5 10 -52 15
-101 88 -75 113 13 14 8 31 -16 49 -52 42 -65 113 -36 187 12 31 31 50 72 77
68 43 115 51 181 29 64 -21 65 -21 109 9 46 31 100 33 130 5 12 -12 22 -25 22
-30 0 -22 25 -3 41 31 25 53 85 99 132 99 43 0 91 -21 107 -47 10 -17 10 -16
8 2 -6 42 -122 71 -173 43z M6289 5018 c-370 -330 -459 -413 -459 -430 0 -10
4 -18 9 -18 25 0 229 74 314 114 55 25 101 46 104 46 3 0 27 13 53 29 47 29
80 32 40 4 -11 -8 -18 -19 -15 -24 4 -5 1 -9 -6 -9 -7 0 -10 -3 -6 -6 6 -6 97
31 97 41 0 3 -13 -1 -30 -10 -41 -21 -57 -19 -29 5 19 16 21 21 10 29 -9 6
-35 -2 -80 -25 -125 -64 -266 -126 -354 -155 -100 -33 -97 -32 -97 -21 0 6
404 375 555 505 17 15 25 27 19 27 -5 0 -62 -46 -125 -102z M1392 5051 c-8 -5
-12 -21 -10 -37 3 -26 7 -29 38 -29 30 0 36 4 38 24 6 37 -35 62 -66 42z m48
-16 c18 -21 5 -47 -22 -43 -26 3 -37 36 -16 49 18 12 24 11 38 -6z M2141 5042
c13 -10 78 -55 144 -100 200 -135 244 -182 154 -168 -34 5 -39 4 -39 -13 0
-21 49 -85 50 -65 0 6 -9 19 -20 29 -33 30 -25 44 20 38 26 -4 40 -2 40 5 0 6
8 9 18 6 37 -12 -100 102 -221 183 -70 48 -130 90 -133 95 -3 4 -12 8 -21 8
-11 0 -9 -5 8 -18z M2541 5036 c-11 -13 -6 -21 24 -48 34 -29 162 -181 230
-271 34 -46 27 -56 -18 -28 -19 11 -40 21 -47 21 -7 0 8 -11 34 -25 54 -29 75
-32 72 -9 -3 21 -197 263 -251 313 -67 62 -40 56 48 -10 42 -32 77 -54 77 -49
0 9 -69 63 -131 104 -23 14 -28 15 -38 2z M2167 4983 c34 -32 89 -87 122 -123
33 -36 60 -60 61 -54 0 15 -193 210 -222 224 -13 6 5 -15 39 -47z M5915 5003
c-16 -13 -130 -92 -253 -174 -122 -83 -220 -155 -216 -160 9 -15 -89 -122
-151 -164 -30 -21 -53 -41 -50 -43 19 -19 224 173 218 203 -2 6 93 75 210 153
195 131 284 198 275 207 -1 2 -16 -8 -33 -22z M4853 4923 c-134 -169 -226
-293 -222 -298 3 -2 71 82 153 186 81 105 145 193 143 196 -3 2 -36 -36 -74
-84z M5889 4934 c-40 -42 -65 -72 -54 -66 26 14 140 130 134 136 -3 3 -39 -29
-80 -70z M7150 4929 c-91 -39 -207 -88 -257 -110 -51 -21 -138 -59 -194 -85
-72 -32 -105 -42 -112 -35 -25 25 -103 -5 -109 -42 -2 -15 -60 -45 -247 -128
-134 -59 -248 -112 -254 -118 -8 -8 -8 -14 0 -22 13 -13 22 -10 133 39 30 13
69 29 85 37 75 32 107 46 203 89 57 25 118 46 135 46 19 0 41 9 56 24 15 13
145 76 291 141 146 64 307 135 358 158 50 22 92 44 92 48 0 7 -111 -41 -410
-175 -41 -19 -129 -58 -195 -86 -66 -29 -131 -63 -146 -76 -14 -13 -37 -24
-53 -24 -15 0 -140 -50 -278 -110 -138 -61 -255 -109 -262 -107 -6 3 27 23 74
45 101 47 339 154 393 176 24 10 37 22 37 33 0 10 14 27 31 37 25 15 35 16 53
6 26 -13 19 -16 361 135 121 53 254 110 295 127 63 26 107 49 90 48 -3 -1 -79
-32 -170 -71z M2891 4968 c0 -13 4 -32 9 -43 7 -14 8 -8 4 20 l-6 40 41 -58
c22 -32 41 -66 41 -76 0 -23 -26 -46 -35 -31 -3 5 -12 10 -18 10 -7 0 -4 -5 6
-11 9 -5 17 -15 17 -21 0 -7 -5 -6 -15 2 -8 7 -15 8 -15 2 0 -5 7 -16 17 -23
9 -8 22 -27 29 -44 7 -16 13 -23 14 -15 0 8 -6 27 -14 41 -11 22 -11 28 5 48
28 34 23 63 -18 125 -40 58 -63 71 -62 34z M5083 4968 c-5 -7 -13 -21 -16 -30
-8 -23 25 -25 43 -2 11 12 11 18 -2 30 -12 12 -17 13 -25 2z m17 -23 c-7 -9
-15 -13 -17 -11 -7 7 7 26 19 26 6 0 6 -6 -2 -15z M12 4956 c7 -8 14 -11 16
-6 1 4 190 -66 420 -156 498 -196 502 -197 762 -314 113 -50 252 -112 310
-137 58 -25 109 -50 114 -54 6 -5 14 -9 19 -9 16 0 -14 29 -36 36 -12 3 -51
20 -87 36 -36 17 -126 56 -200 88 -74 32 -184 81 -245 110 -60 29 -146 65
-190 80 -44 15 -253 96 -465 180 -212 83 -395 154 -408 156 -20 4 -21 2 -10
-10z M1679 4956 c17 -21 51 -40 51 -29 0 5 -15 17 -32 28 -29 17 -31 17 -19 1z
M4538 4894 c-24 -38 -59 -96 -78 -129 -18 -33 -40 -68 -48 -78 -14 -16 -14
-23 0 -70 9 -28 19 -64 22 -79 8 -35 58 -48 87 -22 29 26 26 91 -7 125 l-26
28 19 28 c34 50 65 103 59 103 -3 0 -22 -25 -42 -55 -28 -42 -40 -52 -50 -45
-8 8 -14 8 -19 0 -4 -6 -1 -9 6 -8 6 2 14 -3 16 -11 4 -10 -1 -11 -18 -7 -22
7 -23 6 -4 -5 72 -43 97 -106 56 -143 -34 -31 -57 -13 -80 64 l-21 69 33 53
c19 29 57 95 87 146 52 92 81 122 40 43 -11 -23 -18 -41 -15 -41 2 0 14 19 26
41 14 28 17 45 11 51 -7 7 -25 -12 -54 -58z M1736 4905 c-3 -10 -4 -45 0 -77
6 -51 11 -62 45 -93 42 -37 76 -45 86 -19 3 8 -1 23 -10 32 -13 13 -21 13 -41
4 -14 -6 -28 -7 -31 -2 -3 4 0 10 6 12 5 2 13 21 16 43 4 35 0 45 -29 79 -30
35 -35 37 -42 21z m64 -90 c0 -12 -6 -29 -13 -39 -20 -27 -34 -3 -42 69 l-6
60 30 -35 c17 -19 31 -44 31 -55z m49 -79 c17 -20 -3 -30 -30 -15 -17 9 -19
13 -8 20 19 12 25 11 38 -5z M1825 4903 c48 -12 480 -281 546 -340 38 -35 81
-70 95 -79 51 -34 13 -24 -65 17 -67 35 -83 40 -94 30 -10 -11 -9 -13 3 -9 8
3 50 -12 93 -34 50 -25 85 -37 98 -33 17 6 14 10 -23 37 -24 17 -69 55 -100
84 -81 74 -514 335 -552 333 -21 -1 -21 -1 -1 -6z M0 4890 c0 -4 8 -11 18 -15
97 -38 690 -256 922 -339 162 -59 349 -127 414 -152 65 -24 121 -42 124 -40 3
3 -4 8 -14 12 -10 3 -66 23 -124 45 -58 21 -262 95 -455 165 -387 140 -702
257 -812 302 -40 16 -73 26 -73 22z M1992 4883 c2 -10 13 -19 26 -21 17 -3 22
2 22 17 0 16 -6 21 -26 21 -19 0 -25 -5 -22 -17z m38 -3 c0 -5 -4 -10 -9 -10
-6 0 -13 5 -16 10 -3 6 1 10 9 10 9 0 16 -4 16 -10z M2025 4744 c121 -80 225
-151 230 -156 7 -7 -1 -8 -22 -3 -26 5 -33 3 -33 -9 0 -8 15 -23 33 -32 17 -9
46 -28 62 -43 35 -32 191 -133 287 -186 72 -39 103 -42 103 -10 1 24 -15 36
-80 60 -27 10 -79 34 -115 55 -68 38 -100 52 -100 45 0 -7 163 -92 212 -110
51 -19 86 -49 69 -59 -6 -4 -30 3 -53 15 -81 41 -303 181 -323 204 -11 12 -35
30 -53 40 -39 19 -37 30 2 15 33 -12 60 -12 31 0 l-20 9 20 0 c21 1 -436 311
-458 311 -7 0 87 -66 208 -146z M2123 4844 c-5 -14 11 -33 28 -34 10 0 20 31
13 41 -9 15 -34 10 -41 -7z m31 -15 c-3 -5 -10 -7 -15 -3 -5 3 -7 10 -3 15 3
5 10 7 15 3 5 -3 7 -10 3 -15z M6170 4845 c-8 -9 -8 -15 -2 -15 12 0 26 19 19
26 -2 2 -10 -2 -17 -11z M4520 4810 c-11 -22 -18 -40 -15 -40 2 0 14 18 25 40
11 22 18 40 15 40 -2 0 -14 -18 -25 -40z M2274 4809 c-4 -7 0 -15 9 -20 24
-14 97 -77 117 -101 10 -13 21 -20 24 -17 8 7 -55 72 -108 111 -29 22 -34 29
-18 25 12 -3 20 -1 16 4 -7 13 -31 11 -40 -2z M4912 4777 c-42 -43 -53 -67
-29 -67 13 0 107 90 107 102 0 4 -21 -15 -46 -42 -26 -28 -52 -50 -57 -50 -6
0 11 23 38 50 27 28 45 50 39 50 -5 0 -29 -19 -52 -43z M1411 4786 c-14 -16
-11 -19 89 -76 41 -23 95 -59 120 -79 56 -46 113 -81 131 -81 8 0 -7 13 -32
28 -25 15 -65 43 -90 63 -24 20 -83 59 -131 86 -49 27 -85 52 -82 55 3 3 56
-20 117 -51 62 -32 186 -93 277 -136 91 -42 213 -101 272 -131 83 -41 109 -50
117 -41 8 10 -14 30 -89 82 -54 39 -95 71 -91 73 9 3 228 -102 351 -169 52
-28 88 -45 80 -36 -21 21 -205 121 -269 147 -29 11 -73 31 -99 45 -26 14 -55
25 -64 25 -36 0 -15 -27 67 -85 95 -66 112 -90 33 -46 -29 17 -168 84 -308
151 -140 67 -285 137 -321 155 -55 28 -69 32 -78 21z M2881 4786 c-1 -11 10
-34 25 -53 33 -43 17 -42 -26 2 -19 19 -43 35 -54 34 l-21 0 21 -9 c11 -4 48
-38 81 -74 33 -36 64 -66 69 -66 4 0 -7 16 -26 35 -19 19 -29 35 -24 35 12 0
59 -49 67 -70 4 -11 6 -11 6 3 1 10 -19 42 -44 70 -45 52 -53 76 -13 41 l22
-19 -23 32 c-12 18 -27 36 -34 40 -8 5 -8 2 1 -9 8 -10 9 -19 3 -22 -5 -3 -14
6 -19 21 -8 21 -11 23 -11 9z M4909 4689 c-235 -257 -263 -284 -291 -284 -16
0 -28 -3 -28 -7 0 -5 13 -8 30 -8 32 0 86 53 286 276 54 61 103 109 107 107 4
-3 -22 -39 -59 -81 -37 -43 -77 -88 -88 -102 -40 -49 43 32 106 103 55 61 59
70 46 83 -14 14 -25 4 -109 -87z M5003 4684 c-118 -106 -180 -176 -87 -97 75
63 220 202 212 203 -4 0 -60 -48 -125 -106z M5137 4776 c-4 -10 -1 -13 8 -9 8
3 12 9 9 14 -7 12 -11 11 -17 -5z M2839 4725 c11 -16 41 -52 66 -79 48 -52 54
-78 7 -33 -27 26 -52 35 -52 19 0 -5 11 -19 25 -32 14 -13 23 -25 21 -27 -4
-5 -154 95 -162 108 -3 5 -10 9 -15 9 -6 0 -8 -4 -4 -9 7 -12 155 -116 177
-124 30 -11 29 6 -4 40 -17 18 -27 33 -22 33 6 0 21 -11 34 -25 25 -27 50 -33
50 -12 0 6 -32 46 -71 87 -39 41 -61 62 -50 45z M6345 4701 c-50 -26 -192
-112 -317 -191 -197 -125 -225 -146 -217 -162 5 -10 17 -18 26 -18 9 0 13 -3
9 -7 -12 -13 -100 -43 -123 -43 -26 0 -31 18 -8 26 8 4 15 10 15 15 0 6 -9 5
-20 -1 -11 -6 -20 -20 -20 -30 0 -26 36 -26 110 0 59 20 76 44 38 53 -20 6
-21 8 -8 21 35 32 449 290 543 337 69 35 72 37 66 43 -3 3 -45 -17 -94 -43z
M2515 4670 c-4 -6 -5 -13 -4 -15 2 -2 62 -62 132 -133 l128 -130 50 16 c31 10
49 21 49 31 0 9 -28 35 -63 59 -34 23 -103 71 -154 106 -99 69 -128 83 -138
66z m120 -70 c55 -38 128 -89 162 -112 35 -24 63 -45 63 -48 0 -3 -19 -12 -42
-21 l-43 -15 -129 133 c-71 73 -125 133 -120 133 5 0 54 -32 109 -70z M7140
4635 c-36 -13 -261 -91 -500 -175 -239 -83 -437 -154 -440 -157 -8 -8 22 1
360 119 479 166 654 228 659 233 9 9 -15 3 -79 -20z M5484 4579 c-66 -40 -132
-81 -148 -92 -16 -11 -45 -26 -65 -33 -20 -7 -28 -13 -18 -14 24 0 56 17 207
108 116 70 163 102 148 102 -3 0 -59 -32 -124 -71z M1145 4612 c-7 -18 -11
-15 58 -41 53 -19 288 -118 382 -161 47 -21 261 -110 319 -132 l40 -15 -85 -7
c-62 -6 -86 -11 -86 -21 0 -9 18 -16 51 -20 65 -9 253 -50 286 -64 20 -8 8
-10 -57 -10 -64 -1 -83 -4 -83 -15 0 -8 15 -17 35 -20 49 -10 372 -99 470
-130 91 -29 95 -30 95 -15 0 5 -4 8 -8 5 -5 -3 -51 8 -103 25 -52 16 -170 50
-264 75 -236 63 -234 62 -137 63 64 1 82 4 82 15 0 16 -108 44 -315 82 l-40 7
40 8 c22 4 59 8 83 8 55 1 56 24 1 40 -23 7 -105 40 -183 73 -77 33 -177 76
-221 95 -44 18 -93 40 -110 47 -28 13 -121 53 -210 90 l-40 17 45 -8 c25 -4
63 -6 85 -4 95 6 115 3 200 -28 82 -30 93 -32 127 -20 31 10 44 9 80 -5 24 -9
50 -16 58 -16 21 1 -90 40 -112 40 -10 0 -27 -5 -37 -12 -16 -9 -36 -6 -113
21 -124 44 -134 46 -177 31 -30 -10 -47 -9 -93 3 -51 13 -57 13 -63 -1z M7145
4610 c-27 -11 -243 -87 -480 -170 -321 -113 -455 -155 -529 -167 -55 -10 -94
-19 -88 -21 41 -13 224 40 657 192 259 90 481 169 495 175 44 18 -3 10 -55 -9z
M2771 4607 c-1 -19 159 -180 169 -170 3 3 -32 39 -77 82 -44 42 -83 83 -86 91
-4 11 -6 10 -6 -3z M5515 4564 c-89 -55 -133 -88 -85 -64 42 21 190 111 190
116 0 10 -21 0 -105 -52z M5165 4553 c-102 -71 -384 -276 -410 -298 -15 -12
-16 -15 -4 -12 10 3 84 54 165 114 82 60 193 140 247 178 53 37 97 70 97 72 0
10 -23 -3 -95 -54z M5885 4559 c-201 -78 -262 -104 -358 -151 -89 -44 -117
-54 -117 -44 0 15 106 114 157 146 35 22 63 43 63 46 0 17 -114 -61 -167 -114
-102 -103 -81 -119 63 -48 98 48 223 102 377 161 53 20 97 39 97 41 0 7 -14 3
-115 -37z M5965 4556 c-98 -60 -299 -206 -284 -206 6 0 64 37 128 83 64 46
144 100 179 121 34 21 62 39 62 42 0 10 -19 1 -85 -40z M2430 4571 c0 -14 64
-62 153 -116 47 -28 83 -58 92 -76 19 -36 42 -37 51 -3 9 33 -3 44 -144 133
-105 66 -152 85 -152 62z m142 -72 c133 -84 153 -101 144 -124 -7 -20 -24 -11
-36 20 -5 13 -49 47 -107 83 -113 70 -143 91 -126 92 6 0 62 -32 125 -71z
M2891 4515 c31 -33 59 -67 62 -75 4 -10 6 -9 6 5 1 12 -15 36 -36 56 -72 66
-88 73 -32 14z M5550 4548 c-19 -12 -71 -41 -115 -64 -44 -24 -76 -44 -71 -44
10 0 189 94 221 116 31 22 3 16 -35 -8z M5160 4516 c-25 -18 -125 -90 -222
-161 -98 -71 -176 -131 -173 -133 6 -7 445 311 445 323 0 8 -2 6 -50 -29z
M4624 4473 l-61 -64 1 -60 c1 -58 3 -62 38 -88 45 -33 39 -50 -6 -18 -17 12
-33 25 -36 28 -3 4 -14 3 -25 -2 -19 -7 -19 -8 2 -8 12 -1 38 -15 58 -32 27
-24 35 -39 35 -64 0 -18 -7 -38 -15 -45 -23 -19 -18 -34 14 -47 71 -26 93
-158 43 -254 -35 -66 -117 -129 -169 -129 -19 0 -43 -5 -54 -10 -16 -9 -17
-15 -8 -31 6 -11 11 -44 12 -72 1 -59 -21 -109 -77 -174 -63 -72 -167 -91
-230 -42 -28 22 -46 18 -46 -10 0 -10 -9 -30 -21 -45 -19 -24 -27 -26 -92 -26
-81 0 -87 3 -122 50 -14 19 -25 27 -25 19 1 -8 12 -27 25 -44 23 -28 29 -30
110 -34 98 -4 120 7 131 66 6 30 8 32 23 19 9 -8 35 -20 59 -27 36 -10 50 -10
103 6 68 21 116 67 152 145 22 49 26 135 8 169 -12 22 -9 24 72 35 55 7 126
62 156 120 53 103 32 253 -38 277 -29 10 -30 12 -15 34 10 15 14 40 13 65 -3
35 0 44 20 55 29 15 50 51 51 86 0 21 19 42 95 104 53 43 93 80 91 83 -5 4
-110 -78 -169 -132 -15 -14 -27 -35 -27 -48 0 -25 -35 -88 -48 -88 -5 0 -17 9
-27 20 -10 11 -25 22 -35 25 -14 4 -17 16 -16 63 2 56 4 58 64 119 34 34 62
57 62 50 0 -7 -18 -31 -40 -52 -22 -21 -40 -44 -40 -50 1 -5 21 13 46 40 42
47 52 75 29 81 -5 1 -38 -27 -71 -63z M3098 4520 c-65 -19 -116 -86 -119 -153
0 -14 -2 -17 -6 -7 -10 27 -36 50 -56 50 -11 0 -51 -9 -89 -20 -60 -19 -71
-26 -95 -63 -44 -71 -75 -158 -70 -200 6 -43 50 -107 75 -107 13 0 12 3 -5 15
-31 22 -63 78 -63 111 0 44 78 193 112 214 15 9 53 23 83 30 50 12 57 12 75
-5 11 -10 20 -24 20 -32 0 -7 7 -13 15 -13 9 0 15 9 15 25 0 41 36 101 75 125
20 12 59 26 88 30 48 7 49 8 12 8 -22 0 -52 -3 -67 -8z M4820 4419 c-105 -87
-107 -89 -94 -89 5 0 46 30 89 66 97 80 112 94 100 94 -6 0 -48 -32 -95 -71z
M5485 4337 c-132 -68 -258 -135 -280 -148 -56 -36 -276 -152 -278 -148 -2 2
-9 12 -16 21 -11 15 -5 22 56 60 37 24 127 78 199 121 112 65 135 75 159 68
28 -7 21 -12 -105 -83 -74 -41 -170 -94 -213 -118 -43 -23 -76 -44 -74 -47 8
-7 399 207 424 233 17 17 3 25 -44 26 -31 1 -64 -14 -173 -79 -74 -44 -160
-96 -191 -116 -31 -20 -59 -33 -62 -30 -6 6 22 24 222 144 63 38 117 72 120
76 12 13 -177 -92 -266 -148 -58 -37 -98 -56 -108 -53 -13 5 -5 14 30 40 26
18 52 35 59 37 6 2 8 7 5 11 -4 4 -37 -14 -74 -39 -37 -26 -91 -59 -119 -75
-55 -30 -56 -32 -31 -100 14 -38 15 -53 5 -97 -18 -84 -47 -157 -64 -163 -8
-3 -37 -26 -64 -52 -30 -29 -59 -48 -78 -50 -27 -3 -29 -6 -35 -60 -4 -35 -19
-81 -39 -120 -49 -94 -77 -125 -120 -132 -20 -3 -48 -17 -62 -30 -24 -25 -26
-25 -73 -11 -61 19 -55 20 -101 -12 -35 -24 -106 -46 -144 -45 -8 0 -31 4 -50
9 -27 7 -36 15 -41 38 -3 17 -14 44 -23 60 -13 26 -16 27 -16 9 0 -12 7 -27
15 -34 19 -15 19 -44 2 -59 -10 -8 -19 -5 -38 12 -27 25 -25 26 -60 -22 -39
-54 -109 -85 -189 -83 -97 3 -112 8 -156 60 -68 78 -77 104 -72 197 3 44 2 69
-2 55 -13 -43 -11 -139 5 -175 8 -20 33 -57 57 -85 46 -53 63 -59 173 -62 75
-2 161 34 194 81 21 29 24 30 50 17 17 -9 33 -11 41 -6 23 14 33 -1 10 -17
-13 -10 -31 -12 -51 -8 -26 6 -37 2 -68 -27 -63 -60 -109 -81 -178 -83 -75 -2
-97 -18 -117 -84 -11 -38 -11 -51 -1 -71 18 -34 64 -77 98 -89 36 -14 103 -14
128 0 16 8 26 5 51 -16 29 -24 38 -27 95 -23 50 3 68 9 90 30 28 26 28 26 58
7 17 -10 40 -19 53 -19 32 0 79 26 92 50 6 11 16 18 21 14 14 -8 -40 -63 -85
-88 -35 -18 -35 -18 -71 3 -33 19 -38 20 -65 6 -16 -8 -32 -19 -35 -25 -3 -5
-26 -15 -51 -21 -55 -14 -73 -39 -81 -112 -6 -63 14 -116 55 -143 37 -25 133
-25 160 -1 18 17 21 17 49 1 25 -15 32 -15 58 -3 17 8 31 22 33 32 3 14 -2 12
-22 -8 -29 -29 -48 -32 -66 -10 -17 20 -37 19 -67 -5 -73 -57 -193 16 -193
116 0 64 28 107 80 124 25 8 59 24 75 36 29 21 31 21 60 3 50 -31 82 -22 156
48 34 32 37 33 90 26 46 -7 54 -12 57 -31 2 -13 -4 -34 -12 -47 -20 -30 -20
-49 -1 -65 8 -7 15 -29 15 -50 0 -29 -9 -47 -42 -85 -39 -44 -44 -47 -80 -42
-21 3 -36 1 -32 -4 3 -5 20 -9 39 -9 38 0 87 36 110 81 20 37 19 98 -1 120
-14 16 -14 20 1 43 11 16 16 39 13 61 -2 19 0 35 4 35 12 0 10 -84 -3 -97 -17
-17 -1 -33 32 -33 29 0 69 30 69 51 0 7 -11 0 -25 -15 -13 -14 -33 -26 -44
-26 -18 0 -19 5 -14 53 7 73 -6 97 -56 97 -21 0 -52 5 -70 11 -31 11 -34 9
-76 -35 -52 -54 -87 -60 -129 -21 -14 13 -29 23 -33 22 -3 -1 -21 -17 -38 -34
-29 -29 -40 -33 -83 -33 -39 0 -57 6 -80 25 -31 26 -57 32 -67 15 -9 -15 -92
-12 -124 4 -43 23 -91 83 -91 114 0 37 35 90 67 103 15 5 44 7 64 4 30 -5 47
-1 91 24 30 17 67 44 82 60 24 25 34 28 62 24 25 -4 40 -1 55 13 17 16 24 16
55 5 25 -9 43 -10 62 -3 15 6 42 13 60 16 18 3 48 17 67 32 l35 26 56 -18 c50
-15 58 -16 68 -3 19 25 59 49 83 49 29 0 67 41 102 110 35 68 54 125 55 165 1
23 6 31 24 33 17 3 22 -2 22 -18 0 -11 -7 -23 -15 -26 -12 -5 -12 -8 0 -20 7
-8 18 -14 24 -14 18 0 33 41 28 74 -4 27 1 36 38 69 l44 39 22 -20 c38 -36 77
-47 123 -34 38 11 42 10 64 -14 18 -20 22 -33 17 -58 -11 -54 -26 -84 -51
-101 -13 -8 -24 -22 -24 -29 0 -8 -12 -29 -27 -46 -26 -31 -28 -32 -85 -26
-47 6 -58 4 -58 -7 0 -8 18 -22 40 -31 36 -14 54 -36 31 -36 -18 0 1 -38 25
-49 28 -12 32 -51 8 -75 -17 -18 -50 -21 -59 -6 -9 14 -34 -2 -48 -31 -7 -13
-26 -28 -42 -33 -41 -14 -39 -11 -36 -60 1 -38 -3 -49 -32 -80 -27 -28 -42
-36 -69 -36 -24 0 -35 -5 -35 -15 0 -8 8 -15 17 -15 23 0 59 -36 66 -66 15
-58 -77 -111 -119 -69 -9 8 -18 11 -22 6 -18 -30 102 -43 127 -13 40 45 28
121 -22 144 l-29 13 41 10 c56 13 90 62 86 120 -2 30 1 40 12 40 9 0 15 -12
17 -34 4 -42 19 -61 49 -61 43 0 60 72 24 105 -18 16 -20 16 -35 1 -18 -18
-35 -21 -35 -7 0 5 9 11 20 14 11 3 24 16 29 30 9 22 14 25 49 20 48 -6 72 14
72 63 0 27 -5 37 -25 46 -19 9 -24 16 -19 32 4 12 11 24 16 27 5 3 -11 11 -36
18 -67 17 -69 33 -1 25 49 -6 58 -4 80 16 14 13 25 30 25 37 0 8 15 29 34 48
56 55 68 156 23 193 -12 10 -24 10 -60 1 -41 -12 -47 -11 -91 15 -26 15 -44
31 -41 36 3 6 16 1 27 -10 54 -50 147 -27 148 36 0 11 9 29 20 39 31 28 44 79
28 112 -7 15 -21 29 -31 31 -14 3 -12 -2 8 -22 14 -14 25 -30 25 -36 0 -17
-27 -65 -44 -79 -9 -8 -16 -24 -16 -37 0 -28 -36 -64 -63 -64 -11 0 -35 9 -53
21 -33 20 -43 45 -25 65 4 5 16 40 25 77 18 73 14 125 -11 165 -8 13 -13 25
-11 27 2 1 22 12 46 24 l43 22 32 -20 c50 -31 61 -56 42 -93 -19 -38 -19 -44
-1 -29 39 32 19 109 -34 131 -18 7 -27 17 -22 22 14 14 66 -19 85 -55 15 -27
17 -41 9 -68 -7 -27 -5 -42 9 -69 25 -46 24 -58 -11 -123 -44 -82 -41 -91 23
-84 81 8 193 30 180 34 -6 2 -48 -3 -93 -11 -96 -19 -130 -20 -130 -6 0 6 12
29 27 51 32 49 38 128 12 154 -13 14 -15 24 -7 56 6 21 14 39 17 39 4 0 92 48
197 106 241 136 595 315 614 312 8 -2 -88 -55 -213 -118 -125 -62 -227 -115
-227 -116 0 -8 84 29 230 103 187 93 230 118 230 133 0 25 -62 1 -285 -113z
m-905 -741 c0 -13 -8 -30 -17 -37 -15 -12 -16 -12 -10 4 4 10 7 30 7 43 0 14
4 22 10 19 6 -3 10 -17 10 -29z m100 -502 c10 -11 11 -23 4 -42 -12 -34 -44
-35 -61 -2 -11 22 -10 27 10 42 27 22 31 22 47 2z m-453 -194 c18 0 33 -5 33
-11 0 -12 -111 -6 -131 7 -21 12 3 22 34 13 17 -5 47 -9 64 -9z M4533 4391 c7
-39 6 -56 -6 -81 -10 -20 -12 -30 -5 -28 26 9 33 138 8 153 -4 2 -3 -18 3 -44z
M3334 4374 c-7 -57 -1 -171 11 -211 6 -18 1 -24 -29 -37 -37 -15 -76 -67 -76
-99 0 -11 10 -32 21 -49 l21 -29 -21 -23 c-24 -26 -27 -42 -8 -53 8 -4 21 -19
30 -33 14 -23 14 -30 -1 -87 l-16 -62 29 -31 c25 -26 35 -30 85 -30 42 0 57 4
57 14 0 9 -15 16 -40 19 -21 3 -49 15 -62 27 -20 19 -22 26 -13 51 5 16 21 38
35 49 17 13 20 20 11 20 -21 0 -47 -31 -57 -68 -11 -36 7 -67 48 -84 l26 -12
-24 -4 c-17 -3 -33 5 -54 27 l-31 30 16 57 c18 63 13 89 -22 121 l-20 20 20
18 c25 23 25 40 -1 76 -19 27 -20 33 -8 61 14 35 47 68 66 68 8 0 -2 -16 -22
-35 -42 -42 -43 -54 -10 -93 21 -26 23 -33 13 -59 -16 -44 -3 -82 35 -98 17
-7 36 -11 42 -7 5 3 -4 9 -20 14 -49 13 -71 60 -42 90 20 22 18 34 -13 63 -37
35 -37 42 -3 77 34 36 59 35 98 -1 36 -34 84 -51 139 -50 37 1 35 2 -16 9 -32
4 -68 15 -80 24 -13 9 -38 28 -57 41 -40 29 -45 56 -45 223 0 61 -1 112 -2
112 -2 0 -6 -25 -10 -56z m83 -730 c-3 -3 -12 -4 -19 -1 -8 3 -5 6 6 6 11 1
17 -2 13 -5z M2300 4409 c0 -7 8 -18 18 -26 48 -38 193 -133 240 -157 42 -21
52 -31 52 -51 0 -14 -2 -25 -5 -25 -4 0 -289 126 -310 138 -7 3 -7 1 0 -6 11
-12 300 -142 315 -142 6 0 10 16 10 35 0 32 -4 37 -52 61 -79 40 -259 165
-252 175 3 5 0 9 -5 9 -6 0 -11 -5 -11 -11z M3364 4399 c-11 -19 -8 -162 5
-207 24 -85 131 -166 197 -149 14 3 12 5 -7 6 -66 3 -144 62 -172 131 -21 52
-28 118 -19 178 9 53 8 61 -4 41z M2355 4393 c6 -6 42 -26 80 -47 39 -20 61
-29 50 -20 -23 18 -145 81 -130 67z M462 4330 c-14 -14 -22 -33 -22 -55 0 -54
42 -83 105 -71 39 8 53 22 61 64 14 67 -90 112 -144 62z m115 -12 c13 -12 23
-30 23 -40 0 -29 -45 -68 -78 -68 -35 0 -72 33 -72 65 0 57 82 85 127 43z
M4720 4296 c0 -17 -11 -39 -29 -56 -24 -24 -29 -38 -30 -84 -1 -39 4 -59 16
-71 9 -9 19 -13 22 -8 8 10 38 29 76 47 45 21 172 106 159 106 -6 0 -46 -22
-88 -50 -42 -27 -81 -50 -87 -50 -5 0 -23 -10 -40 -22 -26 -19 -31 -20 -39 -8
-5 8 -10 27 -10 41 0 20 6 28 25 33 31 8 45 1 45 -21 0 -9 3 -14 6 -10 3 3 3
15 -1 27 -6 19 -12 21 -41 17 -41 -7 -46 13 -9 37 23 15 45 79 31 93 -3 4 -6
-6 -6 -21z M5950 4303 c-21 -8 -50 -34 -50 -45 0 -6 14 2 31 16 37 31 41 32
64 6 20 -22 20 -22 -55 -39 l-45 -10 55 6 c78 8 87 16 50 53 -21 21 -25 22
-50 13z M5440 4249 c-203 -89 -212 -93 -201 -97 7 -2 18 1 25 7 7 6 52 27 100
46 48 19 112 46 140 60 29 14 61 25 72 24 19 0 -121 -70 -209 -104 -54 -20
-64 -30 -41 -39 8 -3 13 -2 10 2 -3 5 56 34 130 66 79 35 134 64 134 72 0 24
-42 15 -160 -37z M2270 4265 c0 -3 71 -40 158 -82 86 -41 151 -77 144 -80 -12
-5 -152 43 -320 109 -40 15 -78 28 -85 27 -14 -1 -3 -5 222 -88 174 -64 201
-71 201 -45 0 10 -53 41 -156 90 -161 76 -164 78 -164 69z M5524 4221 c3 -5
-65 -39 -152 -76 -176 -76 -195 -85 -190 -91 8 -7 361 151 366 164 2 6 -4 12
-13 12 -9 0 -14 -4 -11 -9z M2161 4210 c9 -5 99 -44 200 -86 213 -88 269 -115
251 -121 -7 -3 -64 12 -128 32 -64 20 -118 34 -120 32 -5 -5 226 -77 249 -77
30 0 18 29 -21 49 -20 10 -98 44 -172 74 -74 30 -161 67 -194 81 -57 25 -98
35 -65 16z M5638 4138 c-198 -45 -219 -48 -233 -34 -14 14 -20 14 -48 2 -18
-7 -57 -23 -87 -36 -30 -13 -59 -27 -65 -32 -12 -11 13 -2 110 41 64 27 71 29
83 14 11 -15 32 -12 245 35 128 29 242 52 252 51 44 -2 -213 -79 -277 -84 -86
-5 -318 -80 -318 -101 0 -14 2 -14 15 0 25 24 234 88 289 88 28 0 94 15 153
33 56 18 116 36 133 40 42 9 40 35 -2 34 -18 -1 -131 -24 -250 -51z M1169
4163 c-22 -5 -32 -43 -13 -50 22 -8 44 4 44 26 0 23 -8 29 -31 24z m19 -25
c-6 -18 -28 -21 -28 -4 0 9 7 16 16 16 9 0 14 -5 12 -12z M6513 4154 c-34 -17
-56 -58 -52 -96 1 -12 -1 -31 -5 -40 -19 -43 18 -75 52 -44 10 8 37 19 60 25
62 13 82 35 82 87 0 34 -5 47 -23 59 -36 23 -79 27 -114 9z m95 -14 c26 -16
32 -26 32 -54 0 -41 -31 -70 -87 -81 -21 -4 -46 -14 -56 -23 -23 -21 -42 -3
-31 29 4 13 6 36 5 51 -3 31 18 66 51 85 32 17 48 16 86 -7z M5443 4138 c-13
-6 -23 -15 -23 -20 0 -5 14 -2 30 7 45 23 38 35 -7 13z M6207 4073 c-13 -12
-7 -31 11 -35 26 -7 42 2 42 23 0 13 -7 19 -23 19 -13 0 -27 -3 -30 -7z m43
-11 c0 -14 -11 -21 -26 -15 -8 3 -11 9 -8 14 7 11 34 12 34 1z M5550 4050 c-8
-5 -135 -49 -282 -96 -205 -67 -265 -91 -261 -102 7 -17 60 -11 171 19 l73 19
46 -27 c46 -27 46 -27 20 -34 -15 -4 -80 -12 -144 -18 -108 -10 -217 -31 -231
-45 -9 -10 12 -7 63 8 26 8 71 17 99 20 283 29 293 33 200 80 l-52 26 -73 -19
c-41 -11 -94 -22 -119 -25 l-45 -6 30 15 c17 8 141 51 277 95 136 44 250 85
253 90 8 13 -6 13 -25 0z M671 4008 c-13 -35 2 -63 36 -66 36 -4 56 17 51 55
-3 24 -8 28 -41 31 -31 3 -39 0 -46 -20z m77 -20 c3 -23 -2 -29 -24 -34 -35
-9 -59 18 -43 48 16 30 63 21 67 -14z M2728 3988 c-20 -31 -38 -86 -38 -115 0
-13 -5 -33 -11 -44 -10 -20 -12 -20 -30 -3 -42 38 -154 -7 -189 -77 -16 -31
-27 -39 -57 -44 -67 -11 -95 -27 -109 -61 -15 -36 -19 -96 -6 -108 4 -4 7 -31
7 -59 0 -50 1 -53 37 -70 48 -23 42 -47 -10 -40 -43 5 -62 25 -62 65 0 35 -20
44 -68 32 -25 -6 -44 -20 -60 -44 -20 -30 -23 -43 -18 -90 3 -30 5 -68 5 -84
0 -15 6 -35 12 -42 18 -21 82 -17 107 7 20 18 22 27 16 69 -7 50 2 108 14 96
3 -4 5 -24 3 -46 -3 -48 22 -100 49 -100 18 0 20 7 20 66 0 68 16 83 18 17 1
-27 8 -44 26 -58 19 -15 23 -24 16 -35 -28 -43 0 -145 48 -176 24 -15 87 -21
146 -12 15 2 21 -5 27 -32 9 -43 32 -60 80 -60 60 0 88 31 96 108 7 77 23 81
23 6 0 -90 51 -154 122 -154 18 0 40 -4 48 -10 11 -7 9 -11 -13 -19 -16 -6
-34 -11 -41 -11 -23 0 -46 -36 -46 -73 0 -29 5 -38 26 -49 20 -9 28 -22 31
-47 4 -39 36 -96 59 -105 9 -3 29 -6 45 -6 25 0 29 -4 29 -29 0 -62 70 -83
115 -35 14 15 25 34 24 43 0 14 -1 14 -6 1 -11 -29 -47 -60 -69 -60 -31 0 -54
26 -54 61 0 25 -4 29 -29 29 -43 0 -58 8 -81 46 -18 28 -24 47 -29 95 -1 3
-12 11 -26 17 -18 8 -25 19 -25 40 0 35 25 59 68 68 18 4 35 11 39 17 9 15
-26 37 -59 37 -65 0 -118 67 -118 149 0 42 5 57 25 76 16 17 20 25 10 25 -8 0
-20 -9 -27 -20 -16 -25 -27 -25 -57 0 -17 15 -27 39 -37 91 -13 69 -11 104 12
184 4 14 3 17 -4 10 -41 -39 -27 -261 18 -292 20 -14 22 -22 17 -77 -5 -49
-10 -65 -32 -83 -49 -43 -111 -24 -124 37 -6 29 -11 35 -32 33 -114 -12 -143
-3 -180 54 -23 34 -25 106 -4 123 13 11 11 16 -15 39 -31 27 -38 55 -26 108 6
27 4 32 -16 38 -47 15 -60 35 -53 86 4 30 3 49 -4 54 -15 9 -14 61 3 93 17 33
46 49 104 57 37 6 45 12 62 45 34 67 139 113 170 75 28 -34 60 0 60 64 0 15
11 50 25 76 27 49 29 73 3 33z m-477 -568 c4 -19 3 -43 -3 -54 -6 -11 -8 -43
-5 -73 5 -46 3 -56 -16 -73 -24 -23 -69 -26 -86 -6 -7 8 -10 28 -8 45 3 17 1
33 -4 37 -5 3 -9 21 -9 40 0 67 50 128 100 122 19 -2 26 -11 31 -38z m77 -123
c3 -63 -9 -74 -33 -27 -26 49 -18 94 15 88 11 -2 16 -18 18 -61z M5825 3981
c28 -12 58 -48 47 -55 -6 -3 -17 5 -26 19 -9 14 -21 25 -27 25 -5 0 0 -13 13
-30 24 -33 45 -39 55 -14 7 20 -35 64 -61 63 -21 0 -21 0 -1 -8z M2163 3966
c0 -9 15 -17 36 -21 113 -19 140 -27 143 -42 2 -10 21 -21 48 -27 41 -10 45
-14 48 -43 4 -39 21 -42 61 -12 15 11 45 26 67 34 50 17 55 39 13 54 -51 18
-78 13 -110 -18 -16 -16 -31 -26 -34 -21 -3 4 2 13 10 20 8 7 15 18 15 24 -1
6 -9 1 -19 -11 -15 -19 -25 -22 -51 -16 -19 3 -35 13 -37 24 -4 12 -23 20 -71
29 -114 22 -115 30 -2 27 81 -3 116 -9 154 -25 48 -22 77 -24 38 -3 -71 38
-309 59 -309 27z m417 -71 l25 -13 -30 -12 c-67 -24 -85 -33 -96 -46 -17 -20
-29 -17 -29 8 0 31 48 78 79 78 14 -1 37 -7 51 -15z M2791 3929 c-18 -48 -23
-113 -11 -144 24 -59 28 -91 14 -110 -19 -26 -17 -76 3 -104 16 -23 15 -25 -6
-43 -15 -11 -18 -18 -9 -18 35 0 50 47 23 70 -19 16 -19 53 0 90 14 27 14 35
-5 89 -14 41 -18 73 -14 103 9 67 25 82 18 17 -5 -47 -2 -64 19 -108 l25 -52
-19 -39 c-11 -22 -19 -47 -19 -58 0 -21 39 -62 59 -62 7 0 -1 12 -18 26 -37
31 -38 40 -9 93 l21 41 -28 51 c-23 44 -27 59 -22 103 8 61 -6 95 -22 55z
M1615 3909 c-23 -6 -19 -7 20 -4 31 3 116 -7 224 -25 95 -17 176 -28 179 -25
3 3 1 5 -4 5 -5 0 -85 14 -179 30 -178 32 -192 33 -240 19z M5775 3901 c-11
-5 -49 -11 -84 -15 -48 -6 -66 -4 -73 6 -8 10 -9 9 -5 -4 5 -13 -4 -18 -46
-26 -29 -5 -41 -10 -27 -10 14 -1 54 5 90 13 36 8 79 15 95 15 17 1 44 7 60
15 32 14 24 19 -10 6z M6268 3902 c-20 -4 -28 -23 -21 -52 8 -29 47 -23 51 7
4 30 -9 50 -30 45z m17 -37 c0 -10 -5 -20 -11 -22 -13 -4 -27 24 -18 38 9 15
29 4 29 -16z M5945 3889 c-4 -6 -17 -14 -29 -19 -17 -7 -13 -8 19 -8 37 1 54
11 55 31 0 11 -38 8 -45 -4z m25 -9 c0 -5 -5 -10 -11 -10 -5 0 -7 5 -4 10 3 6
8 10 11 10 2 0 4 -4 4 -10z M1615 3875 c45 -20 474 -109 483 -100 5 5 -118 31
-258 55 -69 12 -150 30 -180 41 -62 22 -90 24 -45 4z M1280 3845 c0 -29 34
-36 44 -9 8 21 -1 34 -25 34 -14 0 -19 -7 -19 -25z m32 0 c0 -5 -5 -11 -11
-13 -6 -2 -11 4 -11 13 0 9 5 15 11 13 6 -2 11 -8 11 -13z M1034 3835 c-4 -9
-2 -21 4 -27 15 -15 44 -1 40 19 -4 23 -36 29 -44 8z m30 -16 c-3 -5 -10 -7
-15 -3 -5 3 -7 10 -3 15 3 5 10 7 15 3 5 -3 7 -10 3 -15z M3489 3795 c-31 -69
-24 -154 16 -195 43 -45 53 -36 11 10 -31 35 -36 47 -36 90 0 32 8 66 21 91
11 23 18 43 15 47 -3 3 -15 -16 -27 -43z M1580 3791 c0 -31 16 -51 43 -51 15
0 18 6 15 32 -2 25 -9 33 -30 39 -26 7 -28 5 -28 -20z m48 -19 c4 -24 -7 -29
-26 -10 -18 18 -15 40 6 36 9 -2 18 -13 20 -26z M2278 3783 c-63 -66 -78 -111
-58 -170 14 -38 36 -38 44 0 11 55 43 86 107 104 57 16 60 18 54 42 -10 41
-34 61 -75 61 -29 0 -43 -8 -72 -37z m126 -6 c24 -33 17 -41 -47 -51 -47 -8
-92 -51 -102 -98 -7 -30 -8 -31 -21 -13 -29 40 -13 85 55 158 44 46 82 48 115
4z M3398 3813 c7 -3 16 -2 19 1 4 3 -2 6 -13 5 -11 0 -14 -3 -6 -6z M3522
3803 c-25 -49 -33 -93 -23 -129 10 -37 46 -84 65 -84 5 0 -4 15 -21 33 -42 44
-49 82 -24 146 19 50 20 68 3 34z M5440 3784 c-250 -45 -515 -97 -522 -103 -4
-3 -4 -12 0 -18 6 -10 80 0 313 42 312 55 440 82 404 84 -11 0 -36 -3 -55 -9
-19 -5 -163 -32 -320 -60 -157 -27 -295 -52 -307 -55 -13 -3 -23 -1 -23 3 0
13 286 68 700 135 14 2 7 4 -15 4 -22 0 -101 -10 -175 -23z M5010 3760 c-24
-5 -10 -7 46 -6 45 1 80 4 77 9 -5 8 -74 7 -123 -3z M5625 3753 c-92 -14 -547
-95 -642 -114 -43 -8 -53 -14 -53 -31 0 -18 4 -20 58 -14 31 3 152 13 267 22
116 8 244 20 285 24 74 9 74 9 -20 4 -95 -5 -413 -29 -522 -39 -37 -4 -58 -2
-58 4 0 6 10 13 23 16 53 12 521 96 617 110 58 8 117 18 133 21 15 3 27 1 27
-4 0 -10 -72 -26 -175 -38 -33 -4 -53 -9 -44 -11 18 -4 216 24 229 32 14 9 0
35 -19 34 -9 -1 -56 -8 -106 -16z M5785 3698 c-137 -4 -268 -12 -290 -18 l-40
-10 40 5 c22 3 148 8 280 11 132 4 256 10 275 14 41 9 61 10 -265 -2z M5920
3651 c-58 -15 -118 -31 -133 -35 -16 -4 -32 -17 -37 -31 -7 -19 -17 -25 -40
-25 -17 0 -112 -9 -213 -21 -273 -31 -386 -41 -452 -42 l-60 0 44 -10 c31 -7
57 -7 88 1 24 7 58 12 76 12 34 0 506 48 545 56 12 2 22 11 22 19 0 8 8 19 18
24 17 9 228 64 282 74 22 4 21 4 -5 5 -16 0 -77 -12 -135 -27z M6718 3665 c-3
-3 -164 -16 -359 -30 -195 -14 -370 -29 -389 -35 l-35 -9 35 4 c19 3 193 16
385 30 342 26 485 41 404 44 -20 0 -38 -1 -41 -4z M60 3640 c32 -9 768 -34
835 -28 28 2 -8 5 -79 6 -115 2 -493 15 -701 26 -44 2 -69 0 -55 -4z M6725
3633 c-11 -2 -126 -28 -255 -58 -129 -29 -244 -56 -255 -58 -19 -4 -19 -5 -1
-6 10 0 125 24 255 54 130 30 259 59 286 64 31 5 39 9 20 9 -16 0 -39 -2 -50
-5z M5385 3609 c-99 -10 -240 -23 -314 -28 -74 -6 -138 -14 -143 -19 -4 -4 20
-5 54 0 35 4 176 17 313 29 234 20 375 37 300 37 -16 -1 -111 -9 -210 -19z
M80 3610 c102 -15 823 -33 850 -21 20 8 13 9 -35 5 -51 -5 -486 6 -780 20 -73
4 -80 3 -35 -4z M5958 3563 c12 -2 30 -2 40 0 9 3 -1 5 -23 4 -22 0 -30 -2
-17 -4z M5098 3553 c46 -2 118 -2 160 0 42 1 5 3 -83 3 -88 0 -123 -2 -77 -3z
M2864 3536 c-3 -8 -4 -29 -2 -48 3 -32 4 -33 48 -32 25 0 52 4 61 8 13 5 25
-4 50 -38 47 -66 123 -84 204 -47 46 21 59 34 80 84 20 49 11 47 -15 -2 -56
-110 -191 -122 -261 -23 -36 51 -42 53 -77 34 -13 -7 -35 -12 -50 -10 -25 3
-27 7 -26 46 1 44 -3 52 -12 28z M5975 3543 c-16 -2 -75 -12 -130 -23 -78 -15
-265 -40 -300 -40 -16 0 -1 -30 18 -34 36 -8 519 -28 525 -22 3 3 -4 6 -16 6
-12 0 -124 5 -249 10 -306 14 -342 23 -172 41 52 5 138 19 191 29 53 11 110
20 127 20 16 0 33 5 36 10 3 6 5 9 3 9 -2 -1 -16 -4 -33 -6z M5018 3533 c-106
-4 -108 -4 -114 -29 -4 -14 -1 -44 6 -65 10 -30 11 -42 2 -51 -9 -9 -12 -7
-12 9 0 54 -42 75 -59 30 -5 -13 -22 -35 -38 -48 -55 -46 -46 -102 15 -102 44
0 74 29 70 68 -3 30 6 36 42 23 21 -8 212 -29 217 -24 2 2 -36 9 -84 15 -127
17 -133 19 -133 41 0 10 -5 30 -11 44 -6 13 -9 36 -5 50 6 25 9 26 94 27 48 1
125 4 172 8 l85 8 -70 -1 c-38 0 -118 -2 -177 -3z m-133 -113 c3 -11 3 -25 -1
-31 -4 -7 -7 -25 -8 -42 -1 -20 -10 -36 -28 -50 -25 -19 -28 -19 -52 -4 -29
19 -26 41 11 70 13 10 30 32 38 48 18 34 31 37 40 9z M1913 3484 c-5 -14 -29
-15 -212 -10 -113 4 -255 3 -316 -1 -83 -6 -32 -8 207 -8 240 0 320 3 329 13
15 14 117 16 138 3 13 -8 13 -12 1 -26 -8 -10 -25 -21 -38 -26 -22 -8 -202
-40 -305 -54 -27 -4 -47 -9 -44 -12 14 -13 366 53 388 73 31 28 30 51 -3 58
-61 12 -138 7 -145 -10z M2802 3493 c21 -3 28 -12 35 -40 7 -29 15 -38 38 -45
17 -4 42 -4 58 2 15 5 34 7 42 4 19 -8 45 -49 45 -74 0 -16 6 -20 34 -20 33 0
66 -21 66 -41 0 -6 5 -7 10 -4 6 3 10 0 10 -7 0 -10 2 -10 8 0 14 21 121 81
128 71 3 -6 3 -32 -1 -59 l-7 -48 56 -41 c31 -23 56 -46 56 -51 0 -4 12 -23
26 -40 26 -30 26 -32 11 -68 -29 -68 -30 -98 -6 -131 26 -35 21 -54 -23 -81
-58 -35 -112 -20 -142 39 -15 29 -46 38 -46 14 0 -8 5 -24 12 -36 7 -12 15
-44 18 -72 4 -44 8 -50 30 -53 54 -6 53 -8 -7 -149 -3 -7 -10 -10 -16 -6 -6 4
-7 1 -2 -6 6 -10 10 -10 21 1 18 18 62 144 55 156 -3 6 -20 12 -36 14 -27 3
-30 7 -35 48 -3 25 -12 56 -19 68 -7 13 -9 27 -5 30 4 4 9 1 11 -6 3 -7 15
-25 28 -40 20 -23 31 -27 73 -27 91 0 136 58 92 117 l-22 30 22 69 23 70 -27
28 c-14 15 -26 32 -26 39 0 6 -25 30 -55 52 l-56 41 6 47 c7 57 -6 83 -32 65
-10 -7 -40 -24 -67 -39 l-48 -25 -19 20 c-13 14 -32 21 -54 21 -30 0 -35 3
-35 24 0 23 -40 76 -58 76 -5 0 -22 -5 -39 -10 -46 -16 -80 1 -89 45 -6 32 -9
35 -38 34 -29 -2 -29 -2 -4 -6z M6204 3492 c5 -9 152 -19 381 -27 180 -5 120
1 -130 15 -115 6 -221 13 -233 16 -13 3 -21 1 -18 -4z M5132 3475 c7 -8 280
-36 286 -30 3 3 1 5 -4 5 -5 0 -45 4 -89 9 -156 18 -199 22 -193 16z M6640
3442 c-83 -4 -275 -34 -284 -43 -6 -6 -2 -26 12 -54 37 -77 36 -78 -77 -70
-72 5 -103 4 -118 -6 -22 -13 -113 -1 -414 56 -144 28 -155 31 -163 51 -3 8
-17 13 -33 13 -21 -1 -23 -3 -8 -6 11 -3 27 -13 36 -22 16 -17 140 -44 432
-92 115 -19 141 -21 159 -10 15 9 46 11 119 5 l99 -7 0 24 c0 13 -9 43 -20 66
-10 24 -15 45 -11 47 12 8 218 36 281 38 30 2 51 5 45 8 -5 3 -30 4 -55 2z
M5090 3431 c-14 -5 -20 -10 -15 -10 6 -1 4 -5 -3 -9 -7 -5 27 -15 85 -26 54
-10 139 -29 188 -42 50 -13 169 -37 265 -53 96 -17 191 -33 210 -37 19 -4 32
-4 29 0 -4 4 -98 23 -210 42 -112 19 -238 44 -279 55 -41 11 -117 29 -168 39
-51 10 -96 20 -99 23 -14 15 59 18 180 10 72 -5 136 -6 141 -2 5 4 0 8 -10 7
-10 -1 -80 2 -154 5 -74 3 -146 2 -160 -2z M880 3420 c-63 -5 -266 -16 -450
-25 -184 -9 -357 -21 -385 -25 -48 -9 -47 -9 15 -5 36 3 202 12 370 20 168 8
377 19 465 25 102 6 178 6 209 0 69 -14 72 -24 6 -17 -60 6 -310 -18 -350 -34
-14 -5 -189 -25 -389 -43 -199 -19 -366 -37 -369 -41 -4 -3 16 -4 43 0 28 3
196 19 375 35 179 17 334 34 345 40 31 15 284 39 348 33 47 -5 57 -3 57 10 0
28 -117 39 -290 27z M1510 3423 c-19 -3 -42 -11 -51 -19 -22 -20 -255 -62
-443 -80 -88 -8 -163 -17 -168 -20 -4 -3 -8 -11 -8 -19 0 -13 -160 -71 -250
-90 -19 -5 -29 -10 -23 -12 21 -7 283 79 283 93 0 21 12 24 170 39 172 16 428
61 449 78 7 7 41 17 75 23 59 11 38 15 -34 7z M5550 3411 c0 -7 69 -11 208
-12 114 -1 226 -3 249 -5 23 -2 52 0 63 4 11 4 -98 9 -242 11 -144 1 -266 5
-270 7 -5 3 -8 0 -8 -5z M2754 3355 c-14 -98 34 -185 103 -185 10 0 0 9 -24
21 -54 27 -79 84 -69 159 4 27 5 50 2 50 -3 0 -8 -20 -12 -45z M2050 3378
c-81 -17 -122 -29 -117 -34 3 -3 33 2 67 11 34 9 68 14 75 11 8 -3 16 2 19 10
3 8 4 14 3 13 -1 -1 -22 -5 -47 -11z M1718 3343 c23 -2 59 -2 80 0 20 2 1 4
-43 4 -44 0 -61 -2 -37 -4z M2000 3334 l-75 -13 70 5 c39 3 74 10 80 15 5 5 7
8 5 8 -3 -1 -39 -7 -80 -15z M4940 3341 c0 -6 6 -13 13 -16 24 -8 652 -167
677 -171 79 -14 -51 23 -341 96 -178 45 -330 87 -336 92 -9 7 -13 7 -13 -1z
M1765 3313 c-22 -8 -107 -27 -190 -43 -82 -15 -142 -28 -132 -29 53 -3 387 70
387 84 0 8 -24 4 -65 -12z M4902 3294 c2 -14 21 -23 73 -37 150 -37 565 -126
665 -141 58 -9 178 -31 268 -48 139 -27 165 -29 172 -17 7 10 2 16 -18 22 -15
5 -70 23 -122 42 -203 72 -350 115 -482 140 -76 15 -144 25 -150 22 -7 -2 7
-7 32 -11 134 -21 269 -52 380 -88 167 -53 351 -120 346 -126 -3 -2 -76 10
-163 27 -87 17 -205 38 -263 47 -211 33 -730 151 -730 167 0 11 -5 12 285 -58
127 -30 236 -54 243 -53 12 3 -446 115 -511 126 -24 4 -28 1 -25 -14z M5350
3290 c299 -40 472 -61 482 -58 6 2 -54 12 -133 22 -79 10 -188 24 -241 32 -54
8 -113 13 -130 13 -22 -1 -15 -4 22 -9z M1735 3259 c-60 -5 -144 -15 -185 -22
-100 -20 -59 -21 55 -2 86 14 361 22 372 11 3 -3 -7 -11 -23 -17 -29 -11 -29
-11 -6 -22 12 -5 22 -13 22 -17 0 -4 -71 -31 -157 -60 -87 -29 -162 -56 -167
-60 -5 -5 69 17 163 48 136 45 171 60 171 74 0 10 -8 18 -17 18 -13 1 -11 4 7
13 48 23 35 37 -34 37 -35 0 -70 2 -78 3 -7 2 -62 0 -123 -4z M4867 3243 c-13
-12 -7 -25 7 -14 10 8 35 4 104 -21 52 -17 89 -35 85 -41 -3 -6 -1 -7 5 -3 24
15 10 24 -86 54 -109 35 -106 35 -115 25z M6842 3234 c-28 -20 -31 -83 -4
-107 30 -27 87 -22 112 10 53 68 -36 148 -108 97z m97 -20 c26 -33 26 -42 -1
-71 -40 -43 -108 -19 -108 38 0 56 73 78 109 33z M1765 3224 c-71 -20 -287
-57 -523 -90 l-203 -28 -24 30 -23 29 -214 1 -213 1 208 -6 209 -6 22 -27 c12
-16 31 -28 43 -28 27 0 417 55 538 76 115 20 217 44 230 55 11 11 13 11 -50
-7z M1856 3232 c-3 -5 -44 -24 -91 -42 -69 -27 -84 -36 -80 -50 4 -12 -3 -21
-25 -30 -17 -7 -33 -17 -36 -22 -3 -5 11 -2 32 7 41 17 59 36 43 46 -5 3 28
21 75 39 78 30 127 60 98 60 -6 0 -13 -4 -16 -8z M4660 3231 c0 -6 4 -13 10
-16 6 -3 7 1 4 9 -7 18 -14 21 -14 7z M4827 3198 c-12 -32 14 -60 90 -95 136
-62 233 -101 227 -92 -3 5 -2 9 1 9 17 0 155 -70 173 -88 11 -11 63 -42 116
-68 53 -26 94 -49 91 -52 -4 -4 -239 92 -350 144 -27 12 -63 28 -78 33 -16 6
-26 14 -24 18 3 5 -6 9 -20 9 -23 2 -23 1 -6 -11 34 -23 460 -205 481 -205 32
0 6 29 -50 56 -34 16 -97 52 -141 81 -78 52 -181 98 -197 88 -5 -3 -39 9 -77
26 -37 17 -100 46 -140 64 -72 33 -108 70 -80 81 18 6 224 -64 325 -111 41
-20 80 -34 85 -32 15 5 -113 60 -260 111 -141 49 -158 53 -166 34z M2260 3177
c-31 -15 -48 -75 -34 -115 9 -24 15 -27 52 -26 23 0 45 4 49 7 3 4 8 33 11 64
4 46 2 59 -14 70 -22 16 -32 16 -64 0z m58 -9 c18 -18 15 -94 -4 -112 -8 -9
-26 -16 -39 -16 -48 0 -61 75 -20 115 27 28 45 31 63 13z M4758 3153 c-24 -6
-24 -43 0 -43 21 0 42 18 42 37 0 13 -10 15 -42 6z m19 -20 c-9 -9 -20 -13
-24 -9 -4 4 -1 11 7 16 25 16 35 11 17 -7z M5415 3105 c114 -32 209 -51 305
-60 111 -11 81 1 -38 14 -56 7 -144 23 -195 37 -51 14 -108 27 -127 30 -19 2
6 -7 55 -21z M4840 3108 c0 -9 9 -19 20 -23 11 -3 19 -9 19 -13 -5 -31 10 -45
89 -90 165 -93 207 -115 194 -101 -7 8 -70 46 -139 84 -69 39 -124 75 -123 79
1 5 -4 13 -12 18 -23 15 45 -4 86 -24 29 -15 41 -17 50 -8 8 8 6 9 -8 4 -13
-5 -17 -4 -12 4 5 8 1 10 -10 5 -13 -5 -15 -3 -9 7 5 8 4 11 -3 6 -12 -7 -123
39 -134 57 -5 8 -8 7 -8 -5z M5326 3101 c5 -5 29 -13 54 -19 25 -5 99 -24 165
-41 82 -21 141 -30 185 -29 l65 1 -80 7 c-87 8 -121 15 -282 60 -118 33 -121
34 -107 21z M4995 3002 c337 -181 436 -232 447 -232 16 1 -135 84 -354 195
-180 92 -240 115 -93 37z M5180 3036 c70 -11 89 -12 79 -2 -2 2 -38 6 -79 9
l-75 6 75 -13z M5440 3046 c0 -2 64 -25 143 -51 78 -26 198 -72 267 -102 145
-63 304 -128 340 -138 41 -12 10 11 -35 25 -33 11 -207 82 -290 120 -58 26
-115 47 -259 96 -168 57 -166 56 -166 50z M1200 3009 c-128 -25 -146 -27 -156
-14 -14 19 -40 10 -47 -14 -3 -12 -18 -21 -43 -25 -97 -18 -947 -216 -953
-222 -3 -4 5 -4 19 -1 48 10 915 209 951 218 25 6 39 16 43 31 5 21 6 22 19 5
12 -18 19 -17 167 12 100 19 159 26 165 20 12 -12 -11 -29 -38 -29 -11 0 -240
-56 -510 -125 -717 -182 -821 -209 -810 -212 5 -2 157 35 338 82 396 103 898
229 978 245 37 7 57 16 57 26 0 8 1 17 3 21 5 14 -45 9 -183 -18z M5391 3036
c10 -10 163 -66 172 -63 5 1 -27 17 -72 35 -74 29 -112 39 -100 28z M4820
2998 c1 -14 168 -133 176 -125 3 3 -34 32 -83 66 -48 34 -79 61 -69 61 9 0 84
-34 165 -75 81 -41 153 -75 160 -75 7 0 -59 36 -148 80 -157 78 -201 93 -201
68z M5435 2980 c50 -16 101 -29 115 -29 14 0 -6 8 -45 19 -38 10 -83 23 -98
29 -16 6 -36 11 -45 10 -9 0 24 -13 73 -29z M2422 2992 c-14 -4 -16 -50 -4
-70 12 -17 62 -30 92 -22 21 5 25 12 25 40 0 32 -2 34 -51 45 -27 6 -56 9 -62
7z m106 -50 c7 -48 -92 -45 -104 3 -9 38 1 44 53 31 37 -9 49 -17 51 -34z
M2562 2968 c5 -34 38 -37 38 -4 0 20 -5 26 -21 26 -15 0 -20 -5 -17 -22z m28
-4 c0 -8 -4 -12 -10 -9 -5 3 -10 10 -10 16 0 5 5 9 10 9 6 0 10 -7 10 -16z
M4750 2975 c-12 -15 -12 -15 107 -117 70 -59 143 -111 143 -101 0 4 -17 20
-38 35 -61 43 -211 175 -206 181 3 2 53 -24 112 -59 107 -64 134 -76 110 -50
-7 8 -16 12 -20 10 -4 -2 -9 0 -12 5 -5 8 -28 22 -153 92 -27 15 -33 16 -43 4z
M5362 2977 c10 -8 57 -26 105 -41 49 -15 151 -47 228 -71 117 -36 378 -108
475 -130 83 -18 -79 32 -195 61 -145 36 -371 104 -510 153 -44 16 -89 32 -100
36 -19 6 -19 6 -3 -8z M6160 2981 c0 -4 31 -11 70 -14 38 -3 217 -42 397 -85
181 -44 407 -99 504 -122 146 -35 179 -46 188 -64 7 -12 10 -14 7 -3 -3 9 0
17 7 17 37 1 -47 25 -303 85 -157 36 -373 88 -480 115 -107 27 -226 54 -265
60 -38 6 -82 13 -97 15 -16 3 -28 1 -28 -4z M6236 2941 c38 -10 101 -30 139
-45 69 -28 877 -236 915 -236 11 0 20 5 20 11 0 6 -8 8 -19 4 -22 -7 -825 194
-896 225 -61 26 -182 60 -210 59 -11 -1 12 -9 51 -18z M2800 2916 c0 -28 12
-46 31 -46 22 0 26 29 7 48 -16 16 -38 15 -38 -2z m36 -33 c-4 -4 -11 -1 -16
7 -16 25 -11 35 7 17 9 -9 13 -20 9 -24z M5932 2915 c15 -9 63 -29 108 -45 44
-16 93 -39 110 -51 26 -20 1023 -365 1080 -375 l25 -4 -25 9 c-42 16 -934 321
-950 325 -8 2 -35 13 -60 24 -33 15 -39 21 -23 21 12 1 42 -8 65 -18 24 -10
77 -29 118 -41 88 -26 730 -248 808 -279 53 -21 90 -28 62 -12 -20 12 -739
261 -855 296 -49 15 -102 34 -116 41 -34 17 -110 34 -103 23 9 -15 -13 -10
-26 6 -7 8 -16 15 -21 15 -5 0 -55 18 -110 40 -105 42 -133 49 -87 25z M1272
2912 c-7 -5 -15 -32 -19 -60 -7 -65 11 -97 61 -106 20 -4 40 -15 46 -26 20
-38 45 -24 58 33 18 79 16 104 -13 123 -14 9 -31 14 -38 11 -7 -3 -19 4 -25
14 -13 20 -47 25 -70 11z m62 -21 c10 -11 24 -17 32 -14 21 8 54 -26 54 -53 0
-33 -23 -114 -32 -114 -4 0 -12 8 -17 19 -6 10 -26 22 -44 25 -52 10 -70 35
-63 92 7 64 36 82 70 45z M1290 2880 c-8 -5 -10 -10 -5 -10 6 0 17 5 25 10 8
5 11 10 5 10 -5 0 -17 -5 -25 -10z M2225 2852 c-113 -52 -110 -50 -104 -56 6
-6 158 63 190 86 35 25 25 21 -86 -30z M2341 2888 c-1 -24 -40 -47 -140 -86
-47 -18 -74 -30 -60 -27 47 9 187 66 199 80 6 8 10 22 7 32 -4 16 -5 16 -6 1z
M2738 2895 c-3 -3 -34 -9 -68 -13 -80 -9 -103 -34 -103 -115 0 -63 27 -117 68
-135 21 -10 25 -16 19 -35 -22 -67 12 -109 84 -105 44 3 46 2 53 -29 9 -43 26
-63 54 -63 39 0 55 11 70 47 8 19 18 32 22 30 5 -3 18 -1 31 4 29 11 31 63 2
79 -23 12 -64 4 -81 -16 -15 -18 -29 -18 -29 1 0 9 11 20 24 25 64 24 60 110
-6 133 -12 4 -16 18 -16 53 0 41 -4 50 -36 75 -19 16 -38 38 -41 49 -6 19 -34
27 -47 15z m37 -25 c3 -11 22 -33 41 -48 28 -23 35 -37 36 -63 0 -47 7 -69 22
-69 21 0 48 -37 44 -62 -2 -12 -17 -32 -35 -43 -20 -13 -32 -28 -33 -42 0 -29
22 -30 61 -1 23 17 34 20 47 12 27 -17 27 -51 0 -65 -13 -7 -24 -12 -25 -11
-10 7 -20 -2 -30 -28 -23 -61 -98 -45 -105 24 -3 31 -4 31 -52 28 -27 -1 -55
3 -64 10 -22 19 -31 51 -19 73 18 34 16 43 -14 55 -65 27 -95 140 -52 198 16
22 31 28 78 34 32 4 60 10 63 13 12 11 31 4 37 -15z M4720 2886 c0 -16 338
-332 346 -323 3 2 -72 76 -167 163 -214 197 -210 215 14 51 88 -65 96 -56 9
10 -133 101 -202 135 -202 99z M4667 2857 c24 -13 71 -52 213 -172 52 -44 104
-87 115 -94 38 -25 -110 110 -202 185 -51 41 -95 79 -98 84 -3 6 -16 10 -28
10 l-22 0 22 -13z M4661 2833 c61 -79 340 -376 346 -369 3 3 -53 67 -125 143
-71 76 -147 159 -168 185 -38 45 -84 81 -53 41z M1726 2821 c-9 -14 4 -61 16
-61 5 0 6 -4 3 -10 -11 -17 11 -11 27 8 20 23 9 66 -19 70 -12 2 -24 -1 -27
-7z m42 -25 c2 -10 -1 -23 -6 -28 -12 -12 -36 27 -27 43 10 15 29 5 33 -15z
M2270 2778 c-47 -30 -184 -119 -305 -198 -121 -79 -257 -166 -302 -193 -46
-28 -81 -52 -79 -54 9 -10 68 27 579 360 185 120 202 129 235 123 21 -3 52 -6
70 -6 38 1 43 -20 10 -47 -13 -10 -28 -31 -33 -48 -8 -22 -54 -63 -180 -158
-94 -71 -172 -133 -174 -139 -4 -13 35 15 218 155 98 74 138 110 145 132 5 16
19 38 31 47 13 10 25 29 27 43 5 22 2 25 -26 25 -17 0 -53 3 -81 6 -48 6 -54
3 -135 -48z M3579 2813 c-94 -5 -112 -19 -113 -92 -1 -56 22 -91 60 -91 13 0
28 -9 34 -20 13 -24 58 -27 100 -5 59 31 83 130 44 182 -24 31 -20 30 -125 26z
m103 -20 c32 -37 38 -59 27 -98 -21 -76 -112 -125 -139 -75 -6 11 -21 20 -35
20 -36 0 -68 47 -61 89 9 56 29 70 110 74 39 1 74 4 77 5 3 1 13 -6 21 -15z
M4605 2770 c-4 -6 21 -41 54 -79 33 -37 57 -71 53 -75 -4 -4 -2 -6 3 -4 6 2
25 -13 43 -32 17 -19 32 -30 32 -25 0 6 -40 55 -89 110 -49 55 -87 102 -85
104 9 9 129 -92 247 -208 70 -69 127 -121 127 -115 0 15 -236 244 -301 292
-58 43 -73 49 -84 32z M5180 2761 c14 -11 52 -35 85 -53 33 -17 96 -55 140
-84 44 -29 137 -80 205 -113 69 -34 138 -68 153 -76 15 -8 25 -10 22 -4 -4 5
-70 41 -147 80 -77 38 -173 91 -212 116 -39 26 -93 58 -121 73 -27 14 -72 39
-100 54 -34 19 -42 22 -25 7z M5140 2757 c0 -2 21 -19 47 -37 26 -19 69 -53
95 -77 27 -24 54 -43 60 -43 15 0 -50 58 -128 115 -56 41 -74 51 -74 42z
M5421 2751 c-7 -5 -11 -15 -9 -24 3 -15 363 -272 397 -284 29 -11 0 11 -189
142 -220 153 -209 143 -190 155 8 5 12 11 9 14 -2 3 -11 1 -18 -3z M4313 2723
c-17 -6 -16 -30 1 -36 18 -7 26 1 26 25 0 18 -5 20 -27 11z m17 -13 c0 -5 -5
-10 -11 -10 -5 0 -7 5 -4 10 3 6 8 10 11 10 2 0 4 -4 4 -10z M4515 2710 c-11
-18 6 -53 62 -127 54 -74 67 -87 56 -55 -4 12 -3 14 5 7 15 -15 223 -307 229
-322 14 -35 -15 -1 -103 125 -102 144 -133 183 -94 119 45 -76 13 -43 -74 74
-80 109 -116 141 -116 106 0 -15 56 -97 66 -97 7 0 -3 17 -33 58 -14 18 -23
36 -20 38 3 3 17 -12 33 -33 15 -21 48 -65 73 -97 31 -41 39 -57 26 -51 -11 4
-33 9 -50 11 -28 3 -27 3 5 -7 19 -6 43 -11 54 -13 10 -1 25 -15 33 -30 19
-36 123 -188 123 -180 0 4 -23 43 -51 86 -28 44 -48 82 -46 85 3 2 14 -8 24
-24 59 -92 136 -193 148 -193 30 0 17 30 -64 145 -93 132 -157 210 -173 210
-6 0 -33 33 -61 73 -37 54 -47 76 -39 84 18 18 52 -5 133 -89 39 -40 76 -73
82 -73 5 0 -31 41 -80 90 -67 66 -97 90 -116 90 -14 0 -29 -5 -32 -10z M3351
2684 c0 -11 -13 -49 -27 -85 -66 -163 -217 -579 -212 -585 2 -2 24 52 47 119
24 67 79 215 123 329 44 114 78 215 75 225 -4 15 -5 15 -6 -3z M6053 2693
c-20 -7 1 -57 29 -67 35 -12 58 -1 58 27 0 20 -7 26 -38 34 -20 5 -42 8 -49 6z
m75 -27 c10 -11 -8 -36 -26 -36 -23 0 -42 19 -42 41 0 15 5 16 31 9 18 -5 34
-12 37 -14z M900 2673 c-38 -14 -60 -46 -60 -90 0 -60 25 -83 89 -83 43 0 53
4 76 32 51 60 15 149 -59 147 -17 0 -38 -3 -46 -6z m95 -28 c52 -51 10 -135
-68 -135 -77 0 -106 84 -46 134 39 33 82 34 114 1z M3323 2663 c-4 -10 -31
-76 -61 -148 -51 -122 -80 -194 -153 -375 -16 -41 -33 -81 -36 -87 -3 -7 -1
-13 3 -13 5 0 26 46 47 103 21 56 56 143 77 192 34 80 52 125 121 298 10 26
16 47 14 47 -3 0 -9 -8 -12 -17z M3343 2557 c-46 -109 -98 -242 -153 -392 -10
-27 -30 -79 -44 -115 -48 -125 -48 -126 -36 -114 6 6 44 101 85 212 89 241
209 529 213 510 1 -8 -9 -44 -23 -81 -14 -37 -25 -73 -25 -80 1 -18 60 144 60
165 0 47 -30 7 -77 -105z M5680 2670 c14 -4 120 -55 235 -112 116 -58 403
-199 639 -314 236 -115 506 -247 600 -294 l171 -85 6 -45 6 -45 1 41 c1 22 -4
47 -10 56 -19 25 -1628 809 -1656 807 -11 0 -8 -4 8 -9z M4311 2652 c-1 -32
-28 -81 -64 -119 -17 -18 -26 -33 -21 -33 33 0 101 118 91 157 -4 14 -5 13 -6
-5z M6373 2660 c-31 -13 -34 -60 -7 -91 8 -8 14 -23 14 -32 0 -23 30 -36 58
-26 25 10 31 56 7 65 -10 4 -12 15 -8 36 5 23 2 34 -12 45 -21 15 -22 15 -52
3z m48 -16 c10 -12 10 -20 1 -35 -10 -16 -9 -22 8 -36 25 -22 25 -39 2 -52
-22 -12 -42 3 -42 30 0 10 -4 21 -10 24 -5 3 -15 15 -20 25 -8 15 -6 24 10 40
24 24 33 25 51 4z M1450 2645 c-29 -16 -9 -20 21 -4 11 6 25 8 32 6 7 -3 0
-10 -15 -16 -38 -14 -36 -23 2 -10 17 6 30 17 30 25 0 18 -38 18 -70 -1z
M1825 2622 c-243 -114 -1636 -850 -1784 -943 -90 -56 -26 -28 133 60 632 347
1713 911 1746 911 8 0 -68 -43 -170 -96 -359 -186 -1517 -801 -1700 -903 -30
-17 -49 -31 -42 -31 7 0 30 11 52 25 22 14 42 25 45 25 3 0 140 71 303 159
500 267 1116 593 1329 702 184 94 234 129 186 129 -10 0 -54 -17 -98 -38z
M5675 2650 c3 -6 43 -29 88 -51 45 -23 116 -64 157 -92 75 -51 1234 -654 1375
-715 79 -35 -10 16 -205 116 -924 475 -1094 564 -1160 609 -80 54 -267 152
-255 133z M4450 2640 c-13 -8 -12 -15 8 -49 24 -44 29 -62 10 -43 -30 30 -156
3 -179 -39 -14 -28 -96 -109 -102 -103 -3 3 3 14 14 25 23 23 24 52 3 73 -19
20 -31 20 -68 1 -15 -8 -32 -12 -38 -9 -5 3 -22 0 -39 -6 -47 -20 -35 -80 16
-80 12 0 26 5 31 10 7 7 22 6 47 -5 34 -14 36 -17 26 -39 -18 -38 -3 -95 27
-106 13 -5 24 -18 24 -28 0 -39 76 -72 95 -42 4 7 -3 8 -20 4 -30 -7 -65 18
-65 48 0 10 -4 18 -10 18 -18 0 -50 40 -50 63 0 26 69 126 88 126 7 1 18 12
24 26 26 59 135 87 173 45 9 -10 20 -34 24 -52 6 -30 11 -33 52 -39 55 -8 84
-25 98 -56 16 -34 14 -51 -8 -65 -15 -9 -17 -16 -9 -39 9 -25 6 -32 -25 -64
-19 -19 -43 -35 -53 -35 -11 0 -30 -7 -42 -16 -14 -10 -30 -13 -45 -8 -12 4
-34 7 -48 5 -19 -2 -33 6 -48 25 -13 17 -21 21 -21 12 0 -27 37 -51 70 -46 17
3 33 1 36 -4 9 -13 51 -9 64 7 7 8 24 15 38 15 38 0 96 63 89 98 -3 17 1 34
10 44 20 23 10 81 -19 108 -12 11 -43 23 -71 26 -27 4 -50 12 -51 18 -2 6 -8
26 -14 44 -6 18 -6 32 -1 32 5 0 12 0 17 0 4 0 7 -8 8 -18 3 -45 5 -52 14 -52
7 0 7 6 0 19 -15 30 -12 36 9 17 11 -10 26 -16 33 -13 8 4 7 6 -4 6 -10 1 -18
6 -18 12 0 5 5 7 12 3 7 -4 8 -3 4 5 -4 6 -11 9 -15 6 -5 -2 -16 4 -26 15 -10
11 -21 17 -25 15 -5 -3 -18 11 -30 30 -18 29 -20 38 -10 50 14 17 11 19 -10 5z
m-252 -142 c18 -18 15 -43 -8 -63 -18 -16 -23 -17 -45 -5 -21 11 -29 11 -50 0
-20 -11 -27 -11 -40 0 -8 7 -15 18 -15 24 0 18 39 38 61 31 10 -4 29 1 41 9
27 19 40 20 56 4z M5142 2630 c7 -10 14 -17 17 -15 2 3 12 -2 22 -11 14 -13
20 -13 38 -2 17 10 26 10 53 -1 50 -20 90 -25 43 -5 -22 10 -61 18 -86 18 -30
1 -54 7 -66 19 -26 23 -36 22 -21 -3z M2411 2615 c-60 -35 -312 -217 -306
-223 2 -2 64 38 137 90 73 52 152 107 174 121 l42 26 10 -22 c8 -16 11 -18 11
-6 2 34 -23 39 -68 14z M4281 2629 c-1 -9 -19 -37 -42 -63 -22 -25 -37 -46
-32 -46 23 0 88 92 80 112 -4 9 -6 8 -6 -3z M4580 2630 c0 -5 4 -9 9 -7 5 1
32 -28 60 -66 49 -63 178 -172 211 -178 8 -1 23 1 34 6 15 7 38 -12 124 -104
85 -91 110 -112 128 -108 18 3 42 -17 124 -105 96 -102 130 -127 130 -94 0 18
-65 99 -116 146 l-38 35 28 -35 c16 -19 48 -57 72 -83 24 -27 44 -54 44 -60 0
-12 -105 92 -194 193 -31 35 -46 47 -42 33 15 -49 -25 -20 -126 88 -99 107
-104 110 -138 105 -30 -5 -43 1 -107 50 -43 32 -95 84 -125 124 -47 63 -78 87
-78 60z M3400 2545 c-18 -47 -31 -88 -28 -90 3 -3 20 33 38 80 18 47 31 88 28
90 -3 3 -20 -33 -38 -80z M3446 2583 c-3 -27 -9 -60 -12 -75 -5 -24 -3 -28 15
-28 15 0 21 6 20 23 -1 16 -2 18 -6 5 -2 -10 -9 -18 -15 -18 -6 0 -8 9 -4 23
10 33 19 117 14 117 -3 0 -8 -21 -12 -47z M5132 2607 c15 -12 83 -62 152 -112
123 -88 155 -121 75 -76 -22 13 -47 20 -55 17 -10 -4 -39 12 -75 41 -33 25
-62 44 -65 41 -3 -3 27 -29 66 -58 39 -29 68 -55 65 -58 -4 -5 -30 12 -115 75
-28 20 -25 16 10 -17 25 -23 61 -53 80 -65 49 -31 131 -106 460 -419 411 -391
448 -426 457 -426 4 0 -28 35 -72 78 -187 181 -666 635 -734 696 -41 36 -76
73 -77 81 -4 25 15 27 45 6 34 -24 71 -28 71 -6 0 8 -9 19 -19 25 -11 5 -57
38 -103 73 -95 72 -176 127 -186 127 -4 0 5 -11 20 -23z M1338 2595 c-20 -8
-52 -20 -70 -29 -69 -31 -177 -76 -182 -76 -5 0 -48 -18 -141 -60 -11 -5 -92
-39 -179 -75 -88 -37 -178 -75 -200 -85 -67 -30 -193 -85 -324 -140 -67 -29
-125 -57 -129 -63 -8 -13 -33 -23 277 113 262 115 848 364 955 406 63 24 57
32 -7 9z M2521 2598 c0 -10 -13 -24 -28 -32 -30 -15 -132 -105 -122 -106 4 0
34 21 67 48 33 26 68 52 77 57 11 7 15 18 12 30 -4 16 -5 17 -6 3z M4396 2594
c-5 -13 -4 -14 7 -6 10 9 17 8 26 -1 10 -9 11 -8 6 6 -9 22 -31 22 -39 1z
M1360 2575 c-30 -13 -251 -107 -490 -209 -604 -255 -751 -319 -746 -323 2 -3
225 89 331 136 43 20 235 102 330 141 55 23 119 51 142 61 23 10 44 19 47 19
3 0 31 12 63 26 59 26 68 29 138 59 22 9 49 20 60 25 11 5 54 23 95 40 41 16
82 35 90 40 27 18 -4 10 -60 -15z M5044 2475 c65 -64 120 -114 123 -111 6 5
-214 220 -231 224 -6 2 42 -49 108 -113z M5030 2526 c36 -37 88 -86 115 -109
36 -29 26 -16 -35 47 -47 48 -98 97 -115 108 -16 12 -1 -9 35 -46z M3482 2529
c6 -14 -12 -160 -29 -239 l-7 -35 -6 50 -7 50 -1 -56 c-2 -43 1 -56 13 -56 8
0 15 4 15 8 0 4 9 67 20 140 14 99 17 136 8 144 -8 7 -9 6 -6 -6z M3222 2510
c3 -21 -1 -25 -22 -22 -18 2 -22 0 -13 -9 6 -6 19 -9 29 -7 22 4 31 35 15 51
-9 9 -11 5 -9 -13z M2516 2511 c-15 -23 -577 -502 -784 -668 -52 -41 -91 -77
-89 -80 9 -8 314 242 670 550 206 177 223 194 214 203 -3 3 -8 1 -11 -5z
M3625 2483 c-3 -8 -5 -39 -5 -69 0 -31 -4 -53 -8 -50 -5 3 -9 -1 -9 -8 0 -8 6
-12 14 -9 9 3 13 24 13 63 0 78 18 87 23 13 l3 -58 2 66 c2 52 -1 66 -13 66
-8 0 -17 -7 -20 -14z M3675 2438 c-4 -33 -4 -62 -1 -65 3 -4 6 9 7 28 1 19 5
45 10 59 5 15 7 -62 6 -195 -1 -121 1 -200 5 -175 3 25 7 126 7 226 1 150 -1
181 -13 181 -10 0 -16 -18 -21 -59z M2975 2428 c-35 -44 -116 -199 -227 -433
-49 -104 -93 -197 -98 -205 -33 -53 -43 -75 -28 -62 8 6 53 90 99 185 146 300
230 461 261 500 16 21 28 41 25 43 -3 3 -17 -10 -32 -28z M3586 2444 c-3 -9
-6 -34 -6 -56 0 -22 -7 -84 -15 -137 -8 -53 -28 -195 -45 -316 -17 -121 -33
-231 -36 -245 -4 -18 -3 -21 4 -10 5 8 14 53 21 100 6 47 27 195 46 330 19
135 35 260 35 278 0 18 5 42 10 53 6 11 7 19 1 19 -5 0 -12 -7 -15 -16z M2452
2365 c-115 -132 -144 -173 -137 -195 4 -14 -13 -40 -66 -100 -39 -45 -69 -83
-66 -86 2 -3 35 29 72 71 52 57 68 83 68 105 0 30 53 102 165 224 37 42 52 52
52 39 0 -23 -48 -100 -78 -127 -12 -11 -22 -24 -22 -29 0 -18 60 45 87 90 24
41 28 84 8 89 -5 2 -43 -35 -83 -81z M1830 2415 c-14 -8 -71 -33 -128 -56 -57
-23 -101 -43 -99 -45 5 -5 163 58 222 89 28 14 46 26 40 26 -5 0 -21 -6 -35
-14z M3421 2404 c0 -12 -9 -31 -20 -43 -10 -11 -30 -69 -45 -129 -14 -59 -35
-134 -46 -167 l-20 -60 5 50 c3 28 7 64 10 80 l5 30 -10 -30 c-21 -65 -28
-124 -14 -129 7 -3 16 -1 19 4 7 11 38 124 66 240 11 48 29 94 40 106 13 14
19 31 16 46 -4 20 -4 21 -6 2z M3895 2281 c4 -77 11 -166 16 -198 9 -64 8 -54
-7 217 -4 63 -3 112 0 109 4 -4 18 -94 32 -200 31 -248 53 -382 63 -392 4 -4
2 21 -5 55 -7 35 -24 153 -38 263 -15 110 -29 219 -32 243 -3 29 -10 42 -21
42 -13 0 -14 -18 -8 -139z M3945 2385 c13 -139 50 -437 53 -423 4 21 -35 364
-48 423 l-9 40 4 -40z M3967 2383 c7 -48 47 -144 59 -144 5 0 8 -8 7 -17 -2
-9 20 -102 47 -207 27 -104 49 -182 49 -171 1 10 -19 96 -43 190 -54 208 -61
315 -17 262 10 -12 71 -382 71 -433 0 -13 4 -23 9 -23 5 0 7 8 5 18 -2 9 -18
111 -35 227 -17 115 -35 215 -41 222 -6 7 -19 13 -29 13 -15 0 -19 -8 -20 -32
-1 -33 -1 -32 -25 17 -13 28 -24 62 -24 77 0 15 -4 29 -9 33 -6 3 -7 -10 -4
-32z M1795 2363 c-92 -60 -243 -167 -385 -274 -63 -47 -152 -112 -198 -143
-45 -31 -76 -56 -68 -56 13 0 131 83 401 281 61 45 161 115 223 156 61 41 112
77 112 79 0 10 -20 0 -85 -43z M3725 2229 c-4 -94 -5 -172 -2 -175 2 -3 8 72
12 166 4 93 11 170 15 170 11 0 20 -136 30 -492 5 -182 12 -333 15 -336 3 -3
5 1 5 9 -3 171 -21 669 -26 737 -6 78 -10 92 -24 92 -16 0 -18 -18 -25 -171z
M3830 2381 c0 -11 -6 -21 -12 -23 -10 -4 -12 -89 -9 -384 1 -208 5 -381 8
-384 3 -3 3 166 2 374 -3 292 -1 380 9 384 7 2 12 13 12 25 1 17 2 19 9 7 5
-8 14 -76 20 -150 13 -146 21 -213 26 -208 4 4 -22 295 -30 346 -6 35 -35 46
-35 13z M2688 2355 c-16 -13 -35 -28 -44 -33 -9 -5 -20 -31 -25 -58 -5 -27
-22 -75 -37 -106 -16 -32 -25 -58 -22 -58 11 0 57 108 69 158 5 24 11 45 13
46 39 28 66 45 70 41 2 -2 4 5 5 15 2 24 4 25 -29 -5z M3101 2244 c-59 -156
-69 -183 -105 -305 -30 -97 -32 -119 -12 -119 14 0 94 186 84 195 -3 3 -22
-39 -43 -92 -45 -112 -58 -109 -22 4 14 43 27 87 30 98 3 11 33 92 66 180 34
88 60 164 58 169 -2 5 -27 -54 -56 -130z M2984 2259 c-30 -61 -53 -113 -50
-116 3 -3 30 45 60 106 49 98 76 133 76 101 0 -5 6 -9 13 -7 17 3 13 -13 -28
-127 -19 -54 -34 -101 -31 -103 2 -2 14 26 26 64 12 37 32 90 43 117 20 47 20
49 2 62 -40 29 -53 18 -111 -97z M3526 2343 c-3 -10 -14 -85 -25 -168 -12 -82
-25 -177 -31 -210 -6 -33 -21 -154 -34 -270 -18 -157 -21 -212 -13 -217 18
-12 27 -9 27 7 0 9 26 71 59 138 39 81 61 140 65 177 3 30 9 75 13 100 3 25 3
43 0 40 -3 -3 -11 -46 -17 -95 -10 -76 -22 -109 -71 -212 -33 -67 -59 -130
-59 -140 0 -10 -3 -13 -9 -8 -9 11 25 340 53 505 8 52 22 147 31 210 8 63 18
125 21 138 7 26 -2 30 -10 5z M4680 2352 c0 -7 19 -41 42 -75 50 -75 47 -71
53 -66 2 3 -18 38 -45 79 -28 41 -50 69 -50 62z M2663 2233 c-78 -120 -97
-153 -90 -159 3 -3 17 17 32 43 15 26 47 75 69 108 37 53 71 115 63 115 -2 0
-35 -48 -74 -107z M2505 2289 c-25 -23 -43 -44 -40 -47 3 -3 25 13 48 36 46
46 67 53 67 23 0 -12 -67 -73 -195 -176 -108 -87 -193 -160 -191 -163 3 -3 83
58 177 134 227 184 217 175 221 204 5 43 -34 38 -87 -11z M3838 2290 c-2 -22
0 -40 4 -40 5 0 8 18 8 40 0 22 -2 40 -4 40 -2 0 -6 -18 -8 -40z M4580 2290
c-15 -9 -22 -37 -11 -45 5 -2 17 3 27 11 17 14 17 15 2 10 -20 -6 -25 10 -5
17 6 2 10 7 7 10 -3 3 -12 2 -20 -3z M3532 2210 c0 -19 2 -27 5 -17 2 9 2 25
0 35 -3 9 -5 1 -5 -18z M4005 2153 c3 -38 10 -126 15 -196 6 -71 8 -132 6
-135 -2 -4 -7 -48 -10 -99 -4 -51 -9 -109 -12 -129 -2 -21 -1 -34 3 -30 5 4 8
17 9 29 4 79 16 223 20 229 2 3 0 60 -6 125 -5 65 -11 153 -12 195 -2 43 -6
78 -11 78 -4 0 -5 -30 -2 -67z M3495 1945 c-15 -124 -26 -227 -24 -230 3 -2
18 97 34 220 15 124 26 227 24 230 -3 2 -18 -97 -34 -220z M5270 2164 c0 -17
175 -182 190 -179 8 2 30 7 48 11 32 7 37 2 244 -205 116 -116 213 -209 216
-206 7 7 -369 384 -406 407 -29 18 -39 19 -70 10 l-36 -11 -93 91 c-51 51 -93
87 -93 82z M3276 2143 c-4 -13 -12 -22 -18 -20 -6 1 -28 -54 -49 -123 -33
-111 -104 -290 -279 -708 -28 -68 -50 -128 -48 -134 2 -6 22 36 45 93 123 306
222 548 237 576 9 18 32 87 51 153 24 84 41 126 56 139 12 10 20 24 17 32 -3
10 -7 7 -12 -8z M2110 2069 c-36 -27 -108 -82 -160 -121 -52 -39 -127 -96
-167 -125 -75 -57 -96 -72 -237 -166 -47 -31 -86 -59 -86 -62 0 -8 46 18 111
62 31 21 76 51 100 68 24 16 80 57 124 90 44 34 111 83 148 109 38 27 96 72
129 102 67 60 117 89 130 76 15 -15 -115 -157 -381 -417 -264 -258 -1484
-1491 -1541 -1557 -66 -78 -17 -32 166 154 630 642 1481 1493 1567 1568 43 37
178 194 194 225 13 25 6 45 -15 45 -9 0 -46 -23 -82 -51z M2022 1939 c-79 -76
-149 -139 -155 -139 -7 0 -27 -19 -45 -42 -18 -24 -191 -205 -385 -403 -789
-806 -1219 -1250 -1202 -1244 6 2 193 191 415 419 223 228 519 532 660 675
403 410 488 499 522 543 18 23 38 42 45 42 14 0 300 276 293 283 -3 3 -69 -58
-148 -134z M4911 2059 c-1 -18 98 -159 111 -159 9 0 -40 74 -74 110 -10 11
-23 30 -28 42 -6 15 -9 17 -9 7z M4936 2060 c20 -34 117 -151 121 -146 6 6
-76 113 -107 141 -14 12 -20 14 -14 5z M1810 2052 c-8 -3 -56 -29 -107 -58
-50 -30 -102 -54 -115 -54 -13 0 -60 -17 -104 -38 -122 -60 -460 -269 -450
-279 2 -3 35 15 73 39 255 165 443 268 490 268 16 1 72 27 128 60 54 32 103
56 107 54 21 -13 -1 -44 -104 -150 -61 -63 -107 -114 -102 -114 13 0 199 190
213 217 21 42 8 67 -29 55z M4151 2045 c-3 -60 144 -667 232 -955 24 -80 52
-178 62 -218 9 -40 20 -71 22 -68 7 6 -23 119 -87 331 -58 194 -187 704 -211
835 -9 52 -17 86 -18 75z M4171 2055 c-1 -14 158 -627 164 -633 9 -9 7 -1 -75
314 -81 314 -88 337 -89 319z M2654 1963 c-31 -49 -74 -108 -94 -133 -21 -25
-44 -59 -53 -76 -9 -16 -36 -53 -60 -80 -25 -27 -134 -187 -242 -354 -109
-168 -303 -464 -432 -659 -129 -194 -232 -356 -229 -358 5 -5 360 528 670
1006 108 167 219 329 245 360 27 31 56 70 65 86 9 17 27 44 39 60 89 120 163
235 153 235 -2 0 -30 -39 -62 -87z M4211 2042 c-1 -20 142 -599 145 -587 2 6
-30 143 -71 305 -40 162 -74 289 -74 282z M4235 2033 c7 -15 24 -68 51 -152 2
-8 6 -12 9 -10 5 6 -30 131 -44 158 -14 25 -26 28 -16 4z M3081 2017 c-1 -18
-91 -309 -132 -428 -21 -61 -24 -99 -9 -99 5 0 7 7 4 15 -6 14 22 109 108 372
22 68 37 131 35 140 -4 17 -5 17 -6 0z M4832 2003 c-5 -10 -7 -25 -4 -33 10
-28 161 -247 257 -374 53 -70 105 -142 117 -161 11 -20 23 -34 25 -31 9 8 -31
70 -133 203 -54 71 -135 184 -181 253 -72 109 -81 126 -68 139 22 23 57 1 111
-69 56 -72 72 -73 19 -1 -62 86 -121 116 -143 74z M5117 1883 c53 -71 129
-177 168 -238 39 -60 80 -117 90 -125 23 -18 25 -22 -88 147 -109 162 -245
343 -258 343 -5 0 35 -57 88 -127z M2373 1964 c-15 -20 -57 -73 -92 -118 -186
-234 -269 -335 -331 -403 -38 -41 -84 -97 -102 -124 -18 -27 -39 -49 -46 -49
-14 0 63 101 163 215 34 39 101 120 150 180 49 61 111 137 138 170 52 65 86
120 45 74 -22 -25 -281 -339 -438 -532 -51 -63 -81 -91 -93 -89 -9 2 -17 6
-17 8 0 3 61 80 135 172 74 92 135 171 135 177 0 11 -19 -11 -178 -209 -106
-132 -116 -141 -155 -148 -72 -12 -114 -83 -97 -162 6 -27 -1 -40 -54 -106
-85 -106 -409 -498 -609 -738 -93 -112 -167 -205 -165 -208 5 -4 172 194 599
711 243 294 248 300 239 340 -10 46 -3 78 29 115 36 44 100 56 153 29 20 -10
42 -28 48 -38 26 -49 -1 -130 -55 -165 -27 -18 -115 -22 -131 -6 -16 16 -38 3
-75 -43 -43 -56 -253 -309 -530 -642 -277 -333 -262 -315 -257 -321 5 -4 306
354 662 788 153 187 181 216 196 208 31 -17 112 -12 146 9 55 34 81 124 51
181 -12 23 -10 29 32 85 25 33 71 87 101 120 31 33 101 116 156 185 55 69 127
159 160 200 65 81 128 170 120 170 -3 0 -18 -16 -33 -36z M4284 1983 c4 -10
10 -30 13 -46 3 -15 9 -30 14 -33 5 -2 2 16 -5 41 -8 25 -10 45 -5 45 11 0 19
-17 55 -123 15 -43 29 -76 31 -74 2 3 -11 49 -29 103 -29 85 -36 99 -57 102
-20 3 -23 1 -17 -15z M4360 1954 c0 -15 42 -146 45 -142 3 2 -4 33 -15 69 -23
75 -22 69 -11 69 11 0 18 -19 92 -238 34 -101 63 -181 65 -179 3 2 -27 98 -66
213 -38 115 -70 210 -70 211 0 2 -9 3 -20 3 -11 0 -20 -3 -20 -6z M4455 1946
c-18 -13 -18 -16 8 -107 32 -112 95 -298 96 -283 1 6 -10 44 -24 85 -14 41
-39 120 -56 177 -34 116 -31 132 26 132 44 0 72 -29 124 -130 43 -83 176 -290
187 -290 8 0 -14 37 -76 130 -31 47 -79 127 -106 178 -51 98 -77 122 -132 122
-15 0 -37 -6 -47 -14z M2938 1869 c-111 -273 -140 -330 -213 -408 -92 -99
-125 -140 -125 -154 0 -7 13 4 28 23 15 19 61 72 102 116 64 69 82 97 122 190
26 60 64 146 83 192 20 45 35 87 33 93 -2 6 -15 -17 -30 -52z M5507 1923 c-15
-14 22 -57 166 -190 236 -217 261 -239 256 -228 -3 9 -167 165 -364 347 -54
50 -57 78 -3 33 18 -15 129 -121 246 -236 116 -115 212 -205 212 -201 -1 13
-102 117 -286 295 -162 155 -212 195 -227 180z M3596 1868 c-8 -67 -15 -236
-19 -503 -2 -117 0 -179 4 -140 3 39 7 163 8 277 0 114 6 253 12 308 11 104 7
152 -5 58z M3386 1868 c-10 -61 -75 -534 -81 -588 l-4 -45 9 40 c5 22 25 157
45 300 19 143 38 277 41 298 4 20 4 37 2 37 -3 0 -9 -19 -12 -42z M1200 1893
c-19 -3 -39 -9 -45 -14 -6 -6 2 -7 20 -4 17 3 50 10 75 14 48 9 16 11 -50 4z
M3416 1863 c-4 -21 -17 -137 -30 -258 -14 -121 -34 -255 -46 -298 -12 -43 -20
-83 -18 -89 11 -31 54 205 78 427 16 138 27 251 25 253 -2 2 -6 -14 -9 -35z
M1515 1824 c-49 -36 -105 -79 -124 -94 -20 -16 -162 -129 -316 -252 -154 -123
-424 -342 -600 -488 -176 -145 -355 -292 -397 -326 -43 -35 -73 -65 -68 -70
16 -16 16 -69 0 -82 -13 -10 -12 -11 5 -5 21 7 56 36 425 348 257 217 426 358
725 604 116 95 232 197 258 226 26 30 80 77 120 106 95 68 120 99 79 99 -10 0
-59 -30 -107 -66z m115 52 c0 -3 -40 -34 -88 -69 -49 -36 -108 -87 -133 -115
-24 -28 -138 -128 -254 -223 -292 -240 -459 -379 -760 -634 -143 -121 -284
-240 -313 -263 l-52 -44 0 40 c0 36 5 44 43 74 23 18 146 118 272 223 451 374
809 662 1090 880 39 30 93 72 120 94 44 35 75 50 75 37z M743 1868 c-50 -24
-53 -111 -5 -129 74 -28 145 53 100 114 -16 21 -67 30 -95 15z m77 -18 c28
-28 25 -64 -6 -89 -33 -26 -58 -27 -84 -1 -27 27 -25 52 6 84 32 31 57 33 84
6z M1239 1834 c-24 -25 -81 -75 -126 -111 -82 -64 -109 -92 -55 -58 82 54 242
198 231 210 -3 2 -25 -16 -50 -41z M2481 1848 c-27 -43 -51 -97 -51 -115 1
-10 7 -2 14 18 16 46 55 109 67 109 14 0 12 -5 -22 -60 -17 -28 -29 -53 -26
-56 7 -7 67 93 67 111 0 23 -33 18 -49 -7z M2087 1822 c-37 -38 -49 -82 -24
-82 16 0 47 32 47 47 0 6 -5 13 -12 15 -7 3 -2 13 12 26 13 12 21 24 19 27 -3
2 -22 -12 -42 -33z m-4 -54 c-10 -11 -19 -15 -21 -8 -5 15 18 41 30 34 5 -3 1
-15 -9 -26z M1083 1750 c-45 -43 -74 -65 -80 -59 -6 6 -18 3 -34 -9 -13 -11
-107 -79 -209 -152 -315 -226 -580 -423 -580 -433 0 -5 12 1 28 12 15 12 162
119 326 239 165 119 337 245 382 279 46 34 85 59 87 55 6 -9 -73 -68 -453
-341 -280 -201 -409 -300 -335 -256 17 10 55 37 85 60 30 23 183 133 340 245
157 112 305 220 329 239 65 52 196 180 190 185 -3 3 -37 -26 -76 -64z M4860
1796 c0 -16 66 -107 91 -125 22 -17 27 -26 20 -35 -11 -13 49 -108 184 -292
33 -45 105 -153 159 -240 133 -212 683 -1044 691 -1044 10 0 -7 27 -298 467
-156 235 -328 499 -383 587 -54 87 -138 210 -185 275 -118 159 -172 241 -160
241 6 0 29 -28 53 -62 23 -35 62 -88 87 -118 44 -55 67 -89 236 -355 131 -206
665 -1018 677 -1030 27 -26 -41 82 -289 460 -148 226 -318 487 -377 580 -162
255 -190 297 -238 356 -24 30 -68 89 -97 132 -30 43 -62 82 -72 88 -11 5 -35
34 -54 64 -31 49 -45 65 -45 51z M2652 1738 c-12 -18 -19 -35 -16 -38 3 -3 9
2 14 10 19 33 39 55 45 49 10 -11 -34 -209 -71 -314 -37 -106 -56 -177 -29
-110 50 126 91 271 110 393 6 37 5 42 -13 42 -12 0 -29 -14 -40 -32z M3046
1728 c-27 -74 -132 -379 -160 -465 -15 -46 -25 -91 -23 -100 4 -15 5 -14 6 3
1 19 62 203 160 484 22 63 38 116 36 118 -1 2 -10 -16 -19 -40z M3877 1758
c-23 -18 -37 -129 -35 -293 l1 -130 8 180 c7 183 16 231 45 242 26 10 42 -17
69 -112 14 -49 22 -72 19 -50 -3 22 -15 69 -27 105 -23 69 -44 84 -80 58z
M3257 1709 c-8 -30 -19 -79 -26 -109 -6 -30 -32 -145 -58 -255 -45 -187 -49
-200 -70 -199 -17 1 -25 -7 -32 -30 -21 -64 -261 -1041 -258 -1049 1 -5 61
224 131 509 121 489 141 562 152 551 4 -4 -248 -1017 -261 -1051 -5 -12 -5
-17 2 -13 5 3 61 211 124 461 62 250 116 453 119 451 3 -2 6 16 7 39 1 22 8
61 17 86 l16 45 -6 -45 c-3 -25 -8 -64 -11 -87 -4 -34 -3 -43 10 -43 14 0 30
52 51 160 2 14 27 117 54 230 64 263 88 385 73 376 -4 -3 -11 -31 -14 -63 -4
-32 -32 -161 -63 -288 -31 -126 -60 -250 -64 -276 -13 -72 -33 -136 -37 -117
-5 20 33 205 83 408 19 80 41 174 48 210 7 36 18 82 25 103 7 21 11 41 8 44
-3 3 -12 -19 -20 -48z M5880 1743 c8 -3 33 -22 55 -42 34 -31 144 -113 229
-171 l21 -14 -19 22 c-11 13 -63 54 -115 91 -53 38 -107 81 -120 95 -14 14
-34 26 -45 25 -15 0 -17 -2 -6 -6z M5880 1723 c0 -5 23 -34 51 -64 27 -30 49
-49 47 -43 -4 16 -98 118 -98 107z M2409 1673 c-25 -27 -148 -208 -274 -403
-126 -195 -311 -480 -411 -632 -187 -284 -209 -318 -199 -318 7 0 274 405 597
905 142 220 270 410 283 422 14 12 25 25 25 29 0 4 7 16 17 26 9 10 14 18 11
18 -3 0 -25 -21 -49 -47z M4649 1708 c-2 -19 -5 -11 62 -168 33 -80 67 -161
75 -180 8 -23 13 -28 13 -15 1 11 -6 34 -15 50 -32 62 -126 291 -126 308 1 19
-7 24 -9 5z M5130 1700 c-11 -7 -10 -14 3 -42 8 -18 25 -57 37 -87 20 -53 68
-141 76 -141 2 0 -14 35 -35 78 -21 42 -44 93 -51 112 -7 19 -18 41 -23 48 -5
7 -7 15 -4 18 7 7 217 -174 217 -187 0 -5 4 -9 10 -9 22 0 -7 32 -109 123 -74
65 -112 93 -121 87z M4676 1690 c19 -40 117 -190 122 -186 5 6 -79 143 -109
177 -11 13 -17 17 -13 9z M5456 1637 c-19 -14 -18 -16 22 -64 62 -75 67 -78
86 -51 22 31 20 62 -6 92 -28 32 -76 43 -102 23z m83 -23 c33 -27 39 -52 19
-83 -10 -17 -15 -14 -59 38 -31 37 -43 58 -35 63 21 14 44 8 75 -18z M4876
1528 c9 -24 20 -52 24 -63 4 -11 16 -40 25 -65 32 -85 193 -387 546 -1022 53
-95 76 -116 72 -66 0 13 -76 161 -168 328 -289 528 -329 603 -379 703 -27 54
-51 95 -54 93 -6 -6 79 -176 174 -351 39 -71 151 -275 248 -452 97 -177 176
-328 176 -335 0 -15 -38 50 -286 500 -192 350 -339 632 -328 632 3 0 0 10 -8
23 -8 12 -20 41 -28 65 -7 24 -17 45 -22 48 -5 3 -1 -14 8 -38z M2551 1553
c-1 -11 -205 -380 -216 -392 -3 -2 -8 -2 -11 1 -3 4 21 53 53 110 33 56 77
135 98 173 21 39 45 78 53 88 8 9 10 17 5 17 -15 0 -25 -14 -68 -95 -21 -38
-64 -116 -96 -172 -62 -107 -68 -127 -45 -136 17 -7 19 -5 145 222 51 90 90
171 88 180 -3 9 -5 11 -6 4z M6046 1441 c-17 -6 -16 -10 10 -41 24 -28 333
-319 853 -802 64 -59 122 -108 129 -108 17 0 14 30 -6 62 -18 28 -504 484
-670 627 -53 46 -142 125 -197 176 -76 70 -105 90 -119 86z m112 -100 c54 -48
141 -126 194 -172 121 -105 600 -547 651 -601 43 -47 53 -87 12 -48 -13 12
-22 27 -18 33 3 6 1 7 -5 3 -7 -4 -78 56 -169 141 -87 82 -286 268 -443 414
-293 274 -339 319 -326 319 4 0 51 -40 104 -89z M5382 1407 c-1 -14 13 -41 36
-68 196 -238 197 -239 174 -255 -18 -12 -22 -25 -22 -68 0 -44 5 -58 26 -79
30 -30 88 -42 128 -27 16 6 30 9 31 8 2 -2 121 -151 265 -333 143 -181 266
-332 273 -334 6 -2 -4 16 -23 40 -117 149 -494 626 -501 634 -6 5 -22 4 -44
-4 -75 -27 -145 19 -145 95 0 33 5 47 20 56 11 7 20 19 20 27 0 12 -153 208
-209 268 -28 29 -27 52 0 27 12 -10 72 -82 134 -159 87 -108 120 -142 145
-150 41 -12 67 -47 83 -108 11 -41 176 -261 519 -690 10 -12 18 -17 18 -12 0
6 -117 159 -260 340 -203 259 -261 338 -266 368 -10 55 -43 100 -83 112 -26 8
-55 37 -129 130 -102 127 -170 205 -181 205 -4 0 -7 -10 -9 -23z M3796 1399
c-3 -13 -14 -103 -26 -199 -18 -148 -25 -185 -50 -236 -17 -33 -30 -76 -30
-95 0 -19 -5 -41 -10 -49 -8 -12 -10 -10 -10 10 0 66 -32 465 -37 470 -3 3 -3
-26 0 -65 4 -38 12 -154 18 -257 8 -123 16 -186 23 -185 14 3 24 33 25 77 1
19 10 50 22 69 28 46 45 122 65 296 10 83 21 152 25 155 4 3 4 12 -1 20 -7 11
-10 8 -14 -11z M4723 1363 c5 -27 99 -240 197 -450 21 -45 36 -84 33 -87 -3
-2 -34 28 -69 68 -117 132 -198 190 -219 156 -4 -7 2 -9 17 -5 19 5 37 -8 99
-67 41 -40 94 -95 118 -121 33 -38 45 -46 56 -37 13 11 -13 79 -104 275 -74
159 -121 265 -121 276 0 7 12 2 27 -12 l27 -24 -16 25 c-8 14 -23 27 -33 29
-15 2 -17 -2 -12 -26z M3822 1360 c0 -14 2 -19 5 -12 2 6 2 18 0 25 -3 6 -5 1
-5 -13z M2793 1303 c-28 -49 -69 -146 -194 -468 -39 -99 -81 -201 -95 -227
-13 -26 -24 -55 -24 -64 0 -9 -43 -130 -95 -268 -52 -139 -95 -259 -94 -267 0
-8 4 -3 9 11 4 14 49 134 99 267 50 132 91 249 91 260 0 10 9 29 20 43 11 14
20 30 20 37 0 22 231 588 266 652 41 75 39 95 -3 24z M2846 1328 c-8 -13 -21
-39 -30 -58 -33 -74 -256 -659 -256 -671 0 -7 8 -21 17 -31 22 -25 7 -51 -32
-58 -15 -3 -32 -12 -36 -20 -15 -26 -189 -473 -189 -484 1 -6 44 97 96 228 52
132 100 246 106 253 6 7 21 13 34 13 37 0 51 36 29 76 l-17 32 121 313 c66
173 134 340 150 372 29 59 33 74 7 35z M1779 1313 c-13 -16 -12 -17 4 -4 9 7
17 15 17 17 0 8 -8 3 -21 -13z M4900 1292 c0 -24 28 -62 46 -62 19 0 18 30 -2
58 -18 26 -44 29 -44 4z m50 -43 c0 -14 -12 -10 -26 9 -22 29 -16 51 6 23 11
-13 20 -27 20 -32z M3600 1246 c0 -30 -3 -63 -6 -73 -5 -12 -4 -15 4 -8 12 11
21 135 10 135 -5 0 -8 -24 -8 -54z M4131 1268 l1 -33 7 30 7 30 7 -27 c4 -14
4 -35 1 -45 -5 -14 -4 -15 5 -7 16 15 4 84 -15 84 -9 0 -14 -11 -13 -32z
M2590 1228 c-24 -35 -59 -82 -77 -104 -18 -23 -90 -158 -159 -300 -237 -485
-384 -797 -384 -813 0 -8 67 124 148 294 317 663 357 742 407 810 28 39 62 85
74 103 32 46 46 40 16 -8 -28 -45 -195 -393 -300 -625 -37 -82 -81 -179 -97
-215 -71 -153 -146 -327 -152 -350 -7 -29 8 2 111 230 41 91 86 190 100 220
14 30 45 98 68 150 49 109 243 518 271 570 11 19 22 37 27 38 11 6 8 32 -4 32
-8 0 -8 5 1 15 7 8 8 15 3 15 -6 0 -30 -28 -53 -62z M4057 1272 c-21 -23 -22
-75 -2 -92 17 -14 61 -6 67 12 3 7 1 32 -4 56 -10 47 -33 56 -61 24z m48 -14
c10 -50 9 -61 -7 -71 -38 -25 -64 38 -31 75 21 24 32 23 38 -4z M4265 1250
c-8 -13 -19 36 160 -680 80 -316 145 -567 145 -557 0 10 -63 269 -140 575
-171 684 -163 652 -157 659 3 3 10 -12 16 -34 40 -139 105 -396 199 -775 59
-241 108 -433 110 -428 3 9 -174 734 -252 1030 -23 91 -46 177 -50 193 -7 28
-20 35 -31 17z M4516 1197 c-19 -14 -40 -87 -25 -87 5 0 9 13 9 28 0 16 9 37
20 47 20 18 21 18 39 -1 10 -10 35 -50 55 -89 20 -38 36 -63 36 -55 0 25 -70
149 -90 160 -23 13 -23 13 -44 -3z M4446 1110 c3 -41 14 -124 25 -185 22 -133
16 -50 -11 130 -13 90 -18 107 -14 55z M2268 1101 c-32 -57 -35 -81 -10 -81
17 0 62 71 62 100 0 8 -12 -8 -26 -35 -31 -59 -32 -60 -40 -52 -4 3 6 27 20
52 15 25 26 50 24 55 -2 6 -15 -12 -30 -39z M3950 1113 c-17 -21 -20 -35 -14
-58 4 -16 6 -51 5 -77 -1 -37 2 -49 17 -57 33 -18 61 -2 68 38 3 20 12 50 20
68 20 45 18 79 -8 97 -33 24 -64 19 -88 -11z m82 0 c23 -21 23 -54 -1 -84 -10
-13 -16 -30 -14 -37 8 -21 -6 -59 -23 -66 -28 -11 -46 14 -39 51 3 19 0 49 -6
68 -12 32 -11 37 11 60 27 29 46 31 72 8z M3363 1099 c3 -22 -10 -132 -68
-604 -30 -242 -56 -452 -58 -467 -2 -15 0 -25 5 -22 4 3 8 18 8 33 0 15 24
223 54 462 75 602 74 593 66 603 -5 4 -7 2 -7 -5z M3392 1065 c-1 -22 -31
-269 -67 -549 -35 -281 -63 -511 -61 -514 6 -5 10 26 76 552 34 264 59 496 57
515 l-4 36 -1 -40z M4520 1035 c-12 -44 -11 -51 58 -263 67 -204 138 -431 212
-670 17 -57 33 -102 36 -100 2 3 -3 24 -10 49 -8 24 -55 174 -105 334 -50 160
-113 360 -141 445 -49 146 -51 157 -39 198 6 23 10 45 7 48 -3 2 -11 -16 -18
-41z M4171 1029 c-1 -30 6 -40 25 -32 16 6 19 33 3 33 -5 0 -7 -4 -4 -10 3 -5
2 -10 -4 -10 -5 0 -12 10 -14 23 -4 20 -4 20 -6 -4z M2020 658 c-106 -189
-231 -407 -277 -485 -46 -79 -83 -151 -82 -160 0 -13 3 -12 10 6 5 13 36 67
68 120 32 53 154 266 271 473 118 207 217 375 221 372 4 -2 -38 -84 -93 -182
-114 -201 -390 -679 -423 -732 -23 -38 -37 -70 -30 -70 15 0 567 970 561 986
-3 8 -11 14 -19 14 -7 0 -100 -154 -207 -342z M3164 976 c-8 -21 3 -36 27 -36
15 0 20 6 17 22 -4 27 -35 37 -44 14z m33 -22 c-9 -9 -28 6 -21 18 4 6 10 6
17 -1 6 -6 8 -13 4 -17z M4550 956 c0 -4 38 -125 84 -269 46 -144 112 -354
147 -467 34 -113 67 -209 71 -215 6 -6 7 -4 4 5 -3 8 -37 119 -76 245 -102
329 -221 699 -226 704 -2 2 -4 1 -4 -3z M4788 878 c21 -29 44 -63 51 -76 6
-12 31 -44 54 -70 41 -46 75 -114 168 -336 22 -55 51 -122 64 -150 13 -28 42
-95 65 -149 24 -54 45 -96 47 -93 2 2 -26 73 -62 158 -37 84 -87 200 -112 258
-104 245 -119 277 -153 315 -20 22 -50 61 -67 87 -50 74 -76 108 -85 108 -5 0
9 -24 30 -52z M3071 883 c-15 -54 -14 -72 6 -69 20 3 31 29 32 74 1 46 -25 42
-38 -5z m29 0 c0 -31 -15 -61 -25 -51 -7 7 13 78 21 78 2 0 4 -12 4 -27z
M2831 876 c-7 -8 -11 -27 -9 -43 3 -25 7 -28 38 -28 31 0 35 3 38 28 4 32 -13
57 -38 57 -10 0 -23 -6 -29 -14z m49 -11 c19 -23 8 -50 -20 -50 -16 0 -26 6
-28 18 -4 18 14 47 28 47 4 0 13 -7 20 -15z M3412 868 c2 -15 10 -23 23 -23
30 0 27 39 -3 43 -20 3 -23 0 -20 -20z m29 -1 c-1 -12 -15 -9 -19 4 -3 6 1 10
8 8 6 -3 11 -8 11 -12z M4770 864 c0 -4 13 -28 28 -53 15 -25 41 -75 56 -111
16 -36 35 -74 43 -86 7 -11 67 -155 133 -320 66 -164 120 -293 120 -286 0 17
-217 559 -240 599 -11 18 -35 69 -55 114 -20 46 -45 95 -55 109 -11 15 -17 30
-13 34 3 3 1 6 -5 6 -7 0 -12 -3 -12 -6z M4106 814 c-39 -39 -1 -93 52 -73 39
15 20 89 -23 89 -7 0 -21 -7 -29 -16z m56 -20 c10 -22 10 -28 -6 -40 -37 -26
-76 22 -44 54 19 19 38 14 50 -14z M5390 735 c-16 -19 -16 -71 1 -91 20 -24
71 -14 89 19 13 24 13 30 0 55 -19 32 -69 42 -90 17z m72 -12 c22 -20 23 -41
1 -65 -28 -31 -60 -21 -76 23 -7 21 19 59 40 59 9 0 25 -7 35 -17z M2757 734
c-12 -12 -8 -51 7 -64 8 -6 25 -10 38 -8 19 2 23 9 23 38 0 32 -3 35 -30 38
-17 2 -34 0 -38 -4z m61 -32 c4 -28 -24 -40 -45 -19 -21 21 -9 49 19 45 15 -2
24 -11 26 -26z M3035 728 c-19 -58 -145 -634 -142 -651 4 -20 4 -20 6 3 2 41
142 634 152 645 17 17 9 -22 -61 -317 -79 -328 -85 -355 -77 -348 7 7 157 637
157 661 0 21 -28 26 -35 7z M3127 702 c-9 -19 0 -37 18 -37 27 0 32 31 5 38
-11 3 -21 2 -23 -1z m33 -16 c0 -3 -4 -8 -10 -11 -5 -3 -10 -1 -10 4 0 6 5 11
10 11 6 0 10 -2 10 -4z M3798 572 c-30 -6 -30 -68 1 -74 40 -9 62 13 53 53 -3
18 -27 27 -54 21z m46 -27 c7 -19 -20 -46 -39 -39 -21 8 -26 32 -9 48 16 17
40 12 48 -9z M3569 294 c-18 -19 -24 -37 -24 -71 0 -52 23 -76 70 -71 29 3 30
4 33 63 2 32 1 69 -3 82 -8 31 -45 30 -76 -3z m66 -59 c0 -68 -1 -70 -27 -73
-30 -4 -58 28 -58 64 0 29 48 86 69 82 13 -3 16 -17 16 -73z"/>
</g>
</svg>
