<?xml version="1.0" encoding="UTF-8"?>
<!-- Generator: visioncortex VTracer 0.6.4 -->
<svg version="1.1" xmlns="http://www.w3.org/2000/svg" width="560" height="560">
<path d="M0 0 C184.8 0 369.6 0 560 0 C560 184.8 560 369.6 560 560 C375.2 560 190.4 560 0 560 C0 375.2 0 190.4 0 0 Z " fill="#7D7A74" transform="translate(0,0)"/>
<path d="M0 0 C250.1 0 250.1 0 258.5 21.4 C259.3 23.4 260 25.3 260.8 27.2 C268.7 47.9 276 69.7 276 92 C278.6 92 281.3 92 284 92 C284.3 93.3 284.7 94.6 285 96 C282.7 96.3 280.3 96.6 277.9 96.9 C273 97.6 268 98.3 263 99 C263 99.7 263 100.3 263 101 C261.5 101.5 259.9 102 258.3 102.6 C249.7 105.9 241.8 110.4 233.8 114.9 C230 117 230 117 228 117 C228 117.7 228 118.3 228 119 C225.7 120.4 225.7 120.4 223.3 121.8 C217.9 124.9 217.9 124.9 213 129 C211 130 209 131 207 132 C204 124.4 202.1 117.1 201 109 C200 108.7 199 108.3 198 108 C197.7 107.3 197.3 106.7 197 106 C197.6 108.6 198.2 111.2 198.8 113.9 C200.2 120.3 201.4 126.6 202.5 133 C203.8 139.7 205.5 144.8 208 151 C208.7 155.3 209.4 159.7 210 164 C210.7 166 211.3 168 212 170 C212.3 174 212.6 178 212.8 182.1 C213.5 218.6 213.5 218.6 227 251 C226.7 251.7 226.3 252.3 226 253 C225.9 255.4 225.9 255.4 228 259 C227.3 259 226.7 259 226 259 C226.6 260.6 227.2 262.1 227.8 263.7 C232.8 277.4 237.1 291 241 305 C242 307.6 243 310.3 244 313 C250 329.4 250 329.4 250 335 C240.7 325.7 237.2 303.6 233.9 291 C232.3 285 230.3 279.7 228 274 C225.4 266.6 223.1 259.8 222 252 C222.4 260.1 223.3 268 224.4 276 C226.1 287.8 226.9 299.7 227.6 311.6 C227.9 318 227.9 318 229 324 C229.4 329.9 229.7 335.7 230 341.6 C230.6 353.7 230.6 353.7 231.5 365.8 C232 372 232.3 378.1 232.5 384.3 C232.6 386.6 232.7 388.9 232.8 391.3 C232.8 393.6 232.9 396 233 398.4 C233.2 403.1 233.3 407.9 233.5 412.6 C233.6 414.6 233.6 416.7 233.7 418.8 C233.9 423.1 234.2 427.4 234.5 431.6 C234.9 437.3 235.2 442.9 235.3 448.7 C235.4 451.6 235.4 451.6 235.4 454.5 C235.5 456.5 235.5 458.5 235.6 460.5 C235.6 462.5 235.6 464.5 235.7 466.5 C235.8 472 235.9 477.5 236 483 C236.1 485.4 236.1 487.8 236.2 490.3 C236 496 236 496 234 505 C234 508 234 510.9 234 514 C233.7 516.7 233.3 519.4 233 522.2 C232.1 531.4 231.9 540.3 232 549.6 C232 554 232 554 231 556 C234.1 556.4 234.1 556.4 235 554 C235.3 554 235.7 554 236 554 C235.7 551.4 235.3 548.7 235 546 C235.4 539.6 236.3 533.3 237 527 C237.3 527 237.7 527 238 527 C238 536.6 238 546.1 238 556 C245.1 555.9 245.1 555.9 252.4 555.9 C273 555.9 293.5 556.7 314 559 C314 559.3 314 559.7 314 560 C210.4 560 106.8 560 0 560 C0 375.2 0 190.4 0 0 Z " fill="#756F6B" transform="translate(0,0)"/>
<path d="M0 0 C2 1 2 1 3.2 7.4 C4.7 13.8 6.5 19 9 25 C12 33.7 14.8 42.4 17.4 51.2 C20.5 61.7 24.2 71.8 28 82 C26.4 73.8 23.7 66 21 58 C19.5 53.5 19.5 53.5 18 49 C17 46.2 16.1 43.3 15.1 40.4 C14 37.2 13 34 11.9 30.8 C11.3 29.1 10.8 27.5 10.2 25.8 C6.1 13.6 6.1 13.6 5 8 C11.7 9.7 14.9 15.2 19.4 20.1 C26.2 27.5 32.9 33.9 41 40 C41 40.7 41 41.3 41 42 C42.6 42.7 44.3 43.3 46 44 C47.9 45.3 49.8 46.6 51.8 48 C66.2 56.8 81.7 62.7 98 67 C101.6 68.1 105.1 69.2 108.7 70.4 C143.4 81 178.7 89 211 68 C213.8 66.3 213.8 66.3 216.8 64.6 C218.9 63.3 218.9 63.3 221 62 C223 64 223 64 223 67 C222 67.5 222 67.5 221 68 C220.9 73.3 220.9 78.7 220.9 84 C220.9 87 220.8 89.9 220.8 93 C220.7 101.1 220.7 101.1 223 109 C224.2 123.8 224.2 123.8 221 128 C221 129 221 130 221 131 C220.7 133.3 220.3 135.6 220 138 C220 141 220 143.9 220 147 C219.7 147.3 219.3 147.7 219 148 C218.5 158.5 220.2 167.4 222.8 177.6 C223.5 180.4 224.2 183.2 225 186.1 C225.6 188.7 226.3 191.3 227 194 C231.4 211.1 234.1 228.1 234.1 245.7 C234.1 247.6 234.1 249.6 234.1 251.6 C234.1 253.6 234.1 255.6 234.1 257.7 C234.1 259.7 234.1 261.8 234 263.9 C234 279 234 279 232 280 C230 261.7 228.1 243.4 226.3 225.1 C226 221.6 226 221.6 225.6 218.2 C225.4 216 225.2 213.9 225 211.7 C224.8 209.7 224.6 207.8 224.4 205.8 C224 201 224 201 224 196 C223.3 196 222.7 196 222 196 C221.8 194.5 221.6 193 221.4 191.4 C221.1 189.5 220.8 187.6 220.6 185.6 C220.3 183.6 220 181.7 219.8 179.7 C219.5 175.3 219.5 175.3 218 174 C216.2 161.5 215.2 149.1 214.4 136.5 C214.2 134.6 214.1 132.7 214 130.8 C213.6 126.2 213.3 121.6 213 117 C213.1 151 213.1 151 216.9 184.8 C223.2 225.8 223 267.6 224 309 C205.8 309.1 187.6 309.1 169.5 309.1 C163.3 309.1 157.1 309.1 150.9 309.2 C142 309.2 133.1 309.2 124.2 309.2 C121.5 309.2 118.7 309.2 115.9 309.2 C99.5 309.2 83.3 308.5 67 307 C50.4 305.8 33.7 305.5 17 305 C16.7 299.7 16.3 294.4 16 289 C14.7 296.2 14.7 296.2 16 304 C14 304.3 12 304.7 10 305 C9.8 289.5 10.4 274.4 12 259 C12.2 256.6 12.4 254.2 12.6 251.8 C13 247 13 247 14 245 C14.8 216.6 13.1 188.1 11.5 159.8 C11 151.6 10.7 143.5 10.5 135.3 C10.2 124.2 9.4 113.1 8.5 102 C7.8 93.9 7.5 85.8 7.2 77.7 C7.1 72.8 7.1 72.8 6 67 C5.7 62.5 5.4 58 5.2 53.4 C4.3 40.2 2.8 27.2 0.8 14.1 C0 8 0 8 0 0 Z " fill="#8C8883" transform="translate(221,251)"/>
<path d="M0 0 C35.6 0 71.3 0 108 0 C108.2 116.2 108.2 116.2 107.6 161.8 C107.5 164.7 107.5 167.6 107.4 170.7 C107.2 184.9 106.8 199.1 106.2 213.4 C105.8 226 105.6 238.5 105.4 251.1 C105.4 255.2 105.4 255.2 105.3 259.3 C105.2 265.9 105.1 272.4 105 279 C100.4 277.1 95.9 275 91.4 272.8 C78.3 266.6 65 261.7 51 258 C50.8 250.4 50.7 242.7 50.5 235.1 C50.5 232.9 50.4 230.7 50.4 228.5 C50.3 226.4 50.3 224.3 50.2 222.2 C50.2 220.2 50.1 218.3 50.1 216.3 C50 211.6 50 206.8 50 202 C49 189.2 47.4 176.7 45.1 164.1 C43.9 157.5 43 150.9 42.1 144.3 C38.5 120.5 31.2 98.9 21.9 76.7 C17.2 64.4 13.7 51.7 10 39 C9.3 36.6 8.6 34.1 7.9 31.6 C6.4 26.5 5.2 21.2 4 16 C3.3 14.3 2.7 12.7 2 11 C1.3 7.4 0.7 3.7 0 0 Z " fill="#9E9C94" transform="translate(451,0)"/>
<path d="M0 0 C16.2 1.8 42.1 9.1 54 21 C54.1 39.9 53.8 58.8 53.6 77.8 C53.5 80.7 53.5 83.7 53.4 86.7 C53.4 91 53.4 91 53.3 95.3 C53.3 97.9 53.2 100.4 53.2 103.1 C53 109.1 52.5 115 52 121 C51.9 125.7 51.8 130.4 51.7 135 C51.7 137.7 51.6 140.5 51.6 143.3 C51.6 146.1 51.5 149 51.5 151.9 C50.7 212.5 50.7 212.5 49.5 229 C49 236.7 48.7 244.3 48.5 252 C48.4 254.8 48.3 257.5 48.2 260.4 C48.1 263.2 48 266 47.9 268.9 C47.8 271.8 47.8 274.7 47.7 277.7 C47.4 284.8 47.2 291.9 47 299 C35.8 299 24.6 299 13 299 C11.6 280.8 10.7 262.7 10.2 244.5 C9.8 228.6 9.8 228.6 7.9 212.9 C7.1 206.5 7 200.6 7.1 194.1 C7.1 184.6 6.1 176.3 4 167 C1 147.5 1 147.5 1 140 C0.3 140 -0.3 140 -1 140 C-1.5 132.9 -2 125.8 -2.4 118.7 C-2.8 113 -3.2 107.3 -3.6 101.5 C-6.4 58.2 -6.4 58.2 -3 41 C-3 39.4 -3 37.8 -3 36.2 C-3 28.8 -2.3 21.6 -1.5 14.3 C-1.1 10.3 -1.1 10.3 -0.7 6.2 C-0.4 4.1 -0.2 2.1 0 0 Z " fill="#A1A09C" transform="translate(502,261)"/>
<path d="M0 0 C119.1 0 119.1 0 122 13 C123 16.5 123 16.5 124 20 C124 21.3 124 22.6 124 24 C123 24 122 24 121 24 C122.6 33.7 125.7 42.8 128.8 52.1 C129.3 53.6 129.8 55.2 130.3 56.8 C132.9 64.6 135.5 72.4 138.3 80.1 C142 90.9 143.4 101 144.4 112.3 C145 117.7 145.8 123.1 146.6 128.4 C150.4 153.8 150.4 153.8 147 164 C145.1 179 143.6 193.9 143 209 C143.3 209 143.7 209 144 209 C144.6 219.5 142.3 228.8 140 239 C139.3 238.3 138.7 237.7 138 237 C137.7 238.8 137.4 240.7 137.1 242.6 C133.8 261.8 133.8 261.8 129 265 C127.3 269.6 125.6 274.3 124 279 C123 275 123 275 125.1 269.4 C128.3 260.1 130.5 250.9 132.6 241.4 C133.5 237.4 134.4 233.4 135.6 229.5 C137.1 222.4 137.4 216.1 137.4 208.8 C137.5 204.7 137.5 204.7 137.5 200.5 C137.5 197.6 137.4 194.7 137.4 191.7 C137.4 188.7 137.4 185.7 137.4 182.6 C137.1 138.2 134.1 96.4 117 55 C113.2 44.9 110.5 34.7 109 24 C91.4 30.9 75.3 41 60 52 C59.3 52 58.7 52 58 52 C62.8 42.4 74.8 36 83.8 30.5 C91 26.9 91 26.9 93 22 C81.7 27.5 81.7 27.5 71 34 C69.3 34.6 67.6 35.2 65.8 35.8 C58.1 38.7 51.9 43.1 46 49 C45 49 44 49 43 49 C43 48.3 43 47.7 43 47 C42.3 47 41.7 47 41 47 C41 46.3 41 45.7 41 45 C39.7 44.3 38.4 43.7 37 43 C34.4 40.4 31.8 37.7 29.3 35 C27.9 33.5 26.5 31.9 25 30.3 C23.7 28.9 22.4 27.5 21 26 C19.4 24.2 17.7 22.4 16 20.6 C10.2 14 4.9 7.3 0 0 Z " fill="#605D57" transform="translate(333,0)"/>
<path d="M0 0 C1.3 0 2.6 0 4 0 C4 1.6 4 3.1 4 4.7 C4.1 21.1 4.3 37.4 4.4 53.8 C4.4 59.8 4.5 65.9 4.5 72 C4.6 80.8 4.6 89.6 4.7 98.3 C4.7 101.1 4.7 103.8 4.7 106.6 C4.8 119.4 5.2 132.2 6 145 C6.2 153.6 6.2 162.3 6.3 170.9 C6.3 173.4 6.3 175.9 6.3 178.5 C6.4 183.8 6.4 189.1 6.4 194.5 C6.5 208.2 6.6 221.9 6.8 235.7 C6.8 238.3 6.8 241 6.8 243.8 C7 263.3 7.2 282.8 7.5 302.4 C7.5 304.6 7.6 306.8 7.6 309 C7.8 317.8 7.9 326.5 8.3 335.3 C9.3 366.7 9.1 398.2 9 429.6 C8.9 457.3 8.9 484.9 9.6 512.6 C10 527.4 10.1 542.2 10 557 C13.1 557 16.2 556.9 19.3 556.9 C31 556.8 42.6 556.7 54.3 556.6 C59.3 556.5 64.3 556.5 69.3 556.4 C102.5 556.1 135.8 555.9 169 556 C165.9 536.9 165.9 536.9 162.3 518 C160.8 510.1 160.1 502.2 159.5 494.1 C159.1 490.3 158.6 486.4 158 482.6 C156.7 474.1 156.1 465.6 155.5 457 C155.3 452.4 155.3 452.4 154 450 C153.6 445.8 153.3 441.5 152.9 437.2 C152.8 434.9 152.6 432.6 152.4 430.2 C152.1 426.1 152 422.1 152 418 C152.3 418 152.7 418 153 418 C153.3 416 153.7 414 154 412 C154.3 412 154.7 412 155 412 C155.7 417.6 156.3 423.2 156.9 428.9 C157.3 432 157.7 435.1 158 438.4 C158.7 444.6 159.2 450.8 159.5 457.1 C161.1 485.5 166.5 513.9 171 542 C171.7 546.3 172.3 550.7 173 555 C175 554.7 177 554.3 179 554 C179.7 554.3 180.3 554.7 181 555 C181.3 551 181.7 547.1 182 543 C182.3 543 182.7 543 183 543 C183 547.3 183 551.6 183 556 C187.3 556 191.6 556 196 556 C195.8 554.5 195.7 553.1 195.5 551.6 C195.3 549.7 195.1 547.8 194.9 545.8 C194.7 543.9 194.5 542 194.3 540.1 C194 535 194 535 195 530 C196 513.3 196.1 496.7 196 480 C196.3 480 196.7 480 197 480 C197.3 476.7 197.7 473.4 198 470 C198.3 470 198.7 470 199 470 C199.2 481 199.3 491.9 199.5 502.9 C199.5 506.6 199.6 510.3 199.6 514.1 C199.7 519.4 199.8 524.8 199.9 530.2 C199.9 533.4 200 536.6 200 539.9 C200 548 200 548 199 556 C204.5 555.7 204.5 555.7 205 551 C206 550.7 207 550.3 208 550 C208 552 208 554 208 556 C223.1 557.4 223.1 557.4 224 551 C225 551 226 551 227 551 C227 552.3 227 553.6 227 555 C231.9 556.6 236.9 556.2 242.1 556.2 C244.6 556.3 247 556.3 249.6 556.3 C254.8 556.4 260 556.5 265.2 556.5 C281.6 556.7 297.7 557.5 314 559 C314 559.3 314 559.7 314 560 C210.4 560 106.8 560 0 560 C0 375.2 0 190.4 0 0 Z " fill="#3C2C28" transform="translate(0,0)"/>
<path d="M0 0 C44 0 44 0 53 13 C55.2 15.9 57.4 18.9 59.6 21.8 C60.7 23.2 61.8 24.6 63 26.1 C64.5 28 64.5 28 66 30 C67.3 31.7 68.7 33.5 70.1 35.2 C76.4 43.3 82.8 49.8 91 56 C91 66.6 52.1 81.8 43 86 C36.1 82.6 34.1 74.7 31 68 C30.1 66.2 29.3 64.3 28.4 62.4 C23.7 52.3 19.2 42.2 14.8 32 C10.9 22.8 6.5 13.9 2 5 C1.3 3.3 0.7 1.7 0 0 Z " fill="#67655E" transform="translate(275,0)"/>
<path d="M0 0 C2.4 0 4.8 0 7.3 0 C10.1 0 10.1 0 12.9 0.1 C12.9 2.1 12.9 2.1 10.9 3.1 C11.4 4.1 11.4 4.1 11.9 5.1 C7.2 23.9 1.7 35 -15.1 46.1 C-15.7 47.1 -16.4 48 -17.1 49.1 C-23.4 51.2 -29.7 53.2 -36.1 55.1 C-38.7 56 -38.7 56 -41.4 56.9 C-58.5 60.4 -69.9 58.7 -84.1 48.1 C-86.7 48.1 -89.3 48.1 -92.1 48.1 C-90.1 44.1 -90.1 44.1 -87.1 42.1 C-86.7 40.4 -86.4 38.8 -86.1 37.1 C-84.5 36 -82.9 34.9 -81.3 33.8 C-79.2 32.3 -77.2 30.9 -75.1 29.4 C-73 28 -71 26.6 -68.9 25.1 C-64.2 21.9 -59.6 18.5 -55.1 15.1 C-47.1 11.1 -47.1 11.1 -41.3 9.2 C-34.9 7.2 -34.9 7.2 -28.9 3.9 C-19.5 -0.6 -10.2 -0 0 0 Z " fill="#84817A" transform="translate(430.0625,217.9375)"/>
<path d="M0 0 C0.3 0 0.7 0 1 0 C1 184.8 1 369.6 1 560 C-2.6 560 -6.3 560 -10 560 C-10.2 534.3 -9.7 508.6 -8 483 C-7 456.8 -6.7 430.5 -6.4 404.3 C-6.4 401.5 -6.3 398.8 -6.3 396 C-6.3 393.6 -6.2 391.2 -6.2 388.6 C-6.1 384.6 -5.9 380.6 -5.5 376.5 C-4.9 369.8 -4.8 363.1 -4.7 356.3 C-4.6 352 -4.6 352 -4.6 347.7 C-4.5 344.7 -4.5 341.8 -4.4 338.8 C-4.4 335.8 -4.4 332.9 -4.3 329.9 C-3.6 280.6 -12.6 272.7 -60 260 C-60.5 258.5 -60.5 258.5 -61 257 C-41 259.2 -20.2 268.7 -3 279 C-3 277.3 -3 275.7 -3 274 C-3 266.4 -3 258.7 -3.1 251.1 C-3.1 247.2 -3.1 247.2 -3.1 243.3 C-3.1 229 -2.9 214.9 -2.3 200.7 C-1.8 187.7 -1.7 174.7 -1.5 161.8 C-1.4 157 -1.4 157 -1.4 152.2 C-0.8 101.5 -0.4 50.7 0 0 Z " fill="#353331" transform="translate(559,0)"/>
<path d="M0 0 C1.3 0 2.6 0 4 0 C3 4 3 4 2 5 C2 7.3 2 9.6 2 12 C2.3 12 2.7 12 3 12 C2.9 15.4 2.9 18.8 2.8 22.2 C2.7 24.1 2.7 26 2.6 27.9 C1.1 40.2 -13.2 50 -24 54 C-44 54 -44 54 -49 49 C-51.3 49 -53.6 49 -56 49 C-62.5 42.5 -52.6 30.8 -49 25 C-43 17 -43 17 -41 17 C-40.3 15.7 -39.7 14.4 -39 13 C-26.9 1.1 -16.8 -3.4 0 0 Z " fill="#8B8780" transform="translate(441,56)"/>
<path d="M0 0 C3 1 3 1 8 18 C8.3 16 8.7 14 9 12 C11 15 11 15 12 23 C12.7 24 13.3 25 14 26 C14.1 30.3 14.1 34.7 14 39 C11.2 39 11.7 33.8 11 31 C10.5 33.5 10.5 33.5 10 36 C9 36 9 36 8 31 C7.6 28.8 7.1 26.7 6.7 24.4 C6 21.2 6 21.2 5.4 17.9 C4.1 11.7 4.1 11.7 1 5 C1.4 11.9 1.8 18.8 2.9 25.6 C4.2 32.9 4.8 40.2 5.5 47.6 C6 52.5 6.5 57.4 7.1 62.4 C7.8 69.5 8.2 76.4 8.5 83.5 C9 96.5 9.8 109.3 13 122 C15.2 137.6 16.5 153.3 17.6 169 C17.7 173.6 17.7 173.6 19 176 C19.5 180.9 20 185.8 20.4 190.7 C21.4 201.2 22.6 211.6 24 222 C24.2 224.8 24.5 227.6 24.8 230.5 C25.9 242.2 28.4 253.6 30.8 265.1 C32 272 32 272 32 280 C28 280 24.1 280 20 280 C19.9 278.3 19.8 276.7 19.7 275 C17.3 236.7 17.3 236.7 12 198.8 C10.8 191.9 10.2 185.1 9.7 178.3 C9.1 173.1 8.3 167.9 7.4 162.8 C5.4 148.4 5.7 134.1 5.8 119.7 C5.8 115.5 5.8 115.5 5.9 111.3 C5.9 104.5 5.9 97.8 6 91 C5.9 92.6 5.7 94.3 5.6 95.9 C5 101 5 101 4 102 C3.8 105.1 3.8 105.1 3.6 108.3 C3 115 3 115 1 118 C0.3 118 -0.3 118 -1 118 C-1 108.8 -1 99.5 -1 90 C-0.7 90 -0.3 90 0 90 C0 93 0 95.9 0 99 C0.7 99 1.3 99 2 99 C2.4 82.1 1.1 66 -1 49.3 C-2.3 38.8 -2.7 28.5 -3 18 C-2.7 18 -2.3 18 -2 18 C-2 16 -2.1 13.9 -2.1 11.8 C-2 5 -2 5 0 0 Z " fill="#595351" transform="translate(137,276)"/>
<path d="M0 0 C1 0.7 2 1.3 3 2 C2.7 3 2.3 4 2 5 C0.7 4.7 -0.6 4.3 -2 4 C-8.9 7.6 -14.7 11.3 -21 16 C-38.6 25.2 -55.1 27.3 -72 16 C-73 11 -73 11 -72 8 C-73 8.3 -74 8.7 -75 9 C-85 9 -85 9 -86 5 C-80 0.5 -73.2 -0.8 -66 -3 C-64.3 -3.7 -62.7 -4.4 -61 -5.1 C-39.4 -14 -18.8 -15.4 0 0 Z " fill="#938F89" transform="translate(311,134)"/>
<path d="M0 0 C2.7 5.4 3.7 11.1 5 17 C5.3 17.3 5.7 17.7 6 18 C7.9 28.6 8.8 39.2 9.6 49.9 C9.7 51.7 9.8 53.4 10 55.2 C10.6 64.3 11.2 73.5 11.5 82.6 C11.9 90.6 13.1 97.3 15 105 C15 109 15 113 15 117 C15.3 120.5 15.6 124 16 127.4 C16.8 135.3 17.1 143.1 17 151 C17.3 152 17.7 153 18 154 C18.4 158 18.7 162 19 166 C19.3 169 19.7 171.9 20 175 C22.6 175.3 22.6 175.3 23 171 C26.5 178.1 25.7 186.2 26 194 C26.3 197 26.7 199.9 27 203 C26.3 204 25.7 205 25 206 C24.1 202.9 24.1 202.9 23.2 199.8 C21.3 193.1 21.3 193.1 18 188 C17.7 186.4 17.3 184.7 17 183 C16.3 181.7 15.7 180.4 15 179 C14.3 175.2 13.6 171.3 13 167.5 C12.7 165.4 12.3 163.4 12 161.3 C11.7 159.2 11.3 157.1 11 155 C10.2 147.8 10.2 147.8 8 141 C8.7 153.4 9.6 165.8 12 178 C12.1 182.5 12.1 186.9 12.1 191.4 C12.1 194.9 12.1 194.9 12.1 198.6 C12 205 12 205 11 212 C8 212 8 212 7.1 207.2 C5.8 198.5 5 189.8 4.4 181 C4.2 179.3 4.1 177.5 4 175.8 C1.9 147.4 1.9 147.4 4 135 C3.4 131.7 2.7 128.3 2 125 C0.7 113.3 -0.1 101.7 0 90 C-0.3 87.4 -0.7 84.7 -1 82 C-2 82.5 -2 82.5 -3 83 C-3 67.5 -3 52 -3 36 C-2.7 36 -2.3 36 -2 36 C-1.9 38.4 -1.8 40.8 -1.6 43.2 C-1.5 46.3 -1.3 49.5 -1.1 52.7 C-1 55.8 -0.8 58.9 -0.6 62.1 C-0.1 69.5 0.8 76.6 2 84 C2.9 92.1 3.8 100.3 4.6 108.4 C4.6 115.8 4.6 115.8 7 122 C7.2 114 6.9 106.3 6.1 98.3 C4.4 82.1 3.9 65.8 3.2 49.6 C2.6 36.1 1.4 23.2 -1 10 C-1 3 -1 3 0 0 Z " fill="#494441" transform="translate(209,270)"/>
<path d="M0 0 C21.2 0 20.8 9.2 29 26.5 C35.8 40.8 43 55 50.4 69 C51.2 70.6 52.1 72.3 53 74 C53.9 75.8 54.9 77.5 55.8 79.3 C58 84 58 84 58 89 C44 96 44 96 40 95 C34 82.4 29 69.4 24.2 56.3 C17.7 39.3 10.3 22.6 2.1 6.3 C0 2 0 2 0 0 Z " fill="#5C5B55" transform="translate(254,0)"/>
<path d="M0 0 C3 1 3 1 3 5.7 C3 7.8 2.9 9.8 2.9 11.9 C2.9 14 2.9 16 2.9 18.1 C2.9 24.5 2.9 24.5 4 33 C5 33 6 33 7 33 C6.7 37 6.3 40.9 6 45 C6.7 44 7.3 43 8 42 C8.7 42 9.3 42 10 42 C9.5 40 9.5 40 9 38 C9.9 30.9 11.2 25.6 14 19 C20 27 16.6 37.7 15 47 C13 47.5 13 47.5 11 48 C10.3 52.3 9.7 56.6 9 61 C8 61 7 61 6 61 C6 63.3 6 65.6 6 68 C5.3 70.3 4.7 72.6 4 75 C3.6 77.3 3.6 77.3 3.2 79.7 C1.5 88.5 -1.1 97 -3.8 105.6 C-4.5 108.2 -4.5 108.2 -5.3 110.8 C-19.3 157.1 -19.3 157.1 -25 159 C-25 151.8 -23.3 146.8 -20.9 140.1 C-18.7 134.2 -16.7 128.3 -14.6 122.4 C-13.6 119.4 -13.6 119.4 -12.5 116.3 C-9.7 108.9 -9.7 108.9 -13 103 C-13.4 105.3 -13.4 105.3 -13.7 107.7 C-15.1 114.3 -17 120.2 -19.4 126.5 C-20.1 128.6 -20.9 130.7 -21.7 132.8 C-22.5 134.9 -23.2 136.9 -24 139 C-25.3 142.7 -26.7 146.3 -28 150 C-28.7 150 -29.3 150 -30 150 C-29 144 -29 144 -26.5 136.8 C-19.9 117.3 -15 97.2 -11 77 C-10.5 75.2 -10 73.3 -9.4 71.5 C-4.5 52.8 -3.6 32.8 -2.5 13.6 C-2 8 -2 8 0 0 Z " fill="#655F5B" transform="translate(48,158)"/>
<path d="M0 0 C0 3 0 3 -2 4 C-2.1 9.3 -2.1 14.7 -2.1 20 C-2.1 23 -2.2 25.9 -2.2 29 C-2.3 37.1 -2.3 37.1 0 45 C1.2 59.8 1.2 59.8 -2 64 C-2 65 -2 66 -2 67 C-2.3 69.3 -2.7 71.6 -3 74 C-3 77 -3 79.9 -3 83 C-3.5 83.5 -3.5 83.5 -4 84 C-4.5 94.5 -2.8 103.4 -0.2 113.6 C0.5 116.4 1.2 119.2 2 122.1 C2.6 124.7 3.3 127.3 4 130 C8.4 147.1 11.1 164.1 11.1 181.7 C11.1 183.6 11.1 185.6 11.1 187.6 C11.1 189.6 11.1 191.6 11.1 193.7 C11.1 195.7 11.1 197.8 11 199.9 C11 215 11 215 9 216 C7 197.7 5.1 179.4 3.3 161.1 C3.1 158.8 2.9 156.5 2.6 154.2 C2.4 152 2.2 149.9 2 147.7 C1.8 145.7 1.6 143.8 1.4 141.8 C1 137 1 137 1 132 C0.3 132 -0.3 132 -1 132 C-1.2 130.5 -1.4 129 -1.6 127.4 C-1.9 125.5 -2.2 123.6 -2.4 121.6 C-2.8 118.7 -2.8 118.7 -3.2 115.7 C-3.5 111.3 -3.5 111.3 -5 110 C-6.8 97.5 -7.8 85.1 -8.6 72.5 C-8.8 70.6 -8.9 68.7 -9 66.8 C-9.4 62.2 -9.7 57.6 -10 53 C-10 64.2 -10 75.4 -10 87 C-10.3 87 -10.7 87 -11 87 C-11.2 84.5 -11.4 82.1 -11.6 79.5 C-11.8 76.2 -12.1 72.9 -12.4 69.6 C-12.6 66.3 -12.9 63.1 -13.1 59.8 C-13.7 53.5 -14.3 47.2 -15.1 41 C-18.2 14.1 -18.2 14.1 -14 12 C-13.7 12.7 -13.3 13.3 -13 14 C-8.4 9.4 -5.6 0 0 0 Z " fill="#595857" transform="translate(444,315)"/>
<path d="M0 0 C0.3 0 0.7 0 1 0 C1.3 3.3 1.7 6.6 2 10 C4.2 10.3 4.2 10.3 5 8 C7.6 10.6 8.4 22 9 25 C10.2 37 10.2 37 15 47 C15 48.9 14.9 50.7 14.9 52.6 C15 59.9 15.8 66.7 16.9 73.9 C19.3 92.3 20.3 110.5 21 129 C21.1 131.2 21.2 133.4 21.3 135.7 C23.1 179.9 23.1 179.9 20 183 C19 182 19 182 19 175 C19.7 175 20.3 175 21 175 C20.8 172.3 20.8 172.3 20.6 169.4 C20 161 19.7 152.6 19.4 144.1 C19.5 93.1 19.5 93.1 9 44 C8.8 51.9 8.8 51.9 10.3 59 C12.9 72.9 13.8 87 15 101 C15.2 102.9 15.3 104.7 15.5 106.7 C16.1 112.8 16.6 119 17.1 125.2 C17.2 127.4 17.4 129.6 17.6 131.9 C18 137 18 137 16 138 C15.7 140.3 15.3 142.6 15 145 C14.7 145 14.3 145 14 145 C13.7 141.9 13.5 138.8 13.2 135.6 C12.6 129 11.8 122.6 10.6 116.1 C8.7 105.4 7.8 94.8 6.8 84 C6 76.5 5.3 69.1 4.4 61.6 C4.2 59.6 4 57.6 3.7 55.5 C3.1 50.6 2.1 45.8 1 41 C-0.9 28.3 -1.6 15.8 -2 3 C-1.3 3 -0.7 3 0 3 C0 2 0 1 0 0 Z " fill="#3E3A38" transform="translate(156,358)"/>
<path d="M0 0 C4.7 0 8.8 17.1 10.5 21.4 C11.3 23.4 12 25.3 12.8 27.2 C20.7 47.9 28 69.7 28 92 C30.6 92 33.3 92 36 92 C36.3 93.3 36.7 94.6 37 96 C34.7 96.3 32.3 96.6 29.9 96.9 C25 97.6 20 98.3 15 99 C15 99.7 15 100.3 15 101 C13.5 101.5 11.9 102 10.3 102.6 C1.7 105.9 -6.1 110.3 -14 115 C-14.7 114.7 -15.3 114.3 -16 114 C-14 113 -14 113 -12 112 C-12.5 110.4 -13 108.7 -13.5 107.1 C-16.5 95 -16.5 95 -14 90 C-14 86.7 -14 83.4 -14 80 C-14.3 80 -14.7 80 -15 80 C-15.3 74.7 -15.7 69.4 -16 64 C-13 64 -13 64 -12 68 C-11.7 75.8 -11.6 83.6 -11.4 91.4 C-11.1 97.5 -10.4 103 -9 109 C5.6 103.4 5.6 103.4 7 98 C10 97.5 10 97.5 13 97 C13 96.3 13 95.7 13 95 C14.5 94.5 14.5 94.5 16 94 C15.8 79.1 13.7 65.4 10.5 50.9 C9.5 46.4 8.7 41.9 8 37.4 C7 31 5.6 24.9 3.9 18.6 C2.3 12.4 0.9 6.4 0 0 Z " fill="#5A5751" transform="translate(248,0)"/>
<path d="M0 0 C0 44.6 0 89.1 0 135 C-3.6 135 -7.3 135 -11 135 C-11.2 114.3 -10.6 93.7 -10 73 C-9.7 73 -9.3 73 -9 73 C-8.7 76 -8.3 78.9 -8 82 C-7.7 82 -7.3 82 -7 82 C-6.9 80.6 -6.8 79.2 -6.7 77.7 C-6.4 71.4 -6 65.1 -5.6 58.8 C-5.4 56.5 -5.3 54.3 -5.2 52.1 C-5 50 -4.9 47.8 -4.8 45.7 C-4.6 43.7 -4.5 41.8 -4.4 39.8 C-4 35 -4 35 -3 31 C-2.8 25.9 -2.6 20.8 -2.4 15.8 C-2.4 13 -2.3 10.3 -2.2 7.4 C-2.1 4.2 -2.1 4.2 -2 1 C-1 0 -1 0 0 0 Z " fill="#535454" transform="translate(560,425)"/>
<path d="M0 0 C14.8 14.8 14.3 57.4 17 77 C17.4 79.5 17.7 81.9 18.1 84.5 C19.7 96.2 20.5 107.2 19 119 C18.7 119 18.3 119 18 119 C17.7 117 17.4 115.1 17.1 113.1 C16 105.9 14.8 99.1 12.2 92.3 C5.3 72.4 2.2 51 -0.2 30.2 C-0.5 27.2 -0.9 24.2 -1.2 21.2 C-1.8 14.7 -2.2 8.5 -2 2 C-1.3 2 -0.7 2 0 2 C0 1.3 0 0.7 0 0 Z " fill="#55524B" transform="translate(482,100)"/>
<path d="M0 0 C1.5 6.7 2.5 12.9 3.2 19.7 C4.7 31.5 7.6 42.6 11 54 C12 57.5 12.9 60.9 13.9 64.4 C14.6 66.9 15.3 69.4 16 72 C19 71 21.9 70 25 69 C33 67 33 67 42 68 C41 71 41 71 36 72 C25.5 74.4 25.5 74.4 15 77 C13.5 72.5 13.5 72.5 12 68 C11 65.4 10 62.7 9 60 C7.2 53.7 5.6 47.3 4 41 C4 56.5 5.3 71.8 7 87.2 C8.1 97.6 8.6 108 9.1 118.5 C9.2 120.2 9.3 122 9.4 123.7 C9.8 132.5 10.1 141.2 10 150 C9.7 150 9.3 150 9 150 C8.7 147.4 8.3 144.7 8 142 C7.3 148.8 7 155.2 7 162 C6.7 162 6.3 162 6 162 C5.7 159.4 5.3 156.7 5 154 C4.3 164.9 3.7 175.8 3 187 C2.7 187 2.3 187 2 187 C2 129 2 129 4 127 C4.3 132.3 4.7 137.6 5 143 C5 139.9 5.1 136.7 5.1 133.5 C5.2 130.9 5.2 130.9 5.2 128.2 C5.2 122.5 5.2 122.5 3 115 C2.8 108.9 2.6 102.8 2.6 96.7 C2.3 79.5 1.5 62.4 0.5 45.3 C0.4 43.1 0.2 40.9 0.1 38.6 C-0.4 30.7 -0.9 22.9 -2 15 C-2.1 0 -2.1 0 0 0 Z " fill="#77726F" transform="translate(236,338)"/>
<path d="M0 0 C1.3 0 2.6 0 4 0 C3 4 3 4 2 5 C1.6 7.4 1.1 9.7 0.7 12.2 C-3.7 32.4 -22.4 42.5 -42 42 C-44.3 40 -46.6 38 -49 36 C-46 36 -46 36 -40 40 C-19.7 37.5 -6.2 27.5 -3 7 C-7.8 7.2 -7.8 7.2 -12.6 7.4 C-14.4 7.5 -16.2 7.6 -18 7.7 C-23.2 7.9 -23.2 7.9 -29 9 C-28 11.3 -27 13.6 -26 16 C-26 25 -26 25 -28 31 C-28.7 31 -29.3 31 -30 31 C-29.7 29.3 -29.3 27.7 -29 26 C-28.5 19.3 -28.5 19.3 -31 15 C-33.8 16 -33.8 16 -32.8 21.2 C-33 27 -33 27 -37 32 C-36 32 -35 32 -34 32 C-35 35 -35 35 -42 35 C-44.3 33 -46.6 31 -49 29 C-49.5 31.5 -49.5 31.5 -50 34 C-51 35 -52 36 -53 37 C-53.7 39.6 -54.3 42.3 -55 45 C-53.7 45.3 -52.4 45.7 -51 46 C-51.3 47 -51.7 48 -52 49 C-57 48 -57 48 -58 43 C-55.9 37.3 -48 17 -41 17 C-40.3 15.7 -39.7 14.4 -39 13 C-26.9 1.1 -16.8 -3.4 0 0 Z " fill="#35342F" transform="translate(441,56)"/>
<path d="M0 0 C6 8 2.6 18.7 1 28 C-0.3 28.3 -1.6 28.7 -3 29 C-3.7 33.3 -4.3 37.6 -5 42 C-6 42 -7 42 -8 42 C-8 44.3 -8 46.6 -8 49 C-8.7 51.3 -9.3 53.6 -10 56 C-10.3 57.6 -10.5 59.1 -10.8 60.7 C-12.5 69.5 -15.1 78 -17.8 86.6 C-18.5 89.2 -18.5 89.2 -19.3 91.8 C-33.3 138.1 -33.3 138.1 -39 140 C-39 129.6 -34.7 120.6 -31.1 111 C-22.2 85.7 -17.5 59.2 -12 33 C-11.3 33 -10.7 33 -10 33 C-9 29.5 -9 29.5 -8 26 C-6 23 -6 23 -4 23 C-4.5 21 -4.5 21 -5 19 C-4.1 11.9 -2.8 6.6 0 0 Z " fill="#484241" transform="translate(62,177)"/>
<path d="M0 0 C1 0.7 2 1.3 3 2 C2.7 3 2.3 4 2 5 C0.7 4.7 -0.6 4.3 -2 4 C-8.9 7.6 -14.7 11.3 -21 16 C-38.6 25.2 -55.1 27.3 -72 16 C-71.7 14.7 -71.3 13.4 -71 12 C-68.4 14 -65.7 16 -63 18 C-43.3 22.9 -30.3 18.9 -14 8 C-8 4 -8 4 -3 3 C-14.9 -8.9 -27.2 -10 -43 -6 C-43.3 -3.8 -43.3 -3.8 -41 -3 C-38 -2.7 -35.1 -2.3 -32 -2 C-35.5 6.6 -36 6 -46 6 C-51 2 -51 2 -50 -4 C-51.4 -3.3 -52.8 -2.6 -54.2 -1.9 C-56.1 -0.9 -58 0 -60 1 C-62.1 2.1 -64.2 3.2 -66.4 4.3 C-72 7 -72 7 -75 7 C-75 7.7 -75 8.3 -75 9 C-85 9 -85 9 -86 5 C-80 0.5 -73.2 -0.8 -66 -3 C-64.3 -3.7 -62.7 -4.4 -61 -5.1 C-39.4 -14 -18.8 -15.4 0 0 Z " fill="#292723" transform="translate(311,134)"/>
<path d="M0 0 C18 0 16.7 2 26.7 14.6 C37.4 28.2 37.4 28.2 49 41 C49 41.7 49 42.3 49 43 C48 43 47 43 46 43 C46 42.3 46 41.7 46 41 C45 41 44 41 43 41 C43 42.6 43 44.3 43 46 C34.7 42.7 29.7 35.6 24 29 C22 26.9 20.1 24.8 18.1 22.6 C11.4 15.4 5.4 8.2 0 0 Z " fill="#575550" transform="translate(333,0)"/>
<path d="M0 0 C2.7 5.4 3.7 11.1 5 17 C5.3 17.3 5.7 17.7 6 18 C7.9 28.6 8.8 39.2 9.6 49.9 C9.7 51.7 9.8 53.4 10 55.2 C10.9 67.4 11.5 79.7 12 92 C12.2 93.7 12.3 95.3 12.5 97 C13.2 104.3 13.1 111.6 13 119 C8.4 119 8.7 111.3 8 107.8 C5.3 90.9 4.1 74.1 3.4 57 C2.8 41.1 1.9 25.7 -1 10 C-1 3 -1 3 0 0 Z " fill="#33302E" transform="translate(209,270)"/>
<path d="M0 0 C-7.7 5.8 -15.6 9.9 -24.3 13.9 C-26.8 15.1 -29.2 16.2 -31.7 17.4 C-42.4 21.8 -43.5 19.6 -50 11 C-50 9 -50 9 -44.5 6.8 C-39.6 4.7 -34.8 2.4 -30 0 C-5.6 -5.6 -5.6 -5.6 0 0 Z " fill="#8A867F" transform="translate(436,221)"/>
<path d="M0 0 C7.5 7.5 8.5 25.2 10.4 35.2 C11.7 41.5 13.3 47.5 15.1 53.7 C23.4 82.2 23.4 82.2 14 90 C10.3 81.3 9.3 72.6 8.1 63.2 C7.5 59.5 7 55.7 6.5 51.9 C6.2 50 6 48.2 5.7 46.3 C4.8 39.3 3.7 32.2 2.7 25.2 C2.4 23.2 2.1 21.1 1.8 19 C1.2 15.3 0.6 11.7 0 8 C0 5.4 0 2.7 0 0 Z " fill="#585651" transform="translate(193,42)"/>
<path d="M0 0 C0.3 0 0.7 0 1 0 C1 25.3 1 50.6 1.1 75.9 C1.1 87.7 1.1 99.4 1.1 111.2 C1.2 278.7 1.2 278.7 -4 280 C-3.9 270.5 -3.7 261.1 -3.6 251.6 C-3.5 249 -3.5 246.3 -3.4 243.6 C-3.2 231.4 -3 219.2 -2.5 207 C-1.9 191.9 -1.7 176.9 -1.5 161.8 C-1.4 157 -1.4 157 -1.4 152.2 C-0.8 101.5 -0.4 50.7 0 0 Z " fill="#595853" transform="translate(559,0)"/>
<path d="M0 0 C12.7 0 13.4 10.7 16.9 21.8 C19.8 30.5 23 38.7 27 47 C29 52 31 57 33 62 C34.5 65.6 34.5 65.6 35.9 69.2 C38 75 38 75 37 79 C32.5 71.8 28.8 64.6 25 57 C24 55.7 23 54.4 22 53 C20.3 49 18.6 45 17 41 C14.6 35.4 12.3 29.7 9.9 24.1 C8 19.8 8 19.8 6.2 15.4 C4.2 10.9 2.2 6.4 0 2 C0 1.3 0 0.7 0 0 Z " fill="#8C8981" transform="translate(258,0)"/>
<path d="M0 0 C1.3 0.7 2.6 1.3 4 2 C0.2 13.3 -3.7 24.3 -9 35 C-8.3 35.3 -7.7 35.7 -7 36 C-8.2 37.9 -9.4 39.8 -10.7 41.8 C-15.4 49.7 -19.1 57.3 -22 66 C-24 64 -24 64 -24 57 C-23.7 57 -23.3 57 -23 57 C-22.9 54.9 -22.8 52.7 -22.7 50.5 C-21.8 40.8 -18.1 32.9 -14.3 24 C-13.5 22.1 -12.7 20.2 -11.9 18.3 C-11.2 16.9 -10.6 15.5 -10 14 C-9.7 15.3 -9.3 16.6 -9 18 C-3 15 -2.6 6.2 0 0 Z " fill="#615955" transform="translate(32,299)"/>
<path d="M0 0 C3 1 3 1 3 8 C-2.9 28.2 -10.2 47.8 -18.5 67.1 C-22.9 77.5 -24.5 85.8 -25 97 C-33.7 88.3 -27 72.4 -27 60 C-24 60 -24 60 -22 62 C-13.9 42.6 -7.2 23.1 -1 3 C-0.7 2 -0.3 1 0 0 Z " fill="#8E847D" transform="translate(35,261)"/>
<path d="M0 0 C0.3 0 0.7 0 1 0 C4.4 20.4 5.8 40.7 6.4 61.4 C6.9 73 8.3 84.4 10 96 C10.5 99.8 10.5 99.8 11.1 103.7 C12 110.4 13 117.2 14 124 C13 125 13 125 12 126 C11.5 123.9 11.1 121.8 10.6 119.6 C9.7 113.6 9.7 113.6 8 112 C8 115.3 8 118.6 8 122 C4.1 118.1 4.1 111.5 3.1 106.3 C1.5 98.3 -0.2 90.4 -2.3 82.4 C-4 76.2 -4.6 70.4 -5 64 C-5.3 62.6 -5.6 61.2 -5.9 59.7 C-7.4 52.1 -8.2 44.5 -9.1 36.8 C-9.5 33.8 -9.8 30.8 -10.2 27.7 C-10.9 20 -11.2 12.7 -11 5 C-10.7 5 -10.3 5 -10 5 C-8 24 -8 24 -8 33 C-7.3 33.3 -6.7 33.7 -6 34 C-6 36.6 -6 39.3 -6 42 C-5.3 46.7 -4.7 51.3 -4 56 C-4 58 -4 60 -4 62 C-3.3 62.3 -2.7 62.7 -2 63 C-1.9 64.7 -1.9 66.4 -1.8 68.2 C-0.9 76.5 0.8 84.3 2.8 92.4 C4.1 97.2 5 102.1 6 107 C7.4 99.8 6.9 93.5 6.1 86.2 C5.1 78.2 4.6 70.3 4.3 62.2 C3.7 51.2 2.5 40.2 1.4 29.2 C0.5 19.4 -0.2 9.8 0 0 Z " fill="#585250" transform="translate(201,161)"/>
<path d="M0 0 C8.7 17.4 10.2 39.5 10.1 58.7 C10.1 60.6 10.1 62.6 10.1 64.6 C10.1 66.6 10.1 68.6 10.1 70.7 C10.1 73.8 10.1 73.8 10 76.9 C10 92 10 92 8 93 C5.7 72.4 3.7 51.8 1.7 31.2 C1.5 29 1.3 26.9 1.1 24.7 C0.9 22.7 0.7 20.8 0.5 18.8 C0.1 13.9 0.1 13.9 -1 9 C-1 2 -1 2 0 0 Z " fill="#7D7572" transform="translate(445,438)"/>
<path d="M0 0 C4.6 0 7 18.7 8 23 C8.6 26.4 9.1 29.9 9.6 33.3 C10.8 42.9 10.8 42.9 13.1 51.9 C19 80.5 19 80.5 12 84 C11 84 10 84 9 84 C8.9 80.8 8.8 77.6 8.8 74.4 C8 56.4 5.6 38.6 2 21 C0 6.2 0 6.2 0 0 Z " fill="#A29E97" transform="translate(249,12)"/>
<path d="M0 0 C-2 1 -2 1 -4 2 C-3.9 3.7 -3.8 5.4 -3.8 7.1 C-4.1 15.2 -6.8 18 -13 23 C-22.2 23.7 -29.4 24.2 -34 15 C-34 11 -34 11 -30 9 C-28.4 10.7 -26.7 12.3 -25 14 C-15.4 14.5 -15.4 14.5 -11 7 C-14 7 -16.9 7 -20 7 C-21 6.3 -22 5.7 -23 5 C-16.5 -1.5 -8.6 -0.2 0 0 Z " fill="#76716C" transform="translate(290,125)"/>
<path d="M0 0 C0.7 1.3 1.3 2.6 2 4 C2.3 4.3 2.7 4.7 3 5 C3.7 4.3 4.3 3.7 5 3 C5.3 5 5.5 7 5.8 9 C6.8 16.3 6.8 16.3 10 24 C12.4 32 14.7 40 17 48 C17.8 50.9 18.7 53.9 19.6 56.9 C22.7 68.5 25.5 80.2 28 92 C28.5 94.3 29 96.6 29.5 98.9 C33.5 120 33.5 140.6 33 162 C32.7 162 32.3 162 32 162 C31.9 159.8 31.8 157.5 31.7 155.2 C29 104.6 18.3 56.7 1 9 C-1 2 -1 2 0 0 Z " fill="#7A776E" transform="translate(475,54)"/>
<path d="M0 0 C3 1 3 1 3.8 5.8 C4.9 11.7 6.2 17.6 7.5 23.5 C10 34.8 12.3 45.5 12.2 57.1 C12.2 59.2 12.2 61.2 12.2 63.3 C12.2 65.4 12.1 67.5 12.1 69.7 C12.1 71.8 12.1 74 12.1 76.2 C12 92 12 92 9 93 C8.8 90.6 8.6 88.1 8.4 85.6 C7.2 69.1 5.9 52.6 4.5 36.1 C4.3 33.5 4.1 31 3.8 28.4 C2.9 20.5 1.5 12.8 0 5 C0 3.4 0 1.7 0 0 Z " fill="#7C7673" transform="translate(487,420)"/>
<path d="M0 0 C2.8 5.7 -6.6 21 -9 27 C-10 30 -11 32.9 -12 36 C-13.6 40 -15.3 44 -17 48 C-19.9 55.2 -22.8 62.4 -25.5 69.7 C-28 76 -30.9 82 -34 88 C-36.9 79.3 -29.4 66.4 -26 58 C-24.5 53.6 -23 49.1 -21.4 44.7 C-17.5 33.7 -13 23.6 -7.3 13.4 C-4.6 8.5 -4.6 8.5 -2 1 C-1.3 0.7 -0.7 0.3 0 0 Z " fill="#4D4644" transform="translate(58,353)"/>
<path d="M0 0 C-1.3 1 -2.6 2 -4 3 C-5 6 -6 8.9 -7 12 C-8 11.7 -9 11.3 -10 11 C-9 5 -9 5 -8 3 C-13.9 5.7 -13.9 5.7 -18 9 C-18.7 9 -19.3 9 -20 9 C-21.9 12.7 -23.4 16.6 -24.9 20.4 C-28 28.1 -30.2 32.2 -36 38 C-35.7 36.7 -35.3 35.4 -35 34 C-34.7 32.4 -34.3 30.7 -34 29 C-49.8 29 -65.7 29 -82 29 C-82 28 -82 28 -75 26 C-65.5 25.6 -56 25.5 -46.5 25.3 C-33.7 25.3 -33.7 25.3 -27 15 C-19.5 3.3 -14.1 -0.7 0 0 Z " fill="#75716B" transform="translate(394,333)"/>
<path d="M0 0 C0 9.9 -45.2 26.7 -54 30 C-58.8 32.1 -63.5 34.2 -68.2 36.5 C-77.8 40.6 -87.7 43.1 -98 45 C-98.3 45.7 -98.7 46.3 -99 47 C-102 47.5 -102 47.5 -105 48 C-101.6 41.2 -97.5 40.9 -90.2 39.2 C-75.1 35.6 -61.4 29.5 -47.3 22.9 C-43.1 21 -38.9 19.1 -34.6 17.2 C-25.1 12.9 -9.4 0 0 0 Z " fill="#282723" transform="translate(443,218)"/>
<path d="M0 0 C1 0 2 0 3 0 C3 34.6 3 69.3 3 105 C-30.2 93.9 0 35 0 0 Z " fill="#20100E" transform="translate(0,0)"/>
<path d="M0 0 C4.8 2.4 -0.3 10.1 -1.5 14.4 C-5.6 27.2 -13.9 34.7 -25 42 C-25.7 43 -26.3 44 -27 45 C-33.3 47.1 -39.6 49.1 -46 51 C-48.7 51.9 -48.7 51.9 -51.4 52.9 C-69.4 56.5 -81.1 53.8 -96 43 C-95 40 -95 40 -89 39 C-90.5 39.5 -90.5 39.5 -92 40 C-87.7 52.9 -68.4 51.2 -58 50 C-34.1 44.8 -10.4 35.5 -3.1 10.5 C-2.5 8.5 -1.9 6.6 -1.3 4.5 C-0.9 3 -0.4 1.5 0 0 Z " fill="#5D5A53" transform="translate(440,222)"/>
<path d="M0 0 C3.2 6.4 2.7 13 3 20 C3.7 20 4.3 20 5 20 C6.7 28.7 7.2 36.9 7.2 45.8 C7.2 48.1 7.2 50.4 7.2 52.8 C7 59 7 59 6 66 C3 66 3 66 2.1 60.7 C0.6 51.3 -0.1 42.1 -0.1 32.5 C-0.1 29.7 -0.1 29.7 -0.1 26.7 C-0.1 24.8 -0.1 22.8 -0.1 20.8 C-0.1 18.8 -0.1 16.8 -0 14.7 C-0 9.8 -0 4.9 0 0 Z " fill="#544E4A" transform="translate(214,416)"/>
<path d="M0 0 C9.2 1.8 12.5 10.5 17 18 C21.1 23.7 25 29 30 34 C33.4 39.3 36.7 44.6 40 50 C45 57.7 50.2 64.9 56 72 C53 75 53 75 51 74 C51.5 72 51.5 72 52 70 C50.7 69.3 49.4 68.7 48 68 C37.9 55.8 29.3 42.7 20.9 29.3 C16.3 21.9 11.4 14.9 6 8 C4 5.4 2 2.7 0 0 Z " fill="#494843" transform="translate(287,0)"/>
<path d="M0 0 C1 14 1 14 0 15 C-1.2 31.7 -1 48.1 0 64.8 C0.6 74.2 1.1 83.6 1 93 C-6.9 89 -5.8 62.8 -6 55 C-5.5 54.5 -5.5 54.5 -5 54 C-5 51.8 -5 49.7 -5.1 47.5 C-5 39.5 -4.7 31.6 -4.1 23.6 C-3.9 19.8 -3.9 19.8 -3.6 15.9 C-2.2 0 -2.2 0 0 0 Z " fill="#7D7A76" transform="translate(499,292)"/>
<path d="M0 0 C0.7 0 1.3 0 2 0 C3 5.8 3.2 9.4 1.1 15 C-1.7 23 -1.7 30.6 -2 39 C-9 45.6 -16.1 51.5 -24 57 C-26.5 58.8 -26.5 58.8 -29.1 60.6 C-43.2 70.3 -43.2 70.3 -47 69 C-42.2 64.2 -37.5 60.8 -32 57 C-29.2 54.9 -29.2 54.9 -26.2 52.7 C-21.7 49.3 -17.1 46 -12.4 42.8 C-4.5 36.9 -4.1 34.6 -3.6 24.9 C-3 17.4 -1.5 11.2 1 4 C0 4.3 -1 4.7 -2 5 C-2 4 -2 3 -2 2 C-1.3 2 -0.7 2 0 2 C0 1.3 0 0.7 0 0 Z " fill="#918C87" transform="translate(133,392)"/>
<path d="M0 0 C4.8 14.4 -4.2 39.4 -11 52 C-11.3 52 -11.7 52 -12 52 C-11.9 48.3 -11.8 44.7 -11.7 41 C-11.6 39 -11.6 36.9 -11.5 34.8 C-11 29 -11 29 -8 21 C-7.6 17 -7.3 13 -7 9 C-5 2 -5 2 -4 2 C-3.7 3.6 -3.3 5.3 -3 7 C-2 4.7 -1 2.4 0 0 Z " fill="#5D5957" transform="translate(125,338)"/>
<path d="M0 0 C0.3 0 0.7 0 1 0 C1.3 1.8 1.5 3.5 1.8 5.3 C3.9 20.4 3.9 20.4 6.8 35.2 C8.1 43.9 8.1 52 8 60.6 C8 66.9 8.9 72.8 10 79 C11.6 100.6 12.1 122.3 12 144 C11.7 144 11.3 144 11 144 C9.3 127.5 7.9 111.1 8.1 94.4 C8.2 79 8.2 79 5 64 C4.8 59.1 4.5 54.1 4.3 49.2 C3.9 42.7 3 36.4 2 30 C0.9 20 0 10.1 0 0 Z " fill="#726F6D" transform="translate(502,401)"/>
</svg>
