<?xml version="1.0" standalone="no"?>
<!DOCTYPE svg PUBLIC "-//W3C//DTD SVG 20010904//EN"
 "http://www.w3.org/TR/2001/REC-SVG-20010904/DTD/svg10.dtd">
<svg version="1.0" xmlns="http://www.w3.org/2000/svg"
 width="612.000000pt" height="612.000000pt" viewBox="0 0 612.000000 612.000000"
 preserveAspectRatio="xMidYMid meet">
<metadata>
Created by potrace 1.16, written by Peter Selinger 2001-2019
</metadata>
<g transform="translate(0.000000,612.000000) scale(0.100000,-0.100000)"
fill="#000000" stroke="none">
<path d="M2192 4799 c-380 -49 -704 -318 -826 -684 -57 -168 -56 -161 -54
-1536 l3 -1264 1264 -3 c1375 -2 1367 -3 1536 53 301 101 539 339 640 640 56
169 55 161 53 1536 l-3 1264 -1275 1 c-701 1 -1303 -2 -1338 -7z m2606 -1249
c3 -1291 1 -1356 -38 -1498 -29 -101 -113 -259 -188 -353 -116 -144 -298 -271
-472 -329 -153 -50 -165 -50 -1516 -48 l-1259 3 -3 1259 c-2 1351 -2 1363 48
1516 34 102 104 229 178 321 154 193 408 337 645 368 34 5 634 8 1332 7 l1270
-1 3 -1245z M2275 4630 c-250 -24 -457 -133 -605 -318 -65 -82 -130 -201 -129
-236 0 -12 5 -5 13 19 14 47 68 134 135 219 93 119 281 240 436 282 33 8 102
18 153 21 50 3 92 10 92 14 0 5 -3 8 -7 8 -5 -1 -44 -5 -88 -9z M3020 4630
l-255 -5 -100 -42 c-346 -143 -472 -197 -568 -242 -135 -64 -392 -201 -477
-256 -36 -22 -72 -44 -81 -47 -22 -9 -41 -98 -44 -218 l-3 -105 8 105 c9 125
27 199 49 208 9 3 45 25 81 47 156 100 463 255 710 360 69 29 146 62 170 73
25 11 97 41 162 66 l116 46 251 0 c161 0 251 4 251 10 0 6 -3 9 -7 8 -5 -1
-123 -5 -263 -8z M3634 4560 c-405 -144 -684 -273 -1021 -473 -184 -109 -329
-221 -484 -376 -136 -137 -203 -224 -263 -343 -237 -469 115 -825 909 -919
122 -14 421 -15 490 -1 42 9 37 10 -35 4 -367 -29 -808 41 -1060 168 -172 87
-272 180 -334 310 -28 60 -31 73 -30 165 0 114 18 178 81 288 64 113 123 187
248 313 274 276 556 453 1150 719 95 43 187 78 376 144 l176 61 389 -2 389 -3
5 -515 5 -515 3 516 c2 464 0 517 -14 523 -9 3 -190 6 -402 5 l-387 -1 -191
-68z M2320 4597 c-126 -68 -440 -272 -598 -389 -52 -38 -101 -72 -110 -76 -20
-7 -51 -43 -51 -57 0 -5 10 2 22 16 13 14 30 28 39 31 9 4 58 38 110 76 167
124 491 333 608 393 19 10 28 18 20 19 -8 0 -26 -6 -40 -13z M3050 4541 c-107
-37 -240 -86 -295 -108 -55 -22 -136 -55 -180 -73 -197 -78 -575 -277 -771
-406 -147 -96 -316 -234 -288 -234 6 0 21 12 35 26 56 60 276 213 464 322 170
99 676 342 710 342 4 0 21 7 38 15 77 35 431 159 512 178 16 4 15 5 -5 5 -14
1 -113 -30 -220 -67z M2175 4581 c-154 -45 -299 -129 -419 -242 -66 -62 -163
-185 -153 -195 2 -3 25 24 50 59 123 172 372 338 572 380 39 9 57 15 40 15
-16 1 -57 -7 -90 -17z M4586 4363 c-8 -147 -50 -541 -58 -549 -4 -3 -53 4
-110 15 -343 69 -691 76 -1038 21 -128 -21 -568 -126 -584 -140 -4 -5 88 16
205 47 540 138 943 156 1422 61 59 -11 110 -18 113 -15 15 15 76 677 62 677
-3 0 -8 -53 -12 -117z M3425 3784 c-205 -16 -627 -85 -649 -105 -6 -5 -1 -7
10 -4 343 76 541 99 859 100 385 0 656 -46 884 -151 77 -36 112 -40 44 -6
-108 55 -335 118 -538 148 -96 15 -502 26 -610 18z M2925 3680 c-120 -14 -132
-19 -25 -12 371 26 798 -41 1043 -164 172 -87 272 -176 332 -297 85 -172 43
-371 -128 -603 -64 -87 -276 -298 -385 -384 -161 -127 -502 -324 -763 -441
-74 -33 -148 -67 -166 -75 -65 -30 -233 -94 -389 -148 l-162 -56 -388 2 -389
3 -5 515 -5 515 -3 -516 c-2 -464 0 -517 14 -523 9 -3 187 -6 397 -6 l380 0
176 61 c437 152 776 311 1120 524 191 118 459 359 579 520 66 89 137 231 157
315 80 347 -194 614 -748 724 -211 43 -491 62 -642 46z M1510 2525 c0 -22 270
-114 420 -144 200 -39 280 -46 545 -45 188 0 299 5 400 18 163 20 443 73 465
88 13 8 12 9 -2 4 -49 -15 -340 -67 -463 -82 -175 -23 -611 -26 -755 -5 -218
30 -399 77 -529 137 -77 36 -81 37 -81 29z M3160 2374 c-356 -96 -571 -127
-880 -127 -228 -1 -317 8 -548 49 -79 14 -146 24 -148 21 -9 -9 -54 -439 -58
-562 l-5 -120 9 115 c14 167 56 550 62 556 3 2 66 -6 139 -20 218 -40 322 -49
544 -49 215 0 323 9 525 44 128 22 510 117 525 131 12 10 27 14 -165 -38z
M4545 2353 c-165 -152 -571 -391 -940 -553 -77 -34 -153 -68 -170 -75 -104
-46 -505 -188 -590 -208 -20 -5 -20 -5 0 -6 12 0 93 23 180 53 490 164 941
373 1275 591 150 97 335 246 304 245 -5 -1 -31 -21 -59 -47z M4617 2298 c-3
-57 -10 -124 -17 -150 -12 -45 -15 -48 -113 -106 -300 -176 -514 -280 -957
-464 -195 -81 -177 -78 -452 -78 -136 0 -248 -3 -248 -7 0 -7 56 -7 400 0
l125 2 130 53 c72 29 144 59 160 66 17 8 86 37 155 66 217 89 517 243 735 374
54 33 61 42 73 84 13 48 29 262 20 262 -3 0 -8 -46 -11 -102z M4571 2047 c-2
-32 -59 -133 -121 -215 -76 -101 -187 -192 -305 -248 -114 -55 -186 -74 -302
-81 -51 -3 -93 -9 -93 -13 0 -4 24 -5 53 -3 275 19 486 124 643 318 69 85 138
214 131 243 -4 16 -5 16 -6 -1z M4525 2023 c-134 -112 -568 -400 -745 -495
-29 -16 -30 -18 -9 -14 80 17 811 507 789 529 -3 3 -18 -6 -35 -20z M4467
1916 c-129 -176 -372 -336 -575 -380 -37 -8 -56 -15 -42 -15 14 0 48 5 75 13
158 42 316 131 439 247 64 60 163 185 154 194 -2 3 -25 -24 -51 -59z"/>
</g>
</svg>
