<?xml version="1.0" encoding="UTF-8"?>
<!-- Generator: visioncortex VTracer 0.6.5 -->
<svg version="1.1" xmlns="http://www.w3.org/2000/svg" width="200" height="200">
<path d="M0 0 C0 -0.3 0 -0.7 0 -1 C17.5 -3.5 17.5 -3.5 25 -1 C26.7 -1 28.3 -1 30 -1 C30.3 -0.8 30.3 -0.8 32 0 C33 0.2 33 0.2 38 1 C40 2 42 3 44 4 C45.7 4.3 47.3 4.7 49 5 C49.2 5.3 49.2 5.3 50 7 C51.7 7.3 53.3 7.7 55 8 C55 8.7 55 9.3 55 10 C57 10.7 59 11.3 61 12 C61 12.7 61 13.3 61 14 C61.7 14.5 61.7 14.5 65 17 C71.8 22.5 77.1 27.7 82 35 C82.7 35.7 83.3 36.3 84 37 C84 38 84 39 84 40 C85 40.3 86 40.7 87 41 C90.9 48.9 92.9 57.5 95 66 C95.3 66 95.7 66 96 66 C96 68.6 96 71.3 96 74 C96.3 74 96.7 74 97 74 C97.3 94.3 97.3 94.3 93 100 C91.6 104.3 90.3 108.7 89 113 C87.2 117.5 85.5 121.5 82 125 C80.3 127.3 78.6 129.6 77 132 C57 152 57 152 48 152 C47.7 152.7 47.3 153.3 47 154 C40 156 40 156 38 156 C38 155 38 154 38 153 C38.7 153 39.3 153 40 153 C40 146.4 40 139.8 40 133 C39.3 133.3 38.7 133.7 38 134 C38 131.4 38 128.7 38 126 C37.3 124.7 36.7 123.4 36 122 C35.3 123 34.7 124 34 125 C32 124 32 124 31 118 C30.3 118 29.7 118 29 118 C25 114 25 114 25 110 C26.7 110 28.3 110 30 110 C30.7 109.7 31.3 109.3 32 109 C34 109.7 36 110.3 38 111 C38 110.3 38 109.7 38 109 C39 109 40 109 41 109 C41 108.3 41 107.7 41 107 C41.7 107 42.3 107 43 107 C43 107.7 43 108.3 43 109 C43.7 109 44.3 109 45 109 C45 107.7 45 106.4 45 105 C45.7 105 46.3 105 47 105 C47 105.7 47 106.3 47 107 C53 105 53 105 54 103 C55 102.3 56 101.7 57 101 C57 99 57 97 57 95 C57.3 95.7 57.7 96.3 58 97 C58.2 96.5 58.2 96.5 59 94 C60.7 92.7 62.3 91.4 64 90 C64 88 64 86 64 84 C64.3 83 64.7 82 65 81 C65 79.3 65 77.7 65 76 C65.3 75.7 65.7 75.3 66 75 C66 73.3 66 71.7 66 70 C65.3 70 64.7 70 64 70 C64.3 68.3 64.7 66.7 65 65 C63.7 65 62.4 65 61 65 C61 63.7 61 62.4 61 61 C58.7 59.7 56.4 58.4 54 57 C50 51 50 51 50 47 C50.7 47 51.3 47 52 47 C52 46.3 52 45.7 52 45 C51 45 50 45 49 45 C49.3 43.4 49.7 41.7 50 40 C48.7 40 47.4 40 46 40 C46 40.7 46 41.3 46 42 C44.8 42.2 44.8 42.2 39 43 C38.7 44 38.3 45 38 46 C36.3 45 34.7 44 33 43 C33 43.7 33 44.3 33 45 C28 44 28 44 25 42 C23.5 42.2 23.5 42.2 16 43 C14 42.7 12 42.3 10 42 C9.8 42.3 9.8 42.3 9 44 C8.3 43.8 8.3 43.8 5 43 C4 43.7 3 44.3 2 45 C0.7 44.3 -0.6 43.7 -2 43 C-2.2 43.3 -2.2 43.3 -3 45 C-7 48 -7 48 -16 50 C-20 54 -20 54 -21 57 C-23 61 -23 61 -25 63 C-25.3 64.7 -25.7 66.3 -26 68 C-26.3 67.3 -26.7 66.7 -27 66 C-28 69 -28 69 -29 76 C-29.7 74.7 -30.3 73.4 -31 72 C-30.7 77.9 -30.3 83.9 -30 90 C-29.3 90 -28.7 90 -28 90 C-27 92 -26 94 -25 96 C-19 103 -19 103 -16 103 C-16 104 -16 105 -16 106 C-15.3 105.8 -15.3 105.8 -12 105 C-11 106 -10 107 -9 108 C-3 110 -3 110 5 109 C7 115 7 115 3 120 C3 121 3 122 3 123 C2.3 122.7 1.7 122.3 1 122 C-4 127 -4 127 -3 129 C-3.3 131.3 -3.7 133.6 -4 136 C-3.7 137.2 -3.7 137.2 -2 143 C-2 150 -2 150 -4 156 C-4.3 157.3 -4.7 158.6 -5 160 C-10 158 -10 158 -12 156 C-25.9 149.2 -25.9 149.2 -32 148 C-32.8 147.2 -32.8 147.2 -37 143 C-44 137 -44 137 -46 137 C-47 134.4 -48 131.7 -49 129 C-50.3 127 -51.6 125 -53 123 C-53 122.3 -53 121.7 -53 121 C-54 121 -55 121 -56 121 C-56.7 119.3 -57.3 117.7 -58 116 C-59 114.7 -60 113.4 -61 112 C-61.3 110 -61.7 108 -62 106 C-62.7 105.3 -63.3 104.7 -64 104 C-63.7 101.7 -63.3 99.4 -63 97 C-63.7 97 -64.3 97 -65 97 C-66 90 -66 90 -66 86 C-66.7 86 -67.3 86 -68 86 C-68 80.7 -68 75.4 -68 70 C-67.3 70.3 -66.7 70.7 -66 71 C-66 69.3 -66 67.7 -66 66 C-65.3 66 -64.7 66 -64 66 C-65 64.3 -66 62.7 -67 61 C-66.7 59.7 -66.3 58.4 -66 57 C-66 57.7 -66 58.3 -66 59 C-65.5 58.8 -65.5 58.8 -63 58 C-63.7 56.7 -64.3 55.4 -65 54 C-64.7 53 -64.3 52 -64 51 C-63.3 51.7 -62.7 52.3 -62 53 C-61.3 52 -60.7 51 -60 50 C-61 49.7 -62 49.3 -63 49 C-62 45 -62 45 -61 45 C-60.7 43.7 -60.3 42.4 -60 41 C-59.7 41.3 -59.3 41.7 -59 42 C-59 40.4 -59 38.7 -59 37 C-58.7 37.7 -58.3 38.3 -58 39 C-57 39 -56 39 -55 39 C-55 36.4 -55 33.7 -55 31 C-54.7 31.7 -54.3 32.3 -54 33 C-53.3 31.7 -52.7 30.4 -52 29 C-51.7 29 -51.3 29 -51 29 C-50.3 28.3 -49.7 27.7 -49 27 C-47 25.7 -45 24.4 -43 23 C-42.3 21.4 -41.7 19.7 -41 18 C-40 18.3 -39 18.7 -38 19 C-37.3 18 -36.7 17 -36 16 C-36.7 15.7 -37.3 15.3 -38 15 C-33 13 -33 13 -30 13 C-30.2 12.5 -30.2 12.5 -31 10 C-29.7 10 -28.4 10 -27 10 C-26 9.7 -25 9.3 -24 9 C-24.7 8.3 -25.3 7.7 -26 7 C-21 5 -21 5 -20 6 C-18.7 5.3 -17.4 4.7 -16 4 C-14.7 3.7 -13.4 3.3 -12 3 C-12.2 2.7 -12.2 2.7 -13 1 C-11 1.7 -9 2.3 -7 3 C-7 1.7 -7 0.4 -7 -1 C-4.4 -2.3 -2.2 -2.2 0 0 Z M-29 10 C-28 12 -28 12 -28 12 Z M-19 34 C-18.5 34.3 -18.5 34.3 -16 36 C-16 35.3 -16 34.7 -16 34 C-17 34 -18 34 -19 34 Z M-12 36 C-11 38 -11 38 -11 38 Z M57 36 C58 38 58 38 58 38 Z M-24 37 C-24 41.6 -24 46.2 -24 51 C-23.7 51 -23.3 51 -23 51 C-23 46.4 -23 41.8 -23 37 C-23.3 37 -23.7 37 -24 37 Z M45 37 C46 40 46 40 46 40 Z M47 37 C48 39 48 39 48 39 Z M-8 38 C-7.7 39.3 -7.3 40.6 -7 42 C-6.3 41.3 -5.7 40.7 -5 40 C-6 39.3 -7 38.7 -8 38 Z M59 42 C59.3 44.3 59.7 46.6 60 49 C60.3 49 60.7 49 61 49 C61 46 61 43.1 61 40 C60 40 60 40 59 42 Z M-57 41 C-56 43 -56 43 -56 43 Z M-22 44 C-22 45.7 -22 47.3 -22 49 C-21.7 49 -21.3 49 -21 49 C-21 47.3 -21 45.7 -21 44 C-21.3 44 -21.7 44 -22 44 Z M-59 45 C-58 47 -58 47 -58 47 Z M-19 48 C-18 50 -18 50 -18 50 Z M59 50 C60 53 60 53 60 53 Z M56 51 C57 54 57 54 57 54 Z M57 54 C57.7 54.7 58.3 55.3 59 56 C59 55.3 59 54.7 59 54 C58.3 54 57.7 54 57 54 Z M-30 69 C-29 71 -29 71 -29 71 Z M67 75 C67 77.3 67 79.6 67 82 C67.3 82 67.7 82 68 82 C68 79.7 68 77.4 68 75 C67.7 75 67.3 75 67 75 Z M66 83 C67 86 67 86 67 86 Z M95 83 C96 85 96 85 96 85 Z M65 88 C66 90 66 90 66 90 Z M94 90 C94 92 94 94 94 96 C94.3 96 94.7 96 95 96 C95 94 95 92 95 90 C94.7 90 94.3 90 94 90 Z M-65 91 C-64 95 -64 95 -64 95 Z M-63 102 C-62 104 -62 104 -62 104 Z M-18 129 C-14 130 -14 130 -9 129 C-16.2 125.4 -16.2 125.4 -18 129 Z M39 128 C40 130 40 130 40 130 Z M-21 137 C-20.7 137.7 -20.3 138.3 -20 139 C-19 138.7 -18 138.3 -17 138 C-18.3 137.7 -19.6 137.3 -21 137 Z M-5 138 C-6 138.7 -7 139.3 -8 140 C-6.7 140.3 -5.4 140.7 -4 141 C-4.3 140 -4.7 139 -5 138 Z M-5 146 C-4 150 -4 150 -4 150 Z " fill="#000000" transform="translate(85,20)"/>
<path d="M0 0 C4 1 4 1 7 4 C0 2.2 0 2.2 0 0 Z " fill="#000000" transform="translate(68,175)"/>
<path d="M0 0 C1 0 2 0 3 0 C2.7 1.7 2.3 3.3 2 5 C0 3 0 3 0 0 Z " fill="#000000" transform="translate(91,129)"/>
<path d="M0 0 C0 1 0 2 0 3 C-1 3 -2 3 -3 3 C-2 1 -2 1 0 0 Z " fill="#000000" transform="translate(41,41)"/>
<path d="M0 0 C0 1 0 2 0 3 C-1 2.3 -2 1.7 -3 1 C-2 0.7 -1 0.3 0 0 Z " fill="#000000" transform="translate(129,175)"/>
<path d="M0 0 C0.7 1 1.3 2 2 3 C1 3 0 3 -1 3 C-0.7 2 -0.3 1 0 0 Z " fill="#000000" transform="translate(31,143)"/>
<path d="M0 0 C1 1 2 2 3 3 C0 2 0 2 0 0 Z " fill="#000000" transform="translate(34,150)"/>
<path d="M0 0 C0.3 1 0.7 2 1 3 C0 2.7 -1 2.3 -2 2 C-1.3 2 -0.7 2 0 2 C0 1.3 0 0.7 0 0 Z " fill="#000000" transform="translate(81,126)"/>
<path d="M0 0 C0.7 0.7 1.3 1.3 2 2 C1 2 0 2 -1 2 C-0.7 1.3 -0.3 0.7 0 0 Z " fill="#000000" transform="translate(146,86)"/>
<path d="M0 0 C1 2 1 2 -1 4 C-0.7 2.7 -0.3 1.4 0 0 Z " fill="#000000" transform="translate(145,81)"/>
<path d="M0 0 C0.7 0.7 1.3 1.3 2 2 C1 2 0 2 -1 2 C-0.7 1.3 -0.3 0.7 0 0 Z " fill="#000000" transform="translate(132,61)"/>
<path d="M0 0 C0.7 1.3 1.3 2.6 2 4 C0 3 0 3 0 0 Z " fill="#000000" transform="translate(28,55)"/>
<path d="M0 0 C0.5 0.3 0.5 0.3 3 2 C2 2 1 2 0 2 C0 1.3 0 0.7 0 0 Z " fill="#000000" transform="translate(65,173)"/>
<path d="M0 0 C1 0.3 2 0.7 3 1 C2 1 1 1 0 1 C0 0.7 0 0.3 0 0 Z " fill="#000000" transform="translate(32,148)"/>
<path d="M0 0 C0.3 0.2 0.3 0.2 2 1 C1.3 1.7 0.7 2.3 0 3 C0 2 0 1 0 0 Z " fill="#000000" transform="translate(176,127)"/>
<path d="M0 0 C0.5 0.3 0.5 0.3 3 2 C2 2 1 2 0 2 C0 1.3 0 0.7 0 0 Z " fill="#000000" transform="translate(75,124)"/>
<path d="M0 0 C1 4 1 4 1 4 Z " fill="#000000" transform="translate(178,120)"/>
<path d="M0 0 C0.5 0.3 0.5 0.3 3 2 C2 2 1 2 0 2 C0 1.3 0 0.7 0 0 Z " fill="#000000" transform="translate(141,79)"/>
<path d="M0 0 C0.7 0.7 1.3 1.3 2 2 C1 1.7 0 1.3 -1 1 C-0.7 0.7 -0.3 0.3 0 0 Z " fill="#000000" transform="translate(91,64)"/>
<path d="M0 0 C0 3 0 3 0 3 Z " fill="#000000" transform="translate(157,40)"/>
<path d="M0 0 C1 0.3 2 0.7 3 1 C2 1 1 1 0 1 C0 0.7 0 0.3 0 0 Z " fill="#000000" transform="translate(149,35)"/>
<path d="M0 0 C0.7 0.7 1.3 1.3 2 2 C1.3 2 0.7 2 0 2 C0 1.3 0 0.7 0 0 Z " fill="#000000" transform="translate(50,165)"/>
<path d="M0 0 C0.7 0.7 1.3 1.3 2 2 C1.3 2 0.7 2 0 2 C0 1.3 0 0.7 0 0 Z " fill="#000000" transform="translate(43,159)"/>
<path d="M0 0 C0.7 0.7 1.3 1.3 2 2 C1.3 2 0.7 2 0 2 C0 1.3 0 0.7 0 0 Z " fill="#000000" transform="translate(41,157)"/>
<path d="M0 0 C3 1 3 1 3 1 Z " fill="#000000" transform="translate(82,129)"/>
<path d="M0 0 C0.3 0.7 0.7 1.3 1 2 C0.3 1.7 -0.3 1.3 -1 1 C-0.7 0.7 -0.3 0.3 0 0 Z " fill="#000000" transform="translate(136,122)"/>
<path d="M0 0 C0.7 0 1.3 0 2 0 C1.7 0.7 1.3 1.3 1 2 C0.7 1.3 0.3 0.7 0 0 Z " fill="#000000" transform="translate(70,22)"/>
<path d="M0 0 C0.3 0.7 0.7 1.3 1 2 C0.3 1.7 -0.3 1.3 -1 1 C-0.7 0.7 -0.3 0.3 0 0 Z " fill="#010100" transform="translate(198,0)"/>
<path d="M0 0 C2 1 2 1 2 1 Z " fill="#010102" transform="translate(198,199)"/>
<path d="" fill="#000000" transform="translate(0,0)"/>
<path d="" fill="#000000" transform="translate(0,0)"/>
<path d="" fill="#000000" transform="translate(0,0)"/>
<path d="M0 0 C2 1 2 1 2 1 Z " fill="#000000" transform="translate(29,142)"/>
<path d="M0 0 C2 1 2 1 2 1 Z " fill="#000000" transform="translate(174,132)"/>
<path d="M0 0 C2 1 2 1 2 1 Z " fill="#000000" transform="translate(76,127)"/>
<path d="" fill="#000000" transform="translate(0,0)"/>
<path d="" fill="#000000" transform="translate(0,0)"/>
<path d="" fill="#000000" transform="translate(0,0)"/>
<path d="" fill="#000000" transform="translate(0,0)"/>
<path d="" fill="#000000" transform="translate(0,0)"/>
<path d="M0 0 C2 1 2 1 2 1 Z " fill="#000000" transform="translate(127,66)"/>
<path d="M0 0 C2 1 2 1 2 1 Z " fill="#000000" transform="translate(106,65)"/>
<path d="" fill="#000000" transform="translate(0,0)"/>
<path d="" fill="#000000" transform="translate(0,0)"/>
<path d="" fill="#000000" transform="translate(0,0)"/>
<path d="" fill="#000000" transform="translate(0,0)"/>
<path d="M0 0 C2 1 2 1 2 1 Z " fill="#000000" transform="translate(130,24)"/>
<path d="" fill="#010201" transform="translate(0,0)"/>
<path d="" fill="#000100" transform="translate(0,0)"/>
<path d="" fill="#000000" transform="translate(0,0)"/>
<path d="" fill="#000000" transform="translate(0,0)"/>
<path d="" fill="#000000" transform="translate(0,0)"/>
<path d="" fill="#000000" transform="translate(0,0)"/>
<path d="" fill="#000000" transform="translate(0,0)"/>
<path d="" fill="#000000" transform="translate(0,0)"/>
<path d="" fill="#000000" transform="translate(0,0)"/>
<path d="" fill="#000000" transform="translate(0,0)"/>
<path d="" fill="#000000" transform="translate(0,0)"/>
<path d="" fill="#000000" transform="translate(0,0)"/>
<path d="" fill="#000000" transform="translate(0,0)"/>
<path d="" fill="#000000" transform="translate(0,0)"/>
<path d="" fill="#000000" transform="translate(0,0)"/>
<path d="" fill="#000000" transform="translate(0,0)"/>
<path d="" fill="#000000" transform="translate(0,0)"/>
<path d="" fill="#000000" transform="translate(0,0)"/>
<path d="" fill="#000000" transform="translate(0,0)"/>
<path d="" fill="#000000" transform="translate(0,0)"/>
<path d="" fill="#000000" transform="translate(0,0)"/>
<path d="" fill="#000000" transform="translate(0,0)"/>
<path d="" fill="#000000" transform="translate(0,0)"/>
<path d="" fill="#000000" transform="translate(0,0)"/>
<path d="" fill="#000000" transform="translate(0,0)"/>
<path d="" fill="#000000" transform="translate(0,0)"/>
<path d="" fill="#000000" transform="translate(0,0)"/>
<path d="" fill="#000000" transform="translate(0,0)"/>
<path d="" fill="#000000" transform="translate(0,0)"/>
<path d="" fill="#000000" transform="translate(0,0)"/>
<path d="" fill="#000000" transform="translate(0,0)"/>
<path d="" fill="#000000" transform="translate(0,0)"/>
<path d="" fill="#000000" transform="translate(0,0)"/>
<path d="" fill="#000000" transform="translate(0,0)"/>
<path d="" fill="#000000" transform="translate(0,0)"/>
<path d="" fill="#000000" transform="translate(0,0)"/>
<path d="" fill="#000000" transform="translate(0,0)"/>
<path d="" fill="#000000" transform="translate(0,0)"/>
<path d="" fill="#000000" transform="translate(0,0)"/>
<path d="" fill="#000000" transform="translate(0,0)"/>
<path d="" fill="#000000" transform="translate(0,0)"/>
<path d="" fill="#000000" transform="translate(0,0)"/>
<path d="" fill="#000000" transform="translate(0,0)"/>
<path d="" fill="#000000" transform="translate(0,0)"/>
<path d="" fill="#000000" transform="translate(0,0)"/>
<path d="" fill="#000000" transform="translate(0,0)"/>
<path d="" fill="#000000" transform="translate(0,0)"/>
<path d="" fill="#000000" transform="translate(0,0)"/>
<path d="" fill="#000000" transform="translate(0,0)"/>
<path d="" fill="#000000" transform="translate(0,0)"/>
<path d="" fill="#000000" transform="translate(0,0)"/>
<path d="" fill="#000000" transform="translate(0,0)"/>
<path d="" fill="#000000" transform="translate(0,0)"/>
<path d="" fill="#000000" transform="translate(0,0)"/>
<path d="" fill="#000000" transform="translate(0,0)"/>
<path d="" fill="#000000" transform="translate(0,0)"/>
<path d="" fill="#000000" transform="translate(0,0)"/>
<path d="" fill="#000000" transform="translate(0,0)"/>
<path d="" fill="#000000" transform="translate(0,0)"/>
<path d="" fill="#000000" transform="translate(0,0)"/>
<path d="" fill="#000000" transform="translate(0,0)"/>
<path d="" fill="#000000" transform="translate(0,0)"/>
<path d="" fill="#000000" transform="translate(0,0)"/>
<path d="" fill="#000000" transform="translate(0,0)"/>
<path d="" fill="#000000" transform="translate(0,0)"/>
<path d="" fill="#000000" transform="translate(0,0)"/>
<path d="" fill="#000000" transform="translate(0,0)"/>
<path d="" fill="#000000" transform="translate(0,0)"/>
<path d="" fill="#000000" transform="translate(0,0)"/>
<path d="" fill="#000000" transform="translate(0,0)"/>
<path d="" fill="#000000" transform="translate(0,0)"/>
<path d="" fill="#000000" transform="translate(0,0)"/>
<path d="" fill="#000000" transform="translate(0,0)"/>
<path d="" fill="#000000" transform="translate(0,0)"/>
<path d="" fill="#000000" transform="translate(0,0)"/>
<path d="" fill="#000000" transform="translate(0,0)"/>
<path d="" fill="#000000" transform="translate(0,0)"/>
<path d="" fill="#000000" transform="translate(0,0)"/>
<path d="" fill="#000000" transform="translate(0,0)"/>
<path d="" fill="#000000" transform="translate(0,0)"/>
<path d="" fill="#000000" transform="translate(0,0)"/>
<path d="" fill="#000000" transform="translate(0,0)"/>
<path d="" fill="#000000" transform="translate(0,0)"/>
<path d="" fill="#000000" transform="translate(0,0)"/>
<path d="" fill="#000000" transform="translate(0,0)"/>
<path d="" fill="#000000" transform="translate(0,0)"/>
<path d="" fill="#000000" transform="translate(0,0)"/>
<path d="" fill="#000000" transform="translate(0,0)"/>
<path d="" fill="#000000" transform="translate(0,0)"/>
<path d="" fill="#000000" transform="translate(0,0)"/>
<path d="" fill="#000000" transform="translate(0,0)"/>
<path d="" fill="#000000" transform="translate(0,0)"/>
<path d="" fill="#000000" transform="translate(0,0)"/>
<path d="" fill="#000000" transform="translate(0,0)"/>
<path d="" fill="#000000" transform="translate(0,0)"/>
<path d="" fill="#000000" transform="translate(0,0)"/>
<path d="" fill="#000000" transform="translate(0,0)"/>
<path d="" fill="#000000" transform="translate(0,0)"/>
<path d="" fill="#000000" transform="translate(0,0)"/>
<path d="" fill="#000000" transform="translate(0,0)"/>
<path d="" fill="#000000" transform="translate(0,0)"/>
<path d="" fill="#000000" transform="translate(0,0)"/>
<path d="" fill="#000000" transform="translate(0,0)"/>
<path d="" fill="#000000" transform="translate(0,0)"/>
<path d="" fill="#000000" transform="translate(0,0)"/>
<path d="" fill="#000000" transform="translate(0,0)"/>
<path d="" fill="#000000" transform="translate(0,0)"/>
<path d="" fill="#000000" transform="translate(0,0)"/>
<path d="" fill="#000000" transform="translate(0,0)"/>
<path d="" fill="#000000" transform="translate(0,0)"/>
<path d="" fill="#000000" transform="translate(0,0)"/>
<path d="" fill="#000000" transform="translate(0,0)"/>
<path d="" fill="#000000" transform="translate(0,0)"/>
<path d="" fill="#000000" transform="translate(0,0)"/>
<path d="" fill="#000000" transform="translate(0,0)"/>
<path d="" fill="#000000" transform="translate(0,0)"/>
<path d="" fill="#000000" transform="translate(0,0)"/>
<path d="" fill="#000000" transform="translate(0,0)"/>
<path d="" fill="#000000" transform="translate(0,0)"/>
<path d="" fill="#000000" transform="translate(0,0)"/>
<path d="" fill="#000000" transform="translate(0,0)"/>
<path d="" fill="#000000" transform="translate(0,0)"/>
<path d="" fill="#000000" transform="translate(0,0)"/>
<path d="" fill="#000000" transform="translate(0,0)"/>
<path d="" fill="#000000" transform="translate(0,0)"/>
<path d="" fill="#000000" transform="translate(0,0)"/>
<path d="" fill="#000000" transform="translate(0,0)"/>
<path d="" fill="#000000" transform="translate(0,0)"/>
<path d="" fill="#000000" transform="translate(0,0)"/>
<path d="" fill="#000000" transform="translate(0,0)"/>
<path d="" fill="#000000" transform="translate(0,0)"/>
<path d="" fill="#000000" transform="translate(0,0)"/>
<path d="" fill="#000000" transform="translate(0,0)"/>
<path d="" fill="#000000" transform="translate(0,0)"/>
<path d="" fill="#000000" transform="translate(0,0)"/>
<path d="" fill="#000000" transform="translate(0,0)"/>
<path d="" fill="#000000" transform="translate(0,0)"/>
<path d="" fill="#000000" transform="translate(0,0)"/>
<path d="" fill="#000000" transform="translate(0,0)"/>
<path d="" fill="#000000" transform="translate(0,0)"/>
<path d="" fill="#000000" transform="translate(0,0)"/>
<path d="" fill="#000000" transform="translate(0,0)"/>
<path d="" fill="#000100" transform="translate(0,0)"/>
<path d="" fill="#000000" transform="translate(0,0)"/>
</svg>
