<?xml version="1.0" encoding="UTF-8"?>
<!-- Generator: visioncortex VTracer 0.6.5 -->
<svg version="1.1" xmlns="http://www.w3.org/2000/svg" width="1400" height="1000">
<path d="M0 0 C462 0 924 0 1400 0 C1400 330 1400 660 1400 1000 C938 1000 476 1000 0 1000 C0 670 0 340 0 0 Z " fill="#FEFEFD" transform="translate(0,0)"/>
<path d="M0 0 C-6.7 5.6 -13.6 10.4 -21 15 C-24.3 17.3 -27.7 19.7 -31 22 C-32 22.7 -32 22.7 -37 26 C-37.3 26.7 -37.7 27.3 -38 28 C-34.9 27.9 -31.8 27.9 -28.6 27.8 C-18 27.8 -7.6 28.8 2.9 30.1 C8.8 30.9 14.6 31.4 20.4 31.9 C31.6 32.9 42.7 34.3 53.9 35.8 C66.3 37.4 78.7 39 91.1 40.4 C118.3 43.7 145.1 47.9 172 53 C174.4 53.4 176.8 53.9 179.3 54.3 C195.7 57.5 211.8 61.7 228 66 C235.7 68 243.1 69.9 251 71 C251 74 251 74 244.8 78.7 C238 84 238 84 233 89 C235 89.7 237 90.3 239 91 C244.3 93.6 249.7 96.3 255 99 C260.8 101.7 266.5 104.4 272.3 107.1 C287.7 114.4 302.9 122 318 130 C319.7 130.9 321.3 131.7 323 132.6 C327.7 135.1 332.4 137.5 337 140 C337.9 140.5 337.9 140.5 342.7 143 C362.5 153.5 381.4 165.4 400 178 C401.3 178.9 401.3 178.9 408.1 183.4 C434 201.8 434 201.8 434 209 C417.2 209 400.3 209 383 209 C383.8 211.5 383.8 211.5 388 224 C389.4 232.2 389.3 240.3 389.3 248.5 C389.3 250.2 389.4 251.8 389.4 253.6 C389.5 273.7 383.3 290.1 370.9 306.1 C364.2 315 360.1 323.9 355.9 334.1 C351.5 344.5 346.7 354.3 341 364 C340.7 365.3 340.3 366.6 340 368 C342 368.8 344 369.6 346 370.5 C354.2 374.1 362.1 377.9 370 382 C371.8 382.9 373.6 383.8 375.4 384.8 C457 427.6 457 427.6 457 445 C458.3 445.7 459.6 446.3 461 447 C463.4 449.6 465.7 452.3 468 455 C469.7 456.7 471.3 458.5 473.1 460.2 C527 521.5 533.4 604.8 501 678 C500.6 679 500.6 679 498.4 683.9 C477.2 731.3 449.3 775.3 408 808 C405.4 810.1 402.8 812.3 400.2 814.4 C366.9 841.5 328.9 861.2 288 874 C286.2 874.6 284.3 875.2 282.4 875.8 C208.5 898.7 127.5 893.4 53.4 874.6 C42.3 871.8 35.4 870.5 24.5 874.2 C-38.5 894.6 -99.8 867.2 -147.7 825.1 C-160.1 814.7 -173 807.1 -187.8 800.6 C-189.5 799.9 -191.1 799.2 -192.8 798.4 C-208.9 791.4 -225.3 785.5 -242 780 C-244.5 779.2 -247 778.3 -249.5 777.5 C-273.8 769.5 -297.7 763.8 -323 760 C-325 759.7 -327.1 759.4 -329.2 759.1 C-377.5 751.9 -426.3 755.7 -473 770 C-476.1 770.9 -479.1 771.9 -482.2 772.8 C-508 782.2 -530.6 795.6 -550 815 C-550.7 815 -551.3 815 -552 815 C-550.6 756.8 -513.1 700.5 -476.1 658 C-470 651 -470 651 -468 648 C-467.3 648 -466.7 648 -466 648 C-465.3 646.7 -464.7 645.4 -464 644 C-461.5 641.3 -459 638.8 -456.4 636.2 C-454.9 634.7 -453.4 633.1 -451.8 631.5 C-451 630.7 -451 630.7 -446.9 626.7 C-445.3 625.1 -443.7 623.5 -442 621.9 C-435.2 615 -428.3 608.3 -421 602 C-419.5 600.6 -417.9 599.2 -416.4 597.8 C-410.1 592.2 -403.6 587.1 -397 582 C-395.6 580.9 -394.1 579.8 -392.7 578.6 C-385.3 572.9 -378.1 567.5 -370 563 C-371.3 557.7 -373.9 553.4 -376.5 548.5 C-413.2 478.6 -413.2 478.6 -391 449 C-382.6 442.7 -374.8 439.7 -365 436 C-360 432 -360 432 -357.2 427.9 C-345.3 410 -333.9 405.8 -313 406 C-310.7 405.7 -308.4 405.3 -306 405 C-308.5 400.6 -311.1 396.3 -313.9 392.1 C-336.2 356.8 -353.6 319.2 -362.1 278.2 C-362.8 275 -363.5 271.9 -364.1 268.6 C-365.4 262 -366.5 255.5 -367.5 248.8 C-369.1 239.1 -372.4 232.6 -377 224 C-395.7 179.4 -391.4 135.2 -357 99 C-355.3 97.2 -353.7 95.5 -351.9 93.6 C-276.2 21.9 -150.7 5 -50.9 1.4 C-44.6 1.1 -38.2 0.9 -31.9 0.6 C-29.1 0.5 -26.4 0.4 -23.5 0.3 C-18.8 0.1 -14 -0.2 -9.3 -0.6 C-4 -1 -4 -1 0 0 Z " fill="#FDB71D" transform="translate(697,47)"/>
<path d="M0 0 C-6.7 5.6 -13.6 10.4 -21 15 C-24.3 17.3 -27.7 19.7 -31 22 C-32 22.7 -32 22.7 -37 26 C-37.3 26.7 -37.7 27.3 -38 28 C-34.9 27.9 -31.8 27.9 -28.6 27.8 C-18 27.8 -7.6 28.8 2.9 30.1 C8.8 30.9 14.6 31.4 20.4 31.9 C31.6 32.9 42.7 34.3 53.9 35.8 C66.3 37.4 78.7 39 91.1 40.4 C118.3 43.7 145.1 47.9 172 53 C174.4 53.4 176.8 53.9 179.3 54.3 C195.7 57.5 211.8 61.7 228 66 C235.7 68 243.1 69.9 251 71 C251 74 251 74 244.8 78.7 C238 84 238 84 233 89 C235 89.7 237 90.3 239 91 C244.3 93.6 249.7 96.3 255 99 C260.8 101.7 266.5 104.4 272.3 107.1 C287.7 114.4 302.9 122 318 130 C319.7 130.9 321.3 131.7 323 132.6 C327.7 135.1 332.4 137.5 337 140 C337.9 140.5 337.9 140.5 342.7 143 C362.5 153.5 381.4 165.4 400 178 C401.3 178.9 401.3 178.9 408.1 183.4 C434 201.8 434 201.8 434 209 C417.2 209 400.3 209 383 209 C383.8 211.5 383.8 211.5 388 224 C389.4 232.2 389.3 240.3 389.3 248.5 C389.3 250.2 389.4 251.8 389.4 253.6 C389.5 273.7 383.3 290.1 370.9 306.1 C364.2 315 360.1 323.9 355.9 334.1 C351.5 344.5 346.7 354.3 341 364 C340.7 365.3 340.3 366.6 340 368 C342 368.8 344 369.6 346 370.5 C354.2 374.1 362.1 377.9 370 382 C371.8 382.9 373.6 383.8 375.4 384.8 C457 427.6 457 427.6 457 445 C458.3 445.7 459.6 446.3 461 447 C463.4 449.6 465.7 452.3 468 455 C469.7 456.7 471.3 458.5 473.1 460.2 C527 521.5 533.4 604.8 501 678 C500.6 679 500.6 679 498.4 683.9 C477.2 731.3 449.3 775.3 408 808 C405.4 810.1 402.8 812.3 400.2 814.4 C366.9 841.5 328.9 861.2 288 874 C286.2 874.6 284.3 875.2 282.4 875.8 C208.5 898.7 127.5 893.4 53.4 874.6 C42.3 871.8 35.4 870.5 24.5 874.2 C-38.5 894.6 -99.8 867.2 -147.7 825.1 C-160.1 814.7 -173 807.1 -187.8 800.6 C-189.5 799.9 -191.1 799.2 -192.8 798.4 C-208.9 791.4 -225.3 785.5 -242 780 C-244.5 779.2 -247 778.3 -249.5 777.5 C-273.8 769.5 -297.7 763.8 -323 760 C-325 759.7 -327.1 759.4 -329.2 759.1 C-377.5 751.9 -426.3 755.7 -473 770 C-476.1 770.9 -479.1 771.9 -482.2 772.8 C-508 782.2 -530.6 795.6 -550 815 C-550.7 815 -551.3 815 -552 815 C-550.6 756.8 -513.1 700.5 -476.1 658 C-470 651 -470 651 -468 648 C-467.3 648 -466.7 648 -466 648 C-465.3 646.7 -464.7 645.4 -464 644 C-461.5 641.3 -459 638.8 -456.4 636.2 C-454.9 634.7 -453.4 633.1 -451.8 631.5 C-451 630.7 -451 630.7 -446.9 626.7 C-445.3 625.1 -443.7 623.5 -442 621.9 C-435.2 615 -428.3 608.3 -421 602 C-419.5 600.6 -417.9 599.2 -416.4 597.8 C-410.1 592.2 -403.6 587.1 -397 582 C-395.6 580.9 -394.1 579.8 -392.7 578.6 C-385.3 572.9 -378.1 567.5 -370 563 C-371.3 557.7 -373.9 553.4 -376.5 548.5 C-413.2 478.6 -413.2 478.6 -391 449 C-382.6 442.7 -374.8 439.7 -365 436 C-360 432 -360 432 -357.2 427.9 C-345.3 410 -333.9 405.8 -313 406 C-310.7 405.7 -308.4 405.3 -306 405 C-308.5 400.6 -311.1 396.3 -313.9 392.1 C-336.2 356.8 -353.6 319.2 -362.1 278.2 C-362.8 275 -363.5 271.9 -364.1 268.6 C-365.4 262 -366.5 255.5 -367.5 248.8 C-369.1 239.1 -372.4 232.6 -377 224 C-395.7 179.4 -391.4 135.2 -357 99 C-355.3 97.2 -353.7 95.5 -351.9 93.6 C-276.2 21.9 -150.7 5 -50.9 1.4 C-44.6 1.1 -38.2 0.9 -31.9 0.6 C-29.1 0.5 -26.4 0.4 -23.5 0.3 C-18.8 0.1 -14 -0.2 -9.3 -0.6 C-4 -1 -4 -1 0 0 Z M-93 28 C-99.6 29 -106.3 30 -112.9 30.9 C-136.3 34.1 -159.1 38.3 -182 44 C-183.6 44.4 -183.6 44.4 -191.4 46.3 C-255.1 64.2 -346.6 102 -342 181 C-328.5 251 -251.4 290.2 -190.4 312 C-185 314 -185 314 -181 316 C-180 316 -179 316 -178 316 C-180.7 310.6 -184.4 308.4 -189.3 304.9 C-191.1 303.5 -192.9 302.2 -194.8 300.8 C-196.5 299.6 -198.2 298.3 -200 297 C-208.5 290.6 -216.8 283.9 -225.1 277.2 C-233.8 270.1 -242.8 263.4 -252 257 C-260 251 -260 251 -261 249 C-258.2 250.4 -255.4 251.8 -252.6 253.2 C-240.5 259 -228 263.8 -215.6 268.6 C-204.8 272.9 -194.2 277.3 -183.5 281.8 C-163.5 290.3 -143.5 298.4 -123.4 306.6 C-112.9 310.8 -102.4 315.1 -92 319.5 C-77.3 325.6 -62.5 331.6 -47.7 337.5 C2.6 358 2.6 358 22.5 366.7 C28.6 369.3 34.8 371.6 41 374 C42.2 374.5 42.2 374.5 48 377 C49 377 50 377 51 377 C51 377.7 51 378.3 51 379 C49.7 378.7 48.4 378.3 47 378 C44.7 377.9 42.5 377.8 40.1 377.6 C31.9 377.1 23.8 376.1 15.7 374.9 C7.9 373.8 0 372.9 -7.8 371.9 C-54.3 366 -100.4 358.7 -146 348 C-147.5 347.7 -147.5 347.7 -155.3 345.9 C-181.4 339.7 -207.1 332 -232.6 323.7 C-237.3 322.2 -242 320.8 -246.8 319.3 C-253.6 317.1 -260.3 314.6 -267 312 C-268 312 -269 312 -270 312 C-268.6 317.6 -265.4 319.3 -261 323 C-258.2 325.9 -255.4 328.7 -252.6 331.6 C-244.3 340 -235.6 347.2 -226 354 C-223.7 355.6 -221.5 357.3 -219.1 358.9 C-190.3 376.9 -156.9 392.5 -123.1 397.6 C-114 399 -114 399 -113 401 C-114.6 401.7 -116.3 402.3 -118 403 C-119.6 403.8 -121.3 404.5 -123 405.3 C-145 415.2 -166 417.6 -190 418 C-188.2 422.5 -186.1 426.9 -184 431.2 C-176.1 448.5 -177.3 464.6 -180 483 C-178.3 484.4 -176.6 485.8 -174.8 487.2 C-163.1 498.9 -163.3 510.2 -163 526 C-151.8 534.3 -139.5 540.4 -126.9 546.2 C-117.4 550.7 -108.5 555.7 -99.5 560.9 C-90 566.3 -80.3 570.9 -70.5 575.6 C-61.4 580.3 -52.6 585.4 -43.8 590.6 C-38.8 593.5 -33.7 596.5 -28.6 599.3 C-22 603 -22 603 -21 604 C-16 604 -16 604 -11.8 600 C15.8 576.2 73.2 555.1 108 576 C105 575.3 102.1 574.7 99 574 C56.8 572.1 17.9 593.8 -7 627 C-7.8 636.5 -6.4 645.6 -5 655 C-10.2 649.8 -12.7 642.6 -16 636 C-22.3 624.4 -30.1 619.1 -41.8 613.2 C-49.7 609.3 -57.5 605.3 -65.1 600.9 C-74.3 595.8 -83.6 591 -92.9 586.2 C-98.2 583.4 -103.5 580.6 -108.8 577.8 C-115.2 574.5 -121.6 571.2 -128 568 C-175 544.6 -175 544.6 -175 537.6 C-175 535.2 -174.9 532.8 -174.9 530.3 C-174.9 529.1 -174.9 529.1 -174.9 523.2 C-175.2 503.8 -177.8 497.9 -194 487 C-194.7 487 -195.3 487 -196 487 C-195.7 494.3 -195.3 501.5 -195 509 C-210.2 496.3 -211.7 471.6 -208 453 C-206 453 -206 453 -204.8 457.2 C-199.1 476 -199.1 476 -195 477 C-190 459.5 -190.7 450.4 -201.8 435.5 C-203 433.9 -204.2 432.3 -205.4 430.7 C-217.5 415 -223.5 410 -243.5 409.5 C-259.7 409.1 -259.7 409.1 -263 408 C-276.5 408 -282.5 410.9 -292 420 C-299.5 426 -306.3 426.9 -315.8 428.4 C-327.3 430.6 -330.7 434.6 -337 444 C-345.9 456.4 -353.3 460.2 -368 464 C-383.2 471.9 -381.7 481.4 -377.6 497.3 C-361.6 547 -334.3 590.9 -289.4 619.1 C-283.3 623.5 -280.2 627.8 -276 634 C-269.2 642.1 -262.1 650.1 -255 658 C-253.9 659.3 -252.8 660.5 -251.7 661.8 C-246.6 667.6 -241.3 673.3 -236 679 C-234.8 680.3 -233.6 681.6 -232.4 682.9 C-226 689.7 -219.5 696.5 -212.9 703.1 C-206 710 -206 710 -201 716 C-198.3 718.4 -195.7 720.7 -193 723 C-190.7 725.3 -188.4 727.6 -186 730 C-181.2 734.3 -176.4 738.4 -171.5 742.5 C-166.6 746.6 -161.8 750.8 -157 755 C-149.8 761.2 -142.6 767.3 -135 773 C-133.4 774.3 -131.8 775.6 -130.1 777 C-90 809.8 -24.2 862 26 819 C30.3 816.9 36.2 817.5 40.9 817.2 C55.7 816.2 70.3 814.3 85 812 C87.8 811.6 90.7 811.1 93.6 810.7 C137.3 801.9 192 786.1 218 747 C217 742 217 742 208 739 C199.7 735.4 191.5 731.7 183.3 728.1 C176 725 176 725 170 724 C170 723 170 722 170 721 C172.6 721.7 175.3 722.3 178 723 C188.6 724.2 199.3 724.2 210 724.2 C211.7 724.2 213.5 724.2 215.3 724.2 C255.2 724.3 302.6 716.5 331 686 C332.7 684.4 334.3 682.7 336 681 C369.7 645.6 370 591.6 344 552 C336.5 543 328.4 536 319 529 C317.4 527.8 315.8 526.6 314.1 525.3 C296 513.6 275.7 506.4 255 501 C252.7 500.3 250.4 499.7 248 499 C241.3 500.3 238.3 503.7 233 508 C220.3 516.8 206.8 525.1 192 530 C192 530.7 192 531.3 192 532 C190 532.3 188 532.7 186 533 C180.7 534.6 175.3 536.3 170 538 C169 538.3 169 538.3 164.1 539.9 C162.1 540.5 160.1 541.1 158.1 541.8 C156.2 542.3 154.3 542.9 152.3 543.5 C148 545 148 545 147 546 C120.6 552.1 120.6 552.1 118 547 C120.6 546.7 123.3 546.3 126 546 C161.7 536.7 207.6 512.1 222 476 C213 477.7 204.1 479.8 195.1 481.9 C159.6 490 159.6 490 148 490 C149.7 489.4 151.5 488.8 153.2 488.2 C167.5 483 180.9 477.6 194 470 C196.2 468.8 198.3 467.5 200.6 466.2 C278 421.1 278 421.1 278 399 C272 401 272 401 266.7 403.3 C256 407 245.1 409 234 411 C232 411.4 230 411.7 227.9 412.1 C202 416 202 416 200 412 C201.5 411.7 202.9 411.5 204.4 411.2 C233 405.1 321 367.7 321 330 C316 331 316 331 310.4 333.3 C301.8 336.5 293.1 338.6 284.2 340.8 C282.5 341.2 280.9 341.6 279.2 342 C275.1 343 271.1 344 267 345 C267 343 267 343 271.4 342 C312.2 329.7 358.9 297.5 356 250 C350 220.6 330.2 194.3 306 177 C306 176.3 306 175.7 306 175 C308.1 175.4 310.2 175.9 312.3 176.3 C321.4 178.1 330.4 179.6 339.5 181.1 C342.6 181.6 345.7 182.2 349 182.7 C354 183.5 359 184.3 364 185 C357.7 178.7 351.1 175.9 343 172 C340 170.4 336.9 168.8 333.9 167.2 C323.3 161.6 312.7 156.3 302 151 C299.5 149.7 297 148.5 294.5 147.2 C285.6 142.8 276.7 138.6 267.8 134.5 C266.1 133.8 264.5 133 262.8 132.2 C251.6 127.1 240.4 122.4 229 118 C227.2 117.3 225.4 116.5 223.5 115.7 C164.1 91.2 164.1 91.2 139 90 C139 89 139 88 139 87 C141.8 86.9 144.6 86.8 147.5 86.7 C156.5 86.2 165.1 84.7 174 83 C179 82.6 184 82.2 189 82 C189 80 189 80 180 78 C178.7 77.8 178.7 77.8 172 77 C164 76 164 76 155 74 C148.8 73.2 142.6 72.4 136.4 71.7 C132.7 71.2 129 70.8 125.2 70.4 C123.4 70.1 121.5 69.9 119.5 69.7 C114.5 69.1 109.5 68.4 104.4 67.7 C77.2 64.1 49.9 61.8 22.5 59.5 C11.8 58.6 1.1 57.7 -9.7 56.7 C-11 56.6 -11 56.6 -18 56 C-20 55.8 -22 55.7 -24 55.5 C-47.1 53.7 -70.2 53.8 -93.4 53.9 C-97.4 53.9 -101.5 53.9 -105.5 53.9 C-115.4 53.9 -125.2 54 -135 54 C-129.1 50.4 -123.3 47.2 -117 44.2 C-90.6 31.8 -90.6 31.8 -89 27 C-92 27 -92 27 -93 28 Z " fill="#031C56" transform="translate(697,47)"/>
<path d="M0 0 C1.8 0.8 3.6 1.6 5.4 2.4 C92.3 42.2 125 120.6 102.8 211.8 C97.5 231.3 89.9 249.3 80 267 C78.8 269.2 77.6 271.5 76.3 273.8 C67.3 288.8 57.6 302.9 46 316 C44.9 317.3 43.8 318.5 42.7 319.8 C31.8 332.1 20.2 343.2 7 353 C5.7 354 4.4 354.9 3.1 355.9 C-44.7 390.7 -101.7 409.7 -160 416 C-160.8 416.1 -160.8 416.1 -164.8 416.5 C-178.1 418 -191.3 418.3 -204.7 418.2 C-206.7 418.2 -208.8 418.2 -210.9 418.2 C-225.7 418.1 -225.7 418.1 -228 417 C-227 414 -227 414 -220.8 412.2 C-200 405.7 -179 397.6 -160 387 C-154.7 384.3 -149.3 381.7 -144 379 C-133.9 373.8 -124.3 368.1 -114.7 362 C-110.3 359.2 -105.9 356.5 -101.5 353.8 C-91.1 347.1 -81.5 339.9 -72 332 C-70.7 330.9 -69.3 329.8 -67.9 328.7 C-55.7 318.7 -44.1 308.3 -33 297 C-25 289 -25 289 -20 286 C-21.2 296.9 -23.5 306.6 -27 317 C-27.4 318.2 -27.4 318.2 -29.3 324 C-29.9 325.6 -30.4 327.3 -31 329 C28.5 289.3 48.3 192.4 21 129 C1.4 92 -35.1 67.2 -73 52 C-73 51.3 -73 50.7 -73 50 C-28.4 47.6 19.2 70.2 58 90 C59.7 90.7 61.3 91.3 63 92 C60 87 60 87 55 84 C53.3 82.4 51.7 80.7 50 79 C43 73.6 36 68.7 28.3 64.2 C23 61 23 61 18.6 57.7 C11.9 53.2 4.9 50.1 -2.6 46.8 C-5.2 45.6 -7.9 44.4 -10.7 43.2 C-13.1 42.1 -15.5 41.1 -18 40 C-19.5 39.3 -19.5 39.3 -27 36 C-35.2 32.8 -43.5 30.4 -52 28 C-55 27 -57.9 26 -61 25 C-71 22.4 -80.9 20.1 -91 18 C-89 14 -89 14 -84.4 10.4 C-75.6 3.2 -69.4 -5.7 -63 -15 C-54.1 -26.8 -12.4 -5.5 0 0 Z " fill="#E11622" transform="translate(1056,475)"/>
<path d="M0 0 C0.8 0.7 0.8 0.7 5 4.3 C6.4 5.4 7.7 6.5 9.1 7.7 C44.3 40.6 46.1 92.8 24 133.3 C17.2 142.9 10.1 151.7 1 159.3 C0.3 160 0.3 160 -3.5 163.2 C-34.7 186.3 -75.6 191.5 -113.2 191.5 C-114.9 191.5 -116.7 191.5 -118.5 191.5 C-144.2 191.6 -144.2 191.6 -154 188.3 C-154 191.3 -154 191.3 -146 193.3 C-141.8 195 -137.7 196.8 -133.6 198.7 C-131.4 199.6 -129.3 200.6 -127.1 201.6 C-125.1 202.5 -123.1 203.4 -121 204.3 C-112 208.3 -112 208.3 -106 210.3 C-113 245.6 -176.3 263.9 -206 272.3 C-209 273.2 -212 274 -215.1 274.9 C-230.1 278.6 -245.6 280.2 -261 282.3 C-263 282.6 -265 283 -267 283.3 C-274.4 283.7 -281.7 284 -289.1 284.3 C-296 285.3 -296 285.3 -304 291.3 C-330.6 309 -361.3 302.9 -388 289.3 C-389.8 288.4 -391.5 287.5 -393.3 286.6 C-416.7 274.3 -436.9 258.2 -457.2 241.5 C-461.4 238 -465.7 234.7 -470 231.3 C-477.6 225.2 -484.8 218.9 -492 212.3 C-493.7 210.9 -495.4 209.5 -497.2 208.1 C-503.5 202.9 -509.4 197.4 -515.3 191.8 C-518.4 188.8 -521.7 186.1 -525 183.3 C-527.3 180.7 -529.7 178 -532 175.3 C-535.6 171.6 -539.3 168 -543 164.3 C-549.2 158.1 -555.3 151.9 -561 145.3 C-563.3 143 -565.6 140.7 -568 138.3 C-570.3 135.7 -572.7 133 -575 130.3 C-576.6 128.6 -578.2 126.8 -579.9 125 C-584.8 119.6 -589.4 114 -594 108.3 C-595.4 106.7 -596.9 105.1 -598.4 103.4 C-605 95.9 -605 95.9 -605 92.3 C-598.6 93.2 -594.2 94.7 -588.4 97.1 C-580.7 100.3 -573 103 -565 105.3 C-563.1 105.9 -561.2 106.4 -559.2 107 C-543.2 111.6 -527.7 115.4 -511 116.3 C-512.8 121.6 -519.5 120.5 -524.6 121.3 C-526.9 121.7 -529.2 122.1 -531.6 122.4 C-538 123.3 -538 123.3 -545 123.3 C-542.7 126 -540.3 128.7 -538 131.3 C-536.4 133.1 -534.9 134.9 -533.2 136.8 C-528.1 142.2 -522.8 146.7 -517 151.3 C-514 154.3 -511 157.3 -508 160.3 C-504.4 163.4 -500.7 166.4 -497 169.3 C-495.7 170.4 -495.7 170.4 -489.3 175.6 C-481.4 182.1 -473.2 188.2 -465 194.3 C-463.6 195.4 -462.2 196.4 -460.7 197.5 C-451.3 204.4 -441.8 210.7 -431.7 216.5 C-427.7 218.9 -423.7 221.4 -419.8 223.9 C-391.5 240.1 -360.7 251.4 -327.9 251.6 C-325.3 251.6 -322.7 251.6 -320 251.6 C-302.1 250.9 -286.7 245.5 -271 237.3 C-272.1 242.7 -273.9 246.8 -276.2 251.7 C-277 253.3 -277.8 255 -278.6 256.6 C-281 261.3 -281 261.3 -286 268.3 C-256.5 268.3 -225.4 259.1 -198 248.3 C-196.2 247.6 -194.5 246.9 -192.7 246.2 C-146 227.2 -146 227.2 -146 217.3 C-148.3 216 -150.6 214.7 -153 213.3 C-162.7 206.8 -172 199.8 -181 192.3 C-182.6 191 -184.3 189.8 -186 188.4 C-190 185.3 -190 185.3 -193 182.3 C-194.3 181.7 -195.6 181 -197 180.3 C-197.3 179 -197.7 177.7 -198 176.3 C-188 176.3 -188 176.3 -181 177.3 C-172.1 177.5 -163.2 177.5 -154.3 177.5 C-151.9 177.5 -149.5 177.5 -147 177.5 C-128.1 177.6 -110.1 177.1 -92 171.3 C-89.2 170.5 -86.3 169.7 -83.4 168.9 C-35.7 154.4 -5.7 126.3 -8 75.3 C-9 67.3 -10.3 62.7 -14 55.3 C-14.7 52.7 -15.3 50 -16 47.3 C-16.7 47.3 -17.3 47.3 -18 47.3 C-18.3 50 -18.7 52.6 -19 55.3 C-22.9 63.3 -26.2 69.7 -34 74.3 C-35.3 75.6 -36.6 77 -38 78.3 C-39 78.3 -40 78.3 -41 78.3 C-41.4 75.9 -41.8 73.4 -42.2 70.9 C-50.2 32.8 -94.4 23.4 -128 20.3 C-129.3 20 -130.6 19.7 -132 19.3 C-135.7 19 -139.4 18.7 -143.1 18.4 C-145.3 18.2 -147.5 18 -149.8 17.9 C-161.2 17 -172.6 16.1 -184 15.3 C-184 15 -184 14.7 -184 14.3 C-182.8 14.1 -182.8 14.1 -177 13.3 C-173.7 12 -170.3 10.7 -167 9.3 C-160.7 7.3 -154.3 5.3 -148 3.3 C-146.1 2.7 -144.2 2.1 -142.2 1.5 C-138 0.3 -138 0.3 -132 -0.7 C-132 -1.3 -132 -2 -132 -2.7 C-129.6 -3.7 -127.3 -4.7 -124.8 -5.8 C-50.1 -39.1 -50.1 -39.1 0 0 Z " fill="#A1791C" transform="translate(1021,579.6875)"/>
<path d="M0 0 C6 1 10.4 2.8 16 5 C21.3 6.7 26.7 8.4 32 10 C35.8 11.2 39.6 12.5 43.4 13.7 C79.5 25.2 115.9 34.5 153.1 42 C166.7 44.8 166.7 44.8 170 47 C168.7 47 167.4 47 166 47 C174.1 60.5 200.6 65.1 215 70 C226.6 74.1 238 78.4 249.4 83 C259.4 87 269.5 90.7 279.8 94.2 C286.6 96.6 293.3 99.2 300 102 C297 113.8 277.2 118.4 267 122 C258.2 125.1 250.2 129 242 133.5 C209.7 150 209.7 150 203 150 C202.7 151 202.3 152 202 153 C203.5 153.2 205.1 153.5 206.7 153.7 C208.8 154.1 210.9 154.4 213.1 154.8 C215.2 155.1 217.3 155.4 219.4 155.7 C259.4 162.4 299.3 170.5 338.6 180.4 C348.7 183 358.7 185.2 369 187 C369 190 369 190 364 192 C361 192.3 358.1 192.7 355 193 C355 198 355 198 363 201 C363 202.3 363 203.6 363 205 C360.6 205.1 358.3 205.2 355.8 205.4 C348 206 348 206 343 208 C340 208.3 337.1 208.7 334 209 C331 210.3 328.1 211.6 325 213 C321.1 214.2 317.3 215.3 313.4 216.5 C284.9 224.6 256.1 232.9 229 245 C226.3 246 223.7 246.9 220.9 247.9 C213 251 213 251 205 256 C203 256.7 201 257.3 199 258 C198.7 259.3 198.3 260.6 198 262 C186.4 258.1 175.6 251.5 165 245.4 C157.7 241.4 150.4 237.8 142.9 234.3 C107.1 217.3 107.1 217.3 106.8 204.2 C106 188.7 102.2 181 90 171 C90.3 168.7 90.7 166.5 91 164.1 C93.5 141.5 90.7 127.5 80 108 C80 107.3 80 106.7 80 106 C81.5 106 83.1 105.9 84.7 105.9 C110.2 105.2 132.5 101.8 155 89 C155.7 89 156.3 89 157 89 C156 87 156 87 147.8 85.9 C91.2 76.9 42.2 45.2 3 5 C2 4 1 3 0 2 C0 1.3 0 0.7 0 0 Z " fill="#9E781B" transform="translate(427,359)"/>
<path d="M0 0 C-6.7 5.6 -13.6 10.4 -21 15 C-24.3 17.3 -27.7 19.7 -31 22 C-32 22.7 -32 22.7 -37 26 C-37.3 26.7 -37.7 27.3 -38 28 C-34.9 27.9 -31.8 27.9 -28.6 27.8 C-18 27.8 -7.6 28.8 2.9 30.1 C8.8 30.9 14.6 31.4 20.4 31.9 C31.6 32.9 42.7 34.3 53.9 35.8 C66.3 37.4 78.7 39 91.1 40.4 C118.3 43.7 145.1 47.9 172 53 C174.4 53.4 176.8 53.9 179.3 54.3 C195.7 57.5 211.8 61.7 228 66 C235.7 68 243.1 69.9 251 71 C251 74 251 74 244.8 78.7 C238 84 238 84 233 89 C235 89.7 237 90.3 239 91 C244.3 93.6 249.7 96.3 255 99 C260.8 101.7 266.5 104.4 272.3 107.1 C287.7 114.4 302.9 122 318 130 C319.7 130.9 321.3 131.7 323 132.6 C327.7 135.1 332.4 137.5 337 140 C337.9 140.5 337.9 140.5 342.7 143 C362.5 153.5 381.4 165.4 400 178 C401.3 178.9 401.3 178.9 408.1 183.4 C434 201.8 434 201.8 434 209 C417.2 209 400.3 209 383 209 C383.8 211.5 383.8 211.5 388 224 C389.4 232.2 389.3 240.3 389.3 248.5 C389.3 250.2 389.4 251.8 389.4 253.6 C389.5 273.7 383.3 290.1 370.9 306.1 C364.2 315 360.1 323.9 355.9 334.1 C351.5 344.5 346.7 354.3 341 364 C340.7 365.3 340.3 366.6 340 368 C342 368.8 344 369.6 346 370.5 C354.2 374.1 362.1 377.9 370 382 C371.8 382.9 373.6 383.8 375.4 384.8 C457 427.6 457 427.6 457 445 C458.3 445.7 459.6 446.3 461 447 C463.4 449.6 465.7 452.3 468 455 C469.7 456.7 471.3 458.5 473.1 460.2 C527 521.5 533.4 604.8 501 678 C500.6 679 500.6 679 498.4 683.9 C477.2 731.3 449.3 775.3 408 808 C405.4 810.1 402.8 812.3 400.2 814.4 C366.9 841.5 328.9 861.2 288 874 C286.2 874.6 284.3 875.2 282.4 875.8 C208.5 898.7 127.5 893.4 53.4 874.6 C42.3 871.8 35.4 870.5 24.5 874.2 C-38.5 894.6 -99.8 867.2 -147.7 825.1 C-160.1 814.7 -173 807.1 -187.8 800.6 C-189.5 799.9 -191.1 799.2 -192.8 798.4 C-208.9 791.4 -225.3 785.5 -242 780 C-244.5 779.2 -247 778.3 -249.5 777.5 C-273.8 769.5 -297.7 763.8 -323 760 C-325 759.7 -327.1 759.4 -329.2 759.1 C-377.5 751.9 -426.3 755.7 -473 770 C-476.1 770.9 -479.1 771.9 -482.2 772.8 C-508 782.2 -530.6 795.6 -550 815 C-550.7 815 -551.3 815 -552 815 C-550.6 756.8 -513.1 700.5 -476.1 658 C-470 651 -470 651 -468 648 C-467.3 648 -466.7 648 -466 648 C-465.3 646.7 -464.7 645.4 -464 644 C-461.5 641.3 -459 638.8 -456.4 636.2 C-454.9 634.7 -453.4 633.1 -451.8 631.5 C-451 630.7 -451 630.7 -446.9 626.7 C-445.3 625.1 -443.7 623.5 -442 621.9 C-435.2 615 -428.3 608.3 -421 602 C-419.5 600.6 -417.9 599.2 -416.4 597.8 C-410.1 592.2 -403.6 587.1 -397 582 C-395.6 580.9 -394.1 579.8 -392.7 578.6 C-385.3 572.9 -378.1 567.5 -370 563 C-371.3 557.7 -373.9 553.4 -376.5 548.5 C-413.2 478.6 -413.2 478.6 -391 449 C-382.6 442.7 -374.8 439.7 -365 436 C-360 432 -360 432 -357.2 427.9 C-345.3 410 -333.9 405.8 -313 406 C-310.7 405.7 -308.4 405.3 -306 405 C-308.5 400.6 -311.1 396.3 -313.9 392.1 C-336.2 356.8 -353.6 319.2 -362.1 278.2 C-362.8 275 -363.5 271.9 -364.1 268.6 C-365.4 262 -366.5 255.5 -367.5 248.8 C-369.1 239.1 -372.4 232.6 -377 224 C-395.7 179.4 -391.4 135.2 -357 99 C-355.3 97.2 -353.7 95.5 -351.9 93.6 C-276.2 21.9 -150.7 5 -50.9 1.4 C-44.6 1.1 -38.2 0.9 -31.9 0.6 C-29.1 0.5 -26.4 0.4 -23.5 0.3 C-18.8 0.1 -14 -0.2 -9.3 -0.6 C-4 -1 -4 -1 0 0 Z M-48.2 8.9 C-61.3 9.9 -74.4 10.7 -87.5 11.4 C-94.8 12 -101.8 12.9 -109 14 C-113 14.3 -116.9 14.7 -120.9 14.9 C-130.4 15.7 -139.6 17.1 -149 19 C-151 19.3 -152.9 19.6 -154.9 19.9 C-165.7 21.6 -176.3 23.8 -187 26 C-189 26.4 -191 26.8 -193.1 27.3 C-274.2 45 -380.5 83.7 -380.4 181.6 C-379.8 192.3 -377.1 201.4 -373.1 211.2 C-372.5 212.8 -371.8 214.5 -371.1 216.2 C-369 221 -369 221 -366.4 225.6 C-362 233.6 -360.4 241.4 -358.9 250.3 C-357.8 257.4 -356.4 264.5 -355 271.6 C-354.8 272.8 -354.8 272.8 -353.5 279.2 C-352 286 -352 286 -349 295 C-348.8 295.9 -348.8 295.9 -347.8 300.3 C-338.3 336.3 -320.6 370.4 -297 399 C-300.1 414.6 -312.4 414.3 -325.5 414.6 C-338.2 415.6 -344.1 421.4 -350.6 431.6 C-356 440.1 -361.9 443.7 -371 447 C-390.1 454.4 -392.8 464 -392 484 C-387 506.6 -379 526.7 -368 547 C-361 560.4 -361 560.4 -361 566 C-363.3 567.3 -365.6 568.6 -368 570 C-376.9 576 -385.4 582.5 -394 589 C-395.1 589.8 -395.1 589.8 -400.8 594.1 C-407.1 599.1 -413.1 604.5 -419 610 C-420.3 611.1 -421.5 612.2 -422.8 613.3 C-430.4 620 -437.3 627.2 -444.4 634.2 C-446 635.8 -447.6 637.3 -449.2 638.9 C-456.9 646.7 -464.3 654.4 -471 663 C-473 665.4 -475.1 667.9 -477.2 670.4 C-484.8 679.8 -491.4 689.8 -498 700 C-499.2 701.9 -500.5 703.8 -501.8 705.8 C-518.9 733.4 -530.6 761.3 -541 792 C-535 790 -535 790 -530 786 C-482.4 759.6 -434.4 746.9 -380.1 746.7 C-378.7 746.7 -378.7 746.7 -371.4 746.6 C-333.9 746.5 -297.7 753.5 -262 765 C-259.3 765.8 -256.6 766.5 -253.9 767.3 C-175.2 791.1 -175.2 791.1 -149 814 C-135.6 824.9 -122 835.3 -107 844 C-105.9 844.7 -105.9 844.7 -100.2 848.3 C-62.1 870.1 -13.2 882.8 28.1 861.9 C36.4 859.2 41.6 861.7 50 864 C140.5 886.4 240.1 890.1 327 851 C329.4 849.9 331.7 848.9 334.1 847.8 C410 811.1 410 811.1 410 795 C411.3 794.3 412.6 793.7 414 793 C416.3 790.3 418.7 787.7 421 785 C423.4 782.6 425.9 780.1 428.4 777.7 C434.4 771.7 439.8 765.7 445 759 C446.6 757 448.2 755 449.8 753 C456 744.6 461.5 735.9 467 727 C468.4 724.7 469.9 722.4 471.4 720.1 C474.9 714.2 478 708.2 481 702 C481.6 700.7 481.6 700.7 484.9 694.2 C485.6 692.8 485.6 692.8 489 686 C490.1 683.8 491.3 681.5 492.4 679.2 C525.9 602.2 518.6 521.3 462 458 C460.2 456 458.5 454 456.7 452 C452.6 447.7 448.6 443.8 444 440 C443 439.1 443 439.1 437.8 434.7 C411.4 412.7 382.2 395.4 351 381 C349.2 380.1 347.5 379.2 345.7 378.3 C338.2 374.6 331.1 372 323 370 C326 365 326 365 329.6 360.6 C340.6 346.6 348.6 331.4 355 315 C358.4 307.4 360.9 304.1 367 298 C385.7 269.3 388.3 226.4 367 198 C382.5 198 398 198 414 198 C414.3 197.3 414.7 196.7 415 196 C413.3 195 411.7 194 410 193 C402.3 188.1 394.6 183.1 387 178 C361.6 161.3 335.4 145.4 308 132 C304.9 130.4 301.9 128.8 298.8 127.1 C289.3 122.1 279.7 117.5 270 113 C267.7 111.9 265.4 110.8 263 109.7 C218.1 89 218.1 89 213 89 C213 86 213 86 218 84 C231 76.1 231 76.1 231 74 C217.7 70.2 204.5 67 191 64 C188.9 63.5 186.9 63.1 184.8 62.6 C167.8 58.9 150.9 55.9 133.7 53.4 C132.4 53.2 132.4 53.2 125.9 52.2 C83.7 45.9 83.7 45.9 66.8 44.5 C62 44 62 44 60 43 C56.5 42.6 53 42.2 49.4 41.9 C48.3 41.8 48.3 41.8 42.8 41.2 C40.5 41 38.2 40.8 35.9 40.6 C21.9 39.2 7.9 37.8 -6 36 C-9.4 35.6 -12.9 35.3 -16.3 35 C-23.2 34.4 -30 33.7 -36.8 32.9 C-45.3 32.1 -53.5 31.8 -62 32 C-62 29 -62 29 -57 28 C-52.6 24.4 -48.3 20.7 -44 17 C-42.3 15.7 -40.5 14.3 -38.8 12.9 C-35 10 -35 10 -34 8 C-38.7 8 -43.5 8.5 -48.2 8.9 Z " fill="#B57905" transform="translate(697,47)"/>
<path d="M0 0 C7.5 1.7 14.3 2.2 22 2.2 C24 2.2 26 2.2 28.1 2.2 C33.5 2 38.7 1.6 44 1 C35 36.8 -100 44.6 -131.8 42.5 C-178.8 37.7 -237.6 27.3 -270 -10 C-279.5 -19.5 -301 -14.7 -314 -14 C-307 -35 -251.3 -46.3 -232.6 -50.1 C-231.4 -50.4 -231.4 -50.4 -225.4 -51.6 C-160.6 -63.6 -43.5 -58 0 0 Z " fill="#041851" transform="translate(814,238)"/>
<path d="M0 0 C1.3 1.8 2.6 3.5 3.9 5.4 C15.9 21 31.1 33 48 43 C55.2 48.2 57.5 51.5 62 59 C62.8 60.2 62.8 60.2 66.7 66 C74 77.1 81.1 88.3 88.1 99.6 C91.2 104.8 94.5 109.9 97.8 114.9 C103 123 103 123 106 129 C109 133 112 137 115 141 C118 145 118 145 118 148 C113.9 147 110 145.7 106 144.4 C83.4 137.2 60.5 132.4 37 129 C34.8 128.7 32.6 128.4 30.3 128 C14.7 126.1 -0.7 125.7 -16.4 125.7 C-18.4 125.7 -20.5 125.7 -22.5 125.7 C-32.9 125.7 -42.7 126.4 -53 128 C-59.3 128.5 -65.6 128.9 -71.9 129.3 C-86.7 130.4 -100.7 132.1 -115 136 C-116.9 136.5 -118.8 137 -120.7 137.6 C-125.8 139 -130.9 140.5 -136 142 C-137.8 142.6 -139.7 143.1 -141.6 143.7 C-143.1 144.1 -144.5 144.6 -146 145 C-144.4 138.8 -140.6 134.3 -137 129 C-136 127.5 -135 126.1 -134 124.6 C-123.7 109.4 -112.9 94.9 -101 81 C-99.7 79.4 -98.4 77.7 -97.1 76 C-91 68.8 -84.5 62.1 -77.8 55.5 C-77.2 54.9 -77.2 54.9 -74.1 51.7 C-66.2 43.8 -57.9 36.8 -49 30 C-46.9 28.2 -44.8 26.4 -42.6 24.5 C-10.6 -2.1 -10.6 -2.1 0 0 Z " fill="#E31321" transform="translate(355,634)"/>
<path d="M0 0 C21.6 3.6 42.6 13.1 63 21 C64.3 21.5 64.3 21.5 71 24 C167 70.8 167 70.8 155.2 112.2 C132.6 170.7 21.2 170.7 -31 171 C-34.1 171 -37.3 171.1 -40.5 171.1 C-60.4 171.3 -80.1 170.6 -100 169 C-102.7 168.8 -105.4 168.6 -108.1 168.3 C-143.2 165.3 -178.2 161 -212.5 153.2 C-216.2 152.4 -219.8 151.6 -223.5 150.9 C-266.8 141.9 -309.8 128.6 -349 108 C-350.4 107.2 -351.9 106.5 -353.4 105.7 C-380.7 91 -419.9 66.7 -414 31 C-412 31 -412 31 -410.9 35.3 C-388.2 104.1 -270.5 123.9 -210 136 C-207.6 136.5 -205.2 137 -202.7 137.5 C-193.6 139.3 -184.4 140.5 -175.2 141.6 C-174.3 141.7 -174.3 141.7 -170.1 142.2 C-97.1 151.1 59.1 169.8 106 97 C116.2 56 71.8 32.9 40.5 18.4 C30.9 14.2 21.2 10.4 11.4 6.6 C0 2 0 2 0 0 Z " fill="#051651" transform="translate(819,171)"/>
<path d="M0 0 C0 3 0 3 -7.7 4.4 C-11.1 5 -14.5 5.6 -17.9 6.2 C-19.6 6.6 -21.3 6.9 -23 7.2 C-100.6 21.3 -100.6 21.3 -102.3 53.9 C-98.8 123.1 52 145.9 104 153 C105.3 153.2 105.3 153.2 111.8 154.1 C134.6 157.2 156.9 158.2 180 158.2 C185.1 158.2 190.1 158.3 195.2 158.3 C241.5 158.4 312.4 157.8 340 114 C340.3 114 340.7 114 341 114 C341 153.9 283.3 163.6 253 169 C245 170.2 237 171.1 229 172 C227.6 172.2 226.3 172.3 224.8 172.5 C216.6 173.2 208.3 173.2 200 173.2 C198.2 173.2 196.4 173.2 194.5 173.2 C190.5 173.2 186.6 173.2 182.7 173.2 C176.8 173.2 171 173.3 165.1 173.3 C143.8 173.4 123.1 172.6 102 170 C98 169.6 94.1 169.2 90.1 168.8 C35.5 162 -135.9 128.6 -147 62 C-147 25 -99.5 13.7 -70.5 8 C-61.4 6.4 -52.3 5.4 -43.1 4.4 C-41.2 4.2 -39.4 4 -37.5 3.8 C-25 2.4 -12.5 1.2 0 0 Z " fill="#06154C" transform="translate(564,132)"/>
<path d="M0 0 C3.2 -0 6.4 -0 9.6 -0 C11.2 -0 11.2 -0 18.9 -0 C21.7 -0 24.4 -0 27.3 -0 C34.7 0.2 41.7 1.1 49 2.2 C55.5 2.8 62.1 3.2 68.6 3.7 C74.8 4.2 80.9 5.2 87 6.2 C89.6 6.4 92.2 6.5 94.9 6.7 C102.6 7.2 109.5 8.6 117 10.2 C118.4 10.4 118.4 10.4 125.2 11.2 C131.7 12.1 136.8 13.4 143 15.2 C148.4 16.7 153.9 18.1 159.3 19.5 C176.6 24.1 193.6 29 210 36.2 C212.6 37.3 215.1 38.4 217.8 39.5 C244.6 51.7 270.3 67.2 269 99.2 C266.3 108 262.4 117.2 252 117.2 C254 111.2 254 111.2 258 105.2 C265.2 83.7 240.7 69 225 60.2 C216.1 55.8 207.3 51.7 198 48.2 C198 47.6 198 46.9 198 46.2 C196.7 46 195.4 45.8 194.1 45.6 C187.7 44.2 181.6 42.1 175.3 40 C154.7 33.3 133.5 28.1 112 25.2 C110.3 25 108.6 24.7 106.8 24.4 C98 22.9 89 21.8 80.1 20.7 C78.4 20.5 76.7 20.2 74.9 20 C19.5 13.2 -44.6 12.6 -98 29.2 C-100.7 30 -103.3 30.8 -106.1 31.6 C-119.9 36.3 -131.6 42.1 -143 51.2 C-147 53.2 -147 53.2 -152 48.2 C-157.3 29.6 -151.6 26 -135.8 18.2 C-119.8 11.3 -103.1 8.1 -86.1 5.2 C-84.6 4.9 -84.6 4.9 -77.3 3.7 C-51.7 -0.2 -25.8 -0.1 0 0 Z " fill="#FDFCF5" transform="translate(615,150.75)"/>
<path d="M0 0 C5.9 1 10.3 2.7 15.8 5 C39.6 14.5 65.3 21.5 91 23 C89.2 28.3 82.5 27.2 77.4 28 C75.1 28.4 72.8 28.7 70.4 29.1 C64 30 64 30 57 30 C59.3 32.7 61.7 35.3 64 38 C65.6 39.8 67.1 41.6 68.8 43.4 C73.9 48.9 79.2 53.3 85 58 C88 61 91 64 94 67 C97.6 70 101.3 73 105 76 C107.5 78.1 110.1 80.2 112.7 82.3 C120.6 88.8 128.8 94.9 137 101 C138.4 102.1 139.8 103.1 141.3 104.2 C150.7 111.1 160.2 117.4 170.3 123.2 C174.3 125.6 178.3 128.1 182.2 130.6 C210.5 146.7 241.3 158.1 274.1 158.2 C276.7 158.3 279.3 158.3 282 158.3 C299.9 157.6 315.3 152.2 331 144 C329.9 149.4 328.1 153.5 325.8 158.4 C325 160.1 324.2 161.7 323.4 163.4 C307.2 194.1 257.8 183.3 231.4 174.8 C183.6 158.3 142.6 129.8 103.8 98.1 C100.7 95.5 97.5 93 94.4 90.5 C87.7 84.9 81.4 78.9 75 73 C71.3 70 67.7 67 64 64 C53.4 54.3 43.2 44.3 33.1 34.1 C30.8 31.8 28.5 29.5 26.2 27.1 C23.9 24.8 21.6 22.6 19.3 20.2 C14.6 15.6 10 11.3 5 7 C0 2 0 2 0 0 Z " fill="#041D4F" transform="translate(419,673)"/>
<path d="M0 0 C-2.6 17.9 -26.3 17.9 -41 19 C-147.7 21.5 -147.7 21.5 -170 -12 C-163.9 -54.8 -22.2 -26.6 0 0 Z " fill="#FEB919" transform="translate(763,234)"/>
<path d="M0 0 C2.5 0.6 5.1 1.2 7.7 1.9 C25 6.1 25 6.1 25 14 C20.6 16.2 14 15.3 9.3 15.4 C-14.3 16.1 -37.7 18.5 -61 22 C-62.8 22.3 -64.6 22.5 -66.5 22.8 C-90.8 26.7 -114.9 31.8 -138.5 38.7 C-143 40 -143 40 -145 40 C-149 23 -149 23 -149 14 C-137.3 10.7 -125.4 9.1 -113.4 7.3 C-112.4 7.2 -112.4 7.2 -107 6.3 C-91.4 4 -91.4 4 -88 4 C-88 3.3 -88 2.7 -88 2 C-108.5 2 -128.9 2 -150 2 C-150 -45 -29.5 -7.2 0 0 Z " fill="#FBFBFB" transform="translate(751,544)"/>
<path d="M0 0 C1.1 0.2 1.1 0.2 6.9 1.3 C9.2 1.8 11.6 2.3 14 2.7 C15.1 3 15.1 3 20.9 4.1 C48.6 9.6 76.2 15.2 103.6 22.2 C113.7 24.7 123.7 26.9 134 28.7 C134 31.7 134 31.7 129 33.7 C127.5 33.9 127.5 33.9 120 34.7 C120 39.7 120 39.7 128 42.7 C128 44.1 128 45.4 128 46.7 C125.6 46.9 123.2 47 120.7 47.2 C113 47.7 113 47.7 110 48.7 C107.3 48.7 104.7 48.7 101.9 48.7 C77.5 48.6 53.5 51.8 29.6 56.9 C25 57.7 25 57.7 17 57.7 C17 58.4 17 59.1 17 59.7 C1.7 62.6 1.7 62.6 -5 63.7 C-5 64.4 -5 65.1 -5 65.7 C-7.2 66.3 -9.3 66.9 -11.5 67.6 C-19 69.7 -19 69.7 -27 72.7 C-29.7 73.5 -32.5 74.3 -35.3 75.1 C-43.9 77.7 -51.5 80.7 -59 85.7 C-73.1 82.2 -70.6 30.9 -70.7 19.7 C-67.7 -17.7 -26.3 -5.1 0 0 Z M-61 21.7 C-61 24 -61 26.4 -61 28.7 C-40.6 28.7 -20.1 28.7 1 28.7 C1 29.4 1 30.1 1 30.7 C-1.4 31 -3.8 31.3 -6.3 31.6 C-16.1 32.8 -25.9 34.2 -35.7 35.7 C-37.4 36 -39.1 36.3 -40.8 36.5 C-47.4 37.6 -53.7 38.6 -60 40.7 C-60 49.9 -58.1 57.9 -56 66.7 C-49.9 65.2 -43.9 63.7 -37.8 62.1 C-1.8 52.9 34.1 47.3 71 43.7 C72.6 43.6 74.2 43.4 75.8 43.2 C85.6 42.3 95.5 42.3 105.4 42 C112 41.7 112 41.7 114 40.7 C114 25.5 53.4 18.5 39 15.7 C37.6 15.5 37.6 15.5 30.7 14.1 C-53.7 -1.5 -53.7 -1.5 -61 21.7 Z " fill="#081E70" transform="translate(662.0234375,517.26171875)"/>
<path d="M0 0 C6 2 6 2 12.8 5.1 C22.1 9.2 31.7 12.5 41.4 15.8 C55.2 20.5 68.9 25.5 82.4 31 C92.4 35 102.5 38.7 112.8 42.2 C119.6 44.6 126.3 47.2 133 50 C130 61.8 110.2 66.4 100 70 C98.4 70.7 96.7 71.3 95 72 C52.2 72.6 12.5 58.1 1 13 C0.5 8.7 0.1 4.3 0 0 Z " fill="#06196A" transform="translate(594,411)"/>
<path d="M0 0 C0 0.7 0 1.3 0 2 C-1 2.1 -1 2.1 -5.8 2.7 C-20.9 5.4 -27.6 11.9 -36.8 23.9 C-42.8 31.5 -49.9 35 -59.1 37.9 C-77.8 44.5 -78.1 61.9 -77 79 C-74.2 95.2 -69.1 110.2 -62 125 C-61.3 126.6 -60.6 128.1 -59.8 129.7 C-50.8 149.2 -50.8 149.2 -45 155 C-55.4 163.8 -55.4 163.8 -61 166 C-67 171 -67 171 -71 175 C-71.8 175.3 -71.8 175.3 -76 177 C-77 178 -78 179 -79 180 C-79.7 180 -80.3 180 -81 180 C-81 180.7 -81 181.3 -81 182 C-87.8 188.8 -94.8 195.1 -103 200 C-104.6 202 -106.3 204 -108 206 C-110.7 208.4 -113.3 210.7 -116 213 C-118.8 215.7 -121.5 218.4 -124.2 221.1 C-125.5 222.4 -126.9 223.8 -128.3 225.2 C-131.3 228.3 -134.2 231.6 -137 235 C-138 235.8 -138 235.8 -143 240 C-144.3 242.3 -145.6 244.6 -147 247 C-147.7 247 -148.3 247 -149 247 C-149.7 248.6 -150.3 250.3 -151 252 C-153 253.3 -155 254.6 -157 256 C-162.8 262.5 -168.2 268.8 -173 276 C-173.7 276 -174.3 276 -175 276 C-175.7 278 -176.3 280 -177 282 C-178.3 283.6 -179.6 285.3 -181 287 C-182.3 289.3 -183.6 291.6 -185 294 C-186.3 295.6 -187.6 297.3 -189 299 C-191 303 -193 307 -195 311 C-196.3 313.2 -197.5 315.3 -198.8 317.6 C-206.7 331.6 -212.8 345.7 -218 361 C-219 363 -220 365 -221 367 C-222 376 -222 376 -220 377 C-219.7 376.3 -219.7 376.3 -218 373 C-218 379 -218 379 -220 384 C-214 381 -214 381 -210 378.2 C-165.7 349.3 -112 338.9 -60.1 338.7 C-57.3 338.7 -54.4 338.6 -51.4 338.6 C-29.8 338.5 -9.2 340.6 12 345 C12 345.3 12 345.7 12 346 C10.4 346 8.7 346 7 346 C8 350 8 350 15 352 C15 352.7 15 353.3 15 354 C18.3 354 21.6 354 25 354 C40.6 357.3 55.9 362.1 71 367 C73.8 367.9 76.7 368.7 79.6 369.6 C85.5 371.5 91.2 373.6 97 376 C98.9 376.8 100.8 377.5 102.8 378.3 C131.5 389.7 157.9 401 181 422 C195 432.7 209.7 441.5 225 450 C225 450.7 225 451.3 225 452 C226.6 452.3 228.3 452.7 230 453 C233.3 454.7 236.7 456.3 240 458 C243.9 459.6 247.8 461.2 251.8 462.8 C253.7 463.5 255.7 464.3 257.7 465.1 C263 467 263 467 269 468 C269 468.7 269 469.3 269 470 C272.3 470 275.6 470 279 470 C281.6 470.7 284.3 471.3 287 472 C291 472.2 295 472.3 299.1 472.2 C300.1 472.3 300.1 472.3 305.3 472.3 C311 472 311 472 318 470 C322.7 469.9 327.3 469.9 332 470 C281.3 495.4 209.2 450.5 172.3 418.1 C159.9 407.7 147 400.1 132.2 393.6 C130.5 392.9 128.9 392.2 127.2 391.4 C111.1 384.4 94.7 378.5 78 373 C75.5 372.2 73 371.3 70.5 370.5 C46.2 362.5 22.3 356.8 -3 353 C-5 352.7 -7.1 352.4 -9.2 352.1 C-57.5 344.9 -106.3 348.7 -153 363 C-156.1 363.9 -159.1 364.9 -162.2 365.8 C-188 375.2 -210.6 388.6 -230 408 C-230.7 408 -231.3 408 -232 408 C-230.6 349.8 -193.1 293.5 -156.1 251 C-150 244 -150 244 -148 241 C-147.3 241 -146.7 241 -146 241 C-145.3 239.7 -144.7 238.4 -144 237 C-141.5 234.3 -139 231.8 -136.4 229.2 C-134.9 227.7 -133.4 226.1 -131.8 224.5 C-130.2 222.9 -128.5 221.3 -126.9 219.7 C-125.3 218.1 -123.7 216.5 -122 214.9 C-115.2 208 -108.3 201.3 -101 195 C-99.5 193.6 -97.9 192.2 -96.4 190.8 C-90.1 185.2 -83.6 180.1 -77 175 C-75.6 173.9 -74.1 172.8 -72.7 171.6 C-65.3 165.9 -58.1 160.5 -50 156 C-51.3 150.7 -53.9 146.4 -56.5 141.5 C-93.2 71.6 -93.2 71.6 -71 42 C-62.6 35.7 -54.8 32.7 -45 29 C-40 25 -40 25 -37.2 20.9 C-28.1 7.2 -17.3 -2.9 0 0 Z " fill="#B87C03" transform="translate(377,454)"/>
<path d="M0 0 C33.4 8.4 70.9 41.2 69 77 C50.4 141.6 -69.7 138.7 -122.5 138.4 C-128.6 138.4 -134.7 138.4 -140.8 138.4 C-144.7 138.4 -148.7 138.3 -152.6 138.3 C-154.4 138.3 -156.2 138.3 -158 138.3 C-169.1 138.2 -180 137.4 -191 136 C-194.9 135.8 -198.8 135.7 -202.7 135.6 C-211.8 135.2 -220.1 133.8 -229 132 C-236.4 131.2 -243.7 130.5 -251.1 129.8 C-257.4 129.1 -262.9 127.7 -269 126 C-272.7 125.3 -276.5 124.7 -280.2 124.1 C-289.3 122.5 -298.1 120.4 -307 118 C-309.1 117.7 -311.1 117.3 -313.2 117 C-319.2 116 -324.3 114.1 -330 112 C-333 111.7 -335.9 111.3 -339 111 C-339 110.3 -339 109.7 -339 109 C-340.2 108.8 -340.2 108.8 -346 108 C-355 105.9 -363.5 103.7 -372 100 C-366.1 98 -359.2 101.5 -353.5 103.1 C-328.5 109.8 -303.6 115 -278 119 C-275.9 119.3 -273.8 119.7 -271.6 120.1 C-225.6 127.5 -179.5 130.4 -133 130 C-130.1 130 -127.3 130 -124.3 129.9 C-73.7 129.1 38.7 127.1 54 66 C54 34.6 29.2 18.9 5 4 C3.4 2.7 1.7 1.4 0 0 Z " fill="#F8FAF2" transform="translate(921,211)"/>
<path d="M0 0 C2.1 32.8 -18.4 52.7 -46.8 64.4 C-72 70 -95.4 64.5 -116 49 C-115 46 -115 46 -109.4 43.9 C-101.9 41 -94.4 37.9 -86.9 34.9 C-84.1 33.7 -81.3 32.6 -78.4 31.4 C-77 30.8 -77 30.8 -70 28 C-67.6 27 -65.3 26.1 -62.9 25.1 C-53.8 21.4 -44.8 17.7 -35.8 14 C-33.4 13.1 -31.1 12.1 -28.6 11.1 C-27.6 10.7 -27.6 10.7 -22.2 8.5 C-17.8 6.7 -13.3 5 -8.8 3.2 C-0.4 0 -0.4 0 0 0 Z " fill="#09176F" transform="translate(877,414)"/>
<path d="M0 0 C0 15.8 -38.4 44.4 -50 53 C-51.3 54 -52.6 54.9 -53.9 55.9 C-101.7 90.7 -158.7 109.7 -217 116 C-218.6 116.2 -220.2 116.4 -221.8 116.5 C-235.1 118 -248.3 118.3 -261.7 118.2 C-262.7 118.2 -262.7 118.2 -267.9 118.2 C-282.7 118.1 -282.7 118.1 -285 117 C-284 114 -284 114 -277.8 112.2 C-262.7 107.5 -248.1 101.4 -233.5 95.3 C-229.7 93.7 -225.9 92.3 -222 91 C-222 91.7 -222 92.3 -222 93 C-200.5 93.3 -180.2 91.4 -159 87.6 C-158.2 87.5 -158.2 87.5 -153.9 86.7 C-144.7 85.1 -135.9 82.9 -127 80 C-125.3 79.5 -123.7 79 -121.9 78.4 C-113.8 75.9 -105.8 73.3 -98 70 C-97 69.6 -97 69.6 -91.8 67.4 C-87.8 65.8 -83.9 63.9 -80 62 C-79.3 62 -78.7 62 -78 62 C-78 61.3 -78 60.7 -78 60 C-76.3 59.1 -74.7 58.2 -73 57.3 C-68.2 54.7 -63.6 51.9 -59 49 C-57 48.3 -55 47.7 -53 47 C-35.7 36.6 -35.7 36.6 -30 29 C-28.3 28 -26.7 27 -25 26 C-22 23.2 -19 20.3 -16.1 17.3 C-14.6 15.8 -13 14.2 -11.4 12.6 C-7.5 8.5 -3.7 4.3 0 0 Z " fill="#967412" transform="translate(1113,775)"/>
<path d="M0 0 C8.6 0.3 17.1 0.5 25.7 0.7 C33 1 33 1 35 2 C35 2.7 35 3.3 35 4 C34.3 4.1 34.3 4.1 30.8 4.6 C25 6 25 6 18.3 9.6 C9.2 14.5 5.8 13.3 -4 10 C-15.5 10 -16.8 11.6 -25 19 C-35.6 27.9 -45.5 29.4 -59 31 C-64 33 -64 33 -66 37 C-76.2 55.3 -87.9 62.1 -108 67 C-115.3 70.7 -106.6 96.6 -105 103 C-92.7 139.6 -66.9 173.2 -36 196 C-34.8 196.9 -34.8 196.9 -28.8 201.4 C-19.1 208.4 -9.2 214.9 1 221 C1 221.7 1 222.3 1 223 C2.3 223.3 3.6 223.7 5 224 C0.1 226.5 -6.3 221 -11.2 218.9 C-16 217 -16 217 -23 215 C-26.7 212.4 -30.4 209.7 -34 207 C-36.3 205.4 -38.5 203.9 -40.9 202.2 C-81 172.7 -121.4 117.1 -120 65 C-116.1 57.1 -108.6 55.1 -100.4 53.1 C-87 49.3 -80.2 40.6 -72.9 29.1 C-67.5 21.5 -61.8 20.3 -53 18.9 C-41 17.1 -35 13.2 -26 5 C-17.9 -0.4 -9.8 -3.3 0 0 Z " fill="#FAFAF1" transform="translate(437,456)"/>
<path d="M0 0 C8.6 4.3 12.3 13.6 16 22 C18.6 27.2 21.2 32.4 23.9 37.5 C41.7 74.3 44.8 114.1 36 154 C35.6 156 35.1 158 34.7 160 C32 171.8 28.9 182.8 24 194 C23.2 196.2 22.3 198.5 21.5 200.8 C19.1 206.8 16.2 212.3 13 218 C12.3 219.6 11.7 221.3 11 223 C9.4 226.3 7.7 229.7 6 233 C5.3 234.3 5.3 234.3 2 241 C-0.3 245 -2.6 249 -5 253 C-6.3 255.3 -7.6 257.6 -9 260 C-11.3 263.4 -13.6 266.7 -16 270 C-17 271.4 -17.9 272.7 -18.9 274.1 C-52.8 322 -52.8 322 -64 322 C-64 322.7 -64 323.3 -64 324 C-65.4 324.9 -66.8 325.8 -68.2 326.7 C-73 330 -73 330 -78 335 C-81 337.4 -84 339.7 -87 342 C-88.4 343.2 -89.9 344.3 -91.4 345.5 C-96.4 349.3 -101.7 352.6 -107 356 C-108.5 357.1 -110.1 358.2 -111.7 359.4 C-136.1 376 -164.3 386.9 -192.2 396.1 C-197 397.7 -201.8 399.3 -206.6 400.9 C-225.5 407 -225.5 407 -233 402 C-231 399 -231 399 -221.8 397.1 C-207.6 393.8 -193.9 389.4 -180 385 C-177 384.1 -174 383.2 -170.9 382.2 C-138 371.6 -107.7 352.8 -81 331 C-80.1 330.3 -80.1 330.3 -75.3 326.5 C-70.7 322.6 -66.8 318.7 -63 314 C-62.3 314 -61.7 314 -61 314 C-60.3 312.7 -59.7 311.4 -59 310 C-55.3 306.3 -51.6 302.6 -47.8 298.9 C-43.2 294.2 -39.1 289.2 -35 284 C-33.4 282 -31.8 280 -30.2 278 C-24 269.6 -18.5 260.9 -13 252 C-11.6 249.7 -10.1 247.4 -8.6 245.1 C-5.1 239.2 -2 233.2 1 227 C2.3 224.4 3.6 221.8 4.9 219.2 C6.3 216.5 7.6 213.8 9 211 C10.1 208.8 11.3 206.5 12.4 204.2 C41.3 137.8 42.1 63.5 -1 3 C-0.7 2 -0.3 1 0 0 Z " fill="#C78A02" transform="translate(1176,522)"/>
<path d="M0 0 C1.8 0.8 3.6 1.6 5.4 2.4 C49.8 22.8 107 68.6 107 123 C105 120 105 120 102.2 112 C93.1 86.7 75.8 66.6 55 50 C53.3 48.5 51.6 47.1 49.8 45.6 C17 19.8 -24.9 3.3 -65 -7 C-71.1 -31.3 -10.5 -4.7 0 0 Z " fill="#FBF5F5" transform="translate(1056,475)"/>
<path d="M0 0 C11 33.1 -68.9 111.3 -90 128 C-92.6 130.1 -95.2 132.3 -97.8 134.4 C-131.1 161.5 -169.1 181.2 -210 194 C-211.8 194.6 -213.7 195.2 -215.6 195.8 C-289.5 218.7 -370.5 213.4 -444.6 194.6 C-456.4 191.6 -463.1 190.7 -474.7 194.6 C-482 197 -482 197 -486 196 C-478 193 -478 193 -471 192 C-471 191.3 -471 190.7 -471 190 C-461.5 186.8 -455.4 187.9 -446 191 C-436 193.6 -426.1 195.9 -416 198 C-413 198.7 -410.1 199.3 -407 200 C-400.7 200.4 -394.3 200.7 -388 201 C-387 201.3 -386 201.7 -385 202 C-367.8 202.4 -367.8 202.4 -361 199 C-356.9 198.8 -352.8 198.8 -348.8 198.8 C-346.3 198.9 -343.8 198.9 -341.2 198.9 C-338.6 198.9 -336 198.9 -333.2 198.9 C-286 199.3 -286 199.3 -265.8 196.4 C-255.4 195 -255.4 195 -250 195 C-250.3 195.7 -250.7 196.3 -251 197 C-241.1 202 -225.4 194.9 -216 191.7 C-210.7 189.9 -205.4 188.2 -200.1 186.4 C-192.6 183.9 -185.3 181.2 -178 178 C-177.2 177.6 -177.2 177.6 -173.1 175.9 C-156.6 168.5 -140.6 160.7 -126 150 C-124.2 148.8 -122.3 147.7 -120.4 146.5 C-115.4 143.2 -110.7 139.8 -106 136 C-103.9 134.5 -101.9 132.9 -99.8 131.4 C-94 127 -94 127 -89 122 C-85 119 -85 119 -83 119 C-83 118.3 -83 117.7 -83 117 C-81.8 116.2 -80.7 115.4 -79.5 114.5 C-63.5 101.4 -50.9 85.8 -38.9 69 C-36.7 66 -34.4 63 -32 60 C-30.7 57.7 -29.4 55.4 -28 53 C-27.5 52.2 -27.5 52.2 -25 48 C-20.8 40.7 -16.8 33.5 -13 26 C-8.7 17.3 -4.3 8.7 0 0 Z " fill="#AE6E07" transform="translate(1195,727)"/>
<path d="M0 0 C7.5 0.8 15 1.4 22.4 2.1 C40.6 4.3 50.7 8.3 61 24 C61 25 61 26 61 27 C56.9 26 53 24.7 49 23.4 C26.4 16.2 3.5 11.4 -20 8 C-21.1 7.8 -21.1 7.8 -26.7 7 C-42.3 5.1 -57.7 4.7 -73.4 4.7 C-75.4 4.7 -77.5 4.7 -79.5 4.7 C-89.9 4.7 -99.7 5.4 -110 7 C-116.3 7.5 -122.6 7.9 -128.9 8.3 C-143.7 9.4 -157.7 11.2 -172 15 C-173.6 15.4 -173.6 15.4 -181.4 17.3 C-183.6 17.9 -185.8 18.4 -188 19 C-184.7 9 -158.8 6.1 -149.7 3.8 C-146.9 3.1 -144.2 2.4 -141.3 1.7 C-133.1 0 -125.3 -0.6 -117 -1 C-115.2 -1.3 -113.3 -1.7 -111.4 -2 C-84 -6.3 -25.4 -12.7 0 0 Z " fill="#9A6F14" transform="translate(412,755)"/>
<path d="M0 0 C6.9 0.9 12.3 2.2 18.9 4.4 C19.9 4.7 19.9 4.7 25.3 6.5 C27.6 7.2 29.9 8 32.2 8.8 C34.5 9.5 36.8 10.3 39.2 11.1 C97 30.2 97 30.2 97 33 C61.5 49.4 28 44.7 5 12 C0 3.7 0 3.7 0 0 Z " fill="#FCFBFA" transform="translate(609,432)"/>
<path d="M0 0 C5 7 5 7 5 10 C2.4 11 -0.3 12 -3 13 C-6.7 15.3 -10.4 17.6 -14 20 C-15.8 21.2 -17.6 22.4 -19.5 23.6 C-38.7 36.7 -56.2 51 -73 67 C-76 69.8 -78.9 72.5 -81.9 75.3 C-91 83.9 -99.8 92.6 -108 102 C-109.2 103.2 -110.5 104.4 -111.8 105.6 C-117.3 111.4 -122.1 117.7 -127 124 C-130.7 128.3 -134.3 132.7 -138 137 C-140 139.6 -142 142.3 -144 145 C-144.7 145 -145.3 145 -146 145 C-144.4 138.8 -140.6 134.3 -137 129 C-136 127.5 -135 126.1 -134 124.6 C-123.7 109.4 -112.9 94.9 -101 81 C-99.7 79.4 -98.4 77.7 -97.1 76 C-91 68.8 -84.5 62.1 -77.8 55.5 C-77.2 54.9 -77.2 54.9 -74.1 51.7 C-66.2 43.8 -57.9 36.8 -49 30 C-46.9 28.2 -44.8 26.4 -42.6 24.5 C-10.6 -2.1 -10.6 -2.1 0 0 Z " fill="#F7F3F5" transform="translate(355,634)"/>
<path d="M0 0 C9.7 7.7 9.7 7.7 7 17 C6.3 35.3 6 55.5 21 68 C20.7 60.7 20.3 53.5 20 46 C21.6 46.7 23.3 47.3 25 48 C24 50 24 50 22 50 C25 58 25 58 27 59 C27.2 60.6 27.2 60.6 28 69 C28.7 69 29.3 69 30 69 C30 77.1 29.5 81.6 27 89 C-0.1 83.6 -11.3 55.9 -12.3 31.2 C-11 -2.8 -11 -2.8 0 0 Z " fill="#A97A1B" transform="translate(481,488)"/>
<path d="M0 0 C14.9 7.4 15 35.6 14 50 C-0.3 97.3 -52.9 116.2 -97 126 C-102.3 127.3 -107.7 128.6 -113 129.9 C-118 131 -118 131 -125 132 C-125 124.4 -111.4 123.6 -105.8 122.2 C-61.4 110.6 4.2 85.8 4.3 30.8 C4.3 29.8 4.3 29.8 4.4 24.4 C4 17.9 2.7 12.3 1 6 C0.8 5 0.8 5 0 0 Z " fill="#FAFAEA" transform="translate(1028,264)"/>
<path d="M0 0 C5.1 10.2 -13.1 27.7 -20 34 C-40 47.1 -65.1 46.8 -86 36 C-85 33 -85 33 -76.9 29.9 C-64.7 25.3 -52.5 20.5 -40.4 15.7 C-26.9 10.4 -13.5 5.1 0 0 Z " fill="#FBFBF9" transform="translate(866,429)"/>
<path d="M0 0 C-1 2 -1 2 -10.5 2 C-54.7 4 -86.1 34.7 -107 70.9 C-110 76 -110 76 -113 78 C-117.1 50.5 -117.1 50.5 -106 39 C-103.9 36.8 -101.8 34.6 -99.6 32.3 C-75.2 9.1 -34 -11.3 0 0 Z " fill="#F8F7F3" transform="translate(805,624)"/>
<path d="M0 0 C2.5 -0 4.9 -0 7.5 -0 C10 -0 12.5 0 15.2 0 C16.4 0 16.4 0 22.9 -0 C25.4 -0 27.8 -0 30.4 0 C32.6 0 34.8 0 37.2 0 C42.7 0.1 42.7 0.1 47.7 1.1 C50.5 1.3 53.4 1.4 56.4 1.6 C65.7 2.1 65.7 2.1 74.7 4.1 C78 4.6 81.4 4.9 84.7 5.3 C86.2 5.4 86.2 5.4 93.7 6.1 C93.7 6.8 93.7 7.5 93.7 8.1 C97 8.1 100.3 8.1 103.7 8.1 C119.3 11.4 134.5 16.2 149.7 21.1 C152.5 22 155.3 22.9 158.2 23.8 C164.2 25.7 169.9 27.8 175.7 30.1 C177.6 30.9 179.5 31.6 181.5 32.4 C210.2 43.8 236.6 55.1 259.7 76.1 C273.6 86.8 288.3 95.6 303.7 104.1 C303.7 104.8 303.7 105.5 303.7 106.1 C305.3 106.5 307 106.8 308.7 107.1 C312 108.8 315.3 110.5 318.7 112.1 C322.6 113.8 326.5 115.3 330.4 116.9 C331.4 117.3 331.4 117.3 336.4 119.2 C341.7 121.1 341.7 121.1 347.7 122.1 C347.7 122.8 347.7 123.5 347.7 124.1 C351 124.1 354.3 124.1 357.7 124.1 C360.3 124.8 362.9 125.5 365.7 126.1 C369.7 126.3 373.7 126.4 377.7 126.4 C379.8 126.4 381.9 126.4 384 126.4 C389.7 126.1 389.7 126.1 396.7 124.1 C401.3 124.1 406 124 410.7 124.1 C359.9 149.5 287.8 104.6 251 72.3 C238.6 61.9 225.6 54.2 210.8 47.8 C209.2 47 207.5 46.3 205.8 45.5 C189.7 38.5 173.3 32.6 156.7 27.1 C154.2 26.3 151.7 25.5 149.1 24.6 C124.8 16.6 100.9 11 75.7 7.1 C73.6 6.8 71.6 6.5 69.5 6.2 C21.1 -1 -27.6 2.8 -74.3 17.1 C-77.4 18.1 -80.4 19 -83.6 19.9 C-98.8 25.5 -112.7 32.5 -126.3 41.1 C-127 41.1 -127.7 41.1 -128.3 41.1 C-128.3 34.2 -105 25.9 -99.3 23.1 C-97.2 22.1 -95.1 21.1 -93 20 C-79.7 14.3 -66.6 10.6 -52.3 8.1 C-50 7.5 -47.7 6.8 -45.3 6.1 C-44.4 6 -44.4 6 -39.3 5.2 C-33.3 4.1 -33.3 4.1 -26.3 1.1 C-17.6 0.2 -8.8 0 0 0 Z " fill="#623B19" transform="translate(298.34375,799.8671875)"/>
<path d="M0 0 C0 0.7 0 1.3 0 2 C-1 2.1 -1 2.1 -5.8 2.7 C-20.9 5.4 -27.6 11.9 -36.8 23.9 C-42.8 31.5 -49.9 35 -59.1 37.9 C-77.8 44.5 -78.1 61.9 -77 79 C-74.2 95.2 -69.1 110.2 -62 125 C-61.3 126.6 -60.6 128.1 -59.8 129.7 C-50.8 149.2 -50.8 149.2 -45 155 C-55.4 163.8 -55.4 163.8 -61 166 C-67 171 -67 171 -71 175 C-71.8 175.3 -71.8 175.3 -76 177 C-77 178 -78 179 -79 180 C-79.7 180 -80.3 180 -81 180 C-81 180.7 -81 181.3 -81 182 C-87.8 188.8 -94.8 195.1 -103 200 C-104.6 202 -106.3 204 -108 206 C-110.7 208.4 -113.3 210.7 -116 213 C-118.8 215.7 -121.5 218.4 -124.2 221.1 C-125.5 222.4 -126.9 223.8 -128.3 225.2 C-131.3 228.3 -134.2 231.6 -137 235 C-138 235.8 -138 235.8 -143 240 C-144.3 242.3 -145.6 244.6 -147 247 C-147.7 247 -148.3 247 -149 247 C-149.7 248.6 -150.3 250.3 -151 252 C-153 253.3 -155 254.6 -157 256 C-162.8 262.5 -168.2 268.8 -173 276 C-173.7 276 -174.3 276 -175 276 C-175.7 278 -176.3 280 -177 282 C-178.3 283.6 -179.6 285.3 -181 287 C-182.3 289.3 -183.6 291.6 -185 294 C-186.3 295.6 -187.6 297.3 -189 299 C-191 303 -193 307 -195 311 C-196.3 313.2 -197.5 315.3 -198.8 317.6 C-206.7 331.6 -212.8 345.7 -218 361 C-219 363 -220 365 -221 367 C-221.7 369.3 -222.3 371.6 -223 374 C-223.7 374 -224.3 374 -225 374 C-225.1 375.7 -225.2 377.5 -225.4 379.2 C-226 385 -226 385 -228 389 C-228.4 393.7 -228.7 398.3 -229 403 C-224 399 -224 399 -223 397 C-222 397 -221 397 -220 397 C-220 396.3 -220 395.7 -220 395 C-209 387 -209 387 -207 388 C-208.2 388.9 -209.3 389.9 -210.5 390.9 C-212 392.1 -213.6 393.3 -215.1 394.6 C-216.6 395.9 -218.1 397.1 -219.7 398.4 C-224 402 -224 402 -230 408 C-230.7 408 -231.3 408 -232 408 C-230.6 349.8 -193.1 293.5 -156.1 251 C-150 244 -150 244 -148 241 C-147.3 241 -146.7 241 -146 241 C-145.3 239.7 -144.7 238.4 -144 237 C-141.5 234.3 -139 231.8 -136.4 229.2 C-134.9 227.7 -133.4 226.1 -131.8 224.5 C-130.2 222.9 -128.5 221.3 -126.9 219.7 C-125.3 218.1 -123.7 216.5 -122 214.9 C-115.2 208 -108.3 201.3 -101 195 C-99.5 193.6 -97.9 192.2 -96.4 190.8 C-90.1 185.2 -83.6 180.1 -77 175 C-75.6 173.9 -74.1 172.8 -72.7 171.6 C-65.3 165.9 -58.1 160.5 -50 156 C-51.3 150.7 -53.9 146.4 -56.5 141.5 C-93.2 71.6 -93.2 71.6 -71 42 C-62.6 35.7 -54.8 32.7 -45 29 C-40 25 -40 25 -37.2 20.9 C-28.1 7.2 -17.3 -2.9 0 0 Z " fill="#5C3D14" transform="translate(377,454)"/>
<path d="M0 0 C6.5 1.3 10.8 4.9 16.1 8.6 C27.9 16.8 39.9 24.4 52 32 C58.6 36.1 65.2 40.4 71.7 44.6 C79.7 49.9 87.8 55 96 60 C99.4 62.2 102.9 64.4 106.3 66.6 C124.8 78.3 143.4 89.9 162.1 101.3 C179 111.8 179 111.8 179 114 C171.8 111.6 166.5 108 160 104 C146.8 96.2 133.4 88.5 120 81 C97.2 68.2 74.5 55.2 51.9 41.9 C41.6 35.9 31.2 30 20.7 24.2 C0 12.5 0 12.5 0 0 Z " fill="#0E224C" transform="translate(515,638)"/>
<path d="M0 0 C7.7 1.5 14 5.5 21 9 C23.8 10.3 26.7 11.6 29.6 13 C45.9 20.8 115 55.6 115 75 C115.7 75.3 115.7 75.3 119 77 C121.4 79.6 123.7 82.3 126 85 C127.7 86.7 129.3 88.5 131.1 90.2 C184.3 150.8 192.6 235.6 159 308 C158.3 308.7 157.7 309.3 157 310 C158.8 300.9 162.4 292.5 166 284 C167.3 279.3 168.4 274.6 169.6 269.8 C170.2 267.3 170.8 264.8 171.4 262.3 C178.8 228.9 180.1 191.9 167 160 C166 157 165 154.1 164 151 C161.4 145.6 158.7 140.3 156 135 C153.7 130.4 151.4 125.7 149.2 121.1 C141 105.5 141 105.5 135 107 C133.7 105.4 132.5 103.9 131.2 102.2 C126 96 120.5 90 115 84 C113.3 82 111.7 80 110 78 C103.9 72.4 97.4 67.2 91 62 C95 61 95 61 101 65 C101 65.7 101 66.3 101 67 C101.7 67 102.3 67 103 67 C97 60 97 60 91 56 C88.8 54 86.5 52.1 84.2 50.1 C78.7 45.4 74.3 42.2 68 39 C66.5 37.9 65 36.9 63.4 35.8 C43.6 21.9 21.6 11.6 0 1 C0 0.7 0 0.3 0 0 Z " fill="#715417" transform="translate(1039,417)"/>
<path d="M0 0 C11 33.1 -68.9 111.3 -90 128 C-92.6 130.1 -95.2 132.3 -97.8 134.4 C-131.1 161.5 -169.1 181.2 -210 194 C-211.8 194.6 -213.7 195.2 -215.6 195.8 C-242.1 204 -270.2 209.6 -298 209 C-298 208.7 -298 208.3 -298 208 C-297.2 207.9 -297.2 207.9 -292.9 207.4 C-290.7 207.2 -288.4 206.9 -286.1 206.6 C-283.9 206.4 -281.7 206.1 -279.4 205.9 C-273.9 205.1 -268.5 204.1 -263 203 C-260.5 202.7 -258 202.4 -255.4 202.1 C-248 201 -248 201 -239 198 C-238.3 197.9 -238.3 197.9 -234.6 197.2 C-228.2 195.8 -222.2 193.8 -216 191.7 C-210.7 189.9 -205.4 188.2 -200.1 186.4 C-192.6 183.9 -185.3 181.2 -178 178 C-176.4 177.3 -174.8 176.6 -173.1 175.9 C-156.6 168.5 -140.6 160.7 -126 150 C-124.2 148.8 -122.3 147.7 -120.4 146.5 C-115.4 143.2 -110.7 139.8 -106 136 C-103.9 134.5 -101.9 132.9 -99.8 131.4 C-94 127 -94 127 -89 122 C-85 119 -85 119 -83 119 C-83 118.3 -83 117.7 -83 117 C-81.8 116.2 -80.7 115.4 -79.5 114.5 C-63.5 101.4 -50.9 85.8 -38.9 69 C-36.7 66 -34.4 63 -32 60 C-30.7 57.7 -29.4 55.4 -28 53 C-27.5 52.2 -27.5 52.2 -25 48 C-20.8 40.7 -16.8 33.5 -13 26 C-8.7 17.3 -4.3 8.7 0 0 Z " fill="#5C451B" transform="translate(1195,727)"/>
<path d="M0 0 C-14.9 37.2 -72.1 68.6 -108 83 C-109 82.7 -110 82.3 -111 82 C-108 80 -108 80 -104 80 C-104 79.3 -104 78.7 -104 78 C-101 76.7 -98.1 75.4 -95 74 C-91.6 71.7 -88.3 69.4 -85 67 C-81.9 64.9 -78.8 62.9 -75.8 60.8 C-55.7 47 -37.6 29.7 -22 11 C-21.3 11 -20.7 11 -20 11 C-19.7 9.7 -19.3 8.4 -19 7 C-16.4 6 -13.8 5.1 -11.1 4.1 C-0.4 0 -0.4 0 0 0 Z " fill="#F4F5ED" transform="translate(975,446)"/>
<path d="M0 0 C-14.4 35.9 -65.3 67.8 -102 76 C-102 74 -102 74 -95 72 C-92.4 70.4 -89.7 68.7 -87 67 C-83.4 64.9 -79.8 62.8 -76.2 60.8 C-68.1 55.9 -60.4 50.9 -53 45 C-51 43.4 -49.1 41.9 -47.1 40.2 C-42 36 -42 36 -37 31 C-35.4 29.4 -33.8 27.8 -32.1 26.2 C-26.5 20.4 -21.2 14.5 -16.1 8.2 C-11.5 3.5 -7 0 0 0 Z " fill="#F4F6EC" transform="translate(1018,377)"/>
<path d="M0 0 C0 0.7 0 1.3 0 2 C-5.3 -0.1 -9.3 -2.9 -14 -6 C-28.1 -13.1 -42.6 -16.8 -58 -20 C-59.3 -20.3 -59.3 -20.3 -65.8 -21.6 C-97 -26.8 -138.3 -30.8 -167 -15 C-167 -25.3 -151.1 -27.2 -143.6 -28.6 C-101.4 -35.4 -32.2 -32.2 0 0 Z " fill="#F1F4D2" transform="translate(762,232)"/>
<path d="M0 0 C0 0.3 0 0.7 0 1 C-7.4 2.1 -14.6 2.5 -22 2.9 C-63.4 5.3 -63.4 5.3 -81 9 C-83.6 9.3 -86.1 9.6 -88.8 9.9 C-96.3 10.9 -103.6 12.4 -111 14 C-113 14.3 -115 14.6 -117 14.9 C-124.2 16 -131.2 17.6 -138.3 19.4 C-139.6 19.7 -139.6 19.7 -146 21.3 C-148.3 21.8 -150.6 22.4 -153 23 C-155.8 23.7 -158.5 24.3 -161.4 25 C-187.2 31.8 -213.1 39.9 -237 52 C-239.3 53 -241.6 54 -244 55 C-260.2 63.4 -260.2 63.4 -265 67 C-265.8 67.3 -265.8 67.3 -270 69 C-274.7 72.3 -279.4 75.6 -284 79 C-286 80.3 -288 81.6 -290 83 C-260.9 24.8 -61.2 -0.9 0 0 Z " fill="#533913" transform="translate(647,50)"/>
<path d="M0 0 C34.4 -1.8 69.9 12.7 101 26 C97 27 97 27 92 25 C90.3 24.8 88.6 24.7 86.9 24.5 C82 24 82 24 79 22 C73.3 21.3 67.7 20.6 62 20 C62 19.3 62 18.7 62 18 C61.1 18 61.1 18 56.4 18.1 C49.6 18 44.4 16.5 38 14 C33 15 33 15 30 16 C27.6 14.8 25.3 13.6 22.8 12.3 C15.6 8.8 8.5 5.7 1 3 C0.7 2 0.3 1 0 0 Z " fill="#AB6F14" transform="translate(983,525)"/>
<path d="M0 0 C-11.2 28.1 -51.4 59.9 -82 65 C-81 63 -81 63 -73.8 59.5 C-59.6 52.2 -48.2 42.2 -37 31 C-36.3 31 -35.7 31 -35 31 C-34.3 29.7 -33.7 28.4 -33 27 C-30.7 24.7 -28.4 22.4 -26 20 C-25.7 19.3 -25.3 18.7 -25 18 C-24.3 18 -23.7 18 -23 18 C-22.3 16.7 -21.7 15.4 -21 14 C-19 11.7 -17 9.4 -15 7 C-14.3 5.7 -13.7 4.4 -13 3 C-3.4 0 -3.4 0 0 0 Z " fill="#F7F6E8" transform="translate(919,523)"/>
<path d="M0 0 C4.8 7.1 6 16.8 8 25.1 C12.8 44.3 12.8 44.3 16 49 C16.3 50.2 16.3 50.2 18 56 C20.3 60.7 22.6 65.4 25 70 C26.3 72.6 27.6 75.2 28.9 77.9 C40.4 100.7 40.4 100.7 43 102 C43 99.7 43 97.4 43 95 C47 100 47 100 50.8 105.7 C54.6 111.4 58.6 116.7 63 122 C66 126 66 126 65 131 C61 135 61 135 43 136 C46.5 132.5 51.3 132.8 56 132 C53.5 127.6 50.9 123.3 48.1 119.1 C27.2 85.9 0 40.5 0 0 Z " fill="#AA7805" transform="translate(335,320)"/>
<path d="M0 0 C2.5 -0 4.9 -0 7.5 -0 C10 -0 12.5 0 15.2 0 C16.4 0 16.4 0 22.9 -0 C25.4 -0 27.8 -0 30.4 0 C32.6 0 34.8 0 37.2 0 C42.7 0.1 42.7 0.1 47.7 1.1 C50.5 1.3 53.4 1.4 56.4 1.6 C65.7 2.1 65.7 2.1 74.7 4.1 C78 4.6 81.4 4.9 84.7 5.3 C86.2 5.4 86.2 5.4 93.7 6.1 C93.7 6.8 93.7 7.5 93.7 8.1 C97 8.1 100.3 8.1 103.7 8.1 C104.6 8.8 105.6 9.5 106.7 10.1 C98.5 11.3 92.2 10.2 84 8.8 C81.3 8.4 78.5 7.9 75.7 7.5 C74.4 7.2 74.4 7.2 67.7 6.1 C20.3 -1.6 -28.7 3.2 -74.3 17.1 C-77.4 18.1 -80.4 19 -83.6 19.9 C-98.8 25.5 -112.7 32.5 -126.3 41.1 C-127 41.1 -127.7 41.1 -128.3 41.1 C-128.3 34.2 -105 25.9 -99.3 23.1 C-97.2 22.1 -95.1 21.1 -93 20 C-79.7 14.3 -66.6 10.6 -52.3 8.1 C-50 7.5 -47.7 6.8 -45.3 6.1 C-44.4 6 -44.4 6 -39.3 5.2 C-33.3 4.1 -33.3 4.1 -26.3 1.1 C-17.6 0.2 -8.8 0 0 0 Z " fill="#965F24" transform="translate(298.34375,799.8671875)"/>
<path d="M0 0 C22.3 4.5 46.1 20.5 66 31 C67.7 31.9 69.3 32.7 71 33.6 C75.7 36.1 80.4 38.5 85 41 C86.9 42 88.7 43 90.7 44 C110.5 54.5 129.4 66.4 148 79 C149.3 79.9 149.3 79.9 156.1 84.4 C182 102.8 182 102.8 182 110 C165.2 110 148.3 110 131 110 C132.7 114.9 134.3 119.9 136 125 C137.4 133.2 137.2 141.4 137.2 149.7 C137.3 150.5 137.3 150.5 137.3 154.8 C137.3 163.7 136.9 171.6 134 180 C133.7 180 133.3 180 133 180 C133.6 175.7 134.3 171.3 135 167 C135.2 161.4 135.3 155.7 135.3 150.1 C135.3 147 135.4 144 135.4 140.9 C135 131 133.5 122 129 113 C129 111.7 129 110.4 129 109 C145.5 108.7 162 108.3 179 108 C177 103 177 103 173 101 C171.8 99.9 170.6 98.9 169.3 97.8 C165.1 94 160.7 91.1 156 88 C149.6 83.8 143.3 79.5 136.9 75.2 C107.3 55.7 107.3 55.7 94.8 49.4 C88.9 46.5 83.3 43.4 77.6 40.3 C69.9 36.1 62.1 31.9 54.4 27.8 C52.7 26.9 51 26 49.2 25.1 C45 23 45 23 41 22 C41 21.3 41 20.7 41 20 C39 19.3 37 18.7 35 18 C0 1.7 0 1.7 0 0 Z " fill="#5E441E" transform="translate(949,146)"/>
<path d="M0 0 C3.7 -0 7.3 -0 11 -0.1 C12 -0.1 12 -0.1 17.2 -0.1 C23 0 23 0 31 1 C33.9 1 36.9 1 39.9 1 C57 1 57 1 59 3 C61.2 3 63.4 2.9 65.6 2.9 C73 3 73 3 79 5 C82.6 5.4 86.2 5.7 89.8 6 C95.3 6.4 100.6 6.9 106.1 8.1 C111 9 111 9 120.3 9 C129 9 129 9 134 11 C136.3 11 138.6 11 141 11 C142 11.7 143 12.3 144 13 C151.2 14.3 157.9 15 165.2 14.9 C193.8 15.3 193.8 15.3 205 22 C205 22.7 205 23.3 205 24 C196.9 23.1 189 22.2 181.1 20.6 C172.1 18.8 163.2 17.7 154.1 16.6 C150.4 16.2 146.7 15.8 143 15.3 C142.1 15.2 142.1 15.2 137.4 14.7 C129.3 13.7 121.2 12.6 113.1 11.5 C89 8.5 64.8 6.5 40.7 4.6 C31.6 3.8 22.5 3 13.4 2.2 C10.7 2 8.1 1.7 5.4 1.5 C3.6 1.3 1.8 1.2 0 1 C0 0.7 0 0.3 0 0 Z " fill="#1B1D32" transform="translate(679,103)"/>
<path d="M0 0 C0 3 0 3 -5.6 8 C-12 14 -17.5 19.5 -22 27 C-23.6 29.3 -25.3 31.6 -27 34 C-29.1 38 -31 42 -33 46 C-33.9 47.5 -34.7 49 -35.6 50.5 C-43 67.5 -46.9 93.4 -41 111 C-40.7 112.9 -40.5 114.8 -40.2 116.7 C-38.9 123.3 -37 128 -34 134 C-32.6 136.8 -31.2 139.6 -29.8 142.4 C-28.6 144.9 -27.3 147.4 -26 150 C-23.3 155.5 -22.8 160.8 -21.9 166.8 C-21.5 169.1 -21.2 171.4 -20.8 173.8 C-20 180 -20 180 -20 187 C-24 179.1 -24.7 169.7 -25.7 161 C-27.5 152.9 -31.2 146.4 -35 139 C-56.3 88.1 -45.8 34.4 0 0 Z " fill="#774E13" transform="translate(355,132)"/>
<path d="M0 0 C1.6 0 3.3 0 5 0 C4.7 0.2 4.7 0.2 3 1 C8.4 7.6 14.4 13.2 20.7 18.9 C28.6 26.4 36.3 34.2 44 42 C45.6 43.6 47.3 45.3 49 47 C53.3 51.3 56.9 55.2 53 61 C44.7 53.9 37.2 46.3 30 38 C28.4 36.2 26.8 34.5 25.1 32.7 C20.2 27.3 15.6 21.7 11 16 C9.6 14.4 8.1 12.8 6.6 11.1 C0 3.6 0 3.6 0 0 Z " fill="#CF9510" transform="translate(416,672)"/>
<path d="M0 0 C3.1 -0 6.3 -0 9.5 -0.1 C17 0.3 17 0.3 21 3.3 C19.4 3.3 17.8 3.3 16.2 3.3 C8.9 3.2 1.6 3.2 -5.6 3.2 C-8.1 3.2 -10.6 3.2 -13.2 3.1 C-15.7 3.1 -18.1 3.1 -20.6 3.1 C-21.7 3.1 -21.7 3.1 -27.4 3.1 C-34.4 3.3 -41.1 4.3 -48 5.3 C-54.3 5.8 -60.6 6.2 -66.9 6.6 C-81.7 7.7 -95.7 9.5 -110 13.3 C-111.6 13.7 -111.6 13.7 -119.4 15.6 C-120.5 15.9 -120.5 15.9 -126 17.3 C-120.7 1.6 -78.3 2.2 -65 2.4 C-54.7 2.4 -44.6 2.2 -34.3 1.3 C-22.9 0.4 -11.5 0.1 0 0 Z " fill="#8B7C38" transform="translate(350,756.6875)"/>
<path d="M0 0 C10 2.6 19.9 4.9 30 7 C31.6 7.4 33.1 7.8 34.7 8.2 C50.4 12.2 65.9 13.3 82 14 C82 14.7 82 15.3 82 16 C82.8 16 82.8 16 87.1 15.9 C94.1 16 101 16.4 108 17 C108 17.3 108 17.7 108 18 C71 18.7 35.9 12.3 0.2 3.2 C-11.1 0.4 -17.6 -0.2 -28.7 3.6 C-36 6 -36 6 -40 5 C-32 2 -32 2 -25 1 C-25 0.3 -25 -0.3 -25 -1 C-15.5 -4.2 -9.4 -3.1 0 0 Z " fill="#703F1C" transform="translate(749,918)"/>
<path d="M0 0 C4.8 7.1 6 16.8 8 25.1 C12.8 44.3 12.8 44.3 16 49 C16.3 50.2 16.3 50.2 18 56 C20.3 60.7 22.6 65.4 25 70 C26.2 72.5 27.5 75 28.8 77.6 C50.3 120.3 50.3 120.3 56 126 C56.3 127.3 56.7 128.6 57 130 C29.3 102.3 0 39.6 0 0 Z " fill="#624612" transform="translate(335,320)"/>
<path d="M0 0 C0 18.9 -46.2 50.9 -60 60 C-60.7 60 -61.3 60 -62 60 C-62 58 -62 58 -60 56 C-59.7 54.4 -59.3 52.7 -59 51 C-54.5 48 -50 45 -45.4 42 C-33.9 34.2 -33.9 34.2 -30 29 C-29.2 28.5 -29.2 28.5 -25 26 C-22 23.2 -19 20.3 -16.1 17.3 C-14.6 15.8 -13 14.2 -11.4 12.6 C-7.5 8.5 -3.7 4.3 0 0 Z " fill="#C3A214" transform="translate(1113,775)"/>
<path d="M0 0 C20.1 0 40.3 0 61 0 C61 2 61 2 54.1 3.2 C46.3 4.6 38.5 6 30.8 7.2 C28.6 7.6 26.5 8 24.4 8.3 C14.9 9.5 14.9 9.5 11 3 C8 2.7 5.1 2.3 2 2 C1.3 1.3 0.7 0.7 0 0 Z " fill="#233696" transform="translate(602,546)"/>
<path d="M0 0 C23.4 0 47.1 5.8 70 10 C72.2 10.4 74.4 10.8 76.6 11.2 C121.1 19.7 121.1 19.7 129 25 C121.3 24 114.1 22.3 106.6 20.5 C76.4 13.5 45.7 8.3 15 4 C16 7 16 7 19 9 C15.7 8.7 12.4 8.3 9 8 C10 7.3 11 6.7 12 6 C11 2 11 2 2 2 C1.3 1.3 0.7 0.7 0 0 Z " fill="#643C14" transform="translate(799,90)"/>
<path d="M0 0 C9.1 1.5 17.5 4.4 26.1 7.4 C28.9 8.4 31.7 9.4 34.6 10.4 C49.9 15.8 49.9 15.8 51 18 C52 18.3 53 18.7 54 19 C54.2 19.3 54.2 19.3 55 21 C59.3 23.5 63.6 25.8 68 28 C68 30 68 30 65 31 C62.2 29.5 59.5 27.9 56.6 26.4 C44 19.7 30.9 14.5 17.7 9.2 C0 1.9 0 1.9 0 0 Z " fill="#121F3B" transform="translate(819,171)"/>
<path d="M0 0 C0 0.3 0 0.7 0 1 C-0.9 1.1 -0.9 1.1 -5.4 1.7 C-44.5 7.1 -88.6 14.7 -121 39 C-121.7 39 -122.3 39 -123 39 C-123 32.1 -99.7 23.8 -94 21 C-91.9 20 -89.8 18.9 -87.6 17.9 C-74.4 12.1 -61.2 8.4 -47 6 C-44.7 5.3 -42.4 4.7 -40 4 C-26.6 1.9 -13.6 0 0 0 Z " fill="#634423" transform="translate(293,802)"/>
</svg>
