<?xml version="1.0" encoding="UTF-8"?>
<!-- Generator: visioncortex VTracer 0.6.5 -->
<svg version="1.1" xmlns="http://www.w3.org/2000/svg" width="2448" height="2308">
<path d="M0 0 C807.8 0 1615.7 0 2448 0 C2448 761.6 2448 1523.3 2448 2308 C1640.2 2308 832.3 2308 0 2308 C0 1546.4 0 784.7 0 0 Z " fill="#FEFEFD" transform="translate(0,0)"/>
<path d="M0 0 C0.9 -0 0.9 -0 5.5 -0 C143.7 -0.2 278.4 33.5 402.3 94.3 C404.3 95.3 406.2 96.2 408.3 97.2 C426.2 106.1 443.7 115.5 460.6 126.3 C465.5 129.4 470.5 132.5 475.6 135.4 C499.1 149.5 521.7 165.5 543.3 182.3 C545.4 183.9 547.6 185.6 549.8 187.2 C565.5 199.4 580.6 212 595.3 225.3 C596.5 226.4 597.7 227.4 599 228.5 C604.2 233.1 609.3 237.8 614.3 242.6 C616.9 245 619.5 247.4 622.1 249.8 C633.6 260.5 645 271.4 655.3 283.3 C657.5 285.7 659.7 288 662 290.4 C668.7 297.5 675 304.9 681.3 312.3 C683.3 314.6 685.2 316.8 687.2 319.1 C692.8 325.7 698 332.4 703.2 339.3 C705.9 342.8 708.7 346.1 711.5 349.5 C716.8 355.9 721.5 362.5 726.3 369.3 C728 371.5 729.7 373.8 731.4 376.1 C756 409.6 778.1 446.5 796.6 483.8 C799 488.7 801.5 493.5 804.1 498.2 C816.2 521.1 826 545.2 835.3 569.3 C836.1 571.3 836.8 573.2 837.6 575.3 C876.5 676.7 896.8 785 896.6 893.6 C896.6 896.7 896.6 899.7 896.6 902.9 C896.5 926.1 895.5 949.2 893.3 972.3 C893.1 974.9 892.9 977.5 892.6 980.1 C887.7 1031.7 878.5 1083.5 864.3 1133.3 C863.6 1136 862.8 1138.6 862.1 1141.3 C842 1211.6 813.7 1281.9 775.3 1344.3 C773.2 1347.8 771.2 1351.4 769.1 1354.9 C748.2 1390.3 724.4 1423.8 698.3 1455.6 C696 1458.5 693.6 1461.5 691.2 1464.4 C681.5 1476.5 671.2 1488 660.7 1499.4 C657.9 1502.5 655 1505.6 652.3 1508.8 C646.7 1515.1 640.8 1521 634.9 1526.9 C633.7 1528.1 632.5 1529.3 631.3 1530.5 C625.4 1536.3 619.6 1542 613.3 1547.3 C612 1548.6 610.7 1550 609.3 1551.3 C605.4 1555.2 601.4 1558.7 597.3 1562.3 C595.6 1563.9 593.8 1565.5 592 1567.2 C586.6 1572.1 581 1576.7 575.3 1581.3 C574.3 1582.2 574.3 1582.2 569 1586.7 C529.3 1620.1 485.3 1648.7 440.3 1674.3 C438.2 1675.6 436.1 1676.8 433.9 1678.1 C396.8 1698.8 358 1716.2 318.3 1731.3 C317.3 1731.7 317.3 1731.7 312.1 1733.7 C267.8 1750.7 221.8 1762.8 175.3 1772.3 C174.5 1772.5 174.5 1772.5 170.4 1773.3 C157.6 1776 144.7 1778 131.8 1779.8 C130.7 1780 130.7 1780 125.2 1780.7 C62.5 1789.4 -1.5 1793.1 -64.7 1787.3 C-67.3 1787.1 -69.9 1786.9 -72.6 1786.7 C-193.7 1776 -312.4 1742 -419.7 1684.3 C-421.6 1683.3 -423.5 1682.3 -425.4 1681.2 C-487.5 1648 -545.7 1606.8 -597.7 1559.3 C-599 1558.2 -600.3 1557 -601.6 1555.9 C-612.8 1546 -623.5 1535.7 -634 1525.1 C-635.4 1523.7 -636.8 1522.3 -638.3 1520.9 C-639.7 1519.5 -641 1518.1 -642.4 1516.7 C-643.7 1515.5 -644.9 1514.2 -646.1 1513 C-649.8 1509.2 -653.2 1505.3 -656.7 1501.3 C-658.8 1499.1 -660.9 1496.8 -663.1 1494.5 C-668.5 1488.6 -673.6 1482.6 -678.7 1476.3 C-679.7 1475.1 -679.7 1475.1 -684.8 1469.2 C-689.5 1463.7 -694.2 1458.1 -698.7 1452.3 C-700.4 1450.2 -702 1448.1 -703.8 1445.9 C-715.6 1430.7 -727 1415.3 -737.7 1399.3 C-738.4 1398.3 -738.4 1398.3 -741.9 1393.1 C-833.6 1257.1 -892.5 1088.6 -892.9 923.4 C-892.9 921.4 -892.9 919.3 -892.9 917.3 C-892.9 913 -892.9 908.8 -892.9 904.5 C-892.9 898.2 -893 891.8 -893 885.5 C-893.3 756.5 -863.1 627.7 -807.7 511.3 C-806.3 508.4 -805 505.4 -803.6 502.4 C-799.9 494.9 -796.2 487.5 -792.2 480.1 C-790.6 477 -789 473.9 -787.4 470.8 C-767.4 432 -743.4 394.8 -716.7 360.2 C-714.1 356.9 -711.6 353.5 -709.1 350.1 C-700.6 338.9 -691.8 328 -682.7 317.3 C-681.3 315.5 -679.8 313.8 -678.4 311.9 C-673.5 306 -668.3 300.4 -663 294.9 C-660.5 292.1 -658 289.4 -655.5 286.6 C-649.3 279.8 -642.8 273.4 -636.2 266.9 C-632.2 262.8 -628.4 258.6 -624.7 254.3 C-621.4 251.3 -618 248.3 -614.7 245.3 C-613.2 243.8 -611.6 242.3 -610.1 240.7 C-606.1 236.7 -601.9 233 -597.7 229.3 C-595.4 227 -593.1 224.7 -590.7 222.3 C-587 219.3 -583.4 216.3 -579.7 213.3 C-577.4 211.4 -575.2 209.4 -572.9 207.4 C-565.9 201.5 -558.9 195.9 -551.7 190.3 C-549.5 188.5 -547.2 186.8 -544.9 184.9 C-519.4 165.1 -492.1 147.5 -464.7 130.3 C-463.6 129.6 -463.6 129.6 -457.8 126 C-445 118.3 -431.9 111.2 -418.7 104.2 C-415.9 102.8 -413 101.3 -410.1 99.7 C-309.5 47.2 -198.7 14.4 -85.7 3.3 C-84.3 3.2 -84.3 3.2 -77 2.4 C-51.3 0.2 -25.7 0 0 0 Z " fill="#2E5B87" transform="translate(1233.6875,257.6875)"/>
<path d="M0 0 C1.5 1.7 3.1 3.4 4.7 5.1 C10 11.2 14.1 16.6 16.9 24.2 C19 30 19 30 23 37 C30.1 49.5 33 60.6 33 75 C22.5 80.2 19.9 78.2 13 70 C6.8 61.6 1.7 52.8 -3.3 43.6 C-16.1 21.4 -33.1 4.6 -54 -10 C-56.4 -12 -58.8 -14 -61.2 -16 C-120.5 -61.8 -225.9 -58 -289.6 -22.7 C-296.2 -19.4 -302.9 -16.6 -309.7 -13.9 C-344.8 0.4 -372.2 20.3 -400 46 C-401.8 47.6 -403.6 49.2 -405.5 50.9 C-410 55 -410 55 -414 60 C-414.7 60 -415.3 60 -416 60 C-416.7 61.3 -417.3 62.6 -418 64 C-428.7 76.7 -428.7 76.7 -432 80 C-432.7 81.6 -433.3 83.3 -434 85 C-436.7 90.6 -439.1 95.1 -443 100 C-450.3 113.3 -450.3 113.3 -453 120 C-454.3 122.3 -455.6 124.6 -457 127 C-458.4 130.3 -459.7 133.6 -461 137 C-461.3 137.8 -461.3 137.8 -462.9 142 C-469.1 159.9 -471.5 179 -473.5 197.7 C-473.8 201.5 -474.4 205.3 -475 209 C-478.9 275.7 -478.9 275.7 -464 298 C-464 299 -464 300 -464 301 C-463.3 301 -462.7 301 -462 301 C-461.3 302.6 -460.7 304.3 -460 306 C-457.4 309.6 -454.8 313.1 -452.2 316.6 C-448.9 321.2 -445.7 325.8 -442.6 330.4 C-430.2 348.6 -416.9 366.1 -401.4 381.6 C-398.7 384.3 -396.1 387.1 -393.6 389.9 C-386.9 397.5 -379.7 404.4 -372 411 C-370.8 412.1 -369.5 413.3 -368.2 414.4 C-363.1 418.8 -357.6 422.3 -352 426 C-344.1 431.6 -336.3 437.3 -328.6 443.1 C-312.7 455.1 -296.5 466.3 -279.4 476.4 C-273.8 479.7 -268.4 483.4 -263 487 C-246.4 497.5 -229.4 507.5 -212.3 517.3 C-201.8 523.5 -192 530.5 -182.2 537.9 C-176.6 542 -170.9 546 -165.2 550 C-161 553 -156.8 556.1 -152.6 559.3 C-144.1 565.7 -135.7 571.1 -126.2 576.1 C-112.3 583.6 -112.3 583.6 -110 594 C-107.4 594 -104.7 594 -102 594 C-100.3 595 -98.7 596 -97 597 C-94 597.3 -91.1 597.7 -88 598 C-87.7 599 -87.7 599 -86.2 604.3 C-84 611 -84 611 -80 614 C-79.7 613 -79.3 612 -79 611 C-75 612 -75 612 -73 615 C-72 615.3 -71 615.7 -70 616 C-70 615.3 -70 614.7 -70 614 C-66 615 -66 615 -64 621 C-59.7 626.4 -54.9 631.1 -50 636 C-45.1 640.9 -40.5 645.7 -36 651 C-27.8 660.2 -19.2 668.8 -10.5 677.5 C-6.5 681.5 -2.7 685.7 1 690 C2.4 691.4 3.8 692.7 5.2 694.1 C20.5 709.8 33 728.8 45 747 C46.5 749.1 48.1 751.1 49.6 753.2 C53.9 759.8 56.9 766.3 59.8 773.5 C62.3 779.7 65.1 785.8 67.8 791.9 C83.9 828 91.2 859 91.4 898.6 C91.4 900.2 91.4 901.9 91.4 903.7 C91.4 917.8 89.7 931.3 84.9 944.6 C81.8 953.6 81 960.4 81 970 C78 975 78 975 74 977 C74 980.3 74 983.6 74 987 C72.6 988.1 71.2 989.1 69.8 990.2 C64.1 995.9 62.9 1000.2 61 1008 C54.8 1026.6 54.8 1026.6 45 1028 C39 1026 39 1026 34 1020 C32.7 1018.7 31.4 1017.4 30 1016 C30 1006 33.3 1000.9 38 992 C42.8 982.1 47.1 972.6 50 962 C50.7 959.7 51.3 957.4 52 955 C50.3 955 48.7 955 47 955 C48.4 948 48.4 948 51 948 C51.3 945.4 51.7 942.7 52 940 C53.3 935.7 54.7 931.3 56 927 C56.7 923.3 57.4 919.7 58 916 C58.7 914.3 59.3 912.7 60 911 C70.1 850.5 38 778.8 0 733 C-1.4 731.2 -2.9 729.4 -4.4 727.6 C-9.8 721 -15.4 714.5 -21 708 C-21.6 707.3 -21.6 707.3 -24.7 703.7 C-31 696.6 -37.8 690.2 -45 684 C-52.2 677.5 -59.1 670.9 -66 664 C-68.7 661.7 -71.3 659.3 -74 657 C-75.3 655.7 -76.5 654.4 -77.8 653.1 C-82.6 648.4 -87.7 644.2 -93 640 C-95.8 637.7 -98.5 635.4 -101.3 633.1 C-108.8 627 -116.4 620.9 -124 615 C-126.1 613.4 -128.2 611.7 -130.3 610.1 C-135.3 606.3 -140.2 602.7 -145.3 599.2 C-157.3 590.7 -168.3 581.8 -178.6 571.3 C-190 559.8 -202.4 552.1 -216.7 544.8 C-224.5 540.7 -231.7 535.9 -239 531 C-241.3 529.5 -243.6 527.9 -246 526.4 C-254.3 520.8 -262.5 515.2 -270.8 509.6 C-273.8 507.6 -276.9 505.5 -279.9 503.5 C-284.3 500.5 -288.8 497.5 -293.2 494.4 C-302.1 488.5 -311.1 482.9 -320.2 477.4 C-329.8 471.6 -339 465.7 -348 459 C-351 456.8 -354.1 454.6 -357.1 452.4 C-368.8 444 -380.1 435.4 -391 426 C-391.9 425.2 -391.9 425.2 -396.7 421.4 C-401.9 417.1 -407 412.6 -412 408 C-413.3 406.9 -414.5 405.9 -415.8 404.8 C-424.4 397 -432.6 388.9 -440 380 C-441.4 378.3 -442.9 376.7 -444.4 374.9 C-458.6 356.7 -468.9 334.7 -479 314 C-479.8 312.5 -480.5 311 -481.3 309.5 C-494.7 282.6 -496.6 255.3 -497 225.8 C-497.1 222.9 -497.2 220 -497.2 217 C-497.8 182.7 -491.7 150.5 -478 119 C-477.2 117 -476.4 115 -475.5 113 C-474.7 111 -473.9 109 -473 107 C-472.6 106.1 -472.6 106.1 -470.8 101.4 C-458.8 73.6 -444.7 47.5 -420 29 C-407.5 19.2 -395.1 9.3 -383 -1 C-340.1 -34.6 -340.1 -34.6 -320 -38 C-320 -38.7 -320 -39.3 -320 -40 C-318 -40 -316 -40 -314 -40 C-308.9 -42.3 -304.5 -44.6 -300 -48 C-297.7 -48 -295.4 -48 -293 -48 C-291 -49.3 -289 -50.6 -287 -52 C-271.8 -57.1 -255.8 -60.2 -240.2 -63.7 C-238.1 -64.2 -236 -64.6 -233.8 -65.1 C-150.7 -83.7 -56.1 -68.7 0 0 Z " fill="#FBFBFC" transform="translate(1436,612)"/>
<path d="M0 0 C3 5 3 5 5.9 13.7 C8.2 20.6 10.6 26.6 14 33 C14.7 34.7 15.3 36.3 16 38 C18.1 41.7 20.1 45.5 22.2 49.2 C23.4 51.2 24.5 53.1 25.6 55.2 C35.5 72.2 46 88.4 58 104 C59.3 105.8 60.7 107.5 62.1 109.3 C72.7 121.6 84.2 133 97 143 C99 144.7 101 146.5 103.1 148.2 C117.4 160.2 132.4 170.8 148 181 C150.6 182.7 153.1 184.5 155.8 186.2 C193.2 210.8 230.9 223.3 275 229 C276.3 229.2 276.3 229.2 282.7 230.1 C292.9 231.2 303 231.3 313.2 231.3 C315.2 231.3 317.1 231.3 319 231.4 C341.5 231.4 362.9 227.5 384.2 220.6 C386.5 219.8 388.9 219 391.3 218.3 C397.2 216.3 403.1 214.1 409 212 C411 211.4 413 210.8 415 210.2 C433 204.5 449.3 196 465.6 186.6 C472.6 182.7 477.9 180 486 180 C491.7 197 491.7 197 485 201 C482.4 202 479.7 203 477 204 C475.4 204.9 473.8 205.8 472.2 206.7 C468 209 468 209 465 209 C464.3 210.3 463.7 211.6 463 213 C461 214.3 459 215.6 457 217 C456.7 218 456.3 219 456 220 C453.9 220.7 451.7 221.5 449.5 222.2 C442.2 224.9 435.6 228 429 232 C426.4 232.7 423.7 233.3 421 234 C417 235.9 413 238 409 240 C397 245.3 385.7 249.3 372.9 252.6 C370 253.4 367 254.2 364 255 C294.2 270.7 209.8 249.9 149 214 C147.6 213.2 146.1 212.3 144.6 211.4 C140.4 209 136.2 206.5 132 204 C130.8 203.4 130.8 203.4 125 200.1 C103.2 187.3 82.2 171.5 66 152 C65.3 151.2 65.3 151.2 61.8 147.4 C56.2 141.1 51.1 134.6 46 128 C44.4 126.2 42.9 124.4 41.2 122.6 C33.7 113.2 27.4 103.1 21 93 C19.9 91.4 18.9 89.7 17.8 88 C-25.6 20.2 -25.6 20.2 -10 2 C-7 0 -7 0 0 0 Z " fill="#F8FAFC" transform="translate(893,1539)"/>
<path d="M0 0 C1 2 2 4 3 6 C5 6.7 7 7.3 9 8 C12 13 12 13 14 20 C16 22.6 18 25.3 20 28 C20.2 28.5 20.2 28.5 21 31 C21.5 31.2 21.5 31.2 24 32 C24.2 31.7 24.2 31.7 25 30 C28.3 30 31.6 30 35 30 C35.3 29.3 35.7 28.7 36 28 C36.7 28 37.3 28 38 28 C38 26.7 38 25.4 38 24 C41 24 41 24 43 28 C44.6 28.1 46.2 28.3 47.9 28.4 C53 29 53 29 55 30 C55.3 28.7 55.7 27.4 56 26 C60.8 23.6 63.5 24.5 67 28 C67 33 67 33 61 35 C61.2 36.2 61.2 36.2 62 42 C61.7 42.3 61.7 42.3 60 44 C59.7 46.3 59.3 48.6 59 51 C60 51 61 51 62 51 C60 55 60 55 55 56 C51.1 67.7 49.9 75.6 55 87 C61 105.5 61 105.5 61 113 C59.2 112.8 59.2 112.8 50 112 C50 112.7 50 113.3 50 114 C32.8 111.6 32.8 111.6 31 108 C29.7 108 28.4 108 27 108 C25.7 106.7 24.4 105.4 23 104 C17 104 17 104 12 112 C8.1 115.1 4.1 118.1 0 121 C-2.3 123 -4.6 125 -7 127 C-15 132 -15 132 -19 132 C-19.3 131.3 -19.3 131.3 -21 128 C-22.3 127 -23.6 126 -25 125 C-26 102 -26 102 -25 101 C-24.7 93.7 -24.3 86.5 -24 79 C-23.3 79 -22.7 79 -22 79 C-22 77.3 -22 75.7 -22 74 C-24.3 73.7 -26.6 73.3 -29 73 C-38.7 66.5 -47.9 59.3 -57 52 C-58 51.3 -59 50.7 -60 50 C-57.5 37.5 -42.1 40.9 -32.2 40.9 C-29 40.9 -25.8 41 -22.5 41 C-20 41 -17.6 41 -15 41 C-14.9 37.8 -14.8 34.6 -14.8 31.2 C-14.3 22.9 -12.2 -3 0 0 Z " fill="#FAFAFB" transform="translate(1427,1625)"/>
<path d="M0 0 C11.6 22.8 11.6 22.8 13 35 C17.6 35 22.2 35 27 35 C27 34.3 27 33.7 27 33 C33.8 27.9 45.3 27.2 53 31 C53 31.7 53 32.3 53 33 C53.7 33.2 53.7 33.2 57 34 C59 36 59 36 59 44 C54.8 49 51.5 52.3 46 56 C33.6 65.3 37.6 76.7 41 91 C42.7 93.3 44.3 95.6 46 98 C46 100.6 46 103.3 46 106 C43.4 106.3 40.7 106.7 38 107 C38 107.7 38 108.3 38 109 C25.5 109.4 25.5 109.4 21 106 C2.7 100.6 2.7 100.6 -5.6 108.1 C-18.5 119.9 -18.5 119.9 -27 121 C-27.2 121.7 -27.2 121.7 -28 125 C-38.4 122.4 -39 105.9 -39 97 C-37.7 91.6 -36.4 86.3 -35 81 C-32.9 72.7 -45.9 66.8 -52 63 C-54.6 62 -57.3 61 -60 60 C-68 50.4 -68 50.4 -68 42 C-64 39 -64 39 -61 39 C-60.7 37.7 -60.3 36.4 -60 35 C-59.3 35 -58.7 35 -58 35 C-58 34.3 -58 33.7 -58 33 C-50 34 -50 34 -45 37 C-39 37.4 -33 37.8 -27 38 C-26.9 36.8 -26.9 36.8 -26.6 30.4 C-25.8 19.3 -24.7 10.5 -15 4 C-13 0 -13 0 0 0 Z " fill="#F9FBFC" transform="translate(1743,825)"/>
<path d="M0 0 C0.2 0.7 0.2 0.7 1 4 C1.7 4 2.3 4 3 4 C5 9 5 9 5 13 C6 13.3 7 13.7 8 14 C10 18 10 18 11 26 C11.7 26 12.3 26 13 26 C14.3 30.6 15.6 35.2 17 40 C29.9 40 42.7 40 56 40 C53.7 55.8 40.5 63.7 28 72 C27.3 72 26.7 72 26 72 C27.7 77.2 29.5 82.5 31.2 87.7 C32.2 90.6 33.1 93.5 34.1 96.5 C35.9 101.8 37.8 107.1 39.9 112.3 C43.4 121.6 43.4 121.6 41 124 C34 124 34 124 26 118 C23 118 20.1 118 17 118 C10.4 114.6 5 110.5 -1 106 C-6 103 -6 103 -12 102 C-12.3 103.7 -12.7 105.3 -13 107 C-17 110 -17 110 -23 112 C-23 112.7 -23 113.3 -23 114 C-25.6 115.3 -28.3 116.6 -31 118 C-33.7 120.6 -36.4 123.2 -39 126 C-40 126 -41 126 -42 126 C-42 118.9 -41.5 113.5 -40.1 106.6 C-39.8 104.8 -39.4 102.9 -39 101.1 C-38.7 99.4 -38.3 97.7 -38 96 C-36.6 88.8 -36 83.4 -36 76 C-39 75.7 -41.9 75.3 -45 75 C-49.6 70.9 -49.6 70.9 -54 66 C-54.7 65.4 -54.7 65.4 -58.2 62.3 C-67 54.6 -67 54.6 -67 47 C-63.6 43.6 -58.7 44.4 -54 44 C-53 43.3 -52 42.7 -51 42 C-47.3 41.9 -43.7 41.9 -40 42 C-39.7 41.7 -39.3 41.3 -39 41 C-33.1 41 -27.1 41 -21 41 C-19 34 -19 34 -18.2 29.1 C-11.6 -4.7 -11.6 -4.7 0 0 Z " fill="#FBFBFC" transform="translate(644,1017)"/>
<path d="M0 0 C1.4 10.3 -1.1 20 -11 25 C-14.4 25.1 -17.8 25.2 -21.2 25.1 C-24.5 25.1 -27.7 25 -31 25 C-41.7 15.9 -41.3 9.5 -41 -4 C-27.1 -20.2 -9.6 -20 0 0 Z " fill="#F5F8FB" transform="translate(1841,1637)"/>
<path d="M0 0 C0 14 -4 24 -14 34 C-27.8 34 -36.4 28.8 -41 15 C-41.4 -3.8 -12.4 -18.6 0 0 Z " fill="#FAFAFC" transform="translate(565,1362)"/>
<path d="M0 0 C2.6 9.5 3.6 16.4 -3.5 23.4 C-5.1 24.1 -6.8 24.8 -8.5 25.4 C-8.2 28.7 -7.8 32 -7.5 35.4 C-15.4 35.4 -17.6 32.4 -23.5 27.4 C-26.1 25.8 -28.8 24.1 -31.5 22.4 C-37.9 13.9 -39.2 3.8 -32.5 -4.6 C-31.8 -4.6 -31.2 -4.6 -30.5 -4.6 C-30.5 -5.2 -30.5 -5.9 -30.5 -6.6 C-19.8 -14.6 -6.5 -11.8 0 0 Z " fill="#F8F9FB" transform="translate(580.5,753.5625)"/>
<path d="M0 0 C5.2 6.9 4.1 14.7 4 23 C3.3 23.5 3.3 23.5 -0.1 26.2 C-10.7 34.5 -10.7 34.5 -12 37 C-23.7 37 -30 29 -35 19 C-35 -3.8 -18.3 -6.9 0 0 Z " fill="#FAFAFB" transform="translate(833,1812)"/>
<path d="M0 0 C8.8 6.5 9 14.6 8.8 24.8 C8.2 24.8 7.5 24.8 6.8 24.8 C6.6 25.3 6.6 25.3 5.8 27.8 C-2.9 34.8 -10.1 36.3 -21.2 35.8 C-30.9 24.5 -30.3 17.6 -25.2 3.8 C-17.4 -3.9 -10.2 -4.3 0 0 Z " fill="#F7FAFB" transform="translate(1279.1875,322.1875)"/>
<path d="M0 0 C5.5 9.2 3.4 14.3 -2 23 C-9 29 -9 29 -16 28 C-16.8 27.9 -16.8 27.9 -20.9 27.4 C-31.7 24.4 -36 18.8 -36 8 C-29.2 -11.8 -15.2 -15 0 0 Z " fill="#F9F9FB" transform="translate(1917,1394)"/>
<path d="M0 0 C2 2.3 4 4.6 6 7 C7.3 8.3 8.6 9.6 10 11 C13.5 21.5 8 24.1 -0.2 29.3 C-12.3 34.9 -19.9 32.6 -27.9 21.6 C-33.9 10.9 -33.9 10.9 -28 5 C-27.3 5 -26.7 5 -26 5 C-25.3 3.7 -24.7 2.4 -24 1 C-15.5 -4.6 -9.1 -3.6 0 0 Z " fill="#F2F5F8" transform="translate(1513,380)"/>
<path d="M0 0 C1 2 1 2 -2.2 5.6 C-10.8 15.5 -10.8 15.5 -13 21 C-16.6 25.4 -20.3 29.7 -24 34 C-25.6 36.3 -27.3 38.6 -29 41 C-29.7 41 -30.3 41 -31 41 C-31.7 42.6 -32.3 44.3 -33 46 C-35.3 49.4 -37.6 52.7 -40 56 C-43.9 62.3 -47 68.2 -50 75 C-50.5 75.2 -50.5 75.2 -53 76 C-53.3 77.6 -53.7 79.3 -54 81 C-59.5 91.5 -59.5 91.5 -61 93 C-61.7 96 -62.3 98.9 -63 102 C-64 104 -65 106 -66 108 C-66.7 112 -67.4 116 -68 120 C-69.2 125.4 -70.5 130.7 -72 136 C-72.3 139.4 -72.4 142.8 -72.6 146.2 C-73 156 -73 156 -74 159 C-74.7 159 -75.3 159 -76 159 C-76 130.6 -69 102.2 -56 77 C-54.7 74.3 -53.3 71.6 -51.9 68.8 C-48.1 61.1 -43.7 54.1 -39 47 C-38.3 45.4 -37.7 43.7 -37 42 C-33.4 34.8 -28.5 29.9 -23 24 C-22.2 22.8 -22.2 22.8 -18 17 C-17.3 17 -16.7 17 -16 17 C-15.3 15.7 -14.7 14.4 -14 13 C-9.5 8.3 -5.1 4 0 0 Z " fill="#5685B2" transform="translate(1038,655)"/>
<path d="M0 0 C-6 4.8 -12.1 7.6 -19 11 C-22.3 12.7 -25.6 14.4 -28.9 16.1 C-30.4 16.9 -32 17.7 -33.6 18.6 C-37.8 20.9 -41.9 23.4 -46 26 C-47.6 26.3 -49.3 26.7 -51 27 C-51 27.7 -51 28.3 -51 29 C-53.3 30.3 -55.5 31.7 -57.9 33.1 C-64.1 36.9 -70.1 40.8 -76 45 C-79.5 47.1 -82.9 49.1 -86.4 51.1 C-93.6 55.4 -100.3 60.1 -107 65 C-108.6 66.1 -110.3 67.1 -111.9 68.2 C-116 71 -116 71 -123 77 C-124.6 78 -126.3 79 -128 80 C-136.1 85.7 -143.7 91.7 -151.3 98 C-155.5 101.4 -159.7 104.7 -164 108 C-172.1 114.5 -180.2 121 -188 128 C-189 127.7 -190 127.3 -191 127 C-182.4 119.5 -173.8 112.1 -165 105 C-163.8 104 -162.5 103 -161.2 101.9 C-130.2 76.5 -97 54.3 -63 33 C-60.7 31.6 -58.5 30.2 -56.1 28.7 C-4.6 -2.3 -4.6 -2.3 0 0 Z " fill="#3288B8" transform="translate(832,355)"/>
<path d="M0 0 C8 2.3 8 2.3 7.8 9.1 C6.6 19.6 1.6 22.3 -7 27 C-14.1 35.9 -11.4 49.1 -10 60 C-8.3 61.6 -6.7 63.3 -5 65 C-3 68 -3 68 -4 77 C-22.6 86.4 -22.6 86.4 -29 80 C-29 79.3 -29 78.7 -29 78 C-31 77.9 -33 77.8 -35.1 77.6 C-42 77 -42 77 -48 75 C-48 74.3 -48 73.7 -48 73 C-49.2 73.2 -49.2 73.2 -55 74 C-50.3 67 -38.8 72 -32 74 C-30.7 75 -29.4 76 -28 77 C-23.7 77.4 -19.3 77.8 -15 78 C-15 77.3 -15 76.7 -15 76 C-12.4 75.7 -9.7 75.3 -7 75 C-8 67 -8 67 -13 60 C-17.6 40.5 -19 33 -3 21 C5 14.3 5 14.3 5 5 C3.3 4 1.7 3 0 2 C0 1.3 0 0.7 0 0 Z " fill="#5B91BD" transform="translate(1796,856)"/>
<path d="M0 0 C0 0.3 0 0.7 0 1 C-13.4 2.2 -13.4 2.2 -20 0 C-20 0.7 -20 1.3 -20 2 C-26.4 1.5 -32.7 1.1 -39 0 C-55 -1 -70.8 -1.1 -86.8 -1.1 C-89.2 -1.1 -91.5 -1.1 -93.9 -1 C-99.6 -1 -105.3 -1 -111 -1 C-111 -0.3 -111 0.3 -111 1 C-113.6 1 -116.3 1 -119 1 C-88 -14.5 -33 -6.6 0 0 Z " fill="#6593BC" transform="translate(1320,569)"/>
<path d="M0 0 C0.2 0.5 0.2 0.5 1 3 C1.7 3 2.3 3 3 3 C9.4 15.7 11.8 24.6 2 36 C-0.6 37 -3.3 38 -6 39 C-7.7 39.7 -9.3 40.3 -11 41 C-22.9 41.7 -28.3 41.3 -34 30 C-35.8 6.8 -23.6 -8 0 0 Z M-33 20 C-33 28.8 -31.2 32.8 -25 39 C-13 39.6 -6.2 37.7 3 30 C3 29.3 3 28.7 3 28 C3.7 28 4.3 28 5 28 C5.6 14.7 3.7 7.4 -9 1 C-24.5 0.9 -29.9 4 -33 20 Z " fill="#639BC5" transform="translate(1283,319)"/>
<path d="M0 0 C2.8 0 2.3 5.2 3 8 C3 17.3 -1.6 16.9 -10 20 C-11.6 20.9 -13.2 21.8 -14.8 22.7 C-19 25 -19 25 -22 25 C-22.7 26.3 -23.3 27.6 -24 29 C-26 30.3 -28 31.6 -30 33 C-30.3 34 -30.7 35 -31 36 C-33.1 36.7 -35.3 37.5 -37.5 38.2 C-44.8 40.9 -51.4 44 -58 48 C-60.6 48.7 -63.3 49.3 -66 50 C-70 51.9 -74 54 -78 56 C-81 57.3 -83.9 58.6 -87 60 C-88.3 60.7 -89.6 61.3 -91 62 C-92.3 61.7 -93.6 61.3 -95 61 C-82.4 54.1 -69.5 48.5 -56.1 43.4 C-49.8 40.9 -45.8 38.8 -41 34 C-35.4 30.4 -30.1 27.6 -24 25 C-20.6 23 -17.3 21 -14 19 C-11.7 17.7 -9.4 16.4 -7 15 C-5.7 13.3 -4.4 11.7 -3 10 C-2 9.7 -1 9.3 0 9 C0 6 0 3.1 0 0 Z " fill="#90B5D4" transform="translate(1380,1723)"/>
<path d="M0 0 C0.3 0 0.7 0 1 0 C2 7 2 7 1 8 C1 12.8 1 17.6 0.9 22.4 C0.9 25 0.9 27.7 0.9 30.5 C1 37 1 37 2 39 C2.2 43.1 2.5 47.1 2.7 51.2 C3.5 61.9 5.4 70.2 10 80 C13 90 13 90 13 94 C13.7 94 14.3 94 15 94 C17 99 17 99 17 103 C17.5 103.2 17.5 103.2 20 104 C22 109 22 109 21 113 C14.1 103.6 14.1 103.6 13 98 C12.3 98 11.7 98 11 98 C-2.4 67.9 -5.4 32.5 0 0 Z " fill="#87A9D1" transform="translate(961,815)"/>
<path d="M0 0 C-4.3 4.3 -12.9 5 -18.6 6.5 C-20.1 6.9 -20.1 6.9 -27.8 8.9 C-43.2 12.4 -58.1 13.3 -73.9 13.2 C-75.6 13.2 -77.3 13.2 -79 13.2 C-87.4 13.2 -95.7 12.9 -104 12 C-104 11.7 -104 11.3 -104 11 C-102.4 10.9 -102.4 10.9 -94.3 10.6 C-90.1 10.4 -85.9 10.2 -81.7 10.1 C-79.6 10 -77.4 9.9 -75.3 9.8 C-73.2 9.7 -71.2 9.6 -69.1 9.5 C-67.3 9.5 -65.4 9.4 -63.5 9.3 C-59 9 -59 9 -56 8 C-48.6 7.3 -41.2 6.6 -33.7 6 C-26.4 5.1 -20 3.3 -13 1 C-7 0 -7 0 0 0 Z " fill="#8EB8DF" transform="translate(1285,1785)"/>
<path d="M0 0 C5 1 5 1 6 8 C5.3 8.7 4.7 9.3 4 10 C3.7 12.3 3.3 14.6 3 17 C4 17 5 17 6 17 C4 21 4 21 -1 22 C-3.2 28.7 -4.1 35.1 -5 42 C-16.2 30.8 -7.8 15.8 -1 5 C-0.7 3.3 -0.3 1.7 0 0 Z " fill="#D1E0EF" transform="translate(1483,1659)"/>
</svg>
