<?xml version="1.0" encoding="UTF-8"?>
<!-- Generator: visioncortex VTracer 0.6.5 -->
<svg version="1.1" xmlns="http://www.w3.org/2000/svg" width="164" height="384">
<path d="M0,0 L164,0 L164,384 L0,384 Z " fill="#FEFEFD" transform="translate(0,0)"/>
<path d="M0,0 L137,0 L131,8 L122,18 L111,26 L97,33 L82,37 L53,37 L37,32 L23,25 L10,14 L1,3 Z " fill="#002C5E" transform="translate(6,169)"/>
<path d="M0,0 L22,1 L22,124 L1,124 L0,123 Z " fill="#002958" transform="translate(64,210)"/>
<path d="M0,0 L4,1 L10,12 L11,17 L11,24 L4,38 L-3,44 L-10,52 L-26,68 L-32,77 L-32,84 L-28,98 L-28,101 L-44,101 L-47,93 L-49,85 L-49,71 L-44,61 L-6,23 L-2,15 L-2,3 Z " fill="#FE5039" transform="translate(104,61)"/>
<path d="M0,0 L6,1 L9,6 L10,11 L10,22 L5,34 L-4,47 L-13,57 L-20,65 L-30,78 L-35,87 L-36,91 L-37,112 L-41,113 L-44,110 L-46,105 L-48,95 L-48,84 L-44,71 L-37,59 L-28,49 L-19,38 L-9,27 L-4,18 L-3,3 Z " fill="#FE523A" transform="translate(89,39)"/>
<path d="M0,0 L4,1 L7,4 L9,9 L9,20 L6,29 L-1,40 L-15,59 L-25,74 L-31,88 L-33,97 L-36,97 L-39,88 L-39,72 L-34,60 L-25,46 L-11,27 L-5,19 L-3,15 L-2,2 Z " fill="#FE543A" transform="translate(71,25)"/>
<path d="M0,0 L22,1 L22,2 L15,3 L18,9 L19,14 L19,22 L18,22 L17,17 L16,38 L15,106 L13,111 L10,112 L8,108 L7,13 L6,11 L5,15 L3,15 L2,12 L1,123 L0,123 Z " fill="#023368" transform="translate(64,210)"/>
<path d="M0,0 L5,1 L6,5 L6,16 L0,26 L-12,40 L-23,49 L-22,56 L-21,66 L-31,66 L-35,58 L-37,50 L-37,44 L-30,36 L-16,23 L-8,16 L-4,10 L-4,4 L-1,3 Z " fill="#FE5035" transform="translate(113,96)"/>
<path d="M0,0 L3,0 L3,47 L1,47 L1,106 L-6,109 L-10,107 L-12,100 L-13,39 L-14,7 L-12,7 L-11,2 L-9,5 L-8,100 L-6,103 L-4,102 L-3,98 L-2,25 L-1,7 L1,9 Z " fill="#002D62" transform="translate(81,218)"/>
<path d="M0,0 L2,0 L4,9 L7,9 L7,7 L12,6 L16,5 L16,7 L18,7 L19,13 L17,14 L15,10 L9,9 L7,11 L6,26 L0,36 L-12,49 L-21,60 L-29,70 L-36,84 L-38,92 L-42,91 L-40,79 L-32,63 L-22,49 L-8,30 L-2,19 L-1,14 L-1,1 Z " fill="#F7F7F4" transform="translate(80,31)"/>
<path d="M0,0 L4,1 L1,4 L1,10 L-3,16 L-10,23 L-21,32 L-31,42 L-32,44 L-31,54 L-27,64 L-27,66 L-16,66 L-17,70 L-22,71 L-15,72 L-15,73 L-104,73 L-104,72 L-33,71 L-34,69 L-49,67 L-49,66 L-33,66 L-38,49 L-38,42 L-34,36 L-25,26 L-10,11 L-3,3 Z " fill="#F7F7F5" transform="translate(109,96)"/>
<path d="M0,0 L2,0 L4,2 L6,4 L6,12 L1,21 L-36,58 L-41,68 L-42,77 L-43,77 L-44,68 L-45,66 L-41,56 L-32,44 L-23,34 L-14,23 L-8,15 L-3,7 Z " fill="#F8F9F6" transform="translate(97,64)"/>
<path d="M0,0 L22,0 L24,3 L24,124 L22,124 L21,128 L21,1 L0,1 Z " fill="#EFF2F2" transform="translate(65,206)"/>
<path d="M0,0 L1,0 L2,5 L3,89 L4,99 L17,99 L18,96 L20,36 L21,36 L21,102 L0,102 Z " fill="#002347" transform="translate(65,232)"/>
<path d="M0,0 L5,1 L6,5 L6,16 L0,26 L-12,40 L-14,41 L-13,35 L-5,25 L-3,25 L-3,19 L-10,21 L-11,23 L-13,23 L-13,25 L-17,24 L-7,15 L-4,10 L-4,4 L-1,3 Z " fill="#FE5944" transform="translate(113,96)"/>
<path d="M0,0 L2,4 L-5,12 L-14,19 L-26,26 L-35,29 L-39,29 L-39,27 L-41,26 L-37,24 L-36,22 L-30,22 L-29,21 L-26,18 L-19,14 L-18,12 L-16,12 L-16,10 L-11,9 L-11,7 L-9,7 L-7,3 Z " fill="#022556" transform="translate(134,174)"/>
<path d="M0,0 L22,1 L22,2 L15,3 L18,9 L19,14 L19,22 L18,22 L15,8 L7,6 L8,10 L6,11 L5,15 L3,15 L2,12 L1,123 L0,123 Z " fill="#455B7E" transform="translate(64,210)"/>
<path d="M0,0 L6,1 L9,6 L10,11 L10,22 L8,25 L6,25 L5,20 L6,10 L2,14 L1,18 L-2,24 L-6,24 L-4,18 L-3,3 Z " fill="#FE5A45" transform="translate(89,39)"/>
<path d="M0,0 L2,0 L4,6 L15,6 L14,10 L9,11 L16,12 L16,13 L-73,13 L-73,12 L-2,11 L-3,9 L-18,7 L-18,6 L-2,5 L1,3 Z " fill="#EFF8F4" transform="translate(78,156)"/>
<path d="M0,0 L4,1 L7,6 L7,8 L2,8 L2,17 L-2,26 L-15,39 L-17,37 L-20,37 L-6,23 L-2,15 L-2,3 Z M-17,39 Z M-18,40 Z M-19,41 Z " fill="#FE5144" transform="translate(104,61)"/>
<path d="M0,0 L2,0 L2,2 L0,3 L-1,8 L-6,11 L-9,12 L-6,28 L-5,32 L1,32 L1,26 L2,26 L3,36 L-7,36 L-11,28 L-13,20 L-13,14 L-6,6 Z " fill="#FD5A42" transform="translate(89,126)"/>
<path d="M0,0 L83,0 L83,1 L30,2 L30,4 L28,5 L13,5 L11,3 L1,3 Z " fill="#123569" transform="translate(6,169)"/>
<path d="M0,0 L5,1 L6,5 L6,16 L1,25 L0,25 L1,10 L-1,11 L-1,13 L-5,14 L-4,4 L-1,3 Z " fill="#FE624D" transform="translate(113,96)"/>
<path d="M0,0 L3,4 L4,9 L4,16 L-3,30 L-6,31 L-8,27 L-4,25 L-6,22 L-3,21 L-3,18 L-1,18 L-2,7 Z " fill="#FB5947" transform="translate(111,69)"/>
<path d="M0,0 L54,0 L48,8 L46,7 L46,5 L44,5 L44,3 L42,2 L0,1 Z " fill="#0C2E60" transform="translate(89,169)"/>
<path d="M0,0 L21,0 L21,4 L2,4 L-1,2 Z " fill="#EEF4F4" transform="translate(65,207)"/>
<path d="M0,0 L4,1 L5,7 L-11,7 L-12,4 L-11,3 L0,2 Z " fill="#FE5C41" transform="translate(71,155)"/>
<path d="M0,0 L5,2 L3,7 L-5,15 L-9,13 L-5,9 L-7,8 L-1,3 Z M-4,7 Z M-5,8 Z " fill="#FE4D31" transform="translate(72,91)"/>
<path d="M0,0 L3,0 L1,5 L-1,8 L-2,19 L-4,21 L-5,20 L-5,6 L-3,1 Z " fill="#FB5A49" transform="translate(60,126)"/>
<path d="M0,0 L22,1 L22,2 L9,3 L8,5 L3,4 L4,8 L2,10 L1,21 L0,21 Z " fill="#163A61" transform="translate(64,210)"/>
<path d="M0,0 L4,1 L7,6 L7,8 L1,9 L0,16 L-2,17 L-2,3 Z " fill="#FE614E" transform="translate(104,61)"/>
<path d="M0,0 L8,0 L11,2 L11,4 L-12,4 L-16,3 L-16,1 L-10,1 L-10,2 L0,1 Z " fill="#0A3364" transform="translate(71,202)"/>
<path d="M0,0 L1,0 L1,20 L-3,21 L-6,18 L-7,14 L-5,14 L-5,12 L0,14 Z " fill="#ED6D4F" transform="translate(51,131)"/>
<path d="M0,0 L5,1 L4,5 L-1,9 L-1,13 L-5,14 L-4,4 L-1,3 Z " fill="#FE6952" transform="translate(113,96)"/>
<path d="M0,0 L5,1 L6,4 L12,4 L11,12 L14,13 L12,15 L2,4 Z " fill="#032958" transform="translate(8,172)"/>
<path d="M0,0 L23,0 L25,2 L1,3 Z " fill="#09386E" transform="translate(6,169)"/>
<path d="M0,0 L2,0 L4,6 L-5,9 L-18,7 L-18,6 L-2,5 L1,3 Z " fill="#FBDDD4" transform="translate(78,156)"/>
<path d="M0,0 L3,4 L4,9 L4,16 L2,18 L0,10 L-2,9 Z " fill="#FE6D5C" transform="translate(111,69)"/>
<path d="M0,0 L3,4 L4,10 L6,8 L7,14 L5,16 L5,13 L2,13 L0,7 Z " fill="#F7F2EE" transform="translate(71,138)"/>
<path d="M0,0 L4,1 L7,4 L8,8 L5,7 L5,5 L-1,5 L-1,1 Z " fill="#FB5537" transform="translate(71,25)"/>
<path d="M0,0 L2,0 L3,3 L-3,12 L-6,11 L-4,6 L-1,6 Z " fill="#FD5E42" transform="translate(73,53)"/>
<path d="M0,0 L6,1 L9,6 L9,9 L7,9 L7,6 L3,7 L2,4 L3,1 Z " fill="#FC6953" transform="translate(89,39)"/>
<path d="M0,0 L3,1 L0,6 L-2,7 L-3,2 Z M-3,7 Z M-6,8 L-3,9 L-4,11 L-7,10 Z " fill="#FE4931" transform="translate(59,92)"/>
<path d="M0,0 L3,2 L1,13 L-1,12 L-1,1 Z " fill="#FD644D" transform="translate(42,122)"/>
<path d="M0,0 L1,0 L0,17 L-1,22 L-4,22 L-2,16 L-1,1 Z " fill="#FD5C4B" transform="translate(87,41)"/>
<path d="M0,0 L9,0 L8,4 L1,4 Z " fill="#FEECE5" transform="translate(84,162)"/>
<path d="M0,0 L1,3 L-3,7 L-7,8 L-8,11 L-7,6 Z " fill="#F9E3E6" transform="translate(97,138)"/>
<path d="M0,0 L13,1 L9,3 L-1,3 Z " fill="#14304F" transform="translate(66,331)"/>
<path d="M0,0 L2,4 L3,10 L-3,8 L-2,3 Z " fill="#F4644C" transform="translate(71,145)"/>
<path d="M0,0 L5,0 L6,3 L-3,5 L-3,2 Z " fill="#0E325B" transform="translate(90,201)"/>
<path d="M0,0 L1,2 L-2,5 L-8,7 L-10,5 Z " fill="#EDEEED" transform="translate(115,195)"/>
<path d="M0,0 L1,0 L3,6 L4,9 L4,16 L2,14 L0,6 Z " fill="#FA665A" transform="translate(76,140)"/>
<path d="M0,0 L1,2 L-1,7 L-7,9 L-1,1 Z " fill="#FE584E" transform="translate(75,71)"/>
<path d="M0,0 L2,4 L3,10 L1,11 L-1,7 L-3,4 L-1,4 Z " fill="#FAF4EF" transform="translate(55,146)"/>
<path d="M0,0 L1,3 L-3,9 L-8,9 L-3,4 Z " fill="#FBF1F0" transform="translate(106,129)"/>
<path d="M0,0 L2,0 L2,6 L-1,9 L-3,5 L0,5 Z " fill="#FA735C" transform="translate(37,114)"/>
<path d="M0,0 L1,4 L-10,4 L-6,2 Z " fill="#032544" transform="translate(85,330)"/>
<path d="M0,0 L1,4 L-2,8 L-6,7 Z " fill="#F5F6F6" transform="translate(135,178)"/>
<path d="M0,0 L1,0 L2,6 L3,10 L-1,12 Z " fill="#FAE8E3" transform="translate(80,36)"/>
<path d="M0,0 L3,0 L4,9 L1,6 Z " fill="#F9F8F5" transform="translate(90,151)"/>
<path d="M0,0 L3,1 L0,10 L-1,10 L-1,3 Z " fill="#FA6449" transform="translate(40,103)"/>
<path d="M0,0 L3,1 L1,5 L-1,5 L-2,7 L-3,3 L0,2 Z " fill="#F0FEFC" transform="translate(49,95)"/>
<path d="M0,0 L1,2 L-1,8 L-6,8 Z " fill="#FE564B" transform="translate(63,85)"/>
<path d="M0,0 L5,0 L10,2 L9,4 L0,1 Z " fill="#173357" transform="translate(44,200)"/>
<path d="M0,0 L2,2 L-2,7 L-3,3 L-3,1 Z " fill="#FD5F48" transform="translate(45,96)"/>
<path d="M0,0 L3,2 L3,7 L1,8 L-1,1 Z " fill="#FCF5F4" transform="translate(117,93)"/>
<path d="M0,0 L4,1 L5,4 L1,5 L1,3 L-1,3 Z " fill="#FD705B" transform="translate(104,61)"/>
<path d="M0,0 L3,0 L4,3 L0,6 L-1,1 Z " fill="#F2FEF9" transform="translate(85,124)"/>
<path d="M0,0 L3,1 L-1,5 L-3,3 Z " fill="#072757" transform="translate(132,178)"/>
<path d="M0,0 L2,0 L3,6 L0,6 Z " fill="#F67458" transform="translate(73,156)"/>
<path d="M0,0 L2,3 L-2,4 L-2,6 L-4,6 L-2,2 Z " fill="#F96159" transform="translate(64,118)"/>
<path d="M0,0 L4,1 L3,6 L0,2 Z " fill="#FBF6F2" transform="translate(110,65)"/>
<path d="M0,0 L1,0 L2,8 L-2,6 Z " fill="#FEF3EC" transform="translate(42,138)"/>
<path d="M0,0 L3,3 L3,6 L0,5 L-1,1 Z " fill="#F4FEFD" transform="translate(52,89)"/>
<path d="M0,0 L1,2 L3,3 L-1,5 Z M3,0 Z " fill="#FDFEFD" transform="translate(76,55)"/>
<path d="M0,0 L2,1 L1,7 L-1,5 Z " fill="#FEFEFD" transform="translate(83,51)"/>
<path d="M0,0 L2,0 L0,4 L-2,5 L-3,2 Z " fill="#FE6349" transform="translate(109,123)"/>
<path d="M0,0 L1,0 L1,5 L-3,4 L-2,1 Z " fill="#F9FEFE" transform="translate(108,100)"/>
<path d="M0,0 L1,0 L1,5 L-3,5 L-2,2 L0,2 Z " fill="#F87A69" transform="translate(112,97)"/>
<path d="M0,0 L4,1 L1,4 L-1,4 Z " fill="#EBDAE1" transform="translate(109,96)"/>
<path d="M0,0 L2,3 L-3,4 L-2,1 Z " fill="#F3F7F3" transform="translate(113,91)"/>
<path d="M0,0 L4,1 L0,5 L-1,1 Z " fill="#FBF0E6" transform="translate(96,81)"/>
<path d="M0,0 L2,0 L4,6 L1,5 Z " fill="#FD6147" transform="translate(75,27)"/>
<path d="M0,0 L1,4 L-3,3 L-3,1 Z " fill="#FF6139" transform="translate(36,115)"/>
<path d="M0,0 L2,4 L-2,4 L-2,1 Z " fill="#ECFEFB" transform="translate(45,103)"/>
<path d="M0,0 L1,4 L0,6 L-3,5 Z " fill="#FE5045" transform="translate(67,80)"/>
<path d="M0,0 L1,2 L3,3 L0,6 L-1,1 Z " fill="#F6F7F1" transform="translate(38,77)"/>
<path d="M0,0 L5,2 L6,4 L4,6 L3,2 L0,1 Z " fill="#F8E7DF" transform="translate(74,25)"/>
<path d="M0,0 L2,1 L2,3 L-3,5 Z " fill="#E6E9ED" transform="translate(139,173)"/>
<path d="M0,0 L2,1 L1,4 L-2,4 Z " fill="#F5F6F5" transform="translate(142,170)"/>
<path d="M0,0 L3,2 L2,4 L-1,4 Z " fill="#FBFEFF" transform="translate(77,157)"/>
<path d="M0,0 L2,0 L2,4 L-1,4 Z " fill="#FE5926" transform="translate(47,146)"/>
<path d="M0,0 L2,2 L0,5 L-2,5 Z " fill="#FF4C2F" transform="translate(50,104)"/>
<path d="M0,0 L3,0 L1,5 L0,5 Z " fill="#FF5B44" transform="translate(84,81)"/>
<path d="M0,0 L1,4 L1,6 L-2,6 Z " fill="#FE615A" transform="translate(85,57)"/>
<path d="M0,0 L1,4 L-2,4 L-2,1 Z " fill="#051E37" transform="translate(85,330)"/>
<path d="M0,0 L1,3 L-3,5 Z " fill="#F4E5E4" transform="translate(79,127)"/>
<path d="M0,0 L2,0 L2,4 L-1,4 Z " fill="#FF5A50" transform="translate(100,80)"/>
<path d="M0,0 L4,1 L3,3 L-1,1 Z " fill="#F06A4C" transform="translate(71,25)"/>
<path d="M0,0 L2,0 L1,3 L-3,2 Z " fill="#E9EBEC" transform="translate(124,189)"/>
<path d="M0,0 L3,1 L0,4 L-1,1 Z " fill="#0F2C55" transform="translate(125,185)"/>
<path d="M0,0 L5,2 L3,4 Z " fill="#223F5C" transform="translate(17,183)"/>
<path d="M0,0 L4,1 L3,3 L0,2 Z " fill="#FE5F46" transform="translate(91,139)"/>
<path d="M0,0 L1,3 L-3,4 Z " fill="#FF524A" transform="translate(79,67)"/>
<path d="M0,0 L3,0 L1,4 Z " fill="#E9F1E9" transform="translate(57,122)"/>
<path d="M0,0 L1,3 L-2,3 L-2,1 Z " fill="#FF4331" transform="translate(67,117)"/>
<path d="M0,0 L2,1 L1,4 L-1,4 Z " fill="#FBECE9" transform="translate(96,66)"/>
<path d="M0,0 L2,3 L-2,4 Z " fill="#FF5848" transform="translate(59,53)"/>
<path d="M0,0 L3,1 L1,3 L-1,1 Z " fill="#133468" transform="translate(132,178)"/>
<path d="M0,0 L3,0 L2,3 L0,2 Z " fill="#113363" transform="translate(135,174)"/>
<path d="M0,0 L3,1 L1,3 Z " fill="#213A59" transform="translate(10,174)"/>
<path d="M0,0 L3,1 L1,3 Z " fill="#F85641" transform="translate(64,105)"/>
<path d="M0,0 L3,1 L1,3 Z " fill="#FC5D43" transform="translate(60,73)"/>
</svg>
