<?xml version="1.0" encoding="UTF-8"?>
<!-- Generator: visioncortex VTracer 0.6.5 -->
<svg version="1.1" xmlns="http://www.w3.org/2000/svg" width="1160" height="800">
<path d="M0 0 C382.8 0 765.6 0 1160 0 C1160 264 1160 528 1160 800 C777.2 800 394.4 800 0 800 C0 536 0 272 0 0 Z " fill="#FEFEFD" transform="translate(0,0)"/>
<path d="M0 0 C17.9 17.9 13.2 65.8 13.2 89.1 C13.2 92 13.2 94.9 13.2 97.9 C13.2 112.1 13 125.9 11 140 C10.7 142.3 10.4 144.6 10.1 146.9 C7.9 163.2 4.8 179.1 1 195 C3.5 194.4 5.9 193.7 8.4 193.1 C22.4 189.7 35.9 189.8 50.1 189.8 C52.3 189.7 54.4 189.7 56.6 189.7 C86 189.6 113.2 194.7 140.5 205.6 C147.9 207.9 149.6 206.4 155.2 201.1 C179.1 179.6 212.1 166.5 241 153 C243.3 151.9 245.6 150.8 248 149.7 C262.1 143.2 276.1 138.2 291 134 C293 133.4 295.1 132.8 297.1 132.1 C325.6 123.5 355.4 116.8 385 114 C387.6 113.7 390.1 113.5 392.8 113.2 C445.8 107.9 445.8 107.9 454 112 C452.5 124.2 447.3 130.2 439 139 C437.9 140.3 436.8 141.6 435.7 142.9 C411.3 169.8 377.2 189.9 345 206 C342.5 207.3 340 208.5 337.5 209.9 C309.3 224.2 281 235.3 251 245 C246.7 246.5 242.5 247.9 238.2 249.4 C227.6 252.9 216.9 255.6 206 258 C208 263 208 263 211.6 269.1 C221.2 286.3 228.5 304.3 235.8 322.6 C236.7 325.1 237.7 327.5 238.7 330 C242.8 340.3 246.9 350.7 250.9 361.1 C261 387.3 273.4 411 288 435 C288.9 436.5 289.8 438.1 290.8 439.6 C295 446.5 299.5 453.2 304.3 459.7 C309 466.1 313.4 472.7 317.5 479.5 C325.2 492.2 333.9 504 343 515.8 C353.7 530 362.4 545.5 371 561 C382.6 559.3 392.1 553.2 402 547 C400 543 400 543 393 536 C390.7 533.3 388.3 530.7 386 528 C379.4 520.5 372.5 513.5 365.5 506.5 C361.8 502.8 358.4 498.9 355 495 C352 492 349 489 346 486 C351.1 475.8 363 469.5 372 463 C384.2 453.9 396.1 444.5 408 435 C409.6 433.7 411.3 432.4 413 431 C409.8 411.9 397.1 392.9 388.4 375.8 C385.7 370.5 383.1 365.2 380.5 359.8 C377.3 353.6 373.8 347.9 370 342 C359.7 318.9 378.2 305.3 393 289 C394.1 287.7 395.2 286.4 396.4 285.1 C401.2 279.7 406.1 274.4 411 269 C412.1 267.7 413.2 266.4 414.3 265.1 C419.9 258.8 426 253 432 247 C434.4 244.4 436.7 241.7 439 239 C442.7 235 446.3 231 450 227 C451 225.9 451 225.9 456 220.3 C461 215 461 215 464 214 C464.7 212.7 465.3 211.4 466 210 C468.6 207.6 471.3 205.3 474 203 C476.7 200.4 479.4 197.7 482 195 C487.2 189.8 492.5 184.8 498 180 C500.3 177.7 502.6 175.4 505 173 C509.9 168.1 514.7 163.5 520 159 C521.6 157.3 523.3 155.7 525 154 C525.7 154 526.3 154 527 154 C527.3 153 527.7 152 528 151 C530.6 148.6 533.3 146.3 536 144 C537.9 142.2 539.8 140.5 541.8 138.6 C547.4 133.5 553.1 128.7 559 124 C560.3 123 561.5 122 562.8 120.9 C571.1 114.1 579.5 107.5 588 101 C589.8 99.5 591.5 98 593.4 96.5 C600 91.2 606.9 86.6 614 82 C614.5 81.7 614.5 81.7 617 80 C638.4 85.3 648.5 173.8 652 195 C652.3 196.9 652.6 198.8 653 200.8 C654.8 211.6 656.6 222.5 658.3 233.4 C658.6 235.2 658.9 237 659.2 238.9 C662.7 261.8 663 270.7 643.1 282.4 C613.9 299.7 585.5 318 557.9 337.6 C545.2 346.6 532.2 354.9 518.8 362.9 C499 374.9 478.8 387.1 461 402 C459 403.6 457 405.3 455 407 C457.6 422.4 467.1 438.1 474 452 C474 469.6 429.7 490.9 416 500 C413 502 413 502 415 507 C418.2 510.7 421.4 514.5 424.6 518.1 C427.4 521.3 430.1 524.6 432.8 527.9 C437 533 437 533 441 537 C445.7 541.7 449.8 546.8 454 552 C456.3 554.7 458.6 557.3 461 560 C457.6 573.7 419 583.1 406.5 588.1 C402 590 402 590 395 594 C396.6 595.6 398.2 597.2 399.8 598.8 C400.9 599.8 400.9 599.8 406.1 605.1 C408.2 607.1 410.3 609.2 412.4 611.3 C424.2 623.3 424.2 623.3 423 628 C398.6 636 398.6 636 389 636 C389.1 638.4 389.2 640.7 389.2 643.2 C389.3 667.6 386.3 694 370 713 C370.6 721.8 372.2 730.1 374 738.8 C380.8 770.5 380.8 770.5 377 778 C374.7 778 372.4 778 370 778 C370 780.6 370 783.3 370 786 C369 790 369 790 364 791 C339.3 780 319 763.9 319 734 C317.5 734.1 317.5 734.1 310.2 734.3 C285.4 734.3 262.1 726.9 238.8 718.9 C195 703.8 167.5 706.9 127 730 C127 735 127 740 127.5 745 C129.8 772.1 129.8 772.1 121 783 C120.3 784.3 119.7 785.6 119 787 C96.2 787 85.7 763.8 81 745 C80.7 742.7 80.3 740.4 80 738 C77.6 737.5 75.3 736.9 72.9 736.4 C31.7 725.4 6.2 696.2 1.4 654.3 C1.1 651.9 0.8 649.5 0.5 647.1 C0.2 644.6 -0.1 642.1 -0.4 639.5 C-4.2 607.3 -9.3 576.9 -19 546 C-19 545.3 -19 544.7 -19 544 C-21.1 544 -23.3 544 -25.4 544.1 C-60.7 543.8 -96 538.3 -130.5 531.8 C-144.3 529.1 -158 527.7 -172 527 C-174.4 524.6 -173.7 518.2 -174 515 C-176.6 513.4 -179.3 511.7 -182 510 C-180.9 503.3 -178.8 499.8 -174 495 C-175 492 -175 492 -182 487 C-180.3 478.4 -173.7 477.2 -166 475 C-167 472.4 -168 469.7 -169 467 C-169 465.4 -169 463.7 -169 462 C-159 463 -159 463 -154.4 464 C-146.2 464 -140.4 460.4 -133 457 C-108.3 447.6 -83.2 439.4 -57 435 C-61.1 431.7 -65.3 428.7 -69.6 425.8 C-115.4 394.4 -136.5 345.3 -113.5 293.4 C-102.6 270 -89.2 250.3 -68 235 C-68.1 233.6 -68.3 232.1 -68.4 230.6 C-68.8 226.7 -69.1 222.7 -69.5 218.7 C-69.9 214.7 -70.2 210.6 -70.6 206.6 C-74.8 133.4 -52.8 52.8 0 0 Z " fill="#EECF7D" transform="translate(342,4)"/>
<path d="M0 0 C17.9 17.9 13.2 65.8 13.2 89.1 C13.2 92 13.2 94.9 13.2 97.9 C13.2 112.1 13 125.9 11 140 C10.7 142.3 10.4 144.6 10.1 146.9 C7.9 163.2 4.8 179.1 1 195 C3.5 194.4 5.9 193.7 8.4 193.1 C22.4 189.7 35.9 189.8 50.1 189.8 C52.3 189.7 54.4 189.7 56.6 189.7 C86 189.6 113.2 194.7 140.5 205.6 C147.9 207.9 149.6 206.4 155.2 201.1 C179.1 179.6 212.1 166.5 241 153 C243.3 151.9 245.6 150.8 248 149.7 C262.1 143.2 276.1 138.2 291 134 C293 133.4 295.1 132.8 297.1 132.1 C325.6 123.5 355.4 116.8 385 114 C387.6 113.7 390.1 113.5 392.8 113.2 C445.8 107.9 445.8 107.9 454 112 C452.5 124.2 447.3 130.2 439 139 C437.9 140.3 436.8 141.6 435.7 142.9 C411.3 169.8 377.2 189.9 345 206 C342.5 207.3 340 208.5 337.5 209.9 C309.3 224.2 281 235.3 251 245 C246.7 246.5 242.5 247.9 238.2 249.4 C227.6 252.9 216.9 255.6 206 258 C208 263 208 263 211.6 269.1 C221.2 286.3 228.5 304.3 235.8 322.6 C236.7 325.1 237.7 327.5 238.7 330 C242.8 340.3 246.9 350.7 250.9 361.1 C261 387.3 273.4 411 288 435 C288.9 436.5 289.8 438.1 290.8 439.6 C295 446.5 299.5 453.2 304.3 459.7 C309 466.1 313.4 472.7 317.5 479.5 C325.2 492.2 333.9 504 343 515.8 C353.7 530 362.4 545.5 371 561 C382.6 559.3 392.1 553.2 402 547 C400 543 400 543 393 536 C390.7 533.3 388.3 530.7 386 528 C379.4 520.5 372.5 513.5 365.5 506.5 C361.8 502.8 358.4 498.9 355 495 C352 492 349 489 346 486 C351.1 475.8 363 469.5 372 463 C384.2 453.9 396.1 444.5 408 435 C409.6 433.7 411.3 432.4 413 431 C409.8 411.9 397.1 392.9 388.4 375.8 C385.7 370.5 383.1 365.2 380.5 359.8 C377.3 353.6 373.8 347.9 370 342 C359.7 318.9 378.2 305.3 393 289 C394.1 287.7 395.2 286.4 396.4 285.1 C401.2 279.7 406.1 274.4 411 269 C412.1 267.7 413.2 266.4 414.3 265.1 C419.9 258.8 426 253 432 247 C434.4 244.4 436.7 241.7 439 239 C442.7 235 446.3 231 450 227 C451 225.9 451 225.9 456 220.3 C461 215 461 215 464 214 C464.7 212.7 465.3 211.4 466 210 C468.6 207.6 471.3 205.3 474 203 C476.7 200.4 479.4 197.7 482 195 C487.2 189.8 492.5 184.8 498 180 C500.3 177.7 502.6 175.4 505 173 C509.9 168.1 514.7 163.5 520 159 C521.6 157.3 523.3 155.7 525 154 C525.7 154 526.3 154 527 154 C527.3 153 527.7 152 528 151 C530.6 148.6 533.3 146.3 536 144 C537.9 142.2 539.8 140.5 541.8 138.6 C547.4 133.5 553.1 128.7 559 124 C560.3 123 561.5 122 562.8 120.9 C571.1 114.1 579.5 107.5 588 101 C589.8 99.5 591.5 98 593.4 96.5 C600 91.2 606.9 86.6 614 82 C614.5 81.7 614.5 81.7 617 80 C638.4 85.3 648.5 173.8 652 195 C652.3 196.9 652.6 198.8 653 200.8 C654.8 211.6 656.6 222.5 658.3 233.4 C658.6 235.2 658.9 237 659.2 238.9 C662.7 261.8 663 270.7 643.1 282.4 C613.9 299.7 585.5 318 557.9 337.6 C545.2 346.6 532.2 354.9 518.8 362.9 C499 374.9 478.8 387.1 461 402 C459 403.6 457 405.3 455 407 C457.6 422.4 467.1 438.1 474 452 C474 469.6 429.7 490.9 416 500 C413 502 413 502 415 507 C418.2 510.7 421.4 514.5 424.6 518.1 C427.4 521.3 430.1 524.6 432.8 527.9 C437 533 437 533 441 537 C445.7 541.7 449.8 546.8 454 552 C456.3 554.7 458.6 557.3 461 560 C457.6 573.7 419 583.1 406.5 588.1 C402 590 402 590 395 594 C396.6 595.6 398.2 597.2 399.8 598.8 C400.9 599.8 400.9 599.8 406.1 605.1 C408.2 607.1 410.3 609.2 412.4 611.3 C424.2 623.3 424.2 623.3 423 628 C398.6 636 398.6 636 389 636 C389.1 638.4 389.2 640.7 389.2 643.2 C389.3 667.6 386.3 694 370 713 C370.6 721.8 372.2 730.1 374 738.8 C381.6 774.2 381.6 774.2 376 777 C375.9 776.2 375.9 776.2 375.6 772.4 C370.6 725.4 370.6 725.4 365 717 C363 718.3 360.9 719.6 358.8 720.9 C348.2 727.3 348.2 727.3 343 726 C345.4 724.9 347.8 723.8 350.2 722.7 C397.4 697.4 389.2 622.5 375 579 C372.5 572.4 372.5 572.4 370 567 C369.1 565 368.2 563 367.3 561 C363.3 555 360.7 554.2 354 552 C343.9 544.4 341.2 539.4 340.8 526.7 C339.6 516.9 334.8 511.4 328.9 503.7 C323.3 496.1 318.3 488.2 313.3 480.2 C304.9 467.1 304.9 467.1 297 466 C285.1 458.1 277.7 446.8 278.2 432.1 C276.5 420.5 270.8 412 265 402 C259.3 391.2 254.6 380.3 250.2 369 C246 358.4 241.7 347.8 237.4 337.2 C236.6 335.3 235.9 333.3 235 331.3 C224.2 304.4 213.4 277.6 197.6 253.2 C195 249 195 249 194 245 C199 250 199 250 201 255 C221.3 251.2 240.5 244.8 260 238 C262.3 237.2 264.7 236.4 267.1 235.6 C298.9 224.8 307 208 320.7 178.2 C322.8 173.7 324.9 169.2 327.2 164.7 C333 152.9 337.2 140.1 339 127 C298.1 131.5 258.4 148.6 222 167 C218.3 168.7 214.7 170.4 211 172.1 C188.8 182.7 167.8 194.9 150 212 C145 211 145 211 137.1 207.8 C84.9 187.4 23.8 187 -27 211 C-28 210.7 -29 210.3 -30 210 C-21.4 205.4 -12.9 201 -4 197 C2.4 173.4 5.7 149.3 8 125 C8.2 123.1 8.4 121.1 8.6 119.1 C9.2 109.3 9.1 99.5 9.1 89.7 C9.1 88.7 9.1 88.7 9 83.7 C9 78.8 9 73.9 9 69 C6 70.5 3 72.1 0 73.6 C-0.8 74.1 -0.8 74.1 -5 76.3 C-18.7 83.8 -29.9 94.3 -41 105 C-42.4 106.4 -43.9 107.8 -45.4 109.2 C-71.5 136.7 -68.8 180.8 -65.4 216.5 C-65.1 221.3 -65 226.2 -65 231 C-63.6 230 -62.2 229.1 -60.8 228.1 C-56 225 -56 225 -52 224 C-58.8 230.8 -65.8 237.2 -73.1 243.5 C-98.3 266 -113.2 294.4 -121 327 C-120 327 -119 327 -118 327 C-118 326.3 -118 325.7 -118 325 C-94.4 329.7 -83.8 374.1 -82.4 394.8 C-83 401 -83 401 -85 406 C-82.6 417.8 -64.1 425.6 -54.4 431.2 C-48.6 434.9 -39.5 442.5 -42 450 C-50 439.3 -50 439.3 -50 437 C-81.6 443.5 -112.9 452.3 -142.3 465.9 C-150.8 469 -158.4 466.8 -167 465 C-164.7 469.6 -162.4 474.2 -160 479 C-161.7 479.1 -163.3 479.2 -165.1 479.2 C-171 480 -171 480 -178 484 C-178 487 -178 487 -170 493 C-173 497 -176 501 -179 505 C-179 509 -179 509 -171 514 C-171.3 517.3 -171.7 520.6 -172 524 C-171 524 -171 524 -166.1 523.9 C-151.9 524.1 -138.2 526.4 -124.3 528.9 C-108.3 531.7 -92.2 534 -76 536 C-73.2 536.4 -70.3 536.7 -67.4 537.1 C-52.3 538.5 -37.1 539.2 -22 540 C-22.7 537.6 -23.3 535.3 -24 532.9 C-26 525 -26 525 -26 519 C-14.6 524.7 -9 563.5 -6 576 C-5.6 577.8 -5.1 579.5 -4.6 581.4 C-1 596.9 0.5 612.6 2.2 628.4 C7.7 680.1 21.9 726.2 82 734 C102.6 734.7 122.1 728.6 139.6 717.9 C146.8 713.7 153.2 710.7 161 708 C162.5 707.5 163.9 707 165.4 706.4 C197.1 698.4 228.6 711.3 258.2 721.2 C282.2 728.8 307.1 733.3 332 728 C333.6 728 335.3 728 337 728 C333.3 731.7 327.9 732.4 323 734 C325 752.4 332.5 771.1 349 781 C348.5 780 348.5 780 345.7 774.9 C341.7 766.4 339 758.4 339 749 C341 749 341 749 342.5 757.1 C346.1 773.4 351.9 781.3 367 788 C366.8 777.4 364.1 769.7 360 760 C358.9 756 357.9 752 357 748 C359 748 359 748 360.8 752.9 C362.7 758.3 364.8 763.7 367 769 C367.7 770.6 368.3 772.3 369 774 C371 774.7 373 775.3 375 776 C375 776.3 375 776.7 375 777 C373 777 371 777 369 777 C369 781.3 369 785.6 369 790 C347.9 794.2 329.8 770.2 323.2 753.3 C320.9 746.7 319 741 319 734 C317.5 734.1 317.5 734.1 310.2 734.3 C285.4 734.3 262.1 726.9 238.8 718.9 C195 703.8 167.5 706.9 127 730 C127 735 127 740 127.5 745 C129.8 772.1 129.8 772.1 121 783 C120.3 784.3 119.7 785.6 119 787 C96.2 787 85.7 763.8 81 745 C80.7 742.7 80.3 740.4 80 738 C77.6 737.5 75.3 736.9 72.9 736.4 C31.7 725.4 6.2 696.2 1.4 654.3 C1.1 651.9 0.8 649.5 0.5 647.1 C0.2 644.6 -0.1 642.1 -0.4 639.5 C-4.2 607.3 -9.3 576.9 -19 546 C-19 545.3 -19 544.7 -19 544 C-21.1 544 -23.3 544 -25.4 544.1 C-60.7 543.8 -96 538.3 -130.5 531.8 C-144.3 529.1 -158 527.7 -172 527 C-174.4 524.6 -173.7 518.2 -174 515 C-176.6 513.4 -179.3 511.7 -182 510 C-180.9 503.3 -178.8 499.8 -174 495 C-175 492 -175 492 -182 487 C-180.3 478.4 -173.7 477.2 -166 475 C-167 472.4 -168 469.7 -169 467 C-169 465.4 -169 463.7 -169 462 C-159 463 -159 463 -154.4 464 C-146.2 464 -140.4 460.4 -133 457 C-108.3 447.6 -83.2 439.4 -57 435 C-61.1 431.7 -65.3 428.7 -69.6 425.8 C-115.4 394.4 -136.5 345.3 -113.5 293.4 C-102.6 270 -89.2 250.3 -68 235 C-68.1 233.6 -68.3 232.1 -68.4 230.6 C-68.8 226.7 -69.1 222.7 -69.5 218.7 C-69.9 214.7 -70.2 210.6 -70.6 206.6 C-74.8 133.4 -52.8 52.8 0 0 Z " fill="#E0C37B" transform="translate(342,4)"/>
<path d="M0 0 C17.9 17.9 13.2 65.8 13.2 89.1 C13.2 92 13.2 94.9 13.2 97.9 C13.2 112.1 13 125.9 11 140 C10.7 142.3 10.4 144.6 10.1 146.9 C7.9 163.2 4.8 179.1 1 195 C3.5 194.4 5.9 193.7 8.4 193.1 C22.4 189.7 35.9 189.8 50.1 189.8 C52.3 189.7 54.4 189.7 56.6 189.7 C86 189.6 113.2 194.7 140.5 205.6 C147.9 207.9 149.6 206.4 155.2 201.1 C179.1 179.6 212.1 166.5 241 153 C243.3 151.9 245.6 150.8 248 149.7 C262.1 143.2 276.1 138.2 291 134 C293 133.4 295.1 132.8 297.1 132.1 C325.6 123.5 355.4 116.8 385 114 C387.6 113.7 390.1 113.5 392.8 113.2 C445.8 107.9 445.8 107.9 454 112 C452.5 124.2 447.3 130.2 439 139 C437.9 140.3 436.8 141.6 435.7 142.9 C411.3 169.8 377.2 189.9 345 206 C342.5 207.3 340 208.5 337.5 209.9 C309.3 224.2 281 235.3 251 245 C246.7 246.5 242.5 247.9 238.2 249.4 C227.6 252.9 216.9 255.6 206 258 C208 263 208 263 211.6 269.1 C221.2 286.3 228.5 304.3 235.8 322.6 C236.7 325.1 237.7 327.5 238.7 330 C242.8 340.3 246.9 350.7 250.9 361.1 C261 387.3 273.4 411 288 435 C288.9 436.5 289.8 438.1 290.8 439.6 C295 446.5 299.5 453.2 304.3 459.7 C309 466.1 313.4 472.7 317.5 479.5 C325.2 492.2 333.9 504 343 515.8 C353.7 530 362.4 545.5 371 561 C382.6 559.3 392.1 553.2 402 547 C400 543 400 543 393 536 C390.7 533.3 388.3 530.7 386 528 C379.4 520.5 372.5 513.5 365.5 506.5 C361.8 502.8 358.4 498.9 355 495 C352 492 349 489 346 486 C351.1 475.8 363 469.5 372 463 C384.2 453.9 396.1 444.5 408 435 C409.6 433.7 411.3 432.4 413 431 C409.8 411.9 397.1 392.9 388.4 375.8 C385.7 370.5 383.1 365.2 380.5 359.8 C377.3 353.6 373.8 347.9 370 342 C359.7 318.9 378.2 305.3 393 289 C394.1 287.7 395.2 286.4 396.4 285.1 C401.2 279.7 406.1 274.4 411 269 C412.1 267.7 413.2 266.4 414.3 265.1 C419.9 258.8 426 253 432 247 C434.4 244.4 436.7 241.7 439 239 C442.7 235 446.3 231 450 227 C451 225.9 451 225.9 456 220.3 C461 215 461 215 464 214 C464.7 212.7 465.3 211.4 466 210 C468.6 207.6 471.3 205.3 474 203 C476.7 200.4 479.4 197.7 482 195 C487.2 189.8 492.5 184.8 498 180 C500.3 177.7 502.6 175.4 505 173 C509.9 168.1 514.7 163.5 520 159 C521.6 157.3 523.3 155.7 525 154 C525.7 154 526.3 154 527 154 C527.3 153 527.7 152 528 151 C530.6 148.6 533.3 146.3 536 144 C537.9 142.2 539.8 140.5 541.8 138.6 C547.4 133.5 553.1 128.7 559 124 C560.3 123 561.5 122 562.8 120.9 C571.1 114.1 579.5 107.5 588 101 C589.8 99.5 591.5 98 593.4 96.5 C600 91.2 606.9 86.6 614 82 C614.5 81.7 614.5 81.7 617 80 C638.4 85.3 648.5 173.8 652 195 C652.3 196.9 652.6 198.8 653 200.8 C654.8 211.6 656.6 222.5 658.3 233.4 C658.6 235.2 658.9 237 659.2 238.9 C662.7 261.8 663 270.7 643.1 282.4 C613.9 299.7 585.5 318 557.9 337.6 C545.2 346.6 532.2 354.9 518.8 362.9 C499 374.9 478.8 387.1 461 402 C459 403.6 457 405.3 455 407 C457.6 422.4 467.1 438.1 474 452 C474 469.6 429.7 490.9 416 500 C413 502 413 502 415 507 C418.2 510.7 421.4 514.5 424.6 518.1 C427.4 521.3 430.1 524.6 432.8 527.9 C437 533 437 533 441 537 C445.7 541.7 449.8 546.8 454 552 C456.3 554.7 458.6 557.3 461 560 C457.6 573.7 419 583.1 406.5 588.1 C402 590 402 590 395 594 C396.6 595.6 398.2 597.2 399.8 598.8 C400.9 599.8 400.9 599.8 406.1 605.1 C408.2 607.1 410.3 609.2 412.4 611.3 C424.2 623.3 424.2 623.3 423 628 C398.6 636 398.6 636 389 636 C389.1 638.4 389.2 640.7 389.2 643.2 C389.3 667.6 386.3 694 370 713 C370.6 721.8 372.2 730.1 374 738.8 C381.6 774.2 381.6 774.2 376 777 C375.9 776.2 375.9 776.2 375.6 772.4 C370.6 725.4 370.6 725.4 365 717 C363 718.3 360.9 719.6 358.8 720.9 C348.2 727.3 348.2 727.3 343 726 C345.4 724.9 347.8 723.8 350.2 722.7 C397.4 697.4 389.2 622.5 375 579 C372.5 572.4 372.5 572.4 370 567 C369.1 565 368.2 563 367.3 561 C363.3 555 360.7 554.2 354 552 C343.9 544.4 341.2 539.4 340.8 526.7 C339.6 516.9 334.8 511.4 328.9 503.7 C323.3 496.1 318.3 488.2 313.3 480.2 C304.9 467.1 304.9 467.1 297 466 C285.1 458.1 277.7 446.8 278.2 432.1 C276.5 420.5 270.8 412 265 402 C259.3 391.2 254.6 380.3 250.2 369 C246 358.4 241.7 347.8 237.4 337.2 C236.6 335.3 235.9 333.3 235 331.3 C224.2 304.4 213.4 277.6 197.6 253.2 C195 249 195 249 194 245 C199 250 199 250 201 255 C221.3 251.2 240.5 244.8 260 238 C262.3 237.2 264.7 236.4 267.1 235.6 C298.9 224.8 307 208 320.7 178.2 C322.8 173.7 324.9 169.2 327.2 164.7 C333 152.9 337.2 140.1 339 127 C298.1 131.5 258.4 148.6 222 167 C218.3 168.7 214.7 170.4 211 172.1 C188.8 182.7 167.8 194.9 150 212 C145 211 145 211 137.1 207.8 C84.9 187.4 23.8 187 -27 211 C-28 210.7 -29 210.3 -30 210 C-21.4 205.4 -12.9 201 -4 197 C2.4 173.4 5.7 149.3 8 125 C8.2 123.1 8.4 121.1 8.6 119.1 C9.2 109.3 9.1 99.5 9.1 89.7 C9.1 88.7 9.1 88.7 9 83.7 C9 78.8 9 73.9 9 69 C6 70.5 3 72.1 0 73.6 C-0.8 74.1 -0.8 74.1 -5 76.3 C-18.7 83.8 -29.9 94.3 -41 105 C-42.4 106.4 -43.9 107.8 -45.4 109.2 C-71.5 136.7 -68.8 180.8 -65.4 216.5 C-65.1 221.3 -65 226.2 -65 231 C-63.6 230 -62.2 229.1 -60.8 228.1 C-56 225 -56 225 -52 224 C-58.8 230.8 -65.8 237.2 -73.1 243.5 C-98.3 266 -113.2 294.4 -121 327 C-120 327 -119 327 -118 327 C-118 326.3 -118 325.7 -118 325 C-94.4 329.7 -83.8 374.1 -82.4 394.8 C-83 401 -83 401 -85 406 C-82.6 417.8 -64.1 425.6 -54.4 431.2 C-48.6 434.9 -39.5 442.5 -42 450 C-50 439.3 -50 439.3 -50 437 C-81.6 443.5 -112.9 452.3 -142.3 465.9 C-150.8 469 -158.4 466.8 -167 465 C-164.7 469.6 -162.4 474.2 -160 479 C-161.7 479.1 -163.3 479.2 -165.1 479.2 C-171 480 -171 480 -178 484 C-178 487 -178 487 -170 493 C-173 497 -176 501 -179 505 C-179 509 -179 509 -171 514 C-171.3 517.3 -171.7 520.6 -172 524 C-171 524 -171 524 -166.1 523.9 C-151.9 524.1 -138.2 526.4 -124.3 528.9 C-108.3 531.7 -92.2 534 -76 536 C-73.2 536.4 -70.3 536.7 -67.4 537.1 C-52.3 538.5 -37.1 539.2 -22 540 C-22.7 537.6 -23.3 535.3 -24 532.9 C-26 525 -26 525 -26 519 C-14.6 524.7 -9 563.5 -6 576 C-5.6 577.8 -5.1 579.5 -4.6 581.4 C-1 596.9 0.5 612.6 2.2 628.4 C7.7 680.1 21.9 726.2 82 734 C102.6 734.7 122.1 728.6 139.6 717.9 C146.8 713.7 153.2 710.7 161 708 C162.5 707.5 163.9 707 165.4 706.4 C197.1 698.4 228.6 711.3 258.2 721.2 C282.2 728.8 307.1 733.3 332 728 C333.6 728 335.3 728 337 728 C333.3 731.7 327.9 732.4 323 734 C325 752.4 332.5 771.1 349 781 C348.5 780 348.5 780 345.7 774.9 C341.7 766.4 339 758.4 339 749 C341 749 341 749 342.5 757.1 C346.1 773.4 351.9 781.3 367 788 C366.8 777.4 364.1 769.7 360 760 C358.9 756 357.9 752 357 748 C359 748 359 748 360.8 752.9 C362.7 758.3 364.8 763.7 367 769 C367.7 770.6 368.3 772.3 369 774 C371 774.7 373 775.3 375 776 C375 776.3 375 776.7 375 777 C373 777 371 777 369 777 C369 781.3 369 785.6 369 790 C347.9 794.2 329.8 770.2 323.2 753.3 C320.9 746.7 319 741 319 734 C317.5 734.1 317.5 734.1 310.2 734.3 C285.4 734.3 262.1 726.9 238.8 718.9 C195 703.8 167.5 706.9 127 730 C127 735 127 740 127.5 745 C129.8 772.1 129.8 772.1 121 783 C120.3 784.3 119.7 785.6 119 787 C96.2 787 85.7 763.8 81 745 C80.7 742.7 80.3 740.4 80 738 C77.6 737.5 75.3 736.9 72.9 736.4 C31.7 725.4 6.2 696.2 1.4 654.3 C1.1 651.9 0.8 649.5 0.5 647.1 C0.2 644.6 -0.1 642.1 -0.4 639.5 C-4.2 607.3 -9.3 576.9 -19 546 C-19 545.3 -19 544.7 -19 544 C-21.1 544 -23.3 544 -25.4 544.1 C-60.7 543.8 -96 538.3 -130.5 531.8 C-144.3 529.1 -158 527.7 -172 527 C-174.4 524.6 -173.7 518.2 -174 515 C-176.6 513.4 -179.3 511.7 -182 510 C-180.9 503.3 -178.8 499.8 -174 495 C-175 492 -175 492 -182 487 C-180.3 478.4 -173.7 477.2 -166 475 C-167 472.4 -168 469.7 -169 467 C-169 465.4 -169 463.7 -169 462 C-159 463 -159 463 -154.4 464 C-146.2 464 -140.4 460.4 -133 457 C-108.3 447.6 -83.2 439.4 -57 435 C-61.1 431.7 -65.3 428.7 -69.6 425.8 C-115.4 394.4 -136.5 345.3 -113.5 293.4 C-102.6 270 -89.2 250.3 -68 235 C-68.1 233.6 -68.3 232.1 -68.4 230.6 C-68.8 226.7 -69.1 222.7 -69.5 218.7 C-69.9 214.7 -70.2 210.6 -70.6 206.6 C-74.8 133.4 -52.8 52.8 0 0 Z M577 114 C572.3 117.7 567.7 121.3 563 125 C558.7 128.7 554.3 132.3 550 136 C548.1 137.5 546.3 139 544.4 140.5 C538.6 145.4 533.3 150.6 528 156 C525.4 158.4 522.7 160.7 520 163 C513.2 169.1 507 175.2 501 182 C497.7 185 494.4 188 491 191 C488.3 193.5 485.5 196.1 482.8 198.6 C481.5 199.9 480.2 201.1 478.8 202.4 C475.2 205.8 471.6 209.4 468 213 C464.1 216.9 460.1 220.9 456.1 224.8 C451.2 229.7 446.5 234.7 442 240 C439 243 436 246 433 249 C431.9 250.3 430.8 251.6 429.6 252.9 C425 258.2 420 263 415 268 C412.6 270.7 410.3 273.3 408 276 C406.1 278 404.2 280 402.3 282.1 C364.6 323.2 364.6 323.2 378 349 C379.8 352.6 381.7 356.3 383.5 359.9 C386.6 366.2 389.7 372.4 392.8 378.6 C395.3 383.6 397.8 388.6 400.3 393.6 C401.6 396.1 402.9 398.6 404.2 401.3 C404.8 402.5 404.8 402.5 407.9 408.6 C409 410.8 410.1 413 411.2 415.3 C418.8 430.9 418.8 430.9 409 438.2 C403.3 442.5 397.7 446.9 392.1 451.4 C385.1 457.2 377.7 462.6 370.3 467.9 C364.4 472.1 358.7 476.6 353 481 C351.7 482 350.4 483 349 484 C351.4 488.9 354.5 491.7 358.4 495.5 C359.1 496.3 359.1 496.3 362.9 500 C364.5 501.6 366.1 503.2 367.7 504.8 C370.8 507.8 373.9 510.9 376.9 513.9 C377.6 514.6 377.6 514.6 381.1 518 C384.9 521.9 388.4 525.9 392 530 C394.3 532.3 396.6 534.6 399 537 C399.7 538 400.3 539 401 540 C405 541 405 541 407 537 C407 548 407 548 397 553 C396.2 553.7 396.2 553.7 392 557 C388.3 559 384.7 561 381 563 C371.5 570.6 380 584.1 384 594 C387 594 387 594 392 591 C401.7 586.1 411.7 582.3 421.9 578.4 C427 576.4 432 574.2 437 572 C438.1 571.5 438.1 571.5 443.8 569 C455.3 563.5 455.3 563.5 454 557 C453.3 557 452.7 557 452 557 C451.3 555.4 450.7 553.7 450 552 C448.7 551 447.4 550 446 549 C445.8 548.5 445.8 548.5 445 546 C440 541 440 541 438 541 C437.3 539.7 436.7 538.4 436 537 C430 530 430 530 425 525 C424 523 423 521 422 519 C420.2 516.8 418.3 514.7 416.4 512.4 C411 506 411 506 409 501 C411.3 499.6 413.7 498.2 416.1 496.7 C424.3 491.5 432.1 485.8 440 480 C444.9 476.7 449.8 473.3 454.7 470 C466 462.1 466 462.1 466 459 C467.3 458.3 468.6 457.7 470 457 C468.1 443.7 461.2 432.8 455 421 C446.4 397.9 478.9 384.4 496.7 373.3 C504.9 368.2 513 362.9 521.2 357.7 C525.8 354.8 530.4 351.9 534.9 348.9 C540.4 345.4 545.7 341.7 551 338 C556 334.7 561 331.3 566 328 C567.2 327.2 567.2 327.2 573.1 323.2 C581.2 317.9 589.4 312.7 597.6 307.5 C602.3 304.4 607.1 301.3 611.8 298.2 C618.6 293.9 625.5 289.8 632.5 285.7 C683 255.5 639.6 140.7 622 92 C613 74.1 587.7 104.8 577 114 Z " fill="#151412" transform="translate(342,4)"/>
<path d="M0 0 C3 2 3 2 2.1 11 C1.7 14.9 1.4 18.9 1 22.8 C0.9 23.8 0.9 23.8 0.4 28.7 C-1.1 45.1 -1.6 61.2 0 77.6 C0.7 84.5 1 91 1 98 C1.7 97.5 1.7 97.5 5.2 95.1 C10 92 10 92 14 91 C7.2 97.8 0.2 104.2 -7.1 110.5 C-32.3 133 -47.2 161.4 -55 194 C-54 194 -53 194 -52 194 C-52 193.3 -52 192.7 -52 192 C-28.4 196.7 -17.8 241.1 -16.4 261.8 C-17 268 -17 268 -19 273 C-16.6 284.8 1.9 292.6 11.6 298.2 C17.4 301.9 26.5 309.5 24 317 C16 306.2 16 306.2 16 304 C-15.6 310.5 -46.9 319.3 -76.3 332.9 C-84.8 336 -92.4 333.8 -101 332 C-98.7 336.6 -96.4 341.2 -94 346 C-95.7 346.1 -97.3 346.2 -99.1 346.2 C-105 347 -105 347 -112 351 C-112 354 -112 354 -104 360 C-107 364 -110 368 -113 372 C-113 376 -113 376 -105 381 C-105.3 384.3 -105.7 387.6 -106 391 C-105 391 -105 391 -100.1 390.9 C-85.9 391.1 -72.2 393.4 -58.3 395.9 C-42.3 398.7 -26.2 401 -10 403 C-7.2 403.4 -4.3 403.7 -1.4 404.1 C13.7 405.5 28.9 406.2 44 407 C43.7 405.8 43.7 405.8 42 399.9 C40 392 40 392 40 386 C51.4 391.7 57 430.5 60 443 C60.4 444.8 60.9 446.5 61.4 448.4 C65 463.9 66.5 479.6 68.2 495.4 C73.7 547.1 87.9 593.2 148 601 C168.6 601.7 188.1 595.6 205.6 584.9 C212.8 580.7 219.2 577.7 227 575 C228.5 574.5 229.9 574 231.4 573.4 C263.1 565.4 294.6 578.3 324.2 588.2 C348.2 595.8 373.1 600.3 398 595 C399.6 595 401.3 595 403 595 C399.3 598.7 393.9 599.4 389 601 C391 619.4 398.5 638.1 415 648 C414.5 647 414.5 647 411.7 641.9 C407.7 633.4 405 625.4 405 616 C407 616 407 616 408.5 624.1 C412.1 640.4 417.9 648.3 433 655 C432.8 644.4 430.1 636.7 426 627 C424.9 623 423.9 619 423 615 C425 615 425 615 426.8 619.9 C428.7 625.3 430.8 630.7 433 636 C433.7 637.6 434.3 639.3 435 641 C437 641.7 439 642.3 441 643 C441 643.3 441 643.7 441 644 C439 644 437 644 435 644 C435 648.3 435 652.6 435 657 C413.9 661.2 395.8 637.2 389.2 620.3 C386.9 613.7 385 608 385 601 C383.5 601.1 383.5 601.1 376.2 601.3 C351.4 601.3 328.1 593.9 304.8 585.9 C261 570.8 233.5 573.9 193 597 C193 602 193 607 193.5 612 C195.8 639.1 195.8 639.1 187 650 C186.3 651.3 185.7 652.6 185 654 C162.2 654 151.7 630.8 147 612 C146.7 609.7 146.3 607.4 146 605 C143.6 604.5 141.3 603.9 138.9 603.4 C97.7 592.4 72.2 563.2 67.4 521.3 C67.1 518.9 66.8 516.5 66.5 514.1 C66.2 511.6 65.9 509.1 65.6 506.5 C61.8 474.3 56.7 443.9 47 413 C47 412.3 47 411.7 47 411 C44.9 411 42.7 411 40.6 411.1 C5.3 410.8 -30 405.3 -64.5 398.8 C-78.3 396.1 -92 394.7 -106 394 C-108.4 391.6 -107.7 385.2 -108 382 C-110.6 380.4 -113.3 378.7 -116 377 C-114.9 370.3 -112.8 366.8 -108 362 C-109 359 -109 359 -116 354 C-114.3 345.4 -107.7 344.2 -100 342 C-101 339.4 -102 336.7 -103 334 C-103 332.4 -103 330.7 -103 329 C-93 330 -93 330 -88.4 331 C-80.2 331 -74.4 327.4 -67 324 C-42.3 314.6 -17.2 306.4 9 302 C4.9 298.7 0.7 295.7 -3.6 292.8 C-49.4 261.4 -70.5 212.3 -47.5 160.4 C-36.6 137 -23.2 117.3 -2 102 C-2.1 100.6 -2.3 99.1 -2.4 97.6 C-2.8 93.7 -3.1 89.7 -3.5 85.7 C-3.9 81.7 -4.2 77.6 -4.6 73.6 C-6 49.2 -4.8 24.1 0 0 Z " fill="#1F1A11" transform="translate(276,137)"/>
<path d="M0 0 C8.3 25 4.3 56.3 -20.3 69.9 C-36.2 75.7 -49.9 69.9 -60 57 C-72.9 34.2 -71.4 7.6 -52.6 -11.4 C-33 -26.6 -11.1 -21.2 0 0 Z " fill="#D76F5F" transform="translate(501,311)"/>
<path d="M0 0 C-3.5 8.8 -3.5 8.8 -8 11 C-7.4 19.7 -6.2 28 -4.5 36.5 C0.2 60.3 4.3 86.7 -11 107 C-49.7 109.1 -65.8 58 -78 29 C-79.5 29 -81 29.1 -82.6 29.1 C-83.6 29.2 -83.6 29.2 -88.6 29.2 C-90.5 29.3 -92.5 29.3 -94.5 29.4 C-100 29 -100 29 -107 25 C-104 24 -104 24 -99 25 C-88.3 25.4 -81.9 25.4 -72 21 C-65.4 20.7 -65.4 20.7 -58.2 20.9 C-35.7 21.4 -14.8 0 0 0 Z " fill="#79595E" transform="translate(377,302)"/>
<path d="M0 0 C5.3 2.6 6.3 5.6 9.2 10.8 C14.5 20.3 20.5 29.1 26.8 37.9 C32 45.1 36.9 52.3 41.4 59.9 C48.8 72.2 57.3 83.5 66 94.8 C76.7 109 85.4 124.5 94 140 C104.1 138.6 123 132 128 122 C127 121 126 120 125 119 C126 119 127 119 128 119 C128.3 117 128.7 115 129 113 C131 114 131 114 131 125 C126 130 126 130 120 133 C118.4 134.3 116.7 135.6 115 137 C111.3 139 107.7 141 104 143 C95.5 149.4 104.6 164.5 108 173 C109.2 172.3 109.2 172.3 115 169 C115 170.3 115 171.6 115 173 C116.5 174.5 118 176 119.6 177.5 C123.9 181.9 128 186.3 132 191 C133.3 192.3 134.6 193.6 136 195 C136 195.7 136 196.3 136 197 C137.3 197.7 138.6 198.3 140 199 C143 203 143 203 142 206 C139.4 207 136.7 208 134 209 C127 212 127 212 127 213 C124.5 213.3 124.5 213.3 112 215 C112.1 217.4 112.2 219.7 112.2 222.2 C112.3 246.6 109.3 273 93 292 C93.6 300.8 95.2 309.1 97 317.8 C104.6 353.2 104.6 353.2 99 356 C98.9 354.5 98.7 353 98.6 351.4 C93.6 304.4 93.6 304.4 88 296 C86 297.3 83.9 298.6 81.8 299.9 C71.2 306.3 71.2 306.3 66 305 C67.2 304.5 67.2 304.5 73.2 301.7 C120.4 276.4 112.2 201.5 98 158 C95.5 151.4 95.5 151.4 93 146 C92.1 144 91.2 142 90.3 140 C86.3 134 83.7 133.2 77 131 C66.9 123.4 64.2 118.4 63.8 105.7 C62.6 95.9 57.8 90.4 51.9 82.7 C46.3 75.1 41.3 67.2 36.3 59.2 C27.9 46.1 27.9 46.1 20 45 C3.2 33.8 1 19 0 0 Z " fill="#3E3425" transform="translate(619,425)"/>
<path d="M0 0 C7.7 15.5 6.5 25.6 -5 39 C-18.9 47.4 -32.7 50.3 -45.4 37.6 C-56.7 23.2 -49.6 9.1 -39 -3 C-27 -12.6 -11.2 -9.4 0 0 Z " fill="#16130E" transform="translate(440,244)"/>
<path d="M0 0 C4.8 20.3 8.2 40.3 10 61 C7.7 61 5.4 61 3 61 C3 63.6 3 66.3 3 69 C2.7 69 2.3 69 2 69 C2 60 2 60 6 59 C4.4 58.3 2.7 57.7 1 57 C-2.8 49.2 -5.6 41.4 -8 33 C-8 41.4 -3.3 50.4 0 58 C0.1 62.3 0.1 66.7 0 71 C-17.6 65.1 -26 50.5 -26 32 C-26.7 32 -27.3 32 -28 32 C-27.3 35.3 -26.6 38.6 -25.8 41.9 C-25.4 43.8 -25 45.6 -24.6 47.5 C-23 52.9 -20.9 57.2 -18 62 C-18 62.7 -18 63.3 -18 64 C-34.4 57.4 -45 34 -45 17 C-36 13 -36 13 -32 12 C-33.5 12.2 -33.5 12.2 -41 13 C-41.3 12.3 -41.7 11.7 -42 11 C-38 10 -38 10 -29.6 9.9 C-23.5 9.3 -3.2 -1.6 0 0 Z " fill="#AC9461" transform="translate(709,721)"/>
<path d="M0 0 C4.1 14.3 6.5 32.9 -1 46 C-6.7 46 -9.8 23.4 -11 18 C-10.1 25.2 -8.8 31.4 -6.4 38.3 C-4 45 -4 45 -4 53 C-17.7 50.3 -22.8 36.3 -26 24 C-24 33 -24 33 -21 41 C-20.7 42.3 -20.3 43.6 -20 45 C-23 44 -23 44 -23 42 C-24.3 41.3 -25.6 40.7 -27 40 C-34.3 29.8 -37.5 18.3 -39 6 C-37.4 5.9 -37.4 5.9 -29.4 5.2 C-19.6 4.3 -9.6 0 0 0 Z " fill="#AF9960" transform="translate(464,736)"/>
<path d="M0 0 C10.3 15 26 48 17 66 C-8.3 59.7 -17.3 13.8 -17 -8 C-8.4 -12.3 -5.1 -6.4 0 0 Z " fill="#CE7761" transform="translate(238,343)"/>
<path d="M0 0 C0 16.8 -5.8 39.9 -22 48 C-32.9 48 -32.9 48 -38 39 C-38 22.1 -22.8 -18.3 0 0 Z " fill="#1A160B" transform="translate(275,272)"/>
<path d="M0 0 C4 -0.3 8 -0.6 12 -1 C12 1 12 1 7.2 2.9 C2 5 2 5 -1 7 C0 10 0 10 12 15 C8 25 -1.1 31.4 -10 37 C-11 38 -12 39 -13 40 C-17 40 -20.9 40 -25 40 C-25 36.7 -25 33.4 -25 30 C-27.6 28.4 -30.3 26.7 -33 25 C-31.7 18.4 -28.3 15.1 -24 10 C-29 5 -29 5 -32 3 C-28.3 -12 -8.9 -4.4 0 0 Z " fill="#D1B46E" transform="translate(195,488)"/>
<path d="M0 0 C3 15.1 2.9 32.6 -7 45 C-18.1 48.7 -26.4 43.4 -35 37 C-38.5 23 -23.8 9.1 -12.9 3.1 C-6 0 -6 0 0 0 Z " fill="#BA869D" transform="translate(373,359)"/>
<path d="M0 0 C-3.5 8.8 -3.5 8.8 -8 11 C-7.4 19.7 -6.2 28 -4.5 36.5 C0.2 60.3 4.3 86.7 -11 107 C-49.7 109.1 -65.8 58 -78 29 C-79.5 29 -81 29.1 -82.6 29.1 C-83.6 29.2 -83.6 29.2 -88.6 29.2 C-90.5 29.3 -92.5 29.3 -94.5 29.4 C-100 29 -100 29 -107 25 C-104 24 -104 24 -99 25 C-88.3 25.4 -81.9 25.4 -72 21 C-65.4 20.7 -65.4 20.7 -58.2 20.9 C-35.7 21.4 -14.8 0 0 0 Z M-19.8 17.3 C-33.2 22.3 -46.2 24.1 -60.4 24.6 C-62.8 24.6 -65.1 24.7 -67.6 24.8 C-68.5 24.8 -68.5 24.8 -73 25 C-81.9 33.9 -53.8 73.8 -48.7 81.2 C-45 86 -45 86 -42 87 C-41 84.8 -39.9 82.7 -38.9 80.4 C-31.1 65.6 -20.5 59.2 -5 54 C-5 46.5 -6.1 41.2 -8 34 C-8.7 29.7 -9.3 25.3 -10 21 C-12.2 14.3 -12.2 14.3 -19.8 17.3 Z M-40 93 C-30.6 101 -20.9 107.1 -9 100 C-4.3 90.5 -2.7 83.3 -2.8 72.8 C-2.8 71.9 -2.8 71.9 -2.8 67 C-3 62 -3 62 -4 57 C-25.2 57 -35.9 74.6 -40 93 Z " fill="#251817" transform="translate(377,302)"/>
<path d="M0 0 C0.3 1.3 0.7 2.6 1 4 C4.3 7.4 7.6 10.7 11 14 C13.3 16.7 15.7 19.3 18 22 C19.3 23.3 20.6 24.6 22 26 C22 26.7 22 27.3 22 28 C23.3 28.7 24.6 29.3 26 30 C29 34 29 34 28 37 C25.4 38 22.7 39 20 40 C13 43 13 43 13 44 C-1 46 -1 46 -3 40 C-3.7 34 -4.4 28 -5 22 C-6.7 11.3 -6.7 11.3 -8 10 C-8 7.7 -8 5.4 -8 3 C-7 3.3 -6 3.7 -5 4 C-3.4 2.7 -1.7 1.4 0 0 Z " fill="#785E3F" transform="translate(733,594)"/>
<path d="M0 0 C-0.3 1.3 -0.7 2.6 -1 4 C-0.5 5 -0.5 5 2 10 C6.2 19.5 8.1 26.9 9 37 C9.7 39.3 10.3 41.6 11 44 C12.7 53 13.5 61.9 14 71 C14.3 71.2 14.3 71.2 16 72 C15.7 72.3 15.3 72.7 15 73 C14.9 74.7 14.8 76.3 14.7 78 C11.3 130.5 11.3 130.5 -5 150 C-4.4 158.8 -2.8 167.1 -1 175.8 C6.6 211.2 6.6 211.2 1 214 C0.9 212.5 0.7 211 0.6 209.4 C-4.4 162.4 -4.4 162.4 -10 154 C-12 155.3 -14.1 156.6 -16.2 157.9 C-26.8 164.3 -26.8 164.3 -32 163 C-29.6 161.9 -27.2 160.8 -24.8 159.7 C21 135.2 14.3 63.6 1.6 20.8 C-0.3 15 -2.7 9.6 -5 4 C-4 0 -4 0 0 0 Z " fill="#1F1C11" transform="translate(717,567)"/>
<path d="M0 0 C8.3 25 4.3 56.3 -20.3 69.9 C-36.2 75.7 -49.9 69.9 -60 57 C-72.9 34.2 -71.4 7.6 -52.6 -11.4 C-33 -26.6 -11.1 -21.2 0 0 Z M-65 14 C-66.6 37.3 -62.4 61.5 -37 69 C-19.1 70.5 -8.5 62.6 -2 46 C-0.1 38.4 0.3 32.4 0.3 24.6 C0.3 23.5 0.3 23.5 0.4 17.6 C-0.5 1.2 -7.7 -13.5 -25 -17 C-46.9 -18.2 -59.1 -6.7 -65 14 Z " fill="#301D1A" transform="translate(501,311)"/>
<path d="M0 0 C-1.1 -0 -1.1 -0 -6.7 -0.1 C-9.6 -0.1 -12.5 -0.1 -15.4 -0.1 C-18.3 -0.1 -21.2 -0.2 -24.1 -0.2 C-32 0 -32 0 -41 2 C-40.3 3 -40.3 3 -37 8 C-35.7 11 -34.4 13.9 -33 17 C-29 15 -29 15 -22 9 C-14 10.6 -13 18.4 -13 26 C-9 25 -9 25 -8 22 C-6 22 -6 22 -4 30 C-2.7 56.3 -2.7 56.3 -8 59 C-8 49.1 -8 39.2 -8 29 C-13 29 -13 29 -14 32 C-20.6 32 -18.6 19.5 -20 13 C-25 14 -25 14 -31 21 C-36.8 19.1 -39.6 11.9 -43 7 C-44 6.7 -45 6.3 -46 6 C-46.7 8.6 -47.3 11.3 -48 14 C-51 20 -51 20 -58 19 C-62 15 -62 15 -61 10 C-52.1 2.5 -8.3 -16.5 0 0 Z " fill="#3F3925" transform="translate(569,415)"/>
<path d="M0 0 C1.1 5.6 1.1 10.6 1.1 16.3 C1.1 18.3 1 20.3 1 22.4 C1 23.9 1 25.4 1 27 C0.7 27 0.3 27 0 27 C0 23.7 0 20.4 0 17 C-14.9 20.4 -26.2 23.7 -36 36 C-31.9 17.7 -21 0 0 0 Z " fill="#926473" transform="translate(373,359)"/>
<path d="M0 0 C0 1 0 2 0 3 C0.7 3 1.3 3 2 3 C6.8 13.5 9.9 21.4 9 33 C-1.9 29.4 -13 23.1 -13 10 C-11.4 8.4 -9.7 6.7 -8 5 C-4 -1 -4 -1 0 0 Z " fill="#D7B877" transform="translate(700,759)"/>
<path d="M0 0 C-2 5 -2 5 -3 7 C-3 13 -3 13 -2 15 C-1.9 28.5 -3.3 28.9 -17 32 C-17 37 -17 37 -13 39 C-10.4 40.6 -7.7 42.3 -5 44 C-5.7 44.2 -5.7 44.2 -9 45 C-6.4 65.2 3.3 80.2 18 94 C17.7 94.7 17.3 95.3 17 96 C-0.1 83.5 -13 64.9 -13 43 C-14.3 42.3 -15.6 41.7 -17 41 C-21 37 -21 37 -21 32 C-19 30.7 -17 29.4 -15 28 C-12.9 23.7 -10.9 19.4 -9 15 C-8 14 -7 13 -6 12 C-5.7 9 -5.3 6.1 -5 3 C-3 0 -3 0 0 0 Z " fill="#2D2816" transform="translate(505,426)"/>
<path d="M0 0 C4.8 7.1 0.5 12.1 -4 18 C-10.6 21.3 -13.4 19.4 -19 15 C-20.9 2 -12.2 -7.3 0 0 Z " fill="#F7F7F6" transform="translate(421,241)"/>
<path d="M0 0 C7.2 7.2 4.9 8.4 0 17 C-5 20.3 -8.8 20.2 -13 16 C-13 4.6 -12.1 0 0 0 Z " fill="#F6F7F4" transform="translate(268,270)"/>
</svg>
