<?xml version="1.0" standalone="no"?>
<!DOCTYPE svg PUBLIC "-//W3C//DTD SVG 20010904//EN"
 "http://www.w3.org/TR/2001/REC-SVG-20010904/DTD/svg10.dtd">
<svg version="1.0" xmlns="http://www.w3.org/2000/svg"
 width="558.000000pt" height="612.000000pt" viewBox="0 0 558.000000 612.000000"
 preserveAspectRatio="xMidYMid meet">
<metadata>
Created by potrace 1.16, written by Peter Selinger 2001-2019
</metadata>
<g transform="translate(0.000000,612.000000) scale(0.100000,-0.100000)"
fill="#000000" stroke="none">
<path d="M2810 5180 c-220 -37 -663 -271 -976 -515 -325 -254 -739 -696 -870
-931 -67 -119 -87 -195 -88 -329 -1 -103 3 -129 23 -185 71 -195 274 -384 581
-539 63 -32 149 -73 190 -90 41 -18 84 -36 95 -41 39 -18 80 -31 70 -22 -5 4
-55 28 -110 51 -274 118 -481 241 -614 366 -175 166 -240 303 -228 489 11 186
93 336 343 626 290 337 639 637 972 836 151 91 412 217 512 249 180 56 411 44
569 -31 204 -95 321 -229 321 -367 0 -143 -99 -230 -395 -347 -121 -48 -342
-159 -508 -254 -289 -166 -691 -448 -716 -502 -9 -21 -14 -25 -21 -14 -17 27
-318 -277 -393 -396 -30 -49 -57 -139 -57 -192 0 -58 30 -154 67 -214 47 -78
119 -156 233 -250 112 -93 185 -131 386 -197 199 -66 323 -97 444 -111 291
-34 618 87 690 256 39 91 21 164 -58 244 -96 94 -211 144 -562 240 -342 94
-480 149 -600 239 -57 42 -132 125 -154 170 -54 108 -6 203 168 333 381 285
770 508 1196 685 162 67 238 127 276 218 20 49 18 135 -6 199 -53 139 -251
277 -462 320 -80 17 -239 19 -318 6z m-850 -1563 c0 -2 -8 -19 -17 -38 -20
-41 -21 -111 -1 -159 20 -48 96 -134 160 -183 113 -85 258 -140 693 -262 136
-38 232 -71 301 -105 204 -99 284 -221 223 -342 -86 -169 -394 -282 -679 -248
-176 20 -508 119 -654 194 -88 45 -234 162 -318 255 -108 120 -156 233 -144
345 12 114 75 207 280 409 122 119 156 149 156 134z M2729 3850 c-161 -19
-335 -88 -414 -165 -112 -109 -114 -227 -5 -335 95 -95 217 -147 590 -250 262
-72 332 -96 444 -153 110 -56 212 -143 265 -226 25 -38 31 -59 31 -101 0 -116
-87 -200 -474 -454 -310 -204 -610 -365 -891 -477 -110 -43 -143 -61 -202
-108 -116 -91 -138 -244 -55 -375 103 -164 347 -276 602 -276 166 0 288 34
515 146 433 211 813 508 1179 918 281 315 379 486 393 688 8 102 -9 184 -59
287 -74 154 -263 320 -521 456 -117 62 -356 167 -370 162 -5 -1 38 -22 94 -46
291 -123 506 -254 649 -400 180 -181 235 -353 180 -565 -48 -189 -232 -437
-580 -786 -295 -295 -584 -506 -946 -691 -242 -124 -361 -159 -534 -159 -212
0 -397 70 -529 201 -105 104 -141 228 -94 326 42 90 132 152 342 238 347 141
772 387 1123 649 141 106 179 158 186 252 6 83 -13 121 -112 220 -122 121
-235 173 -582 269 -286 79 -396 115 -487 162 -240 124 -291 273 -142 417 124
121 393 194 617 166 169 -20 533 -128 648 -192 89 -49 199 -135 291 -228 69
-69 95 -103 130 -175 41 -83 44 -94 44 -169 0 -69 -4 -89 -29 -136 -47 -91
-102 -158 -253 -306 -78 -77 -143 -144 -143 -148 0 -16 226 203 297 288 156
186 178 313 85 499 -60 120 -279 322 -425 391 -72 34 -326 118 -452 150 -168
42 -272 51 -406 36z"/>
</g>
</svg>
