<?xml version="1.0" standalone="no"?>
<!DOCTYPE svg PUBLIC "-//W3C//DTD SVG 20010904//EN"
 "http://www.w3.org/TR/2001/REC-SVG-20010904/DTD/svg10.dtd">
<svg version="1.0" xmlns="http://www.w3.org/2000/svg"
 width="41.000000pt" height="96.000000pt" viewBox="0 0 41.000000 96.000000"
 preserveAspectRatio="xMidYMid meet">
<metadata>
Created by potrace 1.16, written by Peter Selinger 2001-2019
</metadata>
<g transform="translate(0.000000,96.000000) scale(0.100000,-0.100000)"
fill="#000000" stroke="none">
<path d="M165 878 c-4 -13 -25 -49 -46 -80 -48 -69 -58 -109 -35 -143 9 -13
16 -33 16 -43 0 -11 11 -27 25 -36 34 -23 45 -19 15 5 -21 18 -38 50 -57 112
-4 12 11 42 41 86 25 37 46 75 46 84 0 19 20 33 21 15 3 -28 -4 -45 -35 -88
-40 -54 -49 -70 -42 -70 3 0 23 24 45 53 37 49 45 69 42 110 -2 25 -28 21 -36
-5z M226 852 c7 -4 14 -16 17 -27 4 -15 5 -14 6 8 1 20 -4 27 -16 27 -12 0
-14 -3 -7 -8z M175 772 c-51 -72 -60 -86 -48 -79 19 12 95 116 91 125 -1 6
-21 -15 -43 -46z M276 769 c1 -22 4 -43 8 -46 15 -15 3 -51 -29 -92 -19 -24
-35 -51 -34 -60 0 -14 1 -14 6 -1 4 8 21 33 40 54 23 28 33 50 33 73 0 18 -4
33 -8 33 -4 0 -6 15 -4 34 2 18 0 36 -5 39 -5 3 -8 -12 -7 -34z M231 794 c-1
-5 -21 -34 -46 -63 -52 -61 -59 -78 -14 -35 44 41 71 82 66 97 -3 6 -6 7 -6 1z
M206 714 c-27 -30 -46 -57 -44 -60 7 -6 98 92 98 106 0 14 0 14 -54 -46z M210
668 l-33 -43 41 40 c44 41 47 45 34 45 -5 0 -24 -19 -42 -42z M243 667 c-35
-39 -37 -53 -2 -20 18 18 31 35 28 38 -3 3 -15 -5 -26 -18z M24 526 c4 -26 31
-49 84 -72 l52 -24 0 -156 0 -155 28 3 27 3 3 153 3 152 -31 0 c-16 0 -30 4
-30 8 0 4 -15 14 -34 20 -38 14 -86 49 -86 63 0 5 65 9 152 9 l151 0 -19 -21
c-32 -35 -92 -61 -127 -55 -30 6 -30 5 -7 -5 33 -14 85 2 132 39 59 46 44 52
-137 52 -134 0 -163 -2 -161 -14z m184 -248 c-3 -127 -5 -143 -20 -146 -17 -3
-18 9 -18 142 0 140 1 146 20 146 20 0 20 -5 18 -142z"/>
</g>
</svg>
